<?xml version="1.0" encoding="UTF-8" standalone="no"?>
<svg
   version="1.1"
   width="43.361332mm"
   height="43.361332mm"
   viewBox="0 0 43.361332 43.361331"
   id="svg27219"
   xmlns="http://www.w3.org/2000/svg"
   xmlns:svg="http://www.w3.org/2000/svg">
  <defs
     id="defs27223" />
  <title
     id="title26339">SVG Image created as prism-pcb-User_Drawings.svg date 2024/10/22 14:42:29 </title>
  <desc
     id="desc26341">Image generated by PCBNEW </desc>
  <g
     style="fill:#000000;fill-opacity:1;stroke:#000000;stroke-linecap:round;stroke-linejoin:round;stroke-opacity:1"
     id="g26343"
     transform="translate(-130.677,-79.877)" />
  <g
     style="fill:#000000;fill-opacity:0;stroke:#000000;stroke-width:0;stroke-linecap:round;stroke-linejoin:round;stroke-opacity:1"
     id="g26345"
     transform="translate(-130.677,-79.877)" />
  <g
     style="fill:#c2c2c2;fill-opacity:0;stroke:#c2c2c2;stroke-width:0;stroke-linecap:round;stroke-linejoin:round;stroke-opacity:1"
     id="g26347"
     transform="translate(-130.677,-79.877)" />
  <g
     style="fill:#c2c2c2;fill-opacity:0;stroke:#c2c2c2;stroke-width:0.1;stroke-linecap:round;stroke-linejoin:round;stroke-opacity:1"
     id="g26353"
     transform="translate(-130.677,-79.877)">
    <path
       d="m 136.9,81.6 a 4.5,4.5 0 0 0 -4.5,4.5"
       id="path26349" />
    <path
       d="m 136.9,81.6 h 31"
       id="path26351" />
  </g>
  <g
     style="fill:#c2c2c2;fill-opacity:0;stroke:#c2c2c2;stroke-width:0.2;stroke-linecap:round;stroke-linejoin:round;stroke-opacity:1"
     id="g26357"
     transform="translate(-130.677,-79.877)">
    <path
       d="m 152.4,91.6 v 20"
       id="path26355" />
  </g>
  <g
     style="fill:#c2c2c2;fill-opacity:0;stroke:#c2c2c2;stroke-width:0.1;stroke-linecap:round;stroke-linejoin:round;stroke-opacity:1"
     id="g26371"
     transform="translate(-130.677,-79.877)">
    <path
       d="m 167.9,121.6 h -31"
       id="path26359" />
    <path
       d="m 132.4,117.1 v -31"
       id="path26361" />
    <path
       d="m 167.9,121.6 a 4.5,4.5 0 0 0 4.5,-4.5"
       id="path26363" />
    <path
       d="m 172.4,86.1 v 31"
       id="path26365" />
    <path
       d="m 132.4,117.1 a 4.5,4.5 0 0 0 4.5,4.5"
       id="path26367" />
    <path
       d="m 172.4,86.1 a 4.5,4.5 0 0 0 -4.5,-4.5"
       id="path26369" />
  </g>
  <g
     style="fill:#c2c2c2;fill-opacity:0;stroke:#c2c2c2;stroke-width:0.2;stroke-linecap:round;stroke-linejoin:round;stroke-opacity:1"
     id="g26375"
     transform="translate(-130.677,-79.877)">
    <path
       d="m 142.4,101.6 h 20"
       id="path26373" />
  </g>
  <g
     style="fill:#c2c2c2;fill-opacity:0;stroke:#c2c2c2;stroke-width:0.25;stroke-linecap:round;stroke-linejoin:round;stroke-opacity:1"
     id="g26483"
     transform="translate(-130.677,-79.877)">
    <g
       transform="rotate(-90,131.4,101.6)"
       id="g26379">
      <text
         x="131.39999"
         y="102.1"
         textLength="5.8832998"
         font-size="1.3333px"
         lengthAdjust="spacingAndGlyphs"
         text-anchor="middle"
         opacity="0"
         id="text26377">40 mm</text>
    </g>
    <g
       class="stroked-text"
       id="g26481">
      <desc
         id="desc26381">40 mm</desc>
      <path
         d="m 131.183,103.6 h 0.6666"
         id="path26383" />
      <path
         d="m 130.802,103.8381 0.7143,0.2381"
         id="path26385" />
      <path
         d="m 131.5163,104.0762 v -0.6191"
         id="path26387" />
      <path
         d="m 130.8496,102.8857 v -0.0952"
         id="path26389" />
      <path
         d="m 130.8496,102.7905 0.0476,-0.0953"
         id="path26391" />
      <path
         d="m 130.8972,102.6952 0.0477,-0.0476"
         id="path26393" />
      <path
         d="M 130.9449,102.6476 131.0401,102.6"
         id="path26395" />
      <path
         d="m 131.0401,102.6 0.1905,-0.0476"
         id="path26397" />
      <path
         d="m 131.2306,102.5524 h 0.2381"
         id="path26399" />
      <path
         d="m 131.4687,102.5524 0.1904,0.0476"
         id="path26401" />
      <path
         d="m 131.6591,102.6 0.0953,0.0476"
         id="path26403" />
      <path
         d="m 131.7544,102.6476 0.0476,0.0476"
         id="path26405" />
      <path
         d="m 131.802,102.6952 0.0476,0.0953"
         id="path26407" />
      <path
         d="m 131.8496,102.7905 v 0.0952"
         id="path26409" />
      <path
         d="m 131.8496,102.8857 -0.0476,0.0953"
         id="path26411" />
      <path
         d="m 131.802,102.981 -0.0476,0.0476"
         id="path26413" />
      <path
         d="m 131.7544,103.0286 -0.0953,0.0476"
         id="path26415" />
      <path
         d="m 131.6591,103.0762 -0.1904,0.0476"
         id="path26417" />
      <path
         d="m 131.4687,103.1238 h -0.2381"
         id="path26419" />
      <path
         d="m 131.2306,103.1238 -0.1905,-0.0476"
         id="path26421" />
      <path
         d="m 131.0401,103.0762 -0.0952,-0.0476"
         id="path26423" />
      <path
         d="m 130.9449,103.0286 -0.0477,-0.0476"
         id="path26425" />
      <path
         d="m 130.8972,102.981 -0.0476,-0.0953"
         id="path26427" />
      <path
         d="M 131.8496,101.3619 H 131.183"
         id="path26429" />
      <path
         d="m 131.2782,101.3619 -0.0476,-0.0476"
         id="path26431" />
      <path
         d="M 131.2306,101.3143 131.183,101.219"
         id="path26433" />
      <path
         d="m 131.183,101.219 v -0.1428"
         id="path26435" />
      <path
         d="m 131.183,101.0762 0.0476,-0.0952"
         id="path26437" />
      <path
         d="m 131.2306,100.981 0.0952,-0.0477"
         id="path26439" />
      <path
         d="m 131.3258,100.9333 h 0.5238"
         id="path26441" />
      <path
         d="m 131.3258,100.9333 -0.0952,-0.0476"
         id="path26443" />
      <path
         d="m 131.2306,100.8857 -0.0476,-0.0952"
         id="path26445" />
      <path
         d="m 131.183,100.7905 v -0.1429"
         id="path26447" />
      <path
         d="m 131.183,100.6476 0.0476,-0.0952"
         id="path26449" />
      <path
         d="m 131.2306,100.5524 0.0952,-0.0476"
         id="path26451" />
      <path
         d="m 131.3258,100.5048 h 0.5238"
         id="path26453" />
      <path
         d="M 131.8496,100.0286 H 131.183"
         id="path26455" />
      <path
         d="M 131.2782,100.0286 131.2306,99.981"
         id="path26457" />
      <path
         d="M 131.2306,99.981 131.183,99.8857"
         id="path26459" />
      <path
         d="M 131.183,99.8857 V 99.7429"
         id="path26461" />
      <path
         d="m 131.183,99.7429 0.0476,-0.0953"
         id="path26463" />
      <path
         d="M 131.2306,99.6476 131.3258,99.6"
         id="path26465" />
      <path
         d="m 131.3258,99.6 h 0.5238"
         id="path26467" />
      <path
         d="m 131.3258,99.6 -0.0952,-0.0476"
         id="path26469" />
      <path
         d="M 131.2306,99.5524 131.183,99.4571"
         id="path26471" />
      <path
         d="M 131.183,99.4571 V 99.3143"
         id="path26473" />
      <path
         d="m 131.183,99.3143 0.0476,-0.0953"
         id="path26475" />
      <path
         d="m 131.2306,99.219 0.0952,-0.0476"
         id="path26477" />
      <path
         d="m 131.3258,99.1714 h 0.5238"
         id="path26479" />
    </g>
  </g>
  <g
     style="fill:#c2c2c2;fill-opacity:0;stroke:#c2c2c2;stroke-width:0.1;stroke-linecap:round;stroke-linejoin:round;stroke-opacity:1"
     id="g26501"
     transform="translate(-130.677,-79.877)">
    <path
       d="M 150.9,121.6 H 130.8136"
       id="path26485" />
    <path
       d="M 130.8136,81.6 H 156.9"
       id="path26487" />
    <path
       d="M 131.4,121.6 V 105.0417"
       id="path26489" />
    <path
       d="M 131.4,98.1583 V 81.6"
       id="path26491" />
    <path
       d="m 131.4,121.6 -0.5864,-1.1265"
       id="path26493" />
    <path
       d="m 131.4,121.6 0.5864,-1.1265"
       id="path26495" />
    <path
       d="m 131.4,81.6 0.5864,1.1265"
       id="path26497" />
    <path
       d="m 131.4,81.6 -0.5864,1.1265"
       id="path26499" />
  </g>
  <g
     style="fill:#c2c2c2;fill-opacity:0;stroke:#c2c2c2;stroke-width:0.25;stroke-linecap:round;stroke-linejoin:round;stroke-opacity:1"
     id="g26599"
     transform="translate(-130.677,-79.877)">
    <g
       transform="rotate(-90,173.4,101.6)"
       id="g26505">
      <text
         x="173.39999"
         y="102.1"
         textLength="5.8832998"
         font-size="1.3333px"
         lengthAdjust="spacingAndGlyphs"
         text-anchor="middle"
         opacity="0"
         id="text26503">31 mm</text>
    </g>
    <g
       class="stroked-text"
       id="g26597">
      <desc
         id="desc26507">31 mm</desc>
      <path
         d="m 172.8496,104.1238 v -0.619"
         id="path26509" />
      <path
         d="m 172.8496,103.5048 0.381,0.3333"
         id="path26511" />
      <path
         d="m 173.2306,103.8381 v -0.1429"
         id="path26513" />
      <path
         d="M 173.2306,103.6952 173.2782,103.6"
         id="path26515" />
      <path
         d="m 173.2782,103.6 0.0476,-0.0476"
         id="path26517" />
      <path
         d="m 173.3258,103.5524 0.0952,-0.0476"
         id="path26519" />
      <path
         d="m 173.421,103.5048 h 0.2381"
         id="path26521" />
      <path
         d="m 173.6591,103.5048 0.0953,0.0476"
         id="path26523" />
      <path
         d="M 173.7544,103.5524 173.802,103.6"
         id="path26525" />
      <path
         d="m 173.802,103.6 0.0476,0.0952"
         id="path26527" />
      <path
         d="m 173.8496,103.6952 v 0.2858"
         id="path26529" />
      <path
         d="m 173.8496,103.981 -0.0476,0.0952"
         id="path26531" />
      <path
         d="m 173.802,104.0762 -0.0476,0.0476"
         id="path26533" />
      <path
         d="m 173.8496,102.5524 v 0.5714"
         id="path26535" />
      <path
         d="m 173.8496,102.8381 h -1"
         id="path26537" />
      <path
         d="m 172.8496,102.8381 0.1429,0.0952"
         id="path26539" />
      <path
         d="m 172.9925,102.9333 0.0952,0.0953"
         id="path26541" />
      <path
         d="m 173.0877,103.0286 0.0476,0.0952"
         id="path26543" />
      <path
         d="M 173.8496,101.3619 H 173.183"
         id="path26545" />
      <path
         d="m 173.2782,101.3619 -0.0476,-0.0476"
         id="path26547" />
      <path
         d="M 173.2306,101.3143 173.183,101.219"
         id="path26549" />
      <path
         d="m 173.183,101.219 v -0.1428"
         id="path26551" />
      <path
         d="m 173.183,101.0762 0.0476,-0.0952"
         id="path26553" />
      <path
         d="m 173.2306,100.981 0.0952,-0.0477"
         id="path26555" />
      <path
         d="m 173.3258,100.9333 h 0.5238"
         id="path26557" />
      <path
         d="m 173.3258,100.9333 -0.0952,-0.0476"
         id="path26559" />
      <path
         d="m 173.2306,100.8857 -0.0476,-0.0952"
         id="path26561" />
      <path
         d="m 173.183,100.7905 v -0.1429"
         id="path26563" />
      <path
         d="m 173.183,100.6476 0.0476,-0.0952"
         id="path26565" />
      <path
         d="m 173.2306,100.5524 0.0952,-0.0476"
         id="path26567" />
      <path
         d="m 173.3258,100.5048 h 0.5238"
         id="path26569" />
      <path
         d="M 173.8496,100.0286 H 173.183"
         id="path26571" />
      <path
         d="M 173.2782,100.0286 173.2306,99.981"
         id="path26573" />
      <path
         d="M 173.2306,99.981 173.183,99.8857"
         id="path26575" />
      <path
         d="M 173.183,99.8857 V 99.7429"
         id="path26577" />
      <path
         d="m 173.183,99.7429 0.0476,-0.0953"
         id="path26579" />
      <path
         d="M 173.2306,99.6476 173.3258,99.6"
         id="path26581" />
      <path
         d="m 173.3258,99.6 h 0.5238"
         id="path26583" />
      <path
         d="m 173.3258,99.6 -0.0952,-0.0476"
         id="path26585" />
      <path
         d="M 173.2306,99.5524 173.183,99.4571"
         id="path26587" />
      <path
         d="M 173.183,99.4571 V 99.3143"
         id="path26589" />
      <path
         d="m 173.183,99.3143 0.0476,-0.0953"
         id="path26591" />
      <path
         d="m 173.2306,99.219 0.0952,-0.0476"
         id="path26593" />
      <path
         d="m 173.3258,99.1714 h 0.5238"
         id="path26595" />
    </g>
  </g>
  <g
     style="fill:#c2c2c2;fill-opacity:0;stroke:#c2c2c2;stroke-width:0.1;stroke-linecap:round;stroke-linejoin:round;stroke-opacity:1"
     id="g26617"
     transform="translate(-130.677,-79.877)">
    <path
       d="m 168.4,117.1 h 5.5864"
       id="path26601" />
    <path
       d="M 173.9864,86.1 H 168.4"
       id="path26603" />
    <path
       d="M 173.4,117.1 V 105.0417"
       id="path26605" />
    <path
       d="M 173.4,98.1583 V 86.1"
       id="path26607" />
    <path
       d="m 173.4,117.1 -0.5864,-1.1265"
       id="path26609" />
    <path
       d="m 173.4,117.1 0.5864,-1.1265"
       id="path26611" />
    <path
       d="m 173.4,86.1 0.5864,1.1265"
       id="path26613" />
    <path
       d="m 173.4,86.1 -0.5864,1.1265"
       id="path26615" />
  </g>
  <g
     style="fill:#c2c2c2;fill-opacity:0;stroke:#c2c2c2;stroke-width:0.25;stroke-linecap:round;stroke-linejoin:round;stroke-opacity:1"
     id="g26713"
     transform="translate(-130.677,-79.877)">
    <text
       x="152.39999"
       y="123.1"
       textLength="5.8832998"
       font-size="1.3333px"
       lengthAdjust="spacingAndGlyphs"
       text-anchor="middle"
       opacity="0"
       id="text26619">31 mm</text>
    <g
       class="stroked-text"
       id="g26711">
      <desc
         id="desc26621">31 mm</desc>
      <path
         d="m 149.8762,122.0496 h 0.619"
         id="path26623" />
      <path
         d="m 150.4952,122.0496 -0.3333,0.381"
         id="path26625" />
      <path
         d="m 150.1619,122.4306 h 0.1429"
         id="path26627" />
      <path
         d="m 150.3048,122.4306 0.0952,0.0476"
         id="path26629" />
      <path
         d="m 150.4,122.4782 0.0476,0.0476"
         id="path26631" />
      <path
         d="m 150.4476,122.5258 0.0476,0.0952"
         id="path26633" />
      <path
         d="m 150.4952,122.621 v 0.2381"
         id="path26635" />
      <path
         d="m 150.4952,122.8591 -0.0476,0.0953"
         id="path26637" />
      <path
         d="M 150.4476,122.9544 150.4,123.002"
         id="path26639" />
      <path
         d="m 150.4,123.002 -0.0952,0.0476"
         id="path26641" />
      <path
         d="M 150.3048,123.0496 H 150.019"
         id="path26643" />
      <path
         d="m 150.019,123.0496 -0.0952,-0.0476"
         id="path26645" />
      <path
         d="m 149.9238,123.002 -0.0476,-0.0476"
         id="path26647" />
      <path
         d="m 151.4476,123.0496 h -0.5714"
         id="path26649" />
      <path
         d="m 151.1619,123.0496 v -1"
         id="path26651" />
      <path
         d="m 151.1619,122.0496 -0.0952,0.1429"
         id="path26653" />
      <path
         d="m 151.0667,122.1925 -0.0953,0.0952"
         id="path26655" />
      <path
         d="m 150.9714,122.2877 -0.0952,0.0476"
         id="path26657" />
      <path
         d="M 152.6381,123.0496 V 122.383"
         id="path26659" />
      <path
         d="m 152.6381,122.4782 0.0476,-0.0476"
         id="path26661" />
      <path
         d="m 152.6857,122.4306 0.0953,-0.0476"
         id="path26663" />
      <path
         d="m 152.781,122.383 h 0.1428"
         id="path26665" />
      <path
         d="m 152.9238,122.383 0.0952,0.0476"
         id="path26667" />
      <path
         d="m 153.019,122.4306 0.0477,0.0952"
         id="path26669" />
      <path
         d="m 153.0667,122.5258 v 0.5238"
         id="path26671" />
      <path
         d="m 153.0667,122.5258 0.0476,-0.0952"
         id="path26673" />
      <path
         d="m 153.1143,122.4306 0.0952,-0.0476"
         id="path26675" />
      <path
         d="m 153.2095,122.383 h 0.1429"
         id="path26677" />
      <path
         d="m 153.3524,122.383 0.0952,0.0476"
         id="path26679" />
      <path
         d="m 153.4476,122.4306 0.0476,0.0952"
         id="path26681" />
      <path
         d="m 153.4952,122.5258 v 0.5238"
         id="path26683" />
      <path
         d="M 153.9714,123.0496 V 122.383"
         id="path26685" />
      <path
         d="m 153.9714,122.4782 0.0476,-0.0476"
         id="path26687" />
      <path
         d="m 154.019,122.4306 0.0953,-0.0476"
         id="path26689" />
      <path
         d="m 154.1143,122.383 h 0.1428"
         id="path26691" />
      <path
         d="m 154.2571,122.383 0.0953,0.0476"
         id="path26693" />
      <path
         d="m 154.3524,122.4306 0.0476,0.0952"
         id="path26695" />
      <path
         d="m 154.4,122.5258 v 0.5238"
         id="path26697" />
      <path
         d="m 154.4,122.5258 0.0476,-0.0952"
         id="path26699" />
      <path
         d="m 154.4476,122.4306 0.0953,-0.0476"
         id="path26701" />
      <path
         d="m 154.5429,122.383 h 0.1428"
         id="path26703" />
      <path
         d="m 154.6857,122.383 0.0953,0.0476"
         id="path26705" />
      <path
         d="m 154.781,122.4306 0.0476,0.0952"
         id="path26707" />
      <path
         d="m 154.8286,122.5258 v 0.5238"
         id="path26709" />
    </g>
  </g>
  <g
     style="fill:#c2c2c2;fill-opacity:0;stroke:#c2c2c2;stroke-width:0.1;stroke-linecap:round;stroke-linejoin:round;stroke-opacity:1"
     id="g26731"
     transform="translate(-130.677,-79.877)">
    <path
       d="m 136.9,117.6 v 5.5864"
       id="path26715" />
    <path
       d="M 167.9,123.1864 V 117.6"
       id="path26717" />
    <path
       d="m 136.9,122.6 h 12.0583"
       id="path26719" />
    <path
       d="M 155.8417,122.6 H 167.9"
       id="path26721" />
    <path
       d="m 136.9,122.6 1.1265,-0.5864"
       id="path26723" />
    <path
       d="m 136.9,122.6 1.1265,0.5864"
       id="path26725" />
    <path
       d="m 167.9,122.6 -1.1265,0.5864"
       id="path26727" />
    <path
       d="m 167.9,122.6 -1.1265,-0.5864"
       id="path26729" />
  </g>
  <g
     style="fill:#c2c2c2;fill-opacity:0;stroke:#c2c2c2;stroke-width:0.25;stroke-linecap:round;stroke-linejoin:round;stroke-opacity:1"
     id="g26847"
     transform="translate(-130.677,-79.877)">
    <text
       x="136.89999"
       y="111.1"
       textLength="6.3594999"
       font-size="1.3333px"
       lengthAdjust="spacingAndGlyphs"
       text-anchor="middle"
       opacity="0"
       id="text26733">3.2 mm</text>
    <g
       class="stroked-text"
       id="g26845">
      <desc
         id="desc26735">3.2 mm</desc>
      <path
         d="m 134.1381,110.0496 h 0.619"
         id="path26737" />
      <path
         d="m 134.7571,110.0496 -0.3333,0.381"
         id="path26739" />
      <path
         d="m 134.4238,110.4306 h 0.1429"
         id="path26741" />
      <path
         d="m 134.5667,110.4306 0.0952,0.0476"
         id="path26743" />
      <path
         d="m 134.6619,110.4782 0.0476,0.0476"
         id="path26745" />
      <path
         d="m 134.7095,110.5258 0.0476,0.0952"
         id="path26747" />
      <path
         d="m 134.7571,110.621 v 0.2381"
         id="path26749" />
      <path
         d="m 134.7571,110.8591 -0.0476,0.0953"
         id="path26751" />
      <path
         d="m 134.7095,110.9544 -0.0476,0.0476"
         id="path26753" />
      <path
         d="m 134.6619,111.002 -0.0952,0.0476"
         id="path26755" />
      <path
         d="M 134.5667,111.0496 H 134.281"
         id="path26757" />
      <path
         d="m 134.281,111.0496 -0.0953,-0.0476"
         id="path26759" />
      <path
         d="m 134.1857,111.002 -0.0476,-0.0476"
         id="path26761" />
      <path
         d="m 135.1857,110.9544 0.0476,0.0476"
         id="path26763" />
      <path
         d="m 135.2333,111.002 -0.0476,0.0476"
         id="path26765" />
      <path
         d="m 135.1857,111.0496 -0.0476,-0.0476"
         id="path26767" />
      <path
         d="m 135.1381,111.002 0.0476,-0.0476"
         id="path26769" />
      <path
         d="m 135.1857,110.9544 v 0.0952"
         id="path26771" />
      <path
         d="m 135.6143,110.1449 0.0476,-0.0477"
         id="path26773" />
      <path
         d="m 135.6619,110.0972 0.0952,-0.0476"
         id="path26775" />
      <path
         d="m 135.7571,110.0496 h 0.2381"
         id="path26777" />
      <path
         d="m 135.9952,110.0496 0.0953,0.0476"
         id="path26779" />
      <path
         d="m 136.0905,110.0972 0.0476,0.0477"
         id="path26781" />
      <path
         d="m 136.1381,110.1449 0.0476,0.0952"
         id="path26783" />
      <path
         d="m 136.1857,110.2401 v 0.0952"
         id="path26785" />
      <path
         d="m 136.1857,110.3353 -0.0476,0.1429"
         id="path26787" />
      <path
         d="m 136.1381,110.4782 -0.5714,0.5714"
         id="path26789" />
      <path
         d="m 135.5667,111.0496 h 0.619"
         id="path26791" />
      <path
         d="M 137.3762,111.0496 V 110.383"
         id="path26793" />
      <path
         d="m 137.3762,110.4782 0.0476,-0.0476"
         id="path26795" />
      <path
         d="m 137.4238,110.4306 0.0952,-0.0476"
         id="path26797" />
      <path
         d="m 137.519,110.383 h 0.1429"
         id="path26799" />
      <path
         d="m 137.6619,110.383 0.0952,0.0476"
         id="path26801" />
      <path
         d="m 137.7571,110.4306 0.0477,0.0952"
         id="path26803" />
      <path
         d="m 137.8048,110.5258 v 0.5238"
         id="path26805" />
      <path
         d="m 137.8048,110.5258 0.0476,-0.0952"
         id="path26807" />
      <path
         d="m 137.8524,110.4306 0.0952,-0.0476"
         id="path26809" />
      <path
         d="m 137.9476,110.383 h 0.1429"
         id="path26811" />
      <path
         d="m 138.0905,110.383 0.0952,0.0476"
         id="path26813" />
      <path
         d="m 138.1857,110.4306 0.0476,0.0952"
         id="path26815" />
      <path
         d="m 138.2333,110.5258 v 0.5238"
         id="path26817" />
      <path
         d="M 138.7095,111.0496 V 110.383"
         id="path26819" />
      <path
         d="m 138.7095,110.4782 0.0476,-0.0476"
         id="path26821" />
      <path
         d="m 138.7571,110.4306 0.0953,-0.0476"
         id="path26823" />
      <path
         d="m 138.8524,110.383 h 0.1428"
         id="path26825" />
      <path
         d="m 138.9952,110.383 0.0953,0.0476"
         id="path26827" />
      <path
         d="m 139.0905,110.4306 0.0476,0.0952"
         id="path26829" />
      <path
         d="m 139.1381,110.5258 v 0.5238"
         id="path26831" />
      <path
         d="m 139.1381,110.5258 0.0476,-0.0952"
         id="path26833" />
      <path
         d="m 139.1857,110.4306 0.0953,-0.0476"
         id="path26835" />
      <path
         d="m 139.281,110.383 h 0.1428"
         id="path26837" />
      <path
         d="m 139.4238,110.383 0.0952,0.0476"
         id="path26839" />
      <path
         d="m 139.519,110.4306 0.0477,0.0952"
         id="path26841" />
      <path
         d="m 139.5667,110.5258 v 0.5238"
         id="path26843" />
    </g>
  </g>
  <g
     style="fill:#c2c2c2;fill-opacity:0;stroke:#c2c2c2;stroke-width:0.1;stroke-linecap:round;stroke-linejoin:round;stroke-opacity:1"
     id="g26865"
     transform="translate(-130.677,-79.877)">
    <path
       d="m 135.3,116.6 v -4.5864"
       id="path26849" />
    <path
       d="M 138.5,112.0136 V 116.6"
       id="path26851" />
    <path
       d="m 135.3,112.6 h 3.2"
       id="path26853" />
    <path
       d="m 135.3,112.6 h 3.2"
       id="path26855" />
    <path
       d="m 135.3,112.6 1.1265,-0.5864"
       id="path26857" />
    <path
       d="m 135.3,112.6 1.1265,0.5864"
       id="path26859" />
    <path
       d="m 138.5,112.6 -1.1265,0.5864"
       id="path26861" />
    <path
       d="m 138.5,112.6 -1.1265,-0.5864"
       id="path26863" />
  </g>
  <g
     style="fill:#c2c2c2;fill-opacity:0;stroke:#c2c2c2;stroke-width:0.25;stroke-linecap:round;stroke-linejoin:round;stroke-opacity:1"
     id="g26971"
     transform="translate(-130.677,-79.877)">
    <text
       x="152.39999"
       y="81.099998"
       textLength="5.8832998"
       font-size="1.3333px"
       lengthAdjust="spacingAndGlyphs"
       text-anchor="middle"
       opacity="0"
       id="text26867">40 mm</text>
    <g
       class="stroked-text"
       id="g26969">
      <desc
         id="desc26869">40 mm</desc>
      <path
         d="m 150.4,80.383 v 0.6666"
         id="path26871" />
      <path
         d="m 150.1619,80.002 -0.2381,0.7143"
         id="path26873" />
      <path
         d="m 149.9238,80.7163 h 0.6191"
         id="path26875" />
      <path
         d="m 151.1143,80.0496 h 0.0952"
         id="path26877" />
      <path
         d="m 151.2095,80.0496 0.0953,0.0476"
         id="path26879" />
      <path
         d="m 151.3048,80.0972 0.0476,0.0477"
         id="path26881" />
      <path
         d="M 151.3524,80.1449 151.4,80.2401"
         id="path26883" />
      <path
         d="m 151.4,80.2401 0.0476,0.1905"
         id="path26885" />
      <path
         d="m 151.4476,80.4306 v 0.2381"
         id="path26887" />
      <path
         d="M 151.4476,80.6687 151.4,80.8591"
         id="path26889" />
      <path
         d="m 151.4,80.8591 -0.0476,0.0953"
         id="path26891" />
      <path
         d="m 151.3524,80.9544 -0.0476,0.0476"
         id="path26893" />
      <path
         d="m 151.3048,81.002 -0.0953,0.0476"
         id="path26895" />
      <path
         d="m 151.2095,81.0496 h -0.0952"
         id="path26897" />
      <path
         d="M 151.1143,81.0496 151.019,81.002"
         id="path26899" />
      <path
         d="m 151.019,81.002 -0.0476,-0.0476"
         id="path26901" />
      <path
         d="m 150.9714,80.9544 -0.0476,-0.0953"
         id="path26903" />
      <path
         d="m 150.9238,80.8591 -0.0476,-0.1904"
         id="path26905" />
      <path
         d="M 150.8762,80.6687 V 80.4306"
         id="path26907" />
      <path
         d="m 150.8762,80.4306 0.0476,-0.1905"
         id="path26909" />
      <path
         d="m 150.9238,80.2401 0.0476,-0.0952"
         id="path26911" />
      <path
         d="m 150.9714,80.1449 0.0476,-0.0477"
         id="path26913" />
      <path
         d="m 151.019,80.0972 0.0953,-0.0476"
         id="path26915" />
      <path
         d="M 152.6381,81.0496 V 80.383"
         id="path26917" />
      <path
         d="m 152.6381,80.4782 0.0476,-0.0476"
         id="path26919" />
      <path
         d="M 152.6857,80.4306 152.781,80.383"
         id="path26921" />
      <path
         d="m 152.781,80.383 h 0.1428"
         id="path26923" />
      <path
         d="m 152.9238,80.383 0.0952,0.0476"
         id="path26925" />
      <path
         d="m 153.019,80.4306 0.0477,0.0952"
         id="path26927" />
      <path
         d="m 153.0667,80.5258 v 0.5238"
         id="path26929" />
      <path
         d="m 153.0667,80.5258 0.0476,-0.0952"
         id="path26931" />
      <path
         d="m 153.1143,80.4306 0.0952,-0.0476"
         id="path26933" />
      <path
         d="m 153.2095,80.383 h 0.1429"
         id="path26935" />
      <path
         d="m 153.3524,80.383 0.0952,0.0476"
         id="path26937" />
      <path
         d="m 153.4476,80.4306 0.0476,0.0952"
         id="path26939" />
      <path
         d="m 153.4952,80.5258 v 0.5238"
         id="path26941" />
      <path
         d="M 153.9714,81.0496 V 80.383"
         id="path26943" />
      <path
         d="m 153.9714,80.4782 0.0476,-0.0476"
         id="path26945" />
      <path
         d="m 154.019,80.4306 0.0953,-0.0476"
         id="path26947" />
      <path
         d="m 154.1143,80.383 h 0.1428"
         id="path26949" />
      <path
         d="m 154.2571,80.383 0.0953,0.0476"
         id="path26951" />
      <path
         d="M 154.3524,80.4306 154.4,80.5258"
         id="path26953" />
      <path
         d="m 154.4,80.5258 v 0.5238"
         id="path26955" />
      <path
         d="m 154.4,80.5258 0.0476,-0.0952"
         id="path26957" />
      <path
         d="m 154.4476,80.4306 0.0953,-0.0476"
         id="path26959" />
      <path
         d="m 154.5429,80.383 h 0.1428"
         id="path26961" />
      <path
         d="m 154.6857,80.383 0.0953,0.0476"
         id="path26963" />
      <path
         d="m 154.781,80.4306 0.0476,0.0952"
         id="path26965" />
      <path
         d="m 154.8286,80.5258 v 0.5238"
         id="path26967" />
    </g>
  </g>
  <g
     style="fill:#c2c2c2;fill-opacity:0;stroke:#c2c2c2;stroke-width:0.1;stroke-linecap:round;stroke-linejoin:round;stroke-opacity:1"
     id="g26989"
     transform="translate(-130.677,-79.877)">
    <path
       d="M 132.4,98.1 V 80.0136"
       id="path26973" />
    <path
       d="M 172.4,80.0136 V 98.1"
       id="path26975" />
    <path
       d="m 132.4,80.6 h 16.5583"
       id="path26977" />
    <path
       d="M 155.8417,80.6 H 172.4"
       id="path26979" />
    <path
       d="m 132.4,80.6 1.1265,-0.5864"
       id="path26981" />
    <path
       d="m 132.4,80.6 1.1265,0.5864"
       id="path26983" />
    <path
       d="m 172.4,80.6 -1.1265,0.5864"
       id="path26985" />
    <path
       d="m 172.4,80.6 -1.1265,-0.5864"
       id="path26987" />
  </g>
  <g
     style="fill:#c2c2c2;fill-opacity:0;stroke:#c2c2c2;stroke-width:0.4;stroke-linecap:round;stroke-linejoin:round;stroke-opacity:1"
     id="g27097"
     transform="translate(-130.677,-79.877)">
    <circle
       cx="167.89999"
       cy="117.1"
       r="1.6"
       id="circle26991" />
    <circle
       cx="136.89999"
       cy="86.099998"
       r="1.6"
       id="circle26993" />
    <circle
       cx="167.89999"
       cy="86.099998"
       r="1.6"
       id="circle26995" />
    <circle
       cx="136.89999"
       cy="117.1"
       r="1.6"
       id="circle26997" />
    <g
       id="g26999" />
    <g
       id="g27001" />
    <g
       id="g27003" />
    <g
       id="g27005" />
    <g
       id="g27007" />
    <g
       id="g27009" />
    <g
       id="g27011" />
    <g
       id="g27013" />
    <g
       id="g27015" />
    <g
       id="g27017" />
    <g
       id="g27019" />
    <g
       id="g27021" />
    <g
       id="g27023" />
    <g
       id="g27025" />
    <g
       id="g27027" />
    <g
       id="g27029" />
    <g
       id="g27031" />
    <g
       id="g27033" />
    <g
       id="g27035" />
    <g
       id="g27037" />
    <g
       id="g27039" />
    <g
       id="g27041" />
    <g
       id="g27043" />
    <g
       id="g27045" />
    <g
       id="g27047" />
    <g
       id="g27049" />
    <g
       id="g27051" />
    <g
       id="g27053" />
    <g
       id="g27055" />
    <g
       id="g27057" />
    <g
       id="g27059" />
    <g
       id="g27061" />
    <g
       id="g27063" />
    <g
       id="g27065" />
    <g
       id="g27067" />
    <g
       id="g27069" />
    <g
       id="g27071" />
    <g
       id="g27073" />
    <g
       id="g27075" />
    <g
       id="g27077" />
    <g
       id="g27079" />
    <g
       id="g27081" />
    <g
       id="g27083" />
    <g
       id="g27085" />
    <g
       id="g27087" />
    <g
       id="g27089" />
    <g
       id="g27091" />
    <g
       id="g27093" />
    <g
       id="g27095" />
  </g>
  <g
     style="fill:#000000;fill-opacity:0;stroke:#000000;stroke-width:0.4;stroke-linecap:round;stroke-linejoin:round;stroke-opacity:1"
     id="g27099"
     transform="translate(-130.677,-79.877)" />
  <g
     style="fill:#d0d2cd;fill-opacity:0;stroke:#d0d2cd;stroke-width:0.4;stroke-linecap:round;stroke-linejoin:round;stroke-opacity:1"
     id="g27101"
     transform="translate(-130.677,-79.877)" />
  <g
     style="fill:#d0d2cd;fill-opacity:0;stroke:#d0d2cd;stroke-width:0.1;stroke-linecap:round;stroke-linejoin:round;stroke-opacity:1"
     id="g27217"
     transform="translate(-130.677,-79.877)">
    <path
       d="m 132.4,117.1 v -31"
       id="path27103" />
    <path
       d="m 172.4,86.1 v 31"
       id="path27105" />
    <path
       d="m 167.9,121.6 a 4.5,4.5 0 0 0 4.5,-4.5"
       id="path27107" />
    <path
       d="m 172.4,86.1 a 4.5,4.5 0 0 0 -4.5,-4.5"
       id="path27109" />
    <path
       d="m 132.4,117.1 a 4.5,4.5 0 0 0 4.5,4.5"
       id="path27111" />
    <path
       d="m 167.9,121.6 h -31"
       id="path27113" />
    <path
       d="m 136.9,81.6 a 4.5,4.5 0 0 0 -4.5,4.5"
       id="path27115" />
    <path
       d="m 136.9,81.6 h 31"
       id="path27117" />
    <g
       id="g27119" />
    <g
       id="g27121" />
    <g
       id="g27123" />
    <g
       id="g27125" />
    <g
       id="g27127" />
    <g
       id="g27129" />
    <g
       id="g27131" />
    <g
       id="g27133" />
    <g
       id="g27135" />
    <g
       id="g27137" />
    <g
       id="g27139" />
    <g
       id="g27141" />
    <g
       id="g27143" />
    <g
       id="g27145" />
    <g
       id="g27147" />
    <g
       id="g27149" />
    <g
       id="g27151" />
    <g
       id="g27153" />
    <g
       id="g27155" />
    <g
       id="g27157" />
    <g
       id="g27159" />
    <g
       id="g27161" />
    <g
       id="g27163" />
    <g
       id="g27165" />
    <g
       id="g27167" />
    <g
       id="g27169" />
    <g
       id="g27171" />
    <g
       id="g27173" />
    <g
       id="g27175" />
    <g
       id="g27177" />
    <g
       id="g27179" />
    <g
       id="g27181" />
    <g
       id="g27183" />
    <g
       id="g27185" />
    <g
       id="g27187" />
    <g
       id="g27189" />
    <g
       id="g27191" />
    <g
       id="g27193" />
    <g
       id="g27195" />
    <g
       id="g27197" />
    <g
       id="g27199" />
    <g
       id="g27201" />
    <g
       id="g27203" />
    <g
       id="g27205" />
    <g
       id="g27207" />
    <g
       id="g27209" />
    <g
       id="g27211" />
    <g
       id="g27213" />
    <g
       id="g27215" />
  </g>
</svg>
