<?xml version="1.0" encoding="UTF-8" standalone="no"?>
<svg
   version="1.1"
   width="40.099998mm"
   height="40.099998mm"
   viewBox="0 0 40.099999 40.099998"
   id="svg622"
   xmlns="http://www.w3.org/2000/svg"
   xmlns:svg="http://www.w3.org/2000/svg">
  <defs
     id="defs626" />
  <title
     id="title278">SVG Image created as prism-pcb-B_Silkscreen.svg date 2024/07/15 16:27:07 </title>
  <desc
     id="desc280">Image generated by PCBNEW </desc>
  <g
     style="fill:#000000;fill-opacity:1;stroke:#000000;stroke-linecap:round;stroke-linejoin:round;stroke-opacity:1"
     id="g282"
     transform="translate(-132.35,-81.55)" />
  <g
     style="fill:#000000;fill-opacity:0;stroke:#000000;stroke-width:0;stroke-linecap:round;stroke-linejoin:round;stroke-opacity:1"
     id="g284"
     transform="translate(-132.35,-81.55)" />
  <g
     style="fill:#e8b2a7;fill-opacity:0;stroke:#e8b2a7;stroke-width:0;stroke-linecap:round;stroke-linejoin:round;stroke-opacity:1"
     id="g286"
     transform="translate(-132.35,-81.55)" />
  <g
     style="fill:#e8b2a7;fill-opacity:0;stroke:#e8b2a7;stroke-width:0.25;stroke-linecap:round;stroke-linejoin:round;stroke-opacity:1"
     id="g440"
     transform="translate(-132.35,-81.55)">
    <g
       transform="rotate(90,141.13,88.6)"
       id="g290">
      <text
         x="141.13"
         y="89.099998"
         transform="matrix(-1,0,0,1,282.26,0)"
         textLength="3.4547999"
         font-size="1.3333px"
         lengthAdjust="spacingAndGlyphs"
         text-anchor="middle"
         opacity="0"
         id="text288">RED</text>
    </g>
    <g
       class="stroked-text"
       id="g348">
      <desc
         id="desc292">RED</desc>
      <path
         d="m 140.6804,89.2429 0.4762,0.3333"
         id="path294" />
      <path
         d="m 140.6804,89.8143 h 1"
         id="path296" />
      <path
         d="m 141.6804,89.8143 v -0.381"
         id="path298" />
      <path
         d="m 141.6804,89.4333 -0.0476,-0.0952"
         id="path300" />
      <path
         d="m 141.6328,89.3381 -0.0477,-0.0476"
         id="path302" />
      <path
         d="m 141.5851,89.2905 -0.0952,-0.0476"
         id="path304" />
      <path
         d="M 141.4899,89.2429 H 141.347"
         id="path306" />
      <path
         d="m 141.347,89.2429 -0.0952,0.0476"
         id="path308" />
      <path
         d="m 141.2518,89.2905 -0.0476,0.0476"
         id="path310" />
      <path
         d="m 141.2042,89.3381 -0.0476,0.0952"
         id="path312" />
      <path
         d="m 141.1566,89.4333 v 0.381"
         id="path314" />
      <path
         d="M 141.2042,88.8143 V 88.481"
         id="path316" />
      <path
         d="m 140.6804,88.3381 v 0.4762"
         id="path318" />
      <path
         d="m 140.6804,88.8143 h 1"
         id="path320" />
      <path
         d="M 141.6804,88.8143 V 88.3381"
         id="path322" />
      <path
         d="m 140.6804,87.9095 h 1"
         id="path324" />
      <path
         d="M 141.6804,87.9095 V 87.6714"
         id="path326" />
      <path
         d="m 141.6804,87.6714 -0.0476,-0.1428"
         id="path328" />
      <path
         d="m 141.6328,87.5286 -0.0953,-0.0953"
         id="path330" />
      <path
         d="m 141.5375,87.4333 -0.0952,-0.0476"
         id="path332" />
      <path
         d="m 141.4423,87.3857 -0.1905,-0.0476"
         id="path334" />
      <path
         d="M 141.2518,87.3381 H 141.109"
         id="path336" />
      <path
         d="m 141.109,87.3381 -0.1905,0.0476"
         id="path338" />
      <path
         d="m 140.9185,87.3857 -0.0953,0.0476"
         id="path340" />
      <path
         d="m 140.8232,87.4333 -0.0952,0.0953"
         id="path342" />
      <path
         d="m 140.728,87.5286 -0.0476,0.1428"
         id="path344" />
      <path
         d="m 140.6804,87.6714 v 0.2381"
         id="path346" />
    </g>
    <text
       x="142.39999"
       y="94.099998"
       transform="matrix(-1,0,0,1,284.8,0)"
       textLength="3.3118999"
       font-size="1.3333px"
       lengthAdjust="spacingAndGlyphs"
       text-anchor="middle"
       opacity="0"
       id="text350">FAN</text>
    <g
       class="stroked-text"
       id="g372">
      <desc
         id="desc352">FAN</desc>
      <path
         d="m 143.2095,93.5258 h 0.3334"
         id="path354" />
      <path
         d="m 143.5429,94.0496 v -1"
         id="path356" />
      <path
         d="m 143.5429,93.0496 h -0.4762"
         id="path358" />
      <path
         d="m 142.7333,93.7639 h -0.4762"
         id="path360" />
      <path
         d="m 142.8286,94.0496 -0.3334,-1"
         id="path362" />
      <path
         d="m 142.4952,93.0496 -0.3333,1"
         id="path364" />
      <path
         d="m 141.8286,94.0496 v -1"
         id="path366" />
      <path
         d="m 141.8286,93.0496 -0.5715,1"
         id="path368" />
      <path
         d="m 141.2571,94.0496 v -1"
         id="path370" />
    </g>
    <g
       transform="rotate(90,143.67,88.6)"
       id="g376">
      <text
         x="143.67"
         y="89.099998"
         transform="matrix(-1,0,0,1,287.34,0)"
         textLength="3.4071"
         font-size="1.3333px"
         lengthAdjust="spacingAndGlyphs"
         text-anchor="middle"
         opacity="0"
         id="text374">BLU</text>
    </g>
    <g
       class="stroked-text"
       id="g438">
      <desc
         id="desc378">BLU</desc>
      <path
         d="m 143.7442,89.4571 -0.0476,-0.1428"
         id="path380" />
      <path
         d="M 143.6966,89.3143 143.649,89.2667"
         id="path382" />
      <path
         d="M 143.649,89.2667 143.5537,89.219"
         id="path384" />
      <path
         d="m 143.5537,89.219 h -0.1428"
         id="path386" />
      <path
         d="m 143.4109,89.219 -0.0953,0.0477"
         id="path388" />
      <path
         d="m 143.3156,89.2667 -0.0476,0.0476"
         id="path390" />
      <path
         d="m 143.268,89.3143 -0.0476,0.0952"
         id="path392" />
      <path
         d="m 143.2204,89.4095 v 0.381"
         id="path394" />
      <path
         d="m 143.2204,89.7905 h 1"
         id="path396" />
      <path
         d="M 144.2204,89.7905 V 89.4571"
         id="path398" />
      <path
         d="m 144.2204,89.4571 -0.0476,-0.0952"
         id="path400" />
      <path
         d="m 144.1728,89.3619 -0.0477,-0.0476"
         id="path402" />
      <path
         d="m 144.1251,89.3143 -0.0952,-0.0476"
         id="path404" />
      <path
         d="m 144.0299,89.2667 h -0.0952"
         id="path406" />
      <path
         d="m 143.9347,89.2667 -0.0953,0.0476"
         id="path408" />
      <path
         d="m 143.8394,89.3143 -0.0476,0.0476"
         id="path410" />
      <path
         d="m 143.7918,89.3619 -0.0476,0.0952"
         id="path412" />
      <path
         d="m 143.7442,89.4571 v 0.3334"
         id="path414" />
      <path
         d="m 143.2204,88.3143 v 0.4762"
         id="path416" />
      <path
         d="m 143.2204,88.7905 h 1"
         id="path418" />
      <path
         d="m 144.2204,87.981 h -0.8095"
         id="path420" />
      <path
         d="m 143.4109,87.981 -0.0953,-0.0477"
         id="path422" />
      <path
         d="M 143.3156,87.9333 143.268,87.8857"
         id="path424" />
      <path
         d="m 143.268,87.8857 -0.0476,-0.0952"
         id="path426" />
      <path
         d="M 143.2204,87.7905 V 87.6"
         id="path428" />
      <path
         d="m 143.2204,87.6 0.0476,-0.0952"
         id="path430" />
      <path
         d="m 143.268,87.5048 0.0476,-0.0477"
         id="path432" />
      <path
         d="m 143.3156,87.4571 0.0953,-0.0476"
         id="path434" />
      <path
         d="m 143.4109,87.4095 h 0.8095"
         id="path436" />
    </g>
  </g>
  <g
     style="fill:#e8b2a7;fill-opacity:0;stroke:#e8b2a7;stroke-width:0.2;stroke-linecap:round;stroke-linejoin:round;stroke-opacity:1"
     id="g524"
     transform="translate(-132.35,-81.55)">
    <path
       d="m 140.15,90.6 h 4.5"
       id="path442" />
    <path
       d="m 144.65,90.6 v 2"
       id="path444" />
    <path
       d="m 144.65,92.6 h -4.5"
       id="path446" />
    <path
       d="m 140.15,92.6 v -2"
       id="path448" />
    <g
       id="g450" />
    <g
       id="g452" />
    <g
       id="g454" />
    <g
       id="g456" />
    <g
       id="g458" />
    <g
       id="g460" />
    <g
       id="g462" />
    <g
       id="g464" />
    <g
       id="g466" />
    <g
       id="g468" />
    <g
       id="g470" />
    <g
       id="g472" />
    <g
       id="g474" />
    <g
       id="g476" />
    <g
       id="g478" />
    <g
       id="g480" />
    <g
       id="g482" />
    <g
       id="g484" />
    <g
       id="g486" />
    <g
       id="g488" />
    <g
       id="g490" />
    <g
       id="g492" />
    <g
       id="g494" />
    <g
       id="g496" />
    <g
       id="g498" />
    <g
       id="g500" />
    <g
       id="g502" />
    <g
       id="g504" />
    <g
       id="g506" />
    <g
       id="g508" />
    <g
       id="g510" />
    <g
       id="g512" />
    <g
       id="g514" />
    <g
       id="g516" />
    <g
       id="g518" />
    <g
       id="g520" />
    <g
       id="g522" />
  </g>
  <g
     style="fill:#000000;fill-opacity:0;stroke:#000000;stroke-width:0.2;stroke-linecap:round;stroke-linejoin:round;stroke-opacity:1"
     id="g526"
     transform="translate(-132.35,-81.55)" />
  <g
     style="fill:#d0d2cd;fill-opacity:0;stroke:#d0d2cd;stroke-width:0.2;stroke-linecap:round;stroke-linejoin:round;stroke-opacity:1"
     id="g528"
     transform="translate(-132.35,-81.55)" />
  <g
     style="fill:#d0d2cd;fill-opacity:0;stroke:#d0d2cd;stroke-width:0.1;stroke-linecap:round;stroke-linejoin:round;stroke-opacity:1"
     id="g620"
     transform="translate(-132.35,-81.55)">
    <path
       d="m 132.4,117.1 v -31"
       id="path530" />
    <path
       d="m 172.4,86.1 v 31"
       id="path532" />
    <path
       d="m 167.9,121.6 a 4.5,4.5 0 0 0 4.5,-4.5"
       id="path534" />
    <path
       d="m 172.4,86.1 a 4.5,4.5 0 0 0 -4.5,-4.5"
       id="path536" />
    <path
       d="m 132.4,117.1 a 4.5,4.5 0 0 0 4.5,4.5"
       id="path538" />
    <path
       d="m 167.9,121.6 h -31"
       id="path540" />
    <path
       d="m 136.9,81.6 a 4.5,4.5 0 0 0 -4.5,4.5"
       id="path542" />
    <path
       d="m 136.9,81.6 h 31"
       id="path544" />
    <g
       id="g546" />
    <g
       id="g548" />
    <g
       id="g550" />
    <g
       id="g552" />
    <g
       id="g554" />
    <g
       id="g556" />
    <g
       id="g558" />
    <g
       id="g560" />
    <g
       id="g562" />
    <g
       id="g564" />
    <g
       id="g566" />
    <g
       id="g568" />
    <g
       id="g570" />
    <g
       id="g572" />
    <g
       id="g574" />
    <g
       id="g576" />
    <g
       id="g578" />
    <g
       id="g580" />
    <g
       id="g582" />
    <g
       id="g584" />
    <g
       id="g586" />
    <g
       id="g588" />
    <g
       id="g590" />
    <g
       id="g592" />
    <g
       id="g594" />
    <g
       id="g596" />
    <g
       id="g598" />
    <g
       id="g600" />
    <g
       id="g602" />
    <g
       id="g604" />
    <g
       id="g606" />
    <g
       id="g608" />
    <g
       id="g610" />
    <g
       id="g612" />
    <g
       id="g614" />
    <g
       id="g616" />
    <g
       id="g618" />
  </g>
</svg>
