<?xml version="1.0" encoding="UTF-8" standalone="no"?>
<svg
   version="1.1"
   width="40.099998mm"
   height="40.099998mm"
   viewBox="0 0 40.099999 40.099998"
   id="svg941"
   xmlns="http://www.w3.org/2000/svg"
   xmlns:svg="http://www.w3.org/2000/svg">
  <defs
     id="defs945" />
  <title
     id="title347">SVG Image created as prism-pcb-B_Silkscreen.svg date 2024/09/10 11:01:54 </title>
  <desc
     id="desc349">Image generated by PCBNEW </desc>
  <g
     style="fill:#000000;fill-opacity:1;stroke:#000000;stroke-linecap:round;stroke-linejoin:round;stroke-opacity:1"
     id="g351"
     transform="translate(-132.35,-81.55)" />
  <g
     style="fill:#000000;fill-opacity:0;stroke:#000000;stroke-width:0;stroke-linecap:round;stroke-linejoin:round;stroke-opacity:1"
     id="g353"
     transform="translate(-132.35,-81.55)" />
  <g
     style="fill:#e8b2a7;fill-opacity:0;stroke:#e8b2a7;stroke-width:0;stroke-linecap:round;stroke-linejoin:round;stroke-opacity:1"
     id="g355"
     transform="translate(-132.35,-81.55)" />
  <g
     style="fill:#e8b2a7;fill-opacity:0;stroke:#e8b2a7;stroke-width:0.125;stroke-linecap:round;stroke-linejoin:round;stroke-opacity:1"
     id="g585"
     transform="translate(-132.35,-81.55)">
    <g
       transform="rotate(90,137.4,103.35)"
       id="g359">
      <text
         x="137.39999"
         y="103.6"
         transform="matrix(-1,0,0,1,274.8,0)"
         textLength="1.7988"
         font-size="0.6667px"
         lengthAdjust="spacingAndGlyphs"
         text-anchor="middle"
         opacity="0"
         id="text357">GND</text>
    </g>
    <g
       class="stroked-text"
       id="g425">
      <desc
         id="desc361">GND</desc>
      <path
         d="m 137.6514,103.731 0.0238,0.0476"
         id="path363" />
      <path
         d="M 137.6752,103.7786 V 103.85"
         id="path365" />
      <path
         d="m 137.6752,103.85 -0.0238,0.0714"
         id="path367" />
      <path
         d="m 137.6514,103.9214 -0.0476,0.0476"
         id="path369" />
      <path
         d="m 137.6038,103.969 -0.0477,0.0239"
         id="path371" />
      <path
         d="m 137.5561,103.9929 -0.0952,0.0238"
         id="path373" />
      <path
         d="m 137.4609,104.0167 h -0.0714"
         id="path375" />
      <path
         d="m 137.3895,104.0167 -0.0953,-0.0238"
         id="path377" />
      <path
         d="m 137.2942,103.9929 -0.0476,-0.0239"
         id="path379" />
      <path
         d="m 137.2466,103.969 -0.0476,-0.0476"
         id="path381" />
      <path
         d="M 137.199,103.9214 137.1752,103.85"
         id="path383" />
      <path
         d="m 137.1752,103.85 v -0.0476"
         id="path385" />
      <path
         d="m 137.1752,103.8024 0.0238,-0.0714"
         id="path387" />
      <path
         d="m 137.199,103.731 0.0238,-0.0239"
         id="path389" />
      <path
         d="m 137.2228,103.7071 h 0.1667"
         id="path391" />
      <path
         d="m 137.3895,103.7071 v 0.0953"
         id="path393" />
      <path
         d="m 137.1752,103.4929 h 0.5"
         id="path395" />
      <path
         d="m 137.6752,103.4929 -0.5,-0.2858"
         id="path397" />
      <path
         d="m 137.1752,103.2071 h 0.5"
         id="path399" />
      <path
         d="m 137.1752,102.969 h 0.5"
         id="path401" />
      <path
         d="M 137.6752,102.969 V 102.85"
         id="path403" />
      <path
         d="m 137.6752,102.85 -0.0238,-0.0714"
         id="path405" />
      <path
         d="m 137.6514,102.7786 -0.0476,-0.0476"
         id="path407" />
      <path
         d="m 137.6038,102.731 -0.0477,-0.0239"
         id="path409" />
      <path
         d="m 137.5561,102.7071 -0.0952,-0.0238"
         id="path411" />
      <path
         d="m 137.4609,102.6833 h -0.0714"
         id="path413" />
      <path
         d="m 137.3895,102.6833 -0.0953,0.0238"
         id="path415" />
      <path
         d="m 137.2942,102.7071 -0.0476,0.0239"
         id="path417" />
      <path
         d="m 137.2466,102.731 -0.0476,0.0476"
         id="path419" />
      <path
         d="m 137.199,102.7786 -0.0238,0.0714"
         id="path421" />
      <path
         d="m 137.1752,102.85 v 0.119"
         id="path423" />
    </g>
    <g
       transform="rotate(90,137.4,106.85)"
       id="g429">
      <text
         x="137.39999"
         y="107.1"
         transform="matrix(-1,0,0,1,274.8,0)"
         textLength="1.5607001"
         font-size="0.6667px"
         lengthAdjust="spacingAndGlyphs"
         text-anchor="middle"
         opacity="0"
         id="text427">VAA</text>
    </g>
    <g
       class="stroked-text"
       id="g449">
      <desc
         id="desc431">VAA</desc>
      <path
         d="m 137.6752,107.4452 -0.5,-0.1666"
         id="path433" />
      <path
         d="m 137.1752,107.2786 0.5,-0.1667"
         id="path435" />
      <path
         d="m 137.318,106.969 v -0.238"
         id="path437" />
      <path
         d="m 137.1752,107.0167 0.5,-0.1667"
         id="path439" />
      <path
         d="m 137.6752,106.85 -0.5,-0.1667"
         id="path441" />
      <path
         d="m 137.318,106.5405 v -0.2381"
         id="path443" />
      <path
         d="m 137.1752,106.5881 0.5,-0.1667"
         id="path445" />
      <path
         d="m 137.6752,106.4214 -0.5,-0.1666"
         id="path447" />
    </g>
    <g
       transform="rotate(90,137.4,99.85)"
       id="g453">
      <text
         x="137.39999"
         y="100.1"
         transform="matrix(-1,0,0,1,274.8,0)"
         textLength="1.8226"
         font-size="0.6667px"
         lengthAdjust="spacingAndGlyphs"
         text-anchor="middle"
         opacity="0"
         id="text451">SWP</text>
    </g>
    <g
       class="stroked-text"
       id="g523">
      <desc
         id="desc455">SWP</desc>
      <path
         d="m 137.199,100.5286 -0.0238,-0.0715"
         id="path457" />
      <path
         d="m 137.1752,100.4571 v -0.119"
         id="path459" />
      <path
         d="m 137.1752,100.3381 0.0238,-0.0476"
         id="path461" />
      <path
         d="m 137.199,100.2905 0.0238,-0.0238"
         id="path463" />
      <path
         d="m 137.2228,100.2667 0.0476,-0.0238"
         id="path465" />
      <path
         d="m 137.2704,100.2429 h 0.0476"
         id="path467" />
      <path
         d="m 137.318,100.2429 0.0477,0.0238"
         id="path469" />
      <path
         d="m 137.3657,100.2667 0.0238,0.0238"
         id="path471" />
      <path
         d="m 137.3895,100.2905 0.0238,0.0476"
         id="path473" />
      <path
         d="m 137.4133,100.3381 0.0238,0.0952"
         id="path475" />
      <path
         d="m 137.4371,100.4333 0.0238,0.0477"
         id="path477" />
      <path
         d="m 137.4609,100.481 0.0238,0.0238"
         id="path479" />
      <path
         d="m 137.4847,100.5048 0.0476,0.0238"
         id="path481" />
      <path
         d="M 137.5323,100.5286 H 137.58"
         id="path483" />
      <path
         d="m 137.58,100.5286 0.0476,-0.0238"
         id="path485" />
      <path
         d="m 137.6276,100.5048 0.0238,-0.0238"
         id="path487" />
      <path
         d="m 137.6514,100.481 0.0238,-0.0477"
         id="path489" />
      <path
         d="m 137.6752,100.4333 v -0.119"
         id="path491" />
      <path
         d="m 137.6752,100.3143 -0.0238,-0.0714"
         id="path493" />
      <path
         d="m 137.6752,100.0762 -0.5,-0.1191"
         id="path495" />
      <path
         d="m 137.1752,99.9571 0.3571,-0.0952"
         id="path497" />
      <path
         d="m 137.5323,99.8619 -0.3571,-0.0952"
         id="path499" />
      <path
         d="m 137.1752,99.7667 0.5,-0.1191"
         id="path501" />
      <path
         d="m 137.1752,99.4571 h 0.5"
         id="path503" />
      <path
         d="M 137.6752,99.4571 V 99.2667"
         id="path505" />
      <path
         d="M 137.6752,99.2667 137.6514,99.219"
         id="path507" />
      <path
         d="m 137.6514,99.219 -0.0238,-0.0238"
         id="path509" />
      <path
         d="M 137.6276,99.1952 137.58,99.1714"
         id="path511" />
      <path
         d="m 137.58,99.1714 h -0.0715"
         id="path513" />
      <path
         d="m 137.5085,99.1714 -0.0476,0.0238"
         id="path515" />
      <path
         d="m 137.4609,99.1952 -0.0238,0.0238"
         id="path517" />
      <path
         d="m 137.4371,99.219 -0.0238,0.0477"
         id="path519" />
      <path
         d="m 137.4133,99.2667 v 0.1904"
         id="path521" />
    </g>
    <g
       transform="rotate(90,137.4,96.35)"
       id="g527">
      <text
         x="137.39999"
         y="96.599998"
         transform="matrix(-1,0,0,1,274.8,0)"
         textLength="1.8464"
         font-size="0.6667px"
         lengthAdjust="spacingAndGlyphs"
         text-anchor="middle"
         opacity="0"
         id="text525">SWN</text>
    </g>
    <g
       class="stroked-text"
       id="g583">
      <desc
         id="desc529">SWN</desc>
      <path
         d="M 137.199,97.0405 137.1752,96.969"
         id="path531" />
      <path
         d="M 137.1752,96.969 V 96.85"
         id="path533" />
      <path
         d="m 137.1752,96.85 0.0238,-0.0476"
         id="path535" />
      <path
         d="m 137.199,96.8024 0.0238,-0.0238"
         id="path537" />
      <path
         d="m 137.2228,96.7786 0.0476,-0.0238"
         id="path539" />
      <path
         d="m 137.2704,96.7548 h 0.0476"
         id="path541" />
      <path
         d="m 137.318,96.7548 0.0477,0.0238"
         id="path543" />
      <path
         d="m 137.3657,96.7786 0.0238,0.0238"
         id="path545" />
      <path
         d="m 137.3895,96.8024 0.0238,0.0476"
         id="path547" />
      <path
         d="m 137.4133,96.85 0.0238,0.0952"
         id="path549" />
      <path
         d="m 137.4371,96.9452 0.0238,0.0477"
         id="path551" />
      <path
         d="m 137.4609,96.9929 0.0238,0.0238"
         id="path553" />
      <path
         d="m 137.4847,97.0167 0.0476,0.0238"
         id="path555" />
      <path
         d="M 137.5323,97.0405 H 137.58"
         id="path557" />
      <path
         d="m 137.58,97.0405 0.0476,-0.0238"
         id="path559" />
      <path
         d="m 137.6276,97.0167 0.0238,-0.0238"
         id="path561" />
      <path
         d="m 137.6514,96.9929 0.0238,-0.0477"
         id="path563" />
      <path
         d="m 137.6752,96.9452 v -0.119"
         id="path565" />
      <path
         d="m 137.6752,96.8262 -0.0238,-0.0714"
         id="path567" />
      <path
         d="m 137.6752,96.5881 -0.5,-0.1191"
         id="path569" />
      <path
         d="m 137.1752,96.469 0.3571,-0.0952"
         id="path571" />
      <path
         d="m 137.5323,96.3738 -0.3571,-0.0952"
         id="path573" />
      <path
         d="m 137.1752,96.2786 0.5,-0.1191"
         id="path575" />
      <path
         d="m 137.1752,95.969 h 0.5"
         id="path577" />
      <path
         d="m 137.6752,95.969 -0.5,-0.2857"
         id="path579" />
      <path
         d="m 137.1752,95.6833 h 0.5"
         id="path581" />
    </g>
  </g>
  <g
     style="fill:#e8b2a7;fill-opacity:0;stroke:#e8b2a7;stroke-width:0.25;stroke-linecap:round;stroke-linejoin:round;stroke-opacity:1"
     id="g739"
     transform="translate(-132.35,-81.55)">
    <g
       transform="rotate(90,141.13,88.6)"
       id="g589">
      <text
         x="141.13"
         y="89.099998"
         transform="matrix(-1,0,0,1,282.26,0)"
         textLength="3.4547999"
         font-size="1.3333px"
         lengthAdjust="spacingAndGlyphs"
         text-anchor="middle"
         opacity="0"
         id="text587">RED</text>
    </g>
    <g
       class="stroked-text"
       id="g647">
      <desc
         id="desc591">RED</desc>
      <path
         d="m 140.6804,89.2429 0.4762,0.3333"
         id="path593" />
      <path
         d="m 140.6804,89.8143 h 1"
         id="path595" />
      <path
         d="m 141.6804,89.8143 v -0.381"
         id="path597" />
      <path
         d="m 141.6804,89.4333 -0.0476,-0.0952"
         id="path599" />
      <path
         d="m 141.6328,89.3381 -0.0477,-0.0476"
         id="path601" />
      <path
         d="m 141.5851,89.2905 -0.0952,-0.0476"
         id="path603" />
      <path
         d="M 141.4899,89.2429 H 141.347"
         id="path605" />
      <path
         d="m 141.347,89.2429 -0.0952,0.0476"
         id="path607" />
      <path
         d="m 141.2518,89.2905 -0.0476,0.0476"
         id="path609" />
      <path
         d="m 141.2042,89.3381 -0.0476,0.0952"
         id="path611" />
      <path
         d="m 141.1566,89.4333 v 0.381"
         id="path613" />
      <path
         d="M 141.2042,88.8143 V 88.481"
         id="path615" />
      <path
         d="m 140.6804,88.3381 v 0.4762"
         id="path617" />
      <path
         d="m 140.6804,88.8143 h 1"
         id="path619" />
      <path
         d="M 141.6804,88.8143 V 88.3381"
         id="path621" />
      <path
         d="m 140.6804,87.9095 h 1"
         id="path623" />
      <path
         d="M 141.6804,87.9095 V 87.6714"
         id="path625" />
      <path
         d="m 141.6804,87.6714 -0.0476,-0.1428"
         id="path627" />
      <path
         d="m 141.6328,87.5286 -0.0953,-0.0953"
         id="path629" />
      <path
         d="m 141.5375,87.4333 -0.0952,-0.0476"
         id="path631" />
      <path
         d="m 141.4423,87.3857 -0.1905,-0.0476"
         id="path633" />
      <path
         d="M 141.2518,87.3381 H 141.109"
         id="path635" />
      <path
         d="m 141.109,87.3381 -0.1905,0.0476"
         id="path637" />
      <path
         d="m 140.9185,87.3857 -0.0953,0.0476"
         id="path639" />
      <path
         d="m 140.8232,87.4333 -0.0952,0.0953"
         id="path641" />
      <path
         d="m 140.728,87.5286 -0.0476,0.1428"
         id="path643" />
      <path
         d="m 140.6804,87.6714 v 0.2381"
         id="path645" />
    </g>
    <g
       transform="rotate(90,143.67,88.6)"
       id="g651">
      <text
         x="143.67"
         y="89.099998"
         transform="matrix(-1,0,0,1,287.34,0)"
         textLength="3.4071"
         font-size="1.3333px"
         lengthAdjust="spacingAndGlyphs"
         text-anchor="middle"
         opacity="0"
         id="text649">BLU</text>
    </g>
    <g
       class="stroked-text"
       id="g713">
      <desc
         id="desc653">BLU</desc>
      <path
         d="m 143.7442,89.4571 -0.0476,-0.1428"
         id="path655" />
      <path
         d="M 143.6966,89.3143 143.649,89.2667"
         id="path657" />
      <path
         d="M 143.649,89.2667 143.5537,89.219"
         id="path659" />
      <path
         d="m 143.5537,89.219 h -0.1428"
         id="path661" />
      <path
         d="m 143.4109,89.219 -0.0953,0.0477"
         id="path663" />
      <path
         d="m 143.3156,89.2667 -0.0476,0.0476"
         id="path665" />
      <path
         d="m 143.268,89.3143 -0.0476,0.0952"
         id="path667" />
      <path
         d="m 143.2204,89.4095 v 0.381"
         id="path669" />
      <path
         d="m 143.2204,89.7905 h 1"
         id="path671" />
      <path
         d="M 144.2204,89.7905 V 89.4571"
         id="path673" />
      <path
         d="m 144.2204,89.4571 -0.0476,-0.0952"
         id="path675" />
      <path
         d="m 144.1728,89.3619 -0.0477,-0.0476"
         id="path677" />
      <path
         d="m 144.1251,89.3143 -0.0952,-0.0476"
         id="path679" />
      <path
         d="m 144.0299,89.2667 h -0.0952"
         id="path681" />
      <path
         d="m 143.9347,89.2667 -0.0953,0.0476"
         id="path683" />
      <path
         d="m 143.8394,89.3143 -0.0476,0.0476"
         id="path685" />
      <path
         d="m 143.7918,89.3619 -0.0476,0.0952"
         id="path687" />
      <path
         d="m 143.7442,89.4571 v 0.3334"
         id="path689" />
      <path
         d="m 143.2204,88.3143 v 0.4762"
         id="path691" />
      <path
         d="m 143.2204,88.7905 h 1"
         id="path693" />
      <path
         d="m 144.2204,87.981 h -0.8095"
         id="path695" />
      <path
         d="m 143.4109,87.981 -0.0953,-0.0477"
         id="path697" />
      <path
         d="M 143.3156,87.9333 143.268,87.8857"
         id="path699" />
      <path
         d="m 143.268,87.8857 -0.0476,-0.0952"
         id="path701" />
      <path
         d="M 143.2204,87.7905 V 87.6"
         id="path703" />
      <path
         d="m 143.2204,87.6 0.0476,-0.0952"
         id="path705" />
      <path
         d="m 143.268,87.5048 0.0476,-0.0477"
         id="path707" />
      <path
         d="m 143.3156,87.4571 0.0953,-0.0476"
         id="path709" />
      <path
         d="m 143.4109,87.4095 h 0.8095"
         id="path711" />
    </g>
    <text
       x="142.39999"
       y="94.099998"
       transform="matrix(-1,0,0,1,284.8,0)"
       textLength="3.3118999"
       font-size="1.3333px"
       lengthAdjust="spacingAndGlyphs"
       text-anchor="middle"
       opacity="0"
       id="text715">FAN</text>
    <g
       class="stroked-text"
       id="g737">
      <desc
         id="desc717">FAN</desc>
      <path
         d="m 143.2095,93.5258 h 0.3334"
         id="path719" />
      <path
         d="m 143.5429,94.0496 v -1"
         id="path721" />
      <path
         d="m 143.5429,93.0496 h -0.4762"
         id="path723" />
      <path
         d="m 142.7333,93.7639 h -0.4762"
         id="path725" />
      <path
         d="m 142.8286,94.0496 -0.3334,-1"
         id="path727" />
      <path
         d="m 142.4952,93.0496 -0.3333,1"
         id="path729" />
      <path
         d="m 141.8286,94.0496 v -1"
         id="path731" />
      <path
         d="m 141.8286,93.0496 -0.5715,1"
         id="path733" />
      <path
         d="m 141.2571,94.0496 v -1"
         id="path735" />
    </g>
  </g>
  <g
     style="fill:#e8b2a7;fill-opacity:0;stroke:#e8b2a7;stroke-width:0.2;stroke-linecap:round;stroke-linejoin:round;stroke-opacity:1"
     id="g833"
     transform="translate(-132.35,-81.55)">
    <path
       d="m 140.15,90.6 h 4.5"
       id="path741" />
    <path
       d="m 144.65,90.6 v 2"
       id="path743" />
    <path
       d="m 144.65,92.6 h -4.5"
       id="path745" />
    <path
       d="m 140.15,92.6 v -2"
       id="path747" />
    <g
       id="g749" />
    <g
       id="g751" />
    <g
       id="g753" />
    <g
       id="g755" />
    <g
       id="g757" />
    <g
       id="g759" />
    <g
       id="g761" />
    <g
       id="g763" />
    <g
       id="g765" />
    <g
       id="g767" />
    <g
       id="g769" />
    <g
       id="g771" />
    <g
       id="g773" />
    <g
       id="g775" />
    <g
       id="g777" />
    <g
       id="g779" />
    <g
       id="g781" />
    <g
       id="g783" />
    <g
       id="g785" />
    <g
       id="g787" />
    <g
       id="g789" />
    <g
       id="g791" />
    <g
       id="g793" />
    <g
       id="g795" />
    <g
       id="g797" />
    <g
       id="g799" />
    <g
       id="g801" />
    <g
       id="g803" />
    <g
       id="g805" />
    <g
       id="g807" />
    <g
       id="g809" />
    <g
       id="g811" />
    <g
       id="g813" />
    <g
       id="g815" />
    <g
       id="g817" />
    <g
       id="g819" />
    <g
       id="g821" />
    <g
       id="g823" />
    <g
       id="g825" />
    <g
       id="g827" />
    <g
       id="g829" />
    <g
       id="g831" />
  </g>
  <g
     style="fill:#000000;fill-opacity:0;stroke:#000000;stroke-width:0.2;stroke-linecap:round;stroke-linejoin:round;stroke-opacity:1"
     id="g835"
     transform="translate(-132.35,-81.55)" />
  <g
     style="fill:#d0d2cd;fill-opacity:0;stroke:#d0d2cd;stroke-width:0.2;stroke-linecap:round;stroke-linejoin:round;stroke-opacity:1"
     id="g837"
     transform="translate(-132.35,-81.55)" />
  <g
     style="fill:#d0d2cd;fill-opacity:0;stroke:#d0d2cd;stroke-width:0.1;stroke-linecap:round;stroke-linejoin:round;stroke-opacity:1"
     id="g939"
     transform="translate(-132.35,-81.55)">
    <path
       d="m 132.4,117.1 v -31"
       id="path839" />
    <path
       d="m 172.4,86.1 v 31"
       id="path841" />
    <path
       d="m 167.9,121.6 a 4.5,4.5 0 0 0 4.5,-4.5"
       id="path843" />
    <path
       d="m 172.4,86.1 a 4.5,4.5 0 0 0 -4.5,-4.5"
       id="path845" />
    <path
       d="m 132.4,117.1 a 4.5,4.5 0 0 0 4.5,4.5"
       id="path847" />
    <path
       d="m 167.9,121.6 h -31"
       id="path849" />
    <path
       d="m 136.9,81.6 a 4.5,4.5 0 0 0 -4.5,4.5"
       id="path851" />
    <path
       d="m 136.9,81.6 h 31"
       id="path853" />
    <g
       id="g855" />
    <g
       id="g857" />
    <g
       id="g859" />
    <g
       id="g861" />
    <g
       id="g863" />
    <g
       id="g865" />
    <g
       id="g867" />
    <g
       id="g869" />
    <g
       id="g871" />
    <g
       id="g873" />
    <g
       id="g875" />
    <g
       id="g877" />
    <g
       id="g879" />
    <g
       id="g881" />
    <g
       id="g883" />
    <g
       id="g885" />
    <g
       id="g887" />
    <g
       id="g889" />
    <g
       id="g891" />
    <g
       id="g893" />
    <g
       id="g895" />
    <g
       id="g897" />
    <g
       id="g899" />
    <g
       id="g901" />
    <g
       id="g903" />
    <g
       id="g905" />
    <g
       id="g907" />
    <g
       id="g909" />
    <g
       id="g911" />
    <g
       id="g913" />
    <g
       id="g915" />
    <g
       id="g917" />
    <g
       id="g919" />
    <g
       id="g921" />
    <g
       id="g923" />
    <g
       id="g925" />
    <g
       id="g927" />
    <g
       id="g929" />
    <g
       id="g931" />
    <g
       id="g933" />
    <g
       id="g935" />
    <g
       id="g937" />
  </g>
</svg>
