<?xml version="1.0" encoding="UTF-8" standalone="no"?>
<svg
   version="1.1"
   width="43.361332mm"
   height="43.361332mm"
   viewBox="0 0 43.361332 43.361331"
   id="svg21697"
   xmlns="http://www.w3.org/2000/svg"
   xmlns:svg="http://www.w3.org/2000/svg">
  <defs
     id="defs21701" />
  <title
     id="title20849">SVG Image created as prism-pcb-User_Drawings.svg date 2024/10/21 11:41:53 </title>
  <desc
     id="desc20851">Image generated by PCBNEW </desc>
  <g
     style="fill:#000000;fill-opacity:1;stroke:#000000;stroke-linecap:round;stroke-linejoin:round;stroke-opacity:1"
     id="g20853"
     transform="translate(-130.677,-79.877)" />
  <g
     style="fill:#000000;fill-opacity:0;stroke:#000000;stroke-width:0;stroke-linecap:round;stroke-linejoin:round;stroke-opacity:1"
     id="g20855"
     transform="translate(-130.677,-79.877)" />
  <g
     style="fill:#c2c2c2;fill-opacity:0;stroke:#c2c2c2;stroke-width:0;stroke-linecap:round;stroke-linejoin:round;stroke-opacity:1"
     id="g20857"
     transform="translate(-130.677,-79.877)" />
  <g
     style="fill:#c2c2c2;fill-opacity:0;stroke:#c2c2c2;stroke-width:0.1;stroke-linecap:round;stroke-linejoin:round;stroke-opacity:1"
     id="g20863"
     transform="translate(-130.677,-79.877)">
    <path
       d="m 136.9,81.6 a 4.5,4.5 0 0 0 -4.5,4.5"
       id="path20859" />
    <path
       d="m 136.9,81.6 h 31"
       id="path20861" />
  </g>
  <g
     style="fill:#c2c2c2;fill-opacity:0;stroke:#c2c2c2;stroke-width:0.2;stroke-linecap:round;stroke-linejoin:round;stroke-opacity:1"
     id="g20867"
     transform="translate(-130.677,-79.877)">
    <path
       d="m 152.4,91.6 v 20"
       id="path20865" />
  </g>
  <g
     style="fill:#c2c2c2;fill-opacity:0;stroke:#c2c2c2;stroke-width:0.1;stroke-linecap:round;stroke-linejoin:round;stroke-opacity:1"
     id="g20881"
     transform="translate(-130.677,-79.877)">
    <path
       d="m 167.9,121.6 h -31"
       id="path20869" />
    <path
       d="m 132.4,117.1 v -31"
       id="path20871" />
    <path
       d="m 167.9,121.6 a 4.5,4.5 0 0 0 4.5,-4.5"
       id="path20873" />
    <path
       d="m 172.4,86.1 v 31"
       id="path20875" />
    <path
       d="m 132.4,117.1 a 4.5,4.5 0 0 0 4.5,4.5"
       id="path20877" />
    <path
       d="m 172.4,86.1 a 4.5,4.5 0 0 0 -4.5,-4.5"
       id="path20879" />
  </g>
  <g
     style="fill:#c2c2c2;fill-opacity:0;stroke:#c2c2c2;stroke-width:0.2;stroke-linecap:round;stroke-linejoin:round;stroke-opacity:1"
     id="g20885"
     transform="translate(-130.677,-79.877)">
    <path
       d="m 142.4,101.6 h 20"
       id="path20883" />
  </g>
  <g
     style="fill:#c2c2c2;fill-opacity:0;stroke:#c2c2c2;stroke-width:0.25;stroke-linecap:round;stroke-linejoin:round;stroke-opacity:1"
     id="g20993"
     transform="translate(-130.677,-79.877)">
    <g
       transform="rotate(-90,131.4,101.6)"
       id="g20889">
      <text
         x="131.39999"
         y="102.1"
         textLength="5.8832998"
         font-size="1.3333px"
         lengthAdjust="spacingAndGlyphs"
         text-anchor="middle"
         opacity="0"
         id="text20887">40 mm</text>
    </g>
    <g
       class="stroked-text"
       id="g20991">
      <desc
         id="desc20891">40 mm</desc>
      <path
         d="m 131.183,103.6 h 0.6666"
         id="path20893" />
      <path
         d="m 130.802,103.8381 0.7143,0.2381"
         id="path20895" />
      <path
         d="m 131.5163,104.0762 v -0.6191"
         id="path20897" />
      <path
         d="m 130.8496,102.8857 v -0.0952"
         id="path20899" />
      <path
         d="m 130.8496,102.7905 0.0476,-0.0953"
         id="path20901" />
      <path
         d="m 130.8972,102.6952 0.0477,-0.0476"
         id="path20903" />
      <path
         d="M 130.9449,102.6476 131.0401,102.6"
         id="path20905" />
      <path
         d="m 131.0401,102.6 0.1905,-0.0476"
         id="path20907" />
      <path
         d="m 131.2306,102.5524 h 0.2381"
         id="path20909" />
      <path
         d="m 131.4687,102.5524 0.1904,0.0476"
         id="path20911" />
      <path
         d="m 131.6591,102.6 0.0953,0.0476"
         id="path20913" />
      <path
         d="m 131.7544,102.6476 0.0476,0.0476"
         id="path20915" />
      <path
         d="m 131.802,102.6952 0.0476,0.0953"
         id="path20917" />
      <path
         d="m 131.8496,102.7905 v 0.0952"
         id="path20919" />
      <path
         d="m 131.8496,102.8857 -0.0476,0.0953"
         id="path20921" />
      <path
         d="m 131.802,102.981 -0.0476,0.0476"
         id="path20923" />
      <path
         d="m 131.7544,103.0286 -0.0953,0.0476"
         id="path20925" />
      <path
         d="m 131.6591,103.0762 -0.1904,0.0476"
         id="path20927" />
      <path
         d="m 131.4687,103.1238 h -0.2381"
         id="path20929" />
      <path
         d="m 131.2306,103.1238 -0.1905,-0.0476"
         id="path20931" />
      <path
         d="m 131.0401,103.0762 -0.0952,-0.0476"
         id="path20933" />
      <path
         d="m 130.9449,103.0286 -0.0477,-0.0476"
         id="path20935" />
      <path
         d="m 130.8972,102.981 -0.0476,-0.0953"
         id="path20937" />
      <path
         d="M 131.8496,101.3619 H 131.183"
         id="path20939" />
      <path
         d="m 131.2782,101.3619 -0.0476,-0.0476"
         id="path20941" />
      <path
         d="M 131.2306,101.3143 131.183,101.219"
         id="path20943" />
      <path
         d="m 131.183,101.219 v -0.1428"
         id="path20945" />
      <path
         d="m 131.183,101.0762 0.0476,-0.0952"
         id="path20947" />
      <path
         d="m 131.2306,100.981 0.0952,-0.0477"
         id="path20949" />
      <path
         d="m 131.3258,100.9333 h 0.5238"
         id="path20951" />
      <path
         d="m 131.3258,100.9333 -0.0952,-0.0476"
         id="path20953" />
      <path
         d="m 131.2306,100.8857 -0.0476,-0.0952"
         id="path20955" />
      <path
         d="m 131.183,100.7905 v -0.1429"
         id="path20957" />
      <path
         d="m 131.183,100.6476 0.0476,-0.0952"
         id="path20959" />
      <path
         d="m 131.2306,100.5524 0.0952,-0.0476"
         id="path20961" />
      <path
         d="m 131.3258,100.5048 h 0.5238"
         id="path20963" />
      <path
         d="M 131.8496,100.0286 H 131.183"
         id="path20965" />
      <path
         d="M 131.2782,100.0286 131.2306,99.981"
         id="path20967" />
      <path
         d="M 131.2306,99.981 131.183,99.8857"
         id="path20969" />
      <path
         d="M 131.183,99.8857 V 99.7429"
         id="path20971" />
      <path
         d="m 131.183,99.7429 0.0476,-0.0953"
         id="path20973" />
      <path
         d="M 131.2306,99.6476 131.3258,99.6"
         id="path20975" />
      <path
         d="m 131.3258,99.6 h 0.5238"
         id="path20977" />
      <path
         d="m 131.3258,99.6 -0.0952,-0.0476"
         id="path20979" />
      <path
         d="M 131.2306,99.5524 131.183,99.4571"
         id="path20981" />
      <path
         d="M 131.183,99.4571 V 99.3143"
         id="path20983" />
      <path
         d="m 131.183,99.3143 0.0476,-0.0953"
         id="path20985" />
      <path
         d="m 131.2306,99.219 0.0952,-0.0476"
         id="path20987" />
      <path
         d="m 131.3258,99.1714 h 0.5238"
         id="path20989" />
    </g>
  </g>
  <g
     style="fill:#c2c2c2;fill-opacity:0;stroke:#c2c2c2;stroke-width:0.1;stroke-linecap:round;stroke-linejoin:round;stroke-opacity:1"
     id="g21011"
     transform="translate(-130.677,-79.877)">
    <path
       d="M 150.9,121.6 H 130.8136"
       id="path20995" />
    <path
       d="M 130.8136,81.6 H 156.9"
       id="path20997" />
    <path
       d="M 131.4,121.6 V 105.0417"
       id="path20999" />
    <path
       d="M 131.4,98.1583 V 81.6"
       id="path21001" />
    <path
       d="m 131.4,121.6 -0.5864,-1.1265"
       id="path21003" />
    <path
       d="m 131.4,121.6 0.5864,-1.1265"
       id="path21005" />
    <path
       d="m 131.4,81.6 0.5864,1.1265"
       id="path21007" />
    <path
       d="m 131.4,81.6 -0.5864,1.1265"
       id="path21009" />
  </g>
  <g
     style="fill:#c2c2c2;fill-opacity:0;stroke:#c2c2c2;stroke-width:0.25;stroke-linecap:round;stroke-linejoin:round;stroke-opacity:1"
     id="g21109"
     transform="translate(-130.677,-79.877)">
    <g
       transform="rotate(-90,173.4,101.6)"
       id="g21015">
      <text
         x="173.39999"
         y="102.1"
         textLength="5.8832998"
         font-size="1.3333px"
         lengthAdjust="spacingAndGlyphs"
         text-anchor="middle"
         opacity="0"
         id="text21013">31 mm</text>
    </g>
    <g
       class="stroked-text"
       id="g21107">
      <desc
         id="desc21017">31 mm</desc>
      <path
         d="m 172.8496,104.1238 v -0.619"
         id="path21019" />
      <path
         d="m 172.8496,103.5048 0.381,0.3333"
         id="path21021" />
      <path
         d="m 173.2306,103.8381 v -0.1429"
         id="path21023" />
      <path
         d="M 173.2306,103.6952 173.2782,103.6"
         id="path21025" />
      <path
         d="m 173.2782,103.6 0.0476,-0.0476"
         id="path21027" />
      <path
         d="m 173.3258,103.5524 0.0952,-0.0476"
         id="path21029" />
      <path
         d="m 173.421,103.5048 h 0.2381"
         id="path21031" />
      <path
         d="m 173.6591,103.5048 0.0953,0.0476"
         id="path21033" />
      <path
         d="M 173.7544,103.5524 173.802,103.6"
         id="path21035" />
      <path
         d="m 173.802,103.6 0.0476,0.0952"
         id="path21037" />
      <path
         d="m 173.8496,103.6952 v 0.2858"
         id="path21039" />
      <path
         d="m 173.8496,103.981 -0.0476,0.0952"
         id="path21041" />
      <path
         d="m 173.802,104.0762 -0.0476,0.0476"
         id="path21043" />
      <path
         d="m 173.8496,102.5524 v 0.5714"
         id="path21045" />
      <path
         d="m 173.8496,102.8381 h -1"
         id="path21047" />
      <path
         d="m 172.8496,102.8381 0.1429,0.0952"
         id="path21049" />
      <path
         d="m 172.9925,102.9333 0.0952,0.0953"
         id="path21051" />
      <path
         d="m 173.0877,103.0286 0.0476,0.0952"
         id="path21053" />
      <path
         d="M 173.8496,101.3619 H 173.183"
         id="path21055" />
      <path
         d="m 173.2782,101.3619 -0.0476,-0.0476"
         id="path21057" />
      <path
         d="M 173.2306,101.3143 173.183,101.219"
         id="path21059" />
      <path
         d="m 173.183,101.219 v -0.1428"
         id="path21061" />
      <path
         d="m 173.183,101.0762 0.0476,-0.0952"
         id="path21063" />
      <path
         d="m 173.2306,100.981 0.0952,-0.0477"
         id="path21065" />
      <path
         d="m 173.3258,100.9333 h 0.5238"
         id="path21067" />
      <path
         d="m 173.3258,100.9333 -0.0952,-0.0476"
         id="path21069" />
      <path
         d="m 173.2306,100.8857 -0.0476,-0.0952"
         id="path21071" />
      <path
         d="m 173.183,100.7905 v -0.1429"
         id="path21073" />
      <path
         d="m 173.183,100.6476 0.0476,-0.0952"
         id="path21075" />
      <path
         d="m 173.2306,100.5524 0.0952,-0.0476"
         id="path21077" />
      <path
         d="m 173.3258,100.5048 h 0.5238"
         id="path21079" />
      <path
         d="M 173.8496,100.0286 H 173.183"
         id="path21081" />
      <path
         d="M 173.2782,100.0286 173.2306,99.981"
         id="path21083" />
      <path
         d="M 173.2306,99.981 173.183,99.8857"
         id="path21085" />
      <path
         d="M 173.183,99.8857 V 99.7429"
         id="path21087" />
      <path
         d="m 173.183,99.7429 0.0476,-0.0953"
         id="path21089" />
      <path
         d="M 173.2306,99.6476 173.3258,99.6"
         id="path21091" />
      <path
         d="m 173.3258,99.6 h 0.5238"
         id="path21093" />
      <path
         d="m 173.3258,99.6 -0.0952,-0.0476"
         id="path21095" />
      <path
         d="M 173.2306,99.5524 173.183,99.4571"
         id="path21097" />
      <path
         d="M 173.183,99.4571 V 99.3143"
         id="path21099" />
      <path
         d="m 173.183,99.3143 0.0476,-0.0953"
         id="path21101" />
      <path
         d="m 173.2306,99.219 0.0952,-0.0476"
         id="path21103" />
      <path
         d="m 173.3258,99.1714 h 0.5238"
         id="path21105" />
    </g>
  </g>
  <g
     style="fill:#c2c2c2;fill-opacity:0;stroke:#c2c2c2;stroke-width:0.1;stroke-linecap:round;stroke-linejoin:round;stroke-opacity:1"
     id="g21127"
     transform="translate(-130.677,-79.877)">
    <path
       d="m 168.4,117.1 h 5.5864"
       id="path21111" />
    <path
       d="M 173.9864,86.1 H 168.4"
       id="path21113" />
    <path
       d="M 173.4,117.1 V 105.0417"
       id="path21115" />
    <path
       d="M 173.4,98.1583 V 86.1"
       id="path21117" />
    <path
       d="m 173.4,117.1 -0.5864,-1.1265"
       id="path21119" />
    <path
       d="m 173.4,117.1 0.5864,-1.1265"
       id="path21121" />
    <path
       d="m 173.4,86.1 0.5864,1.1265"
       id="path21123" />
    <path
       d="m 173.4,86.1 -0.5864,1.1265"
       id="path21125" />
  </g>
  <g
     style="fill:#c2c2c2;fill-opacity:0;stroke:#c2c2c2;stroke-width:0.25;stroke-linecap:round;stroke-linejoin:round;stroke-opacity:1"
     id="g21223"
     transform="translate(-130.677,-79.877)">
    <text
       x="152.39999"
       y="123.1"
       textLength="5.8832998"
       font-size="1.3333px"
       lengthAdjust="spacingAndGlyphs"
       text-anchor="middle"
       opacity="0"
       id="text21129">31 mm</text>
    <g
       class="stroked-text"
       id="g21221">
      <desc
         id="desc21131">31 mm</desc>
      <path
         d="m 149.8762,122.0496 h 0.619"
         id="path21133" />
      <path
         d="m 150.4952,122.0496 -0.3333,0.381"
         id="path21135" />
      <path
         d="m 150.1619,122.4306 h 0.1429"
         id="path21137" />
      <path
         d="m 150.3048,122.4306 0.0952,0.0476"
         id="path21139" />
      <path
         d="m 150.4,122.4782 0.0476,0.0476"
         id="path21141" />
      <path
         d="m 150.4476,122.5258 0.0476,0.0952"
         id="path21143" />
      <path
         d="m 150.4952,122.621 v 0.2381"
         id="path21145" />
      <path
         d="m 150.4952,122.8591 -0.0476,0.0953"
         id="path21147" />
      <path
         d="M 150.4476,122.9544 150.4,123.002"
         id="path21149" />
      <path
         d="m 150.4,123.002 -0.0952,0.0476"
         id="path21151" />
      <path
         d="M 150.3048,123.0496 H 150.019"
         id="path21153" />
      <path
         d="m 150.019,123.0496 -0.0952,-0.0476"
         id="path21155" />
      <path
         d="m 149.9238,123.002 -0.0476,-0.0476"
         id="path21157" />
      <path
         d="m 151.4476,123.0496 h -0.5714"
         id="path21159" />
      <path
         d="m 151.1619,123.0496 v -1"
         id="path21161" />
      <path
         d="m 151.1619,122.0496 -0.0952,0.1429"
         id="path21163" />
      <path
         d="m 151.0667,122.1925 -0.0953,0.0952"
         id="path21165" />
      <path
         d="m 150.9714,122.2877 -0.0952,0.0476"
         id="path21167" />
      <path
         d="M 152.6381,123.0496 V 122.383"
         id="path21169" />
      <path
         d="m 152.6381,122.4782 0.0476,-0.0476"
         id="path21171" />
      <path
         d="m 152.6857,122.4306 0.0953,-0.0476"
         id="path21173" />
      <path
         d="m 152.781,122.383 h 0.1428"
         id="path21175" />
      <path
         d="m 152.9238,122.383 0.0952,0.0476"
         id="path21177" />
      <path
         d="m 153.019,122.4306 0.0477,0.0952"
         id="path21179" />
      <path
         d="m 153.0667,122.5258 v 0.5238"
         id="path21181" />
      <path
         d="m 153.0667,122.5258 0.0476,-0.0952"
         id="path21183" />
      <path
         d="m 153.1143,122.4306 0.0952,-0.0476"
         id="path21185" />
      <path
         d="m 153.2095,122.383 h 0.1429"
         id="path21187" />
      <path
         d="m 153.3524,122.383 0.0952,0.0476"
         id="path21189" />
      <path
         d="m 153.4476,122.4306 0.0476,0.0952"
         id="path21191" />
      <path
         d="m 153.4952,122.5258 v 0.5238"
         id="path21193" />
      <path
         d="M 153.9714,123.0496 V 122.383"
         id="path21195" />
      <path
         d="m 153.9714,122.4782 0.0476,-0.0476"
         id="path21197" />
      <path
         d="m 154.019,122.4306 0.0953,-0.0476"
         id="path21199" />
      <path
         d="m 154.1143,122.383 h 0.1428"
         id="path21201" />
      <path
         d="m 154.2571,122.383 0.0953,0.0476"
         id="path21203" />
      <path
         d="m 154.3524,122.4306 0.0476,0.0952"
         id="path21205" />
      <path
         d="m 154.4,122.5258 v 0.5238"
         id="path21207" />
      <path
         d="m 154.4,122.5258 0.0476,-0.0952"
         id="path21209" />
      <path
         d="m 154.4476,122.4306 0.0953,-0.0476"
         id="path21211" />
      <path
         d="m 154.5429,122.383 h 0.1428"
         id="path21213" />
      <path
         d="m 154.6857,122.383 0.0953,0.0476"
         id="path21215" />
      <path
         d="m 154.781,122.4306 0.0476,0.0952"
         id="path21217" />
      <path
         d="m 154.8286,122.5258 v 0.5238"
         id="path21219" />
    </g>
  </g>
  <g
     style="fill:#c2c2c2;fill-opacity:0;stroke:#c2c2c2;stroke-width:0.1;stroke-linecap:round;stroke-linejoin:round;stroke-opacity:1"
     id="g21241"
     transform="translate(-130.677,-79.877)">
    <path
       d="m 136.9,117.6 v 5.5864"
       id="path21225" />
    <path
       d="M 167.9,123.1864 V 117.6"
       id="path21227" />
    <path
       d="m 136.9,122.6 h 12.0583"
       id="path21229" />
    <path
       d="M 155.8417,122.6 H 167.9"
       id="path21231" />
    <path
       d="m 136.9,122.6 1.1265,-0.5864"
       id="path21233" />
    <path
       d="m 136.9,122.6 1.1265,0.5864"
       id="path21235" />
    <path
       d="m 167.9,122.6 -1.1265,0.5864"
       id="path21237" />
    <path
       d="m 167.9,122.6 -1.1265,-0.5864"
       id="path21239" />
  </g>
  <g
     style="fill:#c2c2c2;fill-opacity:0;stroke:#c2c2c2;stroke-width:0.25;stroke-linecap:round;stroke-linejoin:round;stroke-opacity:1"
     id="g21357"
     transform="translate(-130.677,-79.877)">
    <text
       x="136.89999"
       y="111.1"
       textLength="6.3594999"
       font-size="1.3333px"
       lengthAdjust="spacingAndGlyphs"
       text-anchor="middle"
       opacity="0"
       id="text21243">3.2 mm</text>
    <g
       class="stroked-text"
       id="g21355">
      <desc
         id="desc21245">3.2 mm</desc>
      <path
         d="m 134.1381,110.0496 h 0.619"
         id="path21247" />
      <path
         d="m 134.7571,110.0496 -0.3333,0.381"
         id="path21249" />
      <path
         d="m 134.4238,110.4306 h 0.1429"
         id="path21251" />
      <path
         d="m 134.5667,110.4306 0.0952,0.0476"
         id="path21253" />
      <path
         d="m 134.6619,110.4782 0.0476,0.0476"
         id="path21255" />
      <path
         d="m 134.7095,110.5258 0.0476,0.0952"
         id="path21257" />
      <path
         d="m 134.7571,110.621 v 0.2381"
         id="path21259" />
      <path
         d="m 134.7571,110.8591 -0.0476,0.0953"
         id="path21261" />
      <path
         d="m 134.7095,110.9544 -0.0476,0.0476"
         id="path21263" />
      <path
         d="m 134.6619,111.002 -0.0952,0.0476"
         id="path21265" />
      <path
         d="M 134.5667,111.0496 H 134.281"
         id="path21267" />
      <path
         d="m 134.281,111.0496 -0.0953,-0.0476"
         id="path21269" />
      <path
         d="m 134.1857,111.002 -0.0476,-0.0476"
         id="path21271" />
      <path
         d="m 135.1857,110.9544 0.0476,0.0476"
         id="path21273" />
      <path
         d="m 135.2333,111.002 -0.0476,0.0476"
         id="path21275" />
      <path
         d="m 135.1857,111.0496 -0.0476,-0.0476"
         id="path21277" />
      <path
         d="m 135.1381,111.002 0.0476,-0.0476"
         id="path21279" />
      <path
         d="m 135.1857,110.9544 v 0.0952"
         id="path21281" />
      <path
         d="m 135.6143,110.1449 0.0476,-0.0477"
         id="path21283" />
      <path
         d="m 135.6619,110.0972 0.0952,-0.0476"
         id="path21285" />
      <path
         d="m 135.7571,110.0496 h 0.2381"
         id="path21287" />
      <path
         d="m 135.9952,110.0496 0.0953,0.0476"
         id="path21289" />
      <path
         d="m 136.0905,110.0972 0.0476,0.0477"
         id="path21291" />
      <path
         d="m 136.1381,110.1449 0.0476,0.0952"
         id="path21293" />
      <path
         d="m 136.1857,110.2401 v 0.0952"
         id="path21295" />
      <path
         d="m 136.1857,110.3353 -0.0476,0.1429"
         id="path21297" />
      <path
         d="m 136.1381,110.4782 -0.5714,0.5714"
         id="path21299" />
      <path
         d="m 135.5667,111.0496 h 0.619"
         id="path21301" />
      <path
         d="M 137.3762,111.0496 V 110.383"
         id="path21303" />
      <path
         d="m 137.3762,110.4782 0.0476,-0.0476"
         id="path21305" />
      <path
         d="m 137.4238,110.4306 0.0952,-0.0476"
         id="path21307" />
      <path
         d="m 137.519,110.383 h 0.1429"
         id="path21309" />
      <path
         d="m 137.6619,110.383 0.0952,0.0476"
         id="path21311" />
      <path
         d="m 137.7571,110.4306 0.0477,0.0952"
         id="path21313" />
      <path
         d="m 137.8048,110.5258 v 0.5238"
         id="path21315" />
      <path
         d="m 137.8048,110.5258 0.0476,-0.0952"
         id="path21317" />
      <path
         d="m 137.8524,110.4306 0.0952,-0.0476"
         id="path21319" />
      <path
         d="m 137.9476,110.383 h 0.1429"
         id="path21321" />
      <path
         d="m 138.0905,110.383 0.0952,0.0476"
         id="path21323" />
      <path
         d="m 138.1857,110.4306 0.0476,0.0952"
         id="path21325" />
      <path
         d="m 138.2333,110.5258 v 0.5238"
         id="path21327" />
      <path
         d="M 138.7095,111.0496 V 110.383"
         id="path21329" />
      <path
         d="m 138.7095,110.4782 0.0476,-0.0476"
         id="path21331" />
      <path
         d="m 138.7571,110.4306 0.0953,-0.0476"
         id="path21333" />
      <path
         d="m 138.8524,110.383 h 0.1428"
         id="path21335" />
      <path
         d="m 138.9952,110.383 0.0953,0.0476"
         id="path21337" />
      <path
         d="m 139.0905,110.4306 0.0476,0.0952"
         id="path21339" />
      <path
         d="m 139.1381,110.5258 v 0.5238"
         id="path21341" />
      <path
         d="m 139.1381,110.5258 0.0476,-0.0952"
         id="path21343" />
      <path
         d="m 139.1857,110.4306 0.0953,-0.0476"
         id="path21345" />
      <path
         d="m 139.281,110.383 h 0.1428"
         id="path21347" />
      <path
         d="m 139.4238,110.383 0.0952,0.0476"
         id="path21349" />
      <path
         d="m 139.519,110.4306 0.0477,0.0952"
         id="path21351" />
      <path
         d="m 139.5667,110.5258 v 0.5238"
         id="path21353" />
    </g>
  </g>
  <g
     style="fill:#c2c2c2;fill-opacity:0;stroke:#c2c2c2;stroke-width:0.1;stroke-linecap:round;stroke-linejoin:round;stroke-opacity:1"
     id="g21375"
     transform="translate(-130.677,-79.877)">
    <path
       d="m 135.3,116.6 v -4.5864"
       id="path21359" />
    <path
       d="M 138.5,112.0136 V 116.6"
       id="path21361" />
    <path
       d="m 135.3,112.6 h 3.2"
       id="path21363" />
    <path
       d="m 135.3,112.6 h 3.2"
       id="path21365" />
    <path
       d="m 135.3,112.6 1.1265,-0.5864"
       id="path21367" />
    <path
       d="m 135.3,112.6 1.1265,0.5864"
       id="path21369" />
    <path
       d="m 138.5,112.6 -1.1265,0.5864"
       id="path21371" />
    <path
       d="m 138.5,112.6 -1.1265,-0.5864"
       id="path21373" />
  </g>
  <g
     style="fill:#c2c2c2;fill-opacity:0;stroke:#c2c2c2;stroke-width:0.25;stroke-linecap:round;stroke-linejoin:round;stroke-opacity:1"
     id="g21481"
     transform="translate(-130.677,-79.877)">
    <text
       x="152.39999"
       y="81.099998"
       textLength="5.8832998"
       font-size="1.3333px"
       lengthAdjust="spacingAndGlyphs"
       text-anchor="middle"
       opacity="0"
       id="text21377">40 mm</text>
    <g
       class="stroked-text"
       id="g21479">
      <desc
         id="desc21379">40 mm</desc>
      <path
         d="m 150.4,80.383 v 0.6666"
         id="path21381" />
      <path
         d="m 150.1619,80.002 -0.2381,0.7143"
         id="path21383" />
      <path
         d="m 149.9238,80.7163 h 0.6191"
         id="path21385" />
      <path
         d="m 151.1143,80.0496 h 0.0952"
         id="path21387" />
      <path
         d="m 151.2095,80.0496 0.0953,0.0476"
         id="path21389" />
      <path
         d="m 151.3048,80.0972 0.0476,0.0477"
         id="path21391" />
      <path
         d="M 151.3524,80.1449 151.4,80.2401"
         id="path21393" />
      <path
         d="m 151.4,80.2401 0.0476,0.1905"
         id="path21395" />
      <path
         d="m 151.4476,80.4306 v 0.2381"
         id="path21397" />
      <path
         d="M 151.4476,80.6687 151.4,80.8591"
         id="path21399" />
      <path
         d="m 151.4,80.8591 -0.0476,0.0953"
         id="path21401" />
      <path
         d="m 151.3524,80.9544 -0.0476,0.0476"
         id="path21403" />
      <path
         d="m 151.3048,81.002 -0.0953,0.0476"
         id="path21405" />
      <path
         d="m 151.2095,81.0496 h -0.0952"
         id="path21407" />
      <path
         d="M 151.1143,81.0496 151.019,81.002"
         id="path21409" />
      <path
         d="m 151.019,81.002 -0.0476,-0.0476"
         id="path21411" />
      <path
         d="m 150.9714,80.9544 -0.0476,-0.0953"
         id="path21413" />
      <path
         d="m 150.9238,80.8591 -0.0476,-0.1904"
         id="path21415" />
      <path
         d="M 150.8762,80.6687 V 80.4306"
         id="path21417" />
      <path
         d="m 150.8762,80.4306 0.0476,-0.1905"
         id="path21419" />
      <path
         d="m 150.9238,80.2401 0.0476,-0.0952"
         id="path21421" />
      <path
         d="m 150.9714,80.1449 0.0476,-0.0477"
         id="path21423" />
      <path
         d="m 151.019,80.0972 0.0953,-0.0476"
         id="path21425" />
      <path
         d="M 152.6381,81.0496 V 80.383"
         id="path21427" />
      <path
         d="m 152.6381,80.4782 0.0476,-0.0476"
         id="path21429" />
      <path
         d="M 152.6857,80.4306 152.781,80.383"
         id="path21431" />
      <path
         d="m 152.781,80.383 h 0.1428"
         id="path21433" />
      <path
         d="m 152.9238,80.383 0.0952,0.0476"
         id="path21435" />
      <path
         d="m 153.019,80.4306 0.0477,0.0952"
         id="path21437" />
      <path
         d="m 153.0667,80.5258 v 0.5238"
         id="path21439" />
      <path
         d="m 153.0667,80.5258 0.0476,-0.0952"
         id="path21441" />
      <path
         d="m 153.1143,80.4306 0.0952,-0.0476"
         id="path21443" />
      <path
         d="m 153.2095,80.383 h 0.1429"
         id="path21445" />
      <path
         d="m 153.3524,80.383 0.0952,0.0476"
         id="path21447" />
      <path
         d="m 153.4476,80.4306 0.0476,0.0952"
         id="path21449" />
      <path
         d="m 153.4952,80.5258 v 0.5238"
         id="path21451" />
      <path
         d="M 153.9714,81.0496 V 80.383"
         id="path21453" />
      <path
         d="m 153.9714,80.4782 0.0476,-0.0476"
         id="path21455" />
      <path
         d="m 154.019,80.4306 0.0953,-0.0476"
         id="path21457" />
      <path
         d="m 154.1143,80.383 h 0.1428"
         id="path21459" />
      <path
         d="m 154.2571,80.383 0.0953,0.0476"
         id="path21461" />
      <path
         d="M 154.3524,80.4306 154.4,80.5258"
         id="path21463" />
      <path
         d="m 154.4,80.5258 v 0.5238"
         id="path21465" />
      <path
         d="m 154.4,80.5258 0.0476,-0.0952"
         id="path21467" />
      <path
         d="m 154.4476,80.4306 0.0953,-0.0476"
         id="path21469" />
      <path
         d="m 154.5429,80.383 h 0.1428"
         id="path21471" />
      <path
         d="m 154.6857,80.383 0.0953,0.0476"
         id="path21473" />
      <path
         d="m 154.781,80.4306 0.0476,0.0952"
         id="path21475" />
      <path
         d="m 154.8286,80.5258 v 0.5238"
         id="path21477" />
    </g>
  </g>
  <g
     style="fill:#c2c2c2;fill-opacity:0;stroke:#c2c2c2;stroke-width:0.1;stroke-linecap:round;stroke-linejoin:round;stroke-opacity:1"
     id="g21499"
     transform="translate(-130.677,-79.877)">
    <path
       d="M 132.4,98.1 V 80.0136"
       id="path21483" />
    <path
       d="M 172.4,80.0136 V 98.1"
       id="path21485" />
    <path
       d="m 132.4,80.6 h 16.5583"
       id="path21487" />
    <path
       d="M 155.8417,80.6 H 172.4"
       id="path21489" />
    <path
       d="m 132.4,80.6 1.1265,-0.5864"
       id="path21491" />
    <path
       d="m 132.4,80.6 1.1265,0.5864"
       id="path21493" />
    <path
       d="m 172.4,80.6 -1.1265,0.5864"
       id="path21495" />
    <path
       d="m 172.4,80.6 -1.1265,-0.5864"
       id="path21497" />
  </g>
  <g
     style="fill:#c2c2c2;fill-opacity:0;stroke:#c2c2c2;stroke-width:0.4;stroke-linecap:round;stroke-linejoin:round;stroke-opacity:1"
     id="g21591"
     transform="translate(-130.677,-79.877)">
    <circle
       cx="167.89999"
       cy="117.1"
       r="1.6"
       id="circle21501" />
    <circle
       cx="136.89999"
       cy="86.099998"
       r="1.6"
       id="circle21503" />
    <circle
       cx="167.89999"
       cy="86.099998"
       r="1.6"
       id="circle21505" />
    <circle
       cx="136.89999"
       cy="117.1"
       r="1.6"
       id="circle21507" />
    <g
       id="g21509" />
    <g
       id="g21511" />
    <g
       id="g21513" />
    <g
       id="g21515" />
    <g
       id="g21517" />
    <g
       id="g21519" />
    <g
       id="g21521" />
    <g
       id="g21523" />
    <g
       id="g21525" />
    <g
       id="g21527" />
    <g
       id="g21529" />
    <g
       id="g21531" />
    <g
       id="g21533" />
    <g
       id="g21535" />
    <g
       id="g21537" />
    <g
       id="g21539" />
    <g
       id="g21541" />
    <g
       id="g21543" />
    <g
       id="g21545" />
    <g
       id="g21547" />
    <g
       id="g21549" />
    <g
       id="g21551" />
    <g
       id="g21553" />
    <g
       id="g21555" />
    <g
       id="g21557" />
    <g
       id="g21559" />
    <g
       id="g21561" />
    <g
       id="g21563" />
    <g
       id="g21565" />
    <g
       id="g21567" />
    <g
       id="g21569" />
    <g
       id="g21571" />
    <g
       id="g21573" />
    <g
       id="g21575" />
    <g
       id="g21577" />
    <g
       id="g21579" />
    <g
       id="g21581" />
    <g
       id="g21583" />
    <g
       id="g21585" />
    <g
       id="g21587" />
    <g
       id="g21589" />
  </g>
  <g
     style="fill:#000000;fill-opacity:0;stroke:#000000;stroke-width:0.4;stroke-linecap:round;stroke-linejoin:round;stroke-opacity:1"
     id="g21593"
     transform="translate(-130.677,-79.877)" />
  <g
     style="fill:#d0d2cd;fill-opacity:0;stroke:#d0d2cd;stroke-width:0.4;stroke-linecap:round;stroke-linejoin:round;stroke-opacity:1"
     id="g21595"
     transform="translate(-130.677,-79.877)" />
  <g
     style="fill:#d0d2cd;fill-opacity:0;stroke:#d0d2cd;stroke-width:0.1;stroke-linecap:round;stroke-linejoin:round;stroke-opacity:1"
     id="g21695"
     transform="translate(-130.677,-79.877)">
    <path
       d="m 132.4,117.1 v -31"
       id="path21597" />
    <path
       d="m 172.4,86.1 v 31"
       id="path21599" />
    <path
       d="m 167.9,121.6 a 4.5,4.5 0 0 0 4.5,-4.5"
       id="path21601" />
    <path
       d="m 172.4,86.1 a 4.5,4.5 0 0 0 -4.5,-4.5"
       id="path21603" />
    <path
       d="m 132.4,117.1 a 4.5,4.5 0 0 0 4.5,4.5"
       id="path21605" />
    <path
       d="m 167.9,121.6 h -31"
       id="path21607" />
    <path
       d="m 136.9,81.6 a 4.5,4.5 0 0 0 -4.5,4.5"
       id="path21609" />
    <path
       d="m 136.9,81.6 h 31"
       id="path21611" />
    <g
       id="g21613" />
    <g
       id="g21615" />
    <g
       id="g21617" />
    <g
       id="g21619" />
    <g
       id="g21621" />
    <g
       id="g21623" />
    <g
       id="g21625" />
    <g
       id="g21627" />
    <g
       id="g21629" />
    <g
       id="g21631" />
    <g
       id="g21633" />
    <g
       id="g21635" />
    <g
       id="g21637" />
    <g
       id="g21639" />
    <g
       id="g21641" />
    <g
       id="g21643" />
    <g
       id="g21645" />
    <g
       id="g21647" />
    <g
       id="g21649" />
    <g
       id="g21651" />
    <g
       id="g21653" />
    <g
       id="g21655" />
    <g
       id="g21657" />
    <g
       id="g21659" />
    <g
       id="g21661" />
    <g
       id="g21663" />
    <g
       id="g21665" />
    <g
       id="g21667" />
    <g
       id="g21669" />
    <g
       id="g21671" />
    <g
       id="g21673" />
    <g
       id="g21675" />
    <g
       id="g21677" />
    <g
       id="g21679" />
    <g
       id="g21681" />
    <g
       id="g21683" />
    <g
       id="g21685" />
    <g
       id="g21687" />
    <g
       id="g21689" />
    <g
       id="g21691" />
    <g
       id="g21693" />
  </g>
</svg>
