<?xml version="1.0" encoding="UTF-8" standalone="no"?>
<svg
   version="1.1"
   width="40.099998mm"
   height="40.099998mm"
   viewBox="0 0 40.099999 40.099998"
   id="svg661"
   xmlns="http://www.w3.org/2000/svg"
   xmlns:svg="http://www.w3.org/2000/svg">
  <defs
     id="defs665" />
  <title
     id="title317">SVG Image created as prism-pcb-B_Silkscreen.svg date 2024/07/25 16:53:12 </title>
  <desc
     id="desc319">Image generated by PCBNEW </desc>
  <g
     style="fill:#000000;fill-opacity:1;stroke:#000000;stroke-linecap:round;stroke-linejoin:round;stroke-opacity:1"
     id="g321"
     transform="translate(-132.35,-81.55)" />
  <g
     style="fill:#000000;fill-opacity:0;stroke:#000000;stroke-width:0;stroke-linecap:round;stroke-linejoin:round;stroke-opacity:1"
     id="g323"
     transform="translate(-132.35,-81.55)" />
  <g
     style="fill:#e8b2a7;fill-opacity:0;stroke:#e8b2a7;stroke-width:0;stroke-linecap:round;stroke-linejoin:round;stroke-opacity:1"
     id="g325"
     transform="translate(-132.35,-81.55)" />
  <g
     style="fill:#e8b2a7;fill-opacity:0;stroke:#e8b2a7;stroke-width:0.25;stroke-linecap:round;stroke-linejoin:round;stroke-opacity:1"
     id="g479"
     transform="translate(-132.35,-81.55)">
    <text
       x="142.39999"
       y="94.099998"
       transform="matrix(-1,0,0,1,284.8,0)"
       textLength="3.3118999"
       font-size="1.3333px"
       lengthAdjust="spacingAndGlyphs"
       text-anchor="middle"
       opacity="0"
       id="text327">FAN</text>
    <g
       class="stroked-text"
       id="g349">
      <desc
         id="desc329">FAN</desc>
      <path
         d="m 143.2095,93.5258 h 0.3334"
         id="path331" />
      <path
         d="m 143.5429,94.0496 v -1"
         id="path333" />
      <path
         d="m 143.5429,93.0496 h -0.4762"
         id="path335" />
      <path
         d="m 142.7333,93.7639 h -0.4762"
         id="path337" />
      <path
         d="m 142.8286,94.0496 -0.3334,-1"
         id="path339" />
      <path
         d="m 142.4952,93.0496 -0.3333,1"
         id="path341" />
      <path
         d="m 141.8286,94.0496 v -1"
         id="path343" />
      <path
         d="m 141.8286,93.0496 -0.5715,1"
         id="path345" />
      <path
         d="m 141.2571,94.0496 v -1"
         id="path347" />
    </g>
    <g
       transform="rotate(90,141.13,88.6)"
       id="g353">
      <text
         x="141.13"
         y="89.099998"
         transform="matrix(-1,0,0,1,282.26,0)"
         textLength="3.4547999"
         font-size="1.3333px"
         lengthAdjust="spacingAndGlyphs"
         text-anchor="middle"
         opacity="0"
         id="text351">RED</text>
    </g>
    <g
       class="stroked-text"
       id="g411">
      <desc
         id="desc355">RED</desc>
      <path
         d="m 140.6804,89.2429 0.4762,0.3333"
         id="path357" />
      <path
         d="m 140.6804,89.8143 h 1"
         id="path359" />
      <path
         d="m 141.6804,89.8143 v -0.381"
         id="path361" />
      <path
         d="m 141.6804,89.4333 -0.0476,-0.0952"
         id="path363" />
      <path
         d="m 141.6328,89.3381 -0.0477,-0.0476"
         id="path365" />
      <path
         d="m 141.5851,89.2905 -0.0952,-0.0476"
         id="path367" />
      <path
         d="M 141.4899,89.2429 H 141.347"
         id="path369" />
      <path
         d="m 141.347,89.2429 -0.0952,0.0476"
         id="path371" />
      <path
         d="m 141.2518,89.2905 -0.0476,0.0476"
         id="path373" />
      <path
         d="m 141.2042,89.3381 -0.0476,0.0952"
         id="path375" />
      <path
         d="m 141.1566,89.4333 v 0.381"
         id="path377" />
      <path
         d="M 141.2042,88.8143 V 88.481"
         id="path379" />
      <path
         d="m 140.6804,88.3381 v 0.4762"
         id="path381" />
      <path
         d="m 140.6804,88.8143 h 1"
         id="path383" />
      <path
         d="M 141.6804,88.8143 V 88.3381"
         id="path385" />
      <path
         d="m 140.6804,87.9095 h 1"
         id="path387" />
      <path
         d="M 141.6804,87.9095 V 87.6714"
         id="path389" />
      <path
         d="m 141.6804,87.6714 -0.0476,-0.1428"
         id="path391" />
      <path
         d="m 141.6328,87.5286 -0.0953,-0.0953"
         id="path393" />
      <path
         d="m 141.5375,87.4333 -0.0952,-0.0476"
         id="path395" />
      <path
         d="m 141.4423,87.3857 -0.1905,-0.0476"
         id="path397" />
      <path
         d="M 141.2518,87.3381 H 141.109"
         id="path399" />
      <path
         d="m 141.109,87.3381 -0.1905,0.0476"
         id="path401" />
      <path
         d="m 140.9185,87.3857 -0.0953,0.0476"
         id="path403" />
      <path
         d="m 140.8232,87.4333 -0.0952,0.0953"
         id="path405" />
      <path
         d="m 140.728,87.5286 -0.0476,0.1428"
         id="path407" />
      <path
         d="m 140.6804,87.6714 v 0.2381"
         id="path409" />
    </g>
    <g
       transform="rotate(90,143.67,88.6)"
       id="g415">
      <text
         x="143.67"
         y="89.099998"
         transform="matrix(-1,0,0,1,287.34,0)"
         textLength="3.4071"
         font-size="1.3333px"
         lengthAdjust="spacingAndGlyphs"
         text-anchor="middle"
         opacity="0"
         id="text413">BLU</text>
    </g>
    <g
       class="stroked-text"
       id="g477">
      <desc
         id="desc417">BLU</desc>
      <path
         d="m 143.7442,89.4571 -0.0476,-0.1428"
         id="path419" />
      <path
         d="M 143.6966,89.3143 143.649,89.2667"
         id="path421" />
      <path
         d="M 143.649,89.2667 143.5537,89.219"
         id="path423" />
      <path
         d="m 143.5537,89.219 h -0.1428"
         id="path425" />
      <path
         d="m 143.4109,89.219 -0.0953,0.0477"
         id="path427" />
      <path
         d="m 143.3156,89.2667 -0.0476,0.0476"
         id="path429" />
      <path
         d="m 143.268,89.3143 -0.0476,0.0952"
         id="path431" />
      <path
         d="m 143.2204,89.4095 v 0.381"
         id="path433" />
      <path
         d="m 143.2204,89.7905 h 1"
         id="path435" />
      <path
         d="M 144.2204,89.7905 V 89.4571"
         id="path437" />
      <path
         d="m 144.2204,89.4571 -0.0476,-0.0952"
         id="path439" />
      <path
         d="m 144.1728,89.3619 -0.0477,-0.0476"
         id="path441" />
      <path
         d="m 144.1251,89.3143 -0.0952,-0.0476"
         id="path443" />
      <path
         d="m 144.0299,89.2667 h -0.0952"
         id="path445" />
      <path
         d="m 143.9347,89.2667 -0.0953,0.0476"
         id="path447" />
      <path
         d="m 143.8394,89.3143 -0.0476,0.0476"
         id="path449" />
      <path
         d="m 143.7918,89.3619 -0.0476,0.0952"
         id="path451" />
      <path
         d="m 143.7442,89.4571 v 0.3334"
         id="path453" />
      <path
         d="m 143.2204,88.3143 v 0.4762"
         id="path455" />
      <path
         d="m 143.2204,88.7905 h 1"
         id="path457" />
      <path
         d="m 144.2204,87.981 h -0.8095"
         id="path459" />
      <path
         d="m 143.4109,87.981 -0.0953,-0.0477"
         id="path461" />
      <path
         d="M 143.3156,87.9333 143.268,87.8857"
         id="path463" />
      <path
         d="m 143.268,87.8857 -0.0476,-0.0952"
         id="path465" />
      <path
         d="M 143.2204,87.7905 V 87.6"
         id="path467" />
      <path
         d="m 143.2204,87.6 0.0476,-0.0952"
         id="path469" />
      <path
         d="m 143.268,87.5048 0.0476,-0.0477"
         id="path471" />
      <path
         d="m 143.3156,87.4571 0.0953,-0.0476"
         id="path473" />
      <path
         d="m 143.4109,87.4095 h 0.8095"
         id="path475" />
    </g>
  </g>
  <g
     style="fill:#e8b2a7;fill-opacity:0;stroke:#e8b2a7;stroke-width:0.2;stroke-linecap:round;stroke-linejoin:round;stroke-opacity:1"
     id="g563"
     transform="translate(-132.35,-81.55)">
    <path
       d="m 140.15,90.6 h 4.5"
       id="path481" />
    <path
       d="m 144.65,90.6 v 2"
       id="path483" />
    <path
       d="m 144.65,92.6 h -4.5"
       id="path485" />
    <path
       d="m 140.15,92.6 v -2"
       id="path487" />
    <g
       id="g489" />
    <g
       id="g491" />
    <g
       id="g493" />
    <g
       id="g495" />
    <g
       id="g497" />
    <g
       id="g499" />
    <g
       id="g501" />
    <g
       id="g503" />
    <g
       id="g505" />
    <g
       id="g507" />
    <g
       id="g509" />
    <g
       id="g511" />
    <g
       id="g513" />
    <g
       id="g515" />
    <g
       id="g517" />
    <g
       id="g519" />
    <g
       id="g521" />
    <g
       id="g523" />
    <g
       id="g525" />
    <g
       id="g527" />
    <g
       id="g529" />
    <g
       id="g531" />
    <g
       id="g533" />
    <g
       id="g535" />
    <g
       id="g537" />
    <g
       id="g539" />
    <g
       id="g541" />
    <g
       id="g543" />
    <g
       id="g545" />
    <g
       id="g547" />
    <g
       id="g549" />
    <g
       id="g551" />
    <g
       id="g553" />
    <g
       id="g555" />
    <g
       id="g557" />
    <g
       id="g559" />
    <g
       id="g561" />
  </g>
  <g
     style="fill:#000000;fill-opacity:0;stroke:#000000;stroke-width:0.2;stroke-linecap:round;stroke-linejoin:round;stroke-opacity:1"
     id="g565"
     transform="translate(-132.35,-81.55)" />
  <g
     style="fill:#d0d2cd;fill-opacity:0;stroke:#d0d2cd;stroke-width:0.2;stroke-linecap:round;stroke-linejoin:round;stroke-opacity:1"
     id="g567"
     transform="translate(-132.35,-81.55)" />
  <g
     style="fill:#d0d2cd;fill-opacity:0;stroke:#d0d2cd;stroke-width:0.1;stroke-linecap:round;stroke-linejoin:round;stroke-opacity:1"
     id="g659"
     transform="translate(-132.35,-81.55)">
    <path
       d="m 132.4,117.1 v -31"
       id="path569" />
    <path
       d="m 172.4,86.1 v 31"
       id="path571" />
    <path
       d="m 167.9,121.6 a 4.5,4.5 0 0 0 4.5,-4.5"
       id="path573" />
    <path
       d="m 172.4,86.1 a 4.5,4.5 0 0 0 -4.5,-4.5"
       id="path575" />
    <path
       d="m 132.4,117.1 a 4.5,4.5 0 0 0 4.5,4.5"
       id="path577" />
    <path
       d="m 167.9,121.6 h -31"
       id="path579" />
    <path
       d="m 136.9,81.6 a 4.5,4.5 0 0 0 -4.5,4.5"
       id="path581" />
    <path
       d="m 136.9,81.6 h 31"
       id="path583" />
    <g
       id="g585" />
    <g
       id="g587" />
    <g
       id="g589" />
    <g
       id="g591" />
    <g
       id="g593" />
    <g
       id="g595" />
    <g
       id="g597" />
    <g
       id="g599" />
    <g
       id="g601" />
    <g
       id="g603" />
    <g
       id="g605" />
    <g
       id="g607" />
    <g
       id="g609" />
    <g
       id="g611" />
    <g
       id="g613" />
    <g
       id="g615" />
    <g
       id="g617" />
    <g
       id="g619" />
    <g
       id="g621" />
    <g
       id="g623" />
    <g
       id="g625" />
    <g
       id="g627" />
    <g
       id="g629" />
    <g
       id="g631" />
    <g
       id="g633" />
    <g
       id="g635" />
    <g
       id="g637" />
    <g
       id="g639" />
    <g
       id="g641" />
    <g
       id="g643" />
    <g
       id="g645" />
    <g
       id="g647" />
    <g
       id="g649" />
    <g
       id="g651" />
    <g
       id="g653" />
    <g
       id="g655" />
    <g
       id="g657" />
  </g>
</svg>
