%TF.GenerationSoftware,KiCad,Pcbnew,7.0.11*%
%TF.CreationDate,2024-09-10T11:05:52-04:00*%
%TF.ProjectId,prism-pcb,70726973-6d2d-4706-9362-2e6b69636164,1.3*%
%TF.SameCoordinates,Original*%
%TF.FileFunction,Drillmap*%
%TF.FilePolarity,Positive*%
%FSLAX45Y45*%
G04 Gerber Fmt 4.5, Leading zero omitted, Abs format (unit mm)*
G04 Created by KiCad (PCBNEW 7.0.11) date 2024-09-10 11:05:52*
%MOMM*%
%LPD*%
G01*
G04 APERTURE LIST*
%ADD10C,0.100000*%
%ADD11C,0.200000*%
%ADD12C,0.120000*%
%ADD13C,0.220000*%
%ADD14C,0.320000*%
G04 APERTURE END LIST*
D10*
X13240000Y-11710000D02*
X13240000Y-8610000D01*
X17240000Y-8610000D02*
X17240000Y-11710000D01*
X16790000Y-12160000D02*
G75*
G03*
X17240000Y-11710000I0J450000D01*
G01*
X17240000Y-8610000D02*
G75*
G03*
X16790000Y-8160000I-450000J0D01*
G01*
X13240000Y-11710000D02*
G75*
G03*
X13690000Y-12160000I450000J0D01*
G01*
X16790000Y-12160000D02*
X13690000Y-12160000D01*
X13690000Y-8160000D02*
G75*
G03*
X13240000Y-8610000I0J-450000D01*
G01*
X13690000Y-8160000D02*
X16790000Y-8160000D01*
D11*
D10*
X15930000Y-10350000D02*
X15950000Y-10370000D01*
X15950000Y-10350000D02*
X15930000Y-10370000D01*
X15930000Y-10450000D02*
X15950000Y-10470000D01*
X15950000Y-10450000D02*
X15930000Y-10470000D01*
X15025000Y-9935000D02*
G75*
G03*
X15005000Y-9935000I-10000J0D01*
G01*
X15005000Y-9935000D02*
G75*
G03*
X15025000Y-9935000I10000J0D01*
G01*
X15025000Y-10047500D02*
G75*
G03*
X15005000Y-10047500I-10000J0D01*
G01*
X15005000Y-10047500D02*
G75*
G03*
X15025000Y-10047500I10000J0D01*
G01*
X15025000Y-10160000D02*
G75*
G03*
X15005000Y-10160000I-10000J0D01*
G01*
X15005000Y-10160000D02*
G75*
G03*
X15025000Y-10160000I10000J0D01*
G01*
X15025000Y-10272500D02*
G75*
G03*
X15005000Y-10272500I-10000J0D01*
G01*
X15005000Y-10272500D02*
G75*
G03*
X15025000Y-10272500I10000J0D01*
G01*
X15025000Y-10385000D02*
G75*
G03*
X15005000Y-10385000I-10000J0D01*
G01*
X15005000Y-10385000D02*
G75*
G03*
X15025000Y-10385000I10000J0D01*
G01*
X15137500Y-9935000D02*
G75*
G03*
X15117500Y-9935000I-10000J0D01*
G01*
X15117500Y-9935000D02*
G75*
G03*
X15137500Y-9935000I10000J0D01*
G01*
X15137500Y-10047500D02*
G75*
G03*
X15117500Y-10047500I-10000J0D01*
G01*
X15117500Y-10047500D02*
G75*
G03*
X15137500Y-10047500I10000J0D01*
G01*
X15137500Y-10160000D02*
G75*
G03*
X15117500Y-10160000I-10000J0D01*
G01*
X15117500Y-10160000D02*
G75*
G03*
X15137500Y-10160000I10000J0D01*
G01*
X15137500Y-10272500D02*
G75*
G03*
X15117500Y-10272500I-10000J0D01*
G01*
X15117500Y-10272500D02*
G75*
G03*
X15137500Y-10272500I10000J0D01*
G01*
X15137500Y-10385000D02*
G75*
G03*
X15117500Y-10385000I-10000J0D01*
G01*
X15117500Y-10385000D02*
G75*
G03*
X15137500Y-10385000I10000J0D01*
G01*
X15250000Y-9935000D02*
G75*
G03*
X15230000Y-9935000I-10000J0D01*
G01*
X15230000Y-9935000D02*
G75*
G03*
X15250000Y-9935000I10000J0D01*
G01*
X15250000Y-10047500D02*
G75*
G03*
X15230000Y-10047500I-10000J0D01*
G01*
X15230000Y-10047500D02*
G75*
G03*
X15250000Y-10047500I10000J0D01*
G01*
X15250000Y-10160000D02*
G75*
G03*
X15230000Y-10160000I-10000J0D01*
G01*
X15230000Y-10160000D02*
G75*
G03*
X15250000Y-10160000I10000J0D01*
G01*
X15250000Y-10272500D02*
G75*
G03*
X15230000Y-10272500I-10000J0D01*
G01*
X15230000Y-10272500D02*
G75*
G03*
X15250000Y-10272500I10000J0D01*
G01*
X15250000Y-10385000D02*
G75*
G03*
X15230000Y-10385000I-10000J0D01*
G01*
X15230000Y-10385000D02*
G75*
G03*
X15250000Y-10385000I10000J0D01*
G01*
X15362500Y-9935000D02*
G75*
G03*
X15342500Y-9935000I-10000J0D01*
G01*
X15342500Y-9935000D02*
G75*
G03*
X15362500Y-9935000I10000J0D01*
G01*
X15362500Y-10047500D02*
G75*
G03*
X15342500Y-10047500I-10000J0D01*
G01*
X15342500Y-10047500D02*
G75*
G03*
X15362500Y-10047500I10000J0D01*
G01*
X15362500Y-10160000D02*
G75*
G03*
X15342500Y-10160000I-10000J0D01*
G01*
X15342500Y-10160000D02*
G75*
G03*
X15362500Y-10160000I10000J0D01*
G01*
X15362500Y-10272500D02*
G75*
G03*
X15342500Y-10272500I-10000J0D01*
G01*
X15342500Y-10272500D02*
G75*
G03*
X15362500Y-10272500I10000J0D01*
G01*
X15362500Y-10385000D02*
G75*
G03*
X15342500Y-10385000I-10000J0D01*
G01*
X15342500Y-10385000D02*
G75*
G03*
X15362500Y-10385000I10000J0D01*
G01*
X15475000Y-9935000D02*
G75*
G03*
X15455000Y-9935000I-10000J0D01*
G01*
X15455000Y-9935000D02*
G75*
G03*
X15475000Y-9935000I10000J0D01*
G01*
X15475000Y-10047500D02*
G75*
G03*
X15455000Y-10047500I-10000J0D01*
G01*
X15455000Y-10047500D02*
G75*
G03*
X15475000Y-10047500I10000J0D01*
G01*
X15475000Y-10160000D02*
G75*
G03*
X15455000Y-10160000I-10000J0D01*
G01*
X15455000Y-10160000D02*
G75*
G03*
X15475000Y-10160000I10000J0D01*
G01*
X15475000Y-10272500D02*
G75*
G03*
X15455000Y-10272500I-10000J0D01*
G01*
X15455000Y-10272500D02*
G75*
G03*
X15475000Y-10272500I10000J0D01*
G01*
X15475000Y-10385000D02*
G75*
G03*
X15455000Y-10385000I-10000J0D01*
G01*
X15455000Y-10385000D02*
G75*
G03*
X15475000Y-10385000I10000J0D01*
G01*
X14540000Y-10935000D02*
X14540000Y-10985000D01*
X14515000Y-10960000D02*
X14565000Y-10960000D01*
X14840000Y-11060000D02*
X14840000Y-11110000D01*
X14815000Y-11085000D02*
X14865000Y-11085000D01*
X15040000Y-9535000D02*
X15040000Y-9585000D01*
X15015000Y-9560000D02*
X15065000Y-9560000D01*
X15040000Y-10735000D02*
X15040000Y-10785000D01*
X15015000Y-10760000D02*
X15065000Y-10760000D01*
X15287500Y-10735000D02*
X15287500Y-10785000D01*
X15262500Y-10760000D02*
X15312500Y-10760000D01*
X15290000Y-9535000D02*
X15290000Y-9585000D01*
X15265000Y-9560000D02*
X15315000Y-9560000D01*
X15340000Y-9035000D02*
X15340000Y-9085000D01*
X15315000Y-9060000D02*
X15365000Y-9060000D01*
X15340000Y-11235000D02*
X15340000Y-11285000D01*
X15315000Y-11260000D02*
X15365000Y-11260000D01*
X16315000Y-9910000D02*
X16315000Y-9960000D01*
X16290000Y-9935000D02*
X16340000Y-9935000D01*
X16315000Y-10060000D02*
X16315000Y-10110000D01*
X16290000Y-10085000D02*
X16340000Y-10085000D01*
X16315000Y-10210000D02*
X16315000Y-10260000D01*
X16290000Y-10235000D02*
X16340000Y-10235000D01*
X16315000Y-10360000D02*
X16315000Y-10410000D01*
X16290000Y-10385000D02*
X16340000Y-10385000D01*
X14148356Y-9195356D02*
X14148356Y-9124644D01*
X14077644Y-9124644D01*
X14077644Y-9195356D01*
X14148356Y-9195356D01*
X14402356Y-9195356D02*
X14402356Y-9124644D01*
X14331644Y-9124644D01*
X14331644Y-9195356D01*
X14402356Y-9195356D01*
D12*
X13965000Y-9695000D02*
X14025000Y-9635000D01*
X13965000Y-9575000D01*
X13905000Y-9635000D01*
X13965000Y-9695000D01*
X13965000Y-10045000D02*
X14025000Y-9985000D01*
X13965000Y-9925000D01*
X13905000Y-9985000D01*
X13965000Y-10045000D01*
X13965000Y-10395000D02*
X14025000Y-10335000D01*
X13965000Y-10275000D01*
X13905000Y-10335000D01*
X13965000Y-10395000D01*
X13965000Y-10745000D02*
X14025000Y-10685000D01*
X13965000Y-10625000D01*
X13905000Y-10685000D01*
X13965000Y-10745000D01*
D13*
X14130000Y-11050000D02*
X14350000Y-11270000D01*
X14350000Y-11050000D02*
X14130000Y-11270000D01*
X14350000Y-11160000D02*
G75*
G03*
X14130000Y-11160000I-110000J0D01*
G01*
X14130000Y-11160000D02*
G75*
G03*
X14350000Y-11160000I110000J0D01*
G01*
X16130000Y-9050000D02*
X16350000Y-9270000D01*
X16350000Y-9050000D02*
X16130000Y-9270000D01*
X16350000Y-9160000D02*
G75*
G03*
X16130000Y-9160000I-110000J0D01*
G01*
X16130000Y-9160000D02*
G75*
G03*
X16350000Y-9160000I110000J0D01*
G01*
X16130000Y-11050000D02*
X16350000Y-11270000D01*
X16350000Y-11050000D02*
X16130000Y-11270000D01*
X16350000Y-11160000D02*
G75*
G03*
X16130000Y-11160000I-110000J0D01*
G01*
X16130000Y-11160000D02*
G75*
G03*
X16350000Y-11160000I110000J0D01*
G01*
D14*
X13530000Y-8450000D02*
X13850000Y-8770000D01*
X13850000Y-8450000D02*
X13530000Y-8770000D01*
X13690000Y-8450000D02*
X13690000Y-8770000D01*
X13530000Y-8610000D02*
X13850000Y-8610000D01*
X13530000Y-11550000D02*
X13850000Y-11870000D01*
X13850000Y-11550000D02*
X13530000Y-11870000D01*
X13690000Y-11550000D02*
X13690000Y-11870000D01*
X13530000Y-11710000D02*
X13850000Y-11710000D01*
X16630000Y-8450000D02*
X16950000Y-8770000D01*
X16950000Y-8450000D02*
X16630000Y-8770000D01*
X16790000Y-8450000D02*
X16790000Y-8770000D01*
X16630000Y-8610000D02*
X16950000Y-8610000D01*
X16630000Y-11550000D02*
X16950000Y-11870000D01*
X16950000Y-11550000D02*
X16630000Y-11870000D01*
X16790000Y-11550000D02*
X16790000Y-11870000D01*
X16630000Y-11710000D02*
X16950000Y-11710000D01*
D11*
X13495777Y-12476484D02*
X13495777Y-12276484D01*
X13495777Y-12276484D02*
X13543396Y-12276484D01*
X13543396Y-12276484D02*
X13571967Y-12286008D01*
X13571967Y-12286008D02*
X13591015Y-12305055D01*
X13591015Y-12305055D02*
X13600539Y-12324103D01*
X13600539Y-12324103D02*
X13610062Y-12362198D01*
X13610062Y-12362198D02*
X13610062Y-12390769D01*
X13610062Y-12390769D02*
X13600539Y-12428865D01*
X13600539Y-12428865D02*
X13591015Y-12447912D01*
X13591015Y-12447912D02*
X13571967Y-12466960D01*
X13571967Y-12466960D02*
X13543396Y-12476484D01*
X13543396Y-12476484D02*
X13495777Y-12476484D01*
X13695777Y-12476484D02*
X13695777Y-12343150D01*
X13695777Y-12381246D02*
X13705301Y-12362198D01*
X13705301Y-12362198D02*
X13714824Y-12352674D01*
X13714824Y-12352674D02*
X13733872Y-12343150D01*
X13733872Y-12343150D02*
X13752920Y-12343150D01*
X13819586Y-12476484D02*
X13819586Y-12343150D01*
X13819586Y-12276484D02*
X13810062Y-12286008D01*
X13810062Y-12286008D02*
X13819586Y-12295531D01*
X13819586Y-12295531D02*
X13829110Y-12286008D01*
X13829110Y-12286008D02*
X13819586Y-12276484D01*
X13819586Y-12276484D02*
X13819586Y-12295531D01*
X13943396Y-12476484D02*
X13924348Y-12466960D01*
X13924348Y-12466960D02*
X13914824Y-12447912D01*
X13914824Y-12447912D02*
X13914824Y-12276484D01*
X14048158Y-12476484D02*
X14029110Y-12466960D01*
X14029110Y-12466960D02*
X14019586Y-12447912D01*
X14019586Y-12447912D02*
X14019586Y-12276484D01*
X14276729Y-12476484D02*
X14276729Y-12276484D01*
X14276729Y-12276484D02*
X14343396Y-12419341D01*
X14343396Y-12419341D02*
X14410062Y-12276484D01*
X14410062Y-12276484D02*
X14410062Y-12476484D01*
X14591015Y-12476484D02*
X14591015Y-12371722D01*
X14591015Y-12371722D02*
X14581491Y-12352674D01*
X14581491Y-12352674D02*
X14562443Y-12343150D01*
X14562443Y-12343150D02*
X14524348Y-12343150D01*
X14524348Y-12343150D02*
X14505301Y-12352674D01*
X14591015Y-12466960D02*
X14571967Y-12476484D01*
X14571967Y-12476484D02*
X14524348Y-12476484D01*
X14524348Y-12476484D02*
X14505301Y-12466960D01*
X14505301Y-12466960D02*
X14495777Y-12447912D01*
X14495777Y-12447912D02*
X14495777Y-12428865D01*
X14495777Y-12428865D02*
X14505301Y-12409817D01*
X14505301Y-12409817D02*
X14524348Y-12400293D01*
X14524348Y-12400293D02*
X14571967Y-12400293D01*
X14571967Y-12400293D02*
X14591015Y-12390769D01*
X14686253Y-12343150D02*
X14686253Y-12543150D01*
X14686253Y-12352674D02*
X14705301Y-12343150D01*
X14705301Y-12343150D02*
X14743396Y-12343150D01*
X14743396Y-12343150D02*
X14762443Y-12352674D01*
X14762443Y-12352674D02*
X14771967Y-12362198D01*
X14771967Y-12362198D02*
X14781491Y-12381246D01*
X14781491Y-12381246D02*
X14781491Y-12438388D01*
X14781491Y-12438388D02*
X14771967Y-12457436D01*
X14771967Y-12457436D02*
X14762443Y-12466960D01*
X14762443Y-12466960D02*
X14743396Y-12476484D01*
X14743396Y-12476484D02*
X14705301Y-12476484D01*
X14705301Y-12476484D02*
X14686253Y-12466960D01*
X14867205Y-12457436D02*
X14876729Y-12466960D01*
X14876729Y-12466960D02*
X14867205Y-12476484D01*
X14867205Y-12476484D02*
X14857682Y-12466960D01*
X14857682Y-12466960D02*
X14867205Y-12457436D01*
X14867205Y-12457436D02*
X14867205Y-12476484D01*
X14867205Y-12352674D02*
X14876729Y-12362198D01*
X14876729Y-12362198D02*
X14867205Y-12371722D01*
X14867205Y-12371722D02*
X14857682Y-12362198D01*
X14857682Y-12362198D02*
X14867205Y-12352674D01*
X14867205Y-12352674D02*
X14867205Y-12371722D01*
D10*
X13215000Y-12795000D02*
X13235000Y-12815000D01*
X13235000Y-12795000D02*
X13215000Y-12815000D01*
D11*
X13533872Y-12696484D02*
X13552920Y-12696484D01*
X13552920Y-12696484D02*
X13571967Y-12706008D01*
X13571967Y-12706008D02*
X13581491Y-12715531D01*
X13581491Y-12715531D02*
X13591015Y-12734579D01*
X13591015Y-12734579D02*
X13600539Y-12772674D01*
X13600539Y-12772674D02*
X13600539Y-12820293D01*
X13600539Y-12820293D02*
X13591015Y-12858388D01*
X13591015Y-12858388D02*
X13581491Y-12877436D01*
X13581491Y-12877436D02*
X13571967Y-12886960D01*
X13571967Y-12886960D02*
X13552920Y-12896484D01*
X13552920Y-12896484D02*
X13533872Y-12896484D01*
X13533872Y-12896484D02*
X13514824Y-12886960D01*
X13514824Y-12886960D02*
X13505301Y-12877436D01*
X13505301Y-12877436D02*
X13495777Y-12858388D01*
X13495777Y-12858388D02*
X13486253Y-12820293D01*
X13486253Y-12820293D02*
X13486253Y-12772674D01*
X13486253Y-12772674D02*
X13495777Y-12734579D01*
X13495777Y-12734579D02*
X13505301Y-12715531D01*
X13505301Y-12715531D02*
X13514824Y-12706008D01*
X13514824Y-12706008D02*
X13533872Y-12696484D01*
X13686253Y-12877436D02*
X13695777Y-12886960D01*
X13695777Y-12886960D02*
X13686253Y-12896484D01*
X13686253Y-12896484D02*
X13676729Y-12886960D01*
X13676729Y-12886960D02*
X13686253Y-12877436D01*
X13686253Y-12877436D02*
X13686253Y-12896484D01*
X13771967Y-12715531D02*
X13781491Y-12706008D01*
X13781491Y-12706008D02*
X13800539Y-12696484D01*
X13800539Y-12696484D02*
X13848158Y-12696484D01*
X13848158Y-12696484D02*
X13867205Y-12706008D01*
X13867205Y-12706008D02*
X13876729Y-12715531D01*
X13876729Y-12715531D02*
X13886253Y-12734579D01*
X13886253Y-12734579D02*
X13886253Y-12753627D01*
X13886253Y-12753627D02*
X13876729Y-12782198D01*
X13876729Y-12782198D02*
X13762443Y-12896484D01*
X13762443Y-12896484D02*
X13886253Y-12896484D01*
X14010062Y-12696484D02*
X14029110Y-12696484D01*
X14029110Y-12696484D02*
X14048158Y-12706008D01*
X14048158Y-12706008D02*
X14057682Y-12715531D01*
X14057682Y-12715531D02*
X14067205Y-12734579D01*
X14067205Y-12734579D02*
X14076729Y-12772674D01*
X14076729Y-12772674D02*
X14076729Y-12820293D01*
X14076729Y-12820293D02*
X14067205Y-12858388D01*
X14067205Y-12858388D02*
X14057682Y-12877436D01*
X14057682Y-12877436D02*
X14048158Y-12886960D01*
X14048158Y-12886960D02*
X14029110Y-12896484D01*
X14029110Y-12896484D02*
X14010062Y-12896484D01*
X14010062Y-12896484D02*
X13991015Y-12886960D01*
X13991015Y-12886960D02*
X13981491Y-12877436D01*
X13981491Y-12877436D02*
X13971967Y-12858388D01*
X13971967Y-12858388D02*
X13962443Y-12820293D01*
X13962443Y-12820293D02*
X13962443Y-12772674D01*
X13962443Y-12772674D02*
X13971967Y-12734579D01*
X13971967Y-12734579D02*
X13981491Y-12715531D01*
X13981491Y-12715531D02*
X13991015Y-12706008D01*
X13991015Y-12706008D02*
X14010062Y-12696484D01*
X14200539Y-12696484D02*
X14219586Y-12696484D01*
X14219586Y-12696484D02*
X14238634Y-12706008D01*
X14238634Y-12706008D02*
X14248158Y-12715531D01*
X14248158Y-12715531D02*
X14257682Y-12734579D01*
X14257682Y-12734579D02*
X14267205Y-12772674D01*
X14267205Y-12772674D02*
X14267205Y-12820293D01*
X14267205Y-12820293D02*
X14257682Y-12858388D01*
X14257682Y-12858388D02*
X14248158Y-12877436D01*
X14248158Y-12877436D02*
X14238634Y-12886960D01*
X14238634Y-12886960D02*
X14219586Y-12896484D01*
X14219586Y-12896484D02*
X14200539Y-12896484D01*
X14200539Y-12896484D02*
X14181491Y-12886960D01*
X14181491Y-12886960D02*
X14171967Y-12877436D01*
X14171967Y-12877436D02*
X14162443Y-12858388D01*
X14162443Y-12858388D02*
X14152920Y-12820293D01*
X14152920Y-12820293D02*
X14152920Y-12772674D01*
X14152920Y-12772674D02*
X14162443Y-12734579D01*
X14162443Y-12734579D02*
X14171967Y-12715531D01*
X14171967Y-12715531D02*
X14181491Y-12706008D01*
X14181491Y-12706008D02*
X14200539Y-12696484D01*
X14352920Y-12896484D02*
X14352920Y-12763150D01*
X14352920Y-12782198D02*
X14362443Y-12772674D01*
X14362443Y-12772674D02*
X14381491Y-12763150D01*
X14381491Y-12763150D02*
X14410063Y-12763150D01*
X14410063Y-12763150D02*
X14429110Y-12772674D01*
X14429110Y-12772674D02*
X14438634Y-12791722D01*
X14438634Y-12791722D02*
X14438634Y-12896484D01*
X14438634Y-12791722D02*
X14448158Y-12772674D01*
X14448158Y-12772674D02*
X14467205Y-12763150D01*
X14467205Y-12763150D02*
X14495777Y-12763150D01*
X14495777Y-12763150D02*
X14514824Y-12772674D01*
X14514824Y-12772674D02*
X14524348Y-12791722D01*
X14524348Y-12791722D02*
X14524348Y-12896484D01*
X14619586Y-12896484D02*
X14619586Y-12763150D01*
X14619586Y-12782198D02*
X14629110Y-12772674D01*
X14629110Y-12772674D02*
X14648158Y-12763150D01*
X14648158Y-12763150D02*
X14676729Y-12763150D01*
X14676729Y-12763150D02*
X14695777Y-12772674D01*
X14695777Y-12772674D02*
X14705301Y-12791722D01*
X14705301Y-12791722D02*
X14705301Y-12896484D01*
X14705301Y-12791722D02*
X14714824Y-12772674D01*
X14714824Y-12772674D02*
X14733872Y-12763150D01*
X14733872Y-12763150D02*
X14762443Y-12763150D01*
X14762443Y-12763150D02*
X14781491Y-12772674D01*
X14781491Y-12772674D02*
X14791015Y-12791722D01*
X14791015Y-12791722D02*
X14791015Y-12896484D01*
X15181491Y-12686960D02*
X15010063Y-12944103D01*
X15438634Y-12696484D02*
X15457682Y-12696484D01*
X15457682Y-12696484D02*
X15476729Y-12706008D01*
X15476729Y-12706008D02*
X15486253Y-12715531D01*
X15486253Y-12715531D02*
X15495777Y-12734579D01*
X15495777Y-12734579D02*
X15505301Y-12772674D01*
X15505301Y-12772674D02*
X15505301Y-12820293D01*
X15505301Y-12820293D02*
X15495777Y-12858388D01*
X15495777Y-12858388D02*
X15486253Y-12877436D01*
X15486253Y-12877436D02*
X15476729Y-12886960D01*
X15476729Y-12886960D02*
X15457682Y-12896484D01*
X15457682Y-12896484D02*
X15438634Y-12896484D01*
X15438634Y-12896484D02*
X15419586Y-12886960D01*
X15419586Y-12886960D02*
X15410063Y-12877436D01*
X15410063Y-12877436D02*
X15400539Y-12858388D01*
X15400539Y-12858388D02*
X15391015Y-12820293D01*
X15391015Y-12820293D02*
X15391015Y-12772674D01*
X15391015Y-12772674D02*
X15400539Y-12734579D01*
X15400539Y-12734579D02*
X15410063Y-12715531D01*
X15410063Y-12715531D02*
X15419586Y-12706008D01*
X15419586Y-12706008D02*
X15438634Y-12696484D01*
X15591015Y-12877436D02*
X15600539Y-12886960D01*
X15600539Y-12886960D02*
X15591015Y-12896484D01*
X15591015Y-12896484D02*
X15581491Y-12886960D01*
X15581491Y-12886960D02*
X15591015Y-12877436D01*
X15591015Y-12877436D02*
X15591015Y-12896484D01*
X15724348Y-12696484D02*
X15743396Y-12696484D01*
X15743396Y-12696484D02*
X15762444Y-12706008D01*
X15762444Y-12706008D02*
X15771967Y-12715531D01*
X15771967Y-12715531D02*
X15781491Y-12734579D01*
X15781491Y-12734579D02*
X15791015Y-12772674D01*
X15791015Y-12772674D02*
X15791015Y-12820293D01*
X15791015Y-12820293D02*
X15781491Y-12858388D01*
X15781491Y-12858388D02*
X15771967Y-12877436D01*
X15771967Y-12877436D02*
X15762444Y-12886960D01*
X15762444Y-12886960D02*
X15743396Y-12896484D01*
X15743396Y-12896484D02*
X15724348Y-12896484D01*
X15724348Y-12896484D02*
X15705301Y-12886960D01*
X15705301Y-12886960D02*
X15695777Y-12877436D01*
X15695777Y-12877436D02*
X15686253Y-12858388D01*
X15686253Y-12858388D02*
X15676729Y-12820293D01*
X15676729Y-12820293D02*
X15676729Y-12772674D01*
X15676729Y-12772674D02*
X15686253Y-12734579D01*
X15686253Y-12734579D02*
X15695777Y-12715531D01*
X15695777Y-12715531D02*
X15705301Y-12706008D01*
X15705301Y-12706008D02*
X15724348Y-12696484D01*
X15914825Y-12696484D02*
X15933872Y-12696484D01*
X15933872Y-12696484D02*
X15952920Y-12706008D01*
X15952920Y-12706008D02*
X15962444Y-12715531D01*
X15962444Y-12715531D02*
X15971967Y-12734579D01*
X15971967Y-12734579D02*
X15981491Y-12772674D01*
X15981491Y-12772674D02*
X15981491Y-12820293D01*
X15981491Y-12820293D02*
X15971967Y-12858388D01*
X15971967Y-12858388D02*
X15962444Y-12877436D01*
X15962444Y-12877436D02*
X15952920Y-12886960D01*
X15952920Y-12886960D02*
X15933872Y-12896484D01*
X15933872Y-12896484D02*
X15914825Y-12896484D01*
X15914825Y-12896484D02*
X15895777Y-12886960D01*
X15895777Y-12886960D02*
X15886253Y-12877436D01*
X15886253Y-12877436D02*
X15876729Y-12858388D01*
X15876729Y-12858388D02*
X15867206Y-12820293D01*
X15867206Y-12820293D02*
X15867206Y-12772674D01*
X15867206Y-12772674D02*
X15876729Y-12734579D01*
X15876729Y-12734579D02*
X15886253Y-12715531D01*
X15886253Y-12715531D02*
X15895777Y-12706008D01*
X15895777Y-12706008D02*
X15914825Y-12696484D01*
X16048158Y-12696484D02*
X16181491Y-12696484D01*
X16181491Y-12696484D02*
X16095777Y-12896484D01*
X16267206Y-12896484D02*
X16305301Y-12896484D01*
X16305301Y-12896484D02*
X16324348Y-12886960D01*
X16324348Y-12886960D02*
X16333872Y-12877436D01*
X16333872Y-12877436D02*
X16352920Y-12848865D01*
X16352920Y-12848865D02*
X16362444Y-12810769D01*
X16362444Y-12810769D02*
X16362444Y-12734579D01*
X16362444Y-12734579D02*
X16352920Y-12715531D01*
X16352920Y-12715531D02*
X16343396Y-12706008D01*
X16343396Y-12706008D02*
X16324348Y-12696484D01*
X16324348Y-12696484D02*
X16286253Y-12696484D01*
X16286253Y-12696484D02*
X16267206Y-12706008D01*
X16267206Y-12706008D02*
X16257682Y-12715531D01*
X16257682Y-12715531D02*
X16248158Y-12734579D01*
X16248158Y-12734579D02*
X16248158Y-12782198D01*
X16248158Y-12782198D02*
X16257682Y-12801246D01*
X16257682Y-12801246D02*
X16267206Y-12810769D01*
X16267206Y-12810769D02*
X16286253Y-12820293D01*
X16286253Y-12820293D02*
X16324348Y-12820293D01*
X16324348Y-12820293D02*
X16343396Y-12810769D01*
X16343396Y-12810769D02*
X16352920Y-12801246D01*
X16352920Y-12801246D02*
X16362444Y-12782198D01*
X16438634Y-12696484D02*
X16438634Y-12734579D01*
X16514825Y-12696484D02*
X16514825Y-12734579D01*
X16810063Y-12972674D02*
X16800539Y-12963150D01*
X16800539Y-12963150D02*
X16781491Y-12934579D01*
X16781491Y-12934579D02*
X16771968Y-12915531D01*
X16771968Y-12915531D02*
X16762444Y-12886960D01*
X16762444Y-12886960D02*
X16752920Y-12839341D01*
X16752920Y-12839341D02*
X16752920Y-12801246D01*
X16752920Y-12801246D02*
X16762444Y-12753627D01*
X16762444Y-12753627D02*
X16771968Y-12725055D01*
X16771968Y-12725055D02*
X16781491Y-12706008D01*
X16781491Y-12706008D02*
X16800539Y-12677436D01*
X16800539Y-12677436D02*
X16810063Y-12667912D01*
X16876730Y-12715531D02*
X16886253Y-12706008D01*
X16886253Y-12706008D02*
X16905301Y-12696484D01*
X16905301Y-12696484D02*
X16952920Y-12696484D01*
X16952920Y-12696484D02*
X16971968Y-12706008D01*
X16971968Y-12706008D02*
X16981491Y-12715531D01*
X16981491Y-12715531D02*
X16991015Y-12734579D01*
X16991015Y-12734579D02*
X16991015Y-12753627D01*
X16991015Y-12753627D02*
X16981491Y-12782198D01*
X16981491Y-12782198D02*
X16867206Y-12896484D01*
X16867206Y-12896484D02*
X16991015Y-12896484D01*
X17229111Y-12896484D02*
X17229111Y-12696484D01*
X17314825Y-12896484D02*
X17314825Y-12791722D01*
X17314825Y-12791722D02*
X17305301Y-12772674D01*
X17305301Y-12772674D02*
X17286253Y-12763150D01*
X17286253Y-12763150D02*
X17257682Y-12763150D01*
X17257682Y-12763150D02*
X17238634Y-12772674D01*
X17238634Y-12772674D02*
X17229111Y-12782198D01*
X17438634Y-12896484D02*
X17419587Y-12886960D01*
X17419587Y-12886960D02*
X17410063Y-12877436D01*
X17410063Y-12877436D02*
X17400539Y-12858388D01*
X17400539Y-12858388D02*
X17400539Y-12801246D01*
X17400539Y-12801246D02*
X17410063Y-12782198D01*
X17410063Y-12782198D02*
X17419587Y-12772674D01*
X17419587Y-12772674D02*
X17438634Y-12763150D01*
X17438634Y-12763150D02*
X17467206Y-12763150D01*
X17467206Y-12763150D02*
X17486253Y-12772674D01*
X17486253Y-12772674D02*
X17495777Y-12782198D01*
X17495777Y-12782198D02*
X17505301Y-12801246D01*
X17505301Y-12801246D02*
X17505301Y-12858388D01*
X17505301Y-12858388D02*
X17495777Y-12877436D01*
X17495777Y-12877436D02*
X17486253Y-12886960D01*
X17486253Y-12886960D02*
X17467206Y-12896484D01*
X17467206Y-12896484D02*
X17438634Y-12896484D01*
X17619587Y-12896484D02*
X17600539Y-12886960D01*
X17600539Y-12886960D02*
X17591015Y-12867912D01*
X17591015Y-12867912D02*
X17591015Y-12696484D01*
X17771968Y-12886960D02*
X17752920Y-12896484D01*
X17752920Y-12896484D02*
X17714825Y-12896484D01*
X17714825Y-12896484D02*
X17695777Y-12886960D01*
X17695777Y-12886960D02*
X17686253Y-12867912D01*
X17686253Y-12867912D02*
X17686253Y-12791722D01*
X17686253Y-12791722D02*
X17695777Y-12772674D01*
X17695777Y-12772674D02*
X17714825Y-12763150D01*
X17714825Y-12763150D02*
X17752920Y-12763150D01*
X17752920Y-12763150D02*
X17771968Y-12772674D01*
X17771968Y-12772674D02*
X17781492Y-12791722D01*
X17781492Y-12791722D02*
X17781492Y-12810769D01*
X17781492Y-12810769D02*
X17686253Y-12829817D01*
X17857682Y-12886960D02*
X17876730Y-12896484D01*
X17876730Y-12896484D02*
X17914825Y-12896484D01*
X17914825Y-12896484D02*
X17933873Y-12886960D01*
X17933873Y-12886960D02*
X17943396Y-12867912D01*
X17943396Y-12867912D02*
X17943396Y-12858388D01*
X17943396Y-12858388D02*
X17933873Y-12839341D01*
X17933873Y-12839341D02*
X17914825Y-12829817D01*
X17914825Y-12829817D02*
X17886253Y-12829817D01*
X17886253Y-12829817D02*
X17867206Y-12820293D01*
X17867206Y-12820293D02*
X17857682Y-12801246D01*
X17857682Y-12801246D02*
X17857682Y-12791722D01*
X17857682Y-12791722D02*
X17867206Y-12772674D01*
X17867206Y-12772674D02*
X17886253Y-12763150D01*
X17886253Y-12763150D02*
X17914825Y-12763150D01*
X17914825Y-12763150D02*
X17933873Y-12772674D01*
X18010063Y-12972674D02*
X18019587Y-12963150D01*
X18019587Y-12963150D02*
X18038634Y-12934579D01*
X18038634Y-12934579D02*
X18048158Y-12915531D01*
X18048158Y-12915531D02*
X18057682Y-12886960D01*
X18057682Y-12886960D02*
X18067206Y-12839341D01*
X18067206Y-12839341D02*
X18067206Y-12801246D01*
X18067206Y-12801246D02*
X18057682Y-12753627D01*
X18057682Y-12753627D02*
X18048158Y-12725055D01*
X18048158Y-12725055D02*
X18038634Y-12706008D01*
X18038634Y-12706008D02*
X18019587Y-12677436D01*
X18019587Y-12677436D02*
X18010063Y-12667912D01*
D10*
X13235000Y-13069000D02*
G75*
G03*
X13215000Y-13069000I-10000J0D01*
G01*
X13215000Y-13069000D02*
G75*
G03*
X13235000Y-13069000I10000J0D01*
G01*
D11*
X13533872Y-12960484D02*
X13552920Y-12960484D01*
X13552920Y-12960484D02*
X13571967Y-12970008D01*
X13571967Y-12970008D02*
X13581491Y-12979531D01*
X13581491Y-12979531D02*
X13591015Y-12998579D01*
X13591015Y-12998579D02*
X13600539Y-13036674D01*
X13600539Y-13036674D02*
X13600539Y-13084293D01*
X13600539Y-13084293D02*
X13591015Y-13122388D01*
X13591015Y-13122388D02*
X13581491Y-13141436D01*
X13581491Y-13141436D02*
X13571967Y-13150960D01*
X13571967Y-13150960D02*
X13552920Y-13160484D01*
X13552920Y-13160484D02*
X13533872Y-13160484D01*
X13533872Y-13160484D02*
X13514824Y-13150960D01*
X13514824Y-13150960D02*
X13505301Y-13141436D01*
X13505301Y-13141436D02*
X13495777Y-13122388D01*
X13495777Y-13122388D02*
X13486253Y-13084293D01*
X13486253Y-13084293D02*
X13486253Y-13036674D01*
X13486253Y-13036674D02*
X13495777Y-12998579D01*
X13495777Y-12998579D02*
X13505301Y-12979531D01*
X13505301Y-12979531D02*
X13514824Y-12970008D01*
X13514824Y-12970008D02*
X13533872Y-12960484D01*
X13686253Y-13141436D02*
X13695777Y-13150960D01*
X13695777Y-13150960D02*
X13686253Y-13160484D01*
X13686253Y-13160484D02*
X13676729Y-13150960D01*
X13676729Y-13150960D02*
X13686253Y-13141436D01*
X13686253Y-13141436D02*
X13686253Y-13160484D01*
X13771967Y-12979531D02*
X13781491Y-12970008D01*
X13781491Y-12970008D02*
X13800539Y-12960484D01*
X13800539Y-12960484D02*
X13848158Y-12960484D01*
X13848158Y-12960484D02*
X13867205Y-12970008D01*
X13867205Y-12970008D02*
X13876729Y-12979531D01*
X13876729Y-12979531D02*
X13886253Y-12998579D01*
X13886253Y-12998579D02*
X13886253Y-13017627D01*
X13886253Y-13017627D02*
X13876729Y-13046198D01*
X13876729Y-13046198D02*
X13762443Y-13160484D01*
X13762443Y-13160484D02*
X13886253Y-13160484D01*
X14010062Y-12960484D02*
X14029110Y-12960484D01*
X14029110Y-12960484D02*
X14048158Y-12970008D01*
X14048158Y-12970008D02*
X14057682Y-12979531D01*
X14057682Y-12979531D02*
X14067205Y-12998579D01*
X14067205Y-12998579D02*
X14076729Y-13036674D01*
X14076729Y-13036674D02*
X14076729Y-13084293D01*
X14076729Y-13084293D02*
X14067205Y-13122388D01*
X14067205Y-13122388D02*
X14057682Y-13141436D01*
X14057682Y-13141436D02*
X14048158Y-13150960D01*
X14048158Y-13150960D02*
X14029110Y-13160484D01*
X14029110Y-13160484D02*
X14010062Y-13160484D01*
X14010062Y-13160484D02*
X13991015Y-13150960D01*
X13991015Y-13150960D02*
X13981491Y-13141436D01*
X13981491Y-13141436D02*
X13971967Y-13122388D01*
X13971967Y-13122388D02*
X13962443Y-13084293D01*
X13962443Y-13084293D02*
X13962443Y-13036674D01*
X13962443Y-13036674D02*
X13971967Y-12998579D01*
X13971967Y-12998579D02*
X13981491Y-12979531D01*
X13981491Y-12979531D02*
X13991015Y-12970008D01*
X13991015Y-12970008D02*
X14010062Y-12960484D01*
X14200539Y-12960484D02*
X14219586Y-12960484D01*
X14219586Y-12960484D02*
X14238634Y-12970008D01*
X14238634Y-12970008D02*
X14248158Y-12979531D01*
X14248158Y-12979531D02*
X14257682Y-12998579D01*
X14257682Y-12998579D02*
X14267205Y-13036674D01*
X14267205Y-13036674D02*
X14267205Y-13084293D01*
X14267205Y-13084293D02*
X14257682Y-13122388D01*
X14257682Y-13122388D02*
X14248158Y-13141436D01*
X14248158Y-13141436D02*
X14238634Y-13150960D01*
X14238634Y-13150960D02*
X14219586Y-13160484D01*
X14219586Y-13160484D02*
X14200539Y-13160484D01*
X14200539Y-13160484D02*
X14181491Y-13150960D01*
X14181491Y-13150960D02*
X14171967Y-13141436D01*
X14171967Y-13141436D02*
X14162443Y-13122388D01*
X14162443Y-13122388D02*
X14152920Y-13084293D01*
X14152920Y-13084293D02*
X14152920Y-13036674D01*
X14152920Y-13036674D02*
X14162443Y-12998579D01*
X14162443Y-12998579D02*
X14171967Y-12979531D01*
X14171967Y-12979531D02*
X14181491Y-12970008D01*
X14181491Y-12970008D02*
X14200539Y-12960484D01*
X14352920Y-13160484D02*
X14352920Y-13027150D01*
X14352920Y-13046198D02*
X14362443Y-13036674D01*
X14362443Y-13036674D02*
X14381491Y-13027150D01*
X14381491Y-13027150D02*
X14410063Y-13027150D01*
X14410063Y-13027150D02*
X14429110Y-13036674D01*
X14429110Y-13036674D02*
X14438634Y-13055722D01*
X14438634Y-13055722D02*
X14438634Y-13160484D01*
X14438634Y-13055722D02*
X14448158Y-13036674D01*
X14448158Y-13036674D02*
X14467205Y-13027150D01*
X14467205Y-13027150D02*
X14495777Y-13027150D01*
X14495777Y-13027150D02*
X14514824Y-13036674D01*
X14514824Y-13036674D02*
X14524348Y-13055722D01*
X14524348Y-13055722D02*
X14524348Y-13160484D01*
X14619586Y-13160484D02*
X14619586Y-13027150D01*
X14619586Y-13046198D02*
X14629110Y-13036674D01*
X14629110Y-13036674D02*
X14648158Y-13027150D01*
X14648158Y-13027150D02*
X14676729Y-13027150D01*
X14676729Y-13027150D02*
X14695777Y-13036674D01*
X14695777Y-13036674D02*
X14705301Y-13055722D01*
X14705301Y-13055722D02*
X14705301Y-13160484D01*
X14705301Y-13055722D02*
X14714824Y-13036674D01*
X14714824Y-13036674D02*
X14733872Y-13027150D01*
X14733872Y-13027150D02*
X14762443Y-13027150D01*
X14762443Y-13027150D02*
X14781491Y-13036674D01*
X14781491Y-13036674D02*
X14791015Y-13055722D01*
X14791015Y-13055722D02*
X14791015Y-13160484D01*
X15181491Y-12950960D02*
X15010063Y-13208103D01*
X15438634Y-12960484D02*
X15457682Y-12960484D01*
X15457682Y-12960484D02*
X15476729Y-12970008D01*
X15476729Y-12970008D02*
X15486253Y-12979531D01*
X15486253Y-12979531D02*
X15495777Y-12998579D01*
X15495777Y-12998579D02*
X15505301Y-13036674D01*
X15505301Y-13036674D02*
X15505301Y-13084293D01*
X15505301Y-13084293D02*
X15495777Y-13122388D01*
X15495777Y-13122388D02*
X15486253Y-13141436D01*
X15486253Y-13141436D02*
X15476729Y-13150960D01*
X15476729Y-13150960D02*
X15457682Y-13160484D01*
X15457682Y-13160484D02*
X15438634Y-13160484D01*
X15438634Y-13160484D02*
X15419586Y-13150960D01*
X15419586Y-13150960D02*
X15410063Y-13141436D01*
X15410063Y-13141436D02*
X15400539Y-13122388D01*
X15400539Y-13122388D02*
X15391015Y-13084293D01*
X15391015Y-13084293D02*
X15391015Y-13036674D01*
X15391015Y-13036674D02*
X15400539Y-12998579D01*
X15400539Y-12998579D02*
X15410063Y-12979531D01*
X15410063Y-12979531D02*
X15419586Y-12970008D01*
X15419586Y-12970008D02*
X15438634Y-12960484D01*
X15591015Y-13141436D02*
X15600539Y-13150960D01*
X15600539Y-13150960D02*
X15591015Y-13160484D01*
X15591015Y-13160484D02*
X15581491Y-13150960D01*
X15581491Y-13150960D02*
X15591015Y-13141436D01*
X15591015Y-13141436D02*
X15591015Y-13160484D01*
X15724348Y-12960484D02*
X15743396Y-12960484D01*
X15743396Y-12960484D02*
X15762444Y-12970008D01*
X15762444Y-12970008D02*
X15771967Y-12979531D01*
X15771967Y-12979531D02*
X15781491Y-12998579D01*
X15781491Y-12998579D02*
X15791015Y-13036674D01*
X15791015Y-13036674D02*
X15791015Y-13084293D01*
X15791015Y-13084293D02*
X15781491Y-13122388D01*
X15781491Y-13122388D02*
X15771967Y-13141436D01*
X15771967Y-13141436D02*
X15762444Y-13150960D01*
X15762444Y-13150960D02*
X15743396Y-13160484D01*
X15743396Y-13160484D02*
X15724348Y-13160484D01*
X15724348Y-13160484D02*
X15705301Y-13150960D01*
X15705301Y-13150960D02*
X15695777Y-13141436D01*
X15695777Y-13141436D02*
X15686253Y-13122388D01*
X15686253Y-13122388D02*
X15676729Y-13084293D01*
X15676729Y-13084293D02*
X15676729Y-13036674D01*
X15676729Y-13036674D02*
X15686253Y-12998579D01*
X15686253Y-12998579D02*
X15695777Y-12979531D01*
X15695777Y-12979531D02*
X15705301Y-12970008D01*
X15705301Y-12970008D02*
X15724348Y-12960484D01*
X15914825Y-12960484D02*
X15933872Y-12960484D01*
X15933872Y-12960484D02*
X15952920Y-12970008D01*
X15952920Y-12970008D02*
X15962444Y-12979531D01*
X15962444Y-12979531D02*
X15971967Y-12998579D01*
X15971967Y-12998579D02*
X15981491Y-13036674D01*
X15981491Y-13036674D02*
X15981491Y-13084293D01*
X15981491Y-13084293D02*
X15971967Y-13122388D01*
X15971967Y-13122388D02*
X15962444Y-13141436D01*
X15962444Y-13141436D02*
X15952920Y-13150960D01*
X15952920Y-13150960D02*
X15933872Y-13160484D01*
X15933872Y-13160484D02*
X15914825Y-13160484D01*
X15914825Y-13160484D02*
X15895777Y-13150960D01*
X15895777Y-13150960D02*
X15886253Y-13141436D01*
X15886253Y-13141436D02*
X15876729Y-13122388D01*
X15876729Y-13122388D02*
X15867206Y-13084293D01*
X15867206Y-13084293D02*
X15867206Y-13036674D01*
X15867206Y-13036674D02*
X15876729Y-12998579D01*
X15876729Y-12998579D02*
X15886253Y-12979531D01*
X15886253Y-12979531D02*
X15895777Y-12970008D01*
X15895777Y-12970008D02*
X15914825Y-12960484D01*
X16048158Y-12960484D02*
X16181491Y-12960484D01*
X16181491Y-12960484D02*
X16095777Y-13160484D01*
X16267206Y-13160484D02*
X16305301Y-13160484D01*
X16305301Y-13160484D02*
X16324348Y-13150960D01*
X16324348Y-13150960D02*
X16333872Y-13141436D01*
X16333872Y-13141436D02*
X16352920Y-13112865D01*
X16352920Y-13112865D02*
X16362444Y-13074769D01*
X16362444Y-13074769D02*
X16362444Y-12998579D01*
X16362444Y-12998579D02*
X16352920Y-12979531D01*
X16352920Y-12979531D02*
X16343396Y-12970008D01*
X16343396Y-12970008D02*
X16324348Y-12960484D01*
X16324348Y-12960484D02*
X16286253Y-12960484D01*
X16286253Y-12960484D02*
X16267206Y-12970008D01*
X16267206Y-12970008D02*
X16257682Y-12979531D01*
X16257682Y-12979531D02*
X16248158Y-12998579D01*
X16248158Y-12998579D02*
X16248158Y-13046198D01*
X16248158Y-13046198D02*
X16257682Y-13065246D01*
X16257682Y-13065246D02*
X16267206Y-13074769D01*
X16267206Y-13074769D02*
X16286253Y-13084293D01*
X16286253Y-13084293D02*
X16324348Y-13084293D01*
X16324348Y-13084293D02*
X16343396Y-13074769D01*
X16343396Y-13074769D02*
X16352920Y-13065246D01*
X16352920Y-13065246D02*
X16362444Y-13046198D01*
X16438634Y-12960484D02*
X16438634Y-12998579D01*
X16514825Y-12960484D02*
X16514825Y-12998579D01*
X16810063Y-13236674D02*
X16800539Y-13227150D01*
X16800539Y-13227150D02*
X16781491Y-13198579D01*
X16781491Y-13198579D02*
X16771968Y-13179531D01*
X16771968Y-13179531D02*
X16762444Y-13150960D01*
X16762444Y-13150960D02*
X16752920Y-13103341D01*
X16752920Y-13103341D02*
X16752920Y-13065246D01*
X16752920Y-13065246D02*
X16762444Y-13017627D01*
X16762444Y-13017627D02*
X16771968Y-12989055D01*
X16771968Y-12989055D02*
X16781491Y-12970008D01*
X16781491Y-12970008D02*
X16800539Y-12941436D01*
X16800539Y-12941436D02*
X16810063Y-12931912D01*
X16876730Y-12979531D02*
X16886253Y-12970008D01*
X16886253Y-12970008D02*
X16905301Y-12960484D01*
X16905301Y-12960484D02*
X16952920Y-12960484D01*
X16952920Y-12960484D02*
X16971968Y-12970008D01*
X16971968Y-12970008D02*
X16981491Y-12979531D01*
X16981491Y-12979531D02*
X16991015Y-12998579D01*
X16991015Y-12998579D02*
X16991015Y-13017627D01*
X16991015Y-13017627D02*
X16981491Y-13046198D01*
X16981491Y-13046198D02*
X16867206Y-13160484D01*
X16867206Y-13160484D02*
X16991015Y-13160484D01*
X17171968Y-12960484D02*
X17076730Y-12960484D01*
X17076730Y-12960484D02*
X17067206Y-13055722D01*
X17067206Y-13055722D02*
X17076730Y-13046198D01*
X17076730Y-13046198D02*
X17095777Y-13036674D01*
X17095777Y-13036674D02*
X17143396Y-13036674D01*
X17143396Y-13036674D02*
X17162444Y-13046198D01*
X17162444Y-13046198D02*
X17171968Y-13055722D01*
X17171968Y-13055722D02*
X17181491Y-13074769D01*
X17181491Y-13074769D02*
X17181491Y-13122388D01*
X17181491Y-13122388D02*
X17171968Y-13141436D01*
X17171968Y-13141436D02*
X17162444Y-13150960D01*
X17162444Y-13150960D02*
X17143396Y-13160484D01*
X17143396Y-13160484D02*
X17095777Y-13160484D01*
X17095777Y-13160484D02*
X17076730Y-13150960D01*
X17076730Y-13150960D02*
X17067206Y-13141436D01*
X17419587Y-13160484D02*
X17419587Y-12960484D01*
X17505301Y-13160484D02*
X17505301Y-13055722D01*
X17505301Y-13055722D02*
X17495777Y-13036674D01*
X17495777Y-13036674D02*
X17476730Y-13027150D01*
X17476730Y-13027150D02*
X17448158Y-13027150D01*
X17448158Y-13027150D02*
X17429111Y-13036674D01*
X17429111Y-13036674D02*
X17419587Y-13046198D01*
X17629111Y-13160484D02*
X17610063Y-13150960D01*
X17610063Y-13150960D02*
X17600539Y-13141436D01*
X17600539Y-13141436D02*
X17591015Y-13122388D01*
X17591015Y-13122388D02*
X17591015Y-13065246D01*
X17591015Y-13065246D02*
X17600539Y-13046198D01*
X17600539Y-13046198D02*
X17610063Y-13036674D01*
X17610063Y-13036674D02*
X17629111Y-13027150D01*
X17629111Y-13027150D02*
X17657682Y-13027150D01*
X17657682Y-13027150D02*
X17676730Y-13036674D01*
X17676730Y-13036674D02*
X17686253Y-13046198D01*
X17686253Y-13046198D02*
X17695777Y-13065246D01*
X17695777Y-13065246D02*
X17695777Y-13122388D01*
X17695777Y-13122388D02*
X17686253Y-13141436D01*
X17686253Y-13141436D02*
X17676730Y-13150960D01*
X17676730Y-13150960D02*
X17657682Y-13160484D01*
X17657682Y-13160484D02*
X17629111Y-13160484D01*
X17810063Y-13160484D02*
X17791015Y-13150960D01*
X17791015Y-13150960D02*
X17781492Y-13131912D01*
X17781492Y-13131912D02*
X17781492Y-12960484D01*
X17962444Y-13150960D02*
X17943396Y-13160484D01*
X17943396Y-13160484D02*
X17905301Y-13160484D01*
X17905301Y-13160484D02*
X17886253Y-13150960D01*
X17886253Y-13150960D02*
X17876730Y-13131912D01*
X17876730Y-13131912D02*
X17876730Y-13055722D01*
X17876730Y-13055722D02*
X17886253Y-13036674D01*
X17886253Y-13036674D02*
X17905301Y-13027150D01*
X17905301Y-13027150D02*
X17943396Y-13027150D01*
X17943396Y-13027150D02*
X17962444Y-13036674D01*
X17962444Y-13036674D02*
X17971968Y-13055722D01*
X17971968Y-13055722D02*
X17971968Y-13074769D01*
X17971968Y-13074769D02*
X17876730Y-13093817D01*
X18048158Y-13150960D02*
X18067206Y-13160484D01*
X18067206Y-13160484D02*
X18105301Y-13160484D01*
X18105301Y-13160484D02*
X18124349Y-13150960D01*
X18124349Y-13150960D02*
X18133873Y-13131912D01*
X18133873Y-13131912D02*
X18133873Y-13122388D01*
X18133873Y-13122388D02*
X18124349Y-13103341D01*
X18124349Y-13103341D02*
X18105301Y-13093817D01*
X18105301Y-13093817D02*
X18076730Y-13093817D01*
X18076730Y-13093817D02*
X18057682Y-13084293D01*
X18057682Y-13084293D02*
X18048158Y-13065246D01*
X18048158Y-13065246D02*
X18048158Y-13055722D01*
X18048158Y-13055722D02*
X18057682Y-13036674D01*
X18057682Y-13036674D02*
X18076730Y-13027150D01*
X18076730Y-13027150D02*
X18105301Y-13027150D01*
X18105301Y-13027150D02*
X18124349Y-13036674D01*
X18200539Y-13236674D02*
X18210063Y-13227150D01*
X18210063Y-13227150D02*
X18229111Y-13198579D01*
X18229111Y-13198579D02*
X18238634Y-13179531D01*
X18238634Y-13179531D02*
X18248158Y-13150960D01*
X18248158Y-13150960D02*
X18257682Y-13103341D01*
X18257682Y-13103341D02*
X18257682Y-13065246D01*
X18257682Y-13065246D02*
X18248158Y-13017627D01*
X18248158Y-13017627D02*
X18238634Y-12989055D01*
X18238634Y-12989055D02*
X18229111Y-12970008D01*
X18229111Y-12970008D02*
X18210063Y-12941436D01*
X18210063Y-12941436D02*
X18200539Y-12931912D01*
D10*
X13210000Y-13308000D02*
X13210000Y-13358000D01*
X13185000Y-13333000D02*
X13235000Y-13333000D01*
D11*
X13533872Y-13224484D02*
X13552920Y-13224484D01*
X13552920Y-13224484D02*
X13571967Y-13234008D01*
X13571967Y-13234008D02*
X13581491Y-13243531D01*
X13581491Y-13243531D02*
X13591015Y-13262579D01*
X13591015Y-13262579D02*
X13600539Y-13300674D01*
X13600539Y-13300674D02*
X13600539Y-13348293D01*
X13600539Y-13348293D02*
X13591015Y-13386388D01*
X13591015Y-13386388D02*
X13581491Y-13405436D01*
X13581491Y-13405436D02*
X13571967Y-13414960D01*
X13571967Y-13414960D02*
X13552920Y-13424484D01*
X13552920Y-13424484D02*
X13533872Y-13424484D01*
X13533872Y-13424484D02*
X13514824Y-13414960D01*
X13514824Y-13414960D02*
X13505301Y-13405436D01*
X13505301Y-13405436D02*
X13495777Y-13386388D01*
X13495777Y-13386388D02*
X13486253Y-13348293D01*
X13486253Y-13348293D02*
X13486253Y-13300674D01*
X13486253Y-13300674D02*
X13495777Y-13262579D01*
X13495777Y-13262579D02*
X13505301Y-13243531D01*
X13505301Y-13243531D02*
X13514824Y-13234008D01*
X13514824Y-13234008D02*
X13533872Y-13224484D01*
X13686253Y-13405436D02*
X13695777Y-13414960D01*
X13695777Y-13414960D02*
X13686253Y-13424484D01*
X13686253Y-13424484D02*
X13676729Y-13414960D01*
X13676729Y-13414960D02*
X13686253Y-13405436D01*
X13686253Y-13405436D02*
X13686253Y-13424484D01*
X13876729Y-13224484D02*
X13781491Y-13224484D01*
X13781491Y-13224484D02*
X13771967Y-13319722D01*
X13771967Y-13319722D02*
X13781491Y-13310198D01*
X13781491Y-13310198D02*
X13800539Y-13300674D01*
X13800539Y-13300674D02*
X13848158Y-13300674D01*
X13848158Y-13300674D02*
X13867205Y-13310198D01*
X13867205Y-13310198D02*
X13876729Y-13319722D01*
X13876729Y-13319722D02*
X13886253Y-13338769D01*
X13886253Y-13338769D02*
X13886253Y-13386388D01*
X13886253Y-13386388D02*
X13876729Y-13405436D01*
X13876729Y-13405436D02*
X13867205Y-13414960D01*
X13867205Y-13414960D02*
X13848158Y-13424484D01*
X13848158Y-13424484D02*
X13800539Y-13424484D01*
X13800539Y-13424484D02*
X13781491Y-13414960D01*
X13781491Y-13414960D02*
X13771967Y-13405436D01*
X14010062Y-13224484D02*
X14029110Y-13224484D01*
X14029110Y-13224484D02*
X14048158Y-13234008D01*
X14048158Y-13234008D02*
X14057682Y-13243531D01*
X14057682Y-13243531D02*
X14067205Y-13262579D01*
X14067205Y-13262579D02*
X14076729Y-13300674D01*
X14076729Y-13300674D02*
X14076729Y-13348293D01*
X14076729Y-13348293D02*
X14067205Y-13386388D01*
X14067205Y-13386388D02*
X14057682Y-13405436D01*
X14057682Y-13405436D02*
X14048158Y-13414960D01*
X14048158Y-13414960D02*
X14029110Y-13424484D01*
X14029110Y-13424484D02*
X14010062Y-13424484D01*
X14010062Y-13424484D02*
X13991015Y-13414960D01*
X13991015Y-13414960D02*
X13981491Y-13405436D01*
X13981491Y-13405436D02*
X13971967Y-13386388D01*
X13971967Y-13386388D02*
X13962443Y-13348293D01*
X13962443Y-13348293D02*
X13962443Y-13300674D01*
X13962443Y-13300674D02*
X13971967Y-13262579D01*
X13971967Y-13262579D02*
X13981491Y-13243531D01*
X13981491Y-13243531D02*
X13991015Y-13234008D01*
X13991015Y-13234008D02*
X14010062Y-13224484D01*
X14200539Y-13224484D02*
X14219586Y-13224484D01*
X14219586Y-13224484D02*
X14238634Y-13234008D01*
X14238634Y-13234008D02*
X14248158Y-13243531D01*
X14248158Y-13243531D02*
X14257682Y-13262579D01*
X14257682Y-13262579D02*
X14267205Y-13300674D01*
X14267205Y-13300674D02*
X14267205Y-13348293D01*
X14267205Y-13348293D02*
X14257682Y-13386388D01*
X14257682Y-13386388D02*
X14248158Y-13405436D01*
X14248158Y-13405436D02*
X14238634Y-13414960D01*
X14238634Y-13414960D02*
X14219586Y-13424484D01*
X14219586Y-13424484D02*
X14200539Y-13424484D01*
X14200539Y-13424484D02*
X14181491Y-13414960D01*
X14181491Y-13414960D02*
X14171967Y-13405436D01*
X14171967Y-13405436D02*
X14162443Y-13386388D01*
X14162443Y-13386388D02*
X14152920Y-13348293D01*
X14152920Y-13348293D02*
X14152920Y-13300674D01*
X14152920Y-13300674D02*
X14162443Y-13262579D01*
X14162443Y-13262579D02*
X14171967Y-13243531D01*
X14171967Y-13243531D02*
X14181491Y-13234008D01*
X14181491Y-13234008D02*
X14200539Y-13224484D01*
X14352920Y-13424484D02*
X14352920Y-13291150D01*
X14352920Y-13310198D02*
X14362443Y-13300674D01*
X14362443Y-13300674D02*
X14381491Y-13291150D01*
X14381491Y-13291150D02*
X14410063Y-13291150D01*
X14410063Y-13291150D02*
X14429110Y-13300674D01*
X14429110Y-13300674D02*
X14438634Y-13319722D01*
X14438634Y-13319722D02*
X14438634Y-13424484D01*
X14438634Y-13319722D02*
X14448158Y-13300674D01*
X14448158Y-13300674D02*
X14467205Y-13291150D01*
X14467205Y-13291150D02*
X14495777Y-13291150D01*
X14495777Y-13291150D02*
X14514824Y-13300674D01*
X14514824Y-13300674D02*
X14524348Y-13319722D01*
X14524348Y-13319722D02*
X14524348Y-13424484D01*
X14619586Y-13424484D02*
X14619586Y-13291150D01*
X14619586Y-13310198D02*
X14629110Y-13300674D01*
X14629110Y-13300674D02*
X14648158Y-13291150D01*
X14648158Y-13291150D02*
X14676729Y-13291150D01*
X14676729Y-13291150D02*
X14695777Y-13300674D01*
X14695777Y-13300674D02*
X14705301Y-13319722D01*
X14705301Y-13319722D02*
X14705301Y-13424484D01*
X14705301Y-13319722D02*
X14714824Y-13300674D01*
X14714824Y-13300674D02*
X14733872Y-13291150D01*
X14733872Y-13291150D02*
X14762443Y-13291150D01*
X14762443Y-13291150D02*
X14781491Y-13300674D01*
X14781491Y-13300674D02*
X14791015Y-13319722D01*
X14791015Y-13319722D02*
X14791015Y-13424484D01*
X15181491Y-13214960D02*
X15010063Y-13472103D01*
X15438634Y-13224484D02*
X15457682Y-13224484D01*
X15457682Y-13224484D02*
X15476729Y-13234008D01*
X15476729Y-13234008D02*
X15486253Y-13243531D01*
X15486253Y-13243531D02*
X15495777Y-13262579D01*
X15495777Y-13262579D02*
X15505301Y-13300674D01*
X15505301Y-13300674D02*
X15505301Y-13348293D01*
X15505301Y-13348293D02*
X15495777Y-13386388D01*
X15495777Y-13386388D02*
X15486253Y-13405436D01*
X15486253Y-13405436D02*
X15476729Y-13414960D01*
X15476729Y-13414960D02*
X15457682Y-13424484D01*
X15457682Y-13424484D02*
X15438634Y-13424484D01*
X15438634Y-13424484D02*
X15419586Y-13414960D01*
X15419586Y-13414960D02*
X15410063Y-13405436D01*
X15410063Y-13405436D02*
X15400539Y-13386388D01*
X15400539Y-13386388D02*
X15391015Y-13348293D01*
X15391015Y-13348293D02*
X15391015Y-13300674D01*
X15391015Y-13300674D02*
X15400539Y-13262579D01*
X15400539Y-13262579D02*
X15410063Y-13243531D01*
X15410063Y-13243531D02*
X15419586Y-13234008D01*
X15419586Y-13234008D02*
X15438634Y-13224484D01*
X15591015Y-13405436D02*
X15600539Y-13414960D01*
X15600539Y-13414960D02*
X15591015Y-13424484D01*
X15591015Y-13424484D02*
X15581491Y-13414960D01*
X15581491Y-13414960D02*
X15591015Y-13405436D01*
X15591015Y-13405436D02*
X15591015Y-13424484D01*
X15724348Y-13224484D02*
X15743396Y-13224484D01*
X15743396Y-13224484D02*
X15762444Y-13234008D01*
X15762444Y-13234008D02*
X15771967Y-13243531D01*
X15771967Y-13243531D02*
X15781491Y-13262579D01*
X15781491Y-13262579D02*
X15791015Y-13300674D01*
X15791015Y-13300674D02*
X15791015Y-13348293D01*
X15791015Y-13348293D02*
X15781491Y-13386388D01*
X15781491Y-13386388D02*
X15771967Y-13405436D01*
X15771967Y-13405436D02*
X15762444Y-13414960D01*
X15762444Y-13414960D02*
X15743396Y-13424484D01*
X15743396Y-13424484D02*
X15724348Y-13424484D01*
X15724348Y-13424484D02*
X15705301Y-13414960D01*
X15705301Y-13414960D02*
X15695777Y-13405436D01*
X15695777Y-13405436D02*
X15686253Y-13386388D01*
X15686253Y-13386388D02*
X15676729Y-13348293D01*
X15676729Y-13348293D02*
X15676729Y-13300674D01*
X15676729Y-13300674D02*
X15686253Y-13262579D01*
X15686253Y-13262579D02*
X15695777Y-13243531D01*
X15695777Y-13243531D02*
X15705301Y-13234008D01*
X15705301Y-13234008D02*
X15724348Y-13224484D01*
X15981491Y-13424484D02*
X15867206Y-13424484D01*
X15924348Y-13424484D02*
X15924348Y-13224484D01*
X15924348Y-13224484D02*
X15905301Y-13253055D01*
X15905301Y-13253055D02*
X15886253Y-13272103D01*
X15886253Y-13272103D02*
X15867206Y-13281627D01*
X16076729Y-13424484D02*
X16114825Y-13424484D01*
X16114825Y-13424484D02*
X16133872Y-13414960D01*
X16133872Y-13414960D02*
X16143396Y-13405436D01*
X16143396Y-13405436D02*
X16162444Y-13376865D01*
X16162444Y-13376865D02*
X16171967Y-13338769D01*
X16171967Y-13338769D02*
X16171967Y-13262579D01*
X16171967Y-13262579D02*
X16162444Y-13243531D01*
X16162444Y-13243531D02*
X16152920Y-13234008D01*
X16152920Y-13234008D02*
X16133872Y-13224484D01*
X16133872Y-13224484D02*
X16095777Y-13224484D01*
X16095777Y-13224484D02*
X16076729Y-13234008D01*
X16076729Y-13234008D02*
X16067206Y-13243531D01*
X16067206Y-13243531D02*
X16057682Y-13262579D01*
X16057682Y-13262579D02*
X16057682Y-13310198D01*
X16057682Y-13310198D02*
X16067206Y-13329246D01*
X16067206Y-13329246D02*
X16076729Y-13338769D01*
X16076729Y-13338769D02*
X16095777Y-13348293D01*
X16095777Y-13348293D02*
X16133872Y-13348293D01*
X16133872Y-13348293D02*
X16152920Y-13338769D01*
X16152920Y-13338769D02*
X16162444Y-13329246D01*
X16162444Y-13329246D02*
X16171967Y-13310198D01*
X16238634Y-13224484D02*
X16371967Y-13224484D01*
X16371967Y-13224484D02*
X16286253Y-13424484D01*
X16438634Y-13224484D02*
X16438634Y-13262579D01*
X16514825Y-13224484D02*
X16514825Y-13262579D01*
X16810063Y-13500674D02*
X16800539Y-13491150D01*
X16800539Y-13491150D02*
X16781491Y-13462579D01*
X16781491Y-13462579D02*
X16771968Y-13443531D01*
X16771968Y-13443531D02*
X16762444Y-13414960D01*
X16762444Y-13414960D02*
X16752920Y-13367341D01*
X16752920Y-13367341D02*
X16752920Y-13329246D01*
X16752920Y-13329246D02*
X16762444Y-13281627D01*
X16762444Y-13281627D02*
X16771968Y-13253055D01*
X16771968Y-13253055D02*
X16781491Y-13234008D01*
X16781491Y-13234008D02*
X16800539Y-13205436D01*
X16800539Y-13205436D02*
X16810063Y-13195912D01*
X16991015Y-13424484D02*
X16876730Y-13424484D01*
X16933872Y-13424484D02*
X16933872Y-13224484D01*
X16933872Y-13224484D02*
X16914825Y-13253055D01*
X16914825Y-13253055D02*
X16895777Y-13272103D01*
X16895777Y-13272103D02*
X16876730Y-13281627D01*
X17067206Y-13243531D02*
X17076730Y-13234008D01*
X17076730Y-13234008D02*
X17095777Y-13224484D01*
X17095777Y-13224484D02*
X17143396Y-13224484D01*
X17143396Y-13224484D02*
X17162444Y-13234008D01*
X17162444Y-13234008D02*
X17171968Y-13243531D01*
X17171968Y-13243531D02*
X17181491Y-13262579D01*
X17181491Y-13262579D02*
X17181491Y-13281627D01*
X17181491Y-13281627D02*
X17171968Y-13310198D01*
X17171968Y-13310198D02*
X17057682Y-13424484D01*
X17057682Y-13424484D02*
X17181491Y-13424484D01*
X17419587Y-13424484D02*
X17419587Y-13224484D01*
X17505301Y-13424484D02*
X17505301Y-13319722D01*
X17505301Y-13319722D02*
X17495777Y-13300674D01*
X17495777Y-13300674D02*
X17476730Y-13291150D01*
X17476730Y-13291150D02*
X17448158Y-13291150D01*
X17448158Y-13291150D02*
X17429111Y-13300674D01*
X17429111Y-13300674D02*
X17419587Y-13310198D01*
X17629111Y-13424484D02*
X17610063Y-13414960D01*
X17610063Y-13414960D02*
X17600539Y-13405436D01*
X17600539Y-13405436D02*
X17591015Y-13386388D01*
X17591015Y-13386388D02*
X17591015Y-13329246D01*
X17591015Y-13329246D02*
X17600539Y-13310198D01*
X17600539Y-13310198D02*
X17610063Y-13300674D01*
X17610063Y-13300674D02*
X17629111Y-13291150D01*
X17629111Y-13291150D02*
X17657682Y-13291150D01*
X17657682Y-13291150D02*
X17676730Y-13300674D01*
X17676730Y-13300674D02*
X17686253Y-13310198D01*
X17686253Y-13310198D02*
X17695777Y-13329246D01*
X17695777Y-13329246D02*
X17695777Y-13386388D01*
X17695777Y-13386388D02*
X17686253Y-13405436D01*
X17686253Y-13405436D02*
X17676730Y-13414960D01*
X17676730Y-13414960D02*
X17657682Y-13424484D01*
X17657682Y-13424484D02*
X17629111Y-13424484D01*
X17810063Y-13424484D02*
X17791015Y-13414960D01*
X17791015Y-13414960D02*
X17781492Y-13395912D01*
X17781492Y-13395912D02*
X17781492Y-13224484D01*
X17962444Y-13414960D02*
X17943396Y-13424484D01*
X17943396Y-13424484D02*
X17905301Y-13424484D01*
X17905301Y-13424484D02*
X17886253Y-13414960D01*
X17886253Y-13414960D02*
X17876730Y-13395912D01*
X17876730Y-13395912D02*
X17876730Y-13319722D01*
X17876730Y-13319722D02*
X17886253Y-13300674D01*
X17886253Y-13300674D02*
X17905301Y-13291150D01*
X17905301Y-13291150D02*
X17943396Y-13291150D01*
X17943396Y-13291150D02*
X17962444Y-13300674D01*
X17962444Y-13300674D02*
X17971968Y-13319722D01*
X17971968Y-13319722D02*
X17971968Y-13338769D01*
X17971968Y-13338769D02*
X17876730Y-13357817D01*
X18048158Y-13414960D02*
X18067206Y-13424484D01*
X18067206Y-13424484D02*
X18105301Y-13424484D01*
X18105301Y-13424484D02*
X18124349Y-13414960D01*
X18124349Y-13414960D02*
X18133873Y-13395912D01*
X18133873Y-13395912D02*
X18133873Y-13386388D01*
X18133873Y-13386388D02*
X18124349Y-13367341D01*
X18124349Y-13367341D02*
X18105301Y-13357817D01*
X18105301Y-13357817D02*
X18076730Y-13357817D01*
X18076730Y-13357817D02*
X18057682Y-13348293D01*
X18057682Y-13348293D02*
X18048158Y-13329246D01*
X18048158Y-13329246D02*
X18048158Y-13319722D01*
X18048158Y-13319722D02*
X18057682Y-13300674D01*
X18057682Y-13300674D02*
X18076730Y-13291150D01*
X18076730Y-13291150D02*
X18105301Y-13291150D01*
X18105301Y-13291150D02*
X18124349Y-13300674D01*
X18200539Y-13500674D02*
X18210063Y-13491150D01*
X18210063Y-13491150D02*
X18229111Y-13462579D01*
X18229111Y-13462579D02*
X18238634Y-13443531D01*
X18238634Y-13443531D02*
X18248158Y-13414960D01*
X18248158Y-13414960D02*
X18257682Y-13367341D01*
X18257682Y-13367341D02*
X18257682Y-13329246D01*
X18257682Y-13329246D02*
X18248158Y-13281627D01*
X18248158Y-13281627D02*
X18238634Y-13253055D01*
X18238634Y-13253055D02*
X18229111Y-13234008D01*
X18229111Y-13234008D02*
X18210063Y-13205436D01*
X18210063Y-13205436D02*
X18200539Y-13195912D01*
D10*
X13220356Y-13632356D02*
X13220356Y-13561644D01*
X13149644Y-13561644D01*
X13149644Y-13632356D01*
X13220356Y-13632356D01*
D11*
X13600539Y-13688484D02*
X13486253Y-13688484D01*
X13543396Y-13688484D02*
X13543396Y-13488484D01*
X13543396Y-13488484D02*
X13524348Y-13517055D01*
X13524348Y-13517055D02*
X13505301Y-13536103D01*
X13505301Y-13536103D02*
X13486253Y-13545627D01*
X13686253Y-13669436D02*
X13695777Y-13678960D01*
X13695777Y-13678960D02*
X13686253Y-13688484D01*
X13686253Y-13688484D02*
X13676729Y-13678960D01*
X13676729Y-13678960D02*
X13686253Y-13669436D01*
X13686253Y-13669436D02*
X13686253Y-13688484D01*
X13819586Y-13488484D02*
X13838634Y-13488484D01*
X13838634Y-13488484D02*
X13857682Y-13498008D01*
X13857682Y-13498008D02*
X13867205Y-13507531D01*
X13867205Y-13507531D02*
X13876729Y-13526579D01*
X13876729Y-13526579D02*
X13886253Y-13564674D01*
X13886253Y-13564674D02*
X13886253Y-13612293D01*
X13886253Y-13612293D02*
X13876729Y-13650388D01*
X13876729Y-13650388D02*
X13867205Y-13669436D01*
X13867205Y-13669436D02*
X13857682Y-13678960D01*
X13857682Y-13678960D02*
X13838634Y-13688484D01*
X13838634Y-13688484D02*
X13819586Y-13688484D01*
X13819586Y-13688484D02*
X13800539Y-13678960D01*
X13800539Y-13678960D02*
X13791015Y-13669436D01*
X13791015Y-13669436D02*
X13781491Y-13650388D01*
X13781491Y-13650388D02*
X13771967Y-13612293D01*
X13771967Y-13612293D02*
X13771967Y-13564674D01*
X13771967Y-13564674D02*
X13781491Y-13526579D01*
X13781491Y-13526579D02*
X13791015Y-13507531D01*
X13791015Y-13507531D02*
X13800539Y-13498008D01*
X13800539Y-13498008D02*
X13819586Y-13488484D01*
X14010062Y-13488484D02*
X14029110Y-13488484D01*
X14029110Y-13488484D02*
X14048158Y-13498008D01*
X14048158Y-13498008D02*
X14057682Y-13507531D01*
X14057682Y-13507531D02*
X14067205Y-13526579D01*
X14067205Y-13526579D02*
X14076729Y-13564674D01*
X14076729Y-13564674D02*
X14076729Y-13612293D01*
X14076729Y-13612293D02*
X14067205Y-13650388D01*
X14067205Y-13650388D02*
X14057682Y-13669436D01*
X14057682Y-13669436D02*
X14048158Y-13678960D01*
X14048158Y-13678960D02*
X14029110Y-13688484D01*
X14029110Y-13688484D02*
X14010062Y-13688484D01*
X14010062Y-13688484D02*
X13991015Y-13678960D01*
X13991015Y-13678960D02*
X13981491Y-13669436D01*
X13981491Y-13669436D02*
X13971967Y-13650388D01*
X13971967Y-13650388D02*
X13962443Y-13612293D01*
X13962443Y-13612293D02*
X13962443Y-13564674D01*
X13962443Y-13564674D02*
X13971967Y-13526579D01*
X13971967Y-13526579D02*
X13981491Y-13507531D01*
X13981491Y-13507531D02*
X13991015Y-13498008D01*
X13991015Y-13498008D02*
X14010062Y-13488484D01*
X14200539Y-13488484D02*
X14219586Y-13488484D01*
X14219586Y-13488484D02*
X14238634Y-13498008D01*
X14238634Y-13498008D02*
X14248158Y-13507531D01*
X14248158Y-13507531D02*
X14257682Y-13526579D01*
X14257682Y-13526579D02*
X14267205Y-13564674D01*
X14267205Y-13564674D02*
X14267205Y-13612293D01*
X14267205Y-13612293D02*
X14257682Y-13650388D01*
X14257682Y-13650388D02*
X14248158Y-13669436D01*
X14248158Y-13669436D02*
X14238634Y-13678960D01*
X14238634Y-13678960D02*
X14219586Y-13688484D01*
X14219586Y-13688484D02*
X14200539Y-13688484D01*
X14200539Y-13688484D02*
X14181491Y-13678960D01*
X14181491Y-13678960D02*
X14171967Y-13669436D01*
X14171967Y-13669436D02*
X14162443Y-13650388D01*
X14162443Y-13650388D02*
X14152920Y-13612293D01*
X14152920Y-13612293D02*
X14152920Y-13564674D01*
X14152920Y-13564674D02*
X14162443Y-13526579D01*
X14162443Y-13526579D02*
X14171967Y-13507531D01*
X14171967Y-13507531D02*
X14181491Y-13498008D01*
X14181491Y-13498008D02*
X14200539Y-13488484D01*
X14352920Y-13688484D02*
X14352920Y-13555150D01*
X14352920Y-13574198D02*
X14362443Y-13564674D01*
X14362443Y-13564674D02*
X14381491Y-13555150D01*
X14381491Y-13555150D02*
X14410063Y-13555150D01*
X14410063Y-13555150D02*
X14429110Y-13564674D01*
X14429110Y-13564674D02*
X14438634Y-13583722D01*
X14438634Y-13583722D02*
X14438634Y-13688484D01*
X14438634Y-13583722D02*
X14448158Y-13564674D01*
X14448158Y-13564674D02*
X14467205Y-13555150D01*
X14467205Y-13555150D02*
X14495777Y-13555150D01*
X14495777Y-13555150D02*
X14514824Y-13564674D01*
X14514824Y-13564674D02*
X14524348Y-13583722D01*
X14524348Y-13583722D02*
X14524348Y-13688484D01*
X14619586Y-13688484D02*
X14619586Y-13555150D01*
X14619586Y-13574198D02*
X14629110Y-13564674D01*
X14629110Y-13564674D02*
X14648158Y-13555150D01*
X14648158Y-13555150D02*
X14676729Y-13555150D01*
X14676729Y-13555150D02*
X14695777Y-13564674D01*
X14695777Y-13564674D02*
X14705301Y-13583722D01*
X14705301Y-13583722D02*
X14705301Y-13688484D01*
X14705301Y-13583722D02*
X14714824Y-13564674D01*
X14714824Y-13564674D02*
X14733872Y-13555150D01*
X14733872Y-13555150D02*
X14762443Y-13555150D01*
X14762443Y-13555150D02*
X14781491Y-13564674D01*
X14781491Y-13564674D02*
X14791015Y-13583722D01*
X14791015Y-13583722D02*
X14791015Y-13688484D01*
X15181491Y-13478960D02*
X15010063Y-13736103D01*
X15438634Y-13488484D02*
X15457682Y-13488484D01*
X15457682Y-13488484D02*
X15476729Y-13498008D01*
X15476729Y-13498008D02*
X15486253Y-13507531D01*
X15486253Y-13507531D02*
X15495777Y-13526579D01*
X15495777Y-13526579D02*
X15505301Y-13564674D01*
X15505301Y-13564674D02*
X15505301Y-13612293D01*
X15505301Y-13612293D02*
X15495777Y-13650388D01*
X15495777Y-13650388D02*
X15486253Y-13669436D01*
X15486253Y-13669436D02*
X15476729Y-13678960D01*
X15476729Y-13678960D02*
X15457682Y-13688484D01*
X15457682Y-13688484D02*
X15438634Y-13688484D01*
X15438634Y-13688484D02*
X15419586Y-13678960D01*
X15419586Y-13678960D02*
X15410063Y-13669436D01*
X15410063Y-13669436D02*
X15400539Y-13650388D01*
X15400539Y-13650388D02*
X15391015Y-13612293D01*
X15391015Y-13612293D02*
X15391015Y-13564674D01*
X15391015Y-13564674D02*
X15400539Y-13526579D01*
X15400539Y-13526579D02*
X15410063Y-13507531D01*
X15410063Y-13507531D02*
X15419586Y-13498008D01*
X15419586Y-13498008D02*
X15438634Y-13488484D01*
X15591015Y-13669436D02*
X15600539Y-13678960D01*
X15600539Y-13678960D02*
X15591015Y-13688484D01*
X15591015Y-13688484D02*
X15581491Y-13678960D01*
X15581491Y-13678960D02*
X15591015Y-13669436D01*
X15591015Y-13669436D02*
X15591015Y-13688484D01*
X15724348Y-13488484D02*
X15743396Y-13488484D01*
X15743396Y-13488484D02*
X15762444Y-13498008D01*
X15762444Y-13498008D02*
X15771967Y-13507531D01*
X15771967Y-13507531D02*
X15781491Y-13526579D01*
X15781491Y-13526579D02*
X15791015Y-13564674D01*
X15791015Y-13564674D02*
X15791015Y-13612293D01*
X15791015Y-13612293D02*
X15781491Y-13650388D01*
X15781491Y-13650388D02*
X15771967Y-13669436D01*
X15771967Y-13669436D02*
X15762444Y-13678960D01*
X15762444Y-13678960D02*
X15743396Y-13688484D01*
X15743396Y-13688484D02*
X15724348Y-13688484D01*
X15724348Y-13688484D02*
X15705301Y-13678960D01*
X15705301Y-13678960D02*
X15695777Y-13669436D01*
X15695777Y-13669436D02*
X15686253Y-13650388D01*
X15686253Y-13650388D02*
X15676729Y-13612293D01*
X15676729Y-13612293D02*
X15676729Y-13564674D01*
X15676729Y-13564674D02*
X15686253Y-13526579D01*
X15686253Y-13526579D02*
X15695777Y-13507531D01*
X15695777Y-13507531D02*
X15705301Y-13498008D01*
X15705301Y-13498008D02*
X15724348Y-13488484D01*
X15857682Y-13488484D02*
X15981491Y-13488484D01*
X15981491Y-13488484D02*
X15914825Y-13564674D01*
X15914825Y-13564674D02*
X15943396Y-13564674D01*
X15943396Y-13564674D02*
X15962444Y-13574198D01*
X15962444Y-13574198D02*
X15971967Y-13583722D01*
X15971967Y-13583722D02*
X15981491Y-13602769D01*
X15981491Y-13602769D02*
X15981491Y-13650388D01*
X15981491Y-13650388D02*
X15971967Y-13669436D01*
X15971967Y-13669436D02*
X15962444Y-13678960D01*
X15962444Y-13678960D02*
X15943396Y-13688484D01*
X15943396Y-13688484D02*
X15886253Y-13688484D01*
X15886253Y-13688484D02*
X15867206Y-13678960D01*
X15867206Y-13678960D02*
X15857682Y-13669436D01*
X16076729Y-13688484D02*
X16114825Y-13688484D01*
X16114825Y-13688484D02*
X16133872Y-13678960D01*
X16133872Y-13678960D02*
X16143396Y-13669436D01*
X16143396Y-13669436D02*
X16162444Y-13640865D01*
X16162444Y-13640865D02*
X16171967Y-13602769D01*
X16171967Y-13602769D02*
X16171967Y-13526579D01*
X16171967Y-13526579D02*
X16162444Y-13507531D01*
X16162444Y-13507531D02*
X16152920Y-13498008D01*
X16152920Y-13498008D02*
X16133872Y-13488484D01*
X16133872Y-13488484D02*
X16095777Y-13488484D01*
X16095777Y-13488484D02*
X16076729Y-13498008D01*
X16076729Y-13498008D02*
X16067206Y-13507531D01*
X16067206Y-13507531D02*
X16057682Y-13526579D01*
X16057682Y-13526579D02*
X16057682Y-13574198D01*
X16057682Y-13574198D02*
X16067206Y-13593246D01*
X16067206Y-13593246D02*
X16076729Y-13602769D01*
X16076729Y-13602769D02*
X16095777Y-13612293D01*
X16095777Y-13612293D02*
X16133872Y-13612293D01*
X16133872Y-13612293D02*
X16152920Y-13602769D01*
X16152920Y-13602769D02*
X16162444Y-13593246D01*
X16162444Y-13593246D02*
X16171967Y-13574198D01*
X16343396Y-13555150D02*
X16343396Y-13688484D01*
X16295777Y-13478960D02*
X16248158Y-13621817D01*
X16248158Y-13621817D02*
X16371967Y-13621817D01*
X16438634Y-13488484D02*
X16438634Y-13526579D01*
X16514825Y-13488484D02*
X16514825Y-13526579D01*
X16810063Y-13764674D02*
X16800539Y-13755150D01*
X16800539Y-13755150D02*
X16781491Y-13726579D01*
X16781491Y-13726579D02*
X16771968Y-13707531D01*
X16771968Y-13707531D02*
X16762444Y-13678960D01*
X16762444Y-13678960D02*
X16752920Y-13631341D01*
X16752920Y-13631341D02*
X16752920Y-13593246D01*
X16752920Y-13593246D02*
X16762444Y-13545627D01*
X16762444Y-13545627D02*
X16771968Y-13517055D01*
X16771968Y-13517055D02*
X16781491Y-13498008D01*
X16781491Y-13498008D02*
X16800539Y-13469436D01*
X16800539Y-13469436D02*
X16810063Y-13459912D01*
X16876730Y-13507531D02*
X16886253Y-13498008D01*
X16886253Y-13498008D02*
X16905301Y-13488484D01*
X16905301Y-13488484D02*
X16952920Y-13488484D01*
X16952920Y-13488484D02*
X16971968Y-13498008D01*
X16971968Y-13498008D02*
X16981491Y-13507531D01*
X16981491Y-13507531D02*
X16991015Y-13526579D01*
X16991015Y-13526579D02*
X16991015Y-13545627D01*
X16991015Y-13545627D02*
X16981491Y-13574198D01*
X16981491Y-13574198D02*
X16867206Y-13688484D01*
X16867206Y-13688484D02*
X16991015Y-13688484D01*
X17229111Y-13688484D02*
X17229111Y-13488484D01*
X17314825Y-13688484D02*
X17314825Y-13583722D01*
X17314825Y-13583722D02*
X17305301Y-13564674D01*
X17305301Y-13564674D02*
X17286253Y-13555150D01*
X17286253Y-13555150D02*
X17257682Y-13555150D01*
X17257682Y-13555150D02*
X17238634Y-13564674D01*
X17238634Y-13564674D02*
X17229111Y-13574198D01*
X17438634Y-13688484D02*
X17419587Y-13678960D01*
X17419587Y-13678960D02*
X17410063Y-13669436D01*
X17410063Y-13669436D02*
X17400539Y-13650388D01*
X17400539Y-13650388D02*
X17400539Y-13593246D01*
X17400539Y-13593246D02*
X17410063Y-13574198D01*
X17410063Y-13574198D02*
X17419587Y-13564674D01*
X17419587Y-13564674D02*
X17438634Y-13555150D01*
X17438634Y-13555150D02*
X17467206Y-13555150D01*
X17467206Y-13555150D02*
X17486253Y-13564674D01*
X17486253Y-13564674D02*
X17495777Y-13574198D01*
X17495777Y-13574198D02*
X17505301Y-13593246D01*
X17505301Y-13593246D02*
X17505301Y-13650388D01*
X17505301Y-13650388D02*
X17495777Y-13669436D01*
X17495777Y-13669436D02*
X17486253Y-13678960D01*
X17486253Y-13678960D02*
X17467206Y-13688484D01*
X17467206Y-13688484D02*
X17438634Y-13688484D01*
X17619587Y-13688484D02*
X17600539Y-13678960D01*
X17600539Y-13678960D02*
X17591015Y-13659912D01*
X17591015Y-13659912D02*
X17591015Y-13488484D01*
X17771968Y-13678960D02*
X17752920Y-13688484D01*
X17752920Y-13688484D02*
X17714825Y-13688484D01*
X17714825Y-13688484D02*
X17695777Y-13678960D01*
X17695777Y-13678960D02*
X17686253Y-13659912D01*
X17686253Y-13659912D02*
X17686253Y-13583722D01*
X17686253Y-13583722D02*
X17695777Y-13564674D01*
X17695777Y-13564674D02*
X17714825Y-13555150D01*
X17714825Y-13555150D02*
X17752920Y-13555150D01*
X17752920Y-13555150D02*
X17771968Y-13564674D01*
X17771968Y-13564674D02*
X17781492Y-13583722D01*
X17781492Y-13583722D02*
X17781492Y-13602769D01*
X17781492Y-13602769D02*
X17686253Y-13621817D01*
X17857682Y-13678960D02*
X17876730Y-13688484D01*
X17876730Y-13688484D02*
X17914825Y-13688484D01*
X17914825Y-13688484D02*
X17933873Y-13678960D01*
X17933873Y-13678960D02*
X17943396Y-13659912D01*
X17943396Y-13659912D02*
X17943396Y-13650388D01*
X17943396Y-13650388D02*
X17933873Y-13631341D01*
X17933873Y-13631341D02*
X17914825Y-13621817D01*
X17914825Y-13621817D02*
X17886253Y-13621817D01*
X17886253Y-13621817D02*
X17867206Y-13612293D01*
X17867206Y-13612293D02*
X17857682Y-13593246D01*
X17857682Y-13593246D02*
X17857682Y-13583722D01*
X17857682Y-13583722D02*
X17867206Y-13564674D01*
X17867206Y-13564674D02*
X17886253Y-13555150D01*
X17886253Y-13555150D02*
X17914825Y-13555150D01*
X17914825Y-13555150D02*
X17933873Y-13564674D01*
X18010063Y-13764674D02*
X18019587Y-13755150D01*
X18019587Y-13755150D02*
X18038634Y-13726579D01*
X18038634Y-13726579D02*
X18048158Y-13707531D01*
X18048158Y-13707531D02*
X18057682Y-13678960D01*
X18057682Y-13678960D02*
X18067206Y-13631341D01*
X18067206Y-13631341D02*
X18067206Y-13593246D01*
X18067206Y-13593246D02*
X18057682Y-13545627D01*
X18057682Y-13545627D02*
X18048158Y-13517055D01*
X18048158Y-13517055D02*
X18038634Y-13498008D01*
X18038634Y-13498008D02*
X18019587Y-13469436D01*
X18019587Y-13469436D02*
X18010063Y-13459912D01*
D12*
X13175000Y-13921000D02*
X13235000Y-13861000D01*
X13175000Y-13801000D01*
X13115000Y-13861000D01*
X13175000Y-13921000D01*
D11*
X13600539Y-13952484D02*
X13486253Y-13952484D01*
X13543396Y-13952484D02*
X13543396Y-13752484D01*
X13543396Y-13752484D02*
X13524348Y-13781055D01*
X13524348Y-13781055D02*
X13505301Y-13800103D01*
X13505301Y-13800103D02*
X13486253Y-13809627D01*
X13686253Y-13933436D02*
X13695777Y-13942960D01*
X13695777Y-13942960D02*
X13686253Y-13952484D01*
X13686253Y-13952484D02*
X13676729Y-13942960D01*
X13676729Y-13942960D02*
X13686253Y-13933436D01*
X13686253Y-13933436D02*
X13686253Y-13952484D01*
X13771967Y-13771531D02*
X13781491Y-13762008D01*
X13781491Y-13762008D02*
X13800539Y-13752484D01*
X13800539Y-13752484D02*
X13848158Y-13752484D01*
X13848158Y-13752484D02*
X13867205Y-13762008D01*
X13867205Y-13762008D02*
X13876729Y-13771531D01*
X13876729Y-13771531D02*
X13886253Y-13790579D01*
X13886253Y-13790579D02*
X13886253Y-13809627D01*
X13886253Y-13809627D02*
X13876729Y-13838198D01*
X13876729Y-13838198D02*
X13762443Y-13952484D01*
X13762443Y-13952484D02*
X13886253Y-13952484D01*
X14010062Y-13752484D02*
X14029110Y-13752484D01*
X14029110Y-13752484D02*
X14048158Y-13762008D01*
X14048158Y-13762008D02*
X14057682Y-13771531D01*
X14057682Y-13771531D02*
X14067205Y-13790579D01*
X14067205Y-13790579D02*
X14076729Y-13828674D01*
X14076729Y-13828674D02*
X14076729Y-13876293D01*
X14076729Y-13876293D02*
X14067205Y-13914388D01*
X14067205Y-13914388D02*
X14057682Y-13933436D01*
X14057682Y-13933436D02*
X14048158Y-13942960D01*
X14048158Y-13942960D02*
X14029110Y-13952484D01*
X14029110Y-13952484D02*
X14010062Y-13952484D01*
X14010062Y-13952484D02*
X13991015Y-13942960D01*
X13991015Y-13942960D02*
X13981491Y-13933436D01*
X13981491Y-13933436D02*
X13971967Y-13914388D01*
X13971967Y-13914388D02*
X13962443Y-13876293D01*
X13962443Y-13876293D02*
X13962443Y-13828674D01*
X13962443Y-13828674D02*
X13971967Y-13790579D01*
X13971967Y-13790579D02*
X13981491Y-13771531D01*
X13981491Y-13771531D02*
X13991015Y-13762008D01*
X13991015Y-13762008D02*
X14010062Y-13752484D01*
X14200539Y-13752484D02*
X14219586Y-13752484D01*
X14219586Y-13752484D02*
X14238634Y-13762008D01*
X14238634Y-13762008D02*
X14248158Y-13771531D01*
X14248158Y-13771531D02*
X14257682Y-13790579D01*
X14257682Y-13790579D02*
X14267205Y-13828674D01*
X14267205Y-13828674D02*
X14267205Y-13876293D01*
X14267205Y-13876293D02*
X14257682Y-13914388D01*
X14257682Y-13914388D02*
X14248158Y-13933436D01*
X14248158Y-13933436D02*
X14238634Y-13942960D01*
X14238634Y-13942960D02*
X14219586Y-13952484D01*
X14219586Y-13952484D02*
X14200539Y-13952484D01*
X14200539Y-13952484D02*
X14181491Y-13942960D01*
X14181491Y-13942960D02*
X14171967Y-13933436D01*
X14171967Y-13933436D02*
X14162443Y-13914388D01*
X14162443Y-13914388D02*
X14152920Y-13876293D01*
X14152920Y-13876293D02*
X14152920Y-13828674D01*
X14152920Y-13828674D02*
X14162443Y-13790579D01*
X14162443Y-13790579D02*
X14171967Y-13771531D01*
X14171967Y-13771531D02*
X14181491Y-13762008D01*
X14181491Y-13762008D02*
X14200539Y-13752484D01*
X14352920Y-13952484D02*
X14352920Y-13819150D01*
X14352920Y-13838198D02*
X14362443Y-13828674D01*
X14362443Y-13828674D02*
X14381491Y-13819150D01*
X14381491Y-13819150D02*
X14410063Y-13819150D01*
X14410063Y-13819150D02*
X14429110Y-13828674D01*
X14429110Y-13828674D02*
X14438634Y-13847722D01*
X14438634Y-13847722D02*
X14438634Y-13952484D01*
X14438634Y-13847722D02*
X14448158Y-13828674D01*
X14448158Y-13828674D02*
X14467205Y-13819150D01*
X14467205Y-13819150D02*
X14495777Y-13819150D01*
X14495777Y-13819150D02*
X14514824Y-13828674D01*
X14514824Y-13828674D02*
X14524348Y-13847722D01*
X14524348Y-13847722D02*
X14524348Y-13952484D01*
X14619586Y-13952484D02*
X14619586Y-13819150D01*
X14619586Y-13838198D02*
X14629110Y-13828674D01*
X14629110Y-13828674D02*
X14648158Y-13819150D01*
X14648158Y-13819150D02*
X14676729Y-13819150D01*
X14676729Y-13819150D02*
X14695777Y-13828674D01*
X14695777Y-13828674D02*
X14705301Y-13847722D01*
X14705301Y-13847722D02*
X14705301Y-13952484D01*
X14705301Y-13847722D02*
X14714824Y-13828674D01*
X14714824Y-13828674D02*
X14733872Y-13819150D01*
X14733872Y-13819150D02*
X14762443Y-13819150D01*
X14762443Y-13819150D02*
X14781491Y-13828674D01*
X14781491Y-13828674D02*
X14791015Y-13847722D01*
X14791015Y-13847722D02*
X14791015Y-13952484D01*
X15181491Y-13742960D02*
X15010063Y-14000103D01*
X15438634Y-13752484D02*
X15457682Y-13752484D01*
X15457682Y-13752484D02*
X15476729Y-13762008D01*
X15476729Y-13762008D02*
X15486253Y-13771531D01*
X15486253Y-13771531D02*
X15495777Y-13790579D01*
X15495777Y-13790579D02*
X15505301Y-13828674D01*
X15505301Y-13828674D02*
X15505301Y-13876293D01*
X15505301Y-13876293D02*
X15495777Y-13914388D01*
X15495777Y-13914388D02*
X15486253Y-13933436D01*
X15486253Y-13933436D02*
X15476729Y-13942960D01*
X15476729Y-13942960D02*
X15457682Y-13952484D01*
X15457682Y-13952484D02*
X15438634Y-13952484D01*
X15438634Y-13952484D02*
X15419586Y-13942960D01*
X15419586Y-13942960D02*
X15410063Y-13933436D01*
X15410063Y-13933436D02*
X15400539Y-13914388D01*
X15400539Y-13914388D02*
X15391015Y-13876293D01*
X15391015Y-13876293D02*
X15391015Y-13828674D01*
X15391015Y-13828674D02*
X15400539Y-13790579D01*
X15400539Y-13790579D02*
X15410063Y-13771531D01*
X15410063Y-13771531D02*
X15419586Y-13762008D01*
X15419586Y-13762008D02*
X15438634Y-13752484D01*
X15591015Y-13933436D02*
X15600539Y-13942960D01*
X15600539Y-13942960D02*
X15591015Y-13952484D01*
X15591015Y-13952484D02*
X15581491Y-13942960D01*
X15581491Y-13942960D02*
X15591015Y-13933436D01*
X15591015Y-13933436D02*
X15591015Y-13952484D01*
X15724348Y-13752484D02*
X15743396Y-13752484D01*
X15743396Y-13752484D02*
X15762444Y-13762008D01*
X15762444Y-13762008D02*
X15771967Y-13771531D01*
X15771967Y-13771531D02*
X15781491Y-13790579D01*
X15781491Y-13790579D02*
X15791015Y-13828674D01*
X15791015Y-13828674D02*
X15791015Y-13876293D01*
X15791015Y-13876293D02*
X15781491Y-13914388D01*
X15781491Y-13914388D02*
X15771967Y-13933436D01*
X15771967Y-13933436D02*
X15762444Y-13942960D01*
X15762444Y-13942960D02*
X15743396Y-13952484D01*
X15743396Y-13952484D02*
X15724348Y-13952484D01*
X15724348Y-13952484D02*
X15705301Y-13942960D01*
X15705301Y-13942960D02*
X15695777Y-13933436D01*
X15695777Y-13933436D02*
X15686253Y-13914388D01*
X15686253Y-13914388D02*
X15676729Y-13876293D01*
X15676729Y-13876293D02*
X15676729Y-13828674D01*
X15676729Y-13828674D02*
X15686253Y-13790579D01*
X15686253Y-13790579D02*
X15695777Y-13771531D01*
X15695777Y-13771531D02*
X15705301Y-13762008D01*
X15705301Y-13762008D02*
X15724348Y-13752484D01*
X15962444Y-13819150D02*
X15962444Y-13952484D01*
X15914825Y-13742960D02*
X15867206Y-13885817D01*
X15867206Y-13885817D02*
X15991015Y-13885817D01*
X16048158Y-13752484D02*
X16181491Y-13752484D01*
X16181491Y-13752484D02*
X16095777Y-13952484D01*
X16248158Y-13771531D02*
X16257682Y-13762008D01*
X16257682Y-13762008D02*
X16276729Y-13752484D01*
X16276729Y-13752484D02*
X16324348Y-13752484D01*
X16324348Y-13752484D02*
X16343396Y-13762008D01*
X16343396Y-13762008D02*
X16352920Y-13771531D01*
X16352920Y-13771531D02*
X16362444Y-13790579D01*
X16362444Y-13790579D02*
X16362444Y-13809627D01*
X16362444Y-13809627D02*
X16352920Y-13838198D01*
X16352920Y-13838198D02*
X16238634Y-13952484D01*
X16238634Y-13952484D02*
X16362444Y-13952484D01*
X16438634Y-13752484D02*
X16438634Y-13790579D01*
X16514825Y-13752484D02*
X16514825Y-13790579D01*
X16810063Y-14028674D02*
X16800539Y-14019150D01*
X16800539Y-14019150D02*
X16781491Y-13990579D01*
X16781491Y-13990579D02*
X16771968Y-13971531D01*
X16771968Y-13971531D02*
X16762444Y-13942960D01*
X16762444Y-13942960D02*
X16752920Y-13895341D01*
X16752920Y-13895341D02*
X16752920Y-13857246D01*
X16752920Y-13857246D02*
X16762444Y-13809627D01*
X16762444Y-13809627D02*
X16771968Y-13781055D01*
X16771968Y-13781055D02*
X16781491Y-13762008D01*
X16781491Y-13762008D02*
X16800539Y-13733436D01*
X16800539Y-13733436D02*
X16810063Y-13723912D01*
X16971968Y-13819150D02*
X16971968Y-13952484D01*
X16924349Y-13742960D02*
X16876730Y-13885817D01*
X16876730Y-13885817D02*
X17000539Y-13885817D01*
X17229111Y-13952484D02*
X17229111Y-13752484D01*
X17314825Y-13952484D02*
X17314825Y-13847722D01*
X17314825Y-13847722D02*
X17305301Y-13828674D01*
X17305301Y-13828674D02*
X17286253Y-13819150D01*
X17286253Y-13819150D02*
X17257682Y-13819150D01*
X17257682Y-13819150D02*
X17238634Y-13828674D01*
X17238634Y-13828674D02*
X17229111Y-13838198D01*
X17438634Y-13952484D02*
X17419587Y-13942960D01*
X17419587Y-13942960D02*
X17410063Y-13933436D01*
X17410063Y-13933436D02*
X17400539Y-13914388D01*
X17400539Y-13914388D02*
X17400539Y-13857246D01*
X17400539Y-13857246D02*
X17410063Y-13838198D01*
X17410063Y-13838198D02*
X17419587Y-13828674D01*
X17419587Y-13828674D02*
X17438634Y-13819150D01*
X17438634Y-13819150D02*
X17467206Y-13819150D01*
X17467206Y-13819150D02*
X17486253Y-13828674D01*
X17486253Y-13828674D02*
X17495777Y-13838198D01*
X17495777Y-13838198D02*
X17505301Y-13857246D01*
X17505301Y-13857246D02*
X17505301Y-13914388D01*
X17505301Y-13914388D02*
X17495777Y-13933436D01*
X17495777Y-13933436D02*
X17486253Y-13942960D01*
X17486253Y-13942960D02*
X17467206Y-13952484D01*
X17467206Y-13952484D02*
X17438634Y-13952484D01*
X17619587Y-13952484D02*
X17600539Y-13942960D01*
X17600539Y-13942960D02*
X17591015Y-13923912D01*
X17591015Y-13923912D02*
X17591015Y-13752484D01*
X17771968Y-13942960D02*
X17752920Y-13952484D01*
X17752920Y-13952484D02*
X17714825Y-13952484D01*
X17714825Y-13952484D02*
X17695777Y-13942960D01*
X17695777Y-13942960D02*
X17686253Y-13923912D01*
X17686253Y-13923912D02*
X17686253Y-13847722D01*
X17686253Y-13847722D02*
X17695777Y-13828674D01*
X17695777Y-13828674D02*
X17714825Y-13819150D01*
X17714825Y-13819150D02*
X17752920Y-13819150D01*
X17752920Y-13819150D02*
X17771968Y-13828674D01*
X17771968Y-13828674D02*
X17781492Y-13847722D01*
X17781492Y-13847722D02*
X17781492Y-13866769D01*
X17781492Y-13866769D02*
X17686253Y-13885817D01*
X17857682Y-13942960D02*
X17876730Y-13952484D01*
X17876730Y-13952484D02*
X17914825Y-13952484D01*
X17914825Y-13952484D02*
X17933873Y-13942960D01*
X17933873Y-13942960D02*
X17943396Y-13923912D01*
X17943396Y-13923912D02*
X17943396Y-13914388D01*
X17943396Y-13914388D02*
X17933873Y-13895341D01*
X17933873Y-13895341D02*
X17914825Y-13885817D01*
X17914825Y-13885817D02*
X17886253Y-13885817D01*
X17886253Y-13885817D02*
X17867206Y-13876293D01*
X17867206Y-13876293D02*
X17857682Y-13857246D01*
X17857682Y-13857246D02*
X17857682Y-13847722D01*
X17857682Y-13847722D02*
X17867206Y-13828674D01*
X17867206Y-13828674D02*
X17886253Y-13819150D01*
X17886253Y-13819150D02*
X17914825Y-13819150D01*
X17914825Y-13819150D02*
X17933873Y-13828674D01*
X18010063Y-14028674D02*
X18019587Y-14019150D01*
X18019587Y-14019150D02*
X18038634Y-13990579D01*
X18038634Y-13990579D02*
X18048158Y-13971531D01*
X18048158Y-13971531D02*
X18057682Y-13942960D01*
X18057682Y-13942960D02*
X18067206Y-13895341D01*
X18067206Y-13895341D02*
X18067206Y-13857246D01*
X18067206Y-13857246D02*
X18057682Y-13809627D01*
X18057682Y-13809627D02*
X18048158Y-13781055D01*
X18048158Y-13781055D02*
X18038634Y-13762008D01*
X18038634Y-13762008D02*
X18019587Y-13733436D01*
X18019587Y-13733436D02*
X18010063Y-13723912D01*
X13035000Y-14025000D02*
X13235000Y-14225000D01*
X13235000Y-14025000D02*
X13035000Y-14225000D01*
X13235000Y-14125000D02*
G75*
G03*
X13035000Y-14125000I-100000J0D01*
G01*
X13035000Y-14125000D02*
G75*
G03*
X13235000Y-14125000I100000J0D01*
G01*
X13486253Y-14035531D02*
X13495777Y-14026008D01*
X13495777Y-14026008D02*
X13514824Y-14016484D01*
X13514824Y-14016484D02*
X13562443Y-14016484D01*
X13562443Y-14016484D02*
X13581491Y-14026008D01*
X13581491Y-14026008D02*
X13591015Y-14035531D01*
X13591015Y-14035531D02*
X13600539Y-14054579D01*
X13600539Y-14054579D02*
X13600539Y-14073627D01*
X13600539Y-14073627D02*
X13591015Y-14102198D01*
X13591015Y-14102198D02*
X13476729Y-14216484D01*
X13476729Y-14216484D02*
X13600539Y-14216484D01*
X13686253Y-14197436D02*
X13695777Y-14206960D01*
X13695777Y-14206960D02*
X13686253Y-14216484D01*
X13686253Y-14216484D02*
X13676729Y-14206960D01*
X13676729Y-14206960D02*
X13686253Y-14197436D01*
X13686253Y-14197436D02*
X13686253Y-14216484D01*
X13771967Y-14035531D02*
X13781491Y-14026008D01*
X13781491Y-14026008D02*
X13800539Y-14016484D01*
X13800539Y-14016484D02*
X13848158Y-14016484D01*
X13848158Y-14016484D02*
X13867205Y-14026008D01*
X13867205Y-14026008D02*
X13876729Y-14035531D01*
X13876729Y-14035531D02*
X13886253Y-14054579D01*
X13886253Y-14054579D02*
X13886253Y-14073627D01*
X13886253Y-14073627D02*
X13876729Y-14102198D01*
X13876729Y-14102198D02*
X13762443Y-14216484D01*
X13762443Y-14216484D02*
X13886253Y-14216484D01*
X14010062Y-14016484D02*
X14029110Y-14016484D01*
X14029110Y-14016484D02*
X14048158Y-14026008D01*
X14048158Y-14026008D02*
X14057682Y-14035531D01*
X14057682Y-14035531D02*
X14067205Y-14054579D01*
X14067205Y-14054579D02*
X14076729Y-14092674D01*
X14076729Y-14092674D02*
X14076729Y-14140293D01*
X14076729Y-14140293D02*
X14067205Y-14178388D01*
X14067205Y-14178388D02*
X14057682Y-14197436D01*
X14057682Y-14197436D02*
X14048158Y-14206960D01*
X14048158Y-14206960D02*
X14029110Y-14216484D01*
X14029110Y-14216484D02*
X14010062Y-14216484D01*
X14010062Y-14216484D02*
X13991015Y-14206960D01*
X13991015Y-14206960D02*
X13981491Y-14197436D01*
X13981491Y-14197436D02*
X13971967Y-14178388D01*
X13971967Y-14178388D02*
X13962443Y-14140293D01*
X13962443Y-14140293D02*
X13962443Y-14092674D01*
X13962443Y-14092674D02*
X13971967Y-14054579D01*
X13971967Y-14054579D02*
X13981491Y-14035531D01*
X13981491Y-14035531D02*
X13991015Y-14026008D01*
X13991015Y-14026008D02*
X14010062Y-14016484D01*
X14200539Y-14016484D02*
X14219586Y-14016484D01*
X14219586Y-14016484D02*
X14238634Y-14026008D01*
X14238634Y-14026008D02*
X14248158Y-14035531D01*
X14248158Y-14035531D02*
X14257682Y-14054579D01*
X14257682Y-14054579D02*
X14267205Y-14092674D01*
X14267205Y-14092674D02*
X14267205Y-14140293D01*
X14267205Y-14140293D02*
X14257682Y-14178388D01*
X14257682Y-14178388D02*
X14248158Y-14197436D01*
X14248158Y-14197436D02*
X14238634Y-14206960D01*
X14238634Y-14206960D02*
X14219586Y-14216484D01*
X14219586Y-14216484D02*
X14200539Y-14216484D01*
X14200539Y-14216484D02*
X14181491Y-14206960D01*
X14181491Y-14206960D02*
X14171967Y-14197436D01*
X14171967Y-14197436D02*
X14162443Y-14178388D01*
X14162443Y-14178388D02*
X14152920Y-14140293D01*
X14152920Y-14140293D02*
X14152920Y-14092674D01*
X14152920Y-14092674D02*
X14162443Y-14054579D01*
X14162443Y-14054579D02*
X14171967Y-14035531D01*
X14171967Y-14035531D02*
X14181491Y-14026008D01*
X14181491Y-14026008D02*
X14200539Y-14016484D01*
X14352920Y-14216484D02*
X14352920Y-14083150D01*
X14352920Y-14102198D02*
X14362443Y-14092674D01*
X14362443Y-14092674D02*
X14381491Y-14083150D01*
X14381491Y-14083150D02*
X14410063Y-14083150D01*
X14410063Y-14083150D02*
X14429110Y-14092674D01*
X14429110Y-14092674D02*
X14438634Y-14111722D01*
X14438634Y-14111722D02*
X14438634Y-14216484D01*
X14438634Y-14111722D02*
X14448158Y-14092674D01*
X14448158Y-14092674D02*
X14467205Y-14083150D01*
X14467205Y-14083150D02*
X14495777Y-14083150D01*
X14495777Y-14083150D02*
X14514824Y-14092674D01*
X14514824Y-14092674D02*
X14524348Y-14111722D01*
X14524348Y-14111722D02*
X14524348Y-14216484D01*
X14619586Y-14216484D02*
X14619586Y-14083150D01*
X14619586Y-14102198D02*
X14629110Y-14092674D01*
X14629110Y-14092674D02*
X14648158Y-14083150D01*
X14648158Y-14083150D02*
X14676729Y-14083150D01*
X14676729Y-14083150D02*
X14695777Y-14092674D01*
X14695777Y-14092674D02*
X14705301Y-14111722D01*
X14705301Y-14111722D02*
X14705301Y-14216484D01*
X14705301Y-14111722D02*
X14714824Y-14092674D01*
X14714824Y-14092674D02*
X14733872Y-14083150D01*
X14733872Y-14083150D02*
X14762443Y-14083150D01*
X14762443Y-14083150D02*
X14781491Y-14092674D01*
X14781491Y-14092674D02*
X14791015Y-14111722D01*
X14791015Y-14111722D02*
X14791015Y-14216484D01*
X15181491Y-14006960D02*
X15010063Y-14264103D01*
X15438634Y-14016484D02*
X15457682Y-14016484D01*
X15457682Y-14016484D02*
X15476729Y-14026008D01*
X15476729Y-14026008D02*
X15486253Y-14035531D01*
X15486253Y-14035531D02*
X15495777Y-14054579D01*
X15495777Y-14054579D02*
X15505301Y-14092674D01*
X15505301Y-14092674D02*
X15505301Y-14140293D01*
X15505301Y-14140293D02*
X15495777Y-14178388D01*
X15495777Y-14178388D02*
X15486253Y-14197436D01*
X15486253Y-14197436D02*
X15476729Y-14206960D01*
X15476729Y-14206960D02*
X15457682Y-14216484D01*
X15457682Y-14216484D02*
X15438634Y-14216484D01*
X15438634Y-14216484D02*
X15419586Y-14206960D01*
X15419586Y-14206960D02*
X15410063Y-14197436D01*
X15410063Y-14197436D02*
X15400539Y-14178388D01*
X15400539Y-14178388D02*
X15391015Y-14140293D01*
X15391015Y-14140293D02*
X15391015Y-14092674D01*
X15391015Y-14092674D02*
X15400539Y-14054579D01*
X15400539Y-14054579D02*
X15410063Y-14035531D01*
X15410063Y-14035531D02*
X15419586Y-14026008D01*
X15419586Y-14026008D02*
X15438634Y-14016484D01*
X15591015Y-14197436D02*
X15600539Y-14206960D01*
X15600539Y-14206960D02*
X15591015Y-14216484D01*
X15591015Y-14216484D02*
X15581491Y-14206960D01*
X15581491Y-14206960D02*
X15591015Y-14197436D01*
X15591015Y-14197436D02*
X15591015Y-14216484D01*
X15724348Y-14016484D02*
X15743396Y-14016484D01*
X15743396Y-14016484D02*
X15762444Y-14026008D01*
X15762444Y-14026008D02*
X15771967Y-14035531D01*
X15771967Y-14035531D02*
X15781491Y-14054579D01*
X15781491Y-14054579D02*
X15791015Y-14092674D01*
X15791015Y-14092674D02*
X15791015Y-14140293D01*
X15791015Y-14140293D02*
X15781491Y-14178388D01*
X15781491Y-14178388D02*
X15771967Y-14197436D01*
X15771967Y-14197436D02*
X15762444Y-14206960D01*
X15762444Y-14206960D02*
X15743396Y-14216484D01*
X15743396Y-14216484D02*
X15724348Y-14216484D01*
X15724348Y-14216484D02*
X15705301Y-14206960D01*
X15705301Y-14206960D02*
X15695777Y-14197436D01*
X15695777Y-14197436D02*
X15686253Y-14178388D01*
X15686253Y-14178388D02*
X15676729Y-14140293D01*
X15676729Y-14140293D02*
X15676729Y-14092674D01*
X15676729Y-14092674D02*
X15686253Y-14054579D01*
X15686253Y-14054579D02*
X15695777Y-14035531D01*
X15695777Y-14035531D02*
X15705301Y-14026008D01*
X15705301Y-14026008D02*
X15724348Y-14016484D01*
X15905301Y-14102198D02*
X15886253Y-14092674D01*
X15886253Y-14092674D02*
X15876729Y-14083150D01*
X15876729Y-14083150D02*
X15867206Y-14064103D01*
X15867206Y-14064103D02*
X15867206Y-14054579D01*
X15867206Y-14054579D02*
X15876729Y-14035531D01*
X15876729Y-14035531D02*
X15886253Y-14026008D01*
X15886253Y-14026008D02*
X15905301Y-14016484D01*
X15905301Y-14016484D02*
X15943396Y-14016484D01*
X15943396Y-14016484D02*
X15962444Y-14026008D01*
X15962444Y-14026008D02*
X15971967Y-14035531D01*
X15971967Y-14035531D02*
X15981491Y-14054579D01*
X15981491Y-14054579D02*
X15981491Y-14064103D01*
X15981491Y-14064103D02*
X15971967Y-14083150D01*
X15971967Y-14083150D02*
X15962444Y-14092674D01*
X15962444Y-14092674D02*
X15943396Y-14102198D01*
X15943396Y-14102198D02*
X15905301Y-14102198D01*
X15905301Y-14102198D02*
X15886253Y-14111722D01*
X15886253Y-14111722D02*
X15876729Y-14121246D01*
X15876729Y-14121246D02*
X15867206Y-14140293D01*
X15867206Y-14140293D02*
X15867206Y-14178388D01*
X15867206Y-14178388D02*
X15876729Y-14197436D01*
X15876729Y-14197436D02*
X15886253Y-14206960D01*
X15886253Y-14206960D02*
X15905301Y-14216484D01*
X15905301Y-14216484D02*
X15943396Y-14216484D01*
X15943396Y-14216484D02*
X15962444Y-14206960D01*
X15962444Y-14206960D02*
X15971967Y-14197436D01*
X15971967Y-14197436D02*
X15981491Y-14178388D01*
X15981491Y-14178388D02*
X15981491Y-14140293D01*
X15981491Y-14140293D02*
X15971967Y-14121246D01*
X15971967Y-14121246D02*
X15962444Y-14111722D01*
X15962444Y-14111722D02*
X15943396Y-14102198D01*
X16152920Y-14016484D02*
X16114825Y-14016484D01*
X16114825Y-14016484D02*
X16095777Y-14026008D01*
X16095777Y-14026008D02*
X16086253Y-14035531D01*
X16086253Y-14035531D02*
X16067206Y-14064103D01*
X16067206Y-14064103D02*
X16057682Y-14102198D01*
X16057682Y-14102198D02*
X16057682Y-14178388D01*
X16057682Y-14178388D02*
X16067206Y-14197436D01*
X16067206Y-14197436D02*
X16076729Y-14206960D01*
X16076729Y-14206960D02*
X16095777Y-14216484D01*
X16095777Y-14216484D02*
X16133872Y-14216484D01*
X16133872Y-14216484D02*
X16152920Y-14206960D01*
X16152920Y-14206960D02*
X16162444Y-14197436D01*
X16162444Y-14197436D02*
X16171967Y-14178388D01*
X16171967Y-14178388D02*
X16171967Y-14130769D01*
X16171967Y-14130769D02*
X16162444Y-14111722D01*
X16162444Y-14111722D02*
X16152920Y-14102198D01*
X16152920Y-14102198D02*
X16133872Y-14092674D01*
X16133872Y-14092674D02*
X16095777Y-14092674D01*
X16095777Y-14092674D02*
X16076729Y-14102198D01*
X16076729Y-14102198D02*
X16067206Y-14111722D01*
X16067206Y-14111722D02*
X16057682Y-14130769D01*
X16343396Y-14016484D02*
X16305301Y-14016484D01*
X16305301Y-14016484D02*
X16286253Y-14026008D01*
X16286253Y-14026008D02*
X16276729Y-14035531D01*
X16276729Y-14035531D02*
X16257682Y-14064103D01*
X16257682Y-14064103D02*
X16248158Y-14102198D01*
X16248158Y-14102198D02*
X16248158Y-14178388D01*
X16248158Y-14178388D02*
X16257682Y-14197436D01*
X16257682Y-14197436D02*
X16267206Y-14206960D01*
X16267206Y-14206960D02*
X16286253Y-14216484D01*
X16286253Y-14216484D02*
X16324348Y-14216484D01*
X16324348Y-14216484D02*
X16343396Y-14206960D01*
X16343396Y-14206960D02*
X16352920Y-14197436D01*
X16352920Y-14197436D02*
X16362444Y-14178388D01*
X16362444Y-14178388D02*
X16362444Y-14130769D01*
X16362444Y-14130769D02*
X16352920Y-14111722D01*
X16352920Y-14111722D02*
X16343396Y-14102198D01*
X16343396Y-14102198D02*
X16324348Y-14092674D01*
X16324348Y-14092674D02*
X16286253Y-14092674D01*
X16286253Y-14092674D02*
X16267206Y-14102198D01*
X16267206Y-14102198D02*
X16257682Y-14111722D01*
X16257682Y-14111722D02*
X16248158Y-14130769D01*
X16438634Y-14016484D02*
X16438634Y-14054579D01*
X16514825Y-14016484D02*
X16514825Y-14054579D01*
X16810063Y-14292674D02*
X16800539Y-14283150D01*
X16800539Y-14283150D02*
X16781491Y-14254579D01*
X16781491Y-14254579D02*
X16771968Y-14235531D01*
X16771968Y-14235531D02*
X16762444Y-14206960D01*
X16762444Y-14206960D02*
X16752920Y-14159341D01*
X16752920Y-14159341D02*
X16752920Y-14121246D01*
X16752920Y-14121246D02*
X16762444Y-14073627D01*
X16762444Y-14073627D02*
X16771968Y-14045055D01*
X16771968Y-14045055D02*
X16781491Y-14026008D01*
X16781491Y-14026008D02*
X16800539Y-13997436D01*
X16800539Y-13997436D02*
X16810063Y-13987912D01*
X16867206Y-14016484D02*
X16991015Y-14016484D01*
X16991015Y-14016484D02*
X16924349Y-14092674D01*
X16924349Y-14092674D02*
X16952920Y-14092674D01*
X16952920Y-14092674D02*
X16971968Y-14102198D01*
X16971968Y-14102198D02*
X16981491Y-14111722D01*
X16981491Y-14111722D02*
X16991015Y-14130769D01*
X16991015Y-14130769D02*
X16991015Y-14178388D01*
X16991015Y-14178388D02*
X16981491Y-14197436D01*
X16981491Y-14197436D02*
X16971968Y-14206960D01*
X16971968Y-14206960D02*
X16952920Y-14216484D01*
X16952920Y-14216484D02*
X16895777Y-14216484D01*
X16895777Y-14216484D02*
X16876730Y-14206960D01*
X16876730Y-14206960D02*
X16867206Y-14197436D01*
X17229111Y-14216484D02*
X17229111Y-14016484D01*
X17314825Y-14216484D02*
X17314825Y-14111722D01*
X17314825Y-14111722D02*
X17305301Y-14092674D01*
X17305301Y-14092674D02*
X17286253Y-14083150D01*
X17286253Y-14083150D02*
X17257682Y-14083150D01*
X17257682Y-14083150D02*
X17238634Y-14092674D01*
X17238634Y-14092674D02*
X17229111Y-14102198D01*
X17438634Y-14216484D02*
X17419587Y-14206960D01*
X17419587Y-14206960D02*
X17410063Y-14197436D01*
X17410063Y-14197436D02*
X17400539Y-14178388D01*
X17400539Y-14178388D02*
X17400539Y-14121246D01*
X17400539Y-14121246D02*
X17410063Y-14102198D01*
X17410063Y-14102198D02*
X17419587Y-14092674D01*
X17419587Y-14092674D02*
X17438634Y-14083150D01*
X17438634Y-14083150D02*
X17467206Y-14083150D01*
X17467206Y-14083150D02*
X17486253Y-14092674D01*
X17486253Y-14092674D02*
X17495777Y-14102198D01*
X17495777Y-14102198D02*
X17505301Y-14121246D01*
X17505301Y-14121246D02*
X17505301Y-14178388D01*
X17505301Y-14178388D02*
X17495777Y-14197436D01*
X17495777Y-14197436D02*
X17486253Y-14206960D01*
X17486253Y-14206960D02*
X17467206Y-14216484D01*
X17467206Y-14216484D02*
X17438634Y-14216484D01*
X17619587Y-14216484D02*
X17600539Y-14206960D01*
X17600539Y-14206960D02*
X17591015Y-14187912D01*
X17591015Y-14187912D02*
X17591015Y-14016484D01*
X17771968Y-14206960D02*
X17752920Y-14216484D01*
X17752920Y-14216484D02*
X17714825Y-14216484D01*
X17714825Y-14216484D02*
X17695777Y-14206960D01*
X17695777Y-14206960D02*
X17686253Y-14187912D01*
X17686253Y-14187912D02*
X17686253Y-14111722D01*
X17686253Y-14111722D02*
X17695777Y-14092674D01*
X17695777Y-14092674D02*
X17714825Y-14083150D01*
X17714825Y-14083150D02*
X17752920Y-14083150D01*
X17752920Y-14083150D02*
X17771968Y-14092674D01*
X17771968Y-14092674D02*
X17781492Y-14111722D01*
X17781492Y-14111722D02*
X17781492Y-14130769D01*
X17781492Y-14130769D02*
X17686253Y-14149817D01*
X17857682Y-14206960D02*
X17876730Y-14216484D01*
X17876730Y-14216484D02*
X17914825Y-14216484D01*
X17914825Y-14216484D02*
X17933873Y-14206960D01*
X17933873Y-14206960D02*
X17943396Y-14187912D01*
X17943396Y-14187912D02*
X17943396Y-14178388D01*
X17943396Y-14178388D02*
X17933873Y-14159341D01*
X17933873Y-14159341D02*
X17914825Y-14149817D01*
X17914825Y-14149817D02*
X17886253Y-14149817D01*
X17886253Y-14149817D02*
X17867206Y-14140293D01*
X17867206Y-14140293D02*
X17857682Y-14121246D01*
X17857682Y-14121246D02*
X17857682Y-14111722D01*
X17857682Y-14111722D02*
X17867206Y-14092674D01*
X17867206Y-14092674D02*
X17886253Y-14083150D01*
X17886253Y-14083150D02*
X17914825Y-14083150D01*
X17914825Y-14083150D02*
X17933873Y-14092674D01*
X18010063Y-14292674D02*
X18019587Y-14283150D01*
X18019587Y-14283150D02*
X18038634Y-14254579D01*
X18038634Y-14254579D02*
X18048158Y-14235531D01*
X18048158Y-14235531D02*
X18057682Y-14206960D01*
X18057682Y-14206960D02*
X18067206Y-14159341D01*
X18067206Y-14159341D02*
X18067206Y-14121246D01*
X18067206Y-14121246D02*
X18057682Y-14073627D01*
X18057682Y-14073627D02*
X18048158Y-14045055D01*
X18048158Y-14045055D02*
X18038634Y-14026008D01*
X18038634Y-14026008D02*
X18019587Y-13997436D01*
X18019587Y-13997436D02*
X18010063Y-13987912D01*
X13035000Y-14345000D02*
X13235000Y-14545000D01*
X13235000Y-14345000D02*
X13035000Y-14545000D01*
X13135000Y-14345000D02*
X13135000Y-14545000D01*
X13035000Y-14445000D02*
X13235000Y-14445000D01*
X13476729Y-14336484D02*
X13600539Y-14336484D01*
X13600539Y-14336484D02*
X13533872Y-14412674D01*
X13533872Y-14412674D02*
X13562443Y-14412674D01*
X13562443Y-14412674D02*
X13581491Y-14422198D01*
X13581491Y-14422198D02*
X13591015Y-14431722D01*
X13591015Y-14431722D02*
X13600539Y-14450769D01*
X13600539Y-14450769D02*
X13600539Y-14498388D01*
X13600539Y-14498388D02*
X13591015Y-14517436D01*
X13591015Y-14517436D02*
X13581491Y-14526960D01*
X13581491Y-14526960D02*
X13562443Y-14536484D01*
X13562443Y-14536484D02*
X13505301Y-14536484D01*
X13505301Y-14536484D02*
X13486253Y-14526960D01*
X13486253Y-14526960D02*
X13476729Y-14517436D01*
X13686253Y-14517436D02*
X13695777Y-14526960D01*
X13695777Y-14526960D02*
X13686253Y-14536484D01*
X13686253Y-14536484D02*
X13676729Y-14526960D01*
X13676729Y-14526960D02*
X13686253Y-14517436D01*
X13686253Y-14517436D02*
X13686253Y-14536484D01*
X13771967Y-14355531D02*
X13781491Y-14346008D01*
X13781491Y-14346008D02*
X13800539Y-14336484D01*
X13800539Y-14336484D02*
X13848158Y-14336484D01*
X13848158Y-14336484D02*
X13867205Y-14346008D01*
X13867205Y-14346008D02*
X13876729Y-14355531D01*
X13876729Y-14355531D02*
X13886253Y-14374579D01*
X13886253Y-14374579D02*
X13886253Y-14393627D01*
X13886253Y-14393627D02*
X13876729Y-14422198D01*
X13876729Y-14422198D02*
X13762443Y-14536484D01*
X13762443Y-14536484D02*
X13886253Y-14536484D01*
X14010062Y-14336484D02*
X14029110Y-14336484D01*
X14029110Y-14336484D02*
X14048158Y-14346008D01*
X14048158Y-14346008D02*
X14057682Y-14355531D01*
X14057682Y-14355531D02*
X14067205Y-14374579D01*
X14067205Y-14374579D02*
X14076729Y-14412674D01*
X14076729Y-14412674D02*
X14076729Y-14460293D01*
X14076729Y-14460293D02*
X14067205Y-14498388D01*
X14067205Y-14498388D02*
X14057682Y-14517436D01*
X14057682Y-14517436D02*
X14048158Y-14526960D01*
X14048158Y-14526960D02*
X14029110Y-14536484D01*
X14029110Y-14536484D02*
X14010062Y-14536484D01*
X14010062Y-14536484D02*
X13991015Y-14526960D01*
X13991015Y-14526960D02*
X13981491Y-14517436D01*
X13981491Y-14517436D02*
X13971967Y-14498388D01*
X13971967Y-14498388D02*
X13962443Y-14460293D01*
X13962443Y-14460293D02*
X13962443Y-14412674D01*
X13962443Y-14412674D02*
X13971967Y-14374579D01*
X13971967Y-14374579D02*
X13981491Y-14355531D01*
X13981491Y-14355531D02*
X13991015Y-14346008D01*
X13991015Y-14346008D02*
X14010062Y-14336484D01*
X14200539Y-14336484D02*
X14219586Y-14336484D01*
X14219586Y-14336484D02*
X14238634Y-14346008D01*
X14238634Y-14346008D02*
X14248158Y-14355531D01*
X14248158Y-14355531D02*
X14257682Y-14374579D01*
X14257682Y-14374579D02*
X14267205Y-14412674D01*
X14267205Y-14412674D02*
X14267205Y-14460293D01*
X14267205Y-14460293D02*
X14257682Y-14498388D01*
X14257682Y-14498388D02*
X14248158Y-14517436D01*
X14248158Y-14517436D02*
X14238634Y-14526960D01*
X14238634Y-14526960D02*
X14219586Y-14536484D01*
X14219586Y-14536484D02*
X14200539Y-14536484D01*
X14200539Y-14536484D02*
X14181491Y-14526960D01*
X14181491Y-14526960D02*
X14171967Y-14517436D01*
X14171967Y-14517436D02*
X14162443Y-14498388D01*
X14162443Y-14498388D02*
X14152920Y-14460293D01*
X14152920Y-14460293D02*
X14152920Y-14412674D01*
X14152920Y-14412674D02*
X14162443Y-14374579D01*
X14162443Y-14374579D02*
X14171967Y-14355531D01*
X14171967Y-14355531D02*
X14181491Y-14346008D01*
X14181491Y-14346008D02*
X14200539Y-14336484D01*
X14352920Y-14536484D02*
X14352920Y-14403150D01*
X14352920Y-14422198D02*
X14362443Y-14412674D01*
X14362443Y-14412674D02*
X14381491Y-14403150D01*
X14381491Y-14403150D02*
X14410063Y-14403150D01*
X14410063Y-14403150D02*
X14429110Y-14412674D01*
X14429110Y-14412674D02*
X14438634Y-14431722D01*
X14438634Y-14431722D02*
X14438634Y-14536484D01*
X14438634Y-14431722D02*
X14448158Y-14412674D01*
X14448158Y-14412674D02*
X14467205Y-14403150D01*
X14467205Y-14403150D02*
X14495777Y-14403150D01*
X14495777Y-14403150D02*
X14514824Y-14412674D01*
X14514824Y-14412674D02*
X14524348Y-14431722D01*
X14524348Y-14431722D02*
X14524348Y-14536484D01*
X14619586Y-14536484D02*
X14619586Y-14403150D01*
X14619586Y-14422198D02*
X14629110Y-14412674D01*
X14629110Y-14412674D02*
X14648158Y-14403150D01*
X14648158Y-14403150D02*
X14676729Y-14403150D01*
X14676729Y-14403150D02*
X14695777Y-14412674D01*
X14695777Y-14412674D02*
X14705301Y-14431722D01*
X14705301Y-14431722D02*
X14705301Y-14536484D01*
X14705301Y-14431722D02*
X14714824Y-14412674D01*
X14714824Y-14412674D02*
X14733872Y-14403150D01*
X14733872Y-14403150D02*
X14762443Y-14403150D01*
X14762443Y-14403150D02*
X14781491Y-14412674D01*
X14781491Y-14412674D02*
X14791015Y-14431722D01*
X14791015Y-14431722D02*
X14791015Y-14536484D01*
X15181491Y-14326960D02*
X15010063Y-14584103D01*
X15438634Y-14336484D02*
X15457682Y-14336484D01*
X15457682Y-14336484D02*
X15476729Y-14346008D01*
X15476729Y-14346008D02*
X15486253Y-14355531D01*
X15486253Y-14355531D02*
X15495777Y-14374579D01*
X15495777Y-14374579D02*
X15505301Y-14412674D01*
X15505301Y-14412674D02*
X15505301Y-14460293D01*
X15505301Y-14460293D02*
X15495777Y-14498388D01*
X15495777Y-14498388D02*
X15486253Y-14517436D01*
X15486253Y-14517436D02*
X15476729Y-14526960D01*
X15476729Y-14526960D02*
X15457682Y-14536484D01*
X15457682Y-14536484D02*
X15438634Y-14536484D01*
X15438634Y-14536484D02*
X15419586Y-14526960D01*
X15419586Y-14526960D02*
X15410063Y-14517436D01*
X15410063Y-14517436D02*
X15400539Y-14498388D01*
X15400539Y-14498388D02*
X15391015Y-14460293D01*
X15391015Y-14460293D02*
X15391015Y-14412674D01*
X15391015Y-14412674D02*
X15400539Y-14374579D01*
X15400539Y-14374579D02*
X15410063Y-14355531D01*
X15410063Y-14355531D02*
X15419586Y-14346008D01*
X15419586Y-14346008D02*
X15438634Y-14336484D01*
X15591015Y-14517436D02*
X15600539Y-14526960D01*
X15600539Y-14526960D02*
X15591015Y-14536484D01*
X15591015Y-14536484D02*
X15581491Y-14526960D01*
X15581491Y-14526960D02*
X15591015Y-14517436D01*
X15591015Y-14517436D02*
X15591015Y-14536484D01*
X15791015Y-14536484D02*
X15676729Y-14536484D01*
X15733872Y-14536484D02*
X15733872Y-14336484D01*
X15733872Y-14336484D02*
X15714825Y-14365055D01*
X15714825Y-14365055D02*
X15695777Y-14384103D01*
X15695777Y-14384103D02*
X15676729Y-14393627D01*
X15867206Y-14355531D02*
X15876729Y-14346008D01*
X15876729Y-14346008D02*
X15895777Y-14336484D01*
X15895777Y-14336484D02*
X15943396Y-14336484D01*
X15943396Y-14336484D02*
X15962444Y-14346008D01*
X15962444Y-14346008D02*
X15971967Y-14355531D01*
X15971967Y-14355531D02*
X15981491Y-14374579D01*
X15981491Y-14374579D02*
X15981491Y-14393627D01*
X15981491Y-14393627D02*
X15971967Y-14422198D01*
X15971967Y-14422198D02*
X15857682Y-14536484D01*
X15857682Y-14536484D02*
X15981491Y-14536484D01*
X16152920Y-14336484D02*
X16114825Y-14336484D01*
X16114825Y-14336484D02*
X16095777Y-14346008D01*
X16095777Y-14346008D02*
X16086253Y-14355531D01*
X16086253Y-14355531D02*
X16067206Y-14384103D01*
X16067206Y-14384103D02*
X16057682Y-14422198D01*
X16057682Y-14422198D02*
X16057682Y-14498388D01*
X16057682Y-14498388D02*
X16067206Y-14517436D01*
X16067206Y-14517436D02*
X16076729Y-14526960D01*
X16076729Y-14526960D02*
X16095777Y-14536484D01*
X16095777Y-14536484D02*
X16133872Y-14536484D01*
X16133872Y-14536484D02*
X16152920Y-14526960D01*
X16152920Y-14526960D02*
X16162444Y-14517436D01*
X16162444Y-14517436D02*
X16171967Y-14498388D01*
X16171967Y-14498388D02*
X16171967Y-14450769D01*
X16171967Y-14450769D02*
X16162444Y-14431722D01*
X16162444Y-14431722D02*
X16152920Y-14422198D01*
X16152920Y-14422198D02*
X16133872Y-14412674D01*
X16133872Y-14412674D02*
X16095777Y-14412674D01*
X16095777Y-14412674D02*
X16076729Y-14422198D01*
X16076729Y-14422198D02*
X16067206Y-14431722D01*
X16067206Y-14431722D02*
X16057682Y-14450769D01*
X16295777Y-14336484D02*
X16314825Y-14336484D01*
X16314825Y-14336484D02*
X16333872Y-14346008D01*
X16333872Y-14346008D02*
X16343396Y-14355531D01*
X16343396Y-14355531D02*
X16352920Y-14374579D01*
X16352920Y-14374579D02*
X16362444Y-14412674D01*
X16362444Y-14412674D02*
X16362444Y-14460293D01*
X16362444Y-14460293D02*
X16352920Y-14498388D01*
X16352920Y-14498388D02*
X16343396Y-14517436D01*
X16343396Y-14517436D02*
X16333872Y-14526960D01*
X16333872Y-14526960D02*
X16314825Y-14536484D01*
X16314825Y-14536484D02*
X16295777Y-14536484D01*
X16295777Y-14536484D02*
X16276729Y-14526960D01*
X16276729Y-14526960D02*
X16267206Y-14517436D01*
X16267206Y-14517436D02*
X16257682Y-14498388D01*
X16257682Y-14498388D02*
X16248158Y-14460293D01*
X16248158Y-14460293D02*
X16248158Y-14412674D01*
X16248158Y-14412674D02*
X16257682Y-14374579D01*
X16257682Y-14374579D02*
X16267206Y-14355531D01*
X16267206Y-14355531D02*
X16276729Y-14346008D01*
X16276729Y-14346008D02*
X16295777Y-14336484D01*
X16438634Y-14336484D02*
X16438634Y-14374579D01*
X16514825Y-14336484D02*
X16514825Y-14374579D01*
X16810063Y-14612674D02*
X16800539Y-14603150D01*
X16800539Y-14603150D02*
X16781491Y-14574579D01*
X16781491Y-14574579D02*
X16771968Y-14555531D01*
X16771968Y-14555531D02*
X16762444Y-14526960D01*
X16762444Y-14526960D02*
X16752920Y-14479341D01*
X16752920Y-14479341D02*
X16752920Y-14441246D01*
X16752920Y-14441246D02*
X16762444Y-14393627D01*
X16762444Y-14393627D02*
X16771968Y-14365055D01*
X16771968Y-14365055D02*
X16781491Y-14346008D01*
X16781491Y-14346008D02*
X16800539Y-14317436D01*
X16800539Y-14317436D02*
X16810063Y-14307912D01*
X16971968Y-14403150D02*
X16971968Y-14536484D01*
X16924349Y-14326960D02*
X16876730Y-14469817D01*
X16876730Y-14469817D02*
X17000539Y-14469817D01*
X17229111Y-14536484D02*
X17229111Y-14336484D01*
X17314825Y-14536484D02*
X17314825Y-14431722D01*
X17314825Y-14431722D02*
X17305301Y-14412674D01*
X17305301Y-14412674D02*
X17286253Y-14403150D01*
X17286253Y-14403150D02*
X17257682Y-14403150D01*
X17257682Y-14403150D02*
X17238634Y-14412674D01*
X17238634Y-14412674D02*
X17229111Y-14422198D01*
X17438634Y-14536484D02*
X17419587Y-14526960D01*
X17419587Y-14526960D02*
X17410063Y-14517436D01*
X17410063Y-14517436D02*
X17400539Y-14498388D01*
X17400539Y-14498388D02*
X17400539Y-14441246D01*
X17400539Y-14441246D02*
X17410063Y-14422198D01*
X17410063Y-14422198D02*
X17419587Y-14412674D01*
X17419587Y-14412674D02*
X17438634Y-14403150D01*
X17438634Y-14403150D02*
X17467206Y-14403150D01*
X17467206Y-14403150D02*
X17486253Y-14412674D01*
X17486253Y-14412674D02*
X17495777Y-14422198D01*
X17495777Y-14422198D02*
X17505301Y-14441246D01*
X17505301Y-14441246D02*
X17505301Y-14498388D01*
X17505301Y-14498388D02*
X17495777Y-14517436D01*
X17495777Y-14517436D02*
X17486253Y-14526960D01*
X17486253Y-14526960D02*
X17467206Y-14536484D01*
X17467206Y-14536484D02*
X17438634Y-14536484D01*
X17619587Y-14536484D02*
X17600539Y-14526960D01*
X17600539Y-14526960D02*
X17591015Y-14507912D01*
X17591015Y-14507912D02*
X17591015Y-14336484D01*
X17771968Y-14526960D02*
X17752920Y-14536484D01*
X17752920Y-14536484D02*
X17714825Y-14536484D01*
X17714825Y-14536484D02*
X17695777Y-14526960D01*
X17695777Y-14526960D02*
X17686253Y-14507912D01*
X17686253Y-14507912D02*
X17686253Y-14431722D01*
X17686253Y-14431722D02*
X17695777Y-14412674D01*
X17695777Y-14412674D02*
X17714825Y-14403150D01*
X17714825Y-14403150D02*
X17752920Y-14403150D01*
X17752920Y-14403150D02*
X17771968Y-14412674D01*
X17771968Y-14412674D02*
X17781492Y-14431722D01*
X17781492Y-14431722D02*
X17781492Y-14450769D01*
X17781492Y-14450769D02*
X17686253Y-14469817D01*
X17857682Y-14526960D02*
X17876730Y-14536484D01*
X17876730Y-14536484D02*
X17914825Y-14536484D01*
X17914825Y-14536484D02*
X17933873Y-14526960D01*
X17933873Y-14526960D02*
X17943396Y-14507912D01*
X17943396Y-14507912D02*
X17943396Y-14498388D01*
X17943396Y-14498388D02*
X17933873Y-14479341D01*
X17933873Y-14479341D02*
X17914825Y-14469817D01*
X17914825Y-14469817D02*
X17886253Y-14469817D01*
X17886253Y-14469817D02*
X17867206Y-14460293D01*
X17867206Y-14460293D02*
X17857682Y-14441246D01*
X17857682Y-14441246D02*
X17857682Y-14431722D01*
X17857682Y-14431722D02*
X17867206Y-14412674D01*
X17867206Y-14412674D02*
X17886253Y-14403150D01*
X17886253Y-14403150D02*
X17914825Y-14403150D01*
X17914825Y-14403150D02*
X17933873Y-14412674D01*
X18010063Y-14612674D02*
X18019587Y-14603150D01*
X18019587Y-14603150D02*
X18038634Y-14574579D01*
X18038634Y-14574579D02*
X18048158Y-14555531D01*
X18048158Y-14555531D02*
X18057682Y-14526960D01*
X18057682Y-14526960D02*
X18067206Y-14479341D01*
X18067206Y-14479341D02*
X18067206Y-14441246D01*
X18067206Y-14441246D02*
X18057682Y-14393627D01*
X18057682Y-14393627D02*
X18048158Y-14365055D01*
X18048158Y-14365055D02*
X18038634Y-14346008D01*
X18038634Y-14346008D02*
X18019587Y-14317436D01*
X18019587Y-14317436D02*
X18010063Y-14307912D01*
M02*
