%TF.GenerationSoftware,KiCad,Pcbnew,7.0.11*%
%TF.CreationDate,2024-09-10T11:05:52-04:00*%
%TF.ProjectId,prism-pcb,70726973-6d2d-4706-9362-2e6b69636164,1.3*%
%TF.SameCoordinates,Original*%
%TF.FileFunction,Drillmap*%
%TF.FilePolarity,Positive*%
%FSLAX45Y45*%
G04 Gerber Fmt 4.5, Leading zero omitted, Abs format (unit mm)*
G04 Created by KiCad (PCBNEW 7.0.11) date 2024-09-10 11:05:52*
%MOMM*%
%LPD*%
G01*
G04 APERTURE LIST*
%ADD10C,0.100000*%
%ADD11C,0.200000*%
G04 APERTURE END LIST*
D10*
X13240000Y-11710000D02*
X13240000Y-8610000D01*
X17240000Y-8610000D02*
X17240000Y-11710000D01*
X16790000Y-12160000D02*
G75*
G03*
X17240000Y-11710000I0J450000D01*
G01*
X17240000Y-8610000D02*
G75*
G03*
X16790000Y-8160000I-450000J0D01*
G01*
X13240000Y-11710000D02*
G75*
G03*
X13690000Y-12160000I450000J0D01*
G01*
X16790000Y-12160000D02*
X13690000Y-12160000D01*
X13690000Y-8160000D02*
G75*
G03*
X13240000Y-8610000I0J-450000D01*
G01*
X13690000Y-8160000D02*
X16790000Y-8160000D01*
D11*
X13495777Y-12476484D02*
X13495777Y-12276484D01*
X13495777Y-12276484D02*
X13543396Y-12276484D01*
X13543396Y-12276484D02*
X13571967Y-12286008D01*
X13571967Y-12286008D02*
X13591015Y-12305055D01*
X13591015Y-12305055D02*
X13600539Y-12324103D01*
X13600539Y-12324103D02*
X13610062Y-12362198D01*
X13610062Y-12362198D02*
X13610062Y-12390769D01*
X13610062Y-12390769D02*
X13600539Y-12428865D01*
X13600539Y-12428865D02*
X13591015Y-12447912D01*
X13591015Y-12447912D02*
X13571967Y-12466960D01*
X13571967Y-12466960D02*
X13543396Y-12476484D01*
X13543396Y-12476484D02*
X13495777Y-12476484D01*
X13695777Y-12476484D02*
X13695777Y-12343150D01*
X13695777Y-12381246D02*
X13705301Y-12362198D01*
X13705301Y-12362198D02*
X13714824Y-12352674D01*
X13714824Y-12352674D02*
X13733872Y-12343150D01*
X13733872Y-12343150D02*
X13752920Y-12343150D01*
X13819586Y-12476484D02*
X13819586Y-12343150D01*
X13819586Y-12276484D02*
X13810062Y-12286008D01*
X13810062Y-12286008D02*
X13819586Y-12295531D01*
X13819586Y-12295531D02*
X13829110Y-12286008D01*
X13829110Y-12286008D02*
X13819586Y-12276484D01*
X13819586Y-12276484D02*
X13819586Y-12295531D01*
X13943396Y-12476484D02*
X13924348Y-12466960D01*
X13924348Y-12466960D02*
X13914824Y-12447912D01*
X13914824Y-12447912D02*
X13914824Y-12276484D01*
X14048158Y-12476484D02*
X14029110Y-12466960D01*
X14029110Y-12466960D02*
X14019586Y-12447912D01*
X14019586Y-12447912D02*
X14019586Y-12276484D01*
X14276729Y-12476484D02*
X14276729Y-12276484D01*
X14276729Y-12276484D02*
X14343396Y-12419341D01*
X14343396Y-12419341D02*
X14410062Y-12276484D01*
X14410062Y-12276484D02*
X14410062Y-12476484D01*
X14591015Y-12476484D02*
X14591015Y-12371722D01*
X14591015Y-12371722D02*
X14581491Y-12352674D01*
X14581491Y-12352674D02*
X14562443Y-12343150D01*
X14562443Y-12343150D02*
X14524348Y-12343150D01*
X14524348Y-12343150D02*
X14505301Y-12352674D01*
X14591015Y-12466960D02*
X14571967Y-12476484D01*
X14571967Y-12476484D02*
X14524348Y-12476484D01*
X14524348Y-12476484D02*
X14505301Y-12466960D01*
X14505301Y-12466960D02*
X14495777Y-12447912D01*
X14495777Y-12447912D02*
X14495777Y-12428865D01*
X14495777Y-12428865D02*
X14505301Y-12409817D01*
X14505301Y-12409817D02*
X14524348Y-12400293D01*
X14524348Y-12400293D02*
X14571967Y-12400293D01*
X14571967Y-12400293D02*
X14591015Y-12390769D01*
X14686253Y-12343150D02*
X14686253Y-12543150D01*
X14686253Y-12352674D02*
X14705301Y-12343150D01*
X14705301Y-12343150D02*
X14743396Y-12343150D01*
X14743396Y-12343150D02*
X14762443Y-12352674D01*
X14762443Y-12352674D02*
X14771967Y-12362198D01*
X14771967Y-12362198D02*
X14781491Y-12381246D01*
X14781491Y-12381246D02*
X14781491Y-12438388D01*
X14781491Y-12438388D02*
X14771967Y-12457436D01*
X14771967Y-12457436D02*
X14762443Y-12466960D01*
X14762443Y-12466960D02*
X14743396Y-12476484D01*
X14743396Y-12476484D02*
X14705301Y-12476484D01*
X14705301Y-12476484D02*
X14686253Y-12466960D01*
X14867205Y-12457436D02*
X14876729Y-12466960D01*
X14876729Y-12466960D02*
X14867205Y-12476484D01*
X14867205Y-12476484D02*
X14857682Y-12466960D01*
X14857682Y-12466960D02*
X14867205Y-12457436D01*
X14867205Y-12457436D02*
X14867205Y-12476484D01*
X14867205Y-12352674D02*
X14876729Y-12362198D01*
X14876729Y-12362198D02*
X14867205Y-12371722D01*
X14867205Y-12371722D02*
X14857682Y-12362198D01*
X14857682Y-12362198D02*
X14867205Y-12352674D01*
X14867205Y-12352674D02*
X14867205Y-12371722D01*
M02*
