G04 #@! TF.GenerationSoftware,KiCad,Pcbnew,7.0.11*
G04 #@! TF.CreationDate,2024-07-15T13:19:43-04:00*
G04 #@! TF.ProjectId,prism-pcb,70726973-6d2d-4706-9362-2e6b69636164,1.0*
G04 #@! TF.SameCoordinates,Original*
G04 #@! TF.FileFunction,Soldermask,Top*
G04 #@! TF.FilePolarity,Negative*
%FSLAX46Y46*%
G04 Gerber Fmt 4.6, Leading zero omitted, Abs format (unit mm)*
G04 Created by KiCad (PCBNEW 7.0.11) date 2024-07-15 13:19:43*
%MOMM*%
%LPD*%
G01*
G04 APERTURE LIST*
G04 Aperture macros list*
%AMRoundRect*
0 Rectangle with rounded corners*
0 $1 Rounding radius*
0 $2 $3 $4 $5 $6 $7 $8 $9 X,Y pos of 4 corners*
0 Add a 4 corners polygon primitive as box body*
4,1,4,$2,$3,$4,$5,$6,$7,$8,$9,$2,$3,0*
0 Add four circle primitives for the rounded corners*
1,1,$1+$1,$2,$3*
1,1,$1+$1,$4,$5*
1,1,$1+$1,$6,$7*
1,1,$1+$1,$8,$9*
0 Add four rect primitives between the rounded corners*
20,1,$1+$1,$2,$3,$4,$5,0*
20,1,$1+$1,$4,$5,$6,$7,0*
20,1,$1+$1,$6,$7,$8,$9,0*
20,1,$1+$1,$8,$9,$2,$3,0*%
G04 Aperture macros list end*
%ADD10C,0.010000*%
%ADD11C,1.000000*%
%ADD12RoundRect,0.250000X0.312500X0.625000X-0.312500X0.625000X-0.312500X-0.625000X0.312500X-0.625000X0*%
%ADD13RoundRect,0.250000X0.325000X1.100000X-0.325000X1.100000X-0.325000X-1.100000X0.325000X-1.100000X0*%
%ADD14R,1.700000X1.700000*%
%ADD15O,1.700000X1.700000*%
%ADD16C,4.400000*%
%ADD17RoundRect,0.140000X-0.140000X-0.170000X0.140000X-0.170000X0.140000X0.170000X-0.140000X0.170000X0*%
%ADD18C,6.400000*%
%ADD19RoundRect,0.250000X-0.250000X-0.475000X0.250000X-0.475000X0.250000X0.475000X-0.250000X0.475000X0*%
%ADD20R,2.600000X2.300000*%
%ADD21R,1.500000X0.600000*%
%ADD22RoundRect,0.075000X-0.662500X-0.075000X0.662500X-0.075000X0.662500X0.075000X-0.662500X0.075000X0*%
%ADD23RoundRect,0.075000X-0.075000X-0.662500X0.075000X-0.662500X0.075000X0.662500X-0.075000X0.662500X0*%
%ADD24R,5.000000X5.000000*%
%ADD25RoundRect,0.135000X-0.185000X0.135000X-0.185000X-0.135000X0.185000X-0.135000X0.185000X0.135000X0*%
%ADD26RoundRect,0.102000X-0.400000X0.450000X-0.400000X-0.450000X0.400000X-0.450000X0.400000X0.450000X0*%
%ADD27RoundRect,0.225000X0.225000X0.250000X-0.225000X0.250000X-0.225000X-0.250000X0.225000X-0.250000X0*%
%ADD28RoundRect,0.140000X-0.170000X0.140000X-0.170000X-0.140000X0.170000X-0.140000X0.170000X0.140000X0*%
G04 APERTURE END LIST*
D10*
X166751200Y-104351200D02*
X163948800Y-104351200D01*
X163948800Y-103348800D01*
X166751200Y-103348800D01*
X166751200Y-104351200D01*
G36*
X166751200Y-104351200D02*
G01*
X163948800Y-104351200D01*
X163948800Y-103348800D01*
X166751200Y-103348800D01*
X166751200Y-104351200D01*
G37*
X171101200Y-104351200D02*
X167398800Y-104351200D01*
X167398800Y-103348800D01*
X171101200Y-103348800D01*
X171101200Y-104351200D01*
G36*
X171101200Y-104351200D02*
G01*
X167398800Y-104351200D01*
X167398800Y-103348800D01*
X171101200Y-103348800D01*
X171101200Y-104351200D01*
G37*
X166751200Y-102851200D02*
X163948800Y-102851200D01*
X163948800Y-101848800D01*
X166751200Y-101848800D01*
X166751200Y-102851200D01*
G36*
X166751200Y-102851200D02*
G01*
X163948800Y-102851200D01*
X163948800Y-101848800D01*
X166751200Y-101848800D01*
X166751200Y-102851200D01*
G37*
X171101200Y-102851200D02*
X167398800Y-102851200D01*
X167398800Y-101848800D01*
X171101200Y-101848800D01*
X171101200Y-102851200D01*
G36*
X171101200Y-102851200D02*
G01*
X167398800Y-102851200D01*
X167398800Y-101848800D01*
X171101200Y-101848800D01*
X171101200Y-102851200D01*
G37*
X166751200Y-101351200D02*
X163948800Y-101351200D01*
X163948800Y-100348800D01*
X166751200Y-100348800D01*
X166751200Y-101351200D01*
G36*
X166751200Y-101351200D02*
G01*
X163948800Y-101351200D01*
X163948800Y-100348800D01*
X166751200Y-100348800D01*
X166751200Y-101351200D01*
G37*
X171101200Y-101351200D02*
X167398800Y-101351200D01*
X167398800Y-100348800D01*
X171101200Y-100348800D01*
X171101200Y-101351200D01*
G36*
X171101200Y-101351200D02*
G01*
X167398800Y-101351200D01*
X167398800Y-100348800D01*
X171101200Y-100348800D01*
X171101200Y-101351200D01*
G37*
X166751200Y-99851200D02*
X163948800Y-99851200D01*
X163948800Y-98848800D01*
X166751200Y-98848800D01*
X166751200Y-99851200D01*
G36*
X166751200Y-99851200D02*
G01*
X163948800Y-99851200D01*
X163948800Y-98848800D01*
X166751200Y-98848800D01*
X166751200Y-99851200D01*
G37*
X171101200Y-99851200D02*
X167398800Y-99851200D01*
X167398800Y-98848800D01*
X171101200Y-98848800D01*
X171101200Y-99851200D01*
G36*
X171101200Y-99851200D02*
G01*
X167398800Y-99851200D01*
X167398800Y-98848800D01*
X171101200Y-98848800D01*
X171101200Y-99851200D01*
G37*
X152950000Y-114900000D02*
X153900000Y-114900000D01*
X153900000Y-116300000D01*
X152950000Y-116300000D01*
X152950000Y-117300000D01*
X150750000Y-117300000D01*
X150750000Y-116300000D01*
X150100000Y-116300000D01*
X150100000Y-114900000D01*
X150750000Y-114900000D01*
X150750000Y-113900000D01*
X152950000Y-113900000D01*
X152950000Y-114900000D01*
G36*
X152950000Y-114900000D02*
G01*
X153900000Y-114900000D01*
X153900000Y-116300000D01*
X152950000Y-116300000D01*
X152950000Y-117300000D01*
X150750000Y-117300000D01*
X150750000Y-116300000D01*
X150100000Y-116300000D01*
X150100000Y-114900000D01*
X150750000Y-114900000D01*
X150750000Y-113900000D01*
X152950000Y-113900000D01*
X152950000Y-114900000D01*
G37*
X158050000Y-114900000D02*
X158700000Y-114900000D01*
X158700000Y-116300000D01*
X158050000Y-116300000D01*
X158050000Y-117300000D01*
X155850000Y-117300000D01*
X155850000Y-116300000D01*
X154900000Y-116300000D01*
X154900000Y-114900000D01*
X155850000Y-114900000D01*
X155850000Y-113900000D01*
X158050000Y-113900000D01*
X158050000Y-114900000D01*
G36*
X158050000Y-114900000D02*
G01*
X158700000Y-114900000D01*
X158700000Y-116300000D01*
X158050000Y-116300000D01*
X158050000Y-117300000D01*
X155850000Y-117300000D01*
X155850000Y-116300000D01*
X154900000Y-116300000D01*
X154900000Y-114900000D01*
X155850000Y-114900000D01*
X155850000Y-113900000D01*
X158050000Y-113900000D01*
X158050000Y-114900000D01*
G37*
G36*
X146350001Y-107924500D02*
G01*
X146350001Y-108199500D01*
X146299999Y-108249500D01*
X145300001Y-108249500D01*
X145250001Y-108199500D01*
X145250001Y-107924500D01*
X145300001Y-107874500D01*
X146299999Y-107874500D01*
X146350001Y-107924500D01*
G37*
G36*
X146350001Y-107174999D02*
G01*
X146350001Y-107324999D01*
X146299999Y-107375001D01*
X145300001Y-107375001D01*
X145250001Y-107324999D01*
X145250001Y-107174999D01*
X145300001Y-107124999D01*
X146299999Y-107124999D01*
X146350001Y-107174999D01*
G37*
G36*
X146349999Y-106675000D02*
G01*
X146349999Y-106825000D01*
X146299999Y-106875000D01*
X145300001Y-106875000D01*
X145250001Y-106825000D01*
X145250001Y-106675000D01*
X145300001Y-106625000D01*
X146299999Y-106625000D01*
X146349999Y-106675000D01*
G37*
G36*
X145025000Y-107799999D02*
G01*
X145025000Y-108499998D01*
X144975000Y-108550000D01*
X144825000Y-108550000D01*
X144775001Y-108499998D01*
X144775001Y-107799999D01*
X144825000Y-107749999D01*
X144975000Y-107749999D01*
X145025000Y-107799999D01*
G37*
G36*
X144550000Y-107074499D02*
G01*
X144550000Y-108499500D01*
X144500000Y-108549500D01*
X144300000Y-108549500D01*
X144250000Y-108499500D01*
X144250000Y-107074499D01*
X144300000Y-107024499D01*
X144500000Y-107024499D01*
X144550000Y-107074499D01*
G37*
G36*
X144024999Y-107799999D02*
G01*
X144024999Y-108499998D01*
X143975000Y-108549998D01*
X143825000Y-108549998D01*
X143775000Y-108499998D01*
X143775000Y-107799999D01*
X143825000Y-107749999D01*
X143975000Y-107749999D01*
X144024999Y-107799999D01*
G37*
G36*
X143549999Y-107174999D02*
G01*
X143549999Y-107324999D01*
X143499999Y-107375001D01*
X142500001Y-107375001D01*
X142449999Y-107324999D01*
X142449999Y-107174999D01*
X142500001Y-107124999D01*
X143499999Y-107124999D01*
X143549999Y-107174999D01*
G37*
G36*
X143549999Y-106675000D02*
G01*
X143549999Y-106825000D01*
X143499999Y-106875000D01*
X142500001Y-106875000D01*
X142450001Y-106825000D01*
X142450001Y-106675000D01*
X142500001Y-106625000D01*
X143499999Y-106625000D01*
X143549999Y-106675000D01*
G37*
G36*
X143549999Y-107924500D02*
G01*
X143549999Y-108199500D01*
X143499999Y-108249500D01*
X142500001Y-108249500D01*
X142449999Y-108199500D01*
X142449999Y-107924500D01*
X142500001Y-107874500D01*
X143499999Y-107874500D01*
X143549999Y-107924500D01*
G37*
G36*
X145975001Y-104125003D02*
G01*
X145975001Y-104125000D01*
X146025001Y-104175000D01*
X146299999Y-104175000D01*
X146350001Y-104225000D01*
X146350001Y-104375000D01*
X146299999Y-104425000D01*
X146025001Y-104425000D01*
X145975001Y-104474999D01*
X145975001Y-104624999D01*
X146025001Y-104675002D01*
X146299999Y-104674999D01*
X146350001Y-104724999D01*
X146350001Y-104875001D01*
X146299999Y-104924999D01*
X146025001Y-104925001D01*
X145975001Y-104975001D01*
X145975001Y-105125001D01*
X146025001Y-105175001D01*
X146299999Y-105175001D01*
X146350001Y-105225000D01*
X146350001Y-105375000D01*
X146299999Y-105425000D01*
X146025001Y-105425000D01*
X145975001Y-105475000D01*
X145974998Y-105625002D01*
X146025001Y-105675000D01*
X146299999Y-105675002D01*
X146350001Y-105724999D01*
X146350001Y-105875002D01*
X146299999Y-105924999D01*
X146024998Y-105925002D01*
X145975001Y-105975002D01*
X145974996Y-106075027D01*
X145925001Y-106124999D01*
X144899999Y-106124989D01*
X144849999Y-106074999D01*
X144849997Y-104125003D01*
X144899996Y-104075000D01*
X145924998Y-104075000D01*
X145975001Y-104125003D01*
G37*
G36*
X143950003Y-104125003D02*
G01*
X143950001Y-106074999D01*
X143900001Y-106124994D01*
X142874999Y-106124999D01*
X142825004Y-106075022D01*
X142824999Y-105975002D01*
X142775002Y-105924999D01*
X142500001Y-105924999D01*
X142449999Y-105874999D01*
X142449999Y-105724999D01*
X142500001Y-105675002D01*
X142774999Y-105675000D01*
X142824999Y-105625002D01*
X142824999Y-105475000D01*
X142774999Y-105425000D01*
X142500001Y-105425000D01*
X142449999Y-105375000D01*
X142450001Y-105225000D01*
X142500001Y-105175001D01*
X142774999Y-105175001D01*
X142824999Y-105125001D01*
X142824999Y-104975001D01*
X142774999Y-104925001D01*
X142500001Y-104924999D01*
X142449999Y-104875001D01*
X142449999Y-104724999D01*
X142500001Y-104674999D01*
X142774999Y-104674999D01*
X142824999Y-104624999D01*
X142824999Y-104474999D01*
X142774999Y-104425000D01*
X142500001Y-104425000D01*
X142449999Y-104375000D01*
X142450001Y-104225000D01*
X142500001Y-104175000D01*
X142774999Y-104175000D01*
X142824999Y-104125000D01*
X142824999Y-104125003D01*
X142874999Y-104075000D01*
X143900001Y-104075000D01*
X143950003Y-104125003D01*
G37*
X152950000Y-86900000D02*
X153900000Y-86900000D01*
X153900000Y-88300000D01*
X152950000Y-88300000D01*
X152950000Y-89300000D01*
X150750000Y-89300000D01*
X150750000Y-88300000D01*
X150100000Y-88300000D01*
X150100000Y-86900000D01*
X150750000Y-86900000D01*
X150750000Y-85900000D01*
X152950000Y-85900000D01*
X152950000Y-86900000D01*
G36*
X152950000Y-86900000D02*
G01*
X153900000Y-86900000D01*
X153900000Y-88300000D01*
X152950000Y-88300000D01*
X152950000Y-89300000D01*
X150750000Y-89300000D01*
X150750000Y-88300000D01*
X150100000Y-88300000D01*
X150100000Y-86900000D01*
X150750000Y-86900000D01*
X150750000Y-85900000D01*
X152950000Y-85900000D01*
X152950000Y-86900000D01*
G37*
X158050000Y-86900000D02*
X158700000Y-86900000D01*
X158700000Y-88300000D01*
X158050000Y-88300000D01*
X158050000Y-89300000D01*
X155850000Y-89300000D01*
X155850000Y-88300000D01*
X154900000Y-88300000D01*
X154900000Y-86900000D01*
X155850000Y-86900000D01*
X155850000Y-85900000D01*
X158050000Y-85900000D01*
X158050000Y-86900000D01*
G36*
X158050000Y-86900000D02*
G01*
X158700000Y-86900000D01*
X158700000Y-88300000D01*
X158050000Y-88300000D01*
X158050000Y-89300000D01*
X155850000Y-89300000D01*
X155850000Y-88300000D01*
X154900000Y-88300000D01*
X154900000Y-86900000D01*
X155850000Y-86900000D01*
X155850000Y-85900000D01*
X158050000Y-85900000D01*
X158050000Y-86900000D01*
G37*
D11*
X139400000Y-82600000D03*
D12*
X151862500Y-109100000D03*
X148937500Y-109100000D03*
D13*
X148375000Y-113600000D03*
X145425000Y-113600000D03*
D14*
X141130000Y-91600000D03*
D15*
X143670000Y-91600000D03*
D16*
X142400000Y-111600000D03*
X162400000Y-91600000D03*
X162400000Y-111600000D03*
D17*
X153920000Y-94600000D03*
X154880000Y-94600000D03*
X158420000Y-101100000D03*
X159380000Y-101100000D03*
D18*
X167900000Y-117100000D03*
D17*
X158420000Y-102600000D03*
X159380000Y-102600000D03*
D19*
X153450000Y-110600000D03*
X155350000Y-110600000D03*
D17*
X153920000Y-95600000D03*
X154880000Y-95600000D03*
D20*
X136650000Y-108750000D03*
X136650000Y-94450000D03*
D21*
X139400000Y-97100000D03*
X139400000Y-98100001D03*
X139400000Y-99100001D03*
X139400000Y-100100002D03*
X139400000Y-101100002D03*
X139400000Y-102100000D03*
X139400000Y-103100001D03*
X139400000Y-104100001D03*
X139400000Y-105100002D03*
X139400000Y-106100002D03*
D19*
X153450000Y-92600000D03*
X155350000Y-92600000D03*
D22*
X148237500Y-98850000D03*
X148237500Y-99350000D03*
X148237500Y-99850000D03*
X148237500Y-100350000D03*
X148237500Y-100850000D03*
X148237500Y-101350000D03*
X148237500Y-101850000D03*
X148237500Y-102350000D03*
X148237500Y-102850000D03*
X148237500Y-103350000D03*
X148237500Y-103850000D03*
X148237500Y-104350000D03*
D23*
X149650000Y-105762500D03*
X150150000Y-105762500D03*
X150650000Y-105762500D03*
X151150000Y-105762500D03*
X151650000Y-105762500D03*
X152150000Y-105762500D03*
X152650000Y-105762500D03*
X153150000Y-105762500D03*
X153650000Y-105762500D03*
X154150000Y-105762500D03*
X154650000Y-105762500D03*
X155150000Y-105762500D03*
D22*
X156562500Y-104350000D03*
X156562500Y-103850000D03*
X156562500Y-103350000D03*
X156562500Y-102850000D03*
X156562500Y-102350000D03*
X156562500Y-101850000D03*
X156562500Y-101350000D03*
X156562500Y-100850000D03*
X156562500Y-100350000D03*
X156562500Y-99850000D03*
X156562500Y-99350000D03*
X156562500Y-98850000D03*
D23*
X155150000Y-97437500D03*
X154650000Y-97437500D03*
X154150000Y-97437500D03*
X153650000Y-97437500D03*
X153150000Y-97437500D03*
X152650000Y-97437500D03*
X152150000Y-97437500D03*
X151650000Y-97437500D03*
X151150000Y-97437500D03*
X150650000Y-97437500D03*
X150150000Y-97437500D03*
X149650000Y-97437500D03*
D24*
X152400000Y-101600000D03*
D17*
X153920000Y-108600000D03*
X154880000Y-108600000D03*
D12*
X151862500Y-94100000D03*
X148937500Y-94100000D03*
D25*
X158400000Y-99090000D03*
X158400000Y-100110000D03*
D17*
X144920000Y-101600000D03*
X145880000Y-101600000D03*
D26*
X146125000Y-100025000D03*
X146125000Y-98175000D03*
X144675000Y-98175000D03*
X144675000Y-100025000D03*
D17*
X147420000Y-107100000D03*
X148380000Y-107100000D03*
D18*
X136900000Y-86100000D03*
D27*
X158675000Y-97600000D03*
X157125000Y-97600000D03*
D25*
X158400000Y-103590000D03*
X158400000Y-104610000D03*
D28*
X141400000Y-107620000D03*
X141400000Y-108580000D03*
D11*
X165400000Y-120600000D03*
D17*
X147420000Y-106100000D03*
X148380000Y-106100000D03*
D18*
X167900000Y-86100000D03*
D11*
X165400000Y-82600000D03*
D28*
X159400000Y-99120000D03*
X159400000Y-100080000D03*
D11*
X139400000Y-120600000D03*
D18*
X136900000Y-117100000D03*
M02*
