G04 #@! TF.GenerationSoftware,KiCad,Pcbnew,7.0.11*
G04 #@! TF.CreationDate,2024-09-10T11:03:46-04:00*
G04 #@! TF.ProjectId,prism-pcb,70726973-6d2d-4706-9362-2e6b69636164,1.3*
G04 #@! TF.SameCoordinates,Original*
G04 #@! TF.FileFunction,Legend,Bot*
G04 #@! TF.FilePolarity,Positive*
%FSLAX46Y46*%
G04 Gerber Fmt 4.6, Leading zero omitted, Abs format (unit mm)*
G04 Created by KiCad (PCBNEW 7.0.11) date 2024-09-10 11:03:46*
%MOMM*%
%LPD*%
G01*
G04 APERTURE LIST*
G04 Aperture macros list*
%AMRoundRect*
0 Rectangle with rounded corners*
0 $1 Rounding radius*
0 $2 $3 $4 $5 $6 $7 $8 $9 X,Y pos of 4 corners*
0 Add a 4 corners polygon primitive as box body*
4,1,4,$2,$3,$4,$5,$6,$7,$8,$9,$2,$3,0*
0 Add four circle primitives for the rounded corners*
1,1,$1+$1,$2,$3*
1,1,$1+$1,$4,$5*
1,1,$1+$1,$6,$7*
1,1,$1+$1,$8,$9*
0 Add four rect primitives between the rounded corners*
20,1,$1+$1,$2,$3,$4,$5,0*
20,1,$1+$1,$4,$5,$6,$7,0*
20,1,$1+$1,$6,$7,$8,$9,0*
20,1,$1+$1,$8,$9,$2,$3,0*%
G04 Aperture macros list end*
%ADD10C,0.125000*%
%ADD11C,0.250000*%
%ADD12C,0.200000*%
%ADD13R,1.700000X1.700000*%
%ADD14O,1.700000X1.700000*%
%ADD15C,4.400000*%
%ADD16C,6.400000*%
%ADD17RoundRect,0.250000X-1.550000X0.650000X-1.550000X-0.650000X1.550000X-0.650000X1.550000X0.650000X0*%
%ADD18O,3.600000X1.800000*%
G04 APERTURE END LIST*
D10*
X137651380Y-103730952D02*
X137675190Y-103778571D01*
X137675190Y-103778571D02*
X137675190Y-103850000D01*
X137675190Y-103850000D02*
X137651380Y-103921428D01*
X137651380Y-103921428D02*
X137603761Y-103969047D01*
X137603761Y-103969047D02*
X137556142Y-103992857D01*
X137556142Y-103992857D02*
X137460904Y-104016666D01*
X137460904Y-104016666D02*
X137389476Y-104016666D01*
X137389476Y-104016666D02*
X137294238Y-103992857D01*
X137294238Y-103992857D02*
X137246619Y-103969047D01*
X137246619Y-103969047D02*
X137199000Y-103921428D01*
X137199000Y-103921428D02*
X137175190Y-103850000D01*
X137175190Y-103850000D02*
X137175190Y-103802381D01*
X137175190Y-103802381D02*
X137199000Y-103730952D01*
X137199000Y-103730952D02*
X137222809Y-103707143D01*
X137222809Y-103707143D02*
X137389476Y-103707143D01*
X137389476Y-103707143D02*
X137389476Y-103802381D01*
X137175190Y-103492857D02*
X137675190Y-103492857D01*
X137675190Y-103492857D02*
X137175190Y-103207143D01*
X137175190Y-103207143D02*
X137675190Y-103207143D01*
X137175190Y-102969047D02*
X137675190Y-102969047D01*
X137675190Y-102969047D02*
X137675190Y-102849999D01*
X137675190Y-102849999D02*
X137651380Y-102778571D01*
X137651380Y-102778571D02*
X137603761Y-102730952D01*
X137603761Y-102730952D02*
X137556142Y-102707142D01*
X137556142Y-102707142D02*
X137460904Y-102683333D01*
X137460904Y-102683333D02*
X137389476Y-102683333D01*
X137389476Y-102683333D02*
X137294238Y-102707142D01*
X137294238Y-102707142D02*
X137246619Y-102730952D01*
X137246619Y-102730952D02*
X137199000Y-102778571D01*
X137199000Y-102778571D02*
X137175190Y-102849999D01*
X137175190Y-102849999D02*
X137175190Y-102969047D01*
X137675190Y-107445236D02*
X137175190Y-107278570D01*
X137175190Y-107278570D02*
X137675190Y-107111903D01*
X137318047Y-106969046D02*
X137318047Y-106730951D01*
X137175190Y-107016665D02*
X137675190Y-106849999D01*
X137675190Y-106849999D02*
X137175190Y-106683332D01*
X137318047Y-106540475D02*
X137318047Y-106302380D01*
X137175190Y-106588094D02*
X137675190Y-106421428D01*
X137675190Y-106421428D02*
X137175190Y-106254761D01*
X137199000Y-100528570D02*
X137175190Y-100457142D01*
X137175190Y-100457142D02*
X137175190Y-100338094D01*
X137175190Y-100338094D02*
X137199000Y-100290475D01*
X137199000Y-100290475D02*
X137222809Y-100266666D01*
X137222809Y-100266666D02*
X137270428Y-100242856D01*
X137270428Y-100242856D02*
X137318047Y-100242856D01*
X137318047Y-100242856D02*
X137365666Y-100266666D01*
X137365666Y-100266666D02*
X137389476Y-100290475D01*
X137389476Y-100290475D02*
X137413285Y-100338094D01*
X137413285Y-100338094D02*
X137437095Y-100433332D01*
X137437095Y-100433332D02*
X137460904Y-100480951D01*
X137460904Y-100480951D02*
X137484714Y-100504761D01*
X137484714Y-100504761D02*
X137532333Y-100528570D01*
X137532333Y-100528570D02*
X137579952Y-100528570D01*
X137579952Y-100528570D02*
X137627571Y-100504761D01*
X137627571Y-100504761D02*
X137651380Y-100480951D01*
X137651380Y-100480951D02*
X137675190Y-100433332D01*
X137675190Y-100433332D02*
X137675190Y-100314285D01*
X137675190Y-100314285D02*
X137651380Y-100242856D01*
X137675190Y-100076190D02*
X137175190Y-99957142D01*
X137175190Y-99957142D02*
X137532333Y-99861904D01*
X137532333Y-99861904D02*
X137175190Y-99766666D01*
X137175190Y-99766666D02*
X137675190Y-99647619D01*
X137175190Y-99457142D02*
X137675190Y-99457142D01*
X137675190Y-99457142D02*
X137675190Y-99266666D01*
X137675190Y-99266666D02*
X137651380Y-99219047D01*
X137651380Y-99219047D02*
X137627571Y-99195237D01*
X137627571Y-99195237D02*
X137579952Y-99171428D01*
X137579952Y-99171428D02*
X137508523Y-99171428D01*
X137508523Y-99171428D02*
X137460904Y-99195237D01*
X137460904Y-99195237D02*
X137437095Y-99219047D01*
X137437095Y-99219047D02*
X137413285Y-99266666D01*
X137413285Y-99266666D02*
X137413285Y-99457142D01*
X137199000Y-97040475D02*
X137175190Y-96969047D01*
X137175190Y-96969047D02*
X137175190Y-96849999D01*
X137175190Y-96849999D02*
X137199000Y-96802380D01*
X137199000Y-96802380D02*
X137222809Y-96778571D01*
X137222809Y-96778571D02*
X137270428Y-96754761D01*
X137270428Y-96754761D02*
X137318047Y-96754761D01*
X137318047Y-96754761D02*
X137365666Y-96778571D01*
X137365666Y-96778571D02*
X137389476Y-96802380D01*
X137389476Y-96802380D02*
X137413285Y-96849999D01*
X137413285Y-96849999D02*
X137437095Y-96945237D01*
X137437095Y-96945237D02*
X137460904Y-96992856D01*
X137460904Y-96992856D02*
X137484714Y-97016666D01*
X137484714Y-97016666D02*
X137532333Y-97040475D01*
X137532333Y-97040475D02*
X137579952Y-97040475D01*
X137579952Y-97040475D02*
X137627571Y-97016666D01*
X137627571Y-97016666D02*
X137651380Y-96992856D01*
X137651380Y-96992856D02*
X137675190Y-96945237D01*
X137675190Y-96945237D02*
X137675190Y-96826190D01*
X137675190Y-96826190D02*
X137651380Y-96754761D01*
X137675190Y-96588095D02*
X137175190Y-96469047D01*
X137175190Y-96469047D02*
X137532333Y-96373809D01*
X137532333Y-96373809D02*
X137175190Y-96278571D01*
X137175190Y-96278571D02*
X137675190Y-96159524D01*
X137175190Y-95969047D02*
X137675190Y-95969047D01*
X137675190Y-95969047D02*
X137175190Y-95683333D01*
X137175190Y-95683333D02*
X137675190Y-95683333D01*
D11*
X140680380Y-89242857D02*
X141156571Y-89576190D01*
X140680380Y-89814285D02*
X141680380Y-89814285D01*
X141680380Y-89814285D02*
X141680380Y-89433333D01*
X141680380Y-89433333D02*
X141632761Y-89338095D01*
X141632761Y-89338095D02*
X141585142Y-89290476D01*
X141585142Y-89290476D02*
X141489904Y-89242857D01*
X141489904Y-89242857D02*
X141347047Y-89242857D01*
X141347047Y-89242857D02*
X141251809Y-89290476D01*
X141251809Y-89290476D02*
X141204190Y-89338095D01*
X141204190Y-89338095D02*
X141156571Y-89433333D01*
X141156571Y-89433333D02*
X141156571Y-89814285D01*
X141204190Y-88814285D02*
X141204190Y-88480952D01*
X140680380Y-88338095D02*
X140680380Y-88814285D01*
X140680380Y-88814285D02*
X141680380Y-88814285D01*
X141680380Y-88814285D02*
X141680380Y-88338095D01*
X140680380Y-87909523D02*
X141680380Y-87909523D01*
X141680380Y-87909523D02*
X141680380Y-87671428D01*
X141680380Y-87671428D02*
X141632761Y-87528571D01*
X141632761Y-87528571D02*
X141537523Y-87433333D01*
X141537523Y-87433333D02*
X141442285Y-87385714D01*
X141442285Y-87385714D02*
X141251809Y-87338095D01*
X141251809Y-87338095D02*
X141108952Y-87338095D01*
X141108952Y-87338095D02*
X140918476Y-87385714D01*
X140918476Y-87385714D02*
X140823238Y-87433333D01*
X140823238Y-87433333D02*
X140728000Y-87528571D01*
X140728000Y-87528571D02*
X140680380Y-87671428D01*
X140680380Y-87671428D02*
X140680380Y-87909523D01*
X143744190Y-89457142D02*
X143696571Y-89314285D01*
X143696571Y-89314285D02*
X143648952Y-89266666D01*
X143648952Y-89266666D02*
X143553714Y-89219047D01*
X143553714Y-89219047D02*
X143410857Y-89219047D01*
X143410857Y-89219047D02*
X143315619Y-89266666D01*
X143315619Y-89266666D02*
X143268000Y-89314285D01*
X143268000Y-89314285D02*
X143220380Y-89409523D01*
X143220380Y-89409523D02*
X143220380Y-89790475D01*
X143220380Y-89790475D02*
X144220380Y-89790475D01*
X144220380Y-89790475D02*
X144220380Y-89457142D01*
X144220380Y-89457142D02*
X144172761Y-89361904D01*
X144172761Y-89361904D02*
X144125142Y-89314285D01*
X144125142Y-89314285D02*
X144029904Y-89266666D01*
X144029904Y-89266666D02*
X143934666Y-89266666D01*
X143934666Y-89266666D02*
X143839428Y-89314285D01*
X143839428Y-89314285D02*
X143791809Y-89361904D01*
X143791809Y-89361904D02*
X143744190Y-89457142D01*
X143744190Y-89457142D02*
X143744190Y-89790475D01*
X143220380Y-88314285D02*
X143220380Y-88790475D01*
X143220380Y-88790475D02*
X144220380Y-88790475D01*
X144220380Y-87980951D02*
X143410857Y-87980951D01*
X143410857Y-87980951D02*
X143315619Y-87933332D01*
X143315619Y-87933332D02*
X143268000Y-87885713D01*
X143268000Y-87885713D02*
X143220380Y-87790475D01*
X143220380Y-87790475D02*
X143220380Y-87599999D01*
X143220380Y-87599999D02*
X143268000Y-87504761D01*
X143268000Y-87504761D02*
X143315619Y-87457142D01*
X143315619Y-87457142D02*
X143410857Y-87409523D01*
X143410857Y-87409523D02*
X144220380Y-87409523D01*
X143209523Y-93525809D02*
X143542856Y-93525809D01*
X143542856Y-94049619D02*
X143542856Y-93049619D01*
X143542856Y-93049619D02*
X143066666Y-93049619D01*
X142733332Y-93763904D02*
X142257142Y-93763904D01*
X142828570Y-94049619D02*
X142495237Y-93049619D01*
X142495237Y-93049619D02*
X142161904Y-94049619D01*
X141828570Y-94049619D02*
X141828570Y-93049619D01*
X141828570Y-93049619D02*
X141257142Y-94049619D01*
X141257142Y-94049619D02*
X141257142Y-93049619D01*
D12*
X140150000Y-90600000D02*
X144650000Y-90600000D01*
X144650000Y-90600000D02*
X144650000Y-92600000D01*
X144650000Y-92600000D02*
X140150000Y-92600000D01*
X140150000Y-92600000D02*
X140150000Y-90600000D01*
%LPC*%
D13*
X141130000Y-91600000D03*
D14*
X143670000Y-91600000D03*
D15*
X142400000Y-111600000D03*
X162400000Y-91600000D03*
X162400000Y-111600000D03*
D16*
X167900000Y-117100000D03*
D17*
X139650000Y-96350000D03*
D18*
X139650000Y-99850000D03*
X139650000Y-103350000D03*
X139650000Y-106850000D03*
D16*
X136900000Y-86100000D03*
X167900000Y-86100000D03*
X136900000Y-117100000D03*
%LPD*%
M02*
