M48
; DRILL file {KiCad 7.0.11} date Mon 21 Oct 2024 01:12:54 PM EDT
; FORMAT={-:-/ absolute / metric / decimal}
; #@! TF.CreationDate,2024-10-21T13:12:54-04:00
; #@! TF.GenerationSoftware,Kicad,Pcbnew,7.0.11
; #@! TF.FileFunction,Plated,1,2,PTH
FMAT,2
METRIC
; #@! TA.AperFunction,Plated,PTH,ComponentDrill
T1C0.250
; #@! TA.AperFunction,Plated,PTH,ViaDrill
T2C0.500
; #@! TA.AperFunction,Plated,PTH,ComponentDrill
T3C0.600
; #@! TA.AperFunction,Plated,PTH,ComponentDrill
T4C3.200
%
G90
G05
T1
X150.4Y-99.6
X150.4Y-100.6
X150.4Y-101.6
X150.4Y-102.6
X150.4Y-103.6
X151.4Y-99.6
X151.4Y-100.6
X151.4Y-101.6
X151.4Y-102.6
X151.4Y-103.6
X152.4Y-99.6
X152.4Y-100.6
X152.4Y-101.6
X152.4Y-102.6
X152.4Y-103.6
X153.4Y-99.6
X153.4Y-100.6
X153.4Y-101.6
X153.4Y-102.6
X153.4Y-103.6
X154.4Y-99.6
X154.4Y-100.6
X154.4Y-101.6
X154.4Y-102.6
X154.4Y-103.6
T2
X138.65Y-101.85
X141.4Y-95.6
X141.4Y-102.35
X141.4Y-107.6
X150.65Y-95.85
X150.65Y-107.35
X152.65Y-95.85
X152.65Y-107.35
X154.15Y-90.6
X157.15Y-105.425
X159.083Y-105.359
X163.4Y-99.35
X163.4Y-100.85
X163.4Y-102.35
X163.4Y-103.85
X167.9Y-90.6
T4
X136.9Y-86.1
X136.9Y-117.1
X167.9Y-86.1
X167.9Y-117.1
T3
X139.85Y-97.28G85X138.95Y-97.28
G05
X139.85Y-105.92G85X138.95Y-105.92
G05
M30
