G04 #@! TF.GenerationSoftware,KiCad,Pcbnew,7.0.11*
G04 #@! TF.CreationDate,2024-10-21T13:11:56-04:00*
G04 #@! TF.ProjectId,prism-pcb,70726973-6d2d-4706-9362-2e6b69636164,1.4*
G04 #@! TF.SameCoordinates,Original*
G04 #@! TF.FileFunction,Copper,L2,Bot*
G04 #@! TF.FilePolarity,Positive*
%FSLAX46Y46*%
G04 Gerber Fmt 4.6, Leading zero omitted, Abs format (unit mm)*
G04 Created by KiCad (PCBNEW 7.0.11) date 2024-10-21 13:11:56*
%MOMM*%
%LPD*%
G01*
G04 APERTURE LIST*
G04 #@! TA.AperFunction,ComponentPad*
%ADD10C,6.400000*%
G04 #@! TD*
G04 #@! TA.AperFunction,ComponentPad*
%ADD11O,2.000000X1.100000*%
G04 #@! TD*
G04 #@! TA.AperFunction,HeatsinkPad*
%ADD12C,0.800000*%
G04 #@! TD*
G04 #@! TA.AperFunction,HeatsinkPad*
%ADD13R,5.000000X5.000000*%
G04 #@! TD*
G04 #@! TA.AperFunction,ViaPad*
%ADD14C,1.000000*%
G04 #@! TD*
G04 #@! TA.AperFunction,Conductor*
%ADD15C,0.600000*%
G04 #@! TD*
G04 #@! TA.AperFunction,Conductor*
%ADD16C,0.300000*%
G04 #@! TD*
G04 #@! TA.AperFunction,Conductor*
%ADD17C,0.200000*%
G04 #@! TD*
G04 APERTURE END LIST*
D10*
X167900000Y-117100000D03*
D11*
X139400000Y-105920000D03*
X139400000Y-97280000D03*
D12*
X150400000Y-99600000D03*
X150400000Y-100600000D03*
X150400000Y-101600000D03*
X150400000Y-102600000D03*
X150400000Y-103600000D03*
X151400000Y-99600000D03*
X151400000Y-100600000D03*
X151400000Y-101600000D03*
X151400000Y-102600000D03*
X151400000Y-103600000D03*
X152400000Y-99600000D03*
X152400000Y-100600000D03*
X152400000Y-101600000D03*
D13*
X152400000Y-101600000D03*
D12*
X152400000Y-102600000D03*
X152400000Y-103600000D03*
X153400000Y-99600000D03*
X153400000Y-100600000D03*
X153400000Y-101600000D03*
X153400000Y-102600000D03*
X153400000Y-103600000D03*
X154400000Y-99600000D03*
X154400000Y-100600000D03*
X154400000Y-101600000D03*
X154400000Y-102600000D03*
X154400000Y-103600000D03*
D10*
X136900000Y-86100000D03*
X167900000Y-86100000D03*
X136900000Y-117100000D03*
D14*
X141400000Y-95600000D03*
X141400000Y-107600000D03*
X167900000Y-90600000D03*
X154150000Y-90600000D03*
X163400000Y-99350000D03*
X150650000Y-95850000D03*
X163400000Y-100850000D03*
X152650000Y-95850000D03*
X163400000Y-102350000D03*
X150650000Y-107350000D03*
X152650000Y-107350000D03*
X163400000Y-103850000D03*
X157150000Y-105425000D03*
X138650000Y-101850000D03*
X141400000Y-102350000D03*
X159082949Y-105358903D03*
D15*
X141400000Y-90600000D02*
X136900000Y-86100000D01*
X136900000Y-117100000D02*
X167900000Y-117100000D01*
X154150000Y-86100000D02*
X167900000Y-86100000D01*
X167900000Y-86100000D02*
X167900000Y-90600000D01*
X141400000Y-112600000D02*
X136900000Y-117100000D01*
X136900000Y-86100000D02*
X154150000Y-86100000D01*
D16*
X154150000Y-90600000D02*
X154150000Y-86100000D01*
D15*
X141400000Y-107600000D02*
X141400000Y-112600000D01*
X167900000Y-117100000D02*
X167900000Y-90600000D01*
X141400000Y-95600000D02*
X141400000Y-90600000D01*
X158900000Y-94850000D02*
X163400000Y-99350000D01*
X151650000Y-94850000D02*
X158900000Y-94850000D01*
X150650000Y-95850000D02*
X151650000Y-94850000D01*
X158400000Y-95850000D02*
X163400000Y-100850000D01*
X152650000Y-95850000D02*
X158400000Y-95850000D01*
X151650000Y-106350000D02*
X159650000Y-106350000D01*
X162150000Y-103850000D02*
X162150000Y-102850000D01*
X150650000Y-107350000D02*
X151650000Y-106350000D01*
X162650000Y-102350000D02*
X163400000Y-102350000D01*
X162150000Y-102850000D02*
X162650000Y-102350000D01*
X159650000Y-106350000D02*
X162150000Y-103850000D01*
X159900000Y-107350000D02*
X163400000Y-103850000D01*
X152650000Y-107350000D02*
X159900000Y-107350000D01*
D17*
X157150000Y-105425000D02*
X142225000Y-105425000D01*
X142225000Y-105425000D02*
X138650000Y-101850000D01*
X158324046Y-104600000D02*
X143650000Y-104600000D01*
X143650000Y-104600000D02*
X141400000Y-102350000D01*
X159082949Y-105358903D02*
X158324046Y-104600000D01*
G04 #@! TA.AperFunction,Conductor*
G36*
X167902292Y-81900605D02*
G01*
X168282906Y-81918202D01*
X168292001Y-81919044D01*
X168667139Y-81971374D01*
X168676108Y-81973051D01*
X169044788Y-82059764D01*
X169053583Y-82062266D01*
X169412690Y-82182627D01*
X169421217Y-82185930D01*
X169767695Y-82338915D01*
X169775869Y-82342985D01*
X170106752Y-82527285D01*
X170114527Y-82532099D01*
X170426991Y-82746143D01*
X170434288Y-82751654D01*
X170725659Y-82993604D01*
X170732417Y-82999764D01*
X171000235Y-83267582D01*
X171006395Y-83274340D01*
X171248345Y-83565711D01*
X171253856Y-83573008D01*
X171467900Y-83885472D01*
X171472714Y-83893247D01*
X171657011Y-84224124D01*
X171661087Y-84232310D01*
X171814069Y-84578782D01*
X171817372Y-84587309D01*
X171937733Y-84946416D01*
X171940235Y-84955211D01*
X172026946Y-85323881D01*
X172028627Y-85332870D01*
X172080954Y-85707993D01*
X172081797Y-85717098D01*
X172099394Y-86097707D01*
X172099500Y-86102279D01*
X172099500Y-117097720D01*
X172099394Y-117102292D01*
X172081797Y-117482901D01*
X172080954Y-117492006D01*
X172028627Y-117867129D01*
X172026946Y-117876118D01*
X171940235Y-118244788D01*
X171937733Y-118253583D01*
X171817372Y-118612690D01*
X171814069Y-118621217D01*
X171661087Y-118967689D01*
X171657011Y-118975875D01*
X171472714Y-119306752D01*
X171467900Y-119314527D01*
X171253856Y-119626991D01*
X171248345Y-119634288D01*
X171006395Y-119925659D01*
X171000235Y-119932417D01*
X170732417Y-120200235D01*
X170725659Y-120206395D01*
X170434288Y-120448345D01*
X170426991Y-120453856D01*
X170114527Y-120667900D01*
X170106752Y-120672714D01*
X169775875Y-120857011D01*
X169767689Y-120861087D01*
X169421217Y-121014069D01*
X169412690Y-121017372D01*
X169053583Y-121137733D01*
X169044788Y-121140235D01*
X168676118Y-121226946D01*
X168667129Y-121228627D01*
X168292006Y-121280954D01*
X168282901Y-121281797D01*
X167902293Y-121299394D01*
X167897721Y-121299500D01*
X136902279Y-121299500D01*
X136897707Y-121299394D01*
X136517098Y-121281797D01*
X136507993Y-121280954D01*
X136132870Y-121228627D01*
X136123881Y-121226946D01*
X135755211Y-121140235D01*
X135746416Y-121137733D01*
X135387309Y-121017372D01*
X135378782Y-121014069D01*
X135032310Y-120861087D01*
X135024124Y-120857011D01*
X134693247Y-120672714D01*
X134685472Y-120667900D01*
X134373008Y-120453856D01*
X134365711Y-120448345D01*
X134074340Y-120206395D01*
X134067582Y-120200235D01*
X133799764Y-119932417D01*
X133793604Y-119925659D01*
X133551654Y-119634288D01*
X133546143Y-119626991D01*
X133332099Y-119314527D01*
X133327285Y-119306752D01*
X133142988Y-118975875D01*
X133138912Y-118967689D01*
X132985930Y-118621217D01*
X132982627Y-118612690D01*
X132862266Y-118253583D01*
X132859764Y-118244788D01*
X132835120Y-118140008D01*
X132773051Y-117876108D01*
X132771374Y-117867139D01*
X132719044Y-117492001D01*
X132718202Y-117482901D01*
X132700606Y-117102292D01*
X132700553Y-117100000D01*
X133495006Y-117100000D01*
X133514965Y-117468143D01*
X133574614Y-117831979D01*
X133673242Y-118187206D01*
X133673246Y-118187217D01*
X133809711Y-118529721D01*
X133982403Y-118855453D01*
X134189306Y-119160611D01*
X134189313Y-119160621D01*
X134422925Y-119435650D01*
X135699983Y-118158592D01*
X135765130Y-118234870D01*
X135841405Y-118300014D01*
X134567580Y-119573840D01*
X134695655Y-119695158D01*
X134989156Y-119918272D01*
X134989161Y-119918275D01*
X135305070Y-120108352D01*
X135639676Y-120263157D01*
X135989076Y-120380884D01*
X136349128Y-120460137D01*
X136349127Y-120460137D01*
X136715657Y-120500000D01*
X137084343Y-120500000D01*
X137450872Y-120460137D01*
X137810922Y-120380884D01*
X137810924Y-120380884D01*
X138160323Y-120263157D01*
X138494929Y-120108352D01*
X138810838Y-119918275D01*
X138810843Y-119918272D01*
X139104344Y-119695158D01*
X139232418Y-119573840D01*
X137958593Y-118300015D01*
X138034870Y-118234870D01*
X138100015Y-118158593D01*
X139377073Y-119435651D01*
X139610686Y-119160621D01*
X139610693Y-119160611D01*
X139817596Y-118855453D01*
X139990288Y-118529721D01*
X140126753Y-118187217D01*
X140126757Y-118187206D01*
X140225385Y-117831979D01*
X140285034Y-117468143D01*
X140304993Y-117100000D01*
X164495006Y-117100000D01*
X164514965Y-117468143D01*
X164574614Y-117831979D01*
X164673242Y-118187206D01*
X164673246Y-118187217D01*
X164809711Y-118529721D01*
X164982403Y-118855453D01*
X165189306Y-119160611D01*
X165189313Y-119160621D01*
X165422925Y-119435650D01*
X166699983Y-118158592D01*
X166765130Y-118234870D01*
X166841405Y-118300014D01*
X165567580Y-119573840D01*
X165695655Y-119695158D01*
X165989156Y-119918272D01*
X165989161Y-119918275D01*
X166305070Y-120108352D01*
X166639676Y-120263157D01*
X166989076Y-120380884D01*
X167349128Y-120460137D01*
X167349127Y-120460137D01*
X167715657Y-120500000D01*
X168084343Y-120500000D01*
X168450872Y-120460137D01*
X168810922Y-120380884D01*
X168810924Y-120380884D01*
X169160323Y-120263157D01*
X169494929Y-120108352D01*
X169810838Y-119918275D01*
X169810843Y-119918272D01*
X170104344Y-119695158D01*
X170232418Y-119573840D01*
X168958593Y-118300015D01*
X169034870Y-118234870D01*
X169100015Y-118158593D01*
X170377073Y-119435651D01*
X170610686Y-119160621D01*
X170610693Y-119160611D01*
X170817596Y-118855453D01*
X170990288Y-118529721D01*
X171126753Y-118187217D01*
X171126757Y-118187206D01*
X171225385Y-117831979D01*
X171285034Y-117468143D01*
X171304993Y-117100000D01*
X171285034Y-116731856D01*
X171225385Y-116368020D01*
X171126757Y-116012793D01*
X171126753Y-116012782D01*
X170990288Y-115670278D01*
X170817596Y-115344546D01*
X170610693Y-115039388D01*
X170610686Y-115039378D01*
X170377072Y-114764347D01*
X169100014Y-116041404D01*
X169034870Y-115965130D01*
X168958592Y-115899983D01*
X170232418Y-114626158D01*
X170104344Y-114504841D01*
X169810843Y-114281727D01*
X169810838Y-114281724D01*
X169494929Y-114091647D01*
X169160323Y-113936842D01*
X168810923Y-113819115D01*
X168450871Y-113739862D01*
X168450872Y-113739862D01*
X168084343Y-113700000D01*
X167715657Y-113700000D01*
X167349127Y-113739862D01*
X166989077Y-113819115D01*
X166989075Y-113819115D01*
X166639676Y-113936842D01*
X166305070Y-114091647D01*
X165989161Y-114281724D01*
X165989156Y-114281727D01*
X165695655Y-114504841D01*
X165567580Y-114626158D01*
X166841406Y-115899984D01*
X166765130Y-115965130D01*
X166699984Y-116041406D01*
X165422925Y-114764347D01*
X165189313Y-115039378D01*
X165189306Y-115039388D01*
X164982403Y-115344546D01*
X164809711Y-115670278D01*
X164673246Y-116012782D01*
X164673242Y-116012793D01*
X164574614Y-116368020D01*
X164514965Y-116731856D01*
X164495006Y-117100000D01*
X140304993Y-117100000D01*
X140285034Y-116731856D01*
X140225385Y-116368020D01*
X140126757Y-116012793D01*
X140126753Y-116012782D01*
X139990288Y-115670278D01*
X139817596Y-115344546D01*
X139610693Y-115039388D01*
X139610686Y-115039378D01*
X139377072Y-114764347D01*
X138100014Y-116041404D01*
X138034870Y-115965130D01*
X137958592Y-115899983D01*
X139232418Y-114626158D01*
X139104344Y-114504841D01*
X138810843Y-114281727D01*
X138810838Y-114281724D01*
X138494929Y-114091647D01*
X138160323Y-113936842D01*
X137810923Y-113819115D01*
X137450871Y-113739862D01*
X137450872Y-113739862D01*
X137084343Y-113700000D01*
X136715657Y-113700000D01*
X136349127Y-113739862D01*
X135989077Y-113819115D01*
X135989075Y-113819115D01*
X135639676Y-113936842D01*
X135305070Y-114091647D01*
X134989161Y-114281724D01*
X134989156Y-114281727D01*
X134695655Y-114504841D01*
X134567580Y-114626158D01*
X135841406Y-115899984D01*
X135765130Y-115965130D01*
X135699984Y-116041406D01*
X134422925Y-114764347D01*
X134189313Y-115039378D01*
X134189306Y-115039388D01*
X133982403Y-115344546D01*
X133809711Y-115670278D01*
X133673246Y-116012782D01*
X133673242Y-116012793D01*
X133574614Y-116368020D01*
X133514965Y-116731856D01*
X133495006Y-117100000D01*
X132700553Y-117100000D01*
X132700500Y-117097720D01*
X132700500Y-105963931D01*
X138195668Y-105963931D01*
X138226133Y-106136707D01*
X138295622Y-106297802D01*
X138295623Y-106297804D01*
X138400389Y-106438529D01*
X138400391Y-106438531D01*
X138534783Y-106551300D01*
X138534784Y-106551300D01*
X138534786Y-106551302D01*
X138691567Y-106630040D01*
X138691572Y-106630041D01*
X138691576Y-106630043D01*
X138862277Y-106670500D01*
X138862279Y-106670500D01*
X139893704Y-106670500D01*
X139893709Y-106670500D01*
X140024255Y-106655241D01*
X140189117Y-106595237D01*
X140335696Y-106498830D01*
X140456092Y-106371218D01*
X140543812Y-106219281D01*
X140594130Y-106051210D01*
X140604331Y-105876065D01*
X140595650Y-105826832D01*
X140573866Y-105703292D01*
X140573865Y-105703289D01*
X140504377Y-105542196D01*
X140399610Y-105401470D01*
X140399608Y-105401468D01*
X140265216Y-105288699D01*
X140200361Y-105256128D01*
X140108433Y-105209960D01*
X140108429Y-105209959D01*
X140108423Y-105209956D01*
X139937723Y-105169500D01*
X139937721Y-105169500D01*
X139111073Y-105169500D01*
X139052882Y-105150593D01*
X139016918Y-105101093D01*
X139016918Y-105039907D01*
X139052882Y-104990407D01*
X139071631Y-104979696D01*
X139123718Y-104957071D01*
X139155609Y-104943219D01*
X139267665Y-104852054D01*
X139350971Y-104734037D01*
X139399346Y-104597921D01*
X139409204Y-104453801D01*
X139404410Y-104430732D01*
X139379815Y-104312371D01*
X139379813Y-104312363D01*
X139313355Y-104184107D01*
X139313353Y-104184104D01*
X139302406Y-104172382D01*
X139214755Y-104078531D01*
X139214754Y-104078530D01*
X139091328Y-104003474D01*
X138952228Y-103964500D01*
X138844051Y-103964500D01*
X138736888Y-103979228D01*
X138604389Y-104036781D01*
X138492334Y-104127945D01*
X138409029Y-104245962D01*
X138360653Y-104382078D01*
X138350796Y-104526199D01*
X138380184Y-104667628D01*
X138380186Y-104667636D01*
X138446644Y-104795892D01*
X138446646Y-104795895D01*
X138545245Y-104901469D01*
X138668671Y-104976526D01*
X138694149Y-104983664D01*
X138755985Y-105000990D01*
X138806916Y-105034894D01*
X138828192Y-105092262D01*
X138811685Y-105151178D01*
X138763700Y-105189140D01*
X138763135Y-105189348D01*
X138610882Y-105244763D01*
X138464306Y-105341168D01*
X138464303Y-105341170D01*
X138343909Y-105468780D01*
X138343908Y-105468780D01*
X138256188Y-105620719D01*
X138205870Y-105788786D01*
X138205869Y-105788793D01*
X138195668Y-105963931D01*
X132700500Y-105963931D01*
X132700500Y-101850001D01*
X137944355Y-101850001D01*
X137946026Y-101863764D01*
X137964860Y-102018872D01*
X138025182Y-102177930D01*
X138121817Y-102317929D01*
X138249148Y-102430734D01*
X138399775Y-102509790D01*
X138564944Y-102550500D01*
X138564947Y-102550500D01*
X138735053Y-102550500D01*
X138735056Y-102550500D01*
X138833652Y-102526198D01*
X138894674Y-102530629D01*
X138927346Y-102552317D01*
X141966436Y-105591407D01*
X141974537Y-105602647D01*
X141975516Y-105601909D01*
X141981044Y-105609230D01*
X142015724Y-105640845D01*
X142019032Y-105644003D01*
X142032203Y-105657174D01*
X142032295Y-105657237D01*
X142043042Y-105665750D01*
X142064064Y-105684914D01*
X142064065Y-105684914D01*
X142064067Y-105684916D01*
X142073230Y-105688466D01*
X142093416Y-105699105D01*
X142101519Y-105704656D01*
X142129215Y-105711170D01*
X142142293Y-105715220D01*
X142168827Y-105725500D01*
X142178652Y-105725500D01*
X142201316Y-105728129D01*
X142210881Y-105730379D01*
X142235958Y-105726880D01*
X142239054Y-105726449D01*
X142252731Y-105725500D01*
X151351615Y-105725500D01*
X151409806Y-105744407D01*
X151445770Y-105793907D01*
X151445770Y-105855093D01*
X151410933Y-105903761D01*
X151401645Y-105910712D01*
X151383463Y-105921500D01*
X151376626Y-105924622D01*
X151338430Y-105957719D01*
X151332936Y-105962147D01*
X151321406Y-105970779D01*
X151311235Y-105980950D01*
X151306066Y-105985762D01*
X151267860Y-106018868D01*
X151267856Y-106018872D01*
X151263793Y-106025194D01*
X151250519Y-106041664D01*
X150671682Y-106620503D01*
X150617165Y-106648281D01*
X150601678Y-106649500D01*
X150564941Y-106649500D01*
X150399776Y-106690209D01*
X150249146Y-106769267D01*
X150121818Y-106882069D01*
X150121816Y-106882072D01*
X150025182Y-107022070D01*
X149964860Y-107181129D01*
X149946675Y-107330896D01*
X149944355Y-107350000D01*
X149964860Y-107518872D01*
X150025182Y-107677930D01*
X150121817Y-107817929D01*
X150249148Y-107930734D01*
X150399775Y-108009790D01*
X150564944Y-108050500D01*
X150564947Y-108050500D01*
X150735053Y-108050500D01*
X150735056Y-108050500D01*
X150900225Y-108009790D01*
X151050852Y-107930734D01*
X151178183Y-107817929D01*
X151274818Y-107677930D01*
X151335140Y-107518872D01*
X151351227Y-107386381D01*
X151377009Y-107330896D01*
X151379501Y-107328312D01*
X151828319Y-106879496D01*
X151882835Y-106851719D01*
X151898322Y-106850500D01*
X151954980Y-106850500D01*
X152013171Y-106869407D01*
X152049135Y-106918907D01*
X152049135Y-106980093D01*
X152036455Y-107005739D01*
X152025182Y-107022070D01*
X151964860Y-107181129D01*
X151946675Y-107330896D01*
X151944355Y-107350000D01*
X151964860Y-107518872D01*
X152025182Y-107677930D01*
X152121817Y-107817929D01*
X152249148Y-107930734D01*
X152399775Y-108009790D01*
X152564944Y-108050500D01*
X152564947Y-108050500D01*
X152735053Y-108050500D01*
X152735056Y-108050500D01*
X152900225Y-108009790D01*
X153050852Y-107930734D01*
X153113315Y-107875397D01*
X153169409Y-107850962D01*
X153178964Y-107850500D01*
X159835544Y-107850500D01*
X159856590Y-107852763D01*
X159857830Y-107853032D01*
X159863927Y-107854359D01*
X159914356Y-107850752D01*
X159921419Y-107850500D01*
X159935799Y-107850500D01*
X159950043Y-107848451D01*
X159957043Y-107847698D01*
X160007483Y-107844091D01*
X160014515Y-107841467D01*
X160035022Y-107836233D01*
X160042457Y-107835165D01*
X160088450Y-107814159D01*
X160094952Y-107811466D01*
X160142331Y-107793796D01*
X160148342Y-107789296D01*
X160166549Y-107778492D01*
X160173373Y-107775377D01*
X160211589Y-107742261D01*
X160217053Y-107737858D01*
X160228593Y-107729221D01*
X160238777Y-107719035D01*
X160243921Y-107714245D01*
X160282143Y-107681128D01*
X160286202Y-107674811D01*
X160299477Y-107658335D01*
X163378318Y-104579496D01*
X163432835Y-104551719D01*
X163448322Y-104550500D01*
X163485053Y-104550500D01*
X163485056Y-104550500D01*
X163650225Y-104509790D01*
X163800852Y-104430734D01*
X163928183Y-104317929D01*
X164024818Y-104177930D01*
X164085140Y-104018872D01*
X164105645Y-103850000D01*
X164085140Y-103681128D01*
X164024818Y-103522070D01*
X163928183Y-103382071D01*
X163800852Y-103269266D01*
X163650225Y-103190210D01*
X163650222Y-103190209D01*
X163645365Y-103187660D01*
X163602627Y-103143876D01*
X163593786Y-103083332D01*
X163622221Y-103029156D01*
X163645365Y-103012340D01*
X163650222Y-103009790D01*
X163650225Y-103009790D01*
X163800852Y-102930734D01*
X163928183Y-102817929D01*
X164024818Y-102677930D01*
X164085140Y-102518872D01*
X164105645Y-102350000D01*
X164085140Y-102181128D01*
X164024818Y-102022070D01*
X163928183Y-101882071D01*
X163908726Y-101864834D01*
X163800853Y-101769267D01*
X163800852Y-101769266D01*
X163650225Y-101690210D01*
X163650222Y-101690209D01*
X163645365Y-101687660D01*
X163602627Y-101643876D01*
X163593786Y-101583332D01*
X163622221Y-101529156D01*
X163645365Y-101512340D01*
X163650222Y-101509790D01*
X163650225Y-101509790D01*
X163800852Y-101430734D01*
X163928183Y-101317929D01*
X164024818Y-101177930D01*
X164085140Y-101018872D01*
X164105645Y-100850000D01*
X164085140Y-100681128D01*
X164024818Y-100522070D01*
X163928183Y-100382071D01*
X163800852Y-100269266D01*
X163650225Y-100190210D01*
X163650222Y-100190209D01*
X163645365Y-100187660D01*
X163602627Y-100143876D01*
X163593786Y-100083332D01*
X163622221Y-100029156D01*
X163645365Y-100012340D01*
X163650222Y-100009790D01*
X163650225Y-100009790D01*
X163800852Y-99930734D01*
X163928183Y-99817929D01*
X164024818Y-99677930D01*
X164085140Y-99518872D01*
X164105645Y-99350000D01*
X164085140Y-99181128D01*
X164024818Y-99022070D01*
X163928183Y-98882071D01*
X163800852Y-98769266D01*
X163650225Y-98690210D01*
X163650224Y-98690209D01*
X163650223Y-98690209D01*
X163485058Y-98649500D01*
X163485056Y-98649500D01*
X163448322Y-98649500D01*
X163390131Y-98630593D01*
X163378318Y-98620504D01*
X159299480Y-94541666D01*
X159286199Y-94525183D01*
X159282144Y-94518873D01*
X159282138Y-94518868D01*
X159243932Y-94485762D01*
X159238777Y-94480962D01*
X159228595Y-94470781D01*
X159228593Y-94470779D01*
X159217052Y-94462140D01*
X159211588Y-94457736D01*
X159173373Y-94424623D01*
X159166538Y-94421501D01*
X159148348Y-94410708D01*
X159147293Y-94409918D01*
X159142331Y-94406204D01*
X159142328Y-94406203D01*
X159142327Y-94406202D01*
X159094970Y-94388539D01*
X159088441Y-94385835D01*
X159042457Y-94364835D01*
X159042454Y-94364834D01*
X159035014Y-94363764D01*
X159014520Y-94358533D01*
X159007482Y-94355908D01*
X159007483Y-94355908D01*
X158957062Y-94352302D01*
X158950040Y-94351547D01*
X158935799Y-94349500D01*
X158921419Y-94349500D01*
X158914356Y-94349248D01*
X158910455Y-94348969D01*
X158863927Y-94345641D01*
X158863926Y-94345641D01*
X158863925Y-94345641D01*
X158856590Y-94347237D01*
X158835544Y-94349500D01*
X151714456Y-94349500D01*
X151693410Y-94347237D01*
X151686074Y-94345641D01*
X151686073Y-94345641D01*
X151663760Y-94347237D01*
X151635644Y-94349248D01*
X151628581Y-94349500D01*
X151614201Y-94349500D01*
X151599960Y-94351547D01*
X151592938Y-94352302D01*
X151542517Y-94355908D01*
X151535471Y-94358536D01*
X151514985Y-94363764D01*
X151507547Y-94364834D01*
X151507544Y-94364834D01*
X151507543Y-94364835D01*
X151507542Y-94364835D01*
X151507540Y-94364836D01*
X151461566Y-94385831D01*
X151455039Y-94388535D01*
X151407671Y-94406203D01*
X151407669Y-94406203D01*
X151401646Y-94410712D01*
X151383463Y-94421500D01*
X151376626Y-94424622D01*
X151338430Y-94457719D01*
X151332936Y-94462147D01*
X151321406Y-94470779D01*
X151311235Y-94480950D01*
X151306066Y-94485762D01*
X151267860Y-94518868D01*
X151267856Y-94518872D01*
X151263793Y-94525194D01*
X151250519Y-94541664D01*
X150671682Y-95120503D01*
X150617165Y-95148281D01*
X150601678Y-95149500D01*
X150564941Y-95149500D01*
X150399776Y-95190209D01*
X150249146Y-95269267D01*
X150121818Y-95382069D01*
X150121816Y-95382072D01*
X150025182Y-95522070D01*
X149964860Y-95681129D01*
X149946675Y-95830896D01*
X149944355Y-95850000D01*
X149964860Y-96018872D01*
X150025182Y-96177930D01*
X150121817Y-96317929D01*
X150249148Y-96430734D01*
X150399775Y-96509790D01*
X150564944Y-96550500D01*
X150564947Y-96550500D01*
X150735053Y-96550500D01*
X150735056Y-96550500D01*
X150900225Y-96509790D01*
X151050852Y-96430734D01*
X151178183Y-96317929D01*
X151274818Y-96177930D01*
X151335140Y-96018872D01*
X151351227Y-95886381D01*
X151377009Y-95830896D01*
X151379501Y-95828312D01*
X151828319Y-95379496D01*
X151882835Y-95351719D01*
X151898322Y-95350500D01*
X151954980Y-95350500D01*
X152013171Y-95369407D01*
X152049135Y-95418907D01*
X152049135Y-95480093D01*
X152036456Y-95505736D01*
X152025182Y-95522070D01*
X151964860Y-95681129D01*
X151946675Y-95830896D01*
X151944355Y-95850000D01*
X151964860Y-96018872D01*
X152025182Y-96177930D01*
X152121817Y-96317929D01*
X152249148Y-96430734D01*
X152399775Y-96509790D01*
X152564944Y-96550500D01*
X152564947Y-96550500D01*
X152735053Y-96550500D01*
X152735056Y-96550500D01*
X152900225Y-96509790D01*
X153050852Y-96430734D01*
X153113315Y-96375397D01*
X153169409Y-96350962D01*
X153178964Y-96350500D01*
X158151678Y-96350500D01*
X158209869Y-96369407D01*
X158221682Y-96379496D01*
X162670498Y-100828312D01*
X162698275Y-100882829D01*
X162698772Y-100886382D01*
X162714860Y-101018872D01*
X162775182Y-101177930D01*
X162871817Y-101317929D01*
X162999148Y-101430734D01*
X163149775Y-101509790D01*
X163154634Y-101512340D01*
X163197372Y-101556124D01*
X163206213Y-101616668D01*
X163177778Y-101670845D01*
X163154634Y-101687660D01*
X163149775Y-101690209D01*
X163149775Y-101690210D01*
X163083489Y-101725000D01*
X162999146Y-101769267D01*
X162936685Y-101824603D01*
X162880591Y-101849038D01*
X162871036Y-101849500D01*
X162714456Y-101849500D01*
X162693410Y-101847237D01*
X162686074Y-101845641D01*
X162686073Y-101845641D01*
X162663760Y-101847237D01*
X162635644Y-101849248D01*
X162628581Y-101849500D01*
X162614201Y-101849500D01*
X162599960Y-101851547D01*
X162592938Y-101852302D01*
X162542517Y-101855908D01*
X162535471Y-101858536D01*
X162514985Y-101863764D01*
X162507547Y-101864834D01*
X162507544Y-101864834D01*
X162507543Y-101864835D01*
X162507542Y-101864835D01*
X162507540Y-101864836D01*
X162461566Y-101885831D01*
X162455039Y-101888535D01*
X162407671Y-101906203D01*
X162407669Y-101906203D01*
X162401646Y-101910712D01*
X162383463Y-101921500D01*
X162376626Y-101924622D01*
X162338430Y-101957719D01*
X162332936Y-101962147D01*
X162321406Y-101970779D01*
X162311235Y-101980950D01*
X162306066Y-101985762D01*
X162267860Y-102018868D01*
X162267856Y-102018872D01*
X162263793Y-102025194D01*
X162250519Y-102041665D01*
X161841665Y-102450519D01*
X161825194Y-102463793D01*
X161818872Y-102467856D01*
X161818868Y-102467860D01*
X161785762Y-102506066D01*
X161780950Y-102511235D01*
X161770779Y-102521406D01*
X161762147Y-102532936D01*
X161757719Y-102538430D01*
X161724622Y-102576626D01*
X161721500Y-102583463D01*
X161710712Y-102601646D01*
X161706203Y-102607669D01*
X161706203Y-102607671D01*
X161688535Y-102655039D01*
X161685831Y-102661566D01*
X161664836Y-102707540D01*
X161664834Y-102707547D01*
X161663764Y-102714985D01*
X161658536Y-102735471D01*
X161655908Y-102742517D01*
X161652302Y-102792938D01*
X161651547Y-102799960D01*
X161649500Y-102814200D01*
X161649500Y-102828580D01*
X161649248Y-102835643D01*
X161645641Y-102886073D01*
X161647237Y-102893408D01*
X161649500Y-102914456D01*
X161649500Y-103601677D01*
X161630593Y-103659868D01*
X161620504Y-103671681D01*
X159948033Y-105344151D01*
X159893516Y-105371928D01*
X159833084Y-105362357D01*
X159789819Y-105319092D01*
X159779751Y-105286083D01*
X159768089Y-105190031D01*
X159707767Y-105030973D01*
X159611132Y-104890974D01*
X159610285Y-104890224D01*
X159483802Y-104778170D01*
X159483801Y-104778169D01*
X159333174Y-104699113D01*
X159333173Y-104699112D01*
X159333172Y-104699112D01*
X159168007Y-104658403D01*
X159168005Y-104658403D01*
X158997893Y-104658403D01*
X158917283Y-104678271D01*
X158899296Y-104682704D01*
X158838271Y-104678271D01*
X158805601Y-104656584D01*
X158582611Y-104433594D01*
X158574525Y-104422344D01*
X158573533Y-104423094D01*
X158568004Y-104415772D01*
X158533318Y-104384151D01*
X158530014Y-104380996D01*
X158516846Y-104367828D01*
X158516842Y-104367825D01*
X158516739Y-104367755D01*
X158506008Y-104359255D01*
X158484979Y-104340084D01*
X158475808Y-104336531D01*
X158455632Y-104325895D01*
X158447530Y-104320345D01*
X158447525Y-104320343D01*
X158419843Y-104313832D01*
X158406749Y-104309777D01*
X158380223Y-104299500D01*
X158380219Y-104299500D01*
X158370394Y-104299500D01*
X158347729Y-104296870D01*
X158338165Y-104294621D01*
X158338164Y-104294621D01*
X158309992Y-104298551D01*
X158296315Y-104299500D01*
X154765647Y-104299500D01*
X154707456Y-104280593D01*
X154671492Y-104231093D01*
X154671492Y-104169907D01*
X154705378Y-104121959D01*
X154747905Y-104089325D01*
X154400000Y-103741421D01*
X154052094Y-104089325D01*
X154094621Y-104121958D01*
X154129277Y-104172382D01*
X154127676Y-104233547D01*
X154090428Y-104282089D01*
X154034354Y-104299500D01*
X153765647Y-104299500D01*
X153707456Y-104280593D01*
X153671492Y-104231093D01*
X153671492Y-104169907D01*
X153705378Y-104121959D01*
X153747905Y-104089325D01*
X153400000Y-103741421D01*
X153052094Y-104089325D01*
X153094621Y-104121958D01*
X153129277Y-104172382D01*
X153127676Y-104233547D01*
X153090428Y-104282089D01*
X153034354Y-104299500D01*
X152765647Y-104299500D01*
X152707456Y-104280593D01*
X152671492Y-104231093D01*
X152671492Y-104169907D01*
X152705378Y-104121959D01*
X152747905Y-104089325D01*
X152400000Y-103741421D01*
X152052094Y-104089325D01*
X152094621Y-104121958D01*
X152129277Y-104172382D01*
X152127676Y-104233547D01*
X152090428Y-104282089D01*
X152034354Y-104299500D01*
X151765647Y-104299500D01*
X151707456Y-104280593D01*
X151671492Y-104231093D01*
X151671492Y-104169907D01*
X151705378Y-104121959D01*
X151747905Y-104089325D01*
X151400000Y-103741421D01*
X151052094Y-104089325D01*
X151094621Y-104121958D01*
X151129277Y-104172382D01*
X151127676Y-104233547D01*
X151090428Y-104282089D01*
X151034354Y-104299500D01*
X150765647Y-104299500D01*
X150707456Y-104280593D01*
X150671492Y-104231093D01*
X150671492Y-104169907D01*
X150705378Y-104121959D01*
X150747905Y-104089325D01*
X150400000Y-103741421D01*
X150052094Y-104089325D01*
X150094621Y-104121958D01*
X150129277Y-104172382D01*
X150127676Y-104233547D01*
X150090428Y-104282089D01*
X150034354Y-104299500D01*
X143815479Y-104299500D01*
X143757288Y-104280593D01*
X143745475Y-104270504D01*
X143074971Y-103600000D01*
X149794823Y-103600000D01*
X149815443Y-103756630D01*
X149815444Y-103756631D01*
X149875899Y-103902585D01*
X149875901Y-103902589D01*
X149910673Y-103947904D01*
X150240038Y-103618540D01*
X150271049Y-103618540D01*
X150301543Y-103685313D01*
X150363297Y-103725000D01*
X150417972Y-103725000D01*
X150470433Y-103709596D01*
X150518504Y-103654119D01*
X150526285Y-103599999D01*
X150541421Y-103599999D01*
X150889326Y-103947904D01*
X150893523Y-103947629D01*
X150906475Y-103947629D01*
X150910673Y-103947904D01*
X151240038Y-103618540D01*
X151271049Y-103618540D01*
X151301543Y-103685313D01*
X151363297Y-103725000D01*
X151417972Y-103725000D01*
X151470433Y-103709596D01*
X151518504Y-103654119D01*
X151526285Y-103599999D01*
X151541421Y-103599999D01*
X151889326Y-103947904D01*
X151893523Y-103947629D01*
X151906475Y-103947629D01*
X151910673Y-103947904D01*
X152240038Y-103618540D01*
X152271049Y-103618540D01*
X152301543Y-103685313D01*
X152363297Y-103725000D01*
X152417972Y-103725000D01*
X152470433Y-103709596D01*
X152518504Y-103654119D01*
X152526285Y-103599999D01*
X152541421Y-103599999D01*
X152889326Y-103947904D01*
X152893523Y-103947629D01*
X152906475Y-103947629D01*
X152910673Y-103947904D01*
X153240038Y-103618540D01*
X153271049Y-103618540D01*
X153301543Y-103685313D01*
X153363297Y-103725000D01*
X153417972Y-103725000D01*
X153470433Y-103709596D01*
X153518504Y-103654119D01*
X153526285Y-103599999D01*
X153541421Y-103599999D01*
X153889326Y-103947904D01*
X153893523Y-103947629D01*
X153906475Y-103947629D01*
X153910673Y-103947904D01*
X154240038Y-103618540D01*
X154271049Y-103618540D01*
X154301543Y-103685313D01*
X154363297Y-103725000D01*
X154417972Y-103725000D01*
X154470433Y-103709596D01*
X154518504Y-103654119D01*
X154526285Y-103600000D01*
X154541421Y-103600000D01*
X154889325Y-103947905D01*
X154889326Y-103947905D01*
X154924095Y-103902594D01*
X154924100Y-103902585D01*
X154984555Y-103756631D01*
X154984556Y-103756630D01*
X155005177Y-103600000D01*
X155005177Y-103599999D01*
X154984556Y-103443372D01*
X154984554Y-103443364D01*
X154924098Y-103297410D01*
X154889326Y-103252094D01*
X154889326Y-103252093D01*
X154541421Y-103599999D01*
X154541421Y-103600000D01*
X154526285Y-103600000D01*
X154528951Y-103581460D01*
X154498457Y-103514687D01*
X154436703Y-103475000D01*
X154382028Y-103475000D01*
X154329567Y-103490404D01*
X154281496Y-103545881D01*
X154271049Y-103618540D01*
X154240038Y-103618540D01*
X154258578Y-103600000D01*
X153910671Y-103252093D01*
X153906475Y-103252369D01*
X153893523Y-103252369D01*
X153889326Y-103252093D01*
X153541421Y-103599999D01*
X153526285Y-103599999D01*
X153528951Y-103581460D01*
X153498457Y-103514687D01*
X153436703Y-103475000D01*
X153382028Y-103475000D01*
X153329567Y-103490404D01*
X153281496Y-103545881D01*
X153271049Y-103618540D01*
X153240038Y-103618540D01*
X153258578Y-103600000D01*
X152910671Y-103252093D01*
X152906475Y-103252369D01*
X152893523Y-103252369D01*
X152889326Y-103252093D01*
X152541421Y-103599999D01*
X152526285Y-103599999D01*
X152528951Y-103581460D01*
X152498457Y-103514687D01*
X152436703Y-103475000D01*
X152382028Y-103475000D01*
X152329567Y-103490404D01*
X152281496Y-103545881D01*
X152271049Y-103618540D01*
X152240038Y-103618540D01*
X152258578Y-103600000D01*
X151910671Y-103252093D01*
X151906475Y-103252369D01*
X151893523Y-103252369D01*
X151889326Y-103252093D01*
X151541421Y-103599999D01*
X151526285Y-103599999D01*
X151528951Y-103581460D01*
X151498457Y-103514687D01*
X151436703Y-103475000D01*
X151382028Y-103475000D01*
X151329567Y-103490404D01*
X151281496Y-103545881D01*
X151271049Y-103618540D01*
X151240038Y-103618540D01*
X151258578Y-103600000D01*
X150910671Y-103252093D01*
X150906475Y-103252369D01*
X150893523Y-103252369D01*
X150889326Y-103252093D01*
X150541421Y-103599999D01*
X150526285Y-103599999D01*
X150528951Y-103581460D01*
X150498457Y-103514687D01*
X150436703Y-103475000D01*
X150382028Y-103475000D01*
X150329567Y-103490404D01*
X150281496Y-103545881D01*
X150271049Y-103618540D01*
X150240038Y-103618540D01*
X150258578Y-103600000D01*
X149910672Y-103252094D01*
X149875900Y-103297413D01*
X149815445Y-103443364D01*
X149815443Y-103443372D01*
X149794823Y-103599999D01*
X149794823Y-103600000D01*
X143074971Y-103600000D01*
X142585642Y-103110671D01*
X150052093Y-103110671D01*
X150400000Y-103458578D01*
X150747904Y-103110673D01*
X150747904Y-103110671D01*
X151052093Y-103110671D01*
X151400000Y-103458578D01*
X151747904Y-103110673D01*
X151747904Y-103110671D01*
X152052093Y-103110671D01*
X152400000Y-103458578D01*
X152747904Y-103110673D01*
X152747904Y-103110671D01*
X153052093Y-103110671D01*
X153400000Y-103458578D01*
X153747904Y-103110673D01*
X153747904Y-103110671D01*
X154052093Y-103110671D01*
X154400000Y-103458578D01*
X154747904Y-103110673D01*
X154747629Y-103106475D01*
X154747629Y-103093523D01*
X154747904Y-103089326D01*
X154399999Y-102741421D01*
X154052093Y-103089326D01*
X154052369Y-103093523D01*
X154052369Y-103106475D01*
X154052093Y-103110671D01*
X153747904Y-103110671D01*
X153747629Y-103106475D01*
X153747629Y-103093523D01*
X153747904Y-103089326D01*
X153399999Y-102741421D01*
X153052093Y-103089326D01*
X153052369Y-103093523D01*
X153052369Y-103106475D01*
X153052093Y-103110671D01*
X152747904Y-103110671D01*
X152747629Y-103106475D01*
X152747629Y-103093523D01*
X152747904Y-103089326D01*
X152399999Y-102741421D01*
X152052093Y-103089326D01*
X152052369Y-103093523D01*
X152052369Y-103106475D01*
X152052093Y-103110671D01*
X151747904Y-103110671D01*
X151747629Y-103106475D01*
X151747629Y-103093523D01*
X151747904Y-103089326D01*
X151399999Y-102741421D01*
X151052093Y-103089326D01*
X151052369Y-103093523D01*
X151052369Y-103106475D01*
X151052093Y-103110671D01*
X150747904Y-103110671D01*
X150747629Y-103106475D01*
X150747629Y-103093523D01*
X150747904Y-103089326D01*
X150399999Y-102741421D01*
X150052093Y-103089326D01*
X150052369Y-103093523D01*
X150052369Y-103106475D01*
X150052093Y-103110671D01*
X142585642Y-103110671D01*
X142105296Y-102630325D01*
X142089845Y-102600000D01*
X149794823Y-102600000D01*
X149815443Y-102756630D01*
X149815444Y-102756631D01*
X149875899Y-102902585D01*
X149875901Y-102902589D01*
X149910673Y-102947904D01*
X150240038Y-102618540D01*
X150271049Y-102618540D01*
X150301543Y-102685313D01*
X150363297Y-102725000D01*
X150417972Y-102725000D01*
X150470433Y-102709596D01*
X150518504Y-102654119D01*
X150526285Y-102599999D01*
X150541421Y-102599999D01*
X150889326Y-102947904D01*
X150893523Y-102947629D01*
X150906475Y-102947629D01*
X150910673Y-102947904D01*
X151240038Y-102618540D01*
X151271049Y-102618540D01*
X151301543Y-102685313D01*
X151363297Y-102725000D01*
X151417972Y-102725000D01*
X151470433Y-102709596D01*
X151518504Y-102654119D01*
X151526285Y-102599999D01*
X151541421Y-102599999D01*
X151889326Y-102947904D01*
X151893523Y-102947629D01*
X151906475Y-102947629D01*
X151910673Y-102947904D01*
X152240038Y-102618540D01*
X152271049Y-102618540D01*
X152301543Y-102685313D01*
X152363297Y-102725000D01*
X152417972Y-102725000D01*
X152470433Y-102709596D01*
X152518504Y-102654119D01*
X152526285Y-102599999D01*
X152541421Y-102599999D01*
X152889326Y-102947904D01*
X152893523Y-102947629D01*
X152906475Y-102947629D01*
X152910673Y-102947904D01*
X153240038Y-102618540D01*
X153271049Y-102618540D01*
X153301543Y-102685313D01*
X153363297Y-102725000D01*
X153417972Y-102725000D01*
X153470433Y-102709596D01*
X153518504Y-102654119D01*
X153526285Y-102599999D01*
X153541421Y-102599999D01*
X153889326Y-102947904D01*
X153893523Y-102947629D01*
X153906475Y-102947629D01*
X153910673Y-102947904D01*
X154240038Y-102618540D01*
X154271049Y-102618540D01*
X154301543Y-102685313D01*
X154363297Y-102725000D01*
X154417972Y-102725000D01*
X154470433Y-102709596D01*
X154518504Y-102654119D01*
X154526285Y-102600000D01*
X154541421Y-102600000D01*
X154889325Y-102947905D01*
X154889326Y-102947905D01*
X154924095Y-102902594D01*
X154924100Y-102902585D01*
X154984555Y-102756631D01*
X154984556Y-102756630D01*
X155005177Y-102600000D01*
X155005177Y-102599999D01*
X154984556Y-102443372D01*
X154984554Y-102443364D01*
X154924098Y-102297410D01*
X154889326Y-102252094D01*
X154889326Y-102252093D01*
X154541421Y-102599999D01*
X154541421Y-102600000D01*
X154526285Y-102600000D01*
X154528951Y-102581460D01*
X154498457Y-102514687D01*
X154436703Y-102475000D01*
X154382028Y-102475000D01*
X154329567Y-102490404D01*
X154281496Y-102545881D01*
X154271049Y-102618540D01*
X154240038Y-102618540D01*
X154258578Y-102600000D01*
X153910671Y-102252093D01*
X153906475Y-102252369D01*
X153893523Y-102252369D01*
X153889326Y-102252093D01*
X153541421Y-102599999D01*
X153526285Y-102599999D01*
X153528951Y-102581460D01*
X153498457Y-102514687D01*
X153436703Y-102475000D01*
X153382028Y-102475000D01*
X153329567Y-102490404D01*
X153281496Y-102545881D01*
X153271049Y-102618540D01*
X153240038Y-102618540D01*
X153258578Y-102600000D01*
X152910671Y-102252093D01*
X152906475Y-102252369D01*
X152893523Y-102252369D01*
X152889326Y-102252093D01*
X152541421Y-102599999D01*
X152526285Y-102599999D01*
X152528951Y-102581460D01*
X152498457Y-102514687D01*
X152436703Y-102475000D01*
X152382028Y-102475000D01*
X152329567Y-102490404D01*
X152281496Y-102545881D01*
X152271049Y-102618540D01*
X152240038Y-102618540D01*
X152258578Y-102600000D01*
X151910671Y-102252093D01*
X151906475Y-102252369D01*
X151893523Y-102252369D01*
X151889326Y-102252093D01*
X151541421Y-102599999D01*
X151526285Y-102599999D01*
X151528951Y-102581460D01*
X151498457Y-102514687D01*
X151436703Y-102475000D01*
X151382028Y-102475000D01*
X151329567Y-102490404D01*
X151281496Y-102545881D01*
X151271049Y-102618540D01*
X151240038Y-102618540D01*
X151258578Y-102600000D01*
X150910671Y-102252093D01*
X150906475Y-102252369D01*
X150893523Y-102252369D01*
X150889326Y-102252093D01*
X150541421Y-102599999D01*
X150526285Y-102599999D01*
X150528951Y-102581460D01*
X150498457Y-102514687D01*
X150436703Y-102475000D01*
X150382028Y-102475000D01*
X150329567Y-102490404D01*
X150281496Y-102545881D01*
X150271049Y-102618540D01*
X150240038Y-102618540D01*
X150258578Y-102600000D01*
X149910672Y-102252094D01*
X149875900Y-102297413D01*
X149815445Y-102443364D01*
X149815443Y-102443372D01*
X149794823Y-102599999D01*
X149794823Y-102600000D01*
X142089845Y-102600000D01*
X142077519Y-102575808D01*
X142082735Y-102525211D01*
X142085140Y-102518872D01*
X142105645Y-102350000D01*
X142085140Y-102181128D01*
X142058420Y-102110671D01*
X150052093Y-102110671D01*
X150400000Y-102458578D01*
X150747904Y-102110673D01*
X150747904Y-102110671D01*
X151052093Y-102110671D01*
X151400000Y-102458578D01*
X151747904Y-102110673D01*
X151747904Y-102110671D01*
X152052093Y-102110671D01*
X152400000Y-102458578D01*
X152747904Y-102110673D01*
X152747904Y-102110671D01*
X153052093Y-102110671D01*
X153400000Y-102458578D01*
X153747904Y-102110673D01*
X153747904Y-102110671D01*
X154052093Y-102110671D01*
X154400000Y-102458578D01*
X154747904Y-102110673D01*
X154747629Y-102106475D01*
X154747629Y-102093523D01*
X154747904Y-102089326D01*
X154399999Y-101741421D01*
X154052093Y-102089326D01*
X154052369Y-102093523D01*
X154052369Y-102106475D01*
X154052093Y-102110671D01*
X153747904Y-102110671D01*
X153747629Y-102106475D01*
X153747629Y-102093523D01*
X153747904Y-102089326D01*
X153399999Y-101741421D01*
X153052093Y-102089326D01*
X153052369Y-102093523D01*
X153052369Y-102106475D01*
X153052093Y-102110671D01*
X152747904Y-102110671D01*
X152747629Y-102106475D01*
X152747629Y-102093523D01*
X152747904Y-102089326D01*
X152399999Y-101741421D01*
X152052093Y-102089326D01*
X152052369Y-102093523D01*
X152052369Y-102106475D01*
X152052093Y-102110671D01*
X151747904Y-102110671D01*
X151747629Y-102106475D01*
X151747629Y-102093523D01*
X151747904Y-102089326D01*
X151399999Y-101741421D01*
X151052093Y-102089326D01*
X151052369Y-102093523D01*
X151052369Y-102106475D01*
X151052093Y-102110671D01*
X150747904Y-102110671D01*
X150747629Y-102106475D01*
X150747629Y-102093523D01*
X150747904Y-102089326D01*
X150399999Y-101741421D01*
X150052093Y-102089326D01*
X150052369Y-102093523D01*
X150052369Y-102106475D01*
X150052093Y-102110671D01*
X142058420Y-102110671D01*
X142024818Y-102022070D01*
X141928183Y-101882071D01*
X141908726Y-101864834D01*
X141800853Y-101769267D01*
X141800852Y-101769266D01*
X141650225Y-101690210D01*
X141650224Y-101690209D01*
X141650223Y-101690209D01*
X141485058Y-101649500D01*
X141485056Y-101649500D01*
X141314944Y-101649500D01*
X141314941Y-101649500D01*
X141149776Y-101690209D01*
X140999146Y-101769267D01*
X140871818Y-101882069D01*
X140871816Y-101882072D01*
X140777391Y-102018870D01*
X140775182Y-102022070D01*
X140714860Y-102181128D01*
X140694355Y-102350000D01*
X140714860Y-102518872D01*
X140775182Y-102677930D01*
X140829506Y-102756631D01*
X140871816Y-102817927D01*
X140871818Y-102817930D01*
X140887835Y-102832120D01*
X140999148Y-102930734D01*
X141149775Y-103009790D01*
X141314944Y-103050500D01*
X141314947Y-103050500D01*
X141485053Y-103050500D01*
X141485056Y-103050500D01*
X141583652Y-103026198D01*
X141644674Y-103030629D01*
X141677345Y-103052316D01*
X142572657Y-103947629D01*
X143391437Y-104766409D01*
X143399537Y-104777648D01*
X143400516Y-104776909D01*
X143406044Y-104784230D01*
X143440714Y-104815836D01*
X143444019Y-104818992D01*
X143457200Y-104832172D01*
X143457203Y-104832175D01*
X143457300Y-104832241D01*
X143468049Y-104840756D01*
X143480443Y-104852054D01*
X143489067Y-104859916D01*
X143489070Y-104859917D01*
X143498226Y-104863464D01*
X143518416Y-104874105D01*
X143526520Y-104879657D01*
X143554212Y-104886169D01*
X143567299Y-104890222D01*
X143593827Y-104900500D01*
X143603653Y-104900500D01*
X143626317Y-104903129D01*
X143635882Y-104905379D01*
X143664056Y-104901448D01*
X143677732Y-104900500D01*
X156472236Y-104900500D01*
X156530427Y-104919407D01*
X156566391Y-104968907D01*
X156566391Y-105030093D01*
X156553712Y-105055737D01*
X156535766Y-105081737D01*
X156487150Y-105118887D01*
X156454290Y-105124500D01*
X142390480Y-105124500D01*
X142332289Y-105105593D01*
X142320476Y-105095504D01*
X139355296Y-102130325D01*
X139327519Y-102075808D01*
X139332735Y-102025211D01*
X139335140Y-102018872D01*
X139353974Y-101863764D01*
X139355645Y-101850001D01*
X139355645Y-101849998D01*
X139345842Y-101769266D01*
X139335140Y-101681128D01*
X139304373Y-101600000D01*
X149794823Y-101600000D01*
X149815443Y-101756630D01*
X149815444Y-101756631D01*
X149875899Y-101902585D01*
X149875901Y-101902589D01*
X149910673Y-101947904D01*
X150240038Y-101618540D01*
X150271049Y-101618540D01*
X150301543Y-101685313D01*
X150363297Y-101725000D01*
X150417972Y-101725000D01*
X150470433Y-101709596D01*
X150518504Y-101654119D01*
X150526285Y-101599999D01*
X150541421Y-101599999D01*
X150889326Y-101947904D01*
X150893523Y-101947629D01*
X150906475Y-101947629D01*
X150910673Y-101947904D01*
X151240038Y-101618540D01*
X151271049Y-101618540D01*
X151301543Y-101685313D01*
X151363297Y-101725000D01*
X151417972Y-101725000D01*
X151470433Y-101709596D01*
X151518504Y-101654119D01*
X151526285Y-101599999D01*
X151541421Y-101599999D01*
X151889326Y-101947904D01*
X151893523Y-101947629D01*
X151906475Y-101947629D01*
X151910673Y-101947904D01*
X152240038Y-101618540D01*
X152271049Y-101618540D01*
X152301543Y-101685313D01*
X152363297Y-101725000D01*
X152417972Y-101725000D01*
X152470433Y-101709596D01*
X152518504Y-101654119D01*
X152526285Y-101599999D01*
X152541421Y-101599999D01*
X152889326Y-101947904D01*
X152893523Y-101947629D01*
X152906475Y-101947629D01*
X152910673Y-101947904D01*
X153240038Y-101618540D01*
X153271049Y-101618540D01*
X153301543Y-101685313D01*
X153363297Y-101725000D01*
X153417972Y-101725000D01*
X153470433Y-101709596D01*
X153518504Y-101654119D01*
X153526285Y-101599999D01*
X153541421Y-101599999D01*
X153889326Y-101947904D01*
X153893523Y-101947629D01*
X153906475Y-101947629D01*
X153910673Y-101947904D01*
X154240038Y-101618540D01*
X154271049Y-101618540D01*
X154301543Y-101685313D01*
X154363297Y-101725000D01*
X154417972Y-101725000D01*
X154470433Y-101709596D01*
X154518504Y-101654119D01*
X154526285Y-101600000D01*
X154541421Y-101600000D01*
X154889325Y-101947905D01*
X154889326Y-101947905D01*
X154924095Y-101902594D01*
X154924100Y-101902585D01*
X154984555Y-101756631D01*
X154984556Y-101756630D01*
X155005177Y-101600000D01*
X155005177Y-101599999D01*
X154984556Y-101443372D01*
X154984554Y-101443364D01*
X154924098Y-101297410D01*
X154889326Y-101252094D01*
X154889326Y-101252093D01*
X154541421Y-101599999D01*
X154541421Y-101600000D01*
X154526285Y-101600000D01*
X154528951Y-101581460D01*
X154498457Y-101514687D01*
X154436703Y-101475000D01*
X154382028Y-101475000D01*
X154329567Y-101490404D01*
X154281496Y-101545881D01*
X154271049Y-101618540D01*
X154240038Y-101618540D01*
X154258578Y-101600000D01*
X153910671Y-101252093D01*
X153906475Y-101252369D01*
X153893523Y-101252369D01*
X153889326Y-101252093D01*
X153541421Y-101599999D01*
X153526285Y-101599999D01*
X153528951Y-101581460D01*
X153498457Y-101514687D01*
X153436703Y-101475000D01*
X153382028Y-101475000D01*
X153329567Y-101490404D01*
X153281496Y-101545881D01*
X153271049Y-101618540D01*
X153240038Y-101618540D01*
X153258578Y-101600000D01*
X152910671Y-101252093D01*
X152906475Y-101252369D01*
X152893523Y-101252369D01*
X152889326Y-101252093D01*
X152541421Y-101599999D01*
X152526285Y-101599999D01*
X152528951Y-101581460D01*
X152498457Y-101514687D01*
X152436703Y-101475000D01*
X152382028Y-101475000D01*
X152329567Y-101490404D01*
X152281496Y-101545881D01*
X152271049Y-101618540D01*
X152240038Y-101618540D01*
X152258578Y-101600000D01*
X151910671Y-101252093D01*
X151906475Y-101252369D01*
X151893523Y-101252369D01*
X151889326Y-101252093D01*
X151541421Y-101599999D01*
X151526285Y-101599999D01*
X151528951Y-101581460D01*
X151498457Y-101514687D01*
X151436703Y-101475000D01*
X151382028Y-101475000D01*
X151329567Y-101490404D01*
X151281496Y-101545881D01*
X151271049Y-101618540D01*
X151240038Y-101618540D01*
X151258578Y-101600000D01*
X150910671Y-101252093D01*
X150906475Y-101252369D01*
X150893523Y-101252369D01*
X150889326Y-101252093D01*
X150541421Y-101599999D01*
X150526285Y-101599999D01*
X150528951Y-101581460D01*
X150498457Y-101514687D01*
X150436703Y-101475000D01*
X150382028Y-101475000D01*
X150329567Y-101490404D01*
X150281496Y-101545881D01*
X150271049Y-101618540D01*
X150240038Y-101618540D01*
X150258578Y-101600000D01*
X149910672Y-101252094D01*
X149875900Y-101297413D01*
X149815445Y-101443364D01*
X149815443Y-101443372D01*
X149794823Y-101599999D01*
X149794823Y-101600000D01*
X139304373Y-101600000D01*
X139274818Y-101522070D01*
X139178183Y-101382071D01*
X139050852Y-101269266D01*
X138900225Y-101190210D01*
X138900224Y-101190209D01*
X138900223Y-101190209D01*
X138735058Y-101149500D01*
X138735056Y-101149500D01*
X138564944Y-101149500D01*
X138564941Y-101149500D01*
X138399776Y-101190209D01*
X138249146Y-101269267D01*
X138121818Y-101382069D01*
X138121816Y-101382072D01*
X138088227Y-101430734D01*
X138025182Y-101522070D01*
X137995628Y-101600000D01*
X137964860Y-101681129D01*
X137944355Y-101849998D01*
X137944355Y-101850001D01*
X132700500Y-101850001D01*
X132700500Y-101110671D01*
X150052093Y-101110671D01*
X150400000Y-101458578D01*
X150747904Y-101110673D01*
X150747904Y-101110671D01*
X151052093Y-101110671D01*
X151400000Y-101458578D01*
X151747904Y-101110673D01*
X151747904Y-101110671D01*
X152052093Y-101110671D01*
X152400000Y-101458578D01*
X152747904Y-101110673D01*
X152747904Y-101110671D01*
X153052093Y-101110671D01*
X153400000Y-101458578D01*
X153747904Y-101110673D01*
X153747904Y-101110671D01*
X154052093Y-101110671D01*
X154400000Y-101458578D01*
X154747904Y-101110673D01*
X154747629Y-101106475D01*
X154747629Y-101093523D01*
X154747904Y-101089326D01*
X154399999Y-100741421D01*
X154052093Y-101089326D01*
X154052369Y-101093523D01*
X154052369Y-101106475D01*
X154052093Y-101110671D01*
X153747904Y-101110671D01*
X153747629Y-101106475D01*
X153747629Y-101093523D01*
X153747904Y-101089326D01*
X153399999Y-100741421D01*
X153052093Y-101089326D01*
X153052369Y-101093523D01*
X153052369Y-101106475D01*
X153052093Y-101110671D01*
X152747904Y-101110671D01*
X152747629Y-101106475D01*
X152747629Y-101093523D01*
X152747904Y-101089326D01*
X152399999Y-100741421D01*
X152052093Y-101089326D01*
X152052369Y-101093523D01*
X152052369Y-101106475D01*
X152052093Y-101110671D01*
X151747904Y-101110671D01*
X151747629Y-101106475D01*
X151747629Y-101093523D01*
X151747904Y-101089326D01*
X151399999Y-100741421D01*
X151052093Y-101089326D01*
X151052369Y-101093523D01*
X151052369Y-101106475D01*
X151052093Y-101110671D01*
X150747904Y-101110671D01*
X150747629Y-101106475D01*
X150747629Y-101093523D01*
X150747904Y-101089326D01*
X150399999Y-100741421D01*
X150052093Y-101089326D01*
X150052369Y-101093523D01*
X150052369Y-101106475D01*
X150052093Y-101110671D01*
X132700500Y-101110671D01*
X132700500Y-100600000D01*
X149794823Y-100600000D01*
X149815443Y-100756630D01*
X149815444Y-100756631D01*
X149875899Y-100902585D01*
X149875901Y-100902589D01*
X149910673Y-100947904D01*
X150240038Y-100618540D01*
X150271049Y-100618540D01*
X150301543Y-100685313D01*
X150363297Y-100725000D01*
X150417972Y-100725000D01*
X150470433Y-100709596D01*
X150518504Y-100654119D01*
X150526285Y-100599999D01*
X150541421Y-100599999D01*
X150889326Y-100947904D01*
X150893523Y-100947629D01*
X150906475Y-100947629D01*
X150910673Y-100947904D01*
X151240038Y-100618540D01*
X151271049Y-100618540D01*
X151301543Y-100685313D01*
X151363297Y-100725000D01*
X151417972Y-100725000D01*
X151470433Y-100709596D01*
X151518504Y-100654119D01*
X151526285Y-100599999D01*
X151541421Y-100599999D01*
X151889326Y-100947904D01*
X151893523Y-100947629D01*
X151906475Y-100947629D01*
X151910673Y-100947904D01*
X152240038Y-100618540D01*
X152271049Y-100618540D01*
X152301543Y-100685313D01*
X152363297Y-100725000D01*
X152417972Y-100725000D01*
X152470433Y-100709596D01*
X152518504Y-100654119D01*
X152526285Y-100599999D01*
X152541421Y-100599999D01*
X152889326Y-100947904D01*
X152893523Y-100947629D01*
X152906475Y-100947629D01*
X152910673Y-100947904D01*
X153240038Y-100618540D01*
X153271049Y-100618540D01*
X153301543Y-100685313D01*
X153363297Y-100725000D01*
X153417972Y-100725000D01*
X153470433Y-100709596D01*
X153518504Y-100654119D01*
X153526285Y-100599999D01*
X153541421Y-100599999D01*
X153889326Y-100947904D01*
X153893523Y-100947629D01*
X153906475Y-100947629D01*
X153910673Y-100947904D01*
X154240038Y-100618540D01*
X154271049Y-100618540D01*
X154301543Y-100685313D01*
X154363297Y-100725000D01*
X154417972Y-100725000D01*
X154470433Y-100709596D01*
X154518504Y-100654119D01*
X154526285Y-100600000D01*
X154541421Y-100600000D01*
X154889325Y-100947905D01*
X154889326Y-100947905D01*
X154924095Y-100902594D01*
X154924100Y-100902585D01*
X154984555Y-100756631D01*
X154984556Y-100756630D01*
X155005177Y-100600000D01*
X155005177Y-100599999D01*
X154984556Y-100443372D01*
X154984554Y-100443364D01*
X154924098Y-100297410D01*
X154889326Y-100252094D01*
X154889326Y-100252093D01*
X154541421Y-100599999D01*
X154541421Y-100600000D01*
X154526285Y-100600000D01*
X154528951Y-100581460D01*
X154498457Y-100514687D01*
X154436703Y-100475000D01*
X154382028Y-100475000D01*
X154329567Y-100490404D01*
X154281496Y-100545881D01*
X154271049Y-100618540D01*
X154240038Y-100618540D01*
X154258578Y-100600000D01*
X153910671Y-100252093D01*
X153906475Y-100252369D01*
X153893523Y-100252369D01*
X153889326Y-100252093D01*
X153541421Y-100599999D01*
X153526285Y-100599999D01*
X153528951Y-100581460D01*
X153498457Y-100514687D01*
X153436703Y-100475000D01*
X153382028Y-100475000D01*
X153329567Y-100490404D01*
X153281496Y-100545881D01*
X153271049Y-100618540D01*
X153240038Y-100618540D01*
X153258578Y-100600000D01*
X152910671Y-100252093D01*
X152906475Y-100252369D01*
X152893523Y-100252369D01*
X152889326Y-100252093D01*
X152541421Y-100599999D01*
X152526285Y-100599999D01*
X152528951Y-100581460D01*
X152498457Y-100514687D01*
X152436703Y-100475000D01*
X152382028Y-100475000D01*
X152329567Y-100490404D01*
X152281496Y-100545881D01*
X152271049Y-100618540D01*
X152240038Y-100618540D01*
X152258578Y-100600000D01*
X151910671Y-100252093D01*
X151906475Y-100252369D01*
X151893523Y-100252369D01*
X151889326Y-100252093D01*
X151541421Y-100599999D01*
X151526285Y-100599999D01*
X151528951Y-100581460D01*
X151498457Y-100514687D01*
X151436703Y-100475000D01*
X151382028Y-100475000D01*
X151329567Y-100490404D01*
X151281496Y-100545881D01*
X151271049Y-100618540D01*
X151240038Y-100618540D01*
X151258578Y-100600000D01*
X150910671Y-100252093D01*
X150906475Y-100252369D01*
X150893523Y-100252369D01*
X150889326Y-100252093D01*
X150541421Y-100599999D01*
X150526285Y-100599999D01*
X150528951Y-100581460D01*
X150498457Y-100514687D01*
X150436703Y-100475000D01*
X150382028Y-100475000D01*
X150329567Y-100490404D01*
X150281496Y-100545881D01*
X150271049Y-100618540D01*
X150240038Y-100618540D01*
X150258578Y-100600000D01*
X149910672Y-100252094D01*
X149875900Y-100297413D01*
X149815445Y-100443364D01*
X149815443Y-100443372D01*
X149794823Y-100599999D01*
X149794823Y-100600000D01*
X132700500Y-100600000D01*
X132700500Y-100110671D01*
X150052093Y-100110671D01*
X150400000Y-100458578D01*
X150747904Y-100110673D01*
X150747904Y-100110671D01*
X151052093Y-100110671D01*
X151400000Y-100458578D01*
X151747904Y-100110673D01*
X151747904Y-100110671D01*
X152052093Y-100110671D01*
X152400000Y-100458578D01*
X152747904Y-100110673D01*
X152747904Y-100110671D01*
X153052093Y-100110671D01*
X153400000Y-100458578D01*
X153747904Y-100110673D01*
X153747904Y-100110671D01*
X154052093Y-100110671D01*
X154400000Y-100458578D01*
X154747904Y-100110673D01*
X154747629Y-100106475D01*
X154747629Y-100093523D01*
X154747904Y-100089326D01*
X154399999Y-99741421D01*
X154052093Y-100089326D01*
X154052369Y-100093523D01*
X154052369Y-100106475D01*
X154052093Y-100110671D01*
X153747904Y-100110671D01*
X153747629Y-100106475D01*
X153747629Y-100093523D01*
X153747904Y-100089326D01*
X153399999Y-99741421D01*
X153052093Y-100089326D01*
X153052369Y-100093523D01*
X153052369Y-100106475D01*
X153052093Y-100110671D01*
X152747904Y-100110671D01*
X152747629Y-100106475D01*
X152747629Y-100093523D01*
X152747904Y-100089326D01*
X152399999Y-99741421D01*
X152052093Y-100089326D01*
X152052369Y-100093523D01*
X152052369Y-100106475D01*
X152052093Y-100110671D01*
X151747904Y-100110671D01*
X151747629Y-100106475D01*
X151747629Y-100093523D01*
X151747904Y-100089326D01*
X151399999Y-99741421D01*
X151052093Y-100089326D01*
X151052369Y-100093523D01*
X151052369Y-100106475D01*
X151052093Y-100110671D01*
X150747904Y-100110671D01*
X150747629Y-100106475D01*
X150747629Y-100093523D01*
X150747904Y-100089326D01*
X150399999Y-99741421D01*
X150052093Y-100089326D01*
X150052369Y-100093523D01*
X150052369Y-100106475D01*
X150052093Y-100110671D01*
X132700500Y-100110671D01*
X132700500Y-99600000D01*
X149794823Y-99600000D01*
X149815443Y-99756630D01*
X149815444Y-99756631D01*
X149875899Y-99902585D01*
X149875901Y-99902589D01*
X149910673Y-99947904D01*
X150240038Y-99618540D01*
X150271049Y-99618540D01*
X150301543Y-99685313D01*
X150363297Y-99725000D01*
X150417972Y-99725000D01*
X150470433Y-99709596D01*
X150518504Y-99654119D01*
X150526285Y-99599999D01*
X150541421Y-99599999D01*
X150889326Y-99947904D01*
X150893523Y-99947629D01*
X150906475Y-99947629D01*
X150910673Y-99947904D01*
X151240038Y-99618540D01*
X151271049Y-99618540D01*
X151301543Y-99685313D01*
X151363297Y-99725000D01*
X151417972Y-99725000D01*
X151470433Y-99709596D01*
X151518504Y-99654119D01*
X151526285Y-99599999D01*
X151541421Y-99599999D01*
X151889326Y-99947904D01*
X151893523Y-99947629D01*
X151906475Y-99947629D01*
X151910673Y-99947904D01*
X152240038Y-99618540D01*
X152271049Y-99618540D01*
X152301543Y-99685313D01*
X152363297Y-99725000D01*
X152417972Y-99725000D01*
X152470433Y-99709596D01*
X152518504Y-99654119D01*
X152526285Y-99599999D01*
X152541421Y-99599999D01*
X152889326Y-99947904D01*
X152893523Y-99947629D01*
X152906475Y-99947629D01*
X152910673Y-99947904D01*
X153240038Y-99618540D01*
X153271049Y-99618540D01*
X153301543Y-99685313D01*
X153363297Y-99725000D01*
X153417972Y-99725000D01*
X153470433Y-99709596D01*
X153518504Y-99654119D01*
X153526285Y-99599999D01*
X153541421Y-99599999D01*
X153889326Y-99947904D01*
X153893523Y-99947629D01*
X153906475Y-99947629D01*
X153910673Y-99947904D01*
X154240038Y-99618540D01*
X154271049Y-99618540D01*
X154301543Y-99685313D01*
X154363297Y-99725000D01*
X154417972Y-99725000D01*
X154470433Y-99709596D01*
X154518504Y-99654119D01*
X154526285Y-99600000D01*
X154541421Y-99600000D01*
X154889325Y-99947905D01*
X154889326Y-99947905D01*
X154924095Y-99902594D01*
X154924100Y-99902585D01*
X154984555Y-99756631D01*
X154984556Y-99756630D01*
X155005177Y-99600000D01*
X155005177Y-99599999D01*
X154984556Y-99443372D01*
X154984554Y-99443364D01*
X154924098Y-99297410D01*
X154889326Y-99252094D01*
X154889326Y-99252093D01*
X154541421Y-99599999D01*
X154541421Y-99600000D01*
X154526285Y-99600000D01*
X154528951Y-99581460D01*
X154498457Y-99514687D01*
X154436703Y-99475000D01*
X154382028Y-99475000D01*
X154329567Y-99490404D01*
X154281496Y-99545881D01*
X154271049Y-99618540D01*
X154240038Y-99618540D01*
X154258578Y-99600000D01*
X153910671Y-99252093D01*
X153906475Y-99252369D01*
X153893523Y-99252369D01*
X153889326Y-99252093D01*
X153541421Y-99599999D01*
X153526285Y-99599999D01*
X153528951Y-99581460D01*
X153498457Y-99514687D01*
X153436703Y-99475000D01*
X153382028Y-99475000D01*
X153329567Y-99490404D01*
X153281496Y-99545881D01*
X153271049Y-99618540D01*
X153240038Y-99618540D01*
X153258578Y-99600000D01*
X152910671Y-99252093D01*
X152906475Y-99252369D01*
X152893523Y-99252369D01*
X152889326Y-99252093D01*
X152541421Y-99599999D01*
X152526285Y-99599999D01*
X152528951Y-99581460D01*
X152498457Y-99514687D01*
X152436703Y-99475000D01*
X152382028Y-99475000D01*
X152329567Y-99490404D01*
X152281496Y-99545881D01*
X152271049Y-99618540D01*
X152240038Y-99618540D01*
X152258578Y-99600000D01*
X151910671Y-99252093D01*
X151906475Y-99252369D01*
X151893523Y-99252369D01*
X151889326Y-99252093D01*
X151541421Y-99599999D01*
X151526285Y-99599999D01*
X151528951Y-99581460D01*
X151498457Y-99514687D01*
X151436703Y-99475000D01*
X151382028Y-99475000D01*
X151329567Y-99490404D01*
X151281496Y-99545881D01*
X151271049Y-99618540D01*
X151240038Y-99618540D01*
X151258578Y-99600000D01*
X150910671Y-99252093D01*
X150906475Y-99252369D01*
X150893523Y-99252369D01*
X150889326Y-99252093D01*
X150541421Y-99599999D01*
X150526285Y-99599999D01*
X150528951Y-99581460D01*
X150498457Y-99514687D01*
X150436703Y-99475000D01*
X150382028Y-99475000D01*
X150329567Y-99490404D01*
X150281496Y-99545881D01*
X150271049Y-99618540D01*
X150240038Y-99618540D01*
X150258578Y-99600000D01*
X149910672Y-99252094D01*
X149875900Y-99297413D01*
X149815445Y-99443364D01*
X149815443Y-99443372D01*
X149794823Y-99599999D01*
X149794823Y-99600000D01*
X132700500Y-99600000D01*
X132700500Y-97323931D01*
X138195668Y-97323931D01*
X138226133Y-97496707D01*
X138295622Y-97657802D01*
X138295623Y-97657804D01*
X138400389Y-97798529D01*
X138400391Y-97798531D01*
X138534783Y-97911300D01*
X138534784Y-97911300D01*
X138534786Y-97911302D01*
X138691567Y-97990040D01*
X138751104Y-98004150D01*
X138803366Y-98035968D01*
X138826945Y-98092427D01*
X138812835Y-98151963D01*
X138766425Y-98191835D01*
X138741756Y-98198560D01*
X138736888Y-98199229D01*
X138604389Y-98256781D01*
X138492334Y-98347945D01*
X138409029Y-98465962D01*
X138360653Y-98602078D01*
X138350796Y-98746199D01*
X138380184Y-98887628D01*
X138380186Y-98887636D01*
X138446644Y-99015892D01*
X138446646Y-99015895D01*
X138545245Y-99121469D01*
X138668672Y-99196526D01*
X138807772Y-99235500D01*
X138807773Y-99235500D01*
X138915943Y-99235500D01*
X138915949Y-99235500D01*
X139023111Y-99220771D01*
X139155609Y-99163219D01*
X139220197Y-99110672D01*
X150052094Y-99110672D01*
X150400000Y-99458578D01*
X150747904Y-99110673D01*
X150747903Y-99110672D01*
X151052094Y-99110672D01*
X151400000Y-99458578D01*
X151747904Y-99110673D01*
X151747903Y-99110672D01*
X152052094Y-99110672D01*
X152400000Y-99458578D01*
X152747904Y-99110673D01*
X152747903Y-99110672D01*
X153052094Y-99110672D01*
X153400000Y-99458578D01*
X153747904Y-99110673D01*
X153747903Y-99110672D01*
X154052094Y-99110672D01*
X154400000Y-99458578D01*
X154747904Y-99110673D01*
X154702589Y-99075901D01*
X154702585Y-99075899D01*
X154556631Y-99015444D01*
X154556630Y-99015443D01*
X154400001Y-98994823D01*
X154399999Y-98994823D01*
X154243372Y-99015443D01*
X154243364Y-99015445D01*
X154097413Y-99075900D01*
X154052094Y-99110672D01*
X153747903Y-99110672D01*
X153702589Y-99075901D01*
X153702585Y-99075899D01*
X153556631Y-99015444D01*
X153556630Y-99015443D01*
X153400001Y-98994823D01*
X153399999Y-98994823D01*
X153243372Y-99015443D01*
X153243364Y-99015445D01*
X153097413Y-99075900D01*
X153052094Y-99110672D01*
X152747903Y-99110672D01*
X152702589Y-99075901D01*
X152702585Y-99075899D01*
X152556631Y-99015444D01*
X152556630Y-99015443D01*
X152400001Y-98994823D01*
X152399999Y-98994823D01*
X152243372Y-99015443D01*
X152243364Y-99015445D01*
X152097413Y-99075900D01*
X152052094Y-99110672D01*
X151747903Y-99110672D01*
X151702589Y-99075901D01*
X151702585Y-99075899D01*
X151556631Y-99015444D01*
X151556630Y-99015443D01*
X151400001Y-98994823D01*
X151399999Y-98994823D01*
X151243372Y-99015443D01*
X151243364Y-99015445D01*
X151097413Y-99075900D01*
X151052094Y-99110672D01*
X150747903Y-99110672D01*
X150702589Y-99075901D01*
X150702585Y-99075899D01*
X150556631Y-99015444D01*
X150556630Y-99015443D01*
X150400001Y-98994823D01*
X150399999Y-98994823D01*
X150243372Y-99015443D01*
X150243364Y-99015445D01*
X150097413Y-99075900D01*
X150052094Y-99110672D01*
X139220197Y-99110672D01*
X139267665Y-99072054D01*
X139350971Y-98954037D01*
X139399346Y-98817921D01*
X139409204Y-98673801D01*
X139404154Y-98649500D01*
X139379815Y-98532371D01*
X139379813Y-98532363D01*
X139313355Y-98404107D01*
X139313353Y-98404104D01*
X139214754Y-98298530D01*
X139091327Y-98223473D01*
X139085117Y-98220776D01*
X139086229Y-98218214D01*
X139045235Y-98190928D01*
X139023956Y-98133562D01*
X139040460Y-98074644D01*
X139088443Y-98036680D01*
X139122873Y-98030500D01*
X139893704Y-98030500D01*
X139893709Y-98030500D01*
X140024255Y-98015241D01*
X140189117Y-97955237D01*
X140335696Y-97858830D01*
X140456092Y-97731218D01*
X140543812Y-97579281D01*
X140594130Y-97411210D01*
X140604331Y-97236065D01*
X140573865Y-97063289D01*
X140504377Y-96902196D01*
X140399610Y-96761470D01*
X140399608Y-96761468D01*
X140265216Y-96648699D01*
X140264530Y-96648354D01*
X140108433Y-96569960D01*
X140108429Y-96569959D01*
X140108423Y-96569956D01*
X139937723Y-96529500D01*
X139937721Y-96529500D01*
X138906291Y-96529500D01*
X138775745Y-96544759D01*
X138775742Y-96544759D01*
X138775741Y-96544760D01*
X138610883Y-96604762D01*
X138464306Y-96701168D01*
X138464303Y-96701170D01*
X138343909Y-96828780D01*
X138343908Y-96828780D01*
X138256188Y-96980719D01*
X138205870Y-97148786D01*
X138205869Y-97148793D01*
X138195668Y-97323931D01*
X132700500Y-97323931D01*
X132700500Y-86102279D01*
X132700553Y-86100000D01*
X133495006Y-86100000D01*
X133514965Y-86468143D01*
X133574614Y-86831979D01*
X133673242Y-87187206D01*
X133673246Y-87187217D01*
X133809711Y-87529721D01*
X133982403Y-87855453D01*
X134189306Y-88160611D01*
X134189313Y-88160621D01*
X134422925Y-88435650D01*
X135699983Y-87158592D01*
X135765130Y-87234870D01*
X135841405Y-87300014D01*
X134567580Y-88573840D01*
X134695655Y-88695158D01*
X134989156Y-88918272D01*
X134989161Y-88918275D01*
X135305070Y-89108352D01*
X135639676Y-89263157D01*
X135989076Y-89380884D01*
X136349128Y-89460137D01*
X136349127Y-89460137D01*
X136715657Y-89500000D01*
X137084343Y-89500000D01*
X137450872Y-89460137D01*
X137810922Y-89380884D01*
X137810924Y-89380884D01*
X138160323Y-89263157D01*
X138494929Y-89108352D01*
X138810838Y-88918275D01*
X138810843Y-88918272D01*
X139104344Y-88695158D01*
X139232418Y-88573840D01*
X137958593Y-87300015D01*
X138034870Y-87234870D01*
X138100015Y-87158593D01*
X139377073Y-88435651D01*
X139610686Y-88160621D01*
X139610693Y-88160611D01*
X139817596Y-87855453D01*
X139990288Y-87529721D01*
X140126753Y-87187217D01*
X140126757Y-87187206D01*
X140225385Y-86831979D01*
X140285034Y-86468143D01*
X140304993Y-86100000D01*
X164495006Y-86100000D01*
X164514965Y-86468143D01*
X164574614Y-86831979D01*
X164673242Y-87187206D01*
X164673246Y-87187217D01*
X164809711Y-87529721D01*
X164982403Y-87855453D01*
X165189306Y-88160611D01*
X165189313Y-88160621D01*
X165422925Y-88435650D01*
X166699983Y-87158592D01*
X166765130Y-87234870D01*
X166841405Y-87300014D01*
X165567580Y-88573840D01*
X165695655Y-88695158D01*
X165989156Y-88918272D01*
X165989161Y-88918275D01*
X166305070Y-89108352D01*
X166639676Y-89263157D01*
X166989076Y-89380884D01*
X167349128Y-89460137D01*
X167349127Y-89460137D01*
X167715657Y-89500000D01*
X168084343Y-89500000D01*
X168450872Y-89460137D01*
X168810922Y-89380884D01*
X168810924Y-89380884D01*
X169160323Y-89263157D01*
X169494929Y-89108352D01*
X169810838Y-88918275D01*
X169810843Y-88918272D01*
X170104344Y-88695158D01*
X170232418Y-88573840D01*
X168958593Y-87300015D01*
X169034870Y-87234870D01*
X169100015Y-87158593D01*
X170377073Y-88435651D01*
X170610686Y-88160621D01*
X170610693Y-88160611D01*
X170817596Y-87855453D01*
X170990288Y-87529721D01*
X171126753Y-87187217D01*
X171126757Y-87187206D01*
X171225385Y-86831979D01*
X171285034Y-86468143D01*
X171304993Y-86100000D01*
X171285034Y-85731856D01*
X171225385Y-85368020D01*
X171126757Y-85012793D01*
X171126753Y-85012782D01*
X170990288Y-84670278D01*
X170817596Y-84344546D01*
X170610693Y-84039388D01*
X170610686Y-84039378D01*
X170377072Y-83764347D01*
X169100014Y-85041404D01*
X169034870Y-84965130D01*
X168958592Y-84899983D01*
X170232418Y-83626158D01*
X170104344Y-83504841D01*
X169810843Y-83281727D01*
X169810838Y-83281724D01*
X169494929Y-83091647D01*
X169160323Y-82936842D01*
X168810923Y-82819115D01*
X168450871Y-82739862D01*
X168450872Y-82739862D01*
X168084343Y-82700000D01*
X167715657Y-82700000D01*
X167349127Y-82739862D01*
X166989077Y-82819115D01*
X166989075Y-82819115D01*
X166639676Y-82936842D01*
X166305070Y-83091647D01*
X165989161Y-83281724D01*
X165989156Y-83281727D01*
X165695655Y-83504841D01*
X165567580Y-83626158D01*
X166841406Y-84899984D01*
X166765130Y-84965130D01*
X166699984Y-85041406D01*
X165422925Y-83764347D01*
X165189313Y-84039378D01*
X165189306Y-84039388D01*
X164982403Y-84344546D01*
X164809711Y-84670278D01*
X164673246Y-85012782D01*
X164673242Y-85012793D01*
X164574614Y-85368020D01*
X164514965Y-85731856D01*
X164495006Y-86100000D01*
X140304993Y-86100000D01*
X140285034Y-85731856D01*
X140225385Y-85368020D01*
X140126757Y-85012793D01*
X140126753Y-85012782D01*
X139990288Y-84670278D01*
X139817596Y-84344546D01*
X139610693Y-84039388D01*
X139610686Y-84039378D01*
X139377072Y-83764347D01*
X138100014Y-85041404D01*
X138034870Y-84965130D01*
X137958592Y-84899983D01*
X139232418Y-83626158D01*
X139104344Y-83504841D01*
X138810843Y-83281727D01*
X138810838Y-83281724D01*
X138494929Y-83091647D01*
X138160323Y-82936842D01*
X137810923Y-82819115D01*
X137450871Y-82739862D01*
X137450872Y-82739862D01*
X137084343Y-82700000D01*
X136715657Y-82700000D01*
X136349127Y-82739862D01*
X135989077Y-82819115D01*
X135989075Y-82819115D01*
X135639676Y-82936842D01*
X135305070Y-83091647D01*
X134989161Y-83281724D01*
X134989156Y-83281727D01*
X134695655Y-83504841D01*
X134567580Y-83626158D01*
X135841406Y-84899984D01*
X135765130Y-84965130D01*
X135699984Y-85041406D01*
X134422925Y-83764347D01*
X134189313Y-84039378D01*
X134189306Y-84039388D01*
X133982403Y-84344546D01*
X133809711Y-84670278D01*
X133673246Y-85012782D01*
X133673242Y-85012793D01*
X133574614Y-85368020D01*
X133514965Y-85731856D01*
X133495006Y-86100000D01*
X132700553Y-86100000D01*
X132700606Y-86097707D01*
X132718202Y-85717098D01*
X132719045Y-85707993D01*
X132771374Y-85332856D01*
X132773050Y-85323895D01*
X132859765Y-84955205D01*
X132862266Y-84946416D01*
X132910814Y-84801570D01*
X132982629Y-84587301D01*
X132985930Y-84578782D01*
X133138919Y-84232295D01*
X133142980Y-84224138D01*
X133327290Y-83893237D01*
X133332093Y-83885481D01*
X133546144Y-83573006D01*
X133551654Y-83565711D01*
X133602200Y-83504841D01*
X133793613Y-83274329D01*
X133799753Y-83267593D01*
X134067593Y-82999753D01*
X134074329Y-82993613D01*
X134365712Y-82751652D01*
X134373008Y-82746143D01*
X134440368Y-82700000D01*
X134685481Y-82532093D01*
X134693237Y-82527290D01*
X135024138Y-82342980D01*
X135032295Y-82338919D01*
X135378789Y-82185927D01*
X135387301Y-82182629D01*
X135746421Y-82062264D01*
X135755205Y-82059765D01*
X136123895Y-81973050D01*
X136132856Y-81971374D01*
X136508000Y-81919044D01*
X136517091Y-81918202D01*
X136897707Y-81900605D01*
X136902279Y-81900500D01*
X136947595Y-81900500D01*
X167852405Y-81900500D01*
X167897721Y-81900500D01*
X167902292Y-81900605D01*
G37*
G04 #@! TD.AperFunction*
M02*
