G04 #@! TF.GenerationSoftware,KiCad,Pcbnew,7.0.11*
G04 #@! TF.CreationDate,2024-10-21T13:11:55-04:00*
G04 #@! TF.ProjectId,prism-pcb,70726973-6d2d-4706-9362-2e6b69636164,1.4*
G04 #@! TF.SameCoordinates,Original*
G04 #@! TF.FileFunction,Copper,L1,Top*
G04 #@! TF.FilePolarity,Positive*
%FSLAX46Y46*%
G04 Gerber Fmt 4.6, Leading zero omitted, Abs format (unit mm)*
G04 Created by KiCad (PCBNEW 7.0.11) date 2024-10-21 13:11:55*
%MOMM*%
%LPD*%
G01*
G04 APERTURE LIST*
G04 Aperture macros list*
%AMRoundRect*
0 Rectangle with rounded corners*
0 $1 Rounding radius*
0 $2 $3 $4 $5 $6 $7 $8 $9 X,Y pos of 4 corners*
0 Add a 4 corners polygon primitive as box body*
4,1,4,$2,$3,$4,$5,$6,$7,$8,$9,$2,$3,0*
0 Add four circle primitives for the rounded corners*
1,1,$1+$1,$2,$3*
1,1,$1+$1,$4,$5*
1,1,$1+$1,$6,$7*
1,1,$1+$1,$8,$9*
0 Add four rect primitives between the rounded corners*
20,1,$1+$1,$2,$3,$4,$5,0*
20,1,$1+$1,$4,$5,$6,$7,0*
20,1,$1+$1,$6,$7,$8,$9,0*
20,1,$1+$1,$8,$9,$2,$3,0*%
G04 Aperture macros list end*
G04 #@! TA.AperFunction,SMDPad,CuDef*
%ADD10C,0.500000*%
G04 #@! TD*
G04 #@! TA.AperFunction,SMDPad,CuDef*
%ADD11RoundRect,0.250000X0.312500X0.625000X-0.312500X0.625000X-0.312500X-0.625000X0.312500X-0.625000X0*%
G04 #@! TD*
G04 #@! TA.AperFunction,SMDPad,CuDef*
%ADD12RoundRect,0.250000X1.100000X-0.325000X1.100000X0.325000X-1.100000X0.325000X-1.100000X-0.325000X0*%
G04 #@! TD*
G04 #@! TA.AperFunction,SMDPad,CuDef*
%ADD13RoundRect,0.140000X-0.140000X-0.170000X0.140000X-0.170000X0.140000X0.170000X-0.140000X0.170000X0*%
G04 #@! TD*
G04 #@! TA.AperFunction,SMDPad,CuDef*
%ADD14RoundRect,0.250000X-0.250000X-0.475000X0.250000X-0.475000X0.250000X0.475000X-0.250000X0.475000X0*%
G04 #@! TD*
G04 #@! TA.AperFunction,ComponentPad*
%ADD15C,6.400000*%
G04 #@! TD*
G04 #@! TA.AperFunction,SMDPad,CuDef*
%ADD16RoundRect,0.140000X-0.170000X0.140000X-0.170000X-0.140000X0.170000X-0.140000X0.170000X0.140000X0*%
G04 #@! TD*
G04 #@! TA.AperFunction,SMDPad,CuDef*
%ADD17R,3.550000X0.850000*%
G04 #@! TD*
G04 #@! TA.AperFunction,SMDPad,CuDef*
%ADD18R,2.650000X0.850000*%
G04 #@! TD*
G04 #@! TA.AperFunction,SMDPad,CuDef*
%ADD19R,0.700000X0.500000*%
G04 #@! TD*
G04 #@! TA.AperFunction,SMDPad,CuDef*
%ADD20R,1.700000X1.700000*%
G04 #@! TD*
G04 #@! TA.AperFunction,ComponentPad*
%ADD21O,2.000000X1.100000*%
G04 #@! TD*
G04 #@! TA.AperFunction,SMDPad,CuDef*
%ADD22RoundRect,0.150000X-0.425000X0.150000X-0.425000X-0.150000X0.425000X-0.150000X0.425000X0.150000X0*%
G04 #@! TD*
G04 #@! TA.AperFunction,SMDPad,CuDef*
%ADD23RoundRect,0.075000X-0.500000X0.075000X-0.500000X-0.075000X0.500000X-0.075000X0.500000X0.075000X0*%
G04 #@! TD*
G04 #@! TA.AperFunction,SMDPad,CuDef*
%ADD24RoundRect,0.075000X-0.662500X-0.075000X0.662500X-0.075000X0.662500X0.075000X-0.662500X0.075000X0*%
G04 #@! TD*
G04 #@! TA.AperFunction,SMDPad,CuDef*
%ADD25RoundRect,0.075000X-0.075000X-0.662500X0.075000X-0.662500X0.075000X0.662500X-0.075000X0.662500X0*%
G04 #@! TD*
G04 #@! TA.AperFunction,HeatsinkPad*
%ADD26C,0.800000*%
G04 #@! TD*
G04 #@! TA.AperFunction,HeatsinkPad*
%ADD27R,5.000000X5.000000*%
G04 #@! TD*
G04 #@! TA.AperFunction,SMDPad,CuDef*
%ADD28RoundRect,0.250000X1.000000X0.650000X-1.000000X0.650000X-1.000000X-0.650000X1.000000X-0.650000X0*%
G04 #@! TD*
G04 #@! TA.AperFunction,SMDPad,CuDef*
%ADD29RoundRect,0.250000X0.262500X0.450000X-0.262500X0.450000X-0.262500X-0.450000X0.262500X-0.450000X0*%
G04 #@! TD*
G04 #@! TA.AperFunction,SMDPad,CuDef*
%ADD30RoundRect,0.135000X-0.185000X0.135000X-0.185000X-0.135000X0.185000X-0.135000X0.185000X0.135000X0*%
G04 #@! TD*
G04 #@! TA.AperFunction,SMDPad,CuDef*
%ADD31RoundRect,0.140000X0.170000X-0.140000X0.170000X0.140000X-0.170000X0.140000X-0.170000X-0.140000X0*%
G04 #@! TD*
G04 #@! TA.AperFunction,SMDPad,CuDef*
%ADD32R,1.300000X1.800000*%
G04 #@! TD*
G04 #@! TA.AperFunction,SMDPad,CuDef*
%ADD33R,4.000000X2.000000*%
G04 #@! TD*
G04 #@! TA.AperFunction,SMDPad,CuDef*
%ADD34RoundRect,0.225000X0.225000X0.250000X-0.225000X0.250000X-0.225000X-0.250000X0.225000X-0.250000X0*%
G04 #@! TD*
G04 #@! TA.AperFunction,SMDPad,CuDef*
%ADD35RoundRect,0.140000X0.140000X0.170000X-0.140000X0.170000X-0.140000X-0.170000X0.140000X-0.170000X0*%
G04 #@! TD*
G04 #@! TA.AperFunction,SMDPad,CuDef*
%ADD36RoundRect,0.250000X-0.475000X0.250000X-0.475000X-0.250000X0.475000X-0.250000X0.475000X0.250000X0*%
G04 #@! TD*
G04 #@! TA.AperFunction,SMDPad,CuDef*
%ADD37R,1.200000X0.475000*%
G04 #@! TD*
G04 #@! TA.AperFunction,SMDPad,CuDef*
%ADD38R,1.200000X0.349999*%
G04 #@! TD*
G04 #@! TA.AperFunction,SMDPad,CuDef*
%ADD39R,1.599999X2.150001*%
G04 #@! TD*
G04 #@! TA.AperFunction,SMDPad,CuDef*
%ADD40R,0.349999X0.900001*%
G04 #@! TD*
G04 #@! TA.AperFunction,SMDPad,CuDef*
%ADD41RoundRect,0.100000X-0.100000X-0.900000X0.100000X-0.900000X0.100000X0.900000X-0.100000X0.900000X0*%
G04 #@! TD*
G04 #@! TA.AperFunction,ViaPad*
%ADD42C,1.000000*%
G04 #@! TD*
G04 #@! TA.AperFunction,Conductor*
%ADD43C,0.300000*%
G04 #@! TD*
G04 #@! TA.AperFunction,Conductor*
%ADD44C,0.600000*%
G04 #@! TD*
G04 #@! TA.AperFunction,Conductor*
%ADD45C,0.200000*%
G04 #@! TD*
G04 APERTURE END LIST*
D10*
X139400000Y-82600000D03*
D11*
X151862500Y-109100000D03*
X148937500Y-109100000D03*
D12*
X162150000Y-92825000D03*
X162150000Y-89875000D03*
D13*
X153920000Y-94600000D03*
X154880000Y-94600000D03*
D14*
X158700000Y-100600000D03*
X160600000Y-100600000D03*
D15*
X167900000Y-117100000D03*
D16*
X160400000Y-102870000D03*
X160400000Y-103830000D03*
D17*
X169250000Y-103850000D03*
X169250000Y-102350000D03*
X169250000Y-100850000D03*
X169250000Y-99350000D03*
D18*
X165350000Y-103850000D03*
X165350000Y-102350000D03*
X165350000Y-100850000D03*
X165350000Y-99350000D03*
D14*
X153450000Y-110100000D03*
X155350000Y-110100000D03*
D13*
X153920000Y-95600000D03*
X154880000Y-95600000D03*
D19*
X134950000Y-110600000D03*
X135850000Y-110600000D03*
D20*
X135450000Y-96580000D03*
D21*
X139400000Y-105920000D03*
D20*
X135450000Y-106620000D03*
D22*
X139975000Y-98400000D03*
X139975000Y-99200000D03*
D23*
X139975000Y-100350000D03*
X139975000Y-101350000D03*
X139975000Y-101850000D03*
X139975000Y-102850000D03*
D22*
X139975000Y-104000000D03*
X139975000Y-104800000D03*
X139975000Y-104800000D03*
X139975000Y-104000000D03*
D23*
X139975000Y-103350000D03*
X139975000Y-102350000D03*
X139975000Y-100850000D03*
X139975000Y-99850000D03*
D22*
X139975000Y-99200000D03*
X139975000Y-98400000D03*
D21*
X139400000Y-97280000D03*
D14*
X153450000Y-93100000D03*
X155350000Y-93100000D03*
D24*
X148237500Y-98850000D03*
X148237500Y-99350000D03*
X148237500Y-99850000D03*
X148237500Y-100350000D03*
X148237500Y-100850000D03*
X148237500Y-101350000D03*
X148237500Y-101850000D03*
X148237500Y-102350000D03*
X148237500Y-102850000D03*
X148237500Y-103350000D03*
X148237500Y-103850000D03*
X148237500Y-104350000D03*
D25*
X149650000Y-105762500D03*
X150150000Y-105762500D03*
X150650000Y-105762500D03*
X151150000Y-105762500D03*
X151650000Y-105762500D03*
X152150000Y-105762500D03*
X152650000Y-105762500D03*
X153150000Y-105762500D03*
X153650000Y-105762500D03*
X154150000Y-105762500D03*
X154650000Y-105762500D03*
X155150000Y-105762500D03*
D24*
X156562500Y-104350000D03*
X156562500Y-103850000D03*
X156562500Y-103350000D03*
X156562500Y-102850000D03*
X156562500Y-102350000D03*
X156562500Y-101850000D03*
X156562500Y-101350000D03*
X156562500Y-100850000D03*
X156562500Y-100350000D03*
X156562500Y-99850000D03*
X156562500Y-99350000D03*
X156562500Y-98850000D03*
D25*
X155150000Y-97437500D03*
X154650000Y-97437500D03*
X154150000Y-97437500D03*
X153650000Y-97437500D03*
X153150000Y-97437500D03*
X152650000Y-97437500D03*
X152150000Y-97437500D03*
X151650000Y-97437500D03*
X151150000Y-97437500D03*
X150650000Y-97437500D03*
X150150000Y-97437500D03*
X149650000Y-97437500D03*
D26*
X150400000Y-99600000D03*
X150400000Y-100600000D03*
X150400000Y-101600000D03*
X150400000Y-102600000D03*
X150400000Y-103600000D03*
X151400000Y-99600000D03*
X151400000Y-100600000D03*
X151400000Y-101600000D03*
X151400000Y-102600000D03*
X151400000Y-103600000D03*
X152400000Y-99600000D03*
X152400000Y-100600000D03*
X152400000Y-101600000D03*
D27*
X152400000Y-101600000D03*
D26*
X152400000Y-102600000D03*
X152400000Y-103600000D03*
X153400000Y-99600000D03*
X153400000Y-100600000D03*
X153400000Y-101600000D03*
X153400000Y-102600000D03*
X153400000Y-103600000D03*
X154400000Y-99600000D03*
X154400000Y-100600000D03*
X154400000Y-101600000D03*
X154400000Y-102600000D03*
X154400000Y-103600000D03*
D13*
X153920000Y-108600000D03*
X154880000Y-108600000D03*
D28*
X145900000Y-87600000D03*
X141900000Y-87600000D03*
D29*
X139312500Y-110600000D03*
X137487500Y-110600000D03*
D11*
X151862500Y-94100000D03*
X148937500Y-94100000D03*
D30*
X158900000Y-98090000D03*
X158900000Y-99110000D03*
D31*
X147900000Y-97080000D03*
X147900000Y-96120000D03*
D32*
X143750000Y-95830000D03*
X143750000Y-98370000D03*
X146050000Y-98370000D03*
X146050000Y-95830000D03*
D31*
X164650000Y-92830000D03*
X164650000Y-91870000D03*
D15*
X136900000Y-86100000D03*
D33*
X150850000Y-115600000D03*
X157950000Y-115600000D03*
D30*
X159400000Y-102840000D03*
X159400000Y-103860000D03*
D34*
X158175000Y-96100000D03*
X156625000Y-96100000D03*
D30*
X158400000Y-103590000D03*
X158400000Y-104610000D03*
D35*
X169880000Y-90600000D03*
X168920000Y-90600000D03*
D36*
X162900000Y-94650000D03*
X162900000Y-96550000D03*
D10*
X165400000Y-120600000D03*
D16*
X164650000Y-94620000D03*
X164650000Y-95580000D03*
D37*
X166500000Y-92138000D03*
D38*
X166500000Y-92950000D03*
X166500000Y-93449999D03*
D39*
X166700000Y-95100001D03*
X169100000Y-95100001D03*
D38*
X169300000Y-93449999D03*
X169300000Y-92950000D03*
D37*
X169300000Y-92138000D03*
D40*
X168399999Y-92050002D03*
D41*
X167900000Y-92350000D03*
D40*
X167400001Y-92050002D03*
D15*
X167900000Y-86100000D03*
D10*
X165400000Y-82600000D03*
D16*
X160400000Y-98120000D03*
X160400000Y-99080000D03*
D33*
X150850000Y-87600000D03*
X157950000Y-87600000D03*
D10*
X139400000Y-120600000D03*
D15*
X136900000Y-117100000D03*
D42*
X141400000Y-95600000D03*
X141400000Y-107600000D03*
X167900000Y-90600000D03*
X154150000Y-90600000D03*
X163400000Y-99350000D03*
X150650000Y-95850000D03*
X163400000Y-100850000D03*
X152650000Y-95850000D03*
X163400000Y-102350000D03*
X150650000Y-107350000D03*
X152650000Y-107350000D03*
X163400000Y-103850000D03*
X157150000Y-105425000D03*
X138650000Y-101850000D03*
X141400000Y-102350000D03*
X159082949Y-105358903D03*
D43*
X148237500Y-100850000D02*
X143050000Y-100850000D01*
D44*
X143050000Y-101350000D02*
X143050000Y-102350000D01*
X134950000Y-109750000D02*
X137100000Y-107600000D01*
D43*
X157450000Y-95650000D02*
X156400000Y-94600000D01*
X154880000Y-108600000D02*
X154880000Y-109630000D01*
X149650000Y-108387500D02*
X148937500Y-109100000D01*
X151650000Y-102350000D02*
X152400000Y-101600000D01*
D44*
X143050000Y-100850000D02*
X143050000Y-101350000D01*
X143050000Y-99070000D02*
X143750000Y-98370000D01*
X147900000Y-95137500D02*
X148937500Y-94100000D01*
D43*
X148237500Y-101350000D02*
X143050000Y-101350000D01*
X158850000Y-102350000D02*
X160600000Y-100600000D01*
D44*
X141900000Y-87600000D02*
X138400000Y-87600000D01*
D43*
X147150000Y-103100000D02*
X147400000Y-102850000D01*
X148237500Y-102350000D02*
X151650000Y-102350000D01*
X155350000Y-93100000D02*
X155350000Y-91800000D01*
D44*
X141725304Y-104800000D02*
X139975000Y-104800000D01*
X139975000Y-98400000D02*
X140549999Y-98400000D01*
D43*
X147562500Y-105762500D02*
X149650000Y-105762500D01*
X148237500Y-100850000D02*
X151650000Y-100850000D01*
X154880000Y-109630000D02*
X155350000Y-110100000D01*
X147150000Y-103499999D02*
X147150000Y-103100000D01*
D44*
X155350000Y-113000000D02*
X157950000Y-115600000D01*
X143050000Y-99724696D02*
X143050000Y-99070000D01*
D43*
X160400000Y-99080000D02*
X160400000Y-99050000D01*
X147500001Y-103850000D02*
X147150000Y-104200001D01*
X148237500Y-102850000D02*
X151150000Y-102850000D01*
X161099938Y-101099938D02*
X160600000Y-100600000D01*
X156562500Y-101350000D02*
X156562500Y-100850000D01*
D44*
X166400000Y-87600000D02*
X167900000Y-86100000D01*
D43*
X160400000Y-100400000D02*
X160600000Y-100600000D01*
D44*
X157950000Y-87600000D02*
X166400000Y-87600000D01*
D43*
X148237500Y-102350000D02*
X143050000Y-102350000D01*
X151650000Y-100850000D02*
X152400000Y-101600000D01*
X167900000Y-92350000D02*
X167900000Y-90600000D01*
X148237500Y-98850000D02*
X149068959Y-98850000D01*
X160400000Y-99080000D02*
X160400000Y-100400000D01*
D44*
X157950000Y-115600000D02*
X166400000Y-115600000D01*
D43*
X160400000Y-99050000D02*
X162900000Y-96550000D01*
X155350000Y-91800000D02*
X154150000Y-90600000D01*
D44*
X164650000Y-91870000D02*
X164145000Y-91870000D01*
X139975000Y-104800000D02*
X140549999Y-104800000D01*
D43*
X170150000Y-97350000D02*
X171400000Y-96100000D01*
X159550000Y-106200000D02*
X160400000Y-105350000D01*
X168920000Y-90600000D02*
X167900000Y-90600000D01*
D44*
X140549999Y-98400000D02*
X141400000Y-97549999D01*
X143050000Y-103475304D02*
X141725304Y-104800000D01*
D43*
X154880000Y-94600000D02*
X154880000Y-93570000D01*
X155150000Y-105762500D02*
X156562500Y-104350000D01*
X156562500Y-102350000D02*
X158850000Y-102350000D01*
X149650000Y-97437500D02*
X149650000Y-94812500D01*
X151150000Y-102850000D02*
X152400000Y-101600000D01*
X156562500Y-102350000D02*
X156562500Y-101850000D01*
X156562500Y-98850000D02*
X157450000Y-97962500D01*
X149068959Y-98850000D02*
X151818959Y-101600000D01*
X148237500Y-101350000D02*
X152150000Y-101350000D01*
D44*
X147900000Y-96120000D02*
X147900000Y-95137500D01*
D43*
X151818959Y-101600000D02*
X152400000Y-101600000D01*
X171400000Y-89600000D02*
X167900000Y-86100000D01*
D44*
X140549999Y-104800000D02*
X141400000Y-105650001D01*
D43*
X163870000Y-95580000D02*
X162900000Y-96550000D01*
X154880000Y-93570000D02*
X155350000Y-93100000D01*
X164650000Y-95580000D02*
X163870000Y-95580000D01*
D44*
X138400000Y-87600000D02*
X136900000Y-86100000D01*
D43*
X156400000Y-94600000D02*
X154880000Y-94600000D01*
X154650000Y-108370000D02*
X154880000Y-108600000D01*
D44*
X142900000Y-94100000D02*
X148937500Y-94100000D01*
D43*
X171400000Y-96100000D02*
X171400000Y-89600000D01*
X149650000Y-94812500D02*
X148937500Y-94100000D01*
X160400000Y-103830000D02*
X161099938Y-103130062D01*
D44*
X141400000Y-105650001D02*
X141400000Y-107600000D01*
D43*
X155150000Y-105762500D02*
X155587500Y-106200000D01*
D44*
X137100000Y-107600000D02*
X141400000Y-107600000D01*
D43*
X155587500Y-106200000D02*
X159550000Y-106200000D01*
X161099938Y-103130062D02*
X161099938Y-101099938D01*
D44*
X141400000Y-97549999D02*
X141400000Y-95600000D01*
D43*
X164650000Y-96350000D02*
X165650000Y-97350000D01*
D44*
X139975000Y-98400000D02*
X141725304Y-98400000D01*
X162150000Y-89875000D02*
X160225000Y-89875000D01*
D43*
X165650000Y-97350000D02*
X170150000Y-97350000D01*
X147400000Y-102850000D02*
X148237500Y-102850000D01*
D44*
X134950000Y-110600000D02*
X134950000Y-109750000D01*
D43*
X154650000Y-105762500D02*
X154650000Y-108370000D01*
X148237500Y-103850000D02*
X147500001Y-103850000D01*
D44*
X143050000Y-99724696D02*
X143050000Y-100850000D01*
X143050000Y-102350000D02*
X143050000Y-103475304D01*
D43*
X147500001Y-103850000D02*
X147150000Y-103499999D01*
X147150000Y-104200001D02*
X147150000Y-105350000D01*
X156562500Y-101850000D02*
X156562500Y-101350000D01*
X164650000Y-95580000D02*
X164650000Y-96350000D01*
X157450000Y-97962500D02*
X157450000Y-95650000D01*
D44*
X141725304Y-98400000D02*
X143050000Y-99724696D01*
X141400000Y-95600000D02*
X142900000Y-94100000D01*
X155350000Y-110100000D02*
X155350000Y-113000000D01*
X166400000Y-115600000D02*
X167900000Y-117100000D01*
D43*
X147150000Y-105350000D02*
X147562500Y-105762500D01*
D44*
X164145000Y-91870000D02*
X162150000Y-89875000D01*
D43*
X154650000Y-105762500D02*
X155150000Y-105762500D01*
X160400000Y-105350000D02*
X160400000Y-103830000D01*
D44*
X160225000Y-89875000D02*
X157950000Y-87600000D01*
D43*
X149650000Y-105762500D02*
X149650000Y-108387500D01*
X152150000Y-101350000D02*
X152400000Y-101600000D01*
D45*
X157299999Y-99350000D02*
X157900000Y-98749999D01*
X157900000Y-98749999D02*
X157900000Y-96375000D01*
X156562500Y-99350000D02*
X157299999Y-99350000D01*
X157900000Y-96375000D02*
X158175000Y-96100000D01*
X155650000Y-96100000D02*
X156625000Y-96100000D01*
X155150000Y-96600000D02*
X155650000Y-96100000D01*
X155150000Y-97437500D02*
X155150000Y-96600000D01*
X154650000Y-97437500D02*
X154650000Y-95830000D01*
X154650000Y-95830000D02*
X154880000Y-95600000D01*
X135850000Y-110600000D02*
X137487500Y-110600000D01*
X158900000Y-100400000D02*
X158700000Y-100600000D01*
X158900000Y-99110000D02*
X158900000Y-100400000D01*
X158450000Y-100350000D02*
X158700000Y-100600000D01*
X156562500Y-100350000D02*
X158450000Y-100350000D01*
D43*
X151650000Y-94312500D02*
X151862500Y-94100000D01*
X151650000Y-97437500D02*
X151650000Y-94312500D01*
X150650000Y-97437500D02*
X150650000Y-95850000D01*
D44*
X165350000Y-99350000D02*
X163400000Y-99350000D01*
D43*
X152650000Y-97437500D02*
X152650000Y-95850000D01*
D44*
X165350000Y-100850000D02*
X163400000Y-100850000D01*
D43*
X150650000Y-105762500D02*
X150650000Y-107350000D01*
D44*
X165350000Y-102350000D02*
X163400000Y-102350000D01*
D43*
X152650000Y-105762500D02*
X152650000Y-107350000D01*
D44*
X165350000Y-103850000D02*
X163400000Y-103850000D01*
D43*
X151650000Y-108887500D02*
X151862500Y-109100000D01*
X151650000Y-105762500D02*
X151650000Y-108887500D01*
D45*
X167175000Y-90900305D02*
X167175000Y-90299695D01*
X169300000Y-91180000D02*
X169880000Y-90600000D01*
X167624695Y-89850000D02*
X169400000Y-89850000D01*
X167175000Y-90299695D02*
X167624695Y-89850000D01*
X169400000Y-89850000D02*
X169880000Y-90330000D01*
X169880000Y-90330000D02*
X169880000Y-90600000D01*
X167400001Y-92050002D02*
X167400001Y-91125306D01*
X167400001Y-91125306D02*
X167175000Y-90900305D01*
X169300000Y-92138000D02*
X169300000Y-91180000D01*
X139400001Y-101850000D02*
X139175000Y-101624999D01*
X139975000Y-101850000D02*
X139400001Y-101850000D01*
X139975000Y-101850000D02*
X138650000Y-101850000D01*
X156562500Y-103850000D02*
X157640000Y-103850000D01*
X139175000Y-101624999D02*
X139175000Y-101075001D01*
X139400001Y-100850000D02*
X139975000Y-100850000D01*
X139175000Y-101075001D02*
X139400001Y-100850000D01*
X157585000Y-105425000D02*
X158400000Y-104610000D01*
X157640000Y-103850000D02*
X158400000Y-104610000D01*
X157150000Y-105425000D02*
X157585000Y-105425000D01*
X140775000Y-102124999D02*
X140775000Y-101575001D01*
X158400000Y-103590000D02*
X159130000Y-103590000D01*
X156562500Y-103350000D02*
X158160000Y-103350000D01*
X159082949Y-105358903D02*
X159400000Y-105041852D01*
X140775000Y-101575001D02*
X140549999Y-101350000D01*
X158160000Y-103350000D02*
X158400000Y-103590000D01*
X140549999Y-101350000D02*
X139975000Y-101350000D01*
X139975000Y-102350000D02*
X141400000Y-102350000D01*
X139975000Y-102350000D02*
X140549999Y-102350000D01*
X159130000Y-103590000D02*
X159400000Y-103860000D01*
X159400000Y-105041852D02*
X159400000Y-103860000D01*
X140549999Y-102350000D02*
X140775000Y-102124999D01*
X147030000Y-99350000D02*
X146050000Y-98370000D01*
X148237500Y-99350000D02*
X147030000Y-99350000D01*
D43*
X141400000Y-92100000D02*
X136900000Y-92100000D01*
X139026473Y-103600000D02*
X139426473Y-104000000D01*
X136900000Y-92100000D02*
X133650000Y-95350000D01*
D44*
X150900000Y-87650000D02*
X150850000Y-87600000D01*
X141500000Y-99200000D02*
X142325000Y-100025000D01*
X145850000Y-110600000D02*
X150850000Y-115600000D01*
D43*
X153920000Y-108600000D02*
X153920000Y-109630000D01*
X153650000Y-108330000D02*
X153920000Y-108600000D01*
D44*
X158625000Y-92825000D02*
X162150000Y-92825000D01*
X150850000Y-87600000D02*
X145900000Y-87600000D01*
D43*
X133400000Y-105100000D02*
X134900000Y-103600000D01*
D44*
X139312500Y-110600000D02*
X142650000Y-110600000D01*
X164650000Y-92830000D02*
X162155000Y-92830000D01*
D43*
X136900000Y-112850000D02*
X134400000Y-112850000D01*
D44*
X139975000Y-99200000D02*
X141500000Y-99200000D01*
D43*
X153650000Y-97437500D02*
X153650000Y-95870000D01*
D44*
X142325000Y-100025000D02*
X142325000Y-103175000D01*
D43*
X153920000Y-93570000D02*
X153450000Y-93100000D01*
X134400000Y-112850000D02*
X133400000Y-111850000D01*
X166500000Y-93449999D02*
X166500000Y-92950000D01*
X153920000Y-95600000D02*
X153920000Y-94600000D01*
X134900000Y-103600000D02*
X139026473Y-103600000D01*
X138812500Y-110937500D02*
X136900000Y-112850000D01*
D44*
X153450000Y-93100000D02*
X150900000Y-90550000D01*
D43*
X135150000Y-99600000D02*
X138944594Y-99600000D01*
D44*
X142650000Y-110600000D02*
X145850000Y-110600000D01*
D43*
X133650000Y-98100000D02*
X135150000Y-99600000D01*
X139344594Y-99200000D02*
X139975000Y-99200000D01*
X153920000Y-94600000D02*
X153920000Y-93570000D01*
X138812500Y-110600000D02*
X138812500Y-110937500D01*
X138944594Y-99600000D02*
X139344594Y-99200000D01*
X133400000Y-111850000D02*
X133400000Y-105100000D01*
X153650000Y-105762500D02*
X153650000Y-108330000D01*
D44*
X153450000Y-110100000D02*
X153450000Y-113000000D01*
D43*
X153920000Y-109630000D02*
X153450000Y-110100000D01*
D44*
X153400000Y-87600000D02*
X158625000Y-92825000D01*
X162155000Y-92830000D02*
X162150000Y-92825000D01*
X141500000Y-104000000D02*
X139975000Y-104000000D01*
D43*
X164770000Y-92950000D02*
X164650000Y-92830000D01*
D44*
X142325000Y-103175000D02*
X141500000Y-104000000D01*
X150850000Y-87600000D02*
X153400000Y-87600000D01*
D43*
X145900000Y-87600000D02*
X141400000Y-92100000D01*
X139426473Y-104000000D02*
X139975000Y-104000000D01*
X133650000Y-95350000D02*
X133650000Y-98100000D01*
D44*
X153450000Y-113000000D02*
X150850000Y-115600000D01*
D43*
X153650000Y-95870000D02*
X153920000Y-95600000D01*
X166500000Y-92950000D02*
X164770000Y-92950000D01*
D44*
X150900000Y-90550000D02*
X150900000Y-87650000D01*
D43*
X154575001Y-98600000D02*
X154950000Y-98600000D01*
X147900000Y-97080000D02*
X149420000Y-98600000D01*
X156562500Y-99850000D02*
X155400000Y-99850000D01*
X158275000Y-98715000D02*
X158900000Y-98090000D01*
X156562500Y-99850000D02*
X157400000Y-99850000D01*
X155400000Y-99050000D02*
X155400000Y-99850000D01*
X168399999Y-93383103D02*
X166700000Y-95083102D01*
X147300000Y-97080000D02*
X146050000Y-95830000D01*
X166219999Y-94620000D02*
X166700000Y-95100001D01*
X158275000Y-98975000D02*
X158275000Y-98715000D01*
X164650000Y-94620000D02*
X162930000Y-94620000D01*
X149400000Y-103600000D02*
X149400000Y-104150000D01*
X155400000Y-104100000D02*
X155400000Y-102850000D01*
X154950000Y-98600000D02*
X155400000Y-99050000D01*
X154150000Y-97437500D02*
X154150000Y-98174999D01*
X159390000Y-102850000D02*
X159400000Y-102840000D01*
X160400000Y-98120000D02*
X160400000Y-97150000D01*
X164650000Y-94620000D02*
X166219999Y-94620000D01*
X168399999Y-92050002D02*
X168399999Y-93383103D01*
X155400000Y-102850000D02*
X155400000Y-102424999D01*
X149420000Y-98600000D02*
X154575001Y-98600000D01*
X149749999Y-104499999D02*
X155000001Y-104499999D01*
X156562500Y-102850000D02*
X155400000Y-102850000D01*
X148237500Y-103350000D02*
X148974999Y-103350000D01*
X160400000Y-97150000D02*
X162900000Y-94650000D01*
X149150000Y-104350000D02*
X149350000Y-104150000D01*
X154150000Y-98174999D02*
X154575001Y-98600000D01*
X155400000Y-100275001D02*
X155400000Y-102424999D01*
X156562500Y-102850000D02*
X159390000Y-102850000D01*
X148237500Y-104350000D02*
X149150000Y-104350000D01*
X157400000Y-99850000D02*
X158275000Y-98975000D01*
X162930000Y-94620000D02*
X162900000Y-94650000D01*
X166700000Y-95083102D02*
X166700000Y-95100001D01*
X149350000Y-104150000D02*
X149400000Y-104150000D01*
X155000001Y-104499999D02*
X155400000Y-104100000D01*
X147900000Y-97080000D02*
X147300000Y-97080000D01*
X159400000Y-102840000D02*
X160370000Y-102840000D01*
X160370000Y-102840000D02*
X160400000Y-102870000D01*
X149400000Y-104150000D02*
X149749999Y-104499999D01*
X155400000Y-99850000D02*
X155400000Y-100275001D01*
X158900000Y-98090000D02*
X160370000Y-98090000D01*
X160370000Y-98090000D02*
X160400000Y-98120000D01*
X148974999Y-103350000D02*
X149400000Y-103600000D01*
G04 #@! TA.AperFunction,Conductor*
G36*
X139357653Y-81919407D02*
G01*
X139393617Y-81968907D01*
X139393617Y-82030093D01*
X139357653Y-82079593D01*
X139327354Y-82094490D01*
X139187848Y-82135453D01*
X139187843Y-82135455D01*
X139065565Y-82214038D01*
X138970372Y-82323898D01*
X138909989Y-82456116D01*
X138909987Y-82456125D01*
X138889302Y-82599997D01*
X138889302Y-82600002D01*
X138909987Y-82743874D01*
X138909989Y-82743883D01*
X138970372Y-82876101D01*
X138970373Y-82876102D01*
X138970374Y-82876104D01*
X139065564Y-82985960D01*
X139065565Y-82985961D01*
X139077458Y-82993604D01*
X139187848Y-83064547D01*
X139327320Y-83105500D01*
X139327321Y-83105500D01*
X139472679Y-83105500D01*
X139472680Y-83105500D01*
X139612152Y-83064547D01*
X139734436Y-82985960D01*
X139829626Y-82876104D01*
X139886461Y-82751654D01*
X139890010Y-82743883D01*
X139890012Y-82743874D01*
X139910698Y-82600002D01*
X139910698Y-82599997D01*
X139890012Y-82456125D01*
X139890010Y-82456116D01*
X139829627Y-82323898D01*
X139829626Y-82323897D01*
X139829626Y-82323896D01*
X139734436Y-82214040D01*
X139734435Y-82214039D01*
X139734434Y-82214038D01*
X139612156Y-82135455D01*
X139612153Y-82135454D01*
X139612152Y-82135453D01*
X139472680Y-82094500D01*
X139472646Y-82094490D01*
X139422139Y-82059954D01*
X139401578Y-82002327D01*
X139418817Y-81943620D01*
X139467270Y-81906257D01*
X139500538Y-81900500D01*
X165299462Y-81900500D01*
X165357653Y-81919407D01*
X165393617Y-81968907D01*
X165393617Y-82030093D01*
X165357653Y-82079593D01*
X165327354Y-82094490D01*
X165187848Y-82135453D01*
X165187843Y-82135455D01*
X165065565Y-82214038D01*
X164970372Y-82323898D01*
X164909989Y-82456116D01*
X164909987Y-82456125D01*
X164889302Y-82599997D01*
X164889302Y-82600002D01*
X164909987Y-82743874D01*
X164909989Y-82743883D01*
X164970372Y-82876101D01*
X164970373Y-82876102D01*
X164970374Y-82876104D01*
X165065564Y-82985960D01*
X165065565Y-82985961D01*
X165077458Y-82993604D01*
X165187848Y-83064547D01*
X165327320Y-83105500D01*
X165327321Y-83105500D01*
X165472679Y-83105500D01*
X165472680Y-83105500D01*
X165612152Y-83064547D01*
X165734436Y-82985960D01*
X165829626Y-82876104D01*
X165886461Y-82751654D01*
X165890010Y-82743883D01*
X165890012Y-82743874D01*
X165910698Y-82600002D01*
X165910698Y-82599997D01*
X165890012Y-82456125D01*
X165890010Y-82456116D01*
X165829627Y-82323898D01*
X165829626Y-82323897D01*
X165829626Y-82323896D01*
X165734436Y-82214040D01*
X165734435Y-82214039D01*
X165734434Y-82214038D01*
X165612156Y-82135455D01*
X165612153Y-82135454D01*
X165612152Y-82135453D01*
X165472680Y-82094500D01*
X165472646Y-82094490D01*
X165422139Y-82059954D01*
X165401578Y-82002327D01*
X165418817Y-81943620D01*
X165467270Y-81906257D01*
X165500538Y-81900500D01*
X167852405Y-81900500D01*
X167897721Y-81900500D01*
X167902292Y-81900605D01*
X168282906Y-81918202D01*
X168292001Y-81919044D01*
X168667139Y-81971374D01*
X168676108Y-81973051D01*
X169044788Y-82059764D01*
X169053583Y-82062266D01*
X169412690Y-82182627D01*
X169421217Y-82185930D01*
X169767695Y-82338915D01*
X169775869Y-82342985D01*
X169978979Y-82456116D01*
X170106752Y-82527285D01*
X170114527Y-82532099D01*
X170426991Y-82746143D01*
X170434288Y-82751654D01*
X170725659Y-82993604D01*
X170732417Y-82999764D01*
X171000235Y-83267582D01*
X171006395Y-83274340D01*
X171248345Y-83565711D01*
X171253856Y-83573008D01*
X171467900Y-83885472D01*
X171472714Y-83893247D01*
X171657011Y-84224124D01*
X171661087Y-84232310D01*
X171814069Y-84578782D01*
X171817372Y-84587309D01*
X171937733Y-84946416D01*
X171940235Y-84955211D01*
X172026946Y-85323881D01*
X172028627Y-85332870D01*
X172080954Y-85707993D01*
X172081797Y-85717098D01*
X172099394Y-86097707D01*
X172099500Y-86102279D01*
X172099500Y-117097720D01*
X172099394Y-117102292D01*
X172081797Y-117482901D01*
X172080954Y-117492006D01*
X172028627Y-117867129D01*
X172026946Y-117876118D01*
X171940235Y-118244788D01*
X171937733Y-118253583D01*
X171817372Y-118612690D01*
X171814069Y-118621217D01*
X171661087Y-118967689D01*
X171657011Y-118975875D01*
X171472714Y-119306752D01*
X171467900Y-119314527D01*
X171253856Y-119626991D01*
X171248345Y-119634288D01*
X171006395Y-119925659D01*
X171000235Y-119932417D01*
X170732417Y-120200235D01*
X170725659Y-120206395D01*
X170434288Y-120448345D01*
X170426991Y-120453856D01*
X170114527Y-120667900D01*
X170106752Y-120672714D01*
X169775875Y-120857011D01*
X169767689Y-120861087D01*
X169421217Y-121014069D01*
X169412690Y-121017372D01*
X169053583Y-121137733D01*
X169044788Y-121140235D01*
X168676118Y-121226946D01*
X168667129Y-121228627D01*
X168292006Y-121280954D01*
X168282901Y-121281797D01*
X167902293Y-121299394D01*
X167897721Y-121299500D01*
X165500538Y-121299500D01*
X165442347Y-121280593D01*
X165406383Y-121231093D01*
X165406383Y-121169907D01*
X165442347Y-121120407D01*
X165472646Y-121105510D01*
X165472680Y-121105500D01*
X165612152Y-121064547D01*
X165734436Y-120985960D01*
X165829626Y-120876104D01*
X165890011Y-120743880D01*
X165900243Y-120672714D01*
X165910698Y-120600002D01*
X165910698Y-120599997D01*
X165890012Y-120456125D01*
X165890010Y-120456116D01*
X165829627Y-120323898D01*
X165829626Y-120323897D01*
X165829626Y-120323896D01*
X165734436Y-120214040D01*
X165734435Y-120214039D01*
X165734434Y-120214038D01*
X165612156Y-120135455D01*
X165612153Y-120135454D01*
X165612152Y-120135453D01*
X165521364Y-120108795D01*
X165472681Y-120094500D01*
X165472680Y-120094500D01*
X165327320Y-120094500D01*
X165327318Y-120094500D01*
X165187848Y-120135453D01*
X165187843Y-120135455D01*
X165065565Y-120214038D01*
X164970372Y-120323898D01*
X164909989Y-120456116D01*
X164909987Y-120456125D01*
X164889302Y-120599997D01*
X164889302Y-120600002D01*
X164909987Y-120743874D01*
X164909989Y-120743883D01*
X164970372Y-120876101D01*
X164970373Y-120876102D01*
X164970374Y-120876104D01*
X165001583Y-120912121D01*
X165065565Y-120985961D01*
X165112178Y-121015917D01*
X165187848Y-121064547D01*
X165327320Y-121105500D01*
X165327354Y-121105510D01*
X165377861Y-121140046D01*
X165398422Y-121197673D01*
X165381183Y-121256380D01*
X165332730Y-121293743D01*
X165299462Y-121299500D01*
X139500538Y-121299500D01*
X139442347Y-121280593D01*
X139406383Y-121231093D01*
X139406383Y-121169907D01*
X139442347Y-121120407D01*
X139472646Y-121105510D01*
X139472680Y-121105500D01*
X139612152Y-121064547D01*
X139734436Y-120985960D01*
X139829626Y-120876104D01*
X139890011Y-120743880D01*
X139900243Y-120672714D01*
X139910698Y-120600002D01*
X139910698Y-120599997D01*
X139890012Y-120456125D01*
X139890010Y-120456116D01*
X139829627Y-120323898D01*
X139829626Y-120323897D01*
X139829626Y-120323896D01*
X139734436Y-120214040D01*
X139734435Y-120214039D01*
X139734434Y-120214038D01*
X139612156Y-120135455D01*
X139612153Y-120135454D01*
X139612152Y-120135453D01*
X139521364Y-120108795D01*
X139472681Y-120094500D01*
X139472680Y-120094500D01*
X139327320Y-120094500D01*
X139327318Y-120094500D01*
X139187848Y-120135453D01*
X139187843Y-120135455D01*
X139065565Y-120214038D01*
X138970372Y-120323898D01*
X138909989Y-120456116D01*
X138909987Y-120456125D01*
X138889302Y-120599997D01*
X138889302Y-120600002D01*
X138909987Y-120743874D01*
X138909989Y-120743883D01*
X138970372Y-120876101D01*
X138970373Y-120876102D01*
X138970374Y-120876104D01*
X139001583Y-120912121D01*
X139065565Y-120985961D01*
X139112178Y-121015917D01*
X139187848Y-121064547D01*
X139327320Y-121105500D01*
X139327354Y-121105510D01*
X139377861Y-121140046D01*
X139398422Y-121197673D01*
X139381183Y-121256380D01*
X139332730Y-121293743D01*
X139299462Y-121299500D01*
X136902279Y-121299500D01*
X136897707Y-121299394D01*
X136517098Y-121281797D01*
X136507993Y-121280954D01*
X136132870Y-121228627D01*
X136123881Y-121226946D01*
X135755211Y-121140235D01*
X135746416Y-121137733D01*
X135387309Y-121017372D01*
X135378782Y-121014069D01*
X135032310Y-120861087D01*
X135024124Y-120857011D01*
X134693247Y-120672714D01*
X134685472Y-120667900D01*
X134373008Y-120453856D01*
X134365711Y-120448345D01*
X134074340Y-120206395D01*
X134067582Y-120200235D01*
X133799764Y-119932417D01*
X133793604Y-119925659D01*
X133551654Y-119634288D01*
X133546143Y-119626991D01*
X133332099Y-119314527D01*
X133327285Y-119306752D01*
X133142988Y-118975875D01*
X133138912Y-118967689D01*
X133089473Y-118855721D01*
X132985930Y-118621217D01*
X132982627Y-118612690D01*
X132862266Y-118253583D01*
X132859764Y-118244788D01*
X132773051Y-117876108D01*
X132771374Y-117867139D01*
X132719044Y-117492001D01*
X132718202Y-117482901D01*
X132717522Y-117468199D01*
X132700606Y-117102292D01*
X132700553Y-117100000D01*
X133494506Y-117100000D01*
X133514468Y-117468197D01*
X133574126Y-117832087D01*
X133672768Y-118187365D01*
X133672772Y-118187376D01*
X133809255Y-118529927D01*
X133857654Y-118621217D01*
X133981978Y-118855716D01*
X134188910Y-119160917D01*
X134188914Y-119160922D01*
X134188915Y-119160923D01*
X134427622Y-119441951D01*
X134427632Y-119441961D01*
X134695326Y-119695535D01*
X134695330Y-119695538D01*
X134988881Y-119918690D01*
X135304838Y-120108795D01*
X135639497Y-120263625D01*
X135988934Y-120381364D01*
X135988939Y-120381365D01*
X135988942Y-120381366D01*
X136349047Y-120460631D01*
X136349048Y-120460631D01*
X136349052Y-120460632D01*
X136715630Y-120500500D01*
X137084370Y-120500500D01*
X137450948Y-120460632D01*
X137471424Y-120456125D01*
X137570987Y-120434209D01*
X137811057Y-120381366D01*
X137811058Y-120381366D01*
X137811060Y-120381365D01*
X137811066Y-120381364D01*
X138160503Y-120263625D01*
X138495162Y-120108795D01*
X138811119Y-119918690D01*
X139104670Y-119695538D01*
X139372373Y-119441956D01*
X139611090Y-119160917D01*
X139818022Y-118855716D01*
X139990743Y-118529930D01*
X140127227Y-118187379D01*
X140140380Y-118140008D01*
X140225873Y-117832087D01*
X140225875Y-117832081D01*
X140285531Y-117468199D01*
X140305494Y-117100000D01*
X140285531Y-116731801D01*
X140267153Y-116619700D01*
X148650000Y-116619700D01*
X148661603Y-116678036D01*
X148705806Y-116744189D01*
X148705810Y-116744193D01*
X148771963Y-116788396D01*
X148830299Y-116799999D01*
X148830303Y-116800000D01*
X150749999Y-116800000D01*
X150750000Y-116799999D01*
X150950000Y-116799999D01*
X150950001Y-116800000D01*
X152869697Y-116800000D01*
X152869700Y-116799999D01*
X152928036Y-116788396D01*
X152994189Y-116744193D01*
X152994193Y-116744189D01*
X153038396Y-116678036D01*
X153049999Y-116619700D01*
X153050000Y-116619697D01*
X153050000Y-115700001D01*
X153049999Y-115700000D01*
X150950001Y-115700000D01*
X150950000Y-115700001D01*
X150950000Y-116799999D01*
X150750000Y-116799999D01*
X150750000Y-115700001D01*
X150749999Y-115700000D01*
X148650001Y-115700000D01*
X148650000Y-115700001D01*
X148650000Y-116619700D01*
X140267153Y-116619700D01*
X140225875Y-116367919D01*
X140213414Y-116323040D01*
X140127231Y-116012634D01*
X140127229Y-116012629D01*
X140127227Y-116012621D01*
X139990743Y-115670070D01*
X139900577Y-115499999D01*
X148650000Y-115499999D01*
X148650001Y-115500000D01*
X150749999Y-115500000D01*
X150750000Y-115499999D01*
X150950000Y-115499999D01*
X150950001Y-115500000D01*
X153049999Y-115500000D01*
X153050000Y-115499999D01*
X153050000Y-114580302D01*
X153049999Y-114580299D01*
X153038396Y-114521963D01*
X152994193Y-114455810D01*
X152994189Y-114455806D01*
X152928036Y-114411603D01*
X152869700Y-114400000D01*
X150950001Y-114400000D01*
X150950000Y-114400001D01*
X150950000Y-115499999D01*
X150750000Y-115499999D01*
X150750000Y-114400001D01*
X150749999Y-114400000D01*
X148830299Y-114400000D01*
X148771963Y-114411603D01*
X148705810Y-114455806D01*
X148705806Y-114455810D01*
X148661603Y-114521963D01*
X148650000Y-114580299D01*
X148650000Y-115499999D01*
X139900577Y-115499999D01*
X139818022Y-115344284D01*
X139611090Y-115039083D01*
X139578317Y-115000500D01*
X139372377Y-114758048D01*
X139372367Y-114758038D01*
X139104673Y-114504464D01*
X138811123Y-114281313D01*
X138811122Y-114281312D01*
X138811119Y-114281310D01*
X138495162Y-114091205D01*
X138380226Y-114038029D01*
X138160508Y-113936377D01*
X138160505Y-113936376D01*
X138160503Y-113936375D01*
X137811066Y-113818636D01*
X137811065Y-113818635D01*
X137811057Y-113818633D01*
X137450952Y-113739368D01*
X137450953Y-113739368D01*
X137084370Y-113699500D01*
X136715630Y-113699500D01*
X136349046Y-113739368D01*
X135988943Y-113818633D01*
X135988941Y-113818633D01*
X135639491Y-113936377D01*
X135304846Y-114091201D01*
X135304840Y-114091204D01*
X134988881Y-114281310D01*
X134988876Y-114281313D01*
X134695326Y-114504464D01*
X134427632Y-114758038D01*
X134427622Y-114758048D01*
X134188915Y-115039076D01*
X134188908Y-115039086D01*
X133981981Y-115344278D01*
X133809255Y-115670072D01*
X133672772Y-116012623D01*
X133672768Y-116012634D01*
X133574126Y-116367912D01*
X133514468Y-116731802D01*
X133494506Y-117100000D01*
X132700553Y-117100000D01*
X132700500Y-117097720D01*
X132700500Y-110869746D01*
X134399500Y-110869746D01*
X134399501Y-110869758D01*
X134411132Y-110928227D01*
X134411133Y-110928231D01*
X134455448Y-110994552D01*
X134521769Y-111038867D01*
X134566231Y-111047711D01*
X134580241Y-111050498D01*
X134580246Y-111050498D01*
X134580252Y-111050500D01*
X134697712Y-111050500D01*
X134733083Y-111058195D01*
X134733153Y-111057958D01*
X134736468Y-111058931D01*
X134738838Y-111059447D01*
X134739943Y-111059951D01*
X134739944Y-111059951D01*
X134739947Y-111059953D01*
X134853939Y-111093423D01*
X134878035Y-111100499D01*
X134878036Y-111100499D01*
X134878039Y-111100500D01*
X134878041Y-111100500D01*
X135021959Y-111100500D01*
X135021961Y-111100500D01*
X135160053Y-111059953D01*
X135160056Y-111059950D01*
X135161162Y-111059447D01*
X135163531Y-111058931D01*
X135166847Y-111057958D01*
X135166916Y-111058195D01*
X135202288Y-111050500D01*
X135319747Y-111050500D01*
X135319748Y-111050500D01*
X135324418Y-111049570D01*
X135380685Y-111038379D01*
X135419315Y-111038379D01*
X135480241Y-111050498D01*
X135480246Y-111050498D01*
X135480252Y-111050500D01*
X135480253Y-111050500D01*
X136219747Y-111050500D01*
X136219748Y-111050500D01*
X136278231Y-111038867D01*
X136344552Y-110994552D01*
X136377998Y-110944498D01*
X136426049Y-110906619D01*
X136460313Y-110900500D01*
X136675500Y-110900500D01*
X136733691Y-110919407D01*
X136769655Y-110968907D01*
X136774500Y-110999500D01*
X136774500Y-111104274D01*
X136777353Y-111134694D01*
X136777355Y-111134703D01*
X136822207Y-111262883D01*
X136902845Y-111372144D01*
X136902847Y-111372146D01*
X136902850Y-111372150D01*
X136902853Y-111372152D01*
X136902855Y-111372154D01*
X137012116Y-111452792D01*
X137012117Y-111452792D01*
X137012118Y-111452793D01*
X137140301Y-111497646D01*
X137170725Y-111500499D01*
X137170727Y-111500500D01*
X137170734Y-111500500D01*
X137804273Y-111500500D01*
X137804273Y-111500499D01*
X137834699Y-111497646D01*
X137962882Y-111452793D01*
X138072150Y-111372150D01*
X138152793Y-111262882D01*
X138197646Y-111134699D01*
X138200499Y-111104273D01*
X138200500Y-111104273D01*
X138200500Y-111104203D01*
X138600001Y-111104203D01*
X138602850Y-111134600D01*
X138602850Y-111134602D01*
X138647654Y-111262647D01*
X138728207Y-111371790D01*
X138728209Y-111371792D01*
X138837352Y-111452345D01*
X138965398Y-111497149D01*
X138995789Y-111499999D01*
X139212498Y-111499999D01*
X139212500Y-111499998D01*
X139412500Y-111499998D01*
X139412501Y-111499999D01*
X139629203Y-111499999D01*
X139659600Y-111497149D01*
X139659602Y-111497149D01*
X139787647Y-111452345D01*
X139896790Y-111371792D01*
X139896792Y-111371790D01*
X139977345Y-111262647D01*
X140022149Y-111134601D01*
X140024999Y-111104211D01*
X140025000Y-111104210D01*
X140025000Y-110700001D01*
X140024999Y-110700000D01*
X139412501Y-110700000D01*
X139412500Y-110700001D01*
X139412500Y-111499998D01*
X139212500Y-111499998D01*
X139212500Y-110700001D01*
X139212499Y-110700000D01*
X138600002Y-110700000D01*
X138600001Y-110700001D01*
X138600001Y-111104203D01*
X138200500Y-111104203D01*
X138200500Y-110629203D01*
X152750001Y-110629203D01*
X152752850Y-110659600D01*
X152752850Y-110659602D01*
X152797654Y-110787647D01*
X152878207Y-110896790D01*
X152878209Y-110896792D01*
X152987352Y-110977345D01*
X153115398Y-111022149D01*
X153145789Y-111024999D01*
X153349998Y-111024999D01*
X153350000Y-111024998D01*
X153550000Y-111024998D01*
X153550001Y-111024999D01*
X153754203Y-111024999D01*
X153784600Y-111022149D01*
X153784602Y-111022149D01*
X153912647Y-110977345D01*
X154021790Y-110896792D01*
X154021792Y-110896790D01*
X154102345Y-110787647D01*
X154147149Y-110659601D01*
X154149999Y-110629211D01*
X154150000Y-110629210D01*
X154150000Y-110200001D01*
X154149999Y-110200000D01*
X153550001Y-110200000D01*
X153550000Y-110200001D01*
X153550000Y-111024998D01*
X153350000Y-111024998D01*
X153350000Y-110200001D01*
X153349999Y-110200000D01*
X152750002Y-110200000D01*
X152750001Y-110200001D01*
X152750001Y-110629203D01*
X138200500Y-110629203D01*
X138200500Y-110499999D01*
X138600000Y-110499999D01*
X138600001Y-110500000D01*
X139212499Y-110500000D01*
X139212500Y-110499999D01*
X139412500Y-110499999D01*
X139412501Y-110500000D01*
X140024998Y-110500000D01*
X140024999Y-110499999D01*
X140024999Y-110095796D01*
X140022149Y-110065399D01*
X140022149Y-110065397D01*
X139977345Y-109937352D01*
X139896792Y-109828209D01*
X139896790Y-109828207D01*
X139787647Y-109747654D01*
X139659601Y-109702850D01*
X139629211Y-109700000D01*
X139412501Y-109700000D01*
X139412500Y-109700001D01*
X139412500Y-110499999D01*
X139212500Y-110499999D01*
X139212500Y-109700001D01*
X139212499Y-109700000D01*
X138995796Y-109700000D01*
X138965399Y-109702850D01*
X138965397Y-109702850D01*
X138837352Y-109747654D01*
X138728209Y-109828207D01*
X138728207Y-109828209D01*
X138647654Y-109937352D01*
X138602850Y-110065398D01*
X138600000Y-110095788D01*
X138600000Y-110499999D01*
X138200500Y-110499999D01*
X138200500Y-110095727D01*
X138200499Y-110095725D01*
X138197646Y-110065305D01*
X138197646Y-110065301D01*
X138152793Y-109937118D01*
X138146298Y-109928318D01*
X138072154Y-109827855D01*
X138072152Y-109827853D01*
X138072150Y-109827850D01*
X138072146Y-109827847D01*
X138072144Y-109827845D01*
X137962883Y-109747207D01*
X137834703Y-109702355D01*
X137834694Y-109702353D01*
X137804274Y-109699500D01*
X137804266Y-109699500D01*
X137170734Y-109699500D01*
X137170725Y-109699500D01*
X137140305Y-109702353D01*
X137140296Y-109702355D01*
X137012116Y-109747207D01*
X136902855Y-109827845D01*
X136902845Y-109827855D01*
X136822207Y-109937116D01*
X136777355Y-110065296D01*
X136777353Y-110065305D01*
X136774500Y-110095725D01*
X136774500Y-110200500D01*
X136755593Y-110258691D01*
X136706093Y-110294655D01*
X136675500Y-110299500D01*
X136460313Y-110299500D01*
X136402122Y-110280593D01*
X136377998Y-110255502D01*
X136344554Y-110205451D01*
X136344552Y-110205448D01*
X136337147Y-110200500D01*
X136278233Y-110161134D01*
X136278231Y-110161133D01*
X136278228Y-110161132D01*
X136278227Y-110161132D01*
X136219758Y-110149501D01*
X136219748Y-110149500D01*
X135549500Y-110149500D01*
X135491309Y-110130593D01*
X135455345Y-110081093D01*
X135450500Y-110050500D01*
X135450500Y-109998322D01*
X135469407Y-109940131D01*
X135479496Y-109928318D01*
X137278318Y-108129496D01*
X137332835Y-108101719D01*
X137348322Y-108100500D01*
X140871036Y-108100500D01*
X140929227Y-108119407D01*
X140936685Y-108125397D01*
X140999148Y-108180734D01*
X141149775Y-108259790D01*
X141314944Y-108300500D01*
X141314947Y-108300500D01*
X141485053Y-108300500D01*
X141485056Y-108300500D01*
X141650225Y-108259790D01*
X141800852Y-108180734D01*
X141928183Y-108067929D01*
X142024818Y-107927930D01*
X142085140Y-107768872D01*
X142105645Y-107600000D01*
X142085140Y-107431128D01*
X142024818Y-107272070D01*
X141928183Y-107132071D01*
X141928182Y-107132070D01*
X141928180Y-107132067D01*
X141925393Y-107128921D01*
X141900962Y-107072825D01*
X141900500Y-107063277D01*
X141900500Y-105714457D01*
X141902763Y-105693409D01*
X141903120Y-105691769D01*
X141904359Y-105686074D01*
X141900752Y-105635644D01*
X141900500Y-105628581D01*
X141900500Y-105614202D01*
X141899090Y-105604399D01*
X141898451Y-105599954D01*
X141897698Y-105592958D01*
X141894091Y-105542518D01*
X141891468Y-105535485D01*
X141886233Y-105514976D01*
X141885899Y-105512650D01*
X141885165Y-105507544D01*
X141867462Y-105468780D01*
X141864165Y-105461561D01*
X141861460Y-105455030D01*
X141841322Y-105401036D01*
X141843819Y-105400104D01*
X141834705Y-105351568D01*
X141860914Y-105296281D01*
X141891757Y-105274205D01*
X141913754Y-105264159D01*
X141920256Y-105261466D01*
X141967635Y-105243796D01*
X141973646Y-105239296D01*
X141991853Y-105228492D01*
X141998677Y-105225377D01*
X142036893Y-105192261D01*
X142042357Y-105187858D01*
X142053897Y-105179221D01*
X142064081Y-105169035D01*
X142069225Y-105164245D01*
X142107447Y-105131128D01*
X142111506Y-105124811D01*
X142124781Y-105108335D01*
X143358335Y-103874781D01*
X143374811Y-103861506D01*
X143381128Y-103857447D01*
X143414245Y-103819225D01*
X143419035Y-103814081D01*
X143429221Y-103803897D01*
X143437858Y-103792357D01*
X143442261Y-103786893D01*
X143475377Y-103748677D01*
X143478492Y-103741853D01*
X143489296Y-103723646D01*
X143493330Y-103718257D01*
X143493796Y-103717635D01*
X143511466Y-103670256D01*
X143514159Y-103663754D01*
X143535165Y-103617761D01*
X143536233Y-103610326D01*
X143541467Y-103589819D01*
X143544091Y-103582787D01*
X143547698Y-103532347D01*
X143548453Y-103525334D01*
X143548923Y-103522070D01*
X143550500Y-103511103D01*
X143550500Y-103496722D01*
X143550752Y-103489659D01*
X143551894Y-103473695D01*
X143554359Y-103439231D01*
X143552762Y-103431889D01*
X143550500Y-103410846D01*
X143550500Y-102799500D01*
X143569407Y-102741309D01*
X143618907Y-102705345D01*
X143649500Y-102700500D01*
X146814282Y-102700500D01*
X146872473Y-102719407D01*
X146908437Y-102768907D01*
X146908437Y-102830093D01*
X146892394Y-102860322D01*
X146891068Y-102862025D01*
X146890535Y-102862711D01*
X146882437Y-102871880D01*
X146881627Y-102872689D01*
X146881619Y-102872698D01*
X146870133Y-102888786D01*
X146867690Y-102892063D01*
X146837482Y-102930874D01*
X146833981Y-102937343D01*
X146830759Y-102943934D01*
X146816718Y-102991096D01*
X146815470Y-102994990D01*
X146799500Y-103041510D01*
X146798293Y-103048743D01*
X146797383Y-103056047D01*
X146799415Y-103105175D01*
X146799500Y-103109266D01*
X146799500Y-103453380D01*
X146797393Y-103473695D01*
X146794957Y-103485312D01*
X146798740Y-103515661D01*
X146799500Y-103527906D01*
X146799500Y-103529041D01*
X146802751Y-103548527D01*
X146803337Y-103552546D01*
X146807983Y-103589811D01*
X146809427Y-103601392D01*
X146811527Y-103608447D01*
X146813907Y-103615379D01*
X146837322Y-103658645D01*
X146839195Y-103662284D01*
X146860801Y-103706481D01*
X146865078Y-103712471D01*
X146869581Y-103718257D01*
X146905764Y-103751566D01*
X146908717Y-103754398D01*
X146934145Y-103779826D01*
X146961922Y-103834343D01*
X146952351Y-103894775D01*
X146918295Y-103932705D01*
X146909336Y-103938558D01*
X146909332Y-103938562D01*
X146897194Y-103954156D01*
X146891431Y-103961562D01*
X146890548Y-103962696D01*
X146882437Y-103971881D01*
X146881627Y-103972690D01*
X146881619Y-103972699D01*
X146870133Y-103988787D01*
X146867690Y-103992064D01*
X146837482Y-104030875D01*
X146833981Y-104037344D01*
X146830759Y-104043935D01*
X146816718Y-104091097D01*
X146815470Y-104094991D01*
X146799500Y-104141511D01*
X146798293Y-104148744D01*
X146797383Y-104156048D01*
X146799415Y-104205176D01*
X146799500Y-104209267D01*
X146799500Y-105303381D01*
X146797393Y-105323696D01*
X146794957Y-105335313D01*
X146798740Y-105365662D01*
X146799500Y-105377907D01*
X146799500Y-105379042D01*
X146802751Y-105398528D01*
X146803337Y-105402547D01*
X146806137Y-105425000D01*
X146809427Y-105451393D01*
X146811527Y-105458448D01*
X146813907Y-105465380D01*
X146837322Y-105508646D01*
X146839195Y-105512285D01*
X146860801Y-105556482D01*
X146865078Y-105562472D01*
X146869581Y-105568258D01*
X146905764Y-105601567D01*
X146908717Y-105604399D01*
X147281699Y-105977381D01*
X147294574Y-105993237D01*
X147301063Y-106003169D01*
X147325190Y-106021948D01*
X147334377Y-106030060D01*
X147335191Y-106030874D01*
X147335195Y-106030877D01*
X147351255Y-106042343D01*
X147354539Y-106044791D01*
X147393370Y-106075014D01*
X147393374Y-106075017D01*
X147393378Y-106075018D01*
X147399854Y-106078522D01*
X147406434Y-106081740D01*
X147453602Y-106095782D01*
X147457464Y-106097020D01*
X147467811Y-106100572D01*
X147504012Y-106113000D01*
X147504014Y-106113000D01*
X147511236Y-106114205D01*
X147518539Y-106115115D01*
X147518546Y-106115117D01*
X147567676Y-106113085D01*
X147571767Y-106113000D01*
X149200500Y-106113000D01*
X149258691Y-106131907D01*
X149294655Y-106181407D01*
X149299500Y-106212000D01*
X149299500Y-107925500D01*
X149280593Y-107983691D01*
X149231093Y-108019655D01*
X149200500Y-108024500D01*
X148570725Y-108024500D01*
X148540305Y-108027353D01*
X148540296Y-108027355D01*
X148412116Y-108072207D01*
X148302855Y-108152845D01*
X148302845Y-108152855D01*
X148222207Y-108262116D01*
X148177355Y-108390296D01*
X148177353Y-108390305D01*
X148174500Y-108420725D01*
X148174500Y-109779274D01*
X148177353Y-109809694D01*
X148177355Y-109809703D01*
X148222207Y-109937883D01*
X148302845Y-110047144D01*
X148302846Y-110047145D01*
X148302850Y-110047150D01*
X148302853Y-110047152D01*
X148302855Y-110047154D01*
X148412116Y-110127792D01*
X148412117Y-110127792D01*
X148412118Y-110127793D01*
X148540301Y-110172646D01*
X148570725Y-110175499D01*
X148570727Y-110175500D01*
X148570734Y-110175500D01*
X149304273Y-110175500D01*
X149304273Y-110175499D01*
X149334699Y-110172646D01*
X149462882Y-110127793D01*
X149572150Y-110047150D01*
X149652793Y-109937882D01*
X149697646Y-109809699D01*
X149700499Y-109779273D01*
X149700500Y-109779273D01*
X149700500Y-108873688D01*
X149719407Y-108815497D01*
X149729491Y-108803690D01*
X149864881Y-108668299D01*
X149880732Y-108655428D01*
X149890669Y-108648937D01*
X149909451Y-108624803D01*
X149917577Y-108615604D01*
X149918375Y-108614807D01*
X149929886Y-108598682D01*
X149932288Y-108595462D01*
X149962517Y-108556626D01*
X149962517Y-108556623D01*
X149966023Y-108550145D01*
X149969237Y-108543571D01*
X149969237Y-108543569D01*
X149969240Y-108543566D01*
X149983287Y-108496381D01*
X149984512Y-108492554D01*
X150000500Y-108445988D01*
X150000500Y-108445983D01*
X150001707Y-108438754D01*
X150002617Y-108431454D01*
X150000585Y-108382324D01*
X150000500Y-108378233D01*
X150000500Y-107930420D01*
X150019407Y-107872229D01*
X150068907Y-107836265D01*
X150130093Y-107836265D01*
X150165149Y-107856318D01*
X150249143Y-107930731D01*
X150249146Y-107930733D01*
X150249148Y-107930734D01*
X150399775Y-108009790D01*
X150564944Y-108050500D01*
X150564947Y-108050500D01*
X150735053Y-108050500D01*
X150735056Y-108050500D01*
X150900225Y-108009790D01*
X151050852Y-107930734D01*
X151050854Y-107930731D01*
X151050856Y-107930731D01*
X151134851Y-107856318D01*
X151190945Y-107831882D01*
X151250689Y-107845085D01*
X151291262Y-107890883D01*
X151299500Y-107930420D01*
X151299500Y-108049992D01*
X151280593Y-108108183D01*
X151259288Y-108129648D01*
X151227849Y-108152850D01*
X151147207Y-108262116D01*
X151102355Y-108390296D01*
X151102353Y-108390305D01*
X151099500Y-108420725D01*
X151099500Y-109779274D01*
X151102353Y-109809694D01*
X151102355Y-109809703D01*
X151147207Y-109937883D01*
X151227845Y-110047144D01*
X151227846Y-110047145D01*
X151227850Y-110047150D01*
X151227853Y-110047152D01*
X151227855Y-110047154D01*
X151337116Y-110127792D01*
X151337117Y-110127792D01*
X151337118Y-110127793D01*
X151465301Y-110172646D01*
X151495725Y-110175499D01*
X151495727Y-110175500D01*
X151495734Y-110175500D01*
X152229273Y-110175500D01*
X152229273Y-110175499D01*
X152259699Y-110172646D01*
X152387882Y-110127793D01*
X152497150Y-110047150D01*
X152571345Y-109946619D01*
X152621112Y-109911026D01*
X152682296Y-109911484D01*
X152731526Y-109947817D01*
X152747445Y-109997444D01*
X152750001Y-110000000D01*
X153349999Y-110000000D01*
X153350000Y-109999999D01*
X153350000Y-109175001D01*
X153349999Y-109175000D01*
X153145796Y-109175000D01*
X153115399Y-109177850D01*
X153115397Y-109177850D01*
X152987352Y-109222654D01*
X152878209Y-109303207D01*
X152878207Y-109303209D01*
X152804155Y-109403545D01*
X152754387Y-109439137D01*
X152693203Y-109438679D01*
X152643974Y-109402345D01*
X152625500Y-109344756D01*
X152625500Y-108499999D01*
X153440000Y-108499999D01*
X153440001Y-108500000D01*
X153819999Y-108500000D01*
X153820000Y-108499999D01*
X153820000Y-108090001D01*
X153819999Y-108090000D01*
X153740161Y-108090000D01*
X153690645Y-108096519D01*
X153690638Y-108096521D01*
X153581978Y-108147190D01*
X153497190Y-108231978D01*
X153446521Y-108340638D01*
X153446519Y-108340645D01*
X153440000Y-108390161D01*
X153440000Y-108499999D01*
X152625500Y-108499999D01*
X152625500Y-108420727D01*
X152625499Y-108420725D01*
X152625482Y-108420540D01*
X152622646Y-108390301D01*
X152577793Y-108262118D01*
X152555333Y-108231686D01*
X152538065Y-108208288D01*
X152518723Y-108150241D01*
X152537194Y-108091910D01*
X152586424Y-108055577D01*
X152617720Y-108050500D01*
X152735053Y-108050500D01*
X152735056Y-108050500D01*
X152900225Y-108009790D01*
X153050852Y-107930734D01*
X153178183Y-107817929D01*
X153274818Y-107677930D01*
X153335140Y-107518872D01*
X153353819Y-107365030D01*
X153355645Y-107350001D01*
X153355645Y-107349998D01*
X153349285Y-107297623D01*
X153335140Y-107181128D01*
X153274818Y-107022070D01*
X153178183Y-106882071D01*
X153168622Y-106873601D01*
X153137604Y-106820862D01*
X153143509Y-106759962D01*
X153184083Y-106714164D01*
X153234271Y-106700499D01*
X153252132Y-106700499D01*
X153332495Y-106684515D01*
X153345447Y-106675860D01*
X153404333Y-106659251D01*
X153455452Y-106675861D01*
X153467696Y-106684042D01*
X153467698Y-106684043D01*
X153547911Y-106699999D01*
X153547913Y-106700000D01*
X153549999Y-106700000D01*
X153550000Y-106699999D01*
X153550000Y-105761500D01*
X153568907Y-105703309D01*
X153618407Y-105667345D01*
X153649000Y-105662500D01*
X153651000Y-105662500D01*
X153709191Y-105681407D01*
X153745155Y-105730907D01*
X153750000Y-105761500D01*
X153750000Y-106699999D01*
X153750001Y-106700000D01*
X153752087Y-106700000D01*
X153752088Y-106699999D01*
X153832300Y-106684044D01*
X153844545Y-106675862D01*
X153903433Y-106659251D01*
X153954551Y-106675859D01*
X153967505Y-106684515D01*
X154047867Y-106700500D01*
X154200499Y-106700499D01*
X154258690Y-106719406D01*
X154294654Y-106768906D01*
X154299500Y-106799499D01*
X154299500Y-108011133D01*
X154280593Y-108069324D01*
X154231093Y-108105288D01*
X154169907Y-108105288D01*
X154158664Y-108100859D01*
X154149359Y-108096520D01*
X154149354Y-108096519D01*
X154099839Y-108090000D01*
X154020001Y-108090000D01*
X154020000Y-108090001D01*
X154020000Y-108601000D01*
X154001093Y-108659191D01*
X153951593Y-108695155D01*
X153921000Y-108700000D01*
X153440001Y-108700000D01*
X153440000Y-108700001D01*
X153440000Y-108809838D01*
X153446519Y-108859354D01*
X153446521Y-108859361D01*
X153497190Y-108968021D01*
X153557081Y-109027912D01*
X153584858Y-109082429D01*
X153575287Y-109142861D01*
X153557081Y-109167920D01*
X153550000Y-109175001D01*
X153550000Y-109999999D01*
X153550001Y-110000000D01*
X154149998Y-110000000D01*
X154149999Y-109999999D01*
X154149999Y-109570796D01*
X154147149Y-109540399D01*
X154147149Y-109540397D01*
X154102345Y-109412352D01*
X154021792Y-109303209D01*
X154021790Y-109303207D01*
X154002073Y-109288655D01*
X153966481Y-109238887D01*
X153966939Y-109177703D01*
X154003273Y-109128474D01*
X154060862Y-109110000D01*
X154099838Y-109110000D01*
X154149354Y-109103480D01*
X154149361Y-109103478D01*
X154258021Y-109052809D01*
X154258023Y-109052808D01*
X154329641Y-108981190D01*
X154384157Y-108953412D01*
X154444589Y-108962983D01*
X154469647Y-108981188D01*
X154500502Y-109012042D01*
X154528281Y-109066558D01*
X154529500Y-109082047D01*
X154529500Y-109583381D01*
X154527393Y-109603696D01*
X154524957Y-109615313D01*
X154528740Y-109645662D01*
X154529500Y-109657907D01*
X154529500Y-109659042D01*
X154532751Y-109678528D01*
X154533337Y-109682547D01*
X154537284Y-109714201D01*
X154539427Y-109731393D01*
X154541527Y-109738448D01*
X154543907Y-109745380D01*
X154567322Y-109788646D01*
X154569195Y-109792285D01*
X154590801Y-109836482D01*
X154595078Y-109842472D01*
X154599581Y-109848257D01*
X154617550Y-109864799D01*
X154647558Y-109918121D01*
X154649500Y-109937636D01*
X154649500Y-110629274D01*
X154652353Y-110659694D01*
X154652355Y-110659703D01*
X154697207Y-110787883D01*
X154777847Y-110897148D01*
X154809287Y-110920351D01*
X154844880Y-110970118D01*
X154849500Y-111000007D01*
X154849500Y-112935542D01*
X154847238Y-112956585D01*
X154845641Y-112963926D01*
X154849248Y-113014355D01*
X154849500Y-113021418D01*
X154849500Y-113035799D01*
X154851547Y-113050040D01*
X154852302Y-113057062D01*
X154855908Y-113107483D01*
X154858533Y-113114520D01*
X154863764Y-113135014D01*
X154864834Y-113142454D01*
X154864835Y-113142457D01*
X154885835Y-113188441D01*
X154888539Y-113194970D01*
X154906202Y-113242327D01*
X154906203Y-113242328D01*
X154906204Y-113242331D01*
X154909918Y-113247293D01*
X154910708Y-113248348D01*
X154921501Y-113266538D01*
X154924623Y-113273373D01*
X154957736Y-113311588D01*
X154962140Y-113317052D01*
X154970779Y-113328593D01*
X154970781Y-113328595D01*
X154980962Y-113338777D01*
X154985764Y-113343934D01*
X155018872Y-113382143D01*
X155018873Y-113382144D01*
X155025183Y-113386199D01*
X155041666Y-113399480D01*
X155895376Y-114253190D01*
X155923153Y-114307707D01*
X155913582Y-114368139D01*
X155878325Y-114403395D01*
X155879876Y-114405716D01*
X155805451Y-114455445D01*
X155805445Y-114455451D01*
X155761134Y-114521766D01*
X155761132Y-114521772D01*
X155749501Y-114580241D01*
X155749500Y-114580253D01*
X155749500Y-116619746D01*
X155749501Y-116619758D01*
X155761132Y-116678227D01*
X155761134Y-116678233D01*
X155805205Y-116744189D01*
X155805448Y-116744552D01*
X155871769Y-116788867D01*
X155916231Y-116797711D01*
X155930241Y-116800498D01*
X155930246Y-116800498D01*
X155930252Y-116800500D01*
X155930253Y-116800500D01*
X159969747Y-116800500D01*
X159969748Y-116800500D01*
X160028231Y-116788867D01*
X160094552Y-116744552D01*
X160138867Y-116678231D01*
X160150500Y-116619748D01*
X160150500Y-116199500D01*
X160169407Y-116141309D01*
X160218907Y-116105345D01*
X160249500Y-116100500D01*
X164518142Y-116100500D01*
X164576333Y-116119407D01*
X164612297Y-116168907D01*
X164613533Y-116225986D01*
X164574125Y-116367914D01*
X164514468Y-116731802D01*
X164494506Y-117100000D01*
X164514468Y-117468197D01*
X164574126Y-117832087D01*
X164672768Y-118187365D01*
X164672772Y-118187376D01*
X164809255Y-118529927D01*
X164857654Y-118621217D01*
X164981978Y-118855716D01*
X165188910Y-119160917D01*
X165188914Y-119160922D01*
X165188915Y-119160923D01*
X165427622Y-119441951D01*
X165427632Y-119441961D01*
X165695326Y-119695535D01*
X165695330Y-119695538D01*
X165988881Y-119918690D01*
X166304838Y-120108795D01*
X166639497Y-120263625D01*
X166988934Y-120381364D01*
X166988939Y-120381365D01*
X166988942Y-120381366D01*
X167349047Y-120460631D01*
X167349048Y-120460631D01*
X167349052Y-120460632D01*
X167715630Y-120500500D01*
X168084370Y-120500500D01*
X168450948Y-120460632D01*
X168471424Y-120456125D01*
X168570987Y-120434209D01*
X168811057Y-120381366D01*
X168811058Y-120381366D01*
X168811060Y-120381365D01*
X168811066Y-120381364D01*
X169160503Y-120263625D01*
X169495162Y-120108795D01*
X169811119Y-119918690D01*
X170104670Y-119695538D01*
X170372373Y-119441956D01*
X170611090Y-119160917D01*
X170818022Y-118855716D01*
X170990743Y-118529930D01*
X171127227Y-118187379D01*
X171140380Y-118140008D01*
X171225873Y-117832087D01*
X171225875Y-117832081D01*
X171285531Y-117468199D01*
X171305494Y-117100000D01*
X171285531Y-116731801D01*
X171225875Y-116367919D01*
X171213414Y-116323040D01*
X171127231Y-116012634D01*
X171127229Y-116012629D01*
X171127227Y-116012621D01*
X170990743Y-115670070D01*
X170818022Y-115344284D01*
X170611090Y-115039083D01*
X170578317Y-115000500D01*
X170372377Y-114758048D01*
X170372367Y-114758038D01*
X170104673Y-114504464D01*
X169811123Y-114281313D01*
X169811122Y-114281312D01*
X169811119Y-114281310D01*
X169495162Y-114091205D01*
X169380226Y-114038029D01*
X169160508Y-113936377D01*
X169160505Y-113936376D01*
X169160503Y-113936375D01*
X168811066Y-113818636D01*
X168811065Y-113818635D01*
X168811057Y-113818633D01*
X168450952Y-113739368D01*
X168450953Y-113739368D01*
X168084370Y-113699500D01*
X167715630Y-113699500D01*
X167349046Y-113739368D01*
X166988943Y-113818633D01*
X166988941Y-113818633D01*
X166639491Y-113936377D01*
X166304846Y-114091201D01*
X166304840Y-114091204D01*
X165988881Y-114281310D01*
X165988876Y-114281313D01*
X165695326Y-114504464D01*
X165427632Y-114758038D01*
X165427622Y-114758048D01*
X165188915Y-115039076D01*
X165188908Y-115039086D01*
X165177401Y-115056058D01*
X165129095Y-115093611D01*
X165095460Y-115099500D01*
X160249500Y-115099500D01*
X160191309Y-115080593D01*
X160155345Y-115031093D01*
X160150500Y-115000500D01*
X160150500Y-114580253D01*
X160150498Y-114580241D01*
X160147711Y-114566231D01*
X160138867Y-114521769D01*
X160094552Y-114455448D01*
X160094548Y-114455445D01*
X160028233Y-114411134D01*
X160028231Y-114411133D01*
X160028228Y-114411132D01*
X160028227Y-114411132D01*
X159969758Y-114399501D01*
X159969748Y-114399500D01*
X159969747Y-114399500D01*
X157498321Y-114399500D01*
X157440130Y-114380593D01*
X157428317Y-114370504D01*
X155879496Y-112821682D01*
X155851719Y-112767165D01*
X155850500Y-112751678D01*
X155850500Y-111000007D01*
X155869407Y-110941816D01*
X155890713Y-110920351D01*
X155891992Y-110919407D01*
X155922150Y-110897150D01*
X155922150Y-110897148D01*
X155922152Y-110897148D01*
X156002792Y-110787883D01*
X156002791Y-110787883D01*
X156002793Y-110787882D01*
X156047646Y-110659699D01*
X156050499Y-110629273D01*
X156050500Y-110629273D01*
X156050500Y-109570727D01*
X156050499Y-109570725D01*
X156047646Y-109540305D01*
X156047646Y-109540301D01*
X156002793Y-109412118D01*
X156002141Y-109411235D01*
X155922154Y-109302855D01*
X155922152Y-109302853D01*
X155922150Y-109302850D01*
X155922146Y-109302847D01*
X155922144Y-109302845D01*
X155812883Y-109222207D01*
X155684703Y-109177355D01*
X155684694Y-109177353D01*
X155654274Y-109174500D01*
X155654266Y-109174500D01*
X155336048Y-109174500D01*
X155277857Y-109155593D01*
X155241893Y-109106093D01*
X155241893Y-109044907D01*
X155266044Y-109005497D01*
X155290352Y-108981188D01*
X155303224Y-108968316D01*
X155353972Y-108859487D01*
X155360500Y-108809901D01*
X155360499Y-108390100D01*
X155359475Y-108382324D01*
X155353972Y-108340513D01*
X155353972Y-108340511D01*
X155303225Y-108231686D01*
X155303224Y-108231685D01*
X155303224Y-108231684D01*
X155218316Y-108146776D01*
X155218314Y-108146775D01*
X155218313Y-108146774D01*
X155109489Y-108096029D01*
X155109488Y-108096028D01*
X155096630Y-108094335D01*
X155086576Y-108093011D01*
X155031352Y-108066670D01*
X155002158Y-108012899D01*
X155000500Y-107994859D01*
X155000500Y-106799499D01*
X155019407Y-106741308D01*
X155068907Y-106705344D01*
X155099495Y-106700499D01*
X155252132Y-106700499D01*
X155332495Y-106684515D01*
X155423624Y-106623624D01*
X155442701Y-106595073D01*
X155490750Y-106557193D01*
X155537263Y-106551833D01*
X155543537Y-106552614D01*
X155543546Y-106552617D01*
X155592676Y-106550585D01*
X155596767Y-106550500D01*
X159503381Y-106550500D01*
X159523696Y-106552607D01*
X159525606Y-106553007D01*
X159535315Y-106555043D01*
X159565662Y-106551259D01*
X159577907Y-106550500D01*
X159579043Y-106550500D01*
X159598521Y-106547249D01*
X159602552Y-106546661D01*
X159651393Y-106540573D01*
X159651396Y-106540571D01*
X159658429Y-106538477D01*
X159665375Y-106536092D01*
X159665381Y-106536092D01*
X159708655Y-106512671D01*
X159712279Y-106510807D01*
X159756482Y-106489199D01*
X159756482Y-106489198D01*
X159756484Y-106489198D01*
X159756485Y-106489196D01*
X159762470Y-106484923D01*
X159768255Y-106480420D01*
X159768255Y-106480419D01*
X159768258Y-106480418D01*
X159801579Y-106444220D01*
X159804364Y-106441316D01*
X160614884Y-105630796D01*
X160630734Y-105617926D01*
X160640669Y-105611437D01*
X160659451Y-105587303D01*
X160667577Y-105578104D01*
X160668376Y-105577306D01*
X160679875Y-105561198D01*
X160682309Y-105557936D01*
X160712517Y-105519126D01*
X160712518Y-105519122D01*
X160716022Y-105512650D01*
X160719239Y-105506067D01*
X160719238Y-105506067D01*
X160719240Y-105506066D01*
X160731352Y-105465381D01*
X160733285Y-105458890D01*
X160734521Y-105455028D01*
X160750500Y-105408488D01*
X160750500Y-105408484D01*
X160751709Y-105401241D01*
X160752618Y-105393952D01*
X160750585Y-105344799D01*
X160750500Y-105340708D01*
X160750500Y-104312047D01*
X160769407Y-104253856D01*
X160779490Y-104242049D01*
X160853224Y-104168316D01*
X160903972Y-104059487D01*
X160910500Y-104009901D01*
X160910499Y-103856188D01*
X160912510Y-103850000D01*
X162694355Y-103850000D01*
X162714860Y-104018872D01*
X162775182Y-104177930D01*
X162871817Y-104317929D01*
X162999148Y-104430734D01*
X163149775Y-104509790D01*
X163314944Y-104550500D01*
X163314947Y-104550500D01*
X163485053Y-104550500D01*
X163485056Y-104550500D01*
X163650225Y-104509790D01*
X163800852Y-104430734D01*
X163800855Y-104430730D01*
X163802711Y-104429757D01*
X163863022Y-104419456D01*
X163903716Y-104435100D01*
X163946769Y-104463867D01*
X163991231Y-104472711D01*
X164005241Y-104475498D01*
X164005246Y-104475498D01*
X164005252Y-104475500D01*
X164005253Y-104475500D01*
X166694747Y-104475500D01*
X166694748Y-104475500D01*
X166753231Y-104463867D01*
X166819552Y-104419552D01*
X166863867Y-104353231D01*
X166863868Y-104353225D01*
X166867597Y-104344224D01*
X166869089Y-104344842D01*
X166893476Y-104301300D01*
X166949041Y-104275686D01*
X166960675Y-104275000D01*
X167189325Y-104275000D01*
X167247516Y-104293907D01*
X167283480Y-104343407D01*
X167285888Y-104352639D01*
X167286134Y-104353233D01*
X167305408Y-104382078D01*
X167330448Y-104419552D01*
X167396769Y-104463867D01*
X167441231Y-104472711D01*
X167455241Y-104475498D01*
X167455246Y-104475498D01*
X167455252Y-104475500D01*
X167455253Y-104475500D01*
X171044747Y-104475500D01*
X171044748Y-104475500D01*
X171103231Y-104463867D01*
X171169552Y-104419552D01*
X171213867Y-104353231D01*
X171225500Y-104294748D01*
X171225500Y-103405252D01*
X171213867Y-103346769D01*
X171169552Y-103280448D01*
X171152819Y-103269267D01*
X171103233Y-103236134D01*
X171103231Y-103236133D01*
X171103228Y-103236132D01*
X171103227Y-103236132D01*
X171044758Y-103224501D01*
X171044748Y-103224500D01*
X167455252Y-103224500D01*
X167455251Y-103224500D01*
X167455241Y-103224501D01*
X167396772Y-103236132D01*
X167396766Y-103236134D01*
X167330451Y-103280445D01*
X167330445Y-103280451D01*
X167286134Y-103346766D01*
X167282403Y-103355776D01*
X167280910Y-103355157D01*
X167256524Y-103398700D01*
X167200959Y-103424314D01*
X167189325Y-103425000D01*
X166960675Y-103425000D01*
X166902484Y-103406093D01*
X166866520Y-103356593D01*
X166864111Y-103347360D01*
X166863867Y-103346772D01*
X166863867Y-103346769D01*
X166819552Y-103280448D01*
X166802819Y-103269267D01*
X166753233Y-103236134D01*
X166753231Y-103236133D01*
X166753228Y-103236132D01*
X166753227Y-103236132D01*
X166694758Y-103224501D01*
X166694748Y-103224500D01*
X164005252Y-103224500D01*
X164005251Y-103224500D01*
X164005241Y-103224501D01*
X163946772Y-103236132D01*
X163946766Y-103236134D01*
X163903721Y-103264897D01*
X163844833Y-103281506D01*
X163802711Y-103270242D01*
X163800852Y-103269266D01*
X163650225Y-103190210D01*
X163650222Y-103190209D01*
X163645365Y-103187660D01*
X163602627Y-103143876D01*
X163593786Y-103083332D01*
X163622221Y-103029156D01*
X163645365Y-103012340D01*
X163650222Y-103009790D01*
X163650225Y-103009790D01*
X163800852Y-102930734D01*
X163800855Y-102930730D01*
X163802711Y-102929757D01*
X163863023Y-102919456D01*
X163903716Y-102935100D01*
X163946769Y-102963867D01*
X163991231Y-102972711D01*
X164005241Y-102975498D01*
X164005246Y-102975498D01*
X164005252Y-102975500D01*
X164005253Y-102975500D01*
X166694747Y-102975500D01*
X166694748Y-102975500D01*
X166753231Y-102963867D01*
X166819552Y-102919552D01*
X166863867Y-102853231D01*
X166863868Y-102853225D01*
X166867597Y-102844224D01*
X166869089Y-102844842D01*
X166893476Y-102801300D01*
X166949041Y-102775686D01*
X166960675Y-102775000D01*
X167189325Y-102775000D01*
X167247516Y-102793907D01*
X167283480Y-102843407D01*
X167285888Y-102852639D01*
X167286134Y-102853233D01*
X167305544Y-102882281D01*
X167330448Y-102919552D01*
X167396769Y-102963867D01*
X167441231Y-102972711D01*
X167455241Y-102975498D01*
X167455246Y-102975498D01*
X167455252Y-102975500D01*
X167455253Y-102975500D01*
X171044747Y-102975500D01*
X171044748Y-102975500D01*
X171103231Y-102963867D01*
X171169552Y-102919552D01*
X171213867Y-102853231D01*
X171225500Y-102794748D01*
X171225500Y-101905252D01*
X171213867Y-101846769D01*
X171169552Y-101780448D01*
X171152819Y-101769267D01*
X171103233Y-101736134D01*
X171103231Y-101736133D01*
X171103228Y-101736132D01*
X171103227Y-101736132D01*
X171044758Y-101724501D01*
X171044748Y-101724500D01*
X167455252Y-101724500D01*
X167455251Y-101724500D01*
X167455241Y-101724501D01*
X167396772Y-101736132D01*
X167396766Y-101736134D01*
X167330451Y-101780445D01*
X167330445Y-101780451D01*
X167286134Y-101846766D01*
X167282403Y-101855776D01*
X167280910Y-101855157D01*
X167256524Y-101898700D01*
X167200959Y-101924314D01*
X167189325Y-101925000D01*
X166960675Y-101925000D01*
X166902484Y-101906093D01*
X166866520Y-101856593D01*
X166864111Y-101847360D01*
X166863867Y-101846772D01*
X166863867Y-101846769D01*
X166819552Y-101780448D01*
X166802819Y-101769267D01*
X166753233Y-101736134D01*
X166753231Y-101736133D01*
X166753228Y-101736132D01*
X166753227Y-101736132D01*
X166694758Y-101724501D01*
X166694748Y-101724500D01*
X164005252Y-101724500D01*
X164005251Y-101724500D01*
X164005241Y-101724501D01*
X163946772Y-101736132D01*
X163946766Y-101736134D01*
X163903721Y-101764897D01*
X163844833Y-101781506D01*
X163802711Y-101770242D01*
X163800852Y-101769266D01*
X163650225Y-101690210D01*
X163650222Y-101690209D01*
X163645365Y-101687660D01*
X163602627Y-101643876D01*
X163593786Y-101583332D01*
X163622221Y-101529156D01*
X163645365Y-101512340D01*
X163650222Y-101509790D01*
X163650225Y-101509790D01*
X163800852Y-101430734D01*
X163800855Y-101430730D01*
X163802711Y-101429757D01*
X163863023Y-101419456D01*
X163903716Y-101435100D01*
X163946769Y-101463867D01*
X163991231Y-101472711D01*
X164005241Y-101475498D01*
X164005246Y-101475498D01*
X164005252Y-101475500D01*
X164005253Y-101475500D01*
X166694747Y-101475500D01*
X166694748Y-101475500D01*
X166753231Y-101463867D01*
X166819552Y-101419552D01*
X166863867Y-101353231D01*
X166863868Y-101353225D01*
X166867597Y-101344224D01*
X166869089Y-101344842D01*
X166893476Y-101301300D01*
X166949041Y-101275686D01*
X166960675Y-101275000D01*
X167189325Y-101275000D01*
X167247516Y-101293907D01*
X167283480Y-101343407D01*
X167285888Y-101352639D01*
X167286134Y-101353233D01*
X167314231Y-101395282D01*
X167330448Y-101419552D01*
X167396769Y-101463867D01*
X167441231Y-101472711D01*
X167455241Y-101475498D01*
X167455246Y-101475498D01*
X167455252Y-101475500D01*
X167455253Y-101475500D01*
X171044747Y-101475500D01*
X171044748Y-101475500D01*
X171103231Y-101463867D01*
X171169552Y-101419552D01*
X171213867Y-101353231D01*
X171225500Y-101294748D01*
X171225500Y-100405252D01*
X171213867Y-100346769D01*
X171169552Y-100280448D01*
X171152819Y-100269267D01*
X171103233Y-100236134D01*
X171103231Y-100236133D01*
X171103228Y-100236132D01*
X171103227Y-100236132D01*
X171044758Y-100224501D01*
X171044748Y-100224500D01*
X167455252Y-100224500D01*
X167455251Y-100224500D01*
X167455241Y-100224501D01*
X167396772Y-100236132D01*
X167396766Y-100236134D01*
X167330451Y-100280445D01*
X167330445Y-100280451D01*
X167286134Y-100346766D01*
X167282403Y-100355776D01*
X167280910Y-100355157D01*
X167256524Y-100398700D01*
X167200959Y-100424314D01*
X167189325Y-100425000D01*
X166960675Y-100425000D01*
X166902484Y-100406093D01*
X166866520Y-100356593D01*
X166864111Y-100347360D01*
X166863867Y-100346772D01*
X166863867Y-100346769D01*
X166819552Y-100280448D01*
X166802819Y-100269267D01*
X166753233Y-100236134D01*
X166753231Y-100236133D01*
X166753228Y-100236132D01*
X166753227Y-100236132D01*
X166694758Y-100224501D01*
X166694748Y-100224500D01*
X164005252Y-100224500D01*
X164005251Y-100224500D01*
X164005241Y-100224501D01*
X163946772Y-100236132D01*
X163946766Y-100236134D01*
X163903721Y-100264897D01*
X163844833Y-100281506D01*
X163802711Y-100270242D01*
X163800852Y-100269266D01*
X163650225Y-100190210D01*
X163650222Y-100190209D01*
X163645365Y-100187660D01*
X163602627Y-100143876D01*
X163593786Y-100083332D01*
X163622221Y-100029156D01*
X163645365Y-100012340D01*
X163650222Y-100009790D01*
X163650225Y-100009790D01*
X163800852Y-99930734D01*
X163800855Y-99930730D01*
X163802711Y-99929757D01*
X163863023Y-99919456D01*
X163903716Y-99935100D01*
X163946769Y-99963867D01*
X163991231Y-99972711D01*
X164005241Y-99975498D01*
X164005246Y-99975498D01*
X164005252Y-99975500D01*
X164005253Y-99975500D01*
X166694747Y-99975500D01*
X166694748Y-99975500D01*
X166753231Y-99963867D01*
X166819552Y-99919552D01*
X166863867Y-99853231D01*
X166863868Y-99853225D01*
X166867597Y-99844224D01*
X166869089Y-99844842D01*
X166893476Y-99801300D01*
X166949041Y-99775686D01*
X166960675Y-99775000D01*
X167189325Y-99775000D01*
X167247516Y-99793907D01*
X167283480Y-99843407D01*
X167285888Y-99852639D01*
X167286134Y-99853233D01*
X167330384Y-99919456D01*
X167330448Y-99919552D01*
X167396769Y-99963867D01*
X167441231Y-99972711D01*
X167455241Y-99975498D01*
X167455246Y-99975498D01*
X167455252Y-99975500D01*
X167455253Y-99975500D01*
X171044747Y-99975500D01*
X171044748Y-99975500D01*
X171103231Y-99963867D01*
X171169552Y-99919552D01*
X171213867Y-99853231D01*
X171225500Y-99794748D01*
X171225500Y-98905252D01*
X171225322Y-98904359D01*
X171220889Y-98882071D01*
X171213867Y-98846769D01*
X171169552Y-98780448D01*
X171152819Y-98769267D01*
X171103233Y-98736134D01*
X171103231Y-98736133D01*
X171103228Y-98736132D01*
X171103227Y-98736132D01*
X171044758Y-98724501D01*
X171044748Y-98724500D01*
X167455252Y-98724500D01*
X167455251Y-98724500D01*
X167455241Y-98724501D01*
X167396772Y-98736132D01*
X167396766Y-98736134D01*
X167330451Y-98780445D01*
X167330445Y-98780451D01*
X167286134Y-98846766D01*
X167282403Y-98855776D01*
X167280910Y-98855157D01*
X167256524Y-98898700D01*
X167200959Y-98924314D01*
X167189325Y-98925000D01*
X166960675Y-98925000D01*
X166902484Y-98906093D01*
X166866520Y-98856593D01*
X166864111Y-98847360D01*
X166863867Y-98846772D01*
X166863867Y-98846769D01*
X166819552Y-98780448D01*
X166802819Y-98769267D01*
X166753233Y-98736134D01*
X166753231Y-98736133D01*
X166753228Y-98736132D01*
X166753227Y-98736132D01*
X166694758Y-98724501D01*
X166694748Y-98724500D01*
X164005252Y-98724500D01*
X164005251Y-98724500D01*
X164005241Y-98724501D01*
X163946772Y-98736132D01*
X163946766Y-98736134D01*
X163903721Y-98764897D01*
X163844833Y-98781506D01*
X163802711Y-98770242D01*
X163800852Y-98769266D01*
X163650225Y-98690210D01*
X163650224Y-98690209D01*
X163650223Y-98690209D01*
X163485058Y-98649500D01*
X163485056Y-98649500D01*
X163314944Y-98649500D01*
X163314941Y-98649500D01*
X163149776Y-98690209D01*
X162999146Y-98769267D01*
X162871818Y-98882069D01*
X162871816Y-98882072D01*
X162822142Y-98954037D01*
X162775182Y-99022070D01*
X162714860Y-99181128D01*
X162712990Y-99196526D01*
X162694570Y-99348233D01*
X162694355Y-99350000D01*
X162714860Y-99518872D01*
X162775182Y-99677930D01*
X162871817Y-99817929D01*
X162999148Y-99930734D01*
X163134445Y-100001744D01*
X163154634Y-100012340D01*
X163197372Y-100056124D01*
X163206213Y-100116668D01*
X163177778Y-100170845D01*
X163154634Y-100187660D01*
X163149775Y-100190209D01*
X163149775Y-100190210D01*
X163039926Y-100247864D01*
X162999146Y-100269267D01*
X162871818Y-100382069D01*
X162871816Y-100382072D01*
X162842185Y-100425000D01*
X162775182Y-100522070D01*
X162720027Y-100667505D01*
X162714860Y-100681129D01*
X162694355Y-100849998D01*
X162694355Y-100850001D01*
X162696667Y-100869039D01*
X162714860Y-101018872D01*
X162775182Y-101177930D01*
X162860339Y-101301300D01*
X162871816Y-101317927D01*
X162871818Y-101317930D01*
X162910177Y-101351913D01*
X162999148Y-101430734D01*
X163140662Y-101505007D01*
X163154634Y-101512340D01*
X163197372Y-101556124D01*
X163206213Y-101616668D01*
X163177778Y-101670845D01*
X163154634Y-101687660D01*
X163149775Y-101690209D01*
X163149775Y-101690210D01*
X163039920Y-101747867D01*
X162999146Y-101769267D01*
X162871818Y-101882069D01*
X162871816Y-101882072D01*
X162842185Y-101925000D01*
X162775182Y-102022070D01*
X162714860Y-102181128D01*
X162694355Y-102350000D01*
X162714860Y-102518872D01*
X162775182Y-102677930D01*
X162871817Y-102817929D01*
X162999148Y-102930734D01*
X163149775Y-103009790D01*
X163154634Y-103012340D01*
X163197372Y-103056124D01*
X163206213Y-103116668D01*
X163177778Y-103170845D01*
X163154634Y-103187660D01*
X163149775Y-103190209D01*
X163149775Y-103190210D01*
X163039926Y-103247864D01*
X162999146Y-103269267D01*
X162871818Y-103382069D01*
X162871816Y-103382072D01*
X162815508Y-103463648D01*
X162775182Y-103522070D01*
X162719007Y-103670195D01*
X162714860Y-103681129D01*
X162701696Y-103789546D01*
X162694355Y-103850000D01*
X160912510Y-103850000D01*
X160929406Y-103797998D01*
X160939489Y-103786191D01*
X161314818Y-103410862D01*
X161330667Y-103397992D01*
X161340607Y-103391499D01*
X161359392Y-103367361D01*
X161367511Y-103358169D01*
X161368313Y-103357368D01*
X161379822Y-103341246D01*
X161382191Y-103338069D01*
X161412455Y-103299188D01*
X161412456Y-103299184D01*
X161415961Y-103292707D01*
X161419175Y-103286133D01*
X161419175Y-103286131D01*
X161419178Y-103286128D01*
X161433225Y-103238943D01*
X161434450Y-103235116D01*
X161450438Y-103188550D01*
X161450438Y-103188545D01*
X161451645Y-103181313D01*
X161452555Y-103174017D01*
X161450523Y-103124875D01*
X161450438Y-103120785D01*
X161450438Y-101146551D01*
X161452545Y-101126235D01*
X161454308Y-101117826D01*
X161454980Y-101114623D01*
X161451198Y-101084280D01*
X161450438Y-101072036D01*
X161450438Y-101070897D01*
X161448770Y-101060906D01*
X161447181Y-101051385D01*
X161446596Y-101047367D01*
X161440511Y-100998545D01*
X161440509Y-100998542D01*
X161438415Y-100991507D01*
X161436029Y-100984554D01*
X161412625Y-100941309D01*
X161410751Y-100937668D01*
X161389137Y-100893455D01*
X161384886Y-100887500D01*
X161380357Y-100881681D01*
X161366624Y-100869039D01*
X161344159Y-100848358D01*
X161341232Y-100845550D01*
X161329496Y-100833814D01*
X161301719Y-100779297D01*
X161300500Y-100763810D01*
X161300500Y-100070727D01*
X161300499Y-100070725D01*
X161298602Y-100050500D01*
X161297646Y-100040301D01*
X161252793Y-99912118D01*
X161230772Y-99882281D01*
X161172154Y-99802855D01*
X161172152Y-99802853D01*
X161172150Y-99802850D01*
X161172146Y-99802847D01*
X161172144Y-99802845D01*
X161062883Y-99722207D01*
X160934703Y-99677355D01*
X160934694Y-99677353D01*
X160904274Y-99674500D01*
X160904266Y-99674500D01*
X160849500Y-99674500D01*
X160791309Y-99655593D01*
X160755345Y-99606093D01*
X160750500Y-99575500D01*
X160750500Y-99562047D01*
X160769407Y-99503856D01*
X160779490Y-99492049D01*
X160853224Y-99418316D01*
X160903972Y-99309487D01*
X160910500Y-99259901D01*
X160910499Y-99076189D01*
X160929406Y-99017999D01*
X160939489Y-99006191D01*
X162666185Y-97279496D01*
X162720702Y-97251719D01*
X162736189Y-97250500D01*
X163429273Y-97250500D01*
X163429273Y-97250499D01*
X163459699Y-97247646D01*
X163587882Y-97202793D01*
X163697150Y-97122150D01*
X163777793Y-97012882D01*
X163822646Y-96884699D01*
X163825499Y-96854273D01*
X163825500Y-96854273D01*
X163825500Y-96245727D01*
X163825499Y-96245725D01*
X163822646Y-96215301D01*
X163819274Y-96205667D01*
X163817901Y-96144498D01*
X163842716Y-96102965D01*
X163986186Y-95959496D01*
X164040702Y-95931719D01*
X164056189Y-95930500D01*
X164167952Y-95930500D01*
X164226143Y-95949407D01*
X164237954Y-95959495D01*
X164270502Y-95992042D01*
X164298281Y-96046558D01*
X164299500Y-96062047D01*
X164299500Y-96303381D01*
X164297393Y-96323696D01*
X164294957Y-96335315D01*
X164296724Y-96349486D01*
X164298740Y-96365662D01*
X164299500Y-96377907D01*
X164299500Y-96379042D01*
X164302751Y-96398528D01*
X164303337Y-96402547D01*
X164306896Y-96431093D01*
X164309427Y-96451393D01*
X164311527Y-96458448D01*
X164313907Y-96465380D01*
X164337322Y-96508646D01*
X164339195Y-96512285D01*
X164360801Y-96556482D01*
X164365078Y-96562472D01*
X164369581Y-96568258D01*
X164405764Y-96601567D01*
X164408717Y-96604399D01*
X165369199Y-97564881D01*
X165382074Y-97580737D01*
X165388563Y-97590669D01*
X165412690Y-97609448D01*
X165421877Y-97617560D01*
X165422690Y-97618372D01*
X165422694Y-97618376D01*
X165438784Y-97629864D01*
X165442048Y-97632298D01*
X165445421Y-97634923D01*
X165480874Y-97662517D01*
X165480875Y-97662517D01*
X165480876Y-97662518D01*
X165487352Y-97666023D01*
X165493935Y-97669241D01*
X165541086Y-97683278D01*
X165544968Y-97684520D01*
X165591512Y-97700500D01*
X165591516Y-97700500D01*
X165598730Y-97701704D01*
X165606040Y-97702615D01*
X165606047Y-97702617D01*
X165654071Y-97700631D01*
X165655187Y-97700585D01*
X165659277Y-97700500D01*
X170103381Y-97700500D01*
X170123696Y-97702607D01*
X170125606Y-97703007D01*
X170135315Y-97705043D01*
X170165662Y-97701259D01*
X170177907Y-97700500D01*
X170179043Y-97700500D01*
X170198521Y-97697249D01*
X170202552Y-97696661D01*
X170251393Y-97690573D01*
X170251396Y-97690571D01*
X170258429Y-97688477D01*
X170265375Y-97686092D01*
X170265381Y-97686092D01*
X170308655Y-97662671D01*
X170312279Y-97660807D01*
X170356482Y-97639199D01*
X170356482Y-97639198D01*
X170356484Y-97639198D01*
X170356485Y-97639196D01*
X170362470Y-97634923D01*
X170368255Y-97630420D01*
X170368255Y-97630419D01*
X170368258Y-97630418D01*
X170401579Y-97594220D01*
X170404364Y-97591316D01*
X171614884Y-96380796D01*
X171630734Y-96367926D01*
X171640669Y-96361437D01*
X171659451Y-96337303D01*
X171667577Y-96328104D01*
X171668375Y-96327307D01*
X171679886Y-96311182D01*
X171682288Y-96307962D01*
X171712517Y-96269126D01*
X171712517Y-96269123D01*
X171716023Y-96262645D01*
X171719237Y-96256071D01*
X171719237Y-96256069D01*
X171719240Y-96256066D01*
X171733287Y-96208881D01*
X171734512Y-96205054D01*
X171750500Y-96158488D01*
X171750500Y-96158483D01*
X171751707Y-96151254D01*
X171752617Y-96143954D01*
X171750585Y-96094823D01*
X171750500Y-96090732D01*
X171750500Y-89646613D01*
X171752607Y-89626297D01*
X171755042Y-89614685D01*
X171751260Y-89584342D01*
X171750500Y-89572098D01*
X171750500Y-89570959D01*
X171749048Y-89562259D01*
X171747243Y-89551447D01*
X171746658Y-89547429D01*
X171746633Y-89547227D01*
X171740573Y-89498607D01*
X171740571Y-89498604D01*
X171738477Y-89491569D01*
X171736091Y-89484616D01*
X171712687Y-89441371D01*
X171710813Y-89437730D01*
X171689199Y-89393517D01*
X171684948Y-89387562D01*
X171680419Y-89381743D01*
X171680418Y-89381742D01*
X171644221Y-89348420D01*
X171641294Y-89345612D01*
X170604669Y-88308987D01*
X170576892Y-88254470D01*
X170586463Y-88194038D01*
X170599222Y-88174889D01*
X170611076Y-88160933D01*
X170611090Y-88160917D01*
X170818022Y-87855716D01*
X170990743Y-87529930D01*
X171127227Y-87187379D01*
X171225875Y-86832081D01*
X171285531Y-86468199D01*
X171305494Y-86100000D01*
X171285531Y-85731801D01*
X171225875Y-85367919D01*
X171213414Y-85323040D01*
X171127231Y-85012634D01*
X171127229Y-85012629D01*
X171127227Y-85012621D01*
X170990743Y-84670070D01*
X170818022Y-84344284D01*
X170611090Y-84039083D01*
X170483819Y-83889248D01*
X170372377Y-83758048D01*
X170372367Y-83758038D01*
X170104673Y-83504464D01*
X169811123Y-83281313D01*
X169811122Y-83281312D01*
X169811119Y-83281310D01*
X169495162Y-83091205D01*
X169290530Y-82996532D01*
X169160508Y-82936377D01*
X169160505Y-82936376D01*
X169160503Y-82936375D01*
X168811066Y-82818636D01*
X168811065Y-82818635D01*
X168811057Y-82818633D01*
X168450952Y-82739368D01*
X168450953Y-82739368D01*
X168084370Y-82699500D01*
X167715630Y-82699500D01*
X167349046Y-82739368D01*
X166988943Y-82818633D01*
X166988941Y-82818633D01*
X166639491Y-82936377D01*
X166304846Y-83091201D01*
X166304840Y-83091204D01*
X165988881Y-83281310D01*
X165988876Y-83281313D01*
X165695326Y-83504464D01*
X165427632Y-83758038D01*
X165427622Y-83758048D01*
X165188915Y-84039076D01*
X165188908Y-84039086D01*
X164981981Y-84344278D01*
X164809255Y-84670072D01*
X164672772Y-85012623D01*
X164672768Y-85012634D01*
X164574126Y-85367912D01*
X164514468Y-85731802D01*
X164494506Y-86100000D01*
X164514468Y-86468197D01*
X164574125Y-86832085D01*
X164613533Y-86974014D01*
X164610883Y-87035142D01*
X164572809Y-87083038D01*
X164518142Y-87099500D01*
X160249500Y-87099500D01*
X160191309Y-87080593D01*
X160155345Y-87031093D01*
X160150500Y-87000500D01*
X160150500Y-86580253D01*
X160150498Y-86580241D01*
X160143927Y-86547207D01*
X160138867Y-86521769D01*
X160094552Y-86455448D01*
X160094548Y-86455445D01*
X160028233Y-86411134D01*
X160028231Y-86411133D01*
X160028228Y-86411132D01*
X160028227Y-86411132D01*
X159969758Y-86399501D01*
X159969748Y-86399500D01*
X155930252Y-86399500D01*
X155930251Y-86399500D01*
X155930241Y-86399501D01*
X155871772Y-86411132D01*
X155871766Y-86411134D01*
X155805451Y-86455445D01*
X155805445Y-86455451D01*
X155761134Y-86521766D01*
X155761132Y-86521772D01*
X155749501Y-86580241D01*
X155749500Y-86580253D01*
X155749500Y-88619746D01*
X155749501Y-88619758D01*
X155761132Y-88678227D01*
X155761134Y-88678233D01*
X155805205Y-88744189D01*
X155805448Y-88744552D01*
X155871769Y-88788867D01*
X155916231Y-88797711D01*
X155930241Y-88800498D01*
X155930246Y-88800498D01*
X155930252Y-88800500D01*
X158401678Y-88800500D01*
X158459869Y-88819407D01*
X158471682Y-88829496D01*
X159825518Y-90183332D01*
X159838796Y-90199810D01*
X159842856Y-90206127D01*
X159842857Y-90206128D01*
X159881058Y-90239229D01*
X159886217Y-90244031D01*
X159896407Y-90254221D01*
X159896478Y-90254274D01*
X159907930Y-90262847D01*
X159913432Y-90267281D01*
X159951624Y-90300375D01*
X159951625Y-90300375D01*
X159951627Y-90300377D01*
X159958454Y-90303495D01*
X159976651Y-90314291D01*
X159981131Y-90317644D01*
X159982670Y-90318797D01*
X160030029Y-90336460D01*
X160036560Y-90339165D01*
X160039512Y-90340513D01*
X160082543Y-90360165D01*
X160089978Y-90361233D01*
X160110484Y-90366468D01*
X160112032Y-90367045D01*
X160117517Y-90369091D01*
X160117515Y-90369091D01*
X160124962Y-90369623D01*
X160167957Y-90372698D01*
X160174953Y-90373451D01*
X160189201Y-90375500D01*
X160203581Y-90375500D01*
X160210644Y-90375752D01*
X160261073Y-90379359D01*
X160267470Y-90377967D01*
X160268410Y-90377763D01*
X160289456Y-90375500D01*
X160569641Y-90375500D01*
X160627832Y-90394407D01*
X160649291Y-90415706D01*
X160727850Y-90522150D01*
X160727853Y-90522152D01*
X160727855Y-90522154D01*
X160837116Y-90602792D01*
X160837117Y-90602792D01*
X160837118Y-90602793D01*
X160965301Y-90647646D01*
X160995725Y-90650499D01*
X160995727Y-90650500D01*
X160995734Y-90650500D01*
X162176678Y-90650500D01*
X162234869Y-90669407D01*
X162246682Y-90679496D01*
X163466967Y-91899781D01*
X163494744Y-91954298D01*
X163485173Y-92014730D01*
X163441908Y-92057995D01*
X163381476Y-92067566D01*
X163364266Y-92063230D01*
X163334601Y-92052850D01*
X163304211Y-92050000D01*
X162250001Y-92050000D01*
X162250000Y-92050001D01*
X162250000Y-92724999D01*
X162250001Y-92725000D01*
X163699998Y-92725000D01*
X163699999Y-92724999D01*
X163699999Y-92445796D01*
X163697149Y-92415399D01*
X163697149Y-92415397D01*
X163683820Y-92377304D01*
X163682448Y-92316134D01*
X163717292Y-92265840D01*
X163775044Y-92245632D01*
X163833644Y-92263229D01*
X163842084Y-92269778D01*
X163871627Y-92295377D01*
X163878454Y-92298495D01*
X163896651Y-92309291D01*
X163901131Y-92312644D01*
X163902670Y-92313797D01*
X163950029Y-92331460D01*
X163956560Y-92334165D01*
X164002543Y-92355165D01*
X164009978Y-92356233D01*
X164030484Y-92361468D01*
X164032032Y-92362045D01*
X164037517Y-92364091D01*
X164037515Y-92364091D01*
X164044962Y-92364623D01*
X164087957Y-92367698D01*
X164094953Y-92368451D01*
X164109201Y-92370500D01*
X164112705Y-92371004D01*
X164112402Y-92373105D01*
X164161978Y-92392886D01*
X164194626Y-92444633D01*
X164190622Y-92505687D01*
X164188396Y-92510837D01*
X164146520Y-92600641D01*
X164146519Y-92600645D01*
X164140000Y-92650161D01*
X164140000Y-92729999D01*
X164140001Y-92730000D01*
X165159999Y-92730000D01*
X165160000Y-92729999D01*
X165160000Y-92650161D01*
X165153480Y-92600645D01*
X165153478Y-92600638D01*
X165102809Y-92491978D01*
X165031189Y-92420358D01*
X165003412Y-92365841D01*
X165012983Y-92305409D01*
X165031186Y-92280353D01*
X165103224Y-92208316D01*
X165153972Y-92099487D01*
X165160500Y-92049901D01*
X165160499Y-91690100D01*
X165153972Y-91640513D01*
X165153972Y-91640511D01*
X165103225Y-91531686D01*
X165103224Y-91531685D01*
X165103224Y-91531684D01*
X165018316Y-91446776D01*
X165018314Y-91446775D01*
X165018313Y-91446774D01*
X164916935Y-91399501D01*
X164909488Y-91396028D01*
X164884694Y-91392764D01*
X164859901Y-91389500D01*
X164859900Y-91389500D01*
X164822579Y-91389500D01*
X164794684Y-91385489D01*
X164792451Y-91384833D01*
X164685804Y-91369500D01*
X164685799Y-91369500D01*
X164393322Y-91369500D01*
X164335131Y-91350593D01*
X164323318Y-91340504D01*
X163603863Y-90621049D01*
X163576086Y-90566532D01*
X163585657Y-90506100D01*
X163594212Y-90492257D01*
X163652792Y-90412883D01*
X163652791Y-90412883D01*
X163652793Y-90412882D01*
X163697646Y-90284699D01*
X163700499Y-90254273D01*
X163700500Y-90254273D01*
X163700500Y-89495727D01*
X163700499Y-89495725D01*
X163699612Y-89486267D01*
X163697646Y-89465301D01*
X163652793Y-89337118D01*
X163650704Y-89334288D01*
X163572154Y-89227855D01*
X163572152Y-89227853D01*
X163572150Y-89227850D01*
X163572146Y-89227847D01*
X163572144Y-89227845D01*
X163462883Y-89147207D01*
X163334703Y-89102355D01*
X163334694Y-89102353D01*
X163304274Y-89099500D01*
X163304266Y-89099500D01*
X160995734Y-89099500D01*
X160995725Y-89099500D01*
X160965305Y-89102353D01*
X160965296Y-89102355D01*
X160837116Y-89147207D01*
X160727855Y-89227845D01*
X160727850Y-89227850D01*
X160649294Y-89334290D01*
X160599529Y-89369881D01*
X160569641Y-89374500D01*
X160473322Y-89374500D01*
X160415131Y-89355593D01*
X160403318Y-89345504D01*
X160004623Y-88946809D01*
X159976846Y-88892292D01*
X159986417Y-88831860D01*
X160021673Y-88796603D01*
X160020124Y-88794284D01*
X160028936Y-88788396D01*
X160094552Y-88744552D01*
X160138867Y-88678231D01*
X160150500Y-88619748D01*
X160150500Y-88199500D01*
X160169407Y-88141309D01*
X160218907Y-88105345D01*
X160249500Y-88100500D01*
X165095460Y-88100500D01*
X165153651Y-88119407D01*
X165177399Y-88143940D01*
X165188910Y-88160917D01*
X165188914Y-88160922D01*
X165188915Y-88160923D01*
X165427622Y-88441951D01*
X165427632Y-88441961D01*
X165695326Y-88695535D01*
X165695330Y-88695538D01*
X165988881Y-88918690D01*
X166304838Y-89108795D01*
X166639497Y-89263625D01*
X166988934Y-89381364D01*
X166988939Y-89381365D01*
X166988942Y-89381366D01*
X167245007Y-89437730D01*
X167349052Y-89460632D01*
X167354082Y-89461179D01*
X167409887Y-89486267D01*
X167440289Y-89539364D01*
X167433675Y-89600191D01*
X167422382Y-89619261D01*
X167401603Y-89646776D01*
X167392604Y-89657118D01*
X167008590Y-90041132D01*
X166997361Y-90049245D01*
X166998090Y-90050210D01*
X166990771Y-90055736D01*
X166959141Y-90090432D01*
X166955989Y-90093733D01*
X166942830Y-90106893D01*
X166942818Y-90106907D01*
X166942749Y-90107009D01*
X166934255Y-90117730D01*
X166915083Y-90138761D01*
X166915083Y-90138762D01*
X166911529Y-90147935D01*
X166900896Y-90168107D01*
X166895346Y-90176210D01*
X166895341Y-90176219D01*
X166888830Y-90203901D01*
X166884777Y-90216991D01*
X166874501Y-90243518D01*
X166874500Y-90243524D01*
X166874500Y-90253346D01*
X166871870Y-90276013D01*
X166869621Y-90285576D01*
X166871686Y-90300377D01*
X166873551Y-90313748D01*
X166874500Y-90327425D01*
X166874500Y-90835140D01*
X166872280Y-90848818D01*
X166873494Y-90848988D01*
X166872226Y-90858071D01*
X166874394Y-90904946D01*
X166874500Y-90909518D01*
X166874500Y-90928149D01*
X166874522Y-90928271D01*
X166876101Y-90941882D01*
X166877414Y-90970292D01*
X166877415Y-90970299D01*
X166881384Y-90979287D01*
X166888132Y-91001077D01*
X166889939Y-91010738D01*
X166898809Y-91025065D01*
X166904912Y-91034922D01*
X166911301Y-91047043D01*
X166913671Y-91052410D01*
X166922794Y-91073070D01*
X166929745Y-91080021D01*
X166943907Y-91097901D01*
X166949081Y-91106257D01*
X166971781Y-91123399D01*
X166982117Y-91132393D01*
X167070505Y-91220781D01*
X167098282Y-91275298D01*
X167099501Y-91290785D01*
X167099501Y-91396904D01*
X167082816Y-91451906D01*
X167036135Y-91521767D01*
X167036133Y-91521773D01*
X167024502Y-91580242D01*
X167024501Y-91580254D01*
X167024501Y-91601000D01*
X167005594Y-91659191D01*
X166956094Y-91695155D01*
X166925501Y-91700000D01*
X165880252Y-91700000D01*
X165880251Y-91700000D01*
X165880241Y-91700001D01*
X165821772Y-91711632D01*
X165821766Y-91711634D01*
X165755451Y-91755945D01*
X165755445Y-91755951D01*
X165711134Y-91822266D01*
X165711132Y-91822272D01*
X165699501Y-91880741D01*
X165699500Y-91880753D01*
X165699500Y-92395246D01*
X165699501Y-92395258D01*
X165711132Y-92453727D01*
X165711134Y-92453733D01*
X165755879Y-92520697D01*
X165772488Y-92579585D01*
X165755880Y-92630700D01*
X165711603Y-92696964D01*
X165700000Y-92755299D01*
X165700000Y-92849999D01*
X165700001Y-92850000D01*
X167299999Y-92850000D01*
X167300000Y-92849999D01*
X167300000Y-92799503D01*
X167318907Y-92741312D01*
X167368407Y-92705348D01*
X167399000Y-92700503D01*
X167400501Y-92700503D01*
X167458692Y-92719410D01*
X167494656Y-92768910D01*
X167499501Y-92799503D01*
X167499501Y-93294863D01*
X167502414Y-93319990D01*
X167521249Y-93362647D01*
X167547794Y-93422765D01*
X167627235Y-93502206D01*
X167627236Y-93502206D01*
X167633722Y-93508692D01*
X167631649Y-93510764D01*
X167659956Y-93547543D01*
X167661649Y-93608705D01*
X167636688Y-93650731D01*
X167491918Y-93795503D01*
X167437402Y-93823281D01*
X167421914Y-93824500D01*
X167384867Y-93824500D01*
X167326676Y-93805593D01*
X167290712Y-93756093D01*
X167287769Y-93706186D01*
X167299999Y-93644699D01*
X167300000Y-93644696D01*
X167300000Y-93550000D01*
X167299999Y-93549999D01*
X165700001Y-93549999D01*
X165700000Y-93550000D01*
X165700000Y-93644699D01*
X165711603Y-93703034D01*
X165756047Y-93769549D01*
X165772655Y-93828437D01*
X165756046Y-93879552D01*
X165711134Y-93946766D01*
X165711132Y-93946772D01*
X165699501Y-94005241D01*
X165699500Y-94005253D01*
X165699500Y-94170500D01*
X165680593Y-94228691D01*
X165631093Y-94264655D01*
X165600500Y-94269500D01*
X165132048Y-94269500D01*
X165073857Y-94250593D01*
X165062045Y-94240504D01*
X165018316Y-94196776D01*
X165018313Y-94196774D01*
X164909489Y-94146029D01*
X164909488Y-94146028D01*
X164892958Y-94143852D01*
X164859901Y-94139500D01*
X164859899Y-94139500D01*
X164440103Y-94139500D01*
X164440092Y-94139501D01*
X164390513Y-94146027D01*
X164390511Y-94146027D01*
X164281686Y-94196774D01*
X164281683Y-94196776D01*
X164237955Y-94240504D01*
X164183438Y-94268281D01*
X164167952Y-94269500D01*
X163876864Y-94269500D01*
X163818673Y-94250593D01*
X163783420Y-94203199D01*
X163777792Y-94187115D01*
X163697154Y-94077855D01*
X163697152Y-94077853D01*
X163697150Y-94077850D01*
X163697146Y-94077847D01*
X163697144Y-94077845D01*
X163587883Y-93997207D01*
X163459703Y-93952355D01*
X163459694Y-93952353D01*
X163429274Y-93949500D01*
X163429266Y-93949500D01*
X162370734Y-93949500D01*
X162370725Y-93949500D01*
X162340305Y-93952353D01*
X162340296Y-93952355D01*
X162212116Y-93997207D01*
X162102855Y-94077845D01*
X162102845Y-94077855D01*
X162022207Y-94187116D01*
X161977355Y-94315296D01*
X161977353Y-94315305D01*
X161974500Y-94345725D01*
X161974500Y-94954274D01*
X161977353Y-94984694D01*
X161977353Y-94984696D01*
X161977353Y-94984698D01*
X161977354Y-94984699D01*
X161980724Y-94994330D01*
X161982098Y-95055498D01*
X161957284Y-95097032D01*
X160185118Y-96869198D01*
X160169265Y-96882071D01*
X160159335Y-96888559D01*
X160159332Y-96888561D01*
X160140548Y-96912695D01*
X160132437Y-96921880D01*
X160131627Y-96922689D01*
X160131619Y-96922698D01*
X160120133Y-96938786D01*
X160117690Y-96942063D01*
X160087482Y-96980874D01*
X160083981Y-96987343D01*
X160080759Y-96993934D01*
X160066718Y-97041096D01*
X160065470Y-97044990D01*
X160049500Y-97091510D01*
X160048293Y-97098743D01*
X160047383Y-97106047D01*
X160049415Y-97155175D01*
X160049500Y-97159266D01*
X160049500Y-97637952D01*
X160030593Y-97696143D01*
X160020517Y-97707942D01*
X160017970Y-97710490D01*
X159963459Y-97738278D01*
X159947953Y-97739500D01*
X159384977Y-97739500D01*
X159326786Y-97720593D01*
X159314974Y-97710504D01*
X159280404Y-97675935D01*
X159280401Y-97675933D01*
X159173175Y-97625932D01*
X159140601Y-97621644D01*
X159124316Y-97619500D01*
X158675684Y-97619500D01*
X158659398Y-97621644D01*
X158626825Y-97625932D01*
X158626824Y-97625932D01*
X158519598Y-97675933D01*
X158435933Y-97759598D01*
X158389224Y-97859767D01*
X158347496Y-97904515D01*
X158287435Y-97916189D01*
X158231982Y-97890331D01*
X158202319Y-97836817D01*
X158200500Y-97817927D01*
X158200500Y-96874500D01*
X158219407Y-96816309D01*
X158268907Y-96780345D01*
X158299500Y-96775500D01*
X158433490Y-96775500D01*
X158454885Y-96772111D01*
X158533126Y-96759719D01*
X158653220Y-96698528D01*
X158748528Y-96603220D01*
X158809719Y-96483126D01*
X158825500Y-96383488D01*
X158825500Y-95816512D01*
X158824387Y-95809487D01*
X158818212Y-95770499D01*
X158809719Y-95716874D01*
X158809716Y-95716869D01*
X158809716Y-95716867D01*
X158748529Y-95596782D01*
X158748528Y-95596780D01*
X158653220Y-95501472D01*
X158653217Y-95501470D01*
X158533132Y-95440283D01*
X158533127Y-95440281D01*
X158533126Y-95440281D01*
X158479213Y-95431742D01*
X158433490Y-95424500D01*
X158433488Y-95424500D01*
X157916512Y-95424500D01*
X157916510Y-95424500D01*
X157816869Y-95440281D01*
X157814875Y-95440930D01*
X157812779Y-95440929D01*
X157809180Y-95441500D01*
X157809089Y-95440929D01*
X157753689Y-95440925D01*
X157717240Y-95419611D01*
X157694220Y-95398420D01*
X157691294Y-95395612D01*
X156680801Y-94385119D01*
X156667925Y-94369262D01*
X156661437Y-94359331D01*
X156647249Y-94348288D01*
X156637304Y-94340548D01*
X156628119Y-94332437D01*
X156627307Y-94331625D01*
X156611225Y-94320143D01*
X156607961Y-94317710D01*
X156569126Y-94287483D01*
X156569124Y-94287482D01*
X156562677Y-94283993D01*
X156556070Y-94280763D01*
X156556066Y-94280760D01*
X156508909Y-94266720D01*
X156505015Y-94265472D01*
X156458487Y-94249499D01*
X156451260Y-94248293D01*
X156443955Y-94247383D01*
X156443954Y-94247383D01*
X156443952Y-94247383D01*
X156394824Y-94249415D01*
X156390733Y-94249500D01*
X155362047Y-94249500D01*
X155303856Y-94230593D01*
X155292042Y-94220502D01*
X155266043Y-94194502D01*
X155238267Y-94139985D01*
X155247839Y-94079553D01*
X155291105Y-94036289D01*
X155336048Y-94025500D01*
X155654273Y-94025500D01*
X155654273Y-94025499D01*
X155684699Y-94022646D01*
X155812882Y-93977793D01*
X155922150Y-93897150D01*
X156002793Y-93787882D01*
X156047646Y-93659699D01*
X156050499Y-93629273D01*
X156050500Y-93629273D01*
X156050500Y-93204203D01*
X160600001Y-93204203D01*
X160602850Y-93234600D01*
X160602850Y-93234602D01*
X160647654Y-93362647D01*
X160728207Y-93471790D01*
X160728209Y-93471792D01*
X160837352Y-93552345D01*
X160965398Y-93597149D01*
X160995789Y-93599999D01*
X162049998Y-93599999D01*
X162050000Y-93599998D01*
X162250000Y-93599998D01*
X162250001Y-93599999D01*
X163304203Y-93599999D01*
X163334600Y-93597149D01*
X163334602Y-93597149D01*
X163462647Y-93552345D01*
X163571790Y-93471792D01*
X163571792Y-93471790D01*
X163652345Y-93362647D01*
X163656771Y-93349998D01*
X165700000Y-93349998D01*
X165700001Y-93349999D01*
X166399999Y-93349999D01*
X166400000Y-93349998D01*
X166600000Y-93349998D01*
X166600001Y-93349999D01*
X167299999Y-93349999D01*
X167300000Y-93349998D01*
X167300000Y-93255305D01*
X167299999Y-93255297D01*
X167292841Y-93219315D01*
X167292841Y-93180682D01*
X167299999Y-93144699D01*
X167300000Y-93144693D01*
X167300000Y-93050001D01*
X167299999Y-93050000D01*
X166600001Y-93050000D01*
X166600000Y-93050001D01*
X166600000Y-93349998D01*
X166400000Y-93349998D01*
X166400000Y-93050001D01*
X166399999Y-93050000D01*
X165700001Y-93050000D01*
X165700000Y-93050001D01*
X165700000Y-93144701D01*
X165707158Y-93180685D01*
X165707158Y-93219312D01*
X165700000Y-93255296D01*
X165700000Y-93349998D01*
X163656771Y-93349998D01*
X163697149Y-93234601D01*
X163699999Y-93204211D01*
X163700000Y-93204210D01*
X163700000Y-93009838D01*
X164140000Y-93009838D01*
X164146519Y-93059354D01*
X164146521Y-93059361D01*
X164197190Y-93168021D01*
X164281978Y-93252809D01*
X164390638Y-93303478D01*
X164390645Y-93303480D01*
X164440161Y-93310000D01*
X164549999Y-93310000D01*
X164550000Y-93309999D01*
X164750000Y-93309999D01*
X164750001Y-93310000D01*
X164859838Y-93310000D01*
X164909354Y-93303480D01*
X164909361Y-93303478D01*
X165018021Y-93252809D01*
X165102809Y-93168021D01*
X165153478Y-93059361D01*
X165153480Y-93059354D01*
X165160000Y-93009838D01*
X165160000Y-92930001D01*
X165159999Y-92930000D01*
X164750001Y-92930000D01*
X164750000Y-92930001D01*
X164750000Y-93309999D01*
X164550000Y-93309999D01*
X164550000Y-92930001D01*
X164549999Y-92930000D01*
X164140001Y-92930000D01*
X164140000Y-92930001D01*
X164140000Y-93009838D01*
X163700000Y-93009838D01*
X163700000Y-92925001D01*
X163699999Y-92925000D01*
X162250001Y-92925000D01*
X162250000Y-92925001D01*
X162250000Y-93599998D01*
X162050000Y-93599998D01*
X162050000Y-92925001D01*
X162049999Y-92925000D01*
X160600002Y-92925000D01*
X160600001Y-92925001D01*
X160600001Y-93204203D01*
X156050500Y-93204203D01*
X156050500Y-92724999D01*
X160600000Y-92724999D01*
X160600001Y-92725000D01*
X162049999Y-92725000D01*
X162050000Y-92724999D01*
X162050000Y-92050001D01*
X162049999Y-92050000D01*
X160995796Y-92050000D01*
X160965399Y-92052850D01*
X160965397Y-92052850D01*
X160837352Y-92097654D01*
X160728209Y-92178207D01*
X160728207Y-92178209D01*
X160647654Y-92287352D01*
X160602850Y-92415398D01*
X160600000Y-92445788D01*
X160600000Y-92724999D01*
X156050500Y-92724999D01*
X156050500Y-92570727D01*
X156050499Y-92570725D01*
X156047646Y-92540305D01*
X156047646Y-92540301D01*
X156002793Y-92412118D01*
X155990342Y-92395248D01*
X155922154Y-92302855D01*
X155922152Y-92302853D01*
X155922150Y-92302850D01*
X155922146Y-92302847D01*
X155922144Y-92302845D01*
X155812885Y-92222208D01*
X155812879Y-92222205D01*
X155766802Y-92206082D01*
X155718121Y-92169016D01*
X155700500Y-92112638D01*
X155700500Y-91846613D01*
X155702607Y-91826297D01*
X155703451Y-91822272D01*
X155705042Y-91814685D01*
X155701260Y-91784342D01*
X155700500Y-91772098D01*
X155700500Y-91770959D01*
X155697995Y-91755951D01*
X155697243Y-91751447D01*
X155696658Y-91747429D01*
X155690573Y-91698607D01*
X155690571Y-91698604D01*
X155688477Y-91691569D01*
X155686091Y-91684616D01*
X155662687Y-91641371D01*
X155660813Y-91637730D01*
X155639199Y-91593517D01*
X155634948Y-91587562D01*
X155630419Y-91581743D01*
X155630418Y-91581742D01*
X155594221Y-91548420D01*
X155591294Y-91545612D01*
X154866995Y-90821313D01*
X154839218Y-90766796D01*
X154838721Y-90739379D01*
X154855645Y-90600000D01*
X154835140Y-90431128D01*
X154774818Y-90272070D01*
X154678183Y-90132071D01*
X154661995Y-90117730D01*
X154550853Y-90019267D01*
X154550852Y-90019266D01*
X154400225Y-89940210D01*
X154400224Y-89940209D01*
X154400223Y-89940209D01*
X154235058Y-89899500D01*
X154235056Y-89899500D01*
X154064944Y-89899500D01*
X154064941Y-89899500D01*
X153899776Y-89940209D01*
X153749146Y-90019267D01*
X153621818Y-90132069D01*
X153621816Y-90132072D01*
X153553126Y-90231586D01*
X153525182Y-90272070D01*
X153464860Y-90431128D01*
X153444355Y-90600000D01*
X153464860Y-90768872D01*
X153525182Y-90927930D01*
X153621816Y-91067927D01*
X153621818Y-91067930D01*
X153644628Y-91088138D01*
X153749148Y-91180734D01*
X153899775Y-91259790D01*
X154064944Y-91300500D01*
X154064947Y-91300500D01*
X154235053Y-91300500D01*
X154235056Y-91300500D01*
X154276923Y-91290180D01*
X154337943Y-91294611D01*
X154370617Y-91316299D01*
X154970504Y-91916186D01*
X154998281Y-91970703D01*
X154999500Y-91986190D01*
X154999500Y-92112638D01*
X154980593Y-92170829D01*
X154933198Y-92206082D01*
X154887120Y-92222205D01*
X154887114Y-92222208D01*
X154777855Y-92302845D01*
X154777845Y-92302855D01*
X154697207Y-92412116D01*
X154652355Y-92540296D01*
X154652353Y-92540305D01*
X154649500Y-92570725D01*
X154649500Y-93261510D01*
X154630593Y-93319701D01*
X154628625Y-93322317D01*
X154620549Y-93332693D01*
X154612437Y-93341880D01*
X154611627Y-93342689D01*
X154611619Y-93342698D01*
X154600133Y-93358786D01*
X154597690Y-93362063D01*
X154567482Y-93400874D01*
X154563981Y-93407343D01*
X154560759Y-93413934D01*
X154546718Y-93461096D01*
X154545470Y-93464990D01*
X154529500Y-93511510D01*
X154528293Y-93518743D01*
X154527383Y-93526047D01*
X154529415Y-93575175D01*
X154529500Y-93579266D01*
X154529500Y-94117952D01*
X154510593Y-94176143D01*
X154500502Y-94187957D01*
X154469647Y-94218811D01*
X154415130Y-94246587D01*
X154354699Y-94237015D01*
X154329641Y-94218810D01*
X154258021Y-94147190D01*
X154149361Y-94096521D01*
X154149354Y-94096519D01*
X154099839Y-94090000D01*
X154060862Y-94090000D01*
X154002671Y-94071093D01*
X153966707Y-94021593D01*
X153966707Y-93960407D01*
X154002073Y-93911345D01*
X154021790Y-93896792D01*
X154021792Y-93896790D01*
X154102345Y-93787647D01*
X154147149Y-93659601D01*
X154149999Y-93629211D01*
X154150000Y-93629210D01*
X154150000Y-93200001D01*
X154149999Y-93200000D01*
X153550001Y-93200000D01*
X153550000Y-93200001D01*
X153550000Y-94024998D01*
X153557081Y-94032079D01*
X153584858Y-94086596D01*
X153575287Y-94147028D01*
X153557081Y-94172086D01*
X153497192Y-94231975D01*
X153497190Y-94231978D01*
X153446521Y-94340638D01*
X153446519Y-94340645D01*
X153440000Y-94390161D01*
X153440000Y-94499999D01*
X153440001Y-94500000D01*
X153921000Y-94500000D01*
X153979191Y-94518907D01*
X154015155Y-94568407D01*
X154020000Y-94599000D01*
X154020000Y-96109999D01*
X154020001Y-96110000D01*
X154099838Y-96110000D01*
X154149354Y-96103480D01*
X154149358Y-96103479D01*
X154208660Y-96075826D01*
X154269389Y-96068369D01*
X154322903Y-96098031D01*
X154348762Y-96153484D01*
X154349500Y-96165550D01*
X154349500Y-96400500D01*
X154330593Y-96458691D01*
X154281093Y-96494655D01*
X154250500Y-96499500D01*
X154047870Y-96499500D01*
X154047862Y-96499501D01*
X153967505Y-96515484D01*
X153967500Y-96515486D01*
X153954550Y-96524140D01*
X153895662Y-96540748D01*
X153844548Y-96524139D01*
X153832301Y-96515956D01*
X153752088Y-96500000D01*
X153750001Y-96500000D01*
X153750000Y-96500001D01*
X153750000Y-97438500D01*
X153731093Y-97496691D01*
X153681593Y-97532655D01*
X153651000Y-97537500D01*
X153649000Y-97537500D01*
X153590809Y-97518593D01*
X153554845Y-97469093D01*
X153550000Y-97438500D01*
X153550000Y-96500001D01*
X153549999Y-96500000D01*
X153547908Y-96500000D01*
X153467699Y-96515954D01*
X153467698Y-96515955D01*
X153455447Y-96524141D01*
X153396559Y-96540748D01*
X153345448Y-96524140D01*
X153332495Y-96515485D01*
X153252133Y-96499500D01*
X153252132Y-96499500D01*
X153234273Y-96499500D01*
X153176082Y-96480593D01*
X153140118Y-96431093D01*
X153140118Y-96369907D01*
X153168625Y-96326397D01*
X153178177Y-96317934D01*
X153178183Y-96317929D01*
X153274818Y-96177930D01*
X153335140Y-96018872D01*
X153335141Y-96018860D01*
X153335229Y-96018508D01*
X153335353Y-96018306D01*
X153337263Y-96013273D01*
X153338248Y-96013646D01*
X153367509Y-95966530D01*
X153424176Y-95943454D01*
X153483584Y-95958092D01*
X153501358Y-95972189D01*
X153581978Y-96052809D01*
X153690638Y-96103478D01*
X153690645Y-96103480D01*
X153740161Y-96110000D01*
X153819999Y-96110000D01*
X153820000Y-96109999D01*
X153820000Y-94700001D01*
X153819999Y-94700000D01*
X153440001Y-94700000D01*
X153440000Y-94700001D01*
X153440000Y-94809838D01*
X153446519Y-94859354D01*
X153446521Y-94859361D01*
X153497190Y-94968021D01*
X153559165Y-95029996D01*
X153586942Y-95084513D01*
X153577371Y-95144945D01*
X153559165Y-95170004D01*
X153497190Y-95231978D01*
X153446521Y-95340638D01*
X153446519Y-95340645D01*
X153440000Y-95390161D01*
X153440000Y-95443675D01*
X153421093Y-95501866D01*
X153371593Y-95537830D01*
X153310407Y-95537830D01*
X153260907Y-95501866D01*
X153259525Y-95499914D01*
X153218363Y-95440281D01*
X153178183Y-95382071D01*
X153175276Y-95379496D01*
X153050853Y-95269267D01*
X153050852Y-95269266D01*
X152900225Y-95190210D01*
X152900224Y-95190209D01*
X152900223Y-95190209D01*
X152735058Y-95149500D01*
X152735056Y-95149500D01*
X152617720Y-95149500D01*
X152559529Y-95130593D01*
X152523565Y-95081093D01*
X152523565Y-95019907D01*
X152538065Y-94991712D01*
X152555332Y-94968316D01*
X152577793Y-94937882D01*
X152622646Y-94809699D01*
X152625499Y-94779273D01*
X152625500Y-94779273D01*
X152625500Y-93855243D01*
X152644407Y-93797052D01*
X152693907Y-93761088D01*
X152755093Y-93761088D01*
X152804155Y-93796454D01*
X152878207Y-93896790D01*
X152878209Y-93896792D01*
X152987352Y-93977345D01*
X153115398Y-94022149D01*
X153145789Y-94024999D01*
X153349998Y-94024999D01*
X153350000Y-94024998D01*
X153350000Y-93200001D01*
X153349999Y-93200000D01*
X152750002Y-93200000D01*
X152747398Y-93202603D01*
X152731094Y-93252784D01*
X152681594Y-93288748D01*
X152620408Y-93288748D01*
X152571346Y-93253381D01*
X152497154Y-93152855D01*
X152497152Y-93152853D01*
X152497150Y-93152850D01*
X152497146Y-93152847D01*
X152497144Y-93152845D01*
X152387883Y-93072207D01*
X152259703Y-93027355D01*
X152259694Y-93027353D01*
X152229274Y-93024500D01*
X152229266Y-93024500D01*
X151495734Y-93024500D01*
X151495725Y-93024500D01*
X151465305Y-93027353D01*
X151465296Y-93027355D01*
X151337116Y-93072207D01*
X151227855Y-93152845D01*
X151227845Y-93152855D01*
X151147207Y-93262116D01*
X151102355Y-93390296D01*
X151102353Y-93390305D01*
X151099500Y-93420725D01*
X151099500Y-94779274D01*
X151102353Y-94809694D01*
X151102355Y-94809703D01*
X151147207Y-94937883D01*
X151227847Y-95047148D01*
X151259287Y-95070351D01*
X151294880Y-95120118D01*
X151299500Y-95150007D01*
X151299500Y-95269579D01*
X151280593Y-95327770D01*
X151231093Y-95363734D01*
X151169907Y-95363734D01*
X151134851Y-95343682D01*
X151050853Y-95269267D01*
X151050852Y-95269266D01*
X150900225Y-95190210D01*
X150900224Y-95190209D01*
X150900223Y-95190209D01*
X150735058Y-95149500D01*
X150735056Y-95149500D01*
X150564944Y-95149500D01*
X150564941Y-95149500D01*
X150399776Y-95190209D01*
X150249146Y-95269267D01*
X150165149Y-95343682D01*
X150109055Y-95368117D01*
X150049311Y-95354914D01*
X150008737Y-95309116D01*
X150000500Y-95269579D01*
X150000500Y-94859113D01*
X150002607Y-94838797D01*
X150005042Y-94827185D01*
X150001260Y-94796842D01*
X150000500Y-94784598D01*
X150000500Y-94783459D01*
X149999800Y-94779266D01*
X149997243Y-94763947D01*
X149996658Y-94759929D01*
X149992939Y-94730093D01*
X149990573Y-94711107D01*
X149990571Y-94711104D01*
X149988477Y-94704069D01*
X149986091Y-94697116D01*
X149962687Y-94653871D01*
X149960813Y-94650230D01*
X149939199Y-94606017D01*
X149934948Y-94600062D01*
X149930419Y-94594243D01*
X149913083Y-94578284D01*
X149894221Y-94560920D01*
X149891294Y-94558112D01*
X149729496Y-94396314D01*
X149701719Y-94341797D01*
X149700500Y-94326310D01*
X149700500Y-93420727D01*
X149700499Y-93420725D01*
X149699862Y-93413934D01*
X149697646Y-93390301D01*
X149652793Y-93262118D01*
X149652344Y-93261510D01*
X149572154Y-93152855D01*
X149572152Y-93152853D01*
X149572150Y-93152850D01*
X149572146Y-93152847D01*
X149572144Y-93152845D01*
X149462883Y-93072207D01*
X149334703Y-93027355D01*
X149334694Y-93027353D01*
X149304274Y-93024500D01*
X149304266Y-93024500D01*
X148570734Y-93024500D01*
X148570725Y-93024500D01*
X148540305Y-93027353D01*
X148540296Y-93027355D01*
X148412116Y-93072207D01*
X148302855Y-93152845D01*
X148302845Y-93152855D01*
X148222207Y-93262116D01*
X148177355Y-93390296D01*
X148177353Y-93390305D01*
X148174500Y-93420725D01*
X148174500Y-93500500D01*
X148155593Y-93558691D01*
X148106093Y-93594655D01*
X148075500Y-93599500D01*
X142964456Y-93599500D01*
X142943410Y-93597237D01*
X142936074Y-93595641D01*
X142936073Y-93595641D01*
X142914990Y-93597149D01*
X142885644Y-93599248D01*
X142878581Y-93599500D01*
X142864201Y-93599500D01*
X142849960Y-93601547D01*
X142842938Y-93602302D01*
X142792517Y-93605908D01*
X142785471Y-93608536D01*
X142764985Y-93613764D01*
X142757547Y-93614834D01*
X142757544Y-93614834D01*
X142757543Y-93614835D01*
X142757542Y-93614835D01*
X142757540Y-93614836D01*
X142711566Y-93635831D01*
X142705039Y-93638535D01*
X142657671Y-93656203D01*
X142657669Y-93656203D01*
X142651646Y-93660712D01*
X142633463Y-93671500D01*
X142626628Y-93674621D01*
X142588422Y-93707727D01*
X142582927Y-93712155D01*
X142571404Y-93720781D01*
X142561239Y-93730946D01*
X142556075Y-93735754D01*
X142517854Y-93768874D01*
X142513792Y-93775195D01*
X142500516Y-93791669D01*
X141421682Y-94870504D01*
X141367165Y-94898281D01*
X141351678Y-94899500D01*
X141314941Y-94899500D01*
X141149776Y-94940209D01*
X140999146Y-95019267D01*
X140871818Y-95132069D01*
X140871816Y-95132072D01*
X140804566Y-95229500D01*
X140775182Y-95272070D01*
X140714860Y-95431128D01*
X140713670Y-95440929D01*
X140696122Y-95585451D01*
X140694355Y-95600000D01*
X140714860Y-95768872D01*
X140775182Y-95927930D01*
X140871817Y-96067929D01*
X140871820Y-96067932D01*
X140874603Y-96071073D01*
X140899038Y-96127167D01*
X140899500Y-96136722D01*
X140899500Y-97301677D01*
X140880593Y-97359868D01*
X140870503Y-97371681D01*
X140763444Y-97478739D01*
X140708928Y-97506516D01*
X140648496Y-97496944D01*
X140605231Y-97453680D01*
X140594609Y-97402978D01*
X140595015Y-97396022D01*
X140603490Y-97250499D01*
X140604331Y-97236068D01*
X140604331Y-97236065D01*
X140573866Y-97063292D01*
X140573865Y-97063289D01*
X140504377Y-96902196D01*
X140399610Y-96761470D01*
X140399608Y-96761468D01*
X140265216Y-96648699D01*
X140264530Y-96648354D01*
X140108433Y-96569960D01*
X140108429Y-96569959D01*
X140108423Y-96569956D01*
X139937723Y-96529500D01*
X139937721Y-96529500D01*
X138906291Y-96529500D01*
X138775745Y-96544759D01*
X138775742Y-96544759D01*
X138775741Y-96544760D01*
X138610883Y-96604762D01*
X138464306Y-96701168D01*
X138464303Y-96701170D01*
X138343909Y-96828780D01*
X138343908Y-96828780D01*
X138256188Y-96980719D01*
X138205870Y-97148786D01*
X138205869Y-97148793D01*
X138195668Y-97323931D01*
X138226133Y-97496707D01*
X138295622Y-97657802D01*
X138295623Y-97657804D01*
X138400389Y-97798529D01*
X138400391Y-97798531D01*
X138534783Y-97911300D01*
X138534784Y-97911300D01*
X138534786Y-97911302D01*
X138691567Y-97990040D01*
X138751104Y-98004150D01*
X138803366Y-98035968D01*
X138826945Y-98092427D01*
X138812835Y-98151963D01*
X138766425Y-98191835D01*
X138741756Y-98198560D01*
X138736888Y-98199229D01*
X138604389Y-98256781D01*
X138492334Y-98347945D01*
X138409029Y-98465962D01*
X138360653Y-98602078D01*
X138350796Y-98746199D01*
X138380184Y-98887628D01*
X138380186Y-98887636D01*
X138445546Y-99013773D01*
X138446646Y-99015895D01*
X138545245Y-99121469D01*
X138668672Y-99196526D01*
X138807772Y-99235500D01*
X138807773Y-99235500D01*
X138915943Y-99235500D01*
X138915949Y-99235500D01*
X139023111Y-99220771D01*
X139061558Y-99204070D01*
X139122464Y-99198228D01*
X139171886Y-99227365D01*
X139171886Y-99170407D01*
X139203574Y-99124196D01*
X139206033Y-99122196D01*
X139263107Y-99100147D01*
X139268500Y-99100000D01*
X139874999Y-99100000D01*
X139875000Y-99099999D01*
X139875000Y-98999500D01*
X139893907Y-98941309D01*
X139943407Y-98905345D01*
X139974000Y-98900500D01*
X139976000Y-98900500D01*
X140034191Y-98919407D01*
X140070155Y-98968907D01*
X140075000Y-98999500D01*
X140075000Y-99099999D01*
X140075001Y-99100000D01*
X140749998Y-99100000D01*
X140749999Y-99099999D01*
X140749999Y-99016786D01*
X140749998Y-99016785D01*
X140749560Y-99013773D01*
X140759881Y-98953464D01*
X140803679Y-98910740D01*
X140847526Y-98900500D01*
X141476982Y-98900500D01*
X141535173Y-98919407D01*
X141546986Y-98929496D01*
X142520504Y-99903014D01*
X142548281Y-99957531D01*
X142549500Y-99973018D01*
X142549500Y-103226982D01*
X142530593Y-103285173D01*
X142520504Y-103296986D01*
X141546986Y-104270504D01*
X141492469Y-104298281D01*
X141476982Y-104299500D01*
X140847527Y-104299500D01*
X140789336Y-104280593D01*
X140753372Y-104231093D01*
X140749562Y-104186221D01*
X140750000Y-104183215D01*
X140750000Y-104100001D01*
X140749999Y-104100000D01*
X139276328Y-104100000D01*
X139218137Y-104081093D01*
X139213845Y-104077791D01*
X139211387Y-104075791D01*
X139178184Y-104024399D01*
X139181529Y-103963305D01*
X139220145Y-103915846D01*
X139273870Y-103900000D01*
X139874999Y-103900000D01*
X139875000Y-103899999D01*
X139875000Y-103799499D01*
X139893907Y-103741308D01*
X139943407Y-103705344D01*
X139973996Y-103700499D01*
X139976001Y-103700499D01*
X140034191Y-103719406D01*
X140070155Y-103768906D01*
X140075000Y-103799499D01*
X140075000Y-103899999D01*
X140075001Y-103900000D01*
X140749998Y-103900000D01*
X140749999Y-103899999D01*
X140749999Y-103816786D01*
X140749998Y-103816783D01*
X140740087Y-103748749D01*
X140701684Y-103670195D01*
X140693113Y-103609613D01*
X140708311Y-103571711D01*
X140721100Y-103552572D01*
X140734515Y-103532495D01*
X140750500Y-103452133D01*
X140750499Y-103247868D01*
X140747958Y-103235095D01*
X140734515Y-103167506D01*
X140734515Y-103167505D01*
X140726159Y-103154999D01*
X140709551Y-103096114D01*
X140726159Y-103044999D01*
X140734515Y-103032495D01*
X140750500Y-102952133D01*
X140750499Y-102930421D01*
X140769404Y-102872232D01*
X140818903Y-102836267D01*
X140880088Y-102836264D01*
X140915148Y-102856317D01*
X140933628Y-102872689D01*
X140999148Y-102930734D01*
X141149775Y-103009790D01*
X141314944Y-103050500D01*
X141314947Y-103050500D01*
X141485053Y-103050500D01*
X141485056Y-103050500D01*
X141650225Y-103009790D01*
X141800852Y-102930734D01*
X141928183Y-102817929D01*
X142024818Y-102677930D01*
X142085140Y-102518872D01*
X142105645Y-102350000D01*
X142085140Y-102181128D01*
X142024818Y-102022070D01*
X141928183Y-101882071D01*
X141800852Y-101769266D01*
X141650225Y-101690210D01*
X141650224Y-101690209D01*
X141650223Y-101690209D01*
X141485058Y-101649500D01*
X141485056Y-101649500D01*
X141314944Y-101649500D01*
X141314941Y-101649500D01*
X141198940Y-101678092D01*
X141137915Y-101673660D01*
X141091150Y-101634205D01*
X141076354Y-101586540D01*
X141075606Y-101570357D01*
X141075500Y-101565786D01*
X141075500Y-101547161D01*
X141075500Y-101547157D01*
X141075478Y-101547043D01*
X141073898Y-101533431D01*
X141072585Y-101505009D01*
X141068614Y-101496017D01*
X141061864Y-101474215D01*
X141060061Y-101464569D01*
X141060061Y-101464568D01*
X141045085Y-101440380D01*
X141038697Y-101428261D01*
X141027206Y-101402235D01*
X141027205Y-101402234D01*
X141027204Y-101402232D01*
X141020254Y-101395282D01*
X141006088Y-101377396D01*
X141000921Y-101369051D01*
X141000919Y-101369049D01*
X140978216Y-101351904D01*
X140967896Y-101342925D01*
X140808562Y-101183592D01*
X140800477Y-101172345D01*
X140799486Y-101173094D01*
X140793958Y-101165774D01*
X140793957Y-101165772D01*
X140787300Y-101159703D01*
X140762103Y-101136732D01*
X140731837Y-101083557D01*
X140735725Y-101042677D01*
X140732612Y-101042058D01*
X140734513Y-101032496D01*
X140734515Y-101032495D01*
X140750500Y-100952133D01*
X140750499Y-100747868D01*
X140734515Y-100667505D01*
X140726159Y-100655000D01*
X140709551Y-100596114D01*
X140726159Y-100544999D01*
X140734515Y-100532495D01*
X140750500Y-100452133D01*
X140750499Y-100247868D01*
X140734515Y-100167505D01*
X140726159Y-100154999D01*
X140709551Y-100096114D01*
X140726159Y-100044999D01*
X140734515Y-100032495D01*
X140750500Y-99952133D01*
X140750499Y-99747868D01*
X140734515Y-99667505D01*
X140731979Y-99663710D01*
X140709225Y-99629656D01*
X140708309Y-99628286D01*
X140691701Y-99569399D01*
X140701684Y-99529805D01*
X140740087Y-99451248D01*
X140750000Y-99383215D01*
X140750000Y-99300001D01*
X140749999Y-99300000D01*
X139266041Y-99300000D01*
X139207850Y-99281093D01*
X139182530Y-99246243D01*
X139199549Y-99285421D01*
X139200001Y-99294874D01*
X139200001Y-99383216D01*
X139209912Y-99451250D01*
X139248315Y-99529803D01*
X139256886Y-99590385D01*
X139241690Y-99628284D01*
X139215487Y-99667499D01*
X139215485Y-99667503D01*
X139215485Y-99667505D01*
X139211230Y-99688897D01*
X139199500Y-99747867D01*
X139199500Y-99952129D01*
X139199501Y-99952137D01*
X139215484Y-100032494D01*
X139215486Y-100032498D01*
X139223840Y-100045001D01*
X139240447Y-100103889D01*
X139223840Y-100154999D01*
X139215485Y-100167503D01*
X139215484Y-100167504D01*
X139199500Y-100247864D01*
X139199500Y-100452129D01*
X139199501Y-100452139D01*
X139216773Y-100538976D01*
X139209580Y-100599737D01*
X139198678Y-100617950D01*
X139176909Y-100646776D01*
X139167910Y-100657117D01*
X139008592Y-100816436D01*
X138997361Y-100824551D01*
X138998090Y-100825516D01*
X138990771Y-100831042D01*
X138959141Y-100865738D01*
X138955989Y-100869039D01*
X138942830Y-100882199D01*
X138942818Y-100882213D01*
X138942749Y-100882315D01*
X138934255Y-100893036D01*
X138915083Y-100914067D01*
X138915083Y-100914068D01*
X138911529Y-100923241D01*
X138900896Y-100943413D01*
X138895346Y-100951516D01*
X138895341Y-100951525D01*
X138888830Y-100979207D01*
X138884777Y-100992297D01*
X138874501Y-101018824D01*
X138874500Y-101018830D01*
X138874500Y-101028652D01*
X138871870Y-101051319D01*
X138869619Y-101060884D01*
X138869619Y-101060906D01*
X138869608Y-101060934D01*
X138867520Y-101069813D01*
X138866364Y-101069541D01*
X138848042Y-101118160D01*
X138796932Y-101151797D01*
X138747036Y-101152452D01*
X138735056Y-101149500D01*
X138564944Y-101149500D01*
X138564941Y-101149500D01*
X138399776Y-101190209D01*
X138249146Y-101269267D01*
X138121818Y-101382069D01*
X138121816Y-101382072D01*
X138057327Y-101475500D01*
X138025182Y-101522070D01*
X137964860Y-101681128D01*
X137961919Y-101705346D01*
X137944355Y-101849998D01*
X137944355Y-101850001D01*
X137948249Y-101882069D01*
X137964860Y-102018872D01*
X138025182Y-102177930D01*
X138121817Y-102317929D01*
X138249148Y-102430734D01*
X138399775Y-102509790D01*
X138564944Y-102550500D01*
X138564947Y-102550500D01*
X138735053Y-102550500D01*
X138735056Y-102550500D01*
X138900225Y-102509790D01*
X139050852Y-102430734D01*
X139050857Y-102430729D01*
X139053853Y-102428662D01*
X139056047Y-102428007D01*
X139056154Y-102427951D01*
X139056164Y-102427971D01*
X139112482Y-102411162D01*
X139170200Y-102431465D01*
X139204961Y-102481817D01*
X139207195Y-102490819D01*
X139215484Y-102532494D01*
X139215486Y-102532498D01*
X139223840Y-102545001D01*
X139240447Y-102603889D01*
X139223840Y-102654999D01*
X139215485Y-102667503D01*
X139215484Y-102667504D01*
X139199500Y-102747864D01*
X139199500Y-102952129D01*
X139199501Y-102952137D01*
X139215484Y-103032494D01*
X139215486Y-103032498D01*
X139223840Y-103045001D01*
X139240447Y-103103889D01*
X139223840Y-103154999D01*
X139215485Y-103167503D01*
X139215484Y-103167504D01*
X139199500Y-103247864D01*
X139199500Y-103452129D01*
X139199501Y-103452137D01*
X139215484Y-103532494D01*
X139215485Y-103532495D01*
X139241690Y-103571714D01*
X139258298Y-103630602D01*
X139248315Y-103670194D01*
X139209912Y-103748749D01*
X139200000Y-103816784D01*
X139200000Y-103903371D01*
X139181093Y-103961562D01*
X139131593Y-103997526D01*
X139074290Y-103998700D01*
X138952228Y-103964500D01*
X138844051Y-103964500D01*
X138736888Y-103979228D01*
X138604389Y-104036781D01*
X138492334Y-104127945D01*
X138409029Y-104245962D01*
X138360653Y-104382078D01*
X138350796Y-104526199D01*
X138380184Y-104667628D01*
X138380186Y-104667636D01*
X138446644Y-104795892D01*
X138446646Y-104795895D01*
X138545245Y-104901469D01*
X138668671Y-104976526D01*
X138692706Y-104983260D01*
X138755985Y-105000990D01*
X138806916Y-105034894D01*
X138828192Y-105092262D01*
X138811685Y-105151178D01*
X138763700Y-105189140D01*
X138763135Y-105189348D01*
X138610882Y-105244763D01*
X138464306Y-105341168D01*
X138464303Y-105341170D01*
X138343909Y-105468780D01*
X138343908Y-105468780D01*
X138256188Y-105620719D01*
X138205870Y-105788786D01*
X138205869Y-105788793D01*
X138195668Y-105963931D01*
X138226133Y-106136707D01*
X138295622Y-106297802D01*
X138295623Y-106297804D01*
X138400389Y-106438529D01*
X138400391Y-106438531D01*
X138534783Y-106551300D01*
X138534784Y-106551300D01*
X138534786Y-106551302D01*
X138691567Y-106630040D01*
X138691572Y-106630041D01*
X138691576Y-106630043D01*
X138862277Y-106670500D01*
X138862279Y-106670500D01*
X139893704Y-106670500D01*
X139893709Y-106670500D01*
X140024255Y-106655241D01*
X140189117Y-106595237D01*
X140335696Y-106498830D01*
X140456092Y-106371218D01*
X140543812Y-106219281D01*
X140594130Y-106051210D01*
X140604331Y-105876065D01*
X140591652Y-105804161D01*
X140600167Y-105743573D01*
X140642670Y-105699559D01*
X140702926Y-105688934D01*
X140757919Y-105715756D01*
X140759152Y-105716967D01*
X140870504Y-105828319D01*
X140898281Y-105882836D01*
X140899500Y-105898323D01*
X140899500Y-107000500D01*
X140880593Y-107058691D01*
X140831093Y-107094655D01*
X140800500Y-107099500D01*
X137164456Y-107099500D01*
X137143410Y-107097237D01*
X137136074Y-107095641D01*
X137136073Y-107095641D01*
X137113760Y-107097237D01*
X137085644Y-107099248D01*
X137078581Y-107099500D01*
X137064201Y-107099500D01*
X137049960Y-107101547D01*
X137042938Y-107102302D01*
X136992517Y-107105908D01*
X136985471Y-107108536D01*
X136964985Y-107113764D01*
X136957547Y-107114834D01*
X136957544Y-107114834D01*
X136957543Y-107114835D01*
X136957542Y-107114835D01*
X136957540Y-107114836D01*
X136911566Y-107135831D01*
X136905039Y-107138535D01*
X136857671Y-107156203D01*
X136857669Y-107156203D01*
X136851646Y-107160712D01*
X136833463Y-107171500D01*
X136826626Y-107174622D01*
X136788430Y-107207719D01*
X136782936Y-107212147D01*
X136771406Y-107220779D01*
X136761235Y-107230950D01*
X136756066Y-107235762D01*
X136717860Y-107268868D01*
X136717856Y-107268872D01*
X136713793Y-107275194D01*
X136700520Y-107291663D01*
X136669505Y-107322679D01*
X136614989Y-107350458D01*
X136554556Y-107340887D01*
X136511291Y-107297623D01*
X136500500Y-107252677D01*
X136500500Y-105750253D01*
X136500498Y-105750241D01*
X136493638Y-105715756D01*
X136488867Y-105691769D01*
X136481334Y-105680496D01*
X136444554Y-105625451D01*
X136444552Y-105625448D01*
X136444548Y-105625445D01*
X136378233Y-105581134D01*
X136378231Y-105581133D01*
X136378228Y-105581132D01*
X136378227Y-105581132D01*
X136319758Y-105569501D01*
X136319748Y-105569500D01*
X134580252Y-105569500D01*
X134580251Y-105569500D01*
X134580241Y-105569501D01*
X134521772Y-105581132D01*
X134521766Y-105581134D01*
X134455451Y-105625445D01*
X134455445Y-105625451D01*
X134411134Y-105691766D01*
X134411132Y-105691772D01*
X134399501Y-105750241D01*
X134399500Y-105750253D01*
X134399500Y-107489746D01*
X134399501Y-107489758D01*
X134411132Y-107548227D01*
X134411134Y-107548233D01*
X134445725Y-107600001D01*
X134455448Y-107614552D01*
X134521769Y-107658867D01*
X134566231Y-107667711D01*
X134580241Y-107670498D01*
X134580246Y-107670498D01*
X134580252Y-107670500D01*
X134580253Y-107670500D01*
X136082677Y-107670500D01*
X136140868Y-107689407D01*
X136176832Y-107738907D01*
X136176832Y-107800093D01*
X136152681Y-107839504D01*
X134641665Y-109350519D01*
X134625194Y-109363793D01*
X134618872Y-109367856D01*
X134618868Y-109367860D01*
X134585762Y-109406066D01*
X134580950Y-109411235D01*
X134570779Y-109421406D01*
X134562147Y-109432936D01*
X134557719Y-109438430D01*
X134524622Y-109476626D01*
X134521500Y-109483463D01*
X134510712Y-109501646D01*
X134506203Y-109507669D01*
X134506203Y-109507671D01*
X134488535Y-109555039D01*
X134485831Y-109561566D01*
X134464836Y-109607540D01*
X134464834Y-109607547D01*
X134463764Y-109614985D01*
X134458536Y-109635471D01*
X134455908Y-109642517D01*
X134452302Y-109692938D01*
X134451547Y-109699960D01*
X134449500Y-109714200D01*
X134449500Y-109728580D01*
X134449248Y-109735643D01*
X134448421Y-109747207D01*
X134445641Y-109786073D01*
X134446992Y-109792285D01*
X134447237Y-109793408D01*
X134449500Y-109814456D01*
X134449500Y-110184317D01*
X134432815Y-110239318D01*
X134411136Y-110271762D01*
X134411132Y-110271772D01*
X134399501Y-110330241D01*
X134399500Y-110330253D01*
X134399500Y-110869746D01*
X132700500Y-110869746D01*
X132700500Y-97449746D01*
X134399500Y-97449746D01*
X134399501Y-97449758D01*
X134411132Y-97508227D01*
X134411134Y-97508233D01*
X134453353Y-97571417D01*
X134455448Y-97574552D01*
X134521769Y-97618867D01*
X134566231Y-97627711D01*
X134580241Y-97630498D01*
X134580246Y-97630498D01*
X134580252Y-97630500D01*
X134580253Y-97630500D01*
X136319747Y-97630500D01*
X136319748Y-97630500D01*
X136378231Y-97618867D01*
X136444552Y-97574552D01*
X136488867Y-97508231D01*
X136500500Y-97449748D01*
X136500500Y-95710252D01*
X136499757Y-95706519D01*
X136494581Y-95680496D01*
X136488867Y-95651769D01*
X136444552Y-95585448D01*
X136437740Y-95580896D01*
X136378233Y-95541134D01*
X136378231Y-95541133D01*
X136378228Y-95541132D01*
X136378227Y-95541132D01*
X136319758Y-95529501D01*
X136319748Y-95529500D01*
X134580252Y-95529500D01*
X134580251Y-95529500D01*
X134580241Y-95529501D01*
X134521772Y-95541132D01*
X134521766Y-95541134D01*
X134455451Y-95585445D01*
X134455445Y-95585451D01*
X134411134Y-95651766D01*
X134411132Y-95651772D01*
X134399501Y-95710241D01*
X134399500Y-95710253D01*
X134399500Y-97449746D01*
X132700500Y-97449746D01*
X132700500Y-92999999D01*
X152750000Y-92999999D01*
X152750001Y-93000000D01*
X153349999Y-93000000D01*
X153350000Y-92999999D01*
X153550000Y-92999999D01*
X153550001Y-93000000D01*
X154149998Y-93000000D01*
X154149999Y-92999999D01*
X154149999Y-92570796D01*
X154147149Y-92540399D01*
X154147149Y-92540397D01*
X154102345Y-92412352D01*
X154021792Y-92303209D01*
X154021790Y-92303207D01*
X153912647Y-92222654D01*
X153784601Y-92177850D01*
X153754211Y-92175000D01*
X153550001Y-92175000D01*
X153550000Y-92175001D01*
X153550000Y-92999999D01*
X153350000Y-92999999D01*
X153350000Y-92175001D01*
X153349999Y-92175000D01*
X153145796Y-92175000D01*
X153115399Y-92177850D01*
X153115397Y-92177850D01*
X152987352Y-92222654D01*
X152878209Y-92303207D01*
X152878207Y-92303209D01*
X152797654Y-92412352D01*
X152752850Y-92540398D01*
X152750000Y-92570788D01*
X152750000Y-92999999D01*
X132700500Y-92999999D01*
X132700500Y-86102279D01*
X132700553Y-86100000D01*
X133494506Y-86100000D01*
X133514468Y-86468197D01*
X133574126Y-86832087D01*
X133672768Y-87187365D01*
X133672772Y-87187376D01*
X133809255Y-87529927D01*
X133899423Y-87700001D01*
X133981978Y-87855716D01*
X134188910Y-88160917D01*
X134188914Y-88160922D01*
X134188915Y-88160923D01*
X134427622Y-88441951D01*
X134427632Y-88441961D01*
X134695326Y-88695535D01*
X134695330Y-88695538D01*
X134988881Y-88918690D01*
X135304838Y-89108795D01*
X135639497Y-89263625D01*
X135988934Y-89381364D01*
X135988939Y-89381365D01*
X135988942Y-89381366D01*
X136349047Y-89460631D01*
X136349048Y-89460631D01*
X136349052Y-89460632D01*
X136715630Y-89500500D01*
X137084370Y-89500500D01*
X137450948Y-89460632D01*
X137811057Y-89381366D01*
X137811058Y-89381366D01*
X137811060Y-89381365D01*
X137811066Y-89381364D01*
X138160503Y-89263625D01*
X138495162Y-89108795D01*
X138811119Y-88918690D01*
X139104670Y-88695538D01*
X139372373Y-88441956D01*
X139611090Y-88160917D01*
X139622599Y-88143941D01*
X139670905Y-88106389D01*
X139704540Y-88100500D01*
X140350500Y-88100500D01*
X140408691Y-88119407D01*
X140444655Y-88168907D01*
X140449500Y-88199500D01*
X140449500Y-88304274D01*
X140452353Y-88334694D01*
X140452355Y-88334703D01*
X140497207Y-88462883D01*
X140577845Y-88572144D01*
X140577847Y-88572146D01*
X140577850Y-88572150D01*
X140577853Y-88572152D01*
X140577855Y-88572154D01*
X140687116Y-88652792D01*
X140687117Y-88652792D01*
X140687118Y-88652793D01*
X140815301Y-88697646D01*
X140845725Y-88700499D01*
X140845727Y-88700500D01*
X140845734Y-88700500D01*
X142954273Y-88700500D01*
X142954273Y-88700499D01*
X142984699Y-88697646D01*
X143112882Y-88652793D01*
X143222150Y-88572150D01*
X143302793Y-88462882D01*
X143347646Y-88334699D01*
X143350499Y-88304273D01*
X143350500Y-88304273D01*
X143350500Y-88304203D01*
X144450001Y-88304203D01*
X144452850Y-88334600D01*
X144452850Y-88334602D01*
X144497654Y-88462647D01*
X144578207Y-88571790D01*
X144578209Y-88571792D01*
X144687352Y-88652345D01*
X144815398Y-88697149D01*
X144845789Y-88699999D01*
X145799998Y-88699999D01*
X145800000Y-88699998D01*
X146000000Y-88699998D01*
X146000001Y-88699999D01*
X146954203Y-88699999D01*
X146984600Y-88697149D01*
X146984602Y-88697149D01*
X147112647Y-88652345D01*
X147156878Y-88619700D01*
X148650000Y-88619700D01*
X148661603Y-88678036D01*
X148705806Y-88744189D01*
X148705810Y-88744193D01*
X148771963Y-88788396D01*
X148830299Y-88799999D01*
X148830303Y-88800000D01*
X150749999Y-88800000D01*
X150750000Y-88799999D01*
X150950000Y-88799999D01*
X150950001Y-88800000D01*
X152869697Y-88800000D01*
X152869700Y-88799999D01*
X152928036Y-88788396D01*
X152994189Y-88744193D01*
X152994193Y-88744189D01*
X153038396Y-88678036D01*
X153049999Y-88619700D01*
X153050000Y-88619697D01*
X153050000Y-87700001D01*
X153049999Y-87700000D01*
X150950001Y-87700000D01*
X150950000Y-87700001D01*
X150950000Y-88799999D01*
X150750000Y-88799999D01*
X150750000Y-87700001D01*
X150749999Y-87700000D01*
X148650001Y-87700000D01*
X148650000Y-87700001D01*
X148650000Y-88619700D01*
X147156878Y-88619700D01*
X147221790Y-88571792D01*
X147221792Y-88571790D01*
X147302345Y-88462647D01*
X147347149Y-88334601D01*
X147349999Y-88304211D01*
X147350000Y-88304210D01*
X147350000Y-87700001D01*
X147349999Y-87700000D01*
X146000001Y-87700000D01*
X146000000Y-87700001D01*
X146000000Y-88699998D01*
X145800000Y-88699998D01*
X145800000Y-87700001D01*
X145799999Y-87700000D01*
X144450002Y-87700000D01*
X144450001Y-87700001D01*
X144450001Y-88304203D01*
X143350500Y-88304203D01*
X143350500Y-87499999D01*
X144450000Y-87499999D01*
X144450001Y-87500000D01*
X145799999Y-87500000D01*
X145800000Y-87499999D01*
X146000000Y-87499999D01*
X146000001Y-87500000D01*
X147349998Y-87500000D01*
X147349999Y-87499999D01*
X148650000Y-87499999D01*
X148650001Y-87500000D01*
X150749999Y-87500000D01*
X150750000Y-87499999D01*
X150950000Y-87499999D01*
X150950001Y-87500000D01*
X153049999Y-87500000D01*
X153050000Y-87499999D01*
X153050000Y-86580302D01*
X153049999Y-86580299D01*
X153038396Y-86521963D01*
X152994193Y-86455810D01*
X152994189Y-86455806D01*
X152928036Y-86411603D01*
X152869700Y-86400000D01*
X150950001Y-86400000D01*
X150950000Y-86400001D01*
X150950000Y-87499999D01*
X150750000Y-87499999D01*
X150750000Y-86400001D01*
X150749999Y-86400000D01*
X148830299Y-86400000D01*
X148771963Y-86411603D01*
X148705810Y-86455806D01*
X148705806Y-86455810D01*
X148661603Y-86521963D01*
X148650000Y-86580299D01*
X148650000Y-87499999D01*
X147349999Y-87499999D01*
X147349999Y-86895796D01*
X147347149Y-86865399D01*
X147347149Y-86865397D01*
X147302345Y-86737352D01*
X147221792Y-86628209D01*
X147221790Y-86628207D01*
X147112647Y-86547654D01*
X146984601Y-86502850D01*
X146954211Y-86500000D01*
X146000001Y-86500000D01*
X146000000Y-86500001D01*
X146000000Y-87499999D01*
X145800000Y-87499999D01*
X145800000Y-86500001D01*
X145799999Y-86500000D01*
X144845796Y-86500000D01*
X144815399Y-86502850D01*
X144815397Y-86502850D01*
X144687352Y-86547654D01*
X144578209Y-86628207D01*
X144578207Y-86628209D01*
X144497654Y-86737352D01*
X144452850Y-86865398D01*
X144450000Y-86895788D01*
X144450000Y-87499999D01*
X143350500Y-87499999D01*
X143350500Y-86895727D01*
X143350499Y-86895725D01*
X143347646Y-86865305D01*
X143347646Y-86865301D01*
X143302793Y-86737118D01*
X143222413Y-86628207D01*
X143222154Y-86627855D01*
X143222152Y-86627853D01*
X143222150Y-86627850D01*
X143222146Y-86627847D01*
X143222144Y-86627845D01*
X143112883Y-86547207D01*
X142984703Y-86502355D01*
X142984694Y-86502353D01*
X142954274Y-86499500D01*
X142954266Y-86499500D01*
X140845734Y-86499500D01*
X140845725Y-86499500D01*
X140815305Y-86502353D01*
X140815296Y-86502355D01*
X140687116Y-86547207D01*
X140577855Y-86627845D01*
X140577845Y-86627855D01*
X140497207Y-86737116D01*
X140452355Y-86865296D01*
X140452353Y-86865305D01*
X140449500Y-86895725D01*
X140449500Y-87000500D01*
X140430593Y-87058691D01*
X140381093Y-87094655D01*
X140350500Y-87099500D01*
X140281858Y-87099500D01*
X140223667Y-87080593D01*
X140187703Y-87031093D01*
X140186467Y-86974014D01*
X140208185Y-86895796D01*
X140225875Y-86832081D01*
X140285531Y-86468199D01*
X140305494Y-86100000D01*
X140285531Y-85731801D01*
X140225875Y-85367919D01*
X140213414Y-85323040D01*
X140127231Y-85012634D01*
X140127229Y-85012629D01*
X140127227Y-85012621D01*
X139990743Y-84670070D01*
X139818022Y-84344284D01*
X139611090Y-84039083D01*
X139483819Y-83889248D01*
X139372377Y-83758048D01*
X139372367Y-83758038D01*
X139104673Y-83504464D01*
X138811123Y-83281313D01*
X138811122Y-83281312D01*
X138811119Y-83281310D01*
X138495162Y-83091205D01*
X138290530Y-82996532D01*
X138160508Y-82936377D01*
X138160505Y-82936376D01*
X138160503Y-82936375D01*
X137811066Y-82818636D01*
X137811065Y-82818635D01*
X137811057Y-82818633D01*
X137450952Y-82739368D01*
X137450953Y-82739368D01*
X137084370Y-82699500D01*
X136715630Y-82699500D01*
X136349046Y-82739368D01*
X135988943Y-82818633D01*
X135988941Y-82818633D01*
X135639491Y-82936377D01*
X135304846Y-83091201D01*
X135304840Y-83091204D01*
X134988881Y-83281310D01*
X134988876Y-83281313D01*
X134695326Y-83504464D01*
X134427632Y-83758038D01*
X134427622Y-83758048D01*
X134188915Y-84039076D01*
X134188908Y-84039086D01*
X133981981Y-84344278D01*
X133809255Y-84670072D01*
X133672772Y-85012623D01*
X133672768Y-85012634D01*
X133574126Y-85367912D01*
X133514468Y-85731802D01*
X133494506Y-86100000D01*
X132700553Y-86100000D01*
X132700606Y-86097707D01*
X132710190Y-85890406D01*
X132718202Y-85717091D01*
X132719045Y-85707993D01*
X132771374Y-85332856D01*
X132773050Y-85323895D01*
X132859765Y-84955205D01*
X132862266Y-84946416D01*
X132954888Y-84670072D01*
X132982629Y-84587301D01*
X132985930Y-84578782D01*
X133089471Y-84344284D01*
X133138919Y-84232295D01*
X133142980Y-84224138D01*
X133327290Y-83893237D01*
X133332093Y-83885481D01*
X133546144Y-83573006D01*
X133551654Y-83565711D01*
X133602513Y-83504464D01*
X133793613Y-83274329D01*
X133799753Y-83267593D01*
X134067593Y-82999753D01*
X134074329Y-82993613D01*
X134365712Y-82751652D01*
X134373008Y-82746143D01*
X134441098Y-82699500D01*
X134685481Y-82532093D01*
X134693237Y-82527290D01*
X135024138Y-82342980D01*
X135032295Y-82338919D01*
X135378789Y-82185927D01*
X135387301Y-82182629D01*
X135746421Y-82062264D01*
X135755205Y-82059765D01*
X136123895Y-81973050D01*
X136132856Y-81971374D01*
X136508000Y-81919044D01*
X136517091Y-81918202D01*
X136897707Y-81900605D01*
X136902279Y-81900500D01*
X136947595Y-81900500D01*
X139299462Y-81900500D01*
X139357653Y-81919407D01*
G37*
G04 #@! TD.AperFunction*
M02*
