G04 #@! TF.GenerationSoftware,KiCad,Pcbnew,7.0.11*
G04 #@! TF.CreationDate,2024-10-22T14:50:10-04:00*
G04 #@! TF.ProjectId,prism-pcb,70726973-6d2d-4706-9362-2e6b69636164,2.1*
G04 #@! TF.SameCoordinates,Original*
G04 #@! TF.FileFunction,Copper,L1,Top*
G04 #@! TF.FilePolarity,Positive*
%FSLAX46Y46*%
G04 Gerber Fmt 4.6, Leading zero omitted, Abs format (unit mm)*
G04 Created by KiCad (PCBNEW 7.0.11) date 2024-10-22 14:50:10*
%MOMM*%
%LPD*%
G01*
G04 APERTURE LIST*
G04 Aperture macros list*
%AMRoundRect*
0 Rectangle with rounded corners*
0 $1 Rounding radius*
0 $2 $3 $4 $5 $6 $7 $8 $9 X,Y pos of 4 corners*
0 Add a 4 corners polygon primitive as box body*
4,1,4,$2,$3,$4,$5,$6,$7,$8,$9,$2,$3,0*
0 Add four circle primitives for the rounded corners*
1,1,$1+$1,$2,$3*
1,1,$1+$1,$4,$5*
1,1,$1+$1,$6,$7*
1,1,$1+$1,$8,$9*
0 Add four rect primitives between the rounded corners*
20,1,$1+$1,$2,$3,$4,$5,0*
20,1,$1+$1,$4,$5,$6,$7,0*
20,1,$1+$1,$6,$7,$8,$9,0*
20,1,$1+$1,$8,$9,$2,$3,0*%
G04 Aperture macros list end*
G04 #@! TA.AperFunction,SMDPad,CuDef*
%ADD10R,1.200000X0.475000*%
G04 #@! TD*
G04 #@! TA.AperFunction,SMDPad,CuDef*
%ADD11R,1.200000X0.349999*%
G04 #@! TD*
G04 #@! TA.AperFunction,SMDPad,CuDef*
%ADD12R,1.599999X2.150001*%
G04 #@! TD*
G04 #@! TA.AperFunction,SMDPad,CuDef*
%ADD13R,0.349999X0.900001*%
G04 #@! TD*
G04 #@! TA.AperFunction,SMDPad,CuDef*
%ADD14RoundRect,0.100000X-0.100000X-0.900000X0.100000X-0.900000X0.100000X0.900000X-0.100000X0.900000X0*%
G04 #@! TD*
G04 #@! TA.AperFunction,SMDPad,CuDef*
%ADD15C,0.500000*%
G04 #@! TD*
G04 #@! TA.AperFunction,SMDPad,CuDef*
%ADD16RoundRect,0.250000X0.312500X0.625000X-0.312500X0.625000X-0.312500X-0.625000X0.312500X-0.625000X0*%
G04 #@! TD*
G04 #@! TA.AperFunction,SMDPad,CuDef*
%ADD17RoundRect,0.140000X-0.140000X-0.170000X0.140000X-0.170000X0.140000X0.170000X-0.140000X0.170000X0*%
G04 #@! TD*
G04 #@! TA.AperFunction,SMDPad,CuDef*
%ADD18RoundRect,0.250000X1.100000X-0.325000X1.100000X0.325000X-1.100000X0.325000X-1.100000X-0.325000X0*%
G04 #@! TD*
G04 #@! TA.AperFunction,SMDPad,CuDef*
%ADD19RoundRect,0.250000X-0.250000X-0.475000X0.250000X-0.475000X0.250000X0.475000X-0.250000X0.475000X0*%
G04 #@! TD*
G04 #@! TA.AperFunction,ComponentPad*
%ADD20C,6.400000*%
G04 #@! TD*
G04 #@! TA.AperFunction,SMDPad,CuDef*
%ADD21RoundRect,0.140000X0.140000X0.170000X-0.140000X0.170000X-0.140000X-0.170000X0.140000X-0.170000X0*%
G04 #@! TD*
G04 #@! TA.AperFunction,SMDPad,CuDef*
%ADD22RoundRect,0.140000X-0.170000X0.140000X-0.170000X-0.140000X0.170000X-0.140000X0.170000X0.140000X0*%
G04 #@! TD*
G04 #@! TA.AperFunction,SMDPad,CuDef*
%ADD23R,3.550000X0.850000*%
G04 #@! TD*
G04 #@! TA.AperFunction,SMDPad,CuDef*
%ADD24R,2.650000X0.850000*%
G04 #@! TD*
G04 #@! TA.AperFunction,SMDPad,CuDef*
%ADD25R,0.700000X0.500000*%
G04 #@! TD*
G04 #@! TA.AperFunction,SMDPad,CuDef*
%ADD26R,1.700000X1.700000*%
G04 #@! TD*
G04 #@! TA.AperFunction,SMDPad,CuDef*
%ADD27RoundRect,0.150000X-0.425000X0.150000X-0.425000X-0.150000X0.425000X-0.150000X0.425000X0.150000X0*%
G04 #@! TD*
G04 #@! TA.AperFunction,SMDPad,CuDef*
%ADD28RoundRect,0.075000X-0.500000X0.075000X-0.500000X-0.075000X0.500000X-0.075000X0.500000X0.075000X0*%
G04 #@! TD*
G04 #@! TA.AperFunction,ComponentPad*
%ADD29O,2.000000X1.100000*%
G04 #@! TD*
G04 #@! TA.AperFunction,SMDPad,CuDef*
%ADD30RoundRect,0.075000X-0.662500X-0.075000X0.662500X-0.075000X0.662500X0.075000X-0.662500X0.075000X0*%
G04 #@! TD*
G04 #@! TA.AperFunction,SMDPad,CuDef*
%ADD31RoundRect,0.075000X-0.075000X-0.662500X0.075000X-0.662500X0.075000X0.662500X-0.075000X0.662500X0*%
G04 #@! TD*
G04 #@! TA.AperFunction,HeatsinkPad*
%ADD32C,0.800000*%
G04 #@! TD*
G04 #@! TA.AperFunction,HeatsinkPad*
%ADD33R,5.000000X5.000000*%
G04 #@! TD*
G04 #@! TA.AperFunction,SMDPad,CuDef*
%ADD34RoundRect,0.135000X0.185000X-0.135000X0.185000X0.135000X-0.185000X0.135000X-0.185000X-0.135000X0*%
G04 #@! TD*
G04 #@! TA.AperFunction,SMDPad,CuDef*
%ADD35RoundRect,0.250000X0.650000X-1.000000X0.650000X1.000000X-0.650000X1.000000X-0.650000X-1.000000X0*%
G04 #@! TD*
G04 #@! TA.AperFunction,SMDPad,CuDef*
%ADD36RoundRect,0.250000X0.262500X0.450000X-0.262500X0.450000X-0.262500X-0.450000X0.262500X-0.450000X0*%
G04 #@! TD*
G04 #@! TA.AperFunction,SMDPad,CuDef*
%ADD37RoundRect,0.135000X-0.185000X0.135000X-0.185000X-0.135000X0.185000X-0.135000X0.185000X0.135000X0*%
G04 #@! TD*
G04 #@! TA.AperFunction,SMDPad,CuDef*
%ADD38RoundRect,0.140000X0.170000X-0.140000X0.170000X0.140000X-0.170000X0.140000X-0.170000X-0.140000X0*%
G04 #@! TD*
G04 #@! TA.AperFunction,SMDPad,CuDef*
%ADD39R,1.800000X1.300000*%
G04 #@! TD*
G04 #@! TA.AperFunction,SMDPad,CuDef*
%ADD40R,4.000000X2.000000*%
G04 #@! TD*
G04 #@! TA.AperFunction,SMDPad,CuDef*
%ADD41R,0.500000X1.000000*%
G04 #@! TD*
G04 #@! TA.AperFunction,SMDPad,CuDef*
%ADD42R,0.700000X1.000000*%
G04 #@! TD*
G04 #@! TA.AperFunction,SMDPad,CuDef*
%ADD43RoundRect,0.135000X0.135000X0.185000X-0.135000X0.185000X-0.135000X-0.185000X0.135000X-0.185000X0*%
G04 #@! TD*
G04 #@! TA.AperFunction,SMDPad,CuDef*
%ADD44RoundRect,0.225000X0.225000X0.250000X-0.225000X0.250000X-0.225000X-0.250000X0.225000X-0.250000X0*%
G04 #@! TD*
G04 #@! TA.AperFunction,SMDPad,CuDef*
%ADD45RoundRect,0.250000X-0.475000X0.250000X-0.475000X-0.250000X0.475000X-0.250000X0.475000X0.250000X0*%
G04 #@! TD*
G04 #@! TA.AperFunction,SMDPad,CuDef*
%ADD46R,0.900000X1.350000*%
G04 #@! TD*
G04 #@! TA.AperFunction,SMDPad,CuDef*
%ADD47R,0.305000X0.889000*%
G04 #@! TD*
G04 #@! TA.AperFunction,ViaPad*
%ADD48C,1.000000*%
G04 #@! TD*
G04 #@! TA.AperFunction,Conductor*
%ADD49C,0.300000*%
G04 #@! TD*
G04 #@! TA.AperFunction,Conductor*
%ADD50C,0.600000*%
G04 #@! TD*
G04 #@! TA.AperFunction,Conductor*
%ADD51C,0.200000*%
G04 #@! TD*
G04 APERTURE END LIST*
D10*
X166500000Y-92638000D03*
D11*
X166500000Y-93450000D03*
X166500000Y-93949999D03*
D12*
X166700000Y-95600001D03*
X169100000Y-95600001D03*
D11*
X169300000Y-93949999D03*
X169300000Y-93450000D03*
D10*
X169300000Y-92638000D03*
D13*
X168399999Y-92550002D03*
D14*
X167900000Y-92850000D03*
D13*
X167400001Y-92550002D03*
D15*
X139400000Y-82600000D03*
D16*
X151862500Y-109100000D03*
X148937500Y-109100000D03*
D17*
X137170000Y-107600000D03*
X138130000Y-107600000D03*
D18*
X162900000Y-92825000D03*
X162900000Y-89875000D03*
D17*
X154880000Y-94600000D03*
X153920000Y-94600000D03*
D19*
X158700000Y-100600000D03*
X160600000Y-100600000D03*
D20*
X167900000Y-117100000D03*
D21*
X140130000Y-107600000D03*
X139170000Y-107600000D03*
D22*
X148150000Y-105870000D03*
X148150000Y-106830000D03*
D23*
X169250000Y-103850000D03*
X169250000Y-102350000D03*
X169250000Y-100850000D03*
X169250000Y-99350000D03*
D24*
X165350000Y-103850000D03*
X165350000Y-102350000D03*
X165350000Y-100850000D03*
X165350000Y-99350000D03*
D19*
X153450000Y-110100000D03*
X155350000Y-110100000D03*
D17*
X153920000Y-95600000D03*
X154880000Y-95600000D03*
D25*
X135450000Y-94850000D03*
X136350000Y-94850000D03*
D26*
X135450000Y-96580000D03*
X135450000Y-106620000D03*
D27*
X139975000Y-98400000D03*
X139975000Y-99200000D03*
D28*
X139975000Y-100350000D03*
X139975000Y-101350000D03*
X139975000Y-101850000D03*
X139975000Y-102850000D03*
D27*
X139975000Y-104000000D03*
X139975000Y-104800000D03*
X139975000Y-104800000D03*
X139975000Y-104000000D03*
D28*
X139975000Y-103350000D03*
X139975000Y-102350000D03*
X139975000Y-100850000D03*
X139975000Y-99850000D03*
D27*
X139975000Y-99200000D03*
X139975000Y-98400000D03*
D29*
X139400000Y-97280000D03*
X139400000Y-105920000D03*
D19*
X153450000Y-93100000D03*
X155350000Y-93100000D03*
D30*
X148237500Y-98850000D03*
X148237500Y-99350000D03*
X148237500Y-99850000D03*
X148237500Y-100350000D03*
X148237500Y-100850000D03*
X148237500Y-101350000D03*
X148237500Y-101850000D03*
X148237500Y-102350000D03*
X148237500Y-102850000D03*
X148237500Y-103350000D03*
X148237500Y-103850000D03*
X148237500Y-104350000D03*
D31*
X149650000Y-105762500D03*
X150150000Y-105762500D03*
X150650000Y-105762500D03*
X151150000Y-105762500D03*
X151650000Y-105762500D03*
X152150000Y-105762500D03*
X152650000Y-105762500D03*
X153150000Y-105762500D03*
X153650000Y-105762500D03*
X154150000Y-105762500D03*
X154650000Y-105762500D03*
X155150000Y-105762500D03*
D30*
X156562500Y-104350000D03*
X156562500Y-103850000D03*
X156562500Y-103350000D03*
X156562500Y-102850000D03*
X156562500Y-102350000D03*
X156562500Y-101850000D03*
X156562500Y-101350000D03*
X156562500Y-100850000D03*
X156562500Y-100350000D03*
X156562500Y-99850000D03*
X156562500Y-99350000D03*
X156562500Y-98850000D03*
D31*
X155150000Y-97437500D03*
X154650000Y-97437500D03*
X154150000Y-97437500D03*
X153650000Y-97437500D03*
X153150000Y-97437500D03*
X152650000Y-97437500D03*
X152150000Y-97437500D03*
X151650000Y-97437500D03*
X151150000Y-97437500D03*
X150650000Y-97437500D03*
X150150000Y-97437500D03*
X149650000Y-97437500D03*
D32*
X150400000Y-99600000D03*
X150400000Y-100600000D03*
X150400000Y-101600000D03*
X150400000Y-102600000D03*
X150400000Y-103600000D03*
X151400000Y-99600000D03*
X151400000Y-100600000D03*
X151400000Y-101600000D03*
X151400000Y-102600000D03*
X151400000Y-103600000D03*
X152400000Y-99600000D03*
X152400000Y-100600000D03*
X152400000Y-101600000D03*
D33*
X152400000Y-101600000D03*
D32*
X152400000Y-102600000D03*
X152400000Y-103600000D03*
X153400000Y-99600000D03*
X153400000Y-100600000D03*
X153400000Y-101600000D03*
X153400000Y-102600000D03*
X153400000Y-103600000D03*
X154400000Y-99600000D03*
X154400000Y-100600000D03*
X154400000Y-101600000D03*
X154400000Y-102600000D03*
X154400000Y-103600000D03*
D34*
X146150000Y-101860000D03*
X146150000Y-100840000D03*
D17*
X153920000Y-108600000D03*
X154880000Y-108600000D03*
D35*
X146650000Y-89850000D03*
X146650000Y-85850000D03*
D36*
X139812500Y-94850000D03*
X137987500Y-94850000D03*
D16*
X151862500Y-94100000D03*
X148937500Y-94100000D03*
D37*
X159650000Y-97840000D03*
X159650000Y-98860000D03*
D38*
X148400000Y-96830000D03*
X148400000Y-95870000D03*
D39*
X146170000Y-94200000D03*
X143630000Y-94200000D03*
X143630000Y-96500000D03*
X146170000Y-96500000D03*
D38*
X165150000Y-93830000D03*
X165150000Y-92870000D03*
D20*
X136900000Y-86100000D03*
D40*
X150850000Y-115600000D03*
X157950000Y-115600000D03*
D41*
X138275000Y-112750000D03*
X137525000Y-112750000D03*
D42*
X135600000Y-112750000D03*
D41*
X135525000Y-109950000D03*
X136275000Y-109950000D03*
D42*
X138200000Y-109950000D03*
D43*
X146160000Y-107600000D03*
X145140000Y-107600000D03*
D44*
X158175000Y-96100000D03*
X156625000Y-96100000D03*
D43*
X142160000Y-107600000D03*
X141140000Y-107600000D03*
D21*
X169880000Y-91100000D03*
X168920000Y-91100000D03*
D45*
X163650000Y-95150000D03*
X163650000Y-97050000D03*
D15*
X165400000Y-120600000D03*
D43*
X144160000Y-107600000D03*
X143140000Y-107600000D03*
D22*
X165150000Y-95120000D03*
X165150000Y-96080000D03*
D20*
X167900000Y-86100000D03*
D15*
X165400000Y-82600000D03*
D22*
X160650000Y-97870000D03*
X160650000Y-98830000D03*
D40*
X150850000Y-87600000D03*
X157950000Y-87600000D03*
D15*
X139400000Y-120600000D03*
D46*
X142900000Y-109075000D03*
X140400000Y-109075000D03*
X140400000Y-113625000D03*
X142900000Y-113625000D03*
D38*
X142400000Y-100830000D03*
X142400000Y-99870000D03*
D20*
X136900000Y-117100000D03*
D47*
X144900000Y-101930500D03*
X144400000Y-101930500D03*
X143900000Y-101930500D03*
X143400000Y-101930500D03*
X142900000Y-101930500D03*
X142400000Y-101930500D03*
X141900000Y-101930500D03*
X141400000Y-101930500D03*
X141400000Y-106269500D03*
X141900000Y-106269500D03*
X142400000Y-106269500D03*
X142900000Y-106269500D03*
X143400000Y-106269500D03*
X143900000Y-106269500D03*
X144400000Y-106269500D03*
X144900000Y-106269500D03*
D48*
X148900000Y-110850000D03*
X141650000Y-98600000D03*
X137400000Y-105600000D03*
X148900000Y-92350000D03*
X156650000Y-93100000D03*
X156900000Y-97850000D03*
X167900000Y-91100000D03*
X135400000Y-101600000D03*
X141650000Y-104600000D03*
X150650000Y-95850000D03*
X163400000Y-99350000D03*
X152650000Y-95850000D03*
X163400000Y-100850000D03*
X150650000Y-107350000D03*
X163400000Y-102350000D03*
X152650000Y-107350000D03*
X163400000Y-103850000D03*
X141400000Y-99850000D03*
X141400000Y-103350000D03*
X143150000Y-103350000D03*
X146150000Y-102850000D03*
D49*
X154650000Y-105762500D02*
X154650000Y-108370000D01*
X151976905Y-101600000D02*
X152400000Y-101600000D01*
X148400000Y-94637500D02*
X148937500Y-94100000D01*
X154650000Y-105762500D02*
X154900000Y-105762500D01*
X155350000Y-93100000D02*
X156650000Y-93100000D01*
D50*
X142400000Y-99870000D02*
X142400000Y-99350000D01*
D49*
X148400000Y-95870000D02*
X148400000Y-94637500D01*
D50*
X141450000Y-104800000D02*
X139975000Y-104800000D01*
X165150000Y-92125000D02*
X165150000Y-92870000D01*
X157950000Y-115600000D02*
X157950000Y-112700000D01*
X147687500Y-92850000D02*
X148937500Y-94100000D01*
X141450000Y-98400000D02*
X139975000Y-98400000D01*
D49*
X154900000Y-105762500D02*
X154880000Y-105782500D01*
X150150000Y-103850000D02*
X152400000Y-101600000D01*
X167900000Y-92850000D02*
X167900000Y-91100000D01*
D50*
X164620000Y-96080000D02*
X163650000Y-97050000D01*
X134175000Y-95275304D02*
X134600304Y-94850000D01*
X165150000Y-96080000D02*
X164620000Y-96080000D01*
D49*
X156562500Y-100850000D02*
X156562500Y-101350000D01*
X154880000Y-94600000D02*
X154880000Y-93570000D01*
X148150000Y-108312500D02*
X148937500Y-109100000D01*
X152150000Y-101350000D02*
X152400000Y-101600000D01*
D50*
X166400000Y-87600000D02*
X167900000Y-86100000D01*
X141650000Y-98600000D02*
X141450000Y-98400000D01*
D49*
X148937500Y-110812500D02*
X148900000Y-110850000D01*
D50*
X161870000Y-98830000D02*
X160650000Y-98830000D01*
X160650000Y-100550000D02*
X160600000Y-100600000D01*
D49*
X149650000Y-97120000D02*
X148400000Y-95870000D01*
X149650000Y-105762500D02*
X149650000Y-108387500D01*
X145150000Y-105350000D02*
X146630000Y-106830000D01*
X138130000Y-107600000D02*
X139170000Y-107600000D01*
X143140000Y-107600000D02*
X143140000Y-107360000D01*
X143400000Y-107100000D02*
X143400000Y-106269500D01*
D50*
X143630000Y-94200000D02*
X144980000Y-92850000D01*
D49*
X157575000Y-102625001D02*
X157575000Y-104074999D01*
X148237500Y-103850000D02*
X150150000Y-103850000D01*
X148237500Y-102850000D02*
X151150000Y-102850000D01*
X154880000Y-108600000D02*
X154880000Y-109630000D01*
X142900000Y-106269500D02*
X143400000Y-106269500D01*
X157299999Y-104350000D02*
X156562500Y-104350000D01*
X157299999Y-102350000D02*
X157575000Y-102625001D01*
X156562500Y-102350000D02*
X157299999Y-102350000D01*
X148237500Y-101350000D02*
X152150000Y-101350000D01*
D50*
X135400000Y-101600000D02*
X134175000Y-100375000D01*
X134600304Y-94850000D02*
X135450000Y-94850000D01*
D49*
X144172500Y-105350000D02*
X145150000Y-105350000D01*
X156562500Y-101350000D02*
X156562500Y-101850000D01*
X148937500Y-109100000D02*
X148937500Y-110812500D01*
D50*
X156200000Y-85850000D02*
X157950000Y-87600000D01*
D49*
X149650000Y-97437500D02*
X149650000Y-97120000D01*
D50*
X162900000Y-89875000D02*
X165150000Y-92125000D01*
D49*
X143400000Y-106269500D02*
X143900000Y-106269500D01*
D50*
X146650000Y-85850000D02*
X137150000Y-85850000D01*
D49*
X156562500Y-101850000D02*
X156562500Y-102350000D01*
X151650000Y-102350000D02*
X152400000Y-101600000D01*
X167900000Y-91100000D02*
X168920000Y-91100000D01*
X148237500Y-98850000D02*
X149226905Y-98850000D01*
X148237500Y-102350000D02*
X151650000Y-102350000D01*
D50*
X160650000Y-98830000D02*
X160650000Y-100550000D01*
D49*
X148937500Y-94100000D02*
X148937500Y-92387500D01*
X156562500Y-98187500D02*
X156900000Y-97850000D01*
D50*
X144980000Y-92850000D02*
X147687500Y-92850000D01*
X142400000Y-99350000D02*
X141650000Y-98600000D01*
D49*
X155150000Y-105762500D02*
X156562500Y-104350000D01*
X143140000Y-107360000D02*
X143400000Y-107100000D01*
D50*
X157950000Y-112700000D02*
X155350000Y-110100000D01*
D49*
X151150000Y-102850000D02*
X152400000Y-101600000D01*
X156562500Y-98850000D02*
X156562500Y-98187500D01*
X158850000Y-102350000D02*
X160600000Y-100600000D01*
X157575000Y-104074999D02*
X157299999Y-104350000D01*
X148937500Y-92387500D02*
X148900000Y-92350000D01*
D50*
X157950000Y-87600000D02*
X166400000Y-87600000D01*
D49*
X143900000Y-105622500D02*
X144172500Y-105350000D01*
D50*
X146650000Y-85850000D02*
X156200000Y-85850000D01*
X141650000Y-104600000D02*
X141450000Y-104800000D01*
D49*
X146630000Y-106830000D02*
X148150000Y-106830000D01*
D50*
X166400000Y-115600000D02*
X167900000Y-117100000D01*
D49*
X154880000Y-93570000D02*
X155350000Y-93100000D01*
D50*
X162900000Y-89875000D02*
X160225000Y-89875000D01*
D49*
X138130000Y-106330000D02*
X137400000Y-105600000D01*
X154900000Y-105762500D02*
X155150000Y-105762500D01*
D50*
X137150000Y-85850000D02*
X136900000Y-86100000D01*
D49*
X156562500Y-102350000D02*
X158850000Y-102350000D01*
X138130000Y-107600000D02*
X138130000Y-106330000D01*
X154880000Y-109630000D02*
X155350000Y-110100000D01*
X143900000Y-106269500D02*
X143900000Y-105622500D01*
D50*
X134175000Y-100375000D02*
X134175000Y-95275304D01*
D49*
X149226905Y-98850000D02*
X151976905Y-101600000D01*
X154650000Y-108370000D02*
X154880000Y-108600000D01*
D50*
X163650000Y-97050000D02*
X161870000Y-98830000D01*
X160225000Y-89875000D02*
X157950000Y-87600000D01*
D49*
X149650000Y-108387500D02*
X148937500Y-109100000D01*
D50*
X157950000Y-115600000D02*
X166400000Y-115600000D01*
D49*
X148150000Y-106830000D02*
X148150000Y-108312500D01*
D51*
X158175000Y-98474999D02*
X158175000Y-96100000D01*
X157299999Y-99350000D02*
X158175000Y-98474999D01*
X156562500Y-99350000D02*
X157299999Y-99350000D01*
X156487500Y-96100000D02*
X156625000Y-96100000D01*
X155150000Y-97437500D02*
X156487500Y-96100000D01*
X154650000Y-97437500D02*
X154650000Y-95830000D01*
X154650000Y-95830000D02*
X154880000Y-95600000D01*
X136350000Y-94850000D02*
X137987500Y-94850000D01*
X158700000Y-99810000D02*
X159650000Y-98860000D01*
X156562500Y-100350000D02*
X158450000Y-100350000D01*
X158700000Y-100600000D02*
X158700000Y-99810000D01*
X158450000Y-100350000D02*
X158700000Y-100600000D01*
D49*
X151650000Y-97437500D02*
X151650000Y-94312500D01*
X151650000Y-94312500D02*
X151862500Y-94100000D01*
X150650000Y-97437500D02*
X150650000Y-95850000D01*
D50*
X165350000Y-99350000D02*
X163400000Y-99350000D01*
D49*
X152650000Y-97437500D02*
X152650000Y-95850000D01*
D50*
X165350000Y-100850000D02*
X163400000Y-100850000D01*
D49*
X150650000Y-105762500D02*
X150650000Y-107350000D01*
D50*
X165350000Y-102350000D02*
X163400000Y-102350000D01*
X165350000Y-103850000D02*
X163400000Y-103850000D01*
D49*
X152650000Y-105762500D02*
X152650000Y-107350000D01*
X151650000Y-108887500D02*
X151862500Y-109100000D01*
X151650000Y-105762500D02*
X151650000Y-108887500D01*
D51*
X137170000Y-107600000D02*
X137170000Y-108920000D01*
X137170000Y-108920000D02*
X138200000Y-109950000D01*
X142400000Y-106269500D02*
X142400000Y-107360000D01*
X142400000Y-107360000D02*
X142160000Y-107600000D01*
X142160000Y-107600000D02*
X142160000Y-108335000D01*
X142160000Y-108335000D02*
X142900000Y-109075000D01*
X167400001Y-92550002D02*
X167400001Y-91625306D01*
X169130000Y-90350000D02*
X169880000Y-91100000D01*
X169880000Y-92058000D02*
X169300000Y-92638000D01*
X169880000Y-91100000D02*
X169880000Y-92058000D01*
X167400001Y-91625306D02*
X167150000Y-91375305D01*
X167624695Y-90350000D02*
X169130000Y-90350000D01*
X167150000Y-91375305D02*
X167150000Y-90824695D01*
X167150000Y-90824695D02*
X167624695Y-90350000D01*
X141900000Y-106840000D02*
X141140000Y-107600000D01*
X141900000Y-106269500D02*
X141900000Y-106840000D01*
X141140000Y-107600000D02*
X141140000Y-108335000D01*
X141140000Y-108335000D02*
X140400000Y-109075000D01*
X138225000Y-113450000D02*
X138400000Y-113625000D01*
X137825000Y-113450000D02*
X138225000Y-113450000D01*
X137525000Y-112750000D02*
X137825000Y-113050000D01*
X138400000Y-113625000D02*
X140400000Y-113625000D01*
X137825000Y-113050000D02*
X137825000Y-113450000D01*
X148237500Y-99350000D02*
X146480000Y-99350000D01*
X146480000Y-99350000D02*
X143630000Y-96500000D01*
D49*
X165269999Y-93949999D02*
X165150000Y-93830000D01*
X153920000Y-94600000D02*
X153920000Y-93570000D01*
X153650000Y-105762500D02*
X153650000Y-108330000D01*
D50*
X150850000Y-87600000D02*
X148900000Y-87600000D01*
X134650000Y-111350000D02*
X133150000Y-109850000D01*
D49*
X153920000Y-108600000D02*
X153920000Y-109630000D01*
D50*
X138312500Y-93350000D02*
X139812500Y-94850000D01*
X150850000Y-115600000D02*
X150850000Y-112700000D01*
D49*
X153650000Y-95870000D02*
X153920000Y-95600000D01*
D50*
X153450000Y-91150000D02*
X153450000Y-93100000D01*
D49*
X153650000Y-97437500D02*
X153650000Y-95870000D01*
D50*
X141400000Y-103350000D02*
X140750000Y-104000000D01*
X150850000Y-115600000D02*
X146600000Y-111350000D01*
X139812500Y-94850000D02*
X144812500Y-89850000D01*
X150850000Y-88550000D02*
X153450000Y-91150000D01*
X141400000Y-99850000D02*
X140750000Y-99200000D01*
X153750000Y-90850000D02*
X160925000Y-90850000D01*
X144812500Y-89850000D02*
X146650000Y-89850000D01*
D49*
X153920000Y-95600000D02*
X153920000Y-94600000D01*
D50*
X135075000Y-93350000D02*
X138312500Y-93350000D01*
X133150000Y-109850000D02*
X133150000Y-95275000D01*
X140750000Y-99200000D02*
X139975000Y-99200000D01*
X160925000Y-90850000D02*
X162900000Y-92825000D01*
D49*
X166500000Y-93450000D02*
X166500000Y-93949999D01*
D50*
X150850000Y-87600000D02*
X150850000Y-88550000D01*
X133150000Y-95275000D02*
X135075000Y-93350000D01*
D49*
X153650000Y-108330000D02*
X153920000Y-108600000D01*
X153920000Y-109630000D02*
X153450000Y-110100000D01*
X163905000Y-93830000D02*
X162900000Y-92825000D01*
X165150000Y-93830000D02*
X163905000Y-93830000D01*
X166500000Y-93949999D02*
X165269999Y-93949999D01*
D50*
X150850000Y-112700000D02*
X153450000Y-110100000D01*
X146600000Y-111350000D02*
X134650000Y-111350000D01*
X153450000Y-91150000D02*
X153750000Y-90850000D01*
X140750000Y-104000000D02*
X139975000Y-104000000D01*
X148900000Y-87600000D02*
X146650000Y-89850000D01*
D49*
X153920000Y-93570000D02*
X153450000Y-93100000D01*
X140130000Y-107600000D02*
X140130000Y-107539500D01*
X142400000Y-102600000D02*
X143150000Y-103350000D01*
X160620000Y-97840000D02*
X160650000Y-97870000D01*
X141400000Y-101930500D02*
X141900000Y-101930500D01*
X155150000Y-104600000D02*
X155400000Y-104350000D01*
X155825001Y-99850000D02*
X156562500Y-99850000D01*
X141647500Y-105375000D02*
X142125000Y-105375000D01*
X155400000Y-104350000D02*
X155400000Y-100275000D01*
X146079500Y-101930500D02*
X146150000Y-101860000D01*
X142125000Y-105375000D02*
X143150000Y-104350000D01*
X149650000Y-104600000D02*
X155150000Y-104600000D01*
X160930000Y-97870000D02*
X163650000Y-95150000D01*
X140130000Y-107539500D02*
X141400000Y-106269500D01*
X168399999Y-93900002D02*
X166700000Y-95600001D01*
X142400000Y-101930500D02*
X142400000Y-102600000D01*
X165120000Y-95150000D02*
X165150000Y-95120000D01*
X163680000Y-95120000D02*
X163650000Y-95150000D01*
X149577946Y-98600000D02*
X154150000Y-98600000D01*
X155400000Y-98850000D02*
X155400000Y-99424999D01*
X146150000Y-101860000D02*
X146150000Y-102850000D01*
X165150000Y-95120000D02*
X163680000Y-95120000D01*
X155400000Y-99424999D02*
X155825001Y-99850000D01*
X147225000Y-103850000D02*
X147225000Y-104074999D01*
X141400000Y-106269500D02*
X141400000Y-105622500D01*
X147500001Y-104350000D02*
X148237500Y-104350000D01*
X141400000Y-105622500D02*
X141647500Y-105375000D01*
X147225000Y-103625001D02*
X147225000Y-103850000D01*
X147225000Y-104074999D02*
X147500001Y-104350000D01*
X148070000Y-96500000D02*
X148400000Y-96830000D01*
X146170000Y-96500000D02*
X148070000Y-96500000D01*
X148400000Y-97422054D02*
X149577946Y-98600000D01*
X156562500Y-99850000D02*
X157640000Y-99850000D01*
X147500001Y-103350000D02*
X147225000Y-103625001D01*
X144900000Y-101930500D02*
X146079500Y-101930500D01*
X154150000Y-98600000D02*
X154150000Y-97437500D01*
X168399999Y-92550002D02*
X168399999Y-93900002D01*
X157640000Y-99850000D02*
X159650000Y-97840000D01*
X160650000Y-97870000D02*
X160930000Y-97870000D01*
X165150000Y-95120000D02*
X166219999Y-95120000D01*
X159650000Y-97840000D02*
X160620000Y-97840000D01*
X148150000Y-105870000D02*
X148150000Y-104437500D01*
X143150000Y-103350000D02*
X143775000Y-103975000D01*
X155400000Y-100275000D02*
X155825001Y-99850000D01*
X154150000Y-98600000D02*
X155150000Y-98600000D01*
X143150000Y-104350000D02*
X143150000Y-103350000D01*
X148400000Y-96830000D02*
X148400000Y-97422054D01*
X148237500Y-104350000D02*
X149400000Y-104350000D01*
X148150000Y-104437500D02*
X148237500Y-104350000D01*
X142400000Y-101930500D02*
X142400000Y-100830000D01*
X147100000Y-103975000D02*
X147225000Y-103850000D01*
X143775000Y-103975000D02*
X147100000Y-103975000D01*
X141900000Y-101930500D02*
X142400000Y-101930500D01*
X166219999Y-95120000D02*
X166700000Y-95600001D01*
X149400000Y-104350000D02*
X149650000Y-104600000D01*
X155150000Y-98600000D02*
X155400000Y-98850000D01*
X148237500Y-103350000D02*
X147500001Y-103350000D01*
D51*
X138524265Y-113325000D02*
X139750000Y-113325000D01*
X138275000Y-113075735D02*
X138524265Y-113325000D01*
X141050000Y-113325000D02*
X142600000Y-113325000D01*
X139750000Y-113325000D02*
X139750000Y-112750000D01*
X141050000Y-112750000D02*
X141050000Y-113325000D01*
X142600000Y-113325000D02*
X142900000Y-113625000D01*
X138275000Y-112750000D02*
X138275000Y-113075735D01*
X139750000Y-112750000D02*
X141050000Y-112750000D01*
X136050000Y-107695000D02*
X134375000Y-107695000D01*
X140549999Y-101350000D02*
X139975000Y-101350000D01*
X139359012Y-102500000D02*
X139749265Y-102500000D01*
X136275000Y-109950000D02*
X136275000Y-109199999D01*
X136050000Y-108974999D02*
X136050000Y-107695000D01*
X136275000Y-109199999D02*
X136050000Y-108974999D01*
X139899265Y-102350000D02*
X139975000Y-102350000D01*
X139749265Y-102500000D02*
X139899265Y-102350000D01*
X140750000Y-101550001D02*
X140549999Y-101350000D01*
X139975000Y-102350000D02*
X140549999Y-102350000D01*
X134375000Y-105545000D02*
X136314012Y-105545000D01*
X140750000Y-102149999D02*
X140750000Y-101550001D01*
X140549999Y-102350000D02*
X140750000Y-102149999D01*
X134375000Y-107695000D02*
X134375000Y-105545000D01*
X136314012Y-105545000D02*
X139359012Y-102500000D01*
X139200000Y-102159012D02*
X139359012Y-102000000D01*
X139200000Y-102234776D02*
X139200000Y-102159012D01*
X139825000Y-102000000D02*
X139975000Y-101850000D01*
X139975000Y-101850000D02*
X139400000Y-101849999D01*
X139359012Y-102000000D02*
X139825000Y-102000000D01*
X134075020Y-105420744D02*
X134250744Y-105245020D01*
X139200000Y-101050001D02*
X139400001Y-100850000D01*
X135750000Y-107994980D02*
X134250744Y-107994980D01*
X134250744Y-107994980D02*
X134075020Y-107819256D01*
X134250744Y-105245020D02*
X136189756Y-105245020D01*
X136189756Y-105245020D02*
X139200000Y-102234776D01*
X135525000Y-109199999D02*
X135750000Y-108974999D01*
X135525000Y-109950000D02*
X135525000Y-109199999D01*
X139200000Y-101649999D02*
X139200000Y-101050001D01*
X134075020Y-107819256D02*
X134075020Y-105420744D01*
X135750000Y-108974999D02*
X135750000Y-107994980D01*
X139400000Y-101849999D02*
X139200000Y-101649999D01*
X139400001Y-100850000D02*
X139975000Y-100850000D01*
X144900000Y-106340000D02*
X146160000Y-107600000D01*
X144900000Y-106269500D02*
X144900000Y-106340000D01*
X144400000Y-107360000D02*
X144160000Y-107600000D01*
X144160000Y-107600000D02*
X145140000Y-107600000D01*
X144400000Y-106269500D02*
X144400000Y-107360000D01*
X148237500Y-100850000D02*
X146160000Y-100850000D01*
X144400000Y-101930500D02*
X144400000Y-101286000D01*
X144846000Y-100840000D02*
X146150000Y-100840000D01*
X146160000Y-100850000D02*
X146150000Y-100840000D01*
X144400000Y-101286000D02*
X144846000Y-100840000D01*
X146425305Y-103600000D02*
X147150000Y-102875305D01*
X143900000Y-101930500D02*
X143900000Y-102575000D01*
X147150000Y-102875305D02*
X147150000Y-102200001D01*
X147150000Y-102200001D02*
X147500001Y-101850000D01*
X147500001Y-101850000D02*
X148237500Y-101850000D01*
X143900000Y-102575000D02*
X144925000Y-103600000D01*
X144925000Y-103600000D02*
X146425305Y-103600000D01*
X144483500Y-100350000D02*
X148237500Y-100350000D01*
X143400000Y-101433500D02*
X144483500Y-100350000D01*
X143400000Y-101930500D02*
X143400000Y-101433500D01*
X148237500Y-99850000D02*
X144336000Y-99850000D01*
X144336000Y-99850000D02*
X142900000Y-101286000D01*
X142900000Y-101286000D02*
X142900000Y-101930500D01*
G04 #@! TA.AperFunction,Conductor*
G36*
X141014074Y-102407637D02*
G01*
X141052223Y-102445786D01*
X141053216Y-102445124D01*
X141056548Y-102450111D01*
X141057339Y-102450902D01*
X141057921Y-102452166D01*
X141102945Y-102519548D01*
X141102948Y-102519552D01*
X141169269Y-102563867D01*
X141213731Y-102572711D01*
X141227741Y-102575498D01*
X141227746Y-102575498D01*
X141227752Y-102575500D01*
X141227753Y-102575500D01*
X141572247Y-102575500D01*
X141572248Y-102575500D01*
X141572249Y-102575499D01*
X141572256Y-102575499D01*
X141609002Y-102568189D01*
X141630686Y-102563876D01*
X141669314Y-102563876D01*
X141687211Y-102567435D01*
X141727743Y-102575499D01*
X141727750Y-102575499D01*
X141727752Y-102575500D01*
X141956308Y-102575500D01*
X142014499Y-102594407D01*
X142050463Y-102643907D01*
X142054546Y-102662245D01*
X142057672Y-102687313D01*
X142059427Y-102701393D01*
X142061527Y-102708448D01*
X142063907Y-102715380D01*
X142087322Y-102758646D01*
X142089195Y-102762285D01*
X142110801Y-102806482D01*
X142115078Y-102812472D01*
X142119581Y-102818258D01*
X142155764Y-102851567D01*
X142158717Y-102854399D01*
X142433004Y-103128686D01*
X142460781Y-103183203D01*
X142461278Y-103210623D01*
X142444355Y-103349998D01*
X142444355Y-103350001D01*
X142448249Y-103382069D01*
X142464860Y-103518872D01*
X142525182Y-103677930D01*
X142587979Y-103768906D01*
X142621816Y-103817927D01*
X142621818Y-103817930D01*
X142749149Y-103930735D01*
X142754072Y-103934133D01*
X142752872Y-103935870D01*
X142789245Y-103973129D01*
X142799500Y-104017008D01*
X142799500Y-104163810D01*
X142780593Y-104222001D01*
X142770503Y-104233814D01*
X142504687Y-104499629D01*
X142450171Y-104527406D01*
X142389739Y-104517835D01*
X142346474Y-104474570D01*
X142336406Y-104441556D01*
X142335622Y-104435102D01*
X142335140Y-104431128D01*
X142274818Y-104272070D01*
X142178183Y-104132071D01*
X142171401Y-104126063D01*
X142050853Y-104019267D01*
X142050852Y-104019266D01*
X141900225Y-103940210D01*
X141900224Y-103940209D01*
X141900223Y-103940209D01*
X141735058Y-103899500D01*
X141735056Y-103899500D01*
X141564944Y-103899500D01*
X141564941Y-103899500D01*
X141399776Y-103940209D01*
X141249146Y-104019267D01*
X141121818Y-104132069D01*
X141121816Y-104132072D01*
X141099909Y-104163810D01*
X141035763Y-104256740D01*
X140987149Y-104293888D01*
X140954290Y-104299500D01*
X140847527Y-104299500D01*
X140789336Y-104280593D01*
X140753372Y-104231093D01*
X140749562Y-104186221D01*
X140750000Y-104183215D01*
X140750000Y-104100001D01*
X140749999Y-104100000D01*
X139276328Y-104100000D01*
X139218137Y-104081093D01*
X139213845Y-104077791D01*
X139211387Y-104075791D01*
X139178184Y-104024399D01*
X139181529Y-103963305D01*
X139220145Y-103915846D01*
X139273870Y-103900000D01*
X139874999Y-103900000D01*
X139875000Y-103899999D01*
X139875000Y-103799499D01*
X139893907Y-103741308D01*
X139943407Y-103705344D01*
X139973996Y-103700499D01*
X139976001Y-103700499D01*
X140034191Y-103719406D01*
X140070155Y-103768906D01*
X140075000Y-103799499D01*
X140075000Y-103899999D01*
X140075001Y-103900000D01*
X140749998Y-103900000D01*
X140749999Y-103899999D01*
X140749999Y-103816786D01*
X140749998Y-103816783D01*
X140740087Y-103748749D01*
X140701684Y-103670195D01*
X140693113Y-103609613D01*
X140708311Y-103571711D01*
X140734512Y-103532499D01*
X140734511Y-103532499D01*
X140734515Y-103532495D01*
X140750500Y-103452133D01*
X140750499Y-103247868D01*
X140746091Y-103225708D01*
X140737637Y-103183203D01*
X140734515Y-103167505D01*
X140726159Y-103155000D01*
X140709551Y-103096114D01*
X140726159Y-103044999D01*
X140734515Y-103032495D01*
X140750500Y-102952133D01*
X140750499Y-102747868D01*
X140734515Y-102667505D01*
X140733226Y-102661024D01*
X140740418Y-102600263D01*
X140751319Y-102582052D01*
X140755949Y-102575919D01*
X140755951Y-102575919D01*
X140773093Y-102553217D01*
X140782081Y-102542887D01*
X140899127Y-102425841D01*
X140953642Y-102398066D01*
X141014074Y-102407637D01*
G37*
G04 #@! TD.AperFunction*
G04 #@! TA.AperFunction,Conductor*
G36*
X167458692Y-93219410D02*
G01*
X167494656Y-93268910D01*
X167499501Y-93299503D01*
X167499501Y-93794863D01*
X167502414Y-93819990D01*
X167514923Y-93848319D01*
X167547794Y-93922765D01*
X167627235Y-94002206D01*
X167627236Y-94002206D01*
X167627239Y-94002209D01*
X167632662Y-94005924D01*
X167669984Y-94054409D01*
X167671679Y-94115570D01*
X167646717Y-94157601D01*
X167508817Y-94295503D01*
X167454301Y-94323281D01*
X167438813Y-94324500D01*
X167384867Y-94324500D01*
X167326676Y-94305593D01*
X167290712Y-94256093D01*
X167287769Y-94206186D01*
X167299999Y-94144699D01*
X167300000Y-94144696D01*
X167300000Y-94050000D01*
X167299999Y-94049999D01*
X166499000Y-94049999D01*
X166440809Y-94031092D01*
X166404845Y-93981592D01*
X166400000Y-93950999D01*
X166400000Y-93849998D01*
X166600000Y-93849998D01*
X166600001Y-93849999D01*
X167299999Y-93849999D01*
X167300000Y-93849998D01*
X167300000Y-93755305D01*
X167299999Y-93755297D01*
X167292841Y-93719315D01*
X167292841Y-93680682D01*
X167299999Y-93644699D01*
X167300000Y-93644693D01*
X167300000Y-93550001D01*
X167299999Y-93550000D01*
X166600001Y-93550000D01*
X166600000Y-93550001D01*
X166600000Y-93849998D01*
X166400000Y-93849998D01*
X166400000Y-93449000D01*
X166418907Y-93390809D01*
X166468407Y-93354845D01*
X166499000Y-93350000D01*
X167299999Y-93350000D01*
X167300000Y-93349999D01*
X167300000Y-93299503D01*
X167318907Y-93241312D01*
X167368407Y-93205348D01*
X167399000Y-93200503D01*
X167400501Y-93200503D01*
X167458692Y-93219410D01*
G37*
G04 #@! TD.AperFunction*
G04 #@! TA.AperFunction,Conductor*
G36*
X139357653Y-81919407D02*
G01*
X139393617Y-81968907D01*
X139393617Y-82030093D01*
X139357653Y-82079593D01*
X139327354Y-82094490D01*
X139187848Y-82135453D01*
X139187843Y-82135455D01*
X139065565Y-82214038D01*
X138970372Y-82323898D01*
X138909989Y-82456116D01*
X138909987Y-82456125D01*
X138889302Y-82599997D01*
X138889302Y-82600002D01*
X138909987Y-82743874D01*
X138909989Y-82743883D01*
X138970372Y-82876101D01*
X138970373Y-82876102D01*
X138970374Y-82876104D01*
X139065564Y-82985960D01*
X139065565Y-82985961D01*
X139077458Y-82993604D01*
X139187848Y-83064547D01*
X139327320Y-83105500D01*
X139327321Y-83105500D01*
X139472679Y-83105500D01*
X139472680Y-83105500D01*
X139612152Y-83064547D01*
X139734436Y-82985960D01*
X139829626Y-82876104D01*
X139886461Y-82751654D01*
X139890010Y-82743883D01*
X139890012Y-82743874D01*
X139910698Y-82600002D01*
X139910698Y-82599997D01*
X139890012Y-82456125D01*
X139890010Y-82456116D01*
X139829627Y-82323898D01*
X139829626Y-82323897D01*
X139829626Y-82323896D01*
X139734436Y-82214040D01*
X139734435Y-82214039D01*
X139734434Y-82214038D01*
X139612156Y-82135455D01*
X139612153Y-82135454D01*
X139612152Y-82135453D01*
X139472680Y-82094500D01*
X139472646Y-82094490D01*
X139422139Y-82059954D01*
X139401578Y-82002327D01*
X139418817Y-81943620D01*
X139467270Y-81906257D01*
X139500538Y-81900500D01*
X165299462Y-81900500D01*
X165357653Y-81919407D01*
X165393617Y-81968907D01*
X165393617Y-82030093D01*
X165357653Y-82079593D01*
X165327354Y-82094490D01*
X165187848Y-82135453D01*
X165187843Y-82135455D01*
X165065565Y-82214038D01*
X164970372Y-82323898D01*
X164909989Y-82456116D01*
X164909987Y-82456125D01*
X164889302Y-82599997D01*
X164889302Y-82600002D01*
X164909987Y-82743874D01*
X164909989Y-82743883D01*
X164970372Y-82876101D01*
X164970373Y-82876102D01*
X164970374Y-82876104D01*
X165065564Y-82985960D01*
X165065565Y-82985961D01*
X165077458Y-82993604D01*
X165187848Y-83064547D01*
X165327320Y-83105500D01*
X165327321Y-83105500D01*
X165472679Y-83105500D01*
X165472680Y-83105500D01*
X165612152Y-83064547D01*
X165734436Y-82985960D01*
X165829626Y-82876104D01*
X165886461Y-82751654D01*
X165890010Y-82743883D01*
X165890012Y-82743874D01*
X165910698Y-82600002D01*
X165910698Y-82599997D01*
X165890012Y-82456125D01*
X165890010Y-82456116D01*
X165829627Y-82323898D01*
X165829626Y-82323897D01*
X165829626Y-82323896D01*
X165734436Y-82214040D01*
X165734435Y-82214039D01*
X165734434Y-82214038D01*
X165612156Y-82135455D01*
X165612153Y-82135454D01*
X165612152Y-82135453D01*
X165472680Y-82094500D01*
X165472646Y-82094490D01*
X165422139Y-82059954D01*
X165401578Y-82002327D01*
X165418817Y-81943620D01*
X165467270Y-81906257D01*
X165500538Y-81900500D01*
X167852405Y-81900500D01*
X167897721Y-81900500D01*
X167902292Y-81900605D01*
X168282906Y-81918202D01*
X168292001Y-81919044D01*
X168667139Y-81971374D01*
X168676108Y-81973051D01*
X169044788Y-82059764D01*
X169053583Y-82062266D01*
X169412690Y-82182627D01*
X169421217Y-82185930D01*
X169767695Y-82338915D01*
X169775869Y-82342985D01*
X169978979Y-82456116D01*
X170106752Y-82527285D01*
X170114527Y-82532099D01*
X170426991Y-82746143D01*
X170434288Y-82751654D01*
X170725659Y-82993604D01*
X170732417Y-82999764D01*
X171000235Y-83267582D01*
X171006395Y-83274340D01*
X171248345Y-83565711D01*
X171253856Y-83573008D01*
X171467900Y-83885472D01*
X171472714Y-83893247D01*
X171657011Y-84224124D01*
X171661087Y-84232310D01*
X171814069Y-84578782D01*
X171817372Y-84587309D01*
X171937733Y-84946416D01*
X171940235Y-84955211D01*
X172026946Y-85323881D01*
X172028627Y-85332870D01*
X172080954Y-85707993D01*
X172081797Y-85717098D01*
X172099394Y-86097707D01*
X172099500Y-86102279D01*
X172099500Y-117097720D01*
X172099394Y-117102292D01*
X172081797Y-117482901D01*
X172080954Y-117492006D01*
X172028627Y-117867129D01*
X172026946Y-117876118D01*
X171940235Y-118244788D01*
X171937733Y-118253583D01*
X171817372Y-118612690D01*
X171814069Y-118621217D01*
X171661087Y-118967689D01*
X171657011Y-118975875D01*
X171472714Y-119306752D01*
X171467900Y-119314527D01*
X171253856Y-119626991D01*
X171248345Y-119634288D01*
X171006395Y-119925659D01*
X171000235Y-119932417D01*
X170732417Y-120200235D01*
X170725659Y-120206395D01*
X170434288Y-120448345D01*
X170426991Y-120453856D01*
X170114527Y-120667900D01*
X170106752Y-120672714D01*
X169775875Y-120857011D01*
X169767689Y-120861087D01*
X169421217Y-121014069D01*
X169412690Y-121017372D01*
X169053583Y-121137733D01*
X169044788Y-121140235D01*
X168676118Y-121226946D01*
X168667129Y-121228627D01*
X168292006Y-121280954D01*
X168282901Y-121281797D01*
X167902293Y-121299394D01*
X167897721Y-121299500D01*
X165500538Y-121299500D01*
X165442347Y-121280593D01*
X165406383Y-121231093D01*
X165406383Y-121169907D01*
X165442347Y-121120407D01*
X165472646Y-121105510D01*
X165472680Y-121105500D01*
X165612152Y-121064547D01*
X165734436Y-120985960D01*
X165829626Y-120876104D01*
X165890011Y-120743880D01*
X165900243Y-120672714D01*
X165910698Y-120600002D01*
X165910698Y-120599997D01*
X165890012Y-120456125D01*
X165890010Y-120456116D01*
X165829627Y-120323898D01*
X165829626Y-120323897D01*
X165829626Y-120323896D01*
X165734436Y-120214040D01*
X165734435Y-120214039D01*
X165734434Y-120214038D01*
X165612156Y-120135455D01*
X165612153Y-120135454D01*
X165612152Y-120135453D01*
X165521364Y-120108795D01*
X165472681Y-120094500D01*
X165472680Y-120094500D01*
X165327320Y-120094500D01*
X165327318Y-120094500D01*
X165187848Y-120135453D01*
X165187843Y-120135455D01*
X165065565Y-120214038D01*
X164970372Y-120323898D01*
X164909989Y-120456116D01*
X164909987Y-120456125D01*
X164889302Y-120599997D01*
X164889302Y-120600002D01*
X164909987Y-120743874D01*
X164909989Y-120743883D01*
X164970372Y-120876101D01*
X164970373Y-120876102D01*
X164970374Y-120876104D01*
X165001583Y-120912121D01*
X165065565Y-120985961D01*
X165112178Y-121015917D01*
X165187848Y-121064547D01*
X165327320Y-121105500D01*
X165327354Y-121105510D01*
X165377861Y-121140046D01*
X165398422Y-121197673D01*
X165381183Y-121256380D01*
X165332730Y-121293743D01*
X165299462Y-121299500D01*
X139500538Y-121299500D01*
X139442347Y-121280593D01*
X139406383Y-121231093D01*
X139406383Y-121169907D01*
X139442347Y-121120407D01*
X139472646Y-121105510D01*
X139472680Y-121105500D01*
X139612152Y-121064547D01*
X139734436Y-120985960D01*
X139829626Y-120876104D01*
X139890011Y-120743880D01*
X139900243Y-120672714D01*
X139910698Y-120600002D01*
X139910698Y-120599997D01*
X139890012Y-120456125D01*
X139890010Y-120456116D01*
X139829627Y-120323898D01*
X139829626Y-120323897D01*
X139829626Y-120323896D01*
X139734436Y-120214040D01*
X139734435Y-120214039D01*
X139734434Y-120214038D01*
X139612156Y-120135455D01*
X139612153Y-120135454D01*
X139612152Y-120135453D01*
X139521364Y-120108795D01*
X139472681Y-120094500D01*
X139472680Y-120094500D01*
X139327320Y-120094500D01*
X139327318Y-120094500D01*
X139187848Y-120135453D01*
X139187843Y-120135455D01*
X139065565Y-120214038D01*
X138970372Y-120323898D01*
X138909989Y-120456116D01*
X138909987Y-120456125D01*
X138889302Y-120599997D01*
X138889302Y-120600002D01*
X138909987Y-120743874D01*
X138909989Y-120743883D01*
X138970372Y-120876101D01*
X138970373Y-120876102D01*
X138970374Y-120876104D01*
X139001583Y-120912121D01*
X139065565Y-120985961D01*
X139112178Y-121015917D01*
X139187848Y-121064547D01*
X139327320Y-121105500D01*
X139327354Y-121105510D01*
X139377861Y-121140046D01*
X139398422Y-121197673D01*
X139381183Y-121256380D01*
X139332730Y-121293743D01*
X139299462Y-121299500D01*
X136902279Y-121299500D01*
X136897707Y-121299394D01*
X136517098Y-121281797D01*
X136507993Y-121280954D01*
X136132870Y-121228627D01*
X136123881Y-121226946D01*
X135755211Y-121140235D01*
X135746416Y-121137733D01*
X135387309Y-121017372D01*
X135378782Y-121014069D01*
X135032310Y-120861087D01*
X135024124Y-120857011D01*
X134693247Y-120672714D01*
X134685472Y-120667900D01*
X134373008Y-120453856D01*
X134365711Y-120448345D01*
X134074340Y-120206395D01*
X134067582Y-120200235D01*
X133799764Y-119932417D01*
X133793604Y-119925659D01*
X133551654Y-119634288D01*
X133546143Y-119626991D01*
X133332099Y-119314527D01*
X133327285Y-119306752D01*
X133142988Y-118975875D01*
X133138912Y-118967689D01*
X133089473Y-118855721D01*
X132985930Y-118621217D01*
X132982627Y-118612690D01*
X132862266Y-118253583D01*
X132859764Y-118244788D01*
X132773051Y-117876108D01*
X132771374Y-117867139D01*
X132719044Y-117492001D01*
X132718202Y-117482901D01*
X132717522Y-117468199D01*
X132700606Y-117102292D01*
X132700553Y-117100000D01*
X133494506Y-117100000D01*
X133514468Y-117468197D01*
X133574126Y-117832087D01*
X133672768Y-118187365D01*
X133672772Y-118187376D01*
X133809255Y-118529927D01*
X133857654Y-118621217D01*
X133981978Y-118855716D01*
X134188910Y-119160917D01*
X134188914Y-119160922D01*
X134188915Y-119160923D01*
X134427622Y-119441951D01*
X134427632Y-119441961D01*
X134695326Y-119695535D01*
X134695330Y-119695538D01*
X134988881Y-119918690D01*
X135304838Y-120108795D01*
X135639497Y-120263625D01*
X135988934Y-120381364D01*
X135988939Y-120381365D01*
X135988942Y-120381366D01*
X136349047Y-120460631D01*
X136349048Y-120460631D01*
X136349052Y-120460632D01*
X136715630Y-120500500D01*
X137084370Y-120500500D01*
X137450948Y-120460632D01*
X137471424Y-120456125D01*
X137570987Y-120434209D01*
X137811057Y-120381366D01*
X137811058Y-120381366D01*
X137811060Y-120381365D01*
X137811066Y-120381364D01*
X138160503Y-120263625D01*
X138495162Y-120108795D01*
X138811119Y-119918690D01*
X139104670Y-119695538D01*
X139372373Y-119441956D01*
X139611090Y-119160917D01*
X139818022Y-118855716D01*
X139990743Y-118529930D01*
X140127227Y-118187379D01*
X140140380Y-118140008D01*
X140225873Y-117832087D01*
X140225875Y-117832081D01*
X140285531Y-117468199D01*
X140305494Y-117100000D01*
X140285531Y-116731801D01*
X140267153Y-116619700D01*
X148650000Y-116619700D01*
X148661603Y-116678036D01*
X148705806Y-116744189D01*
X148705810Y-116744193D01*
X148771963Y-116788396D01*
X148830299Y-116799999D01*
X148830303Y-116800000D01*
X150749999Y-116800000D01*
X150750000Y-116799999D01*
X150950000Y-116799999D01*
X150950001Y-116800000D01*
X152869697Y-116800000D01*
X152869700Y-116799999D01*
X152928036Y-116788396D01*
X152994189Y-116744193D01*
X152994193Y-116744189D01*
X153038396Y-116678036D01*
X153049999Y-116619700D01*
X153050000Y-116619697D01*
X153050000Y-115700001D01*
X153049999Y-115700000D01*
X150950001Y-115700000D01*
X150950000Y-115700001D01*
X150950000Y-116799999D01*
X150750000Y-116799999D01*
X150750000Y-115700001D01*
X150749999Y-115700000D01*
X148650001Y-115700000D01*
X148650000Y-115700001D01*
X148650000Y-116619700D01*
X140267153Y-116619700D01*
X140225875Y-116367919D01*
X140213414Y-116323040D01*
X140127231Y-116012634D01*
X140127229Y-116012629D01*
X140127227Y-116012621D01*
X139990743Y-115670070D01*
X139900577Y-115499999D01*
X148650000Y-115499999D01*
X148650001Y-115500000D01*
X150749999Y-115500000D01*
X150750000Y-115499999D01*
X150950000Y-115499999D01*
X150950001Y-115500000D01*
X153049999Y-115500000D01*
X153050000Y-115499999D01*
X153050000Y-114580302D01*
X153049999Y-114580299D01*
X153038396Y-114521963D01*
X152994193Y-114455810D01*
X152994189Y-114455806D01*
X152928036Y-114411603D01*
X152869700Y-114400000D01*
X150950001Y-114400000D01*
X150950000Y-114400001D01*
X150950000Y-115499999D01*
X150750000Y-115499999D01*
X150750000Y-114400001D01*
X150749999Y-114400000D01*
X148830299Y-114400000D01*
X148771963Y-114411603D01*
X148705810Y-114455806D01*
X148705806Y-114455810D01*
X148661603Y-114521963D01*
X148650000Y-114580299D01*
X148650000Y-115499999D01*
X139900577Y-115499999D01*
X139818022Y-115344284D01*
X139611090Y-115039083D01*
X139578317Y-115000500D01*
X139372377Y-114758048D01*
X139372367Y-114758038D01*
X139104673Y-114504464D01*
X138811123Y-114281313D01*
X138811122Y-114281312D01*
X138811119Y-114281310D01*
X138525281Y-114109327D01*
X138485170Y-114063128D01*
X138479874Y-114002172D01*
X138511418Y-113949745D01*
X138567754Y-113925872D01*
X138576323Y-113925500D01*
X139650500Y-113925500D01*
X139708691Y-113944407D01*
X139744655Y-113993907D01*
X139749500Y-114024500D01*
X139749500Y-114319746D01*
X139749501Y-114319758D01*
X139761132Y-114378227D01*
X139761134Y-114378233D01*
X139805445Y-114444548D01*
X139805448Y-114444552D01*
X139871769Y-114488867D01*
X139916231Y-114497711D01*
X139930241Y-114500498D01*
X139930246Y-114500498D01*
X139930252Y-114500500D01*
X139930253Y-114500500D01*
X140869747Y-114500500D01*
X140869748Y-114500500D01*
X140928231Y-114488867D01*
X140994552Y-114444552D01*
X141038867Y-114378231D01*
X141050500Y-114319748D01*
X141050500Y-113724500D01*
X141069407Y-113666309D01*
X141118907Y-113630345D01*
X141149500Y-113625500D01*
X142150500Y-113625500D01*
X142208691Y-113644407D01*
X142244655Y-113693907D01*
X142249500Y-113724500D01*
X142249500Y-114319746D01*
X142249501Y-114319758D01*
X142261132Y-114378227D01*
X142261134Y-114378233D01*
X142305445Y-114444548D01*
X142305448Y-114444552D01*
X142371769Y-114488867D01*
X142416231Y-114497711D01*
X142430241Y-114500498D01*
X142430246Y-114500498D01*
X142430252Y-114500500D01*
X142430253Y-114500500D01*
X143369747Y-114500500D01*
X143369748Y-114500500D01*
X143428231Y-114488867D01*
X143494552Y-114444552D01*
X143538867Y-114378231D01*
X143550500Y-114319748D01*
X143550500Y-112930252D01*
X143538867Y-112871769D01*
X143494552Y-112805448D01*
X143474302Y-112791917D01*
X143428233Y-112761134D01*
X143428231Y-112761133D01*
X143428228Y-112761132D01*
X143428227Y-112761132D01*
X143369758Y-112749501D01*
X143369748Y-112749500D01*
X142430252Y-112749500D01*
X142430251Y-112749500D01*
X142430241Y-112749501D01*
X142371772Y-112761132D01*
X142371766Y-112761134D01*
X142305451Y-112805445D01*
X142305445Y-112805451D01*
X142261134Y-112871766D01*
X142261132Y-112871772D01*
X142249501Y-112930241D01*
X142249024Y-112935088D01*
X142246466Y-112934836D01*
X142230593Y-112983691D01*
X142181093Y-113019655D01*
X142150500Y-113024500D01*
X141449500Y-113024500D01*
X141391309Y-113005593D01*
X141355345Y-112956093D01*
X141350500Y-112925500D01*
X141350500Y-112805726D01*
X141354279Y-112778635D01*
X141354401Y-112778207D01*
X141350922Y-112740662D01*
X141350500Y-112731528D01*
X141350500Y-112722157D01*
X141350432Y-112721793D01*
X141348776Y-112712935D01*
X141347515Y-112703903D01*
X141344035Y-112666340D01*
X141343837Y-112665943D01*
X141335140Y-112639992D01*
X141335060Y-112639564D01*
X141318843Y-112613374D01*
X141315211Y-112607510D01*
X141310765Y-112599526D01*
X141293958Y-112565771D01*
X141293956Y-112565769D01*
X141293628Y-112565470D01*
X141276154Y-112544427D01*
X141275919Y-112544048D01*
X141249478Y-112524081D01*
X141245833Y-112521328D01*
X141238798Y-112515487D01*
X141234490Y-112511560D01*
X141210933Y-112490084D01*
X141210932Y-112490083D01*
X141210930Y-112490082D01*
X141210509Y-112489919D01*
X141186622Y-112476614D01*
X141186266Y-112476345D01*
X141186261Y-112476343D01*
X141150000Y-112466025D01*
X141141331Y-112463120D01*
X141106175Y-112449500D01*
X141106173Y-112449500D01*
X141105727Y-112449500D01*
X141078636Y-112445721D01*
X141078207Y-112445599D01*
X141040661Y-112449078D01*
X141031529Y-112449500D01*
X139805727Y-112449500D01*
X139778636Y-112445721D01*
X139778207Y-112445599D01*
X139740661Y-112449078D01*
X139731529Y-112449500D01*
X139722156Y-112449500D01*
X139715164Y-112450806D01*
X139712941Y-112451222D01*
X139703896Y-112452483D01*
X139666344Y-112455964D01*
X139666334Y-112455966D01*
X139665929Y-112456169D01*
X139640012Y-112464855D01*
X139639570Y-112464937D01*
X139639569Y-112464937D01*
X139607517Y-112484783D01*
X139599533Y-112489230D01*
X139565769Y-112506043D01*
X139565465Y-112506378D01*
X139544435Y-112523840D01*
X139544053Y-112524076D01*
X139544047Y-112524081D01*
X139521321Y-112554174D01*
X139515482Y-112561205D01*
X139490086Y-112589063D01*
X139490081Y-112589070D01*
X139489918Y-112589493D01*
X139476616Y-112613374D01*
X139476348Y-112613728D01*
X139476344Y-112613736D01*
X139466024Y-112650003D01*
X139463120Y-112658668D01*
X139449500Y-112693826D01*
X139449500Y-112694272D01*
X139445722Y-112721361D01*
X139445599Y-112721790D01*
X139445599Y-112721794D01*
X139449078Y-112759337D01*
X139449500Y-112768471D01*
X139449500Y-112925500D01*
X139430593Y-112983691D01*
X139381093Y-113019655D01*
X139350500Y-113024500D01*
X138824500Y-113024500D01*
X138766309Y-113005593D01*
X138730345Y-112956093D01*
X138725500Y-112925500D01*
X138725500Y-112230253D01*
X138725498Y-112230241D01*
X138722711Y-112216231D01*
X138713867Y-112171769D01*
X138669552Y-112105448D01*
X138669548Y-112105445D01*
X138603233Y-112061134D01*
X138603231Y-112061133D01*
X138603228Y-112061132D01*
X138603227Y-112061132D01*
X138544758Y-112049501D01*
X138544748Y-112049500D01*
X138005252Y-112049500D01*
X138005251Y-112049500D01*
X138005241Y-112049501D01*
X137946769Y-112061132D01*
X137937881Y-112064814D01*
X137876884Y-112069611D01*
X137862119Y-112064814D01*
X137853230Y-112061132D01*
X137794758Y-112049501D01*
X137794748Y-112049500D01*
X137255252Y-112049500D01*
X137255251Y-112049500D01*
X137255241Y-112049501D01*
X137196772Y-112061132D01*
X137196766Y-112061134D01*
X137130451Y-112105445D01*
X137130445Y-112105451D01*
X137086134Y-112171766D01*
X137086132Y-112171772D01*
X137074501Y-112230241D01*
X137074500Y-112230253D01*
X137074500Y-113269746D01*
X137074501Y-113269758D01*
X137086132Y-113328227D01*
X137086133Y-113328231D01*
X137130448Y-113394552D01*
X137196769Y-113438867D01*
X137241231Y-113447711D01*
X137255241Y-113450498D01*
X137255246Y-113450498D01*
X137255252Y-113450500D01*
X137433009Y-113450500D01*
X137491200Y-113469407D01*
X137527164Y-113518907D01*
X137528389Y-113524855D01*
X137528455Y-113524837D01*
X137530965Y-113533661D01*
X137531167Y-113534066D01*
X137539855Y-113559987D01*
X137539937Y-113560428D01*
X137539939Y-113560434D01*
X137558942Y-113591124D01*
X137573501Y-113650552D01*
X137550347Y-113707188D01*
X137498327Y-113739398D01*
X137453503Y-113739930D01*
X137450948Y-113739368D01*
X137084370Y-113699500D01*
X136715630Y-113699500D01*
X136349046Y-113739368D01*
X135988943Y-113818633D01*
X135988941Y-113818633D01*
X135639491Y-113936377D01*
X135304846Y-114091201D01*
X135304840Y-114091204D01*
X134988881Y-114281310D01*
X134988876Y-114281313D01*
X134695326Y-114504464D01*
X134427632Y-114758038D01*
X134427622Y-114758048D01*
X134188915Y-115039076D01*
X134188908Y-115039086D01*
X133981981Y-115344278D01*
X133809255Y-115670072D01*
X133672772Y-116012623D01*
X133672768Y-116012634D01*
X133574126Y-116367912D01*
X133514468Y-116731802D01*
X133494506Y-117100000D01*
X132700553Y-117100000D01*
X132700500Y-117097720D01*
X132700500Y-113269746D01*
X135049500Y-113269746D01*
X135049501Y-113269758D01*
X135061132Y-113328227D01*
X135061133Y-113328231D01*
X135105448Y-113394552D01*
X135171769Y-113438867D01*
X135216231Y-113447711D01*
X135230241Y-113450498D01*
X135230246Y-113450498D01*
X135230252Y-113450500D01*
X135230253Y-113450500D01*
X135969747Y-113450500D01*
X135969748Y-113450500D01*
X136028231Y-113438867D01*
X136094552Y-113394552D01*
X136138867Y-113328231D01*
X136150500Y-113269748D01*
X136150500Y-112230252D01*
X136138867Y-112171769D01*
X136094552Y-112105448D01*
X136094548Y-112105445D01*
X136028233Y-112061134D01*
X136028231Y-112061133D01*
X136028228Y-112061132D01*
X136028227Y-112061132D01*
X135969758Y-112049501D01*
X135969748Y-112049500D01*
X135230252Y-112049500D01*
X135230251Y-112049500D01*
X135230241Y-112049501D01*
X135171772Y-112061132D01*
X135171766Y-112061134D01*
X135105451Y-112105445D01*
X135105445Y-112105451D01*
X135061134Y-112171766D01*
X135061132Y-112171772D01*
X135049501Y-112230241D01*
X135049500Y-112230253D01*
X135049500Y-113269746D01*
X132700500Y-113269746D01*
X132700500Y-100338926D01*
X133670641Y-100338926D01*
X133674248Y-100389355D01*
X133674500Y-100396418D01*
X133674500Y-100410799D01*
X133676547Y-100425040D01*
X133677302Y-100432062D01*
X133680908Y-100482483D01*
X133683533Y-100489520D01*
X133688764Y-100510014D01*
X133689834Y-100517454D01*
X133689835Y-100517457D01*
X133710835Y-100563441D01*
X133713539Y-100569970D01*
X133731202Y-100617327D01*
X133731203Y-100617328D01*
X133731204Y-100617331D01*
X133734918Y-100622293D01*
X133735708Y-100623348D01*
X133746501Y-100641538D01*
X133749623Y-100648373D01*
X133782736Y-100686588D01*
X133787140Y-100692052D01*
X133795779Y-100703593D01*
X133795781Y-100703595D01*
X133805962Y-100713777D01*
X133810764Y-100718934D01*
X133843872Y-100757143D01*
X133843873Y-100757144D01*
X133850183Y-100761199D01*
X133866666Y-100774480D01*
X134670498Y-101578312D01*
X134698275Y-101632829D01*
X134698772Y-101636382D01*
X134701290Y-101657118D01*
X134714860Y-101768872D01*
X134775182Y-101927930D01*
X134871816Y-102067927D01*
X134871818Y-102067930D01*
X134911222Y-102102839D01*
X134999148Y-102180734D01*
X135149775Y-102259790D01*
X135314944Y-102300500D01*
X135314947Y-102300500D01*
X135485053Y-102300500D01*
X135485056Y-102300500D01*
X135650225Y-102259790D01*
X135800852Y-102180734D01*
X135928183Y-102067929D01*
X136024818Y-101927930D01*
X136085140Y-101768872D01*
X136105645Y-101600000D01*
X136105464Y-101598512D01*
X136100317Y-101556124D01*
X136085140Y-101431128D01*
X136024818Y-101272070D01*
X135928183Y-101132071D01*
X135902993Y-101109755D01*
X135819605Y-101035880D01*
X135800852Y-101019266D01*
X135650225Y-100940210D01*
X135650224Y-100940209D01*
X135650223Y-100940209D01*
X135485058Y-100899500D01*
X135485056Y-100899500D01*
X135448322Y-100899500D01*
X135390131Y-100880593D01*
X135378318Y-100870504D01*
X134704496Y-100196682D01*
X134676719Y-100142165D01*
X134675500Y-100126678D01*
X134675500Y-97729500D01*
X134694407Y-97671309D01*
X134743907Y-97635345D01*
X134774500Y-97630500D01*
X136319747Y-97630500D01*
X136319748Y-97630500D01*
X136378231Y-97618867D01*
X136444552Y-97574552D01*
X136488867Y-97508231D01*
X136500500Y-97449748D01*
X136500500Y-95710252D01*
X136499757Y-95706519D01*
X136496492Y-95690103D01*
X136488867Y-95651769D01*
X136444552Y-95585448D01*
X136444548Y-95585445D01*
X136378233Y-95541134D01*
X136378231Y-95541133D01*
X136378228Y-95541132D01*
X136378227Y-95541132D01*
X136319758Y-95529501D01*
X136319748Y-95529500D01*
X136319747Y-95529500D01*
X135619174Y-95529500D01*
X135560983Y-95510593D01*
X135525019Y-95461093D01*
X135525019Y-95399907D01*
X135560983Y-95350407D01*
X135591281Y-95335510D01*
X135592452Y-95335165D01*
X135592457Y-95335165D01*
X135648772Y-95309446D01*
X135689897Y-95300500D01*
X135819747Y-95300500D01*
X135819748Y-95300500D01*
X135824418Y-95299570D01*
X135880685Y-95288379D01*
X135919315Y-95288379D01*
X135980241Y-95300498D01*
X135980246Y-95300498D01*
X135980252Y-95300500D01*
X135980253Y-95300500D01*
X136719747Y-95300500D01*
X136719748Y-95300500D01*
X136778231Y-95288867D01*
X136844552Y-95244552D01*
X136877998Y-95194498D01*
X136926049Y-95156619D01*
X136960313Y-95150500D01*
X137175500Y-95150500D01*
X137233691Y-95169407D01*
X137269655Y-95218907D01*
X137274500Y-95249500D01*
X137274500Y-95354274D01*
X137277353Y-95384694D01*
X137277355Y-95384703D01*
X137322207Y-95512883D01*
X137402845Y-95622144D01*
X137402847Y-95622146D01*
X137402850Y-95622150D01*
X137402853Y-95622152D01*
X137402855Y-95622154D01*
X137512116Y-95702792D01*
X137512117Y-95702792D01*
X137512118Y-95702793D01*
X137640301Y-95747646D01*
X137670725Y-95750499D01*
X137670727Y-95750500D01*
X137670734Y-95750500D01*
X138304273Y-95750500D01*
X138304273Y-95750499D01*
X138334699Y-95747646D01*
X138462882Y-95702793D01*
X138572150Y-95622150D01*
X138652793Y-95512882D01*
X138697646Y-95384699D01*
X138700499Y-95354273D01*
X138700500Y-95354273D01*
X138700500Y-95354203D01*
X139100001Y-95354203D01*
X139102850Y-95384600D01*
X139102850Y-95384602D01*
X139147654Y-95512647D01*
X139228207Y-95621790D01*
X139228209Y-95621792D01*
X139337352Y-95702345D01*
X139465398Y-95747149D01*
X139495789Y-95749999D01*
X139712498Y-95749999D01*
X139712500Y-95749998D01*
X139912500Y-95749998D01*
X139912501Y-95749999D01*
X140129203Y-95749999D01*
X140159600Y-95747149D01*
X140159602Y-95747149D01*
X140287647Y-95702345D01*
X140396790Y-95621792D01*
X140396792Y-95621790D01*
X140477345Y-95512647D01*
X140522149Y-95384601D01*
X140524999Y-95354211D01*
X140525000Y-95354210D01*
X140525000Y-94950001D01*
X140524999Y-94950000D01*
X139912501Y-94950000D01*
X139912500Y-94950001D01*
X139912500Y-95749998D01*
X139712500Y-95749998D01*
X139712500Y-94950001D01*
X139712499Y-94950000D01*
X139100002Y-94950000D01*
X139100001Y-94950001D01*
X139100001Y-95354203D01*
X138700500Y-95354203D01*
X138700500Y-94749999D01*
X139100000Y-94749999D01*
X139100001Y-94750000D01*
X139712499Y-94750000D01*
X139712500Y-94749999D01*
X139912500Y-94749999D01*
X139912501Y-94750000D01*
X140524998Y-94750000D01*
X140524999Y-94749999D01*
X140524999Y-94345796D01*
X140522149Y-94315399D01*
X140522149Y-94315397D01*
X140477345Y-94187352D01*
X140396792Y-94078209D01*
X140396790Y-94078207D01*
X140287647Y-93997654D01*
X140159601Y-93952850D01*
X140129211Y-93950000D01*
X139912501Y-93950000D01*
X139912500Y-93950001D01*
X139912500Y-94749999D01*
X139712500Y-94749999D01*
X139712500Y-93950001D01*
X139712499Y-93950000D01*
X139495796Y-93950000D01*
X139465399Y-93952850D01*
X139465397Y-93952850D01*
X139337352Y-93997654D01*
X139228209Y-94078207D01*
X139228207Y-94078209D01*
X139147654Y-94187352D01*
X139102850Y-94315398D01*
X139100000Y-94345788D01*
X139100000Y-94749999D01*
X138700500Y-94749999D01*
X138700500Y-94345727D01*
X138700499Y-94345725D01*
X138700010Y-94340511D01*
X138697646Y-94315301D01*
X138652793Y-94187118D01*
X138650434Y-94183922D01*
X138572154Y-94077855D01*
X138572152Y-94077853D01*
X138572150Y-94077850D01*
X138572146Y-94077847D01*
X138572144Y-94077845D01*
X138462883Y-93997207D01*
X138334703Y-93952355D01*
X138334694Y-93952353D01*
X138304274Y-93949500D01*
X138304266Y-93949500D01*
X137670734Y-93949500D01*
X137670725Y-93949500D01*
X137640305Y-93952353D01*
X137640296Y-93952355D01*
X137512116Y-93997207D01*
X137402855Y-94077845D01*
X137402845Y-94077855D01*
X137322207Y-94187116D01*
X137277355Y-94315296D01*
X137277353Y-94315305D01*
X137274500Y-94345725D01*
X137274500Y-94450500D01*
X137255593Y-94508691D01*
X137206093Y-94544655D01*
X137175500Y-94549500D01*
X136960313Y-94549500D01*
X136902122Y-94530593D01*
X136877998Y-94505502D01*
X136844554Y-94455451D01*
X136844552Y-94455448D01*
X136844548Y-94455445D01*
X136778233Y-94411134D01*
X136778231Y-94411133D01*
X136778228Y-94411132D01*
X136778227Y-94411132D01*
X136719758Y-94399501D01*
X136719748Y-94399500D01*
X135980252Y-94399500D01*
X135980248Y-94399500D01*
X135919314Y-94411621D01*
X135880686Y-94411621D01*
X135819751Y-94399500D01*
X135819748Y-94399500D01*
X135689897Y-94399500D01*
X135648772Y-94390553D01*
X135615443Y-94375332D01*
X135592454Y-94364833D01*
X135485804Y-94349500D01*
X135485799Y-94349500D01*
X134664760Y-94349500D01*
X134643714Y-94347237D01*
X134636378Y-94345641D01*
X134636377Y-94345641D01*
X134614064Y-94347237D01*
X134585948Y-94349248D01*
X134578885Y-94349500D01*
X134564505Y-94349500D01*
X134550264Y-94351547D01*
X134543242Y-94352302D01*
X134492821Y-94355908D01*
X134485775Y-94358536D01*
X134465289Y-94363764D01*
X134457851Y-94364834D01*
X134457848Y-94364834D01*
X134457847Y-94364835D01*
X134457846Y-94364835D01*
X134457844Y-94364836D01*
X134411870Y-94385831D01*
X134405343Y-94388535D01*
X134357975Y-94406203D01*
X134357973Y-94406203D01*
X134351950Y-94410712D01*
X134333767Y-94421500D01*
X134326930Y-94424622D01*
X134288734Y-94457719D01*
X134283240Y-94462147D01*
X134271710Y-94470779D01*
X134261539Y-94480950D01*
X134256370Y-94485762D01*
X134218164Y-94518868D01*
X134218160Y-94518872D01*
X134214097Y-94525194D01*
X134200823Y-94541665D01*
X133866665Y-94875823D01*
X133850194Y-94889097D01*
X133843872Y-94893160D01*
X133843868Y-94893164D01*
X133810762Y-94931370D01*
X133805950Y-94936539D01*
X133795779Y-94946710D01*
X133787147Y-94958240D01*
X133782719Y-94963734D01*
X133749622Y-95001930D01*
X133746500Y-95008767D01*
X133735712Y-95026950D01*
X133731203Y-95032973D01*
X133731203Y-95032975D01*
X133713535Y-95080343D01*
X133710831Y-95086870D01*
X133689836Y-95132844D01*
X133689834Y-95132851D01*
X133688764Y-95140289D01*
X133683536Y-95160775D01*
X133680908Y-95167821D01*
X133677302Y-95218242D01*
X133676547Y-95225264D01*
X133674500Y-95239504D01*
X133674500Y-95253884D01*
X133674248Y-95260947D01*
X133670641Y-95311377D01*
X133672237Y-95318712D01*
X133674500Y-95339760D01*
X133674500Y-100310542D01*
X133672238Y-100331585D01*
X133670641Y-100338926D01*
X132700500Y-100338926D01*
X132700500Y-90904203D01*
X145550001Y-90904203D01*
X145552850Y-90934600D01*
X145552850Y-90934602D01*
X145597654Y-91062647D01*
X145678207Y-91171790D01*
X145678209Y-91171792D01*
X145787352Y-91252345D01*
X145915398Y-91297149D01*
X145945789Y-91299999D01*
X146549998Y-91299999D01*
X146550000Y-91299998D01*
X146750000Y-91299998D01*
X146750001Y-91299999D01*
X147354203Y-91299999D01*
X147384600Y-91297149D01*
X147384602Y-91297149D01*
X147512647Y-91252345D01*
X147621790Y-91171792D01*
X147621792Y-91171790D01*
X147702345Y-91062647D01*
X147747149Y-90934601D01*
X147749999Y-90904211D01*
X147750000Y-90904210D01*
X147750000Y-89950001D01*
X147749999Y-89950000D01*
X146750001Y-89950000D01*
X146750000Y-89950001D01*
X146750000Y-91299998D01*
X146550000Y-91299998D01*
X146550000Y-89950001D01*
X146549999Y-89950000D01*
X145550002Y-89950000D01*
X145550001Y-89950001D01*
X145550001Y-90904203D01*
X132700500Y-90904203D01*
X132700500Y-89749999D01*
X145550000Y-89749999D01*
X145550001Y-89750000D01*
X146549999Y-89750000D01*
X146550000Y-89749999D01*
X146750000Y-89749999D01*
X146750001Y-89750000D01*
X147749998Y-89750000D01*
X147749999Y-89749999D01*
X147749999Y-88795796D01*
X147747149Y-88765399D01*
X147747149Y-88765397D01*
X147702345Y-88637352D01*
X147689317Y-88619700D01*
X148650000Y-88619700D01*
X148661603Y-88678036D01*
X148705806Y-88744189D01*
X148705810Y-88744193D01*
X148771963Y-88788396D01*
X148830299Y-88799999D01*
X148830303Y-88800000D01*
X150749999Y-88800000D01*
X150750000Y-88799999D01*
X150950000Y-88799999D01*
X150950001Y-88800000D01*
X152869697Y-88800000D01*
X152869700Y-88799999D01*
X152928036Y-88788396D01*
X152994189Y-88744193D01*
X152994193Y-88744189D01*
X153038396Y-88678036D01*
X153049999Y-88619700D01*
X153050000Y-88619697D01*
X153050000Y-87700001D01*
X153049999Y-87700000D01*
X150950001Y-87700000D01*
X150950000Y-87700001D01*
X150950000Y-88799999D01*
X150750000Y-88799999D01*
X150750000Y-87700001D01*
X150749999Y-87700000D01*
X148650001Y-87700000D01*
X148650000Y-87700001D01*
X148650000Y-88619700D01*
X147689317Y-88619700D01*
X147621792Y-88528209D01*
X147621790Y-88528207D01*
X147512647Y-88447654D01*
X147384601Y-88402850D01*
X147354211Y-88400000D01*
X146750001Y-88400000D01*
X146750000Y-88400001D01*
X146750000Y-89749999D01*
X146550000Y-89749999D01*
X146550000Y-88400001D01*
X146549999Y-88400000D01*
X145945796Y-88400000D01*
X145915399Y-88402850D01*
X145915397Y-88402850D01*
X145787352Y-88447654D01*
X145678209Y-88528207D01*
X145678207Y-88528209D01*
X145597654Y-88637352D01*
X145552850Y-88765398D01*
X145550000Y-88795788D01*
X145550000Y-89749999D01*
X132700500Y-89749999D01*
X132700500Y-86102279D01*
X132700553Y-86100000D01*
X133494506Y-86100000D01*
X133514468Y-86468197D01*
X133574126Y-86832087D01*
X133672768Y-87187365D01*
X133672772Y-87187376D01*
X133809255Y-87529927D01*
X133899423Y-87700001D01*
X133981978Y-87855716D01*
X134188910Y-88160917D01*
X134188914Y-88160922D01*
X134188915Y-88160923D01*
X134427622Y-88441951D01*
X134427632Y-88441961D01*
X134695326Y-88695535D01*
X134695330Y-88695538D01*
X134988881Y-88918690D01*
X135304838Y-89108795D01*
X135639497Y-89263625D01*
X135988934Y-89381364D01*
X135988939Y-89381365D01*
X135988942Y-89381366D01*
X136349047Y-89460631D01*
X136349048Y-89460631D01*
X136349052Y-89460632D01*
X136715630Y-89500500D01*
X137084370Y-89500500D01*
X137450948Y-89460632D01*
X137811057Y-89381366D01*
X137811058Y-89381366D01*
X137811060Y-89381365D01*
X137811066Y-89381364D01*
X138160503Y-89263625D01*
X138495162Y-89108795D01*
X138811119Y-88918690D01*
X139104670Y-88695538D01*
X139372373Y-88441956D01*
X139611090Y-88160917D01*
X139818022Y-87855716D01*
X139990743Y-87529930D01*
X140127227Y-87187379D01*
X140225875Y-86832081D01*
X140285531Y-86468199D01*
X140286835Y-86444141D01*
X140308864Y-86387060D01*
X140360238Y-86353828D01*
X140385690Y-86350500D01*
X145450500Y-86350500D01*
X145508691Y-86369407D01*
X145544655Y-86418907D01*
X145549500Y-86449500D01*
X145549500Y-86904274D01*
X145552353Y-86934694D01*
X145552355Y-86934703D01*
X145597207Y-87062883D01*
X145677845Y-87172144D01*
X145677847Y-87172146D01*
X145677850Y-87172150D01*
X145677853Y-87172152D01*
X145677855Y-87172154D01*
X145787116Y-87252792D01*
X145787117Y-87252792D01*
X145787118Y-87252793D01*
X145915301Y-87297646D01*
X145945725Y-87300499D01*
X145945727Y-87300500D01*
X145945734Y-87300500D01*
X147354273Y-87300500D01*
X147354273Y-87300499D01*
X147384699Y-87297646D01*
X147512882Y-87252793D01*
X147622150Y-87172150D01*
X147702793Y-87062882D01*
X147747646Y-86934699D01*
X147750499Y-86904273D01*
X147750500Y-86904273D01*
X147750500Y-86449500D01*
X147769407Y-86391309D01*
X147818907Y-86355345D01*
X147849500Y-86350500D01*
X148590956Y-86350500D01*
X148649147Y-86369407D01*
X148685111Y-86418907D01*
X148685111Y-86480093D01*
X148673272Y-86504501D01*
X148661603Y-86521963D01*
X148650000Y-86580299D01*
X148650000Y-87499999D01*
X148650001Y-87500000D01*
X153049999Y-87500000D01*
X153050000Y-87499999D01*
X153050000Y-86580302D01*
X153049999Y-86580299D01*
X153038396Y-86521963D01*
X153026728Y-86504501D01*
X153010120Y-86445612D01*
X153031298Y-86388209D01*
X153082172Y-86354217D01*
X153109044Y-86350500D01*
X155690356Y-86350500D01*
X155748547Y-86369407D01*
X155784511Y-86418907D01*
X155784511Y-86480093D01*
X155772673Y-86504497D01*
X155761135Y-86521766D01*
X155761133Y-86521769D01*
X155761132Y-86521772D01*
X155749501Y-86580241D01*
X155749500Y-86580253D01*
X155749500Y-88619746D01*
X155749501Y-88619758D01*
X155761094Y-88678036D01*
X155761133Y-88678231D01*
X155805448Y-88744552D01*
X155871769Y-88788867D01*
X155916231Y-88797711D01*
X155930241Y-88800498D01*
X155930246Y-88800498D01*
X155930252Y-88800500D01*
X158401678Y-88800500D01*
X158459869Y-88819407D01*
X158471682Y-88829496D01*
X159825518Y-90183332D01*
X159838796Y-90199810D01*
X159842856Y-90206127D01*
X159842857Y-90206128D01*
X159881058Y-90239229D01*
X159886217Y-90244031D01*
X159896407Y-90254221D01*
X159896478Y-90254274D01*
X159907930Y-90262847D01*
X159913432Y-90267281D01*
X159951624Y-90300375D01*
X159951625Y-90300375D01*
X159951627Y-90300377D01*
X159958454Y-90303495D01*
X159976651Y-90314291D01*
X159981131Y-90317644D01*
X159982670Y-90318797D01*
X160030029Y-90336460D01*
X160036560Y-90339165D01*
X160082543Y-90360165D01*
X160089978Y-90361233D01*
X160110484Y-90366468D01*
X160112032Y-90367045D01*
X160117517Y-90369091D01*
X160117515Y-90369091D01*
X160124962Y-90369623D01*
X160167957Y-90372698D01*
X160174953Y-90373451D01*
X160189201Y-90375500D01*
X160203581Y-90375500D01*
X160210644Y-90375752D01*
X160261073Y-90379359D01*
X160267470Y-90377967D01*
X160268410Y-90377763D01*
X160289456Y-90375500D01*
X161319641Y-90375500D01*
X161377832Y-90394407D01*
X161399291Y-90415706D01*
X161477850Y-90522150D01*
X161477853Y-90522152D01*
X161477855Y-90522154D01*
X161587116Y-90602792D01*
X161587117Y-90602792D01*
X161587118Y-90602793D01*
X161715301Y-90647646D01*
X161745725Y-90650499D01*
X161745727Y-90650500D01*
X161745734Y-90650500D01*
X162926678Y-90650500D01*
X162984869Y-90669407D01*
X162996682Y-90679496D01*
X164216967Y-91899781D01*
X164244744Y-91954298D01*
X164235173Y-92014730D01*
X164191908Y-92057995D01*
X164131476Y-92067566D01*
X164114266Y-92063230D01*
X164084601Y-92052850D01*
X164054211Y-92050000D01*
X163000001Y-92050000D01*
X163000000Y-92050001D01*
X163000000Y-93599998D01*
X163000001Y-93599999D01*
X164054203Y-93599999D01*
X164084600Y-93597149D01*
X164084602Y-93597149D01*
X164212647Y-93552345D01*
X164321790Y-93471792D01*
X164321792Y-93471790D01*
X164402345Y-93362647D01*
X164447149Y-93234601D01*
X164449999Y-93204211D01*
X164449999Y-93120387D01*
X164468906Y-93062196D01*
X164518405Y-93026232D01*
X164579591Y-93026231D01*
X164629091Y-93062194D01*
X164644043Y-93092680D01*
X164646027Y-93099487D01*
X164696774Y-93208313D01*
X164696775Y-93208314D01*
X164696776Y-93208316D01*
X164768812Y-93280352D01*
X164796588Y-93334867D01*
X164787017Y-93395299D01*
X164768811Y-93420358D01*
X164697190Y-93491978D01*
X164646521Y-93600638D01*
X164646519Y-93600645D01*
X164640000Y-93650161D01*
X164640000Y-93729999D01*
X164640001Y-93730000D01*
X165151000Y-93730000D01*
X165209191Y-93748907D01*
X165245155Y-93798407D01*
X165250000Y-93829000D01*
X165250000Y-94309999D01*
X165250001Y-94310000D01*
X165359838Y-94310000D01*
X165409354Y-94303480D01*
X165409361Y-94303478D01*
X165518021Y-94252809D01*
X165518023Y-94252808D01*
X165568702Y-94202129D01*
X165623218Y-94174351D01*
X165683650Y-94183922D01*
X165721021Y-94217130D01*
X165756046Y-94269548D01*
X165772655Y-94328436D01*
X165756046Y-94379552D01*
X165711134Y-94446766D01*
X165711132Y-94446772D01*
X165699501Y-94505241D01*
X165699500Y-94505253D01*
X165699500Y-94638952D01*
X165680593Y-94697143D01*
X165631093Y-94733107D01*
X165569907Y-94733107D01*
X165530498Y-94708957D01*
X165518317Y-94696776D01*
X165518313Y-94696774D01*
X165409489Y-94646029D01*
X165409488Y-94646028D01*
X165392958Y-94643852D01*
X165359901Y-94639500D01*
X165359899Y-94639500D01*
X164940103Y-94639500D01*
X164940092Y-94639501D01*
X164890513Y-94646027D01*
X164890511Y-94646027D01*
X164781686Y-94696774D01*
X164781683Y-94696776D01*
X164737955Y-94740504D01*
X164683438Y-94768281D01*
X164667952Y-94769500D01*
X164626864Y-94769500D01*
X164568673Y-94750593D01*
X164533420Y-94703199D01*
X164527792Y-94687115D01*
X164447154Y-94577855D01*
X164447152Y-94577853D01*
X164447150Y-94577850D01*
X164447146Y-94577847D01*
X164447144Y-94577845D01*
X164337883Y-94497207D01*
X164209703Y-94452355D01*
X164209694Y-94452353D01*
X164179274Y-94449500D01*
X164179266Y-94449500D01*
X163120734Y-94449500D01*
X163120725Y-94449500D01*
X163090305Y-94452353D01*
X163090296Y-94452355D01*
X162962116Y-94497207D01*
X162852855Y-94577845D01*
X162852845Y-94577855D01*
X162772207Y-94687116D01*
X162727355Y-94815296D01*
X162727353Y-94815305D01*
X162724500Y-94845725D01*
X162724500Y-95454274D01*
X162727353Y-95484694D01*
X162727353Y-95484696D01*
X162727353Y-95484698D01*
X162727354Y-95484699D01*
X162730724Y-95494330D01*
X162732098Y-95555498D01*
X162707284Y-95597032D01*
X160942949Y-97361367D01*
X160888432Y-97389144D01*
X160863148Y-97389476D01*
X160863133Y-97389712D01*
X160860136Y-97389515D01*
X160860029Y-97389516D01*
X160859901Y-97389500D01*
X160859898Y-97389500D01*
X160440103Y-97389500D01*
X160440092Y-97389501D01*
X160390513Y-97396027D01*
X160390511Y-97396027D01*
X160281686Y-97446774D01*
X160281684Y-97446775D01*
X160281684Y-97446776D01*
X160267954Y-97460505D01*
X160213440Y-97488281D01*
X160197953Y-97489500D01*
X160134977Y-97489500D01*
X160076786Y-97470593D01*
X160064974Y-97460504D01*
X160030404Y-97425935D01*
X160030401Y-97425933D01*
X159923175Y-97375932D01*
X159890601Y-97371644D01*
X159874316Y-97369500D01*
X159425684Y-97369500D01*
X159409398Y-97371644D01*
X159376825Y-97375932D01*
X159376824Y-97375932D01*
X159269598Y-97425933D01*
X159185933Y-97509598D01*
X159135932Y-97616824D01*
X159135932Y-97616825D01*
X159129500Y-97665685D01*
X159129500Y-97823810D01*
X159110593Y-97882001D01*
X159100504Y-97893814D01*
X158644504Y-98349814D01*
X158589987Y-98377591D01*
X158529555Y-98368020D01*
X158486290Y-98324755D01*
X158475500Y-98279810D01*
X158475500Y-96849747D01*
X158494407Y-96791556D01*
X158529555Y-96761537D01*
X158533121Y-96759719D01*
X158533126Y-96759719D01*
X158653220Y-96698528D01*
X158748528Y-96603220D01*
X158809719Y-96483126D01*
X158825500Y-96383488D01*
X158825500Y-95816512D01*
X158809719Y-95716874D01*
X158809716Y-95716869D01*
X158809716Y-95716867D01*
X158748529Y-95596782D01*
X158748528Y-95596780D01*
X158653220Y-95501472D01*
X158653217Y-95501470D01*
X158533132Y-95440283D01*
X158533127Y-95440281D01*
X158533126Y-95440281D01*
X158499913Y-95435020D01*
X158433490Y-95424500D01*
X158433488Y-95424500D01*
X157916512Y-95424500D01*
X157916510Y-95424500D01*
X157816874Y-95440281D01*
X157816867Y-95440283D01*
X157696782Y-95501470D01*
X157601470Y-95596782D01*
X157540283Y-95716867D01*
X157540281Y-95716874D01*
X157531261Y-95773827D01*
X157524500Y-95816512D01*
X157524500Y-96383488D01*
X157539445Y-96477850D01*
X157540281Y-96483125D01*
X157540283Y-96483132D01*
X157593974Y-96588505D01*
X157601472Y-96603220D01*
X157696780Y-96698528D01*
X157816874Y-96759719D01*
X157816878Y-96759719D01*
X157820445Y-96761537D01*
X157863709Y-96804802D01*
X157874500Y-96849747D01*
X157874500Y-98309520D01*
X157855593Y-98367711D01*
X157845503Y-98379524D01*
X157599056Y-98625970D01*
X157544540Y-98653747D01*
X157484108Y-98644176D01*
X157446738Y-98610968D01*
X157423626Y-98576379D01*
X157423624Y-98576376D01*
X157366640Y-98538300D01*
X157328762Y-98490249D01*
X157326360Y-98429111D01*
X157355993Y-98381883D01*
X157428183Y-98317929D01*
X157524818Y-98177930D01*
X157585140Y-98018872D01*
X157605645Y-97850000D01*
X157585140Y-97681128D01*
X157524818Y-97522070D01*
X157428183Y-97382071D01*
X157425276Y-97379496D01*
X157300853Y-97269267D01*
X157300852Y-97269266D01*
X157150225Y-97190210D01*
X157150224Y-97190209D01*
X157150223Y-97190209D01*
X156985058Y-97149500D01*
X156985056Y-97149500D01*
X156814944Y-97149500D01*
X156814941Y-97149500D01*
X156649776Y-97190209D01*
X156499146Y-97269267D01*
X156371818Y-97382069D01*
X156371816Y-97382072D01*
X156324172Y-97451096D01*
X156275182Y-97522070D01*
X156214860Y-97681128D01*
X156212229Y-97702793D01*
X156194355Y-97849998D01*
X156194355Y-97850001D01*
X156214859Y-98018869D01*
X156214859Y-98018871D01*
X156214860Y-98018872D01*
X156220526Y-98033812D01*
X156223482Y-98094924D01*
X156221595Y-98101060D01*
X156212000Y-98129010D01*
X156210793Y-98136243D01*
X156209883Y-98143547D01*
X156211915Y-98192675D01*
X156212000Y-98196766D01*
X156212000Y-98400500D01*
X156193093Y-98458691D01*
X156143593Y-98494655D01*
X156113000Y-98499500D01*
X155872870Y-98499500D01*
X155872863Y-98499501D01*
X155792505Y-98515484D01*
X155792504Y-98515485D01*
X155721382Y-98563007D01*
X155662494Y-98579615D01*
X155605090Y-98558437D01*
X155596377Y-98550695D01*
X155449304Y-98403622D01*
X155421527Y-98349105D01*
X155431098Y-98288673D01*
X155436993Y-98278616D01*
X155484513Y-98207498D01*
X155484513Y-98207497D01*
X155484515Y-98207495D01*
X155500500Y-98127133D01*
X155500499Y-97552977D01*
X155519406Y-97494787D01*
X155529488Y-97482981D01*
X156219015Y-96793455D01*
X156273531Y-96765679D01*
X156304504Y-96765679D01*
X156324494Y-96768845D01*
X156366510Y-96775500D01*
X156366512Y-96775500D01*
X156883490Y-96775500D01*
X156904885Y-96772111D01*
X156983126Y-96759719D01*
X157103220Y-96698528D01*
X157198528Y-96603220D01*
X157259719Y-96483126D01*
X157275500Y-96383488D01*
X157275500Y-95816512D01*
X157259719Y-95716874D01*
X157259716Y-95716869D01*
X157259716Y-95716867D01*
X157198529Y-95596782D01*
X157198528Y-95596780D01*
X157103220Y-95501472D01*
X157103217Y-95501470D01*
X156983132Y-95440283D01*
X156983127Y-95440281D01*
X156983126Y-95440281D01*
X156949913Y-95435020D01*
X156883490Y-95424500D01*
X156883488Y-95424500D01*
X156366512Y-95424500D01*
X156366510Y-95424500D01*
X156266874Y-95440281D01*
X156266867Y-95440283D01*
X156146782Y-95501470D01*
X156051470Y-95596782D01*
X155990283Y-95716867D01*
X155990281Y-95716874D01*
X155974500Y-95816510D01*
X155974500Y-96147021D01*
X155955593Y-96205212D01*
X155945503Y-96217025D01*
X155574022Y-96588505D01*
X155519506Y-96616282D01*
X155459074Y-96606711D01*
X155431543Y-96582245D01*
X155430518Y-96583271D01*
X155423626Y-96576379D01*
X155423624Y-96576376D01*
X155414022Y-96569960D01*
X155332497Y-96515486D01*
X155332496Y-96515485D01*
X155332495Y-96515485D01*
X155252133Y-96499500D01*
X155252132Y-96499500D01*
X155049500Y-96499500D01*
X154991309Y-96480593D01*
X154955345Y-96431093D01*
X154950500Y-96400500D01*
X154950500Y-96209499D01*
X154969407Y-96151308D01*
X155018907Y-96115344D01*
X155049500Y-96110499D01*
X155059897Y-96110499D01*
X155059900Y-96110499D01*
X155109487Y-96103972D01*
X155109488Y-96103972D01*
X155169846Y-96075826D01*
X155218316Y-96053224D01*
X155303224Y-95968316D01*
X155353972Y-95859487D01*
X155360500Y-95809901D01*
X155360499Y-95390100D01*
X155353972Y-95340513D01*
X155353972Y-95340511D01*
X155303225Y-95231686D01*
X155303224Y-95231685D01*
X155303224Y-95231684D01*
X155241541Y-95170001D01*
X155213766Y-95115487D01*
X155223337Y-95055055D01*
X155241540Y-95029999D01*
X155303224Y-94968316D01*
X155353972Y-94859487D01*
X155360500Y-94809901D01*
X155360499Y-94390100D01*
X155353972Y-94340513D01*
X155353972Y-94340511D01*
X155303225Y-94231686D01*
X155303223Y-94231683D01*
X155266044Y-94194503D01*
X155238267Y-94139986D01*
X155247839Y-94079554D01*
X155291104Y-94036290D01*
X155336048Y-94025500D01*
X155654273Y-94025500D01*
X155654273Y-94025499D01*
X155684699Y-94022646D01*
X155721302Y-94009838D01*
X164640000Y-94009838D01*
X164646519Y-94059354D01*
X164646521Y-94059361D01*
X164697190Y-94168021D01*
X164781978Y-94252809D01*
X164890638Y-94303478D01*
X164890645Y-94303480D01*
X164940161Y-94310000D01*
X165049999Y-94310000D01*
X165050000Y-94309999D01*
X165050000Y-93930001D01*
X165049999Y-93930000D01*
X164640001Y-93930000D01*
X164640000Y-93930001D01*
X164640000Y-94009838D01*
X155721302Y-94009838D01*
X155812882Y-93977793D01*
X155922150Y-93897150D01*
X155997641Y-93794863D01*
X156002791Y-93787885D01*
X156002791Y-93787884D01*
X156002793Y-93787882D01*
X156041003Y-93678681D01*
X156078068Y-93630003D01*
X156136668Y-93612406D01*
X156194420Y-93632614D01*
X156200096Y-93637278D01*
X156249148Y-93680734D01*
X156399775Y-93759790D01*
X156564944Y-93800500D01*
X156564947Y-93800500D01*
X156735053Y-93800500D01*
X156735056Y-93800500D01*
X156900225Y-93759790D01*
X157050852Y-93680734D01*
X157178183Y-93567929D01*
X157274818Y-93427930D01*
X157335140Y-93268872D01*
X157342992Y-93204203D01*
X161350001Y-93204203D01*
X161352850Y-93234600D01*
X161352850Y-93234602D01*
X161397654Y-93362647D01*
X161478207Y-93471790D01*
X161478209Y-93471792D01*
X161587352Y-93552345D01*
X161715398Y-93597149D01*
X161745789Y-93599999D01*
X162799998Y-93599999D01*
X162800000Y-93599998D01*
X162800000Y-92925001D01*
X162799999Y-92925000D01*
X161350002Y-92925000D01*
X161350001Y-92925001D01*
X161350001Y-93204203D01*
X157342992Y-93204203D01*
X157355645Y-93100000D01*
X157335140Y-92931128D01*
X157274818Y-92772070D01*
X157242327Y-92724999D01*
X161350000Y-92724999D01*
X161350001Y-92725000D01*
X162799999Y-92725000D01*
X162800000Y-92724999D01*
X162800000Y-92050001D01*
X162799999Y-92050000D01*
X161745796Y-92050000D01*
X161715399Y-92052850D01*
X161715397Y-92052850D01*
X161587352Y-92097654D01*
X161478209Y-92178207D01*
X161478207Y-92178209D01*
X161397654Y-92287352D01*
X161352850Y-92415398D01*
X161350000Y-92445788D01*
X161350000Y-92724999D01*
X157242327Y-92724999D01*
X157178183Y-92632071D01*
X157164125Y-92619617D01*
X157067645Y-92534143D01*
X157050852Y-92519266D01*
X156900225Y-92440210D01*
X156900224Y-92440209D01*
X156900223Y-92440209D01*
X156735058Y-92399500D01*
X156735056Y-92399500D01*
X156564944Y-92399500D01*
X156564941Y-92399500D01*
X156399776Y-92440209D01*
X156249143Y-92519268D01*
X156200095Y-92562721D01*
X156144001Y-92587156D01*
X156084257Y-92573952D01*
X156043684Y-92528154D01*
X156041003Y-92521316D01*
X156014577Y-92445796D01*
X156002793Y-92412118D01*
X156001755Y-92410712D01*
X155922154Y-92302855D01*
X155922152Y-92302853D01*
X155922150Y-92302850D01*
X155922146Y-92302847D01*
X155922144Y-92302845D01*
X155812883Y-92222207D01*
X155684703Y-92177355D01*
X155684694Y-92177353D01*
X155654274Y-92174500D01*
X155654266Y-92174500D01*
X155045734Y-92174500D01*
X155045725Y-92174500D01*
X155015305Y-92177353D01*
X155015296Y-92177355D01*
X154887116Y-92222207D01*
X154777855Y-92302845D01*
X154777845Y-92302855D01*
X154697207Y-92412116D01*
X154652355Y-92540296D01*
X154652353Y-92540305D01*
X154649500Y-92570725D01*
X154649500Y-93261510D01*
X154630593Y-93319701D01*
X154628625Y-93322317D01*
X154620549Y-93332693D01*
X154612437Y-93341880D01*
X154611627Y-93342689D01*
X154611619Y-93342698D01*
X154600133Y-93358786D01*
X154597690Y-93362063D01*
X154567482Y-93400874D01*
X154563981Y-93407343D01*
X154560759Y-93413934D01*
X154546718Y-93461096D01*
X154545470Y-93464990D01*
X154529500Y-93511510D01*
X154528293Y-93518743D01*
X154527383Y-93526047D01*
X154529415Y-93575175D01*
X154529500Y-93579266D01*
X154529500Y-94117952D01*
X154510593Y-94176143D01*
X154500502Y-94187957D01*
X154469647Y-94218811D01*
X154415130Y-94246587D01*
X154354699Y-94237015D01*
X154329641Y-94218810D01*
X154258021Y-94147190D01*
X154149361Y-94096521D01*
X154149354Y-94096519D01*
X154099839Y-94090000D01*
X154060862Y-94090000D01*
X154002671Y-94071093D01*
X153966707Y-94021593D01*
X153966707Y-93960407D01*
X154002073Y-93911345D01*
X154021790Y-93896792D01*
X154021792Y-93896790D01*
X154102345Y-93787647D01*
X154147149Y-93659601D01*
X154149999Y-93629211D01*
X154150000Y-93629210D01*
X154150000Y-93200001D01*
X154149999Y-93200000D01*
X153550001Y-93200000D01*
X153550000Y-93200001D01*
X153550000Y-94024998D01*
X153557081Y-94032079D01*
X153584858Y-94086596D01*
X153575287Y-94147028D01*
X153557081Y-94172086D01*
X153497192Y-94231975D01*
X153497190Y-94231978D01*
X153446521Y-94340638D01*
X153446519Y-94340645D01*
X153440000Y-94390161D01*
X153440000Y-94499999D01*
X153440001Y-94500000D01*
X153921000Y-94500000D01*
X153979191Y-94518907D01*
X154015155Y-94568407D01*
X154020000Y-94599000D01*
X154020000Y-96109999D01*
X154020001Y-96110000D01*
X154099838Y-96110000D01*
X154149354Y-96103480D01*
X154149358Y-96103479D01*
X154208660Y-96075826D01*
X154269389Y-96068369D01*
X154322903Y-96098031D01*
X154348762Y-96153484D01*
X154349500Y-96165550D01*
X154349500Y-96400500D01*
X154330593Y-96458691D01*
X154281093Y-96494655D01*
X154250500Y-96499500D01*
X154047870Y-96499500D01*
X154047862Y-96499501D01*
X153967505Y-96515484D01*
X153967500Y-96515486D01*
X153954550Y-96524140D01*
X153895662Y-96540748D01*
X153844548Y-96524139D01*
X153832301Y-96515956D01*
X153752088Y-96500000D01*
X153750001Y-96500000D01*
X153750000Y-96500001D01*
X153750000Y-97438500D01*
X153731093Y-97496691D01*
X153681593Y-97532655D01*
X153651000Y-97537500D01*
X153649000Y-97537500D01*
X153590809Y-97518593D01*
X153554845Y-97469093D01*
X153550000Y-97438500D01*
X153550000Y-96500001D01*
X153549999Y-96500000D01*
X153547908Y-96500000D01*
X153467699Y-96515954D01*
X153467698Y-96515955D01*
X153455447Y-96524141D01*
X153396559Y-96540748D01*
X153345448Y-96524140D01*
X153332495Y-96515485D01*
X153252133Y-96499500D01*
X153252132Y-96499500D01*
X153234273Y-96499500D01*
X153176082Y-96480593D01*
X153140118Y-96431093D01*
X153140118Y-96369907D01*
X153168625Y-96326397D01*
X153178177Y-96317934D01*
X153178183Y-96317929D01*
X153274818Y-96177930D01*
X153335140Y-96018872D01*
X153335141Y-96018860D01*
X153335229Y-96018508D01*
X153335353Y-96018306D01*
X153337263Y-96013273D01*
X153338248Y-96013646D01*
X153367509Y-95966530D01*
X153424176Y-95943454D01*
X153483584Y-95958092D01*
X153501358Y-95972189D01*
X153581978Y-96052809D01*
X153690638Y-96103478D01*
X153690645Y-96103480D01*
X153740161Y-96110000D01*
X153819999Y-96110000D01*
X153820000Y-96109999D01*
X153820000Y-94700001D01*
X153819999Y-94700000D01*
X153440001Y-94700000D01*
X153440000Y-94700001D01*
X153440000Y-94809838D01*
X153446519Y-94859354D01*
X153446521Y-94859361D01*
X153497190Y-94968021D01*
X153559165Y-95029996D01*
X153586942Y-95084513D01*
X153577371Y-95144945D01*
X153559165Y-95170004D01*
X153497190Y-95231978D01*
X153446521Y-95340638D01*
X153446519Y-95340645D01*
X153440000Y-95390161D01*
X153440000Y-95443675D01*
X153421093Y-95501866D01*
X153371593Y-95537830D01*
X153310407Y-95537830D01*
X153260907Y-95501866D01*
X153259525Y-95499914D01*
X153217111Y-95438468D01*
X153178183Y-95382071D01*
X153146805Y-95354273D01*
X153050853Y-95269267D01*
X153050852Y-95269266D01*
X152900225Y-95190210D01*
X152900224Y-95190209D01*
X152900223Y-95190209D01*
X152735058Y-95149500D01*
X152735056Y-95149500D01*
X152617720Y-95149500D01*
X152559529Y-95130593D01*
X152523565Y-95081093D01*
X152523565Y-95019907D01*
X152538065Y-94991712D01*
X152555334Y-94968313D01*
X152577793Y-94937882D01*
X152622646Y-94809699D01*
X152625499Y-94779273D01*
X152625500Y-94779273D01*
X152625500Y-93855243D01*
X152644407Y-93797052D01*
X152693907Y-93761088D01*
X152755093Y-93761088D01*
X152804155Y-93796454D01*
X152878207Y-93896790D01*
X152878209Y-93896792D01*
X152987352Y-93977345D01*
X153115398Y-94022149D01*
X153145789Y-94024999D01*
X153349998Y-94024999D01*
X153350000Y-94024998D01*
X153350000Y-93200001D01*
X153349999Y-93200000D01*
X152750002Y-93200000D01*
X152747398Y-93202603D01*
X152731094Y-93252784D01*
X152681594Y-93288748D01*
X152620408Y-93288748D01*
X152571346Y-93253381D01*
X152497154Y-93152855D01*
X152497152Y-93152853D01*
X152497150Y-93152850D01*
X152497146Y-93152847D01*
X152497144Y-93152845D01*
X152387883Y-93072207D01*
X152259703Y-93027355D01*
X152259694Y-93027353D01*
X152229274Y-93024500D01*
X152229266Y-93024500D01*
X151495734Y-93024500D01*
X151495725Y-93024500D01*
X151465305Y-93027353D01*
X151465296Y-93027355D01*
X151337116Y-93072207D01*
X151227855Y-93152845D01*
X151227845Y-93152855D01*
X151147207Y-93262116D01*
X151102355Y-93390296D01*
X151102353Y-93390305D01*
X151099500Y-93420725D01*
X151099500Y-94779274D01*
X151102353Y-94809694D01*
X151102355Y-94809703D01*
X151147207Y-94937883D01*
X151227847Y-95047148D01*
X151259287Y-95070351D01*
X151294880Y-95120118D01*
X151299500Y-95150007D01*
X151299500Y-95269579D01*
X151280593Y-95327770D01*
X151231093Y-95363734D01*
X151169907Y-95363734D01*
X151134851Y-95343682D01*
X151050853Y-95269267D01*
X151050852Y-95269266D01*
X150900225Y-95190210D01*
X150900224Y-95190209D01*
X150900223Y-95190209D01*
X150735058Y-95149500D01*
X150735056Y-95149500D01*
X150564944Y-95149500D01*
X150564941Y-95149500D01*
X150399776Y-95190209D01*
X150249146Y-95269267D01*
X150121818Y-95382069D01*
X150121816Y-95382072D01*
X150044331Y-95494328D01*
X150025182Y-95522070D01*
X149964860Y-95681128D01*
X149962229Y-95702793D01*
X149944355Y-95849998D01*
X149944355Y-95850001D01*
X149948583Y-95884817D01*
X149964860Y-96018872D01*
X150025182Y-96177930D01*
X150121817Y-96317929D01*
X150121819Y-96317931D01*
X150121822Y-96317934D01*
X150131375Y-96326397D01*
X150162394Y-96379136D01*
X150156490Y-96440036D01*
X150115917Y-96485835D01*
X150065731Y-96499500D01*
X150047872Y-96499500D01*
X150047862Y-96499501D01*
X149967505Y-96515484D01*
X149967501Y-96515486D01*
X149954999Y-96523840D01*
X149896111Y-96540447D01*
X149845001Y-96523840D01*
X149832496Y-96515485D01*
X149832495Y-96515484D01*
X149752135Y-96499500D01*
X149566190Y-96499500D01*
X149507999Y-96480593D01*
X149496186Y-96470504D01*
X148939495Y-95913813D01*
X148911718Y-95859296D01*
X148910499Y-95843809D01*
X148910499Y-95690103D01*
X148910498Y-95690092D01*
X148903972Y-95640513D01*
X148903972Y-95640511D01*
X148853225Y-95531686D01*
X148853224Y-95531685D01*
X148853224Y-95531684D01*
X148779494Y-95457954D01*
X148751719Y-95403440D01*
X148750500Y-95387953D01*
X148750500Y-95274500D01*
X148769407Y-95216309D01*
X148818907Y-95180345D01*
X148849500Y-95175500D01*
X149304273Y-95175500D01*
X149304273Y-95175499D01*
X149334699Y-95172646D01*
X149462882Y-95127793D01*
X149572150Y-95047150D01*
X149652793Y-94937882D01*
X149697646Y-94809699D01*
X149700499Y-94779273D01*
X149700500Y-94779273D01*
X149700500Y-93420727D01*
X149700499Y-93420725D01*
X149699311Y-93408053D01*
X149697646Y-93390301D01*
X149652793Y-93262118D01*
X149652344Y-93261510D01*
X149572154Y-93152855D01*
X149572152Y-93152853D01*
X149572150Y-93152850D01*
X149572146Y-93152847D01*
X149572144Y-93152845D01*
X149462883Y-93072207D01*
X149391448Y-93047211D01*
X149342768Y-93010146D01*
X149339721Y-92999999D01*
X152750000Y-92999999D01*
X152750001Y-93000000D01*
X153349999Y-93000000D01*
X153350000Y-92999999D01*
X153550000Y-92999999D01*
X153550001Y-93000000D01*
X154149998Y-93000000D01*
X154149999Y-92999999D01*
X154149999Y-92570796D01*
X154147149Y-92540399D01*
X154147149Y-92540397D01*
X154102345Y-92412352D01*
X154021792Y-92303209D01*
X154021790Y-92303207D01*
X153912647Y-92222654D01*
X153784601Y-92177850D01*
X153754211Y-92175000D01*
X153550001Y-92175000D01*
X153550000Y-92175001D01*
X153550000Y-92999999D01*
X153350000Y-92999999D01*
X153350000Y-92175001D01*
X153349999Y-92175000D01*
X153145796Y-92175000D01*
X153115399Y-92177850D01*
X153115397Y-92177850D01*
X152987352Y-92222654D01*
X152878209Y-92303207D01*
X152878207Y-92303209D01*
X152797654Y-92412352D01*
X152752850Y-92540398D01*
X152750000Y-92570788D01*
X152750000Y-92999999D01*
X149339721Y-92999999D01*
X149325171Y-92951546D01*
X149345379Y-92893794D01*
X149358490Y-92879670D01*
X149428183Y-92817929D01*
X149524818Y-92677930D01*
X149585140Y-92518872D01*
X149604928Y-92355908D01*
X149605645Y-92350001D01*
X149605645Y-92349998D01*
X149598038Y-92287352D01*
X149585140Y-92181128D01*
X149524818Y-92022070D01*
X149428183Y-91882071D01*
X149425855Y-91880009D01*
X149300853Y-91769267D01*
X149300852Y-91769266D01*
X149150225Y-91690210D01*
X149150224Y-91690209D01*
X149150223Y-91690209D01*
X148985058Y-91649500D01*
X148985056Y-91649500D01*
X148814944Y-91649500D01*
X148814941Y-91649500D01*
X148649776Y-91690209D01*
X148499146Y-91769267D01*
X148371818Y-91882069D01*
X148371816Y-91882072D01*
X148321167Y-91955449D01*
X148275182Y-92022070D01*
X148214860Y-92181128D01*
X148212568Y-92200001D01*
X148194355Y-92349998D01*
X148194355Y-92350002D01*
X148200983Y-92404593D01*
X148189227Y-92464638D01*
X148144423Y-92506306D01*
X148083684Y-92513680D01*
X148037874Y-92491344D01*
X148031447Y-92485775D01*
X148026277Y-92480962D01*
X148016095Y-92470781D01*
X148016094Y-92470780D01*
X148016093Y-92470779D01*
X148004552Y-92462140D01*
X147999088Y-92457736D01*
X147960873Y-92424623D01*
X147954038Y-92421501D01*
X147935848Y-92410708D01*
X147934793Y-92409918D01*
X147929831Y-92406204D01*
X147929828Y-92406203D01*
X147929827Y-92406202D01*
X147882470Y-92388539D01*
X147875941Y-92385835D01*
X147829957Y-92364835D01*
X147829954Y-92364834D01*
X147822514Y-92363764D01*
X147802020Y-92358533D01*
X147794982Y-92355908D01*
X147794983Y-92355908D01*
X147744562Y-92352302D01*
X147737540Y-92351547D01*
X147723299Y-92349500D01*
X147708919Y-92349500D01*
X147701856Y-92349248D01*
X147697955Y-92348969D01*
X147651427Y-92345641D01*
X147651426Y-92345641D01*
X147651425Y-92345641D01*
X147644090Y-92347237D01*
X147623044Y-92349500D01*
X145044456Y-92349500D01*
X145023410Y-92347237D01*
X145016074Y-92345641D01*
X145016073Y-92345641D01*
X144993760Y-92347237D01*
X144965644Y-92349248D01*
X144958581Y-92349500D01*
X144944201Y-92349500D01*
X144929960Y-92351547D01*
X144922938Y-92352302D01*
X144872517Y-92355908D01*
X144865471Y-92358536D01*
X144844985Y-92363764D01*
X144837547Y-92364834D01*
X144837544Y-92364834D01*
X144837543Y-92364835D01*
X144837542Y-92364835D01*
X144837540Y-92364836D01*
X144791566Y-92385831D01*
X144785039Y-92388535D01*
X144737671Y-92406203D01*
X144737669Y-92406203D01*
X144731646Y-92410712D01*
X144713463Y-92421500D01*
X144706628Y-92424621D01*
X144682191Y-92445796D01*
X144668434Y-92457717D01*
X144668422Y-92457727D01*
X144662927Y-92462155D01*
X144651404Y-92470781D01*
X144641239Y-92480946D01*
X144636075Y-92485754D01*
X144597854Y-92518874D01*
X144593792Y-92525195D01*
X144580516Y-92541669D01*
X143801682Y-93320504D01*
X143747165Y-93348281D01*
X143731678Y-93349500D01*
X142710252Y-93349500D01*
X142710251Y-93349500D01*
X142710241Y-93349501D01*
X142651772Y-93361132D01*
X142651766Y-93361134D01*
X142585451Y-93405445D01*
X142585445Y-93405451D01*
X142541134Y-93471766D01*
X142541132Y-93471772D01*
X142529501Y-93530241D01*
X142529500Y-93530253D01*
X142529500Y-94869746D01*
X142529501Y-94869758D01*
X142541132Y-94928227D01*
X142541134Y-94928233D01*
X142567720Y-94968021D01*
X142585448Y-94994552D01*
X142651769Y-95038867D01*
X142693431Y-95047154D01*
X142710241Y-95050498D01*
X142710246Y-95050498D01*
X142710252Y-95050500D01*
X142710253Y-95050500D01*
X144549747Y-95050500D01*
X144549748Y-95050500D01*
X144608231Y-95038867D01*
X144674552Y-94994552D01*
X144718867Y-94928231D01*
X144730500Y-94869748D01*
X144730500Y-93848319D01*
X144749407Y-93790128D01*
X144759484Y-93778328D01*
X144900499Y-93637313D01*
X144955013Y-93609538D01*
X145015445Y-93619109D01*
X145058710Y-93662374D01*
X145069500Y-93707319D01*
X145069500Y-94869746D01*
X145069501Y-94869758D01*
X145081132Y-94928227D01*
X145081134Y-94928233D01*
X145107720Y-94968021D01*
X145125448Y-94994552D01*
X145191769Y-95038867D01*
X145233431Y-95047154D01*
X145250241Y-95050498D01*
X145250246Y-95050498D01*
X145250252Y-95050500D01*
X145250253Y-95050500D01*
X147089747Y-95050500D01*
X147089748Y-95050500D01*
X147148231Y-95038867D01*
X147214552Y-94994552D01*
X147258867Y-94928231D01*
X147270500Y-94869748D01*
X147270500Y-93530252D01*
X147258867Y-93471769D01*
X147258866Y-93471768D01*
X147258279Y-93468815D01*
X147265471Y-93408053D01*
X147307003Y-93363123D01*
X147355377Y-93350500D01*
X147439178Y-93350500D01*
X147497369Y-93369407D01*
X147509182Y-93379496D01*
X148145504Y-94015818D01*
X148173281Y-94070335D01*
X148174500Y-94085822D01*
X148174500Y-94322586D01*
X148155593Y-94380777D01*
X148153625Y-94383393D01*
X148140549Y-94400193D01*
X148132437Y-94409380D01*
X148131627Y-94410189D01*
X148131619Y-94410198D01*
X148120133Y-94426286D01*
X148117690Y-94429563D01*
X148087482Y-94468374D01*
X148083981Y-94474843D01*
X148080759Y-94481434D01*
X148066718Y-94528596D01*
X148065470Y-94532490D01*
X148049500Y-94579010D01*
X148048293Y-94586243D01*
X148047383Y-94593547D01*
X148049415Y-94642675D01*
X148049500Y-94646766D01*
X148049500Y-95387953D01*
X148030593Y-95446144D01*
X148020509Y-95457950D01*
X147978546Y-95499914D01*
X147946774Y-95531686D01*
X147896029Y-95640510D01*
X147896028Y-95640511D01*
X147893313Y-95661133D01*
X147889653Y-95688941D01*
X147889500Y-95690100D01*
X147889501Y-96050500D01*
X147870594Y-96108691D01*
X147821094Y-96144655D01*
X147790501Y-96149500D01*
X147369500Y-96149500D01*
X147311309Y-96130593D01*
X147275345Y-96081093D01*
X147270500Y-96050500D01*
X147270500Y-95830253D01*
X147270498Y-95830241D01*
X147266452Y-95809901D01*
X147258867Y-95771769D01*
X147214552Y-95705448D01*
X147210579Y-95702793D01*
X147148233Y-95661134D01*
X147148231Y-95661133D01*
X147148228Y-95661132D01*
X147148227Y-95661132D01*
X147089758Y-95649501D01*
X147089748Y-95649500D01*
X145250252Y-95649500D01*
X145250251Y-95649500D01*
X145250241Y-95649501D01*
X145191772Y-95661132D01*
X145191766Y-95661134D01*
X145125451Y-95705445D01*
X145125445Y-95705451D01*
X145081134Y-95771766D01*
X145081132Y-95771772D01*
X145069501Y-95830241D01*
X145069500Y-95830253D01*
X145069500Y-97169746D01*
X145069501Y-97169758D01*
X145081132Y-97228227D01*
X145081134Y-97228233D01*
X145122628Y-97290332D01*
X145123986Y-97295147D01*
X145129666Y-97297370D01*
X145191769Y-97338867D01*
X145236231Y-97347711D01*
X145250241Y-97350498D01*
X145250246Y-97350498D01*
X145250252Y-97350500D01*
X145250253Y-97350500D01*
X147089747Y-97350500D01*
X147089748Y-97350500D01*
X147148231Y-97338867D01*
X147214552Y-97294552D01*
X147258867Y-97228231D01*
X147270500Y-97169748D01*
X147270500Y-96949500D01*
X147289407Y-96891309D01*
X147338907Y-96855345D01*
X147369500Y-96850500D01*
X147790501Y-96850500D01*
X147848692Y-96869407D01*
X147884656Y-96918907D01*
X147889501Y-96949500D01*
X147889501Y-97009907D01*
X147896027Y-97059486D01*
X147896027Y-97059488D01*
X147946774Y-97168313D01*
X147946775Y-97168314D01*
X147946776Y-97168316D01*
X148020505Y-97242045D01*
X148048281Y-97296560D01*
X148049500Y-97312047D01*
X148049500Y-97375435D01*
X148047393Y-97395750D01*
X148044957Y-97407369D01*
X148047271Y-97425933D01*
X148048740Y-97437716D01*
X148049500Y-97449961D01*
X148049500Y-97451096D01*
X148052751Y-97470582D01*
X148053337Y-97474601D01*
X148057996Y-97511971D01*
X148059427Y-97523447D01*
X148061527Y-97530502D01*
X148063907Y-97537434D01*
X148063908Y-97537435D01*
X148086553Y-97579280D01*
X148087322Y-97580700D01*
X148089195Y-97584339D01*
X148110801Y-97628536D01*
X148115078Y-97634526D01*
X148119581Y-97640312D01*
X148155764Y-97673621D01*
X148158717Y-97676453D01*
X148812760Y-98330496D01*
X148840537Y-98385013D01*
X148830966Y-98445445D01*
X148787701Y-98488710D01*
X148742756Y-98499500D01*
X147547870Y-98499500D01*
X147547863Y-98499501D01*
X147467505Y-98515484D01*
X147467503Y-98515485D01*
X147376379Y-98576373D01*
X147376373Y-98576379D01*
X147315486Y-98667501D01*
X147315486Y-98667503D01*
X147315485Y-98667505D01*
X147310969Y-98690209D01*
X147299500Y-98747867D01*
X147299501Y-98950500D01*
X147280594Y-99008690D01*
X147231094Y-99044654D01*
X147200501Y-99049500D01*
X146645479Y-99049500D01*
X146587288Y-99030593D01*
X146575475Y-99020504D01*
X145004661Y-97449690D01*
X144995313Y-97431343D01*
X144970309Y-97415338D01*
X144759496Y-97204525D01*
X144731719Y-97150008D01*
X144730500Y-97134521D01*
X144730500Y-95830253D01*
X144730498Y-95830241D01*
X144726452Y-95809901D01*
X144718867Y-95771769D01*
X144674552Y-95705448D01*
X144670579Y-95702793D01*
X144608233Y-95661134D01*
X144608231Y-95661133D01*
X144608228Y-95661132D01*
X144608227Y-95661132D01*
X144549758Y-95649501D01*
X144549748Y-95649500D01*
X142710252Y-95649500D01*
X142710251Y-95649500D01*
X142710241Y-95649501D01*
X142651772Y-95661132D01*
X142651766Y-95661134D01*
X142585451Y-95705445D01*
X142585445Y-95705451D01*
X142541134Y-95771766D01*
X142541132Y-95771772D01*
X142529501Y-95830241D01*
X142529500Y-95830253D01*
X142529500Y-97169746D01*
X142529501Y-97169758D01*
X142541132Y-97228227D01*
X142541134Y-97228233D01*
X142582628Y-97290332D01*
X142585448Y-97294552D01*
X142651769Y-97338867D01*
X142696231Y-97347711D01*
X142710241Y-97350498D01*
X142710246Y-97350498D01*
X142710252Y-97350500D01*
X144014521Y-97350500D01*
X144072712Y-97369407D01*
X144084525Y-97379496D01*
X146085524Y-99380496D01*
X146113301Y-99435013D01*
X146103730Y-99495445D01*
X146060465Y-99538710D01*
X146015520Y-99549500D01*
X144401165Y-99549500D01*
X144387489Y-99547267D01*
X144387318Y-99548494D01*
X144378234Y-99547226D01*
X144331359Y-99549394D01*
X144326787Y-99549500D01*
X144308152Y-99549500D01*
X144308029Y-99549523D01*
X144294419Y-99551101D01*
X144266011Y-99552414D01*
X144266007Y-99552415D01*
X144257013Y-99556386D01*
X144235228Y-99563132D01*
X144225571Y-99564937D01*
X144225565Y-99564939D01*
X144201381Y-99579913D01*
X144189259Y-99586302D01*
X144163238Y-99597792D01*
X144163231Y-99597796D01*
X144156286Y-99604742D01*
X144138406Y-99618905D01*
X144130048Y-99624080D01*
X144112907Y-99646778D01*
X144103909Y-99657118D01*
X143075770Y-100685257D01*
X143021253Y-100713034D01*
X142960821Y-100703463D01*
X142917556Y-100660198D01*
X142907613Y-100628172D01*
X142903972Y-100600513D01*
X142903972Y-100600511D01*
X142853225Y-100491686D01*
X142853224Y-100491685D01*
X142853224Y-100491684D01*
X142781541Y-100420001D01*
X142753766Y-100365487D01*
X142763337Y-100305055D01*
X142781540Y-100279999D01*
X142853224Y-100208316D01*
X142903972Y-100099487D01*
X142910500Y-100049901D01*
X142910499Y-99690100D01*
X142905879Y-99655002D01*
X142902984Y-99633003D01*
X142903142Y-99632982D01*
X142900500Y-99614467D01*
X142900500Y-99414456D01*
X142902763Y-99393408D01*
X142904359Y-99386073D01*
X142900752Y-99335643D01*
X142900500Y-99328580D01*
X142900500Y-99314201D01*
X142898451Y-99299953D01*
X142897698Y-99292957D01*
X142894091Y-99242517D01*
X142891474Y-99235500D01*
X142891468Y-99235484D01*
X142886233Y-99214975D01*
X142885406Y-99209221D01*
X142885165Y-99207543D01*
X142873101Y-99181128D01*
X142864165Y-99161560D01*
X142861460Y-99155029D01*
X142843797Y-99107670D01*
X142842644Y-99106131D01*
X142839291Y-99101651D01*
X142828495Y-99083454D01*
X142825377Y-99076627D01*
X142825375Y-99076625D01*
X142825375Y-99076624D01*
X142792281Y-99038432D01*
X142787847Y-99032930D01*
X142779223Y-99021410D01*
X142779221Y-99021407D01*
X142769031Y-99011217D01*
X142764229Y-99006058D01*
X142731128Y-98967857D01*
X142731127Y-98967856D01*
X142724810Y-98963796D01*
X142708332Y-98950518D01*
X142379500Y-98621686D01*
X142351723Y-98567169D01*
X142351232Y-98563661D01*
X142335140Y-98431128D01*
X142274818Y-98272070D01*
X142178183Y-98132071D01*
X142050852Y-98019266D01*
X141900225Y-97940210D01*
X141900224Y-97940209D01*
X141900223Y-97940209D01*
X141735058Y-97899500D01*
X141735056Y-97899500D01*
X141564944Y-97899500D01*
X141564941Y-97899500D01*
X141558280Y-97901142D01*
X141527526Y-97903766D01*
X141507062Y-97902302D01*
X141500040Y-97901547D01*
X141485799Y-97899500D01*
X141471419Y-97899500D01*
X141464356Y-97899248D01*
X141460455Y-97898969D01*
X141413927Y-97895641D01*
X141413926Y-97895641D01*
X141413925Y-97895641D01*
X141406590Y-97897237D01*
X141385544Y-97899500D01*
X140526834Y-97899500D01*
X140468643Y-97880593D01*
X140432679Y-97831093D01*
X140432679Y-97769907D01*
X140452807Y-97735962D01*
X140452648Y-97735844D01*
X140453779Y-97734324D01*
X140454825Y-97732561D01*
X140456091Y-97731219D01*
X140456092Y-97731218D01*
X140543812Y-97579281D01*
X140594130Y-97411210D01*
X140600760Y-97297371D01*
X140604331Y-97236068D01*
X140604331Y-97236065D01*
X140573866Y-97063292D01*
X140572225Y-97059487D01*
X140504377Y-96902196D01*
X140399610Y-96761470D01*
X140399608Y-96761468D01*
X140265216Y-96648699D01*
X140264530Y-96648354D01*
X140108433Y-96569960D01*
X140108429Y-96569959D01*
X140108423Y-96569956D01*
X139937723Y-96529500D01*
X139937721Y-96529500D01*
X138906291Y-96529500D01*
X138775745Y-96544759D01*
X138775742Y-96544759D01*
X138775741Y-96544760D01*
X138610883Y-96604762D01*
X138464306Y-96701168D01*
X138464303Y-96701170D01*
X138343909Y-96828780D01*
X138343908Y-96828780D01*
X138256188Y-96980719D01*
X138205870Y-97148786D01*
X138205869Y-97148793D01*
X138195668Y-97323931D01*
X138226133Y-97496707D01*
X138295622Y-97657802D01*
X138295623Y-97657804D01*
X138400389Y-97798529D01*
X138400391Y-97798531D01*
X138534783Y-97911300D01*
X138534784Y-97911300D01*
X138534786Y-97911302D01*
X138691567Y-97990040D01*
X138751104Y-98004150D01*
X138803366Y-98035968D01*
X138826945Y-98092427D01*
X138812835Y-98151963D01*
X138766425Y-98191835D01*
X138741756Y-98198560D01*
X138736888Y-98199229D01*
X138604389Y-98256781D01*
X138492334Y-98347945D01*
X138409029Y-98465962D01*
X138360653Y-98602078D01*
X138350796Y-98746199D01*
X138380184Y-98887628D01*
X138380186Y-98887636D01*
X138445546Y-99013773D01*
X138446646Y-99015895D01*
X138545245Y-99121469D01*
X138668672Y-99196526D01*
X138807772Y-99235500D01*
X138807773Y-99235500D01*
X138915943Y-99235500D01*
X138915949Y-99235500D01*
X139023111Y-99220771D01*
X139061558Y-99204070D01*
X139122464Y-99198228D01*
X139171886Y-99227365D01*
X139171886Y-99170407D01*
X139203574Y-99124196D01*
X139206033Y-99122196D01*
X139263107Y-99100147D01*
X139268500Y-99100000D01*
X139874999Y-99100000D01*
X139875000Y-99099999D01*
X139875000Y-98999500D01*
X139893907Y-98941309D01*
X139943407Y-98905345D01*
X139974000Y-98900500D01*
X139976000Y-98900500D01*
X140034191Y-98919407D01*
X140070155Y-98968907D01*
X140075000Y-98999500D01*
X140075000Y-99099999D01*
X140075001Y-99100000D01*
X140749998Y-99100000D01*
X140749999Y-99099999D01*
X140749999Y-99016786D01*
X140749998Y-99016785D01*
X140749560Y-99013773D01*
X140759881Y-98953464D01*
X140803679Y-98910740D01*
X140847526Y-98900500D01*
X140954290Y-98900500D01*
X141012481Y-98919407D01*
X141035762Y-98943258D01*
X141121817Y-99067929D01*
X141249148Y-99180734D01*
X141399775Y-99259790D01*
X141564944Y-99300500D01*
X141601678Y-99300500D01*
X141659869Y-99319407D01*
X141671682Y-99329496D01*
X141870504Y-99528318D01*
X141898281Y-99582835D01*
X141899500Y-99598322D01*
X141899500Y-99614467D01*
X141896857Y-99632983D01*
X141897017Y-99633005D01*
X141896028Y-99640511D01*
X141896028Y-99640513D01*
X141891554Y-99674500D01*
X141889500Y-99690100D01*
X141889500Y-100049895D01*
X141889501Y-100049907D01*
X141896027Y-100099486D01*
X141896027Y-100099488D01*
X141946774Y-100208313D01*
X141946775Y-100208314D01*
X141946776Y-100208316D01*
X142018458Y-100279998D01*
X142046234Y-100334513D01*
X142036663Y-100394945D01*
X142018459Y-100420000D01*
X141955977Y-100482483D01*
X141946774Y-100491686D01*
X141896029Y-100600510D01*
X141896028Y-100600511D01*
X141896028Y-100600513D01*
X141889938Y-100646776D01*
X141889500Y-100650100D01*
X141889500Y-101009895D01*
X141889501Y-101009907D01*
X141896027Y-101059486D01*
X141935745Y-101144660D01*
X141943202Y-101205390D01*
X141913539Y-101258904D01*
X141858087Y-101284762D01*
X141846021Y-101285500D01*
X141727746Y-101285500D01*
X141669313Y-101297123D01*
X141630687Y-101297123D01*
X141572253Y-101285500D01*
X141572248Y-101285500D01*
X141227752Y-101285500D01*
X141227751Y-101285500D01*
X141227741Y-101285501D01*
X141169272Y-101297132D01*
X141169266Y-101297134D01*
X141094841Y-101346865D01*
X141093032Y-101344158D01*
X141053188Y-101364449D01*
X140992758Y-101354863D01*
X140978063Y-101345668D01*
X140953222Y-101326909D01*
X140942879Y-101317909D01*
X140808564Y-101183594D01*
X140800478Y-101172344D01*
X140799486Y-101173094D01*
X140793958Y-101165774D01*
X140793957Y-101165772D01*
X140790389Y-101162519D01*
X140762103Y-101136732D01*
X140731837Y-101083557D01*
X140735725Y-101042677D01*
X140732612Y-101042058D01*
X140734513Y-101032496D01*
X140734515Y-101032495D01*
X140750500Y-100952133D01*
X140750499Y-100747868D01*
X140734515Y-100667505D01*
X140726159Y-100655000D01*
X140709551Y-100596114D01*
X140726159Y-100544999D01*
X140734515Y-100532495D01*
X140750500Y-100452133D01*
X140750499Y-100247868D01*
X140734515Y-100167505D01*
X140726159Y-100154999D01*
X140709551Y-100096114D01*
X140726159Y-100044999D01*
X140734515Y-100032495D01*
X140750500Y-99952133D01*
X140750499Y-99747868D01*
X140739007Y-99690092D01*
X140734515Y-99667505D01*
X140734514Y-99667503D01*
X140708310Y-99628287D01*
X140691701Y-99569399D01*
X140701684Y-99529805D01*
X140740087Y-99451248D01*
X140750000Y-99383215D01*
X140750000Y-99300001D01*
X140749999Y-99300000D01*
X139266041Y-99300000D01*
X139207850Y-99281093D01*
X139182530Y-99246243D01*
X139199549Y-99285421D01*
X139200001Y-99294874D01*
X139200001Y-99383216D01*
X139209912Y-99451250D01*
X139248315Y-99529803D01*
X139256886Y-99590385D01*
X139241690Y-99628284D01*
X139215487Y-99667499D01*
X139215485Y-99667503D01*
X139215485Y-99667505D01*
X139210991Y-99690099D01*
X139199500Y-99747867D01*
X139199500Y-99952129D01*
X139199501Y-99952137D01*
X139215484Y-100032494D01*
X139215486Y-100032498D01*
X139223840Y-100045001D01*
X139240447Y-100103889D01*
X139223840Y-100154999D01*
X139215485Y-100167503D01*
X139215484Y-100167504D01*
X139199500Y-100247864D01*
X139199500Y-100452129D01*
X139199501Y-100452139D01*
X139216773Y-100538976D01*
X139209580Y-100599737D01*
X139198678Y-100617950D01*
X139176909Y-100646776D01*
X139167910Y-100657118D01*
X139033590Y-100791438D01*
X139022361Y-100799551D01*
X139023090Y-100800516D01*
X139015771Y-100806042D01*
X138984141Y-100840738D01*
X138980989Y-100844039D01*
X138967830Y-100857199D01*
X138967818Y-100857213D01*
X138967749Y-100857315D01*
X138959255Y-100868036D01*
X138940083Y-100889067D01*
X138940083Y-100889068D01*
X138936529Y-100898241D01*
X138925896Y-100918413D01*
X138920346Y-100926516D01*
X138920341Y-100926525D01*
X138913830Y-100954207D01*
X138909777Y-100967297D01*
X138899501Y-100993824D01*
X138899500Y-100993830D01*
X138899500Y-101003652D01*
X138896870Y-101026319D01*
X138895418Y-101032495D01*
X138894621Y-101035882D01*
X138897914Y-101059486D01*
X138898551Y-101064054D01*
X138899500Y-101077731D01*
X138899500Y-101584834D01*
X138897280Y-101598512D01*
X138898494Y-101598682D01*
X138897226Y-101607765D01*
X138899394Y-101654640D01*
X138899500Y-101659212D01*
X138899500Y-101677843D01*
X138899522Y-101677965D01*
X138901101Y-101691576D01*
X138902414Y-101719986D01*
X138902415Y-101719993D01*
X138906384Y-101728981D01*
X138913132Y-101750771D01*
X138914939Y-101760432D01*
X138920409Y-101769266D01*
X138929912Y-101784616D01*
X138936301Y-101796737D01*
X138947794Y-101822764D01*
X138954745Y-101829715D01*
X138968911Y-101847601D01*
X138973022Y-101854241D01*
X138987578Y-101913670D01*
X138968485Y-101961140D01*
X138970403Y-101962454D01*
X138967749Y-101966326D01*
X138959255Y-101977047D01*
X138940083Y-101998078D01*
X138940083Y-101998079D01*
X138936529Y-102007252D01*
X138925896Y-102027424D01*
X138920346Y-102035527D01*
X138920341Y-102035536D01*
X138913830Y-102063218D01*
X138909777Y-102076308D01*
X138902324Y-102095548D01*
X138880012Y-102129792D01*
X136094281Y-104915524D01*
X136039764Y-104943301D01*
X136024277Y-104944520D01*
X134315908Y-104944520D01*
X134302232Y-104942287D01*
X134302061Y-104943514D01*
X134292977Y-104942246D01*
X134246102Y-104944414D01*
X134241530Y-104944520D01*
X134222896Y-104944520D01*
X134222773Y-104944543D01*
X134209163Y-104946121D01*
X134180754Y-104947434D01*
X134180750Y-104947435D01*
X134171759Y-104951405D01*
X134149971Y-104958152D01*
X134140314Y-104959957D01*
X134140308Y-104959960D01*
X134116125Y-104974932D01*
X134104006Y-104981320D01*
X134077981Y-104992812D01*
X134077977Y-104992815D01*
X134071028Y-104999764D01*
X134053153Y-105013923D01*
X134044792Y-105019100D01*
X134027651Y-105041798D01*
X134018653Y-105052138D01*
X133908610Y-105162181D01*
X133897381Y-105170294D01*
X133898110Y-105171259D01*
X133890791Y-105176785D01*
X133859161Y-105211481D01*
X133856009Y-105214782D01*
X133842850Y-105227942D01*
X133842838Y-105227956D01*
X133842769Y-105228058D01*
X133834275Y-105238779D01*
X133815103Y-105259810D01*
X133815103Y-105259811D01*
X133811549Y-105268984D01*
X133800916Y-105289156D01*
X133795366Y-105297259D01*
X133795361Y-105297268D01*
X133788850Y-105324950D01*
X133784797Y-105338040D01*
X133774521Y-105364567D01*
X133774520Y-105364573D01*
X133774520Y-105374395D01*
X133771890Y-105397062D01*
X133769641Y-105406625D01*
X133772915Y-105430093D01*
X133773571Y-105434797D01*
X133774520Y-105448474D01*
X133774520Y-107754091D01*
X133772300Y-107767769D01*
X133773514Y-107767939D01*
X133772246Y-107777022D01*
X133774414Y-107823897D01*
X133774520Y-107828469D01*
X133774520Y-107847100D01*
X133774542Y-107847222D01*
X133776121Y-107860833D01*
X133777434Y-107889243D01*
X133777435Y-107889250D01*
X133781404Y-107898238D01*
X133788152Y-107920028D01*
X133789959Y-107929689D01*
X133794188Y-107936519D01*
X133804932Y-107953873D01*
X133811321Y-107965994D01*
X133812347Y-107968317D01*
X133822814Y-107992021D01*
X133829765Y-107998972D01*
X133843927Y-108016852D01*
X133849101Y-108025208D01*
X133871801Y-108042350D01*
X133882137Y-108051344D01*
X133992180Y-108161387D01*
X134000281Y-108172627D01*
X134001260Y-108171889D01*
X134006788Y-108179210D01*
X134041468Y-108210825D01*
X134044776Y-108213983D01*
X134057947Y-108227154D01*
X134058039Y-108227217D01*
X134068786Y-108235730D01*
X134089808Y-108254894D01*
X134089809Y-108254894D01*
X134089811Y-108254896D01*
X134098974Y-108258446D01*
X134119160Y-108269085D01*
X134127263Y-108274636D01*
X134154959Y-108281150D01*
X134168037Y-108285200D01*
X134194571Y-108295480D01*
X134204396Y-108295480D01*
X134227060Y-108298109D01*
X134236625Y-108300359D01*
X134261702Y-108296860D01*
X134264798Y-108296429D01*
X134278475Y-108295480D01*
X135350500Y-108295480D01*
X135408691Y-108314387D01*
X135444655Y-108363887D01*
X135449500Y-108394480D01*
X135449500Y-108809520D01*
X135430593Y-108867711D01*
X135420503Y-108879524D01*
X135358591Y-108941435D01*
X135347361Y-108949549D01*
X135348090Y-108950514D01*
X135340771Y-108956040D01*
X135309141Y-108990736D01*
X135305989Y-108994037D01*
X135292830Y-109007197D01*
X135292818Y-109007211D01*
X135292749Y-109007313D01*
X135284255Y-109018034D01*
X135265083Y-109039065D01*
X135265083Y-109039066D01*
X135261529Y-109048239D01*
X135250896Y-109068411D01*
X135245346Y-109076514D01*
X135245341Y-109076523D01*
X135238830Y-109104205D01*
X135234777Y-109117295D01*
X135224501Y-109143822D01*
X135224500Y-109143828D01*
X135224500Y-109153650D01*
X135221870Y-109176317D01*
X135219620Y-109185881D01*
X135219197Y-109195042D01*
X135215926Y-109194890D01*
X135207993Y-109239528D01*
X135175649Y-109275244D01*
X135130450Y-109305446D01*
X135130445Y-109305451D01*
X135086134Y-109371766D01*
X135086132Y-109371772D01*
X135074501Y-109430241D01*
X135074500Y-109430253D01*
X135074500Y-110469746D01*
X135074501Y-110469758D01*
X135086132Y-110528227D01*
X135086133Y-110528231D01*
X135130448Y-110594552D01*
X135196769Y-110638867D01*
X135241231Y-110647711D01*
X135255241Y-110650498D01*
X135255246Y-110650498D01*
X135255252Y-110650500D01*
X135255253Y-110650500D01*
X135794747Y-110650500D01*
X135794748Y-110650500D01*
X135853231Y-110638867D01*
X135853236Y-110638863D01*
X135862113Y-110635187D01*
X135923110Y-110630386D01*
X135937887Y-110635187D01*
X135946765Y-110638864D01*
X135946769Y-110638867D01*
X136005252Y-110650500D01*
X136005253Y-110650500D01*
X136544747Y-110650500D01*
X136544748Y-110650500D01*
X136603231Y-110638867D01*
X136669552Y-110594552D01*
X136713867Y-110528231D01*
X136725500Y-110469748D01*
X136725500Y-109430252D01*
X136713867Y-109371769D01*
X136669552Y-109305448D01*
X136669548Y-109305445D01*
X136619498Y-109272002D01*
X136581619Y-109223951D01*
X136575500Y-109189687D01*
X136575500Y-109172159D01*
X136575500Y-109172155D01*
X136575478Y-109172041D01*
X136573898Y-109158429D01*
X136572585Y-109130007D01*
X136568615Y-109121016D01*
X136561864Y-109099214D01*
X136560061Y-109089567D01*
X136560061Y-109089566D01*
X136545085Y-109065378D01*
X136538698Y-109053261D01*
X136527206Y-109027234D01*
X136527205Y-109027232D01*
X136520256Y-109020283D01*
X136506090Y-109002398D01*
X136500919Y-108994047D01*
X136478221Y-108976906D01*
X136467879Y-108967907D01*
X136379496Y-108879524D01*
X136351719Y-108825007D01*
X136350500Y-108809520D01*
X136350500Y-107750726D01*
X136354279Y-107723635D01*
X136354401Y-107723207D01*
X136354400Y-107723200D01*
X136354830Y-107718570D01*
X136379024Y-107662371D01*
X136398406Y-107645386D01*
X136444552Y-107614552D01*
X136488867Y-107548231D01*
X136493403Y-107525425D01*
X136523299Y-107472044D01*
X136578864Y-107446428D01*
X136638874Y-107458365D01*
X136680406Y-107503295D01*
X136689500Y-107544742D01*
X136689500Y-107809896D01*
X136689501Y-107809907D01*
X136696027Y-107859486D01*
X136696027Y-107859488D01*
X136746774Y-107968313D01*
X136746775Y-107968314D01*
X136746776Y-107968316D01*
X136831684Y-108053224D01*
X136831685Y-108053224D01*
X136837809Y-108059348D01*
X136835762Y-108061394D01*
X136864106Y-108099006D01*
X136869500Y-108131239D01*
X136869500Y-108854835D01*
X136867280Y-108868513D01*
X136868494Y-108868683D01*
X136867226Y-108877766D01*
X136869394Y-108924641D01*
X136869500Y-108929213D01*
X136869500Y-108947844D01*
X136869522Y-108947966D01*
X136871101Y-108961577D01*
X136872414Y-108989987D01*
X136872415Y-108989994D01*
X136876384Y-108998982D01*
X136883132Y-109020772D01*
X136884939Y-109030433D01*
X136890284Y-109039066D01*
X136899912Y-109054617D01*
X136906301Y-109066738D01*
X136917794Y-109092765D01*
X136924745Y-109099716D01*
X136938907Y-109117596D01*
X136944081Y-109125952D01*
X136966781Y-109143094D01*
X136977117Y-109152088D01*
X137620504Y-109795475D01*
X137648281Y-109849992D01*
X137649500Y-109865479D01*
X137649500Y-110469746D01*
X137649501Y-110469758D01*
X137661132Y-110528227D01*
X137661133Y-110528231D01*
X137705448Y-110594552D01*
X137771769Y-110638867D01*
X137816231Y-110647711D01*
X137830241Y-110650498D01*
X137830246Y-110650498D01*
X137830252Y-110650500D01*
X137830253Y-110650500D01*
X138569747Y-110650500D01*
X138569748Y-110650500D01*
X138628231Y-110638867D01*
X138694552Y-110594552D01*
X138738867Y-110528231D01*
X138750500Y-110469748D01*
X138750500Y-109430252D01*
X138738867Y-109371769D01*
X138694552Y-109305448D01*
X138694548Y-109305445D01*
X138628233Y-109261134D01*
X138628231Y-109261133D01*
X138628228Y-109261132D01*
X138628227Y-109261132D01*
X138569758Y-109249501D01*
X138569748Y-109249500D01*
X138569747Y-109249500D01*
X137965479Y-109249500D01*
X137907288Y-109230593D01*
X137895475Y-109220504D01*
X137499496Y-108824525D01*
X137471719Y-108770008D01*
X137470500Y-108754521D01*
X137470500Y-108131239D01*
X137489407Y-108073048D01*
X137502764Y-108059921D01*
X137502191Y-108059348D01*
X137508314Y-108053224D01*
X137508316Y-108053224D01*
X137579998Y-107981541D01*
X137634513Y-107953766D01*
X137694945Y-107963337D01*
X137720000Y-107981540D01*
X137791684Y-108053224D01*
X137900513Y-108103972D01*
X137950099Y-108110500D01*
X138309900Y-108110499D01*
X138359487Y-108103972D01*
X138359488Y-108103972D01*
X138432539Y-108069907D01*
X138468316Y-108053224D01*
X138542045Y-107979494D01*
X138596560Y-107951719D01*
X138612047Y-107950500D01*
X138687953Y-107950500D01*
X138746144Y-107969407D01*
X138757950Y-107979490D01*
X138831684Y-108053224D01*
X138940513Y-108103972D01*
X138990099Y-108110500D01*
X139349900Y-108110499D01*
X139399487Y-108103972D01*
X139399488Y-108103972D01*
X139472539Y-108069907D01*
X139508316Y-108053224D01*
X139579998Y-107981541D01*
X139634513Y-107953766D01*
X139694945Y-107963337D01*
X139720000Y-107981540D01*
X139791684Y-108053224D01*
X139818645Y-108065796D01*
X139863392Y-108107524D01*
X139875067Y-108167585D01*
X139849209Y-108223038D01*
X139831807Y-108237835D01*
X139805451Y-108255445D01*
X139805445Y-108255451D01*
X139761134Y-108321766D01*
X139761132Y-108321772D01*
X139749501Y-108380241D01*
X139749500Y-108380253D01*
X139749500Y-109769746D01*
X139749501Y-109769758D01*
X139761132Y-109828227D01*
X139761134Y-109828233D01*
X139797700Y-109882957D01*
X139805448Y-109894552D01*
X139871769Y-109938867D01*
X139910741Y-109946619D01*
X139930241Y-109950498D01*
X139930246Y-109950498D01*
X139930252Y-109950500D01*
X139930253Y-109950500D01*
X140869747Y-109950500D01*
X140869748Y-109950500D01*
X140928231Y-109938867D01*
X140994552Y-109894552D01*
X141038867Y-109828231D01*
X141050500Y-109769748D01*
X141050500Y-108890477D01*
X141069407Y-108832286D01*
X141079490Y-108820480D01*
X141306403Y-108593566D01*
X141317664Y-108585493D01*
X141316905Y-108584487D01*
X141324221Y-108578961D01*
X141324228Y-108578958D01*
X141355877Y-108544239D01*
X141358995Y-108540974D01*
X141372174Y-108527797D01*
X141372238Y-108527702D01*
X141380753Y-108516953D01*
X141396208Y-108500000D01*
X141399916Y-108495933D01*
X141403465Y-108486770D01*
X141414106Y-108466582D01*
X141419656Y-108458481D01*
X141426169Y-108430785D01*
X141430220Y-108417706D01*
X141440500Y-108391173D01*
X141440500Y-108381348D01*
X141443129Y-108358683D01*
X141445379Y-108349119D01*
X141441564Y-108321769D01*
X141441449Y-108320944D01*
X141440500Y-108307268D01*
X141440500Y-108134976D01*
X141459407Y-108076785D01*
X141469496Y-108064972D01*
X141470402Y-108064065D01*
X141470404Y-108064065D01*
X141554065Y-107980404D01*
X141560275Y-107967085D01*
X141602003Y-107922337D01*
X141662064Y-107910662D01*
X141717517Y-107936519D01*
X141739724Y-107967084D01*
X141745935Y-107980404D01*
X141829596Y-108064065D01*
X141829597Y-108064065D01*
X141830504Y-108064972D01*
X141858281Y-108119489D01*
X141859500Y-108134976D01*
X141859500Y-108269835D01*
X141857280Y-108283513D01*
X141858494Y-108283683D01*
X141857226Y-108292766D01*
X141859394Y-108339641D01*
X141859500Y-108344213D01*
X141859500Y-108362844D01*
X141859522Y-108362966D01*
X141861101Y-108376577D01*
X141862414Y-108404987D01*
X141862415Y-108404994D01*
X141866384Y-108413982D01*
X141873132Y-108435772D01*
X141874939Y-108445433D01*
X141875280Y-108445983D01*
X141889912Y-108469617D01*
X141896301Y-108481738D01*
X141901068Y-108492533D01*
X141907794Y-108507765D01*
X141914745Y-108514716D01*
X141928907Y-108532596D01*
X141934081Y-108540952D01*
X141956781Y-108558094D01*
X141967117Y-108567088D01*
X142220504Y-108820475D01*
X142248281Y-108874992D01*
X142249500Y-108890479D01*
X142249500Y-109769746D01*
X142249501Y-109769758D01*
X142261132Y-109828227D01*
X142261134Y-109828233D01*
X142297700Y-109882957D01*
X142305448Y-109894552D01*
X142371769Y-109938867D01*
X142410741Y-109946619D01*
X142430241Y-109950498D01*
X142430246Y-109950498D01*
X142430252Y-109950500D01*
X142430253Y-109950500D01*
X143369747Y-109950500D01*
X143369748Y-109950500D01*
X143428231Y-109938867D01*
X143494552Y-109894552D01*
X143538867Y-109828231D01*
X143550500Y-109769748D01*
X143550500Y-108380252D01*
X143550098Y-108378233D01*
X143542800Y-108341542D01*
X143538867Y-108321769D01*
X143494552Y-108255448D01*
X143462163Y-108233806D01*
X143424286Y-108185756D01*
X143421884Y-108124618D01*
X143455878Y-108073745D01*
X143463376Y-108069129D01*
X143463309Y-108069033D01*
X143470400Y-108064067D01*
X143470400Y-108064066D01*
X143470404Y-108064065D01*
X143554065Y-107980404D01*
X143560275Y-107967085D01*
X143602003Y-107922337D01*
X143662064Y-107910662D01*
X143717517Y-107936519D01*
X143739724Y-107967084D01*
X143745935Y-107980404D01*
X143829596Y-108064065D01*
X143829597Y-108064065D01*
X143829598Y-108064066D01*
X143936824Y-108114067D01*
X143936825Y-108114067D01*
X143936827Y-108114068D01*
X143985684Y-108120500D01*
X143985685Y-108120500D01*
X144334314Y-108120500D01*
X144334316Y-108120500D01*
X144383173Y-108114068D01*
X144490404Y-108064065D01*
X144574065Y-107980404D01*
X144574065Y-107980402D01*
X144579996Y-107974472D01*
X144634513Y-107946695D01*
X144694945Y-107956266D01*
X144720004Y-107974472D01*
X144725934Y-107980402D01*
X144725935Y-107980404D01*
X144809596Y-108064065D01*
X144809597Y-108064065D01*
X144809598Y-108064066D01*
X144916824Y-108114067D01*
X144916825Y-108114067D01*
X144916827Y-108114068D01*
X144965684Y-108120500D01*
X144965685Y-108120500D01*
X145314314Y-108120500D01*
X145314316Y-108120500D01*
X145363173Y-108114068D01*
X145470404Y-108064065D01*
X145554065Y-107980404D01*
X145560275Y-107967085D01*
X145602003Y-107922337D01*
X145662064Y-107910662D01*
X145717517Y-107936519D01*
X145739724Y-107967084D01*
X145745935Y-107980404D01*
X145829596Y-108064065D01*
X145829597Y-108064065D01*
X145829598Y-108064066D01*
X145936824Y-108114067D01*
X145936825Y-108114067D01*
X145936827Y-108114068D01*
X145985684Y-108120500D01*
X145985685Y-108120500D01*
X146334314Y-108120500D01*
X146334316Y-108120500D01*
X146383173Y-108114068D01*
X146490404Y-108064065D01*
X146574065Y-107980404D01*
X146624068Y-107873173D01*
X146630500Y-107824316D01*
X146630500Y-107375684D01*
X146624068Y-107326827D01*
X146621508Y-107321338D01*
X146614052Y-107260611D01*
X146643714Y-107207097D01*
X146699167Y-107181238D01*
X146711233Y-107180500D01*
X147667952Y-107180500D01*
X147726143Y-107199407D01*
X147737954Y-107209495D01*
X147770502Y-107242042D01*
X147798281Y-107296558D01*
X147799500Y-107312047D01*
X147799500Y-108265881D01*
X147797393Y-108286196D01*
X147795248Y-108296429D01*
X147794957Y-108297815D01*
X147797023Y-108314387D01*
X147798740Y-108328162D01*
X147799500Y-108340407D01*
X147799500Y-108341542D01*
X147802751Y-108361028D01*
X147803337Y-108365047D01*
X147807007Y-108394480D01*
X147809427Y-108413893D01*
X147811527Y-108420948D01*
X147813907Y-108427880D01*
X147837322Y-108471146D01*
X147839195Y-108474785D01*
X147860801Y-108518982D01*
X147865078Y-108524972D01*
X147869581Y-108530758D01*
X147905764Y-108564067D01*
X147908717Y-108566899D01*
X148145504Y-108803686D01*
X148173281Y-108858203D01*
X148174500Y-108873690D01*
X148174500Y-109779274D01*
X148177353Y-109809694D01*
X148177355Y-109809703D01*
X148222207Y-109937883D01*
X148302845Y-110047144D01*
X148302846Y-110047145D01*
X148302850Y-110047150D01*
X148302853Y-110047152D01*
X148302855Y-110047154D01*
X148364549Y-110092686D01*
X148412118Y-110127793D01*
X148429785Y-110133975D01*
X148478465Y-110171039D01*
X148496063Y-110229639D01*
X148475856Y-110287391D01*
X148462738Y-110301521D01*
X148371819Y-110382068D01*
X148371816Y-110382072D01*
X148311291Y-110469758D01*
X148275182Y-110522070D01*
X148222986Y-110659703D01*
X148214860Y-110681129D01*
X148201898Y-110787882D01*
X148194355Y-110850000D01*
X148214860Y-111018872D01*
X148275182Y-111177930D01*
X148371817Y-111317929D01*
X148499148Y-111430734D01*
X148649775Y-111509790D01*
X148814944Y-111550500D01*
X148814947Y-111550500D01*
X148985053Y-111550500D01*
X148985056Y-111550500D01*
X149150225Y-111509790D01*
X149300852Y-111430734D01*
X149428183Y-111317929D01*
X149524818Y-111177930D01*
X149585140Y-111018872D01*
X149605645Y-110850000D01*
X149585140Y-110681128D01*
X149565448Y-110629203D01*
X152750001Y-110629203D01*
X152752850Y-110659600D01*
X152752850Y-110659602D01*
X152797654Y-110787647D01*
X152878207Y-110896790D01*
X152878209Y-110896792D01*
X152987352Y-110977345D01*
X153115398Y-111022149D01*
X153145789Y-111024999D01*
X153349998Y-111024999D01*
X153350000Y-111024998D01*
X153550000Y-111024998D01*
X153550001Y-111024999D01*
X153754203Y-111024999D01*
X153784600Y-111022149D01*
X153784602Y-111022149D01*
X153912647Y-110977345D01*
X154021790Y-110896792D01*
X154021792Y-110896790D01*
X154102345Y-110787647D01*
X154147149Y-110659601D01*
X154149999Y-110629211D01*
X154150000Y-110629210D01*
X154150000Y-110200001D01*
X154149999Y-110200000D01*
X153550001Y-110200000D01*
X153550000Y-110200001D01*
X153550000Y-111024998D01*
X153350000Y-111024998D01*
X153350000Y-110200001D01*
X153349999Y-110200000D01*
X152750002Y-110200000D01*
X152750001Y-110200001D01*
X152750001Y-110629203D01*
X149565448Y-110629203D01*
X149524818Y-110522070D01*
X149428183Y-110382071D01*
X149358496Y-110320334D01*
X149327478Y-110267595D01*
X149333384Y-110206695D01*
X149373957Y-110160897D01*
X149391436Y-110152792D01*
X149462882Y-110127793D01*
X149572150Y-110047150D01*
X149652793Y-109937882D01*
X149697646Y-109809699D01*
X149700499Y-109779273D01*
X149700500Y-109779273D01*
X149700500Y-108873688D01*
X149719407Y-108815497D01*
X149729491Y-108803690D01*
X149864881Y-108668299D01*
X149880732Y-108655428D01*
X149890669Y-108648937D01*
X149909451Y-108624803D01*
X149917577Y-108615604D01*
X149918375Y-108614807D01*
X149929886Y-108598682D01*
X149932288Y-108595462D01*
X149962517Y-108556626D01*
X149962517Y-108556623D01*
X149966023Y-108550145D01*
X149969237Y-108543571D01*
X149969237Y-108543569D01*
X149969240Y-108543566D01*
X149983287Y-108496381D01*
X149984512Y-108492554D01*
X150000500Y-108445988D01*
X150000500Y-108445983D01*
X150001707Y-108438754D01*
X150002617Y-108431454D01*
X150000585Y-108382324D01*
X150000500Y-108378233D01*
X150000500Y-107930420D01*
X150019407Y-107872229D01*
X150068907Y-107836265D01*
X150130093Y-107836265D01*
X150165149Y-107856318D01*
X150249143Y-107930731D01*
X150249146Y-107930733D01*
X150249148Y-107930734D01*
X150399775Y-108009790D01*
X150564944Y-108050500D01*
X150564947Y-108050500D01*
X150735053Y-108050500D01*
X150735056Y-108050500D01*
X150900225Y-108009790D01*
X151050852Y-107930734D01*
X151050854Y-107930731D01*
X151050856Y-107930731D01*
X151134851Y-107856318D01*
X151190945Y-107831882D01*
X151250689Y-107845085D01*
X151291262Y-107890883D01*
X151299500Y-107930420D01*
X151299500Y-108049992D01*
X151280593Y-108108183D01*
X151259288Y-108129648D01*
X151227849Y-108152850D01*
X151147207Y-108262116D01*
X151102355Y-108390296D01*
X151102353Y-108390305D01*
X151099500Y-108420725D01*
X151099500Y-109779274D01*
X151102353Y-109809694D01*
X151102355Y-109809703D01*
X151147207Y-109937883D01*
X151227845Y-110047144D01*
X151227846Y-110047145D01*
X151227850Y-110047150D01*
X151227853Y-110047152D01*
X151227855Y-110047154D01*
X151337116Y-110127792D01*
X151337117Y-110127792D01*
X151337118Y-110127793D01*
X151465301Y-110172646D01*
X151495725Y-110175499D01*
X151495727Y-110175500D01*
X151495734Y-110175500D01*
X152229273Y-110175500D01*
X152229273Y-110175499D01*
X152259699Y-110172646D01*
X152387882Y-110127793D01*
X152497150Y-110047150D01*
X152571345Y-109946619D01*
X152621112Y-109911026D01*
X152682296Y-109911484D01*
X152731526Y-109947817D01*
X152747445Y-109997444D01*
X152750001Y-110000000D01*
X153349999Y-110000000D01*
X153350000Y-109999999D01*
X153350000Y-109175001D01*
X153349999Y-109175000D01*
X153145796Y-109175000D01*
X153115399Y-109177850D01*
X153115397Y-109177850D01*
X152987352Y-109222654D01*
X152878209Y-109303207D01*
X152878207Y-109303209D01*
X152804155Y-109403545D01*
X152754387Y-109439137D01*
X152693203Y-109438679D01*
X152643974Y-109402345D01*
X152625500Y-109344756D01*
X152625500Y-108499999D01*
X153440000Y-108499999D01*
X153440001Y-108500000D01*
X153819999Y-108500000D01*
X153820000Y-108499999D01*
X153820000Y-108090001D01*
X153819999Y-108090000D01*
X153740161Y-108090000D01*
X153690645Y-108096519D01*
X153690638Y-108096521D01*
X153581978Y-108147190D01*
X153497190Y-108231978D01*
X153446521Y-108340638D01*
X153446519Y-108340645D01*
X153440000Y-108390161D01*
X153440000Y-108499999D01*
X152625500Y-108499999D01*
X152625500Y-108420727D01*
X152625499Y-108420725D01*
X152624024Y-108404994D01*
X152622646Y-108390301D01*
X152577793Y-108262118D01*
X152575082Y-108258445D01*
X152538065Y-108208288D01*
X152518723Y-108150241D01*
X152537194Y-108091910D01*
X152586424Y-108055577D01*
X152617720Y-108050500D01*
X152735053Y-108050500D01*
X152735056Y-108050500D01*
X152900225Y-108009790D01*
X153050852Y-107930734D01*
X153178183Y-107817929D01*
X153274818Y-107677930D01*
X153335140Y-107518872D01*
X153355645Y-107350000D01*
X153335140Y-107181128D01*
X153274818Y-107022070D01*
X153178183Y-106882071D01*
X153168622Y-106873601D01*
X153137604Y-106820862D01*
X153143509Y-106759962D01*
X153184083Y-106714164D01*
X153234271Y-106700499D01*
X153252132Y-106700499D01*
X153332495Y-106684515D01*
X153345447Y-106675860D01*
X153404333Y-106659251D01*
X153455452Y-106675861D01*
X153467696Y-106684042D01*
X153467698Y-106684043D01*
X153547911Y-106699999D01*
X153547913Y-106700000D01*
X153549999Y-106700000D01*
X153550000Y-106699999D01*
X153550000Y-105761500D01*
X153568907Y-105703309D01*
X153618407Y-105667345D01*
X153649000Y-105662500D01*
X153651000Y-105662500D01*
X153709191Y-105681407D01*
X153745155Y-105730907D01*
X153750000Y-105761500D01*
X153750000Y-106699999D01*
X153750001Y-106700000D01*
X153752087Y-106700000D01*
X153752088Y-106699999D01*
X153832300Y-106684044D01*
X153844545Y-106675862D01*
X153903433Y-106659251D01*
X153954551Y-106675859D01*
X153967505Y-106684515D01*
X154047867Y-106700500D01*
X154200499Y-106700499D01*
X154258690Y-106719406D01*
X154294654Y-106768906D01*
X154299500Y-106799499D01*
X154299500Y-108011133D01*
X154280593Y-108069324D01*
X154231093Y-108105288D01*
X154169907Y-108105288D01*
X154158664Y-108100859D01*
X154149359Y-108096520D01*
X154149354Y-108096519D01*
X154099839Y-108090000D01*
X154020001Y-108090000D01*
X154020000Y-108090001D01*
X154020000Y-108601000D01*
X154001093Y-108659191D01*
X153951593Y-108695155D01*
X153921000Y-108700000D01*
X153440001Y-108700000D01*
X153440000Y-108700001D01*
X153440000Y-108809838D01*
X153446519Y-108859354D01*
X153446521Y-108859361D01*
X153497190Y-108968021D01*
X153557081Y-109027912D01*
X153584858Y-109082429D01*
X153575287Y-109142861D01*
X153557081Y-109167920D01*
X153550000Y-109175001D01*
X153550000Y-109999999D01*
X153550001Y-110000000D01*
X154149998Y-110000000D01*
X154149999Y-109999999D01*
X154149999Y-109570796D01*
X154147149Y-109540399D01*
X154147149Y-109540397D01*
X154102345Y-109412352D01*
X154021792Y-109303209D01*
X154021790Y-109303207D01*
X154002073Y-109288655D01*
X153966481Y-109238887D01*
X153966939Y-109177703D01*
X154003273Y-109128474D01*
X154060862Y-109110000D01*
X154099838Y-109110000D01*
X154149354Y-109103480D01*
X154149361Y-109103478D01*
X154258021Y-109052809D01*
X154258023Y-109052808D01*
X154329641Y-108981190D01*
X154384157Y-108953412D01*
X154444589Y-108962983D01*
X154469647Y-108981188D01*
X154500502Y-109012042D01*
X154528281Y-109066558D01*
X154529500Y-109082047D01*
X154529500Y-109583381D01*
X154527393Y-109603696D01*
X154524957Y-109615313D01*
X154528740Y-109645662D01*
X154529500Y-109657907D01*
X154529500Y-109659042D01*
X154532751Y-109678528D01*
X154533337Y-109682547D01*
X154539427Y-109731393D01*
X154541527Y-109738448D01*
X154543907Y-109745380D01*
X154567322Y-109788646D01*
X154569195Y-109792285D01*
X154590801Y-109836482D01*
X154595078Y-109842472D01*
X154599581Y-109848257D01*
X154617550Y-109864799D01*
X154647558Y-109918121D01*
X154649500Y-109937636D01*
X154649500Y-110629274D01*
X154652353Y-110659694D01*
X154652355Y-110659703D01*
X154697207Y-110787883D01*
X154777845Y-110897144D01*
X154777847Y-110897146D01*
X154777850Y-110897150D01*
X154777853Y-110897152D01*
X154777855Y-110897154D01*
X154887116Y-110977792D01*
X154887117Y-110977792D01*
X154887118Y-110977793D01*
X155015301Y-111022646D01*
X155045725Y-111025499D01*
X155045727Y-111025500D01*
X155045734Y-111025500D01*
X155526678Y-111025500D01*
X155584869Y-111044407D01*
X155596682Y-111054496D01*
X157420504Y-112878317D01*
X157448281Y-112932834D01*
X157449500Y-112948321D01*
X157449500Y-114300500D01*
X157430593Y-114358691D01*
X157381093Y-114394655D01*
X157350500Y-114399500D01*
X155930252Y-114399500D01*
X155930251Y-114399500D01*
X155930241Y-114399501D01*
X155871772Y-114411132D01*
X155871766Y-114411134D01*
X155805451Y-114455445D01*
X155805445Y-114455451D01*
X155761134Y-114521766D01*
X155761132Y-114521772D01*
X155749501Y-114580241D01*
X155749500Y-114580253D01*
X155749500Y-116619746D01*
X155749501Y-116619758D01*
X155761132Y-116678227D01*
X155761134Y-116678233D01*
X155805205Y-116744189D01*
X155805448Y-116744552D01*
X155871769Y-116788867D01*
X155916231Y-116797711D01*
X155930241Y-116800498D01*
X155930246Y-116800498D01*
X155930252Y-116800500D01*
X155930253Y-116800500D01*
X159969747Y-116800500D01*
X159969748Y-116800500D01*
X160028231Y-116788867D01*
X160094552Y-116744552D01*
X160138867Y-116678231D01*
X160150500Y-116619748D01*
X160150500Y-116199500D01*
X160169407Y-116141309D01*
X160218907Y-116105345D01*
X160249500Y-116100500D01*
X164518142Y-116100500D01*
X164576333Y-116119407D01*
X164612297Y-116168907D01*
X164613533Y-116225986D01*
X164574125Y-116367914D01*
X164514468Y-116731802D01*
X164494506Y-117100000D01*
X164514468Y-117468197D01*
X164574126Y-117832087D01*
X164672768Y-118187365D01*
X164672772Y-118187376D01*
X164809255Y-118529927D01*
X164857654Y-118621217D01*
X164981978Y-118855716D01*
X165188910Y-119160917D01*
X165188914Y-119160922D01*
X165188915Y-119160923D01*
X165427622Y-119441951D01*
X165427632Y-119441961D01*
X165695326Y-119695535D01*
X165695330Y-119695538D01*
X165988881Y-119918690D01*
X166304838Y-120108795D01*
X166639497Y-120263625D01*
X166988934Y-120381364D01*
X166988939Y-120381365D01*
X166988942Y-120381366D01*
X167349047Y-120460631D01*
X167349048Y-120460631D01*
X167349052Y-120460632D01*
X167715630Y-120500500D01*
X168084370Y-120500500D01*
X168450948Y-120460632D01*
X168471424Y-120456125D01*
X168570987Y-120434209D01*
X168811057Y-120381366D01*
X168811058Y-120381366D01*
X168811060Y-120381365D01*
X168811066Y-120381364D01*
X169160503Y-120263625D01*
X169495162Y-120108795D01*
X169811119Y-119918690D01*
X170104670Y-119695538D01*
X170372373Y-119441956D01*
X170611090Y-119160917D01*
X170818022Y-118855716D01*
X170990743Y-118529930D01*
X171127227Y-118187379D01*
X171140380Y-118140008D01*
X171225873Y-117832087D01*
X171225875Y-117832081D01*
X171285531Y-117468199D01*
X171305494Y-117100000D01*
X171285531Y-116731801D01*
X171225875Y-116367919D01*
X171213414Y-116323040D01*
X171127231Y-116012634D01*
X171127229Y-116012629D01*
X171127227Y-116012621D01*
X170990743Y-115670070D01*
X170818022Y-115344284D01*
X170611090Y-115039083D01*
X170578317Y-115000500D01*
X170372377Y-114758048D01*
X170372367Y-114758038D01*
X170104673Y-114504464D01*
X169811123Y-114281313D01*
X169811122Y-114281312D01*
X169811119Y-114281310D01*
X169495162Y-114091205D01*
X169177864Y-113944407D01*
X169160508Y-113936377D01*
X169160505Y-113936376D01*
X169160503Y-113936375D01*
X168811066Y-113818636D01*
X168811065Y-113818635D01*
X168811057Y-113818633D01*
X168450952Y-113739368D01*
X168450953Y-113739368D01*
X168084370Y-113699500D01*
X167715630Y-113699500D01*
X167349046Y-113739368D01*
X166988943Y-113818633D01*
X166988941Y-113818633D01*
X166639491Y-113936377D01*
X166304846Y-114091201D01*
X166304840Y-114091204D01*
X165988881Y-114281310D01*
X165988876Y-114281313D01*
X165695326Y-114504464D01*
X165427632Y-114758038D01*
X165427622Y-114758048D01*
X165188915Y-115039076D01*
X165188908Y-115039086D01*
X165177401Y-115056058D01*
X165129095Y-115093611D01*
X165095460Y-115099500D01*
X160249500Y-115099500D01*
X160191309Y-115080593D01*
X160155345Y-115031093D01*
X160150500Y-115000500D01*
X160150500Y-114580253D01*
X160150498Y-114580241D01*
X160147711Y-114566231D01*
X160138867Y-114521769D01*
X160094552Y-114455448D01*
X160094548Y-114455445D01*
X160028233Y-114411134D01*
X160028231Y-114411133D01*
X160028228Y-114411132D01*
X160028227Y-114411132D01*
X159969758Y-114399501D01*
X159969748Y-114399500D01*
X159969747Y-114399500D01*
X158549500Y-114399500D01*
X158491309Y-114380593D01*
X158455345Y-114331093D01*
X158450500Y-114300500D01*
X158450500Y-112764456D01*
X158452763Y-112743408D01*
X158454359Y-112736073D01*
X158450752Y-112685643D01*
X158450500Y-112678580D01*
X158450500Y-112664201D01*
X158448458Y-112650003D01*
X158448451Y-112649953D01*
X158447698Y-112642957D01*
X158444091Y-112592517D01*
X158441468Y-112585484D01*
X158436233Y-112564975D01*
X158435691Y-112561205D01*
X158435165Y-112557543D01*
X158414165Y-112511560D01*
X158411460Y-112505029D01*
X158393797Y-112457670D01*
X158392520Y-112455964D01*
X158389291Y-112451651D01*
X158378495Y-112433454D01*
X158375377Y-112426627D01*
X158375375Y-112426625D01*
X158375375Y-112426624D01*
X158359179Y-112407933D01*
X158342267Y-112388416D01*
X158337838Y-112382920D01*
X158329220Y-112371407D01*
X158319043Y-112361229D01*
X158314229Y-112356058D01*
X158281128Y-112317857D01*
X158281127Y-112317856D01*
X158274811Y-112313797D01*
X158258330Y-112300517D01*
X156079496Y-110121682D01*
X156051719Y-110067165D01*
X156050500Y-110051678D01*
X156050500Y-109570727D01*
X156050499Y-109570725D01*
X156047646Y-109540305D01*
X156047646Y-109540301D01*
X156002793Y-109412118D01*
X155995580Y-109402345D01*
X155922154Y-109302855D01*
X155922152Y-109302853D01*
X155922150Y-109302850D01*
X155922146Y-109302847D01*
X155922144Y-109302845D01*
X155812883Y-109222207D01*
X155684703Y-109177355D01*
X155684694Y-109177353D01*
X155654274Y-109174500D01*
X155654266Y-109174500D01*
X155336048Y-109174500D01*
X155277857Y-109155593D01*
X155241893Y-109106093D01*
X155241893Y-109044907D01*
X155266044Y-109005497D01*
X155290352Y-108981188D01*
X155303224Y-108968316D01*
X155353972Y-108859487D01*
X155360500Y-108809901D01*
X155360499Y-108390100D01*
X155359475Y-108382324D01*
X155353972Y-108340513D01*
X155353972Y-108340511D01*
X155303225Y-108231686D01*
X155303224Y-108231685D01*
X155303224Y-108231684D01*
X155218316Y-108146776D01*
X155218314Y-108146775D01*
X155218313Y-108146774D01*
X155109489Y-108096029D01*
X155109488Y-108096028D01*
X155096630Y-108094335D01*
X155086576Y-108093011D01*
X155031352Y-108066670D01*
X155002158Y-108012899D01*
X155000500Y-107994859D01*
X155000500Y-106799499D01*
X155019407Y-106741308D01*
X155068907Y-106705344D01*
X155099495Y-106700499D01*
X155252132Y-106700499D01*
X155332495Y-106684515D01*
X155423624Y-106623624D01*
X155484515Y-106532495D01*
X155500500Y-106452133D01*
X155500499Y-105948688D01*
X155519406Y-105890498D01*
X155529489Y-105878692D01*
X156678686Y-104729496D01*
X156733203Y-104701719D01*
X156748690Y-104700500D01*
X157253380Y-104700500D01*
X157273695Y-104702607D01*
X157275605Y-104703007D01*
X157285314Y-104705043D01*
X157315661Y-104701259D01*
X157327906Y-104700500D01*
X157329042Y-104700500D01*
X157348520Y-104697249D01*
X157352551Y-104696661D01*
X157401392Y-104690573D01*
X157401395Y-104690571D01*
X157408428Y-104688477D01*
X157415374Y-104686092D01*
X157415380Y-104686092D01*
X157458654Y-104662671D01*
X157462278Y-104660807D01*
X157506481Y-104639199D01*
X157506481Y-104639198D01*
X157506483Y-104639198D01*
X157506484Y-104639196D01*
X157512469Y-104634923D01*
X157518254Y-104630420D01*
X157518254Y-104630419D01*
X157518257Y-104630418D01*
X157551578Y-104594220D01*
X157554363Y-104591316D01*
X157789884Y-104355795D01*
X157805734Y-104342925D01*
X157815669Y-104336436D01*
X157834451Y-104312302D01*
X157842577Y-104303103D01*
X157843375Y-104302306D01*
X157854886Y-104286181D01*
X157857288Y-104282961D01*
X157887517Y-104244125D01*
X157887517Y-104244122D01*
X157891023Y-104237644D01*
X157894237Y-104231070D01*
X157894237Y-104231068D01*
X157894240Y-104231065D01*
X157908287Y-104183880D01*
X157909512Y-104180053D01*
X157925500Y-104133487D01*
X157925500Y-104133482D01*
X157926707Y-104126253D01*
X157927617Y-104118953D01*
X157925585Y-104069823D01*
X157925500Y-104065732D01*
X157925500Y-103850000D01*
X162694355Y-103850000D01*
X162714860Y-104018872D01*
X162775182Y-104177930D01*
X162871816Y-104317927D01*
X162871818Y-104317930D01*
X162900026Y-104342920D01*
X162999148Y-104430734D01*
X163149775Y-104509790D01*
X163314944Y-104550500D01*
X163314947Y-104550500D01*
X163485053Y-104550500D01*
X163485056Y-104550500D01*
X163650225Y-104509790D01*
X163800852Y-104430734D01*
X163800855Y-104430730D01*
X163802711Y-104429757D01*
X163863022Y-104419456D01*
X163903716Y-104435100D01*
X163946769Y-104463867D01*
X163991231Y-104472711D01*
X164005241Y-104475498D01*
X164005246Y-104475498D01*
X164005252Y-104475500D01*
X164005253Y-104475500D01*
X166694747Y-104475500D01*
X166694748Y-104475500D01*
X166753231Y-104463867D01*
X166819552Y-104419552D01*
X166863867Y-104353231D01*
X166863868Y-104353225D01*
X166867597Y-104344224D01*
X166869089Y-104344842D01*
X166893476Y-104301300D01*
X166949041Y-104275686D01*
X166960675Y-104275000D01*
X167189325Y-104275000D01*
X167247516Y-104293907D01*
X167283480Y-104343407D01*
X167285888Y-104352639D01*
X167286134Y-104353233D01*
X167323055Y-104408488D01*
X167330448Y-104419552D01*
X167396769Y-104463867D01*
X167441231Y-104472711D01*
X167455241Y-104475498D01*
X167455246Y-104475498D01*
X167455252Y-104475500D01*
X167455253Y-104475500D01*
X171044747Y-104475500D01*
X171044748Y-104475500D01*
X171103231Y-104463867D01*
X171169552Y-104419552D01*
X171213867Y-104353231D01*
X171225500Y-104294748D01*
X171225500Y-103405252D01*
X171213867Y-103346769D01*
X171169552Y-103280448D01*
X171166703Y-103278544D01*
X171103233Y-103236134D01*
X171103231Y-103236133D01*
X171103228Y-103236132D01*
X171103227Y-103236132D01*
X171044758Y-103224501D01*
X171044748Y-103224500D01*
X167455252Y-103224500D01*
X167455251Y-103224500D01*
X167455241Y-103224501D01*
X167396772Y-103236132D01*
X167396766Y-103236134D01*
X167330451Y-103280445D01*
X167330445Y-103280451D01*
X167286134Y-103346766D01*
X167282403Y-103355776D01*
X167280910Y-103355157D01*
X167256524Y-103398700D01*
X167200959Y-103424314D01*
X167189325Y-103425000D01*
X166960675Y-103425000D01*
X166902484Y-103406093D01*
X166866520Y-103356593D01*
X166864111Y-103347360D01*
X166863867Y-103346772D01*
X166863867Y-103346769D01*
X166819552Y-103280448D01*
X166816703Y-103278544D01*
X166753233Y-103236134D01*
X166753231Y-103236133D01*
X166753228Y-103236132D01*
X166753227Y-103236132D01*
X166694758Y-103224501D01*
X166694748Y-103224500D01*
X164005252Y-103224500D01*
X164005251Y-103224500D01*
X164005241Y-103224501D01*
X163946772Y-103236132D01*
X163946766Y-103236134D01*
X163903721Y-103264897D01*
X163844833Y-103281506D01*
X163802711Y-103270242D01*
X163800852Y-103269266D01*
X163650225Y-103190210D01*
X163650222Y-103190209D01*
X163645365Y-103187660D01*
X163602627Y-103143876D01*
X163593786Y-103083332D01*
X163622221Y-103029156D01*
X163645365Y-103012340D01*
X163650222Y-103009790D01*
X163650225Y-103009790D01*
X163800852Y-102930734D01*
X163800855Y-102930730D01*
X163802711Y-102929757D01*
X163863023Y-102919456D01*
X163903716Y-102935100D01*
X163946769Y-102963867D01*
X163991231Y-102972711D01*
X164005241Y-102975498D01*
X164005246Y-102975498D01*
X164005252Y-102975500D01*
X164005253Y-102975500D01*
X166694747Y-102975500D01*
X166694748Y-102975500D01*
X166753231Y-102963867D01*
X166819552Y-102919552D01*
X166863867Y-102853231D01*
X166863868Y-102853225D01*
X166867597Y-102844224D01*
X166869089Y-102844842D01*
X166893476Y-102801300D01*
X166949041Y-102775686D01*
X166960675Y-102775000D01*
X167189325Y-102775000D01*
X167247516Y-102793907D01*
X167283480Y-102843407D01*
X167285888Y-102852639D01*
X167286134Y-102853233D01*
X167305544Y-102882281D01*
X167330448Y-102919552D01*
X167396769Y-102963867D01*
X167441231Y-102972711D01*
X167455241Y-102975498D01*
X167455246Y-102975498D01*
X167455252Y-102975500D01*
X167455253Y-102975500D01*
X171044747Y-102975500D01*
X171044748Y-102975500D01*
X171103231Y-102963867D01*
X171169552Y-102919552D01*
X171213867Y-102853231D01*
X171225500Y-102794748D01*
X171225500Y-101905252D01*
X171225351Y-101904505D01*
X171220889Y-101882071D01*
X171213867Y-101846769D01*
X171169552Y-101780448D01*
X171152819Y-101769267D01*
X171103233Y-101736134D01*
X171103231Y-101736133D01*
X171103228Y-101736132D01*
X171103227Y-101736132D01*
X171044758Y-101724501D01*
X171044748Y-101724500D01*
X167455252Y-101724500D01*
X167455251Y-101724500D01*
X167455241Y-101724501D01*
X167396772Y-101736132D01*
X167396766Y-101736134D01*
X167330451Y-101780445D01*
X167330445Y-101780451D01*
X167286134Y-101846766D01*
X167282403Y-101855776D01*
X167280910Y-101855157D01*
X167256524Y-101898700D01*
X167200959Y-101924314D01*
X167189325Y-101925000D01*
X166960675Y-101925000D01*
X166902484Y-101906093D01*
X166866520Y-101856593D01*
X166864111Y-101847360D01*
X166863867Y-101846772D01*
X166863867Y-101846769D01*
X166819552Y-101780448D01*
X166802819Y-101769267D01*
X166753233Y-101736134D01*
X166753231Y-101736133D01*
X166753228Y-101736132D01*
X166753227Y-101736132D01*
X166694758Y-101724501D01*
X166694748Y-101724500D01*
X164005252Y-101724500D01*
X164005251Y-101724500D01*
X164005241Y-101724501D01*
X163946772Y-101736132D01*
X163946766Y-101736134D01*
X163903721Y-101764897D01*
X163844833Y-101781506D01*
X163802711Y-101770242D01*
X163800852Y-101769266D01*
X163650225Y-101690210D01*
X163650222Y-101690209D01*
X163645365Y-101687660D01*
X163602627Y-101643876D01*
X163593786Y-101583332D01*
X163622221Y-101529156D01*
X163645365Y-101512340D01*
X163650222Y-101509790D01*
X163650225Y-101509790D01*
X163800852Y-101430734D01*
X163800855Y-101430730D01*
X163802711Y-101429757D01*
X163863023Y-101419456D01*
X163903716Y-101435100D01*
X163946769Y-101463867D01*
X163991231Y-101472711D01*
X164005241Y-101475498D01*
X164005246Y-101475498D01*
X164005252Y-101475500D01*
X164005253Y-101475500D01*
X166694747Y-101475500D01*
X166694748Y-101475500D01*
X166753231Y-101463867D01*
X166819552Y-101419552D01*
X166863867Y-101353231D01*
X166863868Y-101353225D01*
X166867597Y-101344224D01*
X166869089Y-101344842D01*
X166893476Y-101301300D01*
X166949041Y-101275686D01*
X166960675Y-101275000D01*
X167189325Y-101275000D01*
X167247516Y-101293907D01*
X167283480Y-101343407D01*
X167285888Y-101352639D01*
X167286134Y-101353233D01*
X167323761Y-101409545D01*
X167330448Y-101419552D01*
X167396769Y-101463867D01*
X167441231Y-101472711D01*
X167455241Y-101475498D01*
X167455246Y-101475498D01*
X167455252Y-101475500D01*
X167455253Y-101475500D01*
X171044747Y-101475500D01*
X171044748Y-101475500D01*
X171103231Y-101463867D01*
X171169552Y-101419552D01*
X171213867Y-101353231D01*
X171225500Y-101294748D01*
X171225500Y-100405252D01*
X171213867Y-100346769D01*
X171169552Y-100280448D01*
X171152819Y-100269267D01*
X171103233Y-100236134D01*
X171103231Y-100236133D01*
X171103228Y-100236132D01*
X171103227Y-100236132D01*
X171044758Y-100224501D01*
X171044748Y-100224500D01*
X167455252Y-100224500D01*
X167455251Y-100224500D01*
X167455241Y-100224501D01*
X167396772Y-100236132D01*
X167396766Y-100236134D01*
X167330451Y-100280445D01*
X167330445Y-100280451D01*
X167286134Y-100346766D01*
X167282403Y-100355776D01*
X167280910Y-100355157D01*
X167256524Y-100398700D01*
X167200959Y-100424314D01*
X167189325Y-100425000D01*
X166960675Y-100425000D01*
X166902484Y-100406093D01*
X166866520Y-100356593D01*
X166864111Y-100347360D01*
X166863867Y-100346772D01*
X166863867Y-100346769D01*
X166819552Y-100280448D01*
X166802819Y-100269267D01*
X166753233Y-100236134D01*
X166753231Y-100236133D01*
X166753228Y-100236132D01*
X166753227Y-100236132D01*
X166694758Y-100224501D01*
X166694748Y-100224500D01*
X164005252Y-100224500D01*
X164005251Y-100224500D01*
X164005241Y-100224501D01*
X163946772Y-100236132D01*
X163946766Y-100236134D01*
X163903721Y-100264897D01*
X163844833Y-100281506D01*
X163802711Y-100270242D01*
X163800852Y-100269266D01*
X163650225Y-100190210D01*
X163650222Y-100190209D01*
X163645365Y-100187660D01*
X163602627Y-100143876D01*
X163593786Y-100083332D01*
X163622221Y-100029156D01*
X163645365Y-100012340D01*
X163650222Y-100009790D01*
X163650225Y-100009790D01*
X163800852Y-99930734D01*
X163800855Y-99930730D01*
X163802711Y-99929757D01*
X163863023Y-99919456D01*
X163903716Y-99935100D01*
X163946769Y-99963867D01*
X163991231Y-99972711D01*
X164005241Y-99975498D01*
X164005246Y-99975498D01*
X164005252Y-99975500D01*
X164005253Y-99975500D01*
X166694747Y-99975500D01*
X166694748Y-99975500D01*
X166753231Y-99963867D01*
X166819552Y-99919552D01*
X166863867Y-99853231D01*
X166863868Y-99853225D01*
X166867597Y-99844224D01*
X166869089Y-99844842D01*
X166893476Y-99801300D01*
X166949041Y-99775686D01*
X166960675Y-99775000D01*
X167189325Y-99775000D01*
X167247516Y-99793907D01*
X167283480Y-99843407D01*
X167285888Y-99852639D01*
X167286134Y-99853233D01*
X167330384Y-99919456D01*
X167330448Y-99919552D01*
X167396769Y-99963867D01*
X167441231Y-99972711D01*
X167455241Y-99975498D01*
X167455246Y-99975498D01*
X167455252Y-99975500D01*
X167455253Y-99975500D01*
X171044747Y-99975500D01*
X171044748Y-99975500D01*
X171103231Y-99963867D01*
X171169552Y-99919552D01*
X171213867Y-99853231D01*
X171225500Y-99794748D01*
X171225500Y-98905252D01*
X171213867Y-98846769D01*
X171169552Y-98780448D01*
X171152819Y-98769267D01*
X171103233Y-98736134D01*
X171103231Y-98736133D01*
X171103228Y-98736132D01*
X171103227Y-98736132D01*
X171044758Y-98724501D01*
X171044748Y-98724500D01*
X167455252Y-98724500D01*
X167455251Y-98724500D01*
X167455241Y-98724501D01*
X167396772Y-98736132D01*
X167396766Y-98736134D01*
X167330451Y-98780445D01*
X167330445Y-98780451D01*
X167286134Y-98846766D01*
X167282403Y-98855776D01*
X167280910Y-98855157D01*
X167256524Y-98898700D01*
X167200959Y-98924314D01*
X167189325Y-98925000D01*
X166960675Y-98925000D01*
X166902484Y-98906093D01*
X166866520Y-98856593D01*
X166864111Y-98847360D01*
X166863867Y-98846772D01*
X166863867Y-98846769D01*
X166819552Y-98780448D01*
X166802819Y-98769267D01*
X166753233Y-98736134D01*
X166753231Y-98736133D01*
X166753228Y-98736132D01*
X166753227Y-98736132D01*
X166694758Y-98724501D01*
X166694748Y-98724500D01*
X164005252Y-98724500D01*
X164005251Y-98724500D01*
X164005241Y-98724501D01*
X163946772Y-98736132D01*
X163946766Y-98736134D01*
X163903721Y-98764897D01*
X163844833Y-98781506D01*
X163802711Y-98770242D01*
X163800852Y-98769266D01*
X163650225Y-98690210D01*
X163650224Y-98690209D01*
X163650223Y-98690209D01*
X163485058Y-98649500D01*
X163485056Y-98649500D01*
X163314944Y-98649500D01*
X163314941Y-98649500D01*
X163149776Y-98690209D01*
X162999146Y-98769267D01*
X162871818Y-98882069D01*
X162871816Y-98882072D01*
X162822142Y-98954037D01*
X162775182Y-99022070D01*
X162714860Y-99181128D01*
X162712990Y-99196526D01*
X162696845Y-99329496D01*
X162694355Y-99350000D01*
X162714860Y-99518872D01*
X162775182Y-99677930D01*
X162871817Y-99817929D01*
X162999148Y-99930734D01*
X163149775Y-100009790D01*
X163154634Y-100012340D01*
X163197372Y-100056124D01*
X163206213Y-100116668D01*
X163177778Y-100170845D01*
X163154634Y-100187660D01*
X163149775Y-100190209D01*
X163149775Y-100190210D01*
X163039926Y-100247864D01*
X162999146Y-100269267D01*
X162871818Y-100382069D01*
X162871816Y-100382072D01*
X162842185Y-100425000D01*
X162775182Y-100522070D01*
X162720027Y-100667505D01*
X162714860Y-100681129D01*
X162695480Y-100840738D01*
X162694355Y-100850000D01*
X162714860Y-101018872D01*
X162775182Y-101177930D01*
X162871816Y-101317927D01*
X162871818Y-101317930D01*
X162901498Y-101344224D01*
X162999148Y-101430734D01*
X163149775Y-101509790D01*
X163154634Y-101512340D01*
X163197372Y-101556124D01*
X163206213Y-101616668D01*
X163177778Y-101670845D01*
X163154634Y-101687660D01*
X163149775Y-101690209D01*
X163149775Y-101690210D01*
X163039918Y-101747868D01*
X162999146Y-101769267D01*
X162871818Y-101882069D01*
X162871816Y-101882072D01*
X162794105Y-101994655D01*
X162775182Y-102022070D01*
X162714860Y-102181128D01*
X162712872Y-102197499D01*
X162694355Y-102349998D01*
X162694355Y-102350001D01*
X162700191Y-102398066D01*
X162714860Y-102518872D01*
X162775182Y-102677930D01*
X162871817Y-102817929D01*
X162999148Y-102930734D01*
X163149775Y-103009790D01*
X163154634Y-103012340D01*
X163197372Y-103056124D01*
X163206213Y-103116668D01*
X163177778Y-103170845D01*
X163154634Y-103187660D01*
X163149775Y-103190209D01*
X163149775Y-103190210D01*
X163039920Y-103247867D01*
X162999146Y-103269267D01*
X162871818Y-103382069D01*
X162871816Y-103382072D01*
X162821135Y-103455496D01*
X162775182Y-103522070D01*
X162714860Y-103681128D01*
X162694355Y-103850000D01*
X157925500Y-103850000D01*
X157925500Y-102799500D01*
X157944407Y-102741309D01*
X157993907Y-102705345D01*
X158024500Y-102700500D01*
X158803381Y-102700500D01*
X158823696Y-102702607D01*
X158825606Y-102703007D01*
X158835315Y-102705043D01*
X158865662Y-102701259D01*
X158877907Y-102700500D01*
X158879043Y-102700500D01*
X158898521Y-102697249D01*
X158902552Y-102696661D01*
X158951393Y-102690573D01*
X158951396Y-102690571D01*
X158958429Y-102688477D01*
X158965375Y-102686092D01*
X158965381Y-102686092D01*
X159008655Y-102662671D01*
X159012279Y-102660807D01*
X159056482Y-102639199D01*
X159056482Y-102639198D01*
X159056484Y-102639198D01*
X159056485Y-102639196D01*
X159062470Y-102634923D01*
X159068255Y-102630420D01*
X159068255Y-102630419D01*
X159068258Y-102630418D01*
X159101579Y-102594220D01*
X159104364Y-102591316D01*
X160152966Y-101542713D01*
X160207481Y-101514938D01*
X160255664Y-101519273D01*
X160265301Y-101522646D01*
X160295725Y-101525499D01*
X160295727Y-101525500D01*
X160295734Y-101525500D01*
X160904273Y-101525500D01*
X160904273Y-101525499D01*
X160934699Y-101522646D01*
X161062882Y-101477793D01*
X161172150Y-101397150D01*
X161252793Y-101287882D01*
X161297646Y-101159699D01*
X161300499Y-101129273D01*
X161300500Y-101129273D01*
X161300500Y-100070727D01*
X161300499Y-100070725D01*
X161298546Y-100049899D01*
X161297646Y-100040301D01*
X161252793Y-99912118D01*
X161252792Y-99912116D01*
X161169845Y-99799726D01*
X161150503Y-99741678D01*
X161150500Y-99740938D01*
X161150500Y-99429500D01*
X161169407Y-99371309D01*
X161218907Y-99335345D01*
X161249500Y-99330500D01*
X161805544Y-99330500D01*
X161826590Y-99332763D01*
X161827830Y-99333032D01*
X161833927Y-99334359D01*
X161884356Y-99330752D01*
X161891419Y-99330500D01*
X161905799Y-99330500D01*
X161920043Y-99328451D01*
X161927043Y-99327698D01*
X161977483Y-99324091D01*
X161984515Y-99321467D01*
X162005022Y-99316233D01*
X162012457Y-99315165D01*
X162058450Y-99294159D01*
X162064952Y-99291466D01*
X162112331Y-99273796D01*
X162118342Y-99269296D01*
X162136549Y-99258492D01*
X162143373Y-99255377D01*
X162181589Y-99222261D01*
X162187053Y-99217858D01*
X162198593Y-99209221D01*
X162208777Y-99199035D01*
X162213921Y-99194245D01*
X162252143Y-99161128D01*
X162256202Y-99154811D01*
X162269477Y-99138335D01*
X163628318Y-97779496D01*
X163682835Y-97751719D01*
X163698322Y-97750500D01*
X164179273Y-97750500D01*
X164179273Y-97750499D01*
X164209699Y-97747646D01*
X164337882Y-97702793D01*
X164447150Y-97622150D01*
X164527793Y-97512882D01*
X164572646Y-97384699D01*
X164575499Y-97354273D01*
X164575500Y-97354273D01*
X164575500Y-96873322D01*
X164594407Y-96815131D01*
X164604496Y-96803318D01*
X164798318Y-96609496D01*
X164852835Y-96581719D01*
X164868322Y-96580500D01*
X165185804Y-96580500D01*
X165274016Y-96567816D01*
X165292457Y-96565165D01*
X165292465Y-96565161D01*
X165294683Y-96564511D01*
X165322582Y-96560499D01*
X165359897Y-96560499D01*
X165359900Y-96560499D01*
X165409487Y-96553972D01*
X165409488Y-96553972D01*
X165468137Y-96526622D01*
X165518316Y-96503224D01*
X165530498Y-96491041D01*
X165585013Y-96463266D01*
X165645445Y-96472837D01*
X165688710Y-96516102D01*
X165699500Y-96561047D01*
X165699500Y-96694748D01*
X165699501Y-96694760D01*
X165711132Y-96753229D01*
X165711134Y-96753235D01*
X165755445Y-96819550D01*
X165755448Y-96819554D01*
X165821769Y-96863869D01*
X165866231Y-96872713D01*
X165880241Y-96875500D01*
X165880246Y-96875500D01*
X165880252Y-96875502D01*
X165880253Y-96875502D01*
X167519747Y-96875502D01*
X167519748Y-96875502D01*
X167578231Y-96863869D01*
X167644552Y-96819554D01*
X167688867Y-96753233D01*
X167700500Y-96694750D01*
X167700500Y-95136191D01*
X167719407Y-95078000D01*
X167729496Y-95066187D01*
X167930496Y-94865187D01*
X167985013Y-94837410D01*
X168045445Y-94846981D01*
X168088710Y-94890246D01*
X168099500Y-94935191D01*
X168099500Y-96694748D01*
X168099501Y-96694760D01*
X168111132Y-96753229D01*
X168111134Y-96753235D01*
X168155445Y-96819550D01*
X168155448Y-96819554D01*
X168221769Y-96863869D01*
X168266231Y-96872713D01*
X168280241Y-96875500D01*
X168280246Y-96875500D01*
X168280252Y-96875502D01*
X168280253Y-96875502D01*
X169919747Y-96875502D01*
X169919748Y-96875502D01*
X169978231Y-96863869D01*
X170044552Y-96819554D01*
X170088867Y-96753233D01*
X170100500Y-96694750D01*
X170100500Y-94505252D01*
X170088867Y-94446769D01*
X170044552Y-94380448D01*
X170044551Y-94380447D01*
X170044253Y-94380001D01*
X170027644Y-94321113D01*
X170044253Y-94269996D01*
X170044549Y-94269552D01*
X170044552Y-94269551D01*
X170088867Y-94203230D01*
X170100500Y-94144747D01*
X170100500Y-93755251D01*
X170093350Y-93719307D01*
X170093350Y-93680685D01*
X170100500Y-93644748D01*
X170100500Y-93255252D01*
X170088867Y-93196769D01*
X170044552Y-93130448D01*
X170044551Y-93130447D01*
X170044421Y-93130252D01*
X170027812Y-93071364D01*
X170044421Y-93020248D01*
X170051171Y-93010146D01*
X170088867Y-92953731D01*
X170100500Y-92895248D01*
X170100500Y-92380752D01*
X170100499Y-92380750D01*
X170100499Y-92380743D01*
X170091105Y-92333521D01*
X170098295Y-92272759D01*
X170109708Y-92254658D01*
X170109586Y-92254575D01*
X170111791Y-92251355D01*
X170112050Y-92250945D01*
X170112167Y-92250803D01*
X170112174Y-92250797D01*
X170112238Y-92250702D01*
X170120753Y-92239953D01*
X170139916Y-92218933D01*
X170143464Y-92209771D01*
X170154111Y-92189576D01*
X170159657Y-92181481D01*
X170166171Y-92153782D01*
X170170222Y-92140701D01*
X170180500Y-92114173D01*
X170180500Y-92104348D01*
X170183130Y-92081679D01*
X170185379Y-92072119D01*
X170182294Y-92050001D01*
X170181449Y-92043944D01*
X170180500Y-92030268D01*
X170180500Y-91631239D01*
X170199407Y-91573048D01*
X170212764Y-91559921D01*
X170212191Y-91559348D01*
X170218314Y-91553224D01*
X170218316Y-91553224D01*
X170303224Y-91468316D01*
X170353972Y-91359487D01*
X170360500Y-91309901D01*
X170360499Y-90890100D01*
X170353972Y-90840513D01*
X170353972Y-90840511D01*
X170303225Y-90731686D01*
X170303224Y-90731685D01*
X170303224Y-90731684D01*
X170218316Y-90646776D01*
X170218314Y-90646775D01*
X170218313Y-90646774D01*
X170109489Y-90596029D01*
X170109488Y-90596028D01*
X170084694Y-90592764D01*
X170059901Y-90589500D01*
X170059900Y-90589500D01*
X169835479Y-90589500D01*
X169777288Y-90570593D01*
X169765475Y-90560504D01*
X169388565Y-90183594D01*
X169380479Y-90172344D01*
X169379487Y-90173094D01*
X169373958Y-90165772D01*
X169339272Y-90134151D01*
X169335968Y-90130996D01*
X169322800Y-90117828D01*
X169322796Y-90117825D01*
X169322693Y-90117755D01*
X169311962Y-90109255D01*
X169290933Y-90090084D01*
X169281762Y-90086531D01*
X169261586Y-90075895D01*
X169253484Y-90070345D01*
X169253479Y-90070343D01*
X169225797Y-90063832D01*
X169212703Y-90059777D01*
X169186177Y-90049500D01*
X169186173Y-90049500D01*
X169176348Y-90049500D01*
X169153683Y-90046870D01*
X169144119Y-90044621D01*
X169144118Y-90044621D01*
X169115946Y-90048551D01*
X169102269Y-90049500D01*
X167689859Y-90049500D01*
X167676183Y-90047267D01*
X167676012Y-90048494D01*
X167666928Y-90047226D01*
X167620053Y-90049394D01*
X167615481Y-90049500D01*
X167596847Y-90049500D01*
X167596724Y-90049523D01*
X167583114Y-90051101D01*
X167554705Y-90052414D01*
X167554701Y-90052415D01*
X167545710Y-90056385D01*
X167523922Y-90063132D01*
X167514265Y-90064937D01*
X167514259Y-90064940D01*
X167490076Y-90079912D01*
X167477957Y-90086300D01*
X167451932Y-90097792D01*
X167451928Y-90097795D01*
X167444979Y-90104744D01*
X167427104Y-90118903D01*
X167418743Y-90124080D01*
X167401602Y-90146778D01*
X167392604Y-90157118D01*
X166983590Y-90566132D01*
X166972361Y-90574245D01*
X166973090Y-90575210D01*
X166965771Y-90580736D01*
X166934141Y-90615432D01*
X166930989Y-90618733D01*
X166917830Y-90631893D01*
X166917818Y-90631907D01*
X166917749Y-90632009D01*
X166909255Y-90642730D01*
X166890083Y-90663761D01*
X166890083Y-90663762D01*
X166886529Y-90672935D01*
X166875896Y-90693107D01*
X166870346Y-90701210D01*
X166870341Y-90701219D01*
X166863830Y-90728901D01*
X166859777Y-90741991D01*
X166849501Y-90768518D01*
X166849500Y-90768524D01*
X166849500Y-90778346D01*
X166846870Y-90801013D01*
X166844621Y-90810574D01*
X166848551Y-90838748D01*
X166849500Y-90852425D01*
X166849500Y-91310140D01*
X166847280Y-91323818D01*
X166848494Y-91323988D01*
X166847226Y-91333071D01*
X166849394Y-91379946D01*
X166849500Y-91384518D01*
X166849500Y-91403149D01*
X166849522Y-91403271D01*
X166851101Y-91416882D01*
X166852414Y-91445292D01*
X166852415Y-91445299D01*
X166856384Y-91454287D01*
X166863132Y-91476077D01*
X166864939Y-91485738D01*
X166873809Y-91500065D01*
X166879912Y-91509922D01*
X166886301Y-91522043D01*
X166897794Y-91548070D01*
X166904745Y-91555021D01*
X166918907Y-91572901D01*
X166924081Y-91581257D01*
X166946781Y-91598399D01*
X166957117Y-91607393D01*
X167070505Y-91720781D01*
X167098282Y-91775298D01*
X167099501Y-91790785D01*
X167099501Y-91896904D01*
X167082816Y-91951906D01*
X167036135Y-92021767D01*
X167036133Y-92021773D01*
X167024502Y-92080242D01*
X167024501Y-92080254D01*
X167024501Y-92101000D01*
X167005594Y-92159191D01*
X166956094Y-92195155D01*
X166925501Y-92200000D01*
X165880252Y-92200000D01*
X165880251Y-92200000D01*
X165880241Y-92200001D01*
X165821772Y-92211632D01*
X165821764Y-92211635D01*
X165807044Y-92221471D01*
X165748156Y-92238079D01*
X165690752Y-92216900D01*
X165656761Y-92166026D01*
X165653296Y-92146217D01*
X165650752Y-92110642D01*
X165650500Y-92103580D01*
X165650500Y-92089201D01*
X165649213Y-92080253D01*
X165648451Y-92074953D01*
X165647698Y-92067957D01*
X165644091Y-92017517D01*
X165641468Y-92010484D01*
X165636233Y-91989975D01*
X165635165Y-91982543D01*
X165614165Y-91936560D01*
X165611460Y-91930029D01*
X165593797Y-91882670D01*
X165591805Y-91880009D01*
X165589291Y-91876651D01*
X165578495Y-91858454D01*
X165575377Y-91851627D01*
X165575375Y-91851625D01*
X165575375Y-91851624D01*
X165542281Y-91813432D01*
X165537847Y-91807930D01*
X165529223Y-91796410D01*
X165529221Y-91796407D01*
X165519031Y-91786217D01*
X165514229Y-91781058D01*
X165481128Y-91742857D01*
X165481127Y-91742856D01*
X165474810Y-91738796D01*
X165458332Y-91725518D01*
X164353863Y-90621049D01*
X164326086Y-90566532D01*
X164335657Y-90506100D01*
X164344212Y-90492257D01*
X164402792Y-90412883D01*
X164402791Y-90412883D01*
X164402793Y-90412882D01*
X164447646Y-90284699D01*
X164450499Y-90254273D01*
X164450500Y-90254273D01*
X164450500Y-89495727D01*
X164450499Y-89495725D01*
X164447646Y-89465305D01*
X164447646Y-89465301D01*
X164402793Y-89337118D01*
X164400704Y-89334288D01*
X164322154Y-89227855D01*
X164322152Y-89227853D01*
X164322150Y-89227850D01*
X164322146Y-89227847D01*
X164322144Y-89227845D01*
X164212883Y-89147207D01*
X164084703Y-89102355D01*
X164084694Y-89102353D01*
X164054274Y-89099500D01*
X164054266Y-89099500D01*
X161745734Y-89099500D01*
X161745725Y-89099500D01*
X161715305Y-89102353D01*
X161715296Y-89102355D01*
X161587116Y-89147207D01*
X161477855Y-89227845D01*
X161477850Y-89227850D01*
X161399294Y-89334290D01*
X161349529Y-89369881D01*
X161319641Y-89374500D01*
X160473322Y-89374500D01*
X160415131Y-89355593D01*
X160403318Y-89345504D01*
X160004623Y-88946809D01*
X159976846Y-88892292D01*
X159986417Y-88831860D01*
X160021673Y-88796603D01*
X160020124Y-88794284D01*
X160028936Y-88788396D01*
X160094552Y-88744552D01*
X160138867Y-88678231D01*
X160150500Y-88619748D01*
X160150500Y-88199500D01*
X160169407Y-88141309D01*
X160218907Y-88105345D01*
X160249500Y-88100500D01*
X165095460Y-88100500D01*
X165153651Y-88119407D01*
X165177399Y-88143940D01*
X165188910Y-88160917D01*
X165188914Y-88160922D01*
X165188915Y-88160923D01*
X165427622Y-88441951D01*
X165427632Y-88441961D01*
X165695326Y-88695535D01*
X165695330Y-88695538D01*
X165988881Y-88918690D01*
X166304838Y-89108795D01*
X166639497Y-89263625D01*
X166988934Y-89381364D01*
X166988939Y-89381365D01*
X166988942Y-89381366D01*
X167349047Y-89460631D01*
X167349048Y-89460631D01*
X167349052Y-89460632D01*
X167715630Y-89500500D01*
X168084370Y-89500500D01*
X168450948Y-89460632D01*
X168811057Y-89381366D01*
X168811058Y-89381366D01*
X168811060Y-89381365D01*
X168811066Y-89381364D01*
X169160503Y-89263625D01*
X169495162Y-89108795D01*
X169811119Y-88918690D01*
X170104670Y-88695538D01*
X170372373Y-88441956D01*
X170611090Y-88160917D01*
X170818022Y-87855716D01*
X170990743Y-87529930D01*
X171127227Y-87187379D01*
X171225875Y-86832081D01*
X171285531Y-86468199D01*
X171305494Y-86100000D01*
X171285531Y-85731801D01*
X171225875Y-85367919D01*
X171193274Y-85250500D01*
X171127231Y-85012634D01*
X171127229Y-85012629D01*
X171127227Y-85012621D01*
X170990743Y-84670070D01*
X170818022Y-84344284D01*
X170611090Y-84039083D01*
X170483819Y-83889248D01*
X170372377Y-83758048D01*
X170372367Y-83758038D01*
X170104673Y-83504464D01*
X169811123Y-83281313D01*
X169811122Y-83281312D01*
X169811119Y-83281310D01*
X169495162Y-83091205D01*
X169290530Y-82996532D01*
X169160508Y-82936377D01*
X169160505Y-82936376D01*
X169160503Y-82936375D01*
X168811066Y-82818636D01*
X168811065Y-82818635D01*
X168811057Y-82818633D01*
X168450952Y-82739368D01*
X168450953Y-82739368D01*
X168084370Y-82699500D01*
X167715630Y-82699500D01*
X167349046Y-82739368D01*
X166988943Y-82818633D01*
X166988941Y-82818633D01*
X166639491Y-82936377D01*
X166304846Y-83091201D01*
X166304840Y-83091204D01*
X165988881Y-83281310D01*
X165988876Y-83281313D01*
X165695326Y-83504464D01*
X165427632Y-83758038D01*
X165427622Y-83758048D01*
X165188915Y-84039076D01*
X165188908Y-84039086D01*
X164981981Y-84344278D01*
X164809255Y-84670072D01*
X164672772Y-85012623D01*
X164672768Y-85012634D01*
X164574126Y-85367912D01*
X164514468Y-85731802D01*
X164494506Y-86100000D01*
X164514468Y-86468197D01*
X164574125Y-86832085D01*
X164613533Y-86974014D01*
X164610883Y-87035142D01*
X164572809Y-87083038D01*
X164518142Y-87099500D01*
X160249500Y-87099500D01*
X160191309Y-87080593D01*
X160155345Y-87031093D01*
X160150500Y-87000500D01*
X160150500Y-86580253D01*
X160150498Y-86580241D01*
X160147711Y-86566231D01*
X160138867Y-86521769D01*
X160094552Y-86455448D01*
X160094548Y-86455445D01*
X160028233Y-86411134D01*
X160028231Y-86411133D01*
X160028228Y-86411132D01*
X160028227Y-86411132D01*
X159969758Y-86399501D01*
X159969748Y-86399500D01*
X159969747Y-86399500D01*
X157498322Y-86399500D01*
X157440131Y-86380593D01*
X157428318Y-86370504D01*
X156599480Y-85541666D01*
X156586199Y-85525183D01*
X156582144Y-85518873D01*
X156582143Y-85518872D01*
X156543934Y-85485764D01*
X156538777Y-85480962D01*
X156528595Y-85470781D01*
X156528593Y-85470779D01*
X156517052Y-85462140D01*
X156511588Y-85457736D01*
X156473373Y-85424623D01*
X156466538Y-85421501D01*
X156448348Y-85410708D01*
X156447293Y-85409918D01*
X156442331Y-85406204D01*
X156442328Y-85406203D01*
X156442327Y-85406202D01*
X156394970Y-85388539D01*
X156388441Y-85385835D01*
X156342457Y-85364835D01*
X156342454Y-85364834D01*
X156335014Y-85363764D01*
X156314520Y-85358533D01*
X156307482Y-85355908D01*
X156307483Y-85355908D01*
X156257062Y-85352302D01*
X156250040Y-85351547D01*
X156235799Y-85349500D01*
X156221419Y-85349500D01*
X156214356Y-85349248D01*
X156210455Y-85348969D01*
X156163927Y-85345641D01*
X156163926Y-85345641D01*
X156163925Y-85345641D01*
X156156590Y-85347237D01*
X156135544Y-85349500D01*
X147849500Y-85349500D01*
X147791309Y-85330593D01*
X147755345Y-85281093D01*
X147750500Y-85250500D01*
X147750500Y-84795727D01*
X147750499Y-84795725D01*
X147747646Y-84765305D01*
X147747646Y-84765301D01*
X147702793Y-84637118D01*
X147666032Y-84587309D01*
X147622154Y-84527855D01*
X147622152Y-84527853D01*
X147622150Y-84527850D01*
X147622146Y-84527847D01*
X147622144Y-84527845D01*
X147512883Y-84447207D01*
X147384703Y-84402355D01*
X147384694Y-84402353D01*
X147354274Y-84399500D01*
X147354266Y-84399500D01*
X145945734Y-84399500D01*
X145945725Y-84399500D01*
X145915305Y-84402353D01*
X145915296Y-84402355D01*
X145787116Y-84447207D01*
X145677855Y-84527845D01*
X145677845Y-84527855D01*
X145597207Y-84637116D01*
X145552355Y-84765296D01*
X145552353Y-84765305D01*
X145549500Y-84795725D01*
X145549500Y-85250500D01*
X145530593Y-85308691D01*
X145481093Y-85344655D01*
X145450500Y-85349500D01*
X140296018Y-85349500D01*
X140237827Y-85330593D01*
X140201863Y-85281093D01*
X140200642Y-85277040D01*
X140127227Y-85012621D01*
X139990743Y-84670070D01*
X139818022Y-84344284D01*
X139611090Y-84039083D01*
X139483819Y-83889248D01*
X139372377Y-83758048D01*
X139372367Y-83758038D01*
X139104673Y-83504464D01*
X138811123Y-83281313D01*
X138811122Y-83281312D01*
X138811119Y-83281310D01*
X138495162Y-83091205D01*
X138290530Y-82996532D01*
X138160508Y-82936377D01*
X138160505Y-82936376D01*
X138160503Y-82936375D01*
X137811066Y-82818636D01*
X137811065Y-82818635D01*
X137811057Y-82818633D01*
X137450952Y-82739368D01*
X137450953Y-82739368D01*
X137084370Y-82699500D01*
X136715630Y-82699500D01*
X136349046Y-82739368D01*
X135988943Y-82818633D01*
X135988941Y-82818633D01*
X135639491Y-82936377D01*
X135304846Y-83091201D01*
X135304840Y-83091204D01*
X134988881Y-83281310D01*
X134988876Y-83281313D01*
X134695326Y-83504464D01*
X134427632Y-83758038D01*
X134427622Y-83758048D01*
X134188915Y-84039076D01*
X134188908Y-84039086D01*
X133981981Y-84344278D01*
X133809255Y-84670072D01*
X133672772Y-85012623D01*
X133672768Y-85012634D01*
X133574126Y-85367912D01*
X133514468Y-85731802D01*
X133494506Y-86100000D01*
X132700553Y-86100000D01*
X132700606Y-86097707D01*
X132710190Y-85890406D01*
X132718202Y-85717091D01*
X132719045Y-85707993D01*
X132771374Y-85332856D01*
X132773050Y-85323895D01*
X132859765Y-84955205D01*
X132862266Y-84946416D01*
X132954888Y-84670072D01*
X132982629Y-84587301D01*
X132985930Y-84578782D01*
X133138919Y-84232295D01*
X133142980Y-84224138D01*
X133327290Y-83893237D01*
X133332093Y-83885481D01*
X133546144Y-83573006D01*
X133551654Y-83565711D01*
X133602513Y-83504464D01*
X133793613Y-83274329D01*
X133799753Y-83267593D01*
X134067593Y-82999753D01*
X134074329Y-82993613D01*
X134365712Y-82751652D01*
X134373008Y-82746143D01*
X134441098Y-82699500D01*
X134685481Y-82532093D01*
X134693237Y-82527290D01*
X135024138Y-82342980D01*
X135032295Y-82338919D01*
X135378789Y-82185927D01*
X135387301Y-82182629D01*
X135746421Y-82062264D01*
X135755205Y-82059765D01*
X136123895Y-81973050D01*
X136132856Y-81971374D01*
X136508000Y-81919044D01*
X136517091Y-81918202D01*
X136897707Y-81900605D01*
X136902279Y-81900500D01*
X136947595Y-81900500D01*
X139299462Y-81900500D01*
X139357653Y-81919407D01*
G37*
G04 #@! TD.AperFunction*
M02*
