G04 #@! TF.GenerationSoftware,KiCad,Pcbnew,7.0.11*
G04 #@! TF.CreationDate,2024-09-26T14:02:19-04:00*
G04 #@! TF.ProjectId,prism-pcb,70726973-6d2d-4706-9362-2e6b69636164,2.0*
G04 #@! TF.SameCoordinates,Original*
G04 #@! TF.FileFunction,Legend,Top*
G04 #@! TF.FilePolarity,Positive*
%FSLAX46Y46*%
G04 Gerber Fmt 4.6, Leading zero omitted, Abs format (unit mm)*
G04 Created by KiCad (PCBNEW 7.0.11) date 2024-09-26 14:02:19*
%MOMM*%
%LPD*%
G01*
G04 APERTURE LIST*
G04 Aperture macros list*
%AMRoundRect*
0 Rectangle with rounded corners*
0 $1 Rounding radius*
0 $2 $3 $4 $5 $6 $7 $8 $9 X,Y pos of 4 corners*
0 Add a 4 corners polygon primitive as box body*
4,1,4,$2,$3,$4,$5,$6,$7,$8,$9,$2,$3,0*
0 Add four circle primitives for the rounded corners*
1,1,$1+$1,$2,$3*
1,1,$1+$1,$4,$5*
1,1,$1+$1,$6,$7*
1,1,$1+$1,$8,$9*
0 Add four rect primitives between the rounded corners*
20,1,$1+$1,$2,$3,$4,$5,0*
20,1,$1+$1,$4,$5,$6,$7,0*
20,1,$1+$1,$6,$7,$8,$9,0*
20,1,$1+$1,$8,$9,$2,$3,0*%
G04 Aperture macros list end*
%ADD10C,0.150000*%
%ADD11C,0.250000*%
%ADD12C,0.175000*%
%ADD13C,0.125000*%
%ADD14C,0.300000*%
%ADD15C,0.120000*%
%ADD16C,0.127000*%
%ADD17C,0.100000*%
%ADD18C,0.200000*%
%ADD19C,0.010000*%
%ADD20C,1.000000*%
%ADD21RoundRect,0.250000X0.312500X0.625000X-0.312500X0.625000X-0.312500X-0.625000X0.312500X-0.625000X0*%
%ADD22RoundRect,0.140000X-0.140000X-0.170000X0.140000X-0.170000X0.140000X0.170000X-0.140000X0.170000X0*%
%ADD23RoundRect,0.250000X1.100000X-0.325000X1.100000X0.325000X-1.100000X0.325000X-1.100000X-0.325000X0*%
%ADD24RoundRect,0.250000X-0.250000X-0.475000X0.250000X-0.475000X0.250000X0.475000X-0.250000X0.475000X0*%
%ADD25C,6.400000*%
%ADD26RoundRect,0.140000X0.140000X0.170000X-0.140000X0.170000X-0.140000X-0.170000X0.140000X-0.170000X0*%
%ADD27RoundRect,0.140000X-0.170000X0.140000X-0.170000X-0.140000X0.170000X-0.140000X0.170000X0.140000X0*%
%ADD28R,0.700000X0.500000*%
%ADD29C,0.650000*%
%ADD30RoundRect,0.150000X-0.425000X0.150000X-0.425000X-0.150000X0.425000X-0.150000X0.425000X0.150000X0*%
%ADD31RoundRect,0.075000X-0.500000X0.075000X-0.500000X-0.075000X0.500000X-0.075000X0.500000X0.075000X0*%
%ADD32R,1.700000X1.700000*%
%ADD33O,2.000000X1.100000*%
%ADD34RoundRect,0.075000X-0.662500X-0.075000X0.662500X-0.075000X0.662500X0.075000X-0.662500X0.075000X0*%
%ADD35RoundRect,0.075000X-0.075000X-0.662500X0.075000X-0.662500X0.075000X0.662500X-0.075000X0.662500X0*%
%ADD36R,5.000000X5.000000*%
%ADD37RoundRect,0.135000X0.185000X-0.135000X0.185000X0.135000X-0.185000X0.135000X-0.185000X-0.135000X0*%
%ADD38RoundRect,0.250000X0.650000X-1.000000X0.650000X1.000000X-0.650000X1.000000X-0.650000X-1.000000X0*%
%ADD39RoundRect,0.250000X0.262500X0.450000X-0.262500X0.450000X-0.262500X-0.450000X0.262500X-0.450000X0*%
%ADD40RoundRect,0.135000X-0.185000X0.135000X-0.185000X-0.135000X0.185000X-0.135000X0.185000X0.135000X0*%
%ADD41RoundRect,0.140000X0.170000X-0.140000X0.170000X0.140000X-0.170000X0.140000X-0.170000X-0.140000X0*%
%ADD42R,1.800000X1.300000*%
%ADD43RoundRect,0.102000X-2.000000X-1.000000X2.000000X-1.000000X2.000000X1.000000X-2.000000X1.000000X0*%
%ADD44R,0.500000X1.000000*%
%ADD45R,0.700000X1.000000*%
%ADD46RoundRect,0.135000X0.135000X0.185000X-0.135000X0.185000X-0.135000X-0.185000X0.135000X-0.185000X0*%
%ADD47RoundRect,0.225000X0.225000X0.250000X-0.225000X0.250000X-0.225000X-0.250000X0.225000X-0.250000X0*%
%ADD48RoundRect,0.250000X-0.475000X0.250000X-0.475000X-0.250000X0.475000X-0.250000X0.475000X0.250000X0*%
%ADD49R,0.900000X1.350000*%
%ADD50R,0.305000X0.889000*%
G04 APERTURE END LIST*
D10*
X135428572Y-90920771D02*
X135428572Y-90520771D01*
X135428572Y-90320771D02*
X135400000Y-90349342D01*
X135400000Y-90349342D02*
X135428572Y-90377914D01*
X135428572Y-90377914D02*
X135457143Y-90349342D01*
X135457143Y-90349342D02*
X135428572Y-90320771D01*
X135428572Y-90320771D02*
X135428572Y-90377914D01*
X135685714Y-90892200D02*
X135742857Y-90920771D01*
X135742857Y-90920771D02*
X135857143Y-90920771D01*
X135857143Y-90920771D02*
X135914286Y-90892200D01*
X135914286Y-90892200D02*
X135942857Y-90835057D01*
X135942857Y-90835057D02*
X135942857Y-90806485D01*
X135942857Y-90806485D02*
X135914286Y-90749342D01*
X135914286Y-90749342D02*
X135857143Y-90720771D01*
X135857143Y-90720771D02*
X135771429Y-90720771D01*
X135771429Y-90720771D02*
X135714286Y-90692200D01*
X135714286Y-90692200D02*
X135685714Y-90635057D01*
X135685714Y-90635057D02*
X135685714Y-90606485D01*
X135685714Y-90606485D02*
X135714286Y-90549342D01*
X135714286Y-90549342D02*
X135771429Y-90520771D01*
X135771429Y-90520771D02*
X135857143Y-90520771D01*
X135857143Y-90520771D02*
X135914286Y-90549342D01*
X136285714Y-90920771D02*
X136228571Y-90892200D01*
X136228571Y-90892200D02*
X136200000Y-90863628D01*
X136200000Y-90863628D02*
X136171428Y-90806485D01*
X136171428Y-90806485D02*
X136171428Y-90635057D01*
X136171428Y-90635057D02*
X136200000Y-90577914D01*
X136200000Y-90577914D02*
X136228571Y-90549342D01*
X136228571Y-90549342D02*
X136285714Y-90520771D01*
X136285714Y-90520771D02*
X136371428Y-90520771D01*
X136371428Y-90520771D02*
X136428571Y-90549342D01*
X136428571Y-90549342D02*
X136457143Y-90577914D01*
X136457143Y-90577914D02*
X136485714Y-90635057D01*
X136485714Y-90635057D02*
X136485714Y-90806485D01*
X136485714Y-90806485D02*
X136457143Y-90863628D01*
X136457143Y-90863628D02*
X136428571Y-90892200D01*
X136428571Y-90892200D02*
X136371428Y-90920771D01*
X136371428Y-90920771D02*
X136285714Y-90920771D01*
X136714285Y-90892200D02*
X136800000Y-90920771D01*
X136800000Y-90920771D02*
X136942857Y-90920771D01*
X136942857Y-90920771D02*
X137000000Y-90892200D01*
X137000000Y-90892200D02*
X137028571Y-90863628D01*
X137028571Y-90863628D02*
X137057142Y-90806485D01*
X137057142Y-90806485D02*
X137057142Y-90749342D01*
X137057142Y-90749342D02*
X137028571Y-90692200D01*
X137028571Y-90692200D02*
X137000000Y-90663628D01*
X137000000Y-90663628D02*
X136942857Y-90635057D01*
X136942857Y-90635057D02*
X136828571Y-90606485D01*
X136828571Y-90606485D02*
X136771428Y-90577914D01*
X136771428Y-90577914D02*
X136742857Y-90549342D01*
X136742857Y-90549342D02*
X136714285Y-90492200D01*
X136714285Y-90492200D02*
X136714285Y-90435057D01*
X136714285Y-90435057D02*
X136742857Y-90377914D01*
X136742857Y-90377914D02*
X136771428Y-90349342D01*
X136771428Y-90349342D02*
X136828571Y-90320771D01*
X136828571Y-90320771D02*
X136971428Y-90320771D01*
X136971428Y-90320771D02*
X137057142Y-90349342D01*
X137314286Y-90920771D02*
X137314286Y-90320771D01*
X137314286Y-90320771D02*
X137542857Y-90320771D01*
X137542857Y-90320771D02*
X137600000Y-90349342D01*
X137600000Y-90349342D02*
X137628571Y-90377914D01*
X137628571Y-90377914D02*
X137657143Y-90435057D01*
X137657143Y-90435057D02*
X137657143Y-90520771D01*
X137657143Y-90520771D02*
X137628571Y-90577914D01*
X137628571Y-90577914D02*
X137600000Y-90606485D01*
X137600000Y-90606485D02*
X137542857Y-90635057D01*
X137542857Y-90635057D02*
X137314286Y-90635057D01*
X137914286Y-90920771D02*
X137914286Y-90320771D01*
X134771428Y-91486771D02*
X134771428Y-92086771D01*
X134771428Y-91515342D02*
X134828571Y-91486771D01*
X134828571Y-91486771D02*
X134942856Y-91486771D01*
X134942856Y-91486771D02*
X134999999Y-91515342D01*
X134999999Y-91515342D02*
X135028571Y-91543914D01*
X135028571Y-91543914D02*
X135057142Y-91601057D01*
X135057142Y-91601057D02*
X135057142Y-91772485D01*
X135057142Y-91772485D02*
X135028571Y-91829628D01*
X135028571Y-91829628D02*
X134999999Y-91858200D01*
X134999999Y-91858200D02*
X134942856Y-91886771D01*
X134942856Y-91886771D02*
X134828571Y-91886771D01*
X134828571Y-91886771D02*
X134771428Y-91858200D01*
X135542856Y-91858200D02*
X135485713Y-91886771D01*
X135485713Y-91886771D02*
X135371428Y-91886771D01*
X135371428Y-91886771D02*
X135314285Y-91858200D01*
X135314285Y-91858200D02*
X135285713Y-91801057D01*
X135285713Y-91801057D02*
X135285713Y-91572485D01*
X135285713Y-91572485D02*
X135314285Y-91515342D01*
X135314285Y-91515342D02*
X135371428Y-91486771D01*
X135371428Y-91486771D02*
X135485713Y-91486771D01*
X135485713Y-91486771D02*
X135542856Y-91515342D01*
X135542856Y-91515342D02*
X135571428Y-91572485D01*
X135571428Y-91572485D02*
X135571428Y-91629628D01*
X135571428Y-91629628D02*
X135285713Y-91686771D01*
X135828571Y-91886771D02*
X135828571Y-91486771D01*
X135828571Y-91601057D02*
X135857142Y-91543914D01*
X135857142Y-91543914D02*
X135885714Y-91515342D01*
X135885714Y-91515342D02*
X135942856Y-91486771D01*
X135942856Y-91486771D02*
X135999999Y-91486771D01*
X136200000Y-91886771D02*
X136200000Y-91486771D01*
X136200000Y-91286771D02*
X136171428Y-91315342D01*
X136171428Y-91315342D02*
X136200000Y-91343914D01*
X136200000Y-91343914D02*
X136228571Y-91315342D01*
X136228571Y-91315342D02*
X136200000Y-91286771D01*
X136200000Y-91286771D02*
X136200000Y-91343914D01*
X136485714Y-91486771D02*
X136485714Y-92086771D01*
X136485714Y-91515342D02*
X136542857Y-91486771D01*
X136542857Y-91486771D02*
X136657142Y-91486771D01*
X136657142Y-91486771D02*
X136714285Y-91515342D01*
X136714285Y-91515342D02*
X136742857Y-91543914D01*
X136742857Y-91543914D02*
X136771428Y-91601057D01*
X136771428Y-91601057D02*
X136771428Y-91772485D01*
X136771428Y-91772485D02*
X136742857Y-91829628D01*
X136742857Y-91829628D02*
X136714285Y-91858200D01*
X136714285Y-91858200D02*
X136657142Y-91886771D01*
X136657142Y-91886771D02*
X136542857Y-91886771D01*
X136542857Y-91886771D02*
X136485714Y-91858200D01*
X137028571Y-91886771D02*
X137028571Y-91286771D01*
X137285714Y-91886771D02*
X137285714Y-91572485D01*
X137285714Y-91572485D02*
X137257142Y-91515342D01*
X137257142Y-91515342D02*
X137199999Y-91486771D01*
X137199999Y-91486771D02*
X137114285Y-91486771D01*
X137114285Y-91486771D02*
X137057142Y-91515342D01*
X137057142Y-91515342D02*
X137028571Y-91543914D01*
X137799999Y-91858200D02*
X137742856Y-91886771D01*
X137742856Y-91886771D02*
X137628571Y-91886771D01*
X137628571Y-91886771D02*
X137571428Y-91858200D01*
X137571428Y-91858200D02*
X137542856Y-91801057D01*
X137542856Y-91801057D02*
X137542856Y-91572485D01*
X137542856Y-91572485D02*
X137571428Y-91515342D01*
X137571428Y-91515342D02*
X137628571Y-91486771D01*
X137628571Y-91486771D02*
X137742856Y-91486771D01*
X137742856Y-91486771D02*
X137799999Y-91515342D01*
X137799999Y-91515342D02*
X137828571Y-91572485D01*
X137828571Y-91572485D02*
X137828571Y-91629628D01*
X137828571Y-91629628D02*
X137542856Y-91686771D01*
X138085714Y-91886771D02*
X138085714Y-91486771D01*
X138085714Y-91601057D02*
X138114285Y-91543914D01*
X138114285Y-91543914D02*
X138142857Y-91515342D01*
X138142857Y-91515342D02*
X138199999Y-91486771D01*
X138199999Y-91486771D02*
X138257142Y-91486771D01*
X138714286Y-91886771D02*
X138714286Y-91572485D01*
X138714286Y-91572485D02*
X138685714Y-91515342D01*
X138685714Y-91515342D02*
X138628571Y-91486771D01*
X138628571Y-91486771D02*
X138514286Y-91486771D01*
X138514286Y-91486771D02*
X138457143Y-91515342D01*
X138714286Y-91858200D02*
X138657143Y-91886771D01*
X138657143Y-91886771D02*
X138514286Y-91886771D01*
X138514286Y-91886771D02*
X138457143Y-91858200D01*
X138457143Y-91858200D02*
X138428571Y-91801057D01*
X138428571Y-91801057D02*
X138428571Y-91743914D01*
X138428571Y-91743914D02*
X138457143Y-91686771D01*
X138457143Y-91686771D02*
X138514286Y-91658200D01*
X138514286Y-91658200D02*
X138657143Y-91658200D01*
X138657143Y-91658200D02*
X138714286Y-91629628D01*
X139085714Y-91886771D02*
X139028571Y-91858200D01*
X139028571Y-91858200D02*
X139000000Y-91801057D01*
X139000000Y-91801057D02*
X139000000Y-91286771D01*
X134242857Y-92852771D02*
X134242857Y-92452771D01*
X134242857Y-92509914D02*
X134271428Y-92481342D01*
X134271428Y-92481342D02*
X134328571Y-92452771D01*
X134328571Y-92452771D02*
X134414285Y-92452771D01*
X134414285Y-92452771D02*
X134471428Y-92481342D01*
X134471428Y-92481342D02*
X134500000Y-92538485D01*
X134500000Y-92538485D02*
X134500000Y-92852771D01*
X134500000Y-92538485D02*
X134528571Y-92481342D01*
X134528571Y-92481342D02*
X134585714Y-92452771D01*
X134585714Y-92452771D02*
X134671428Y-92452771D01*
X134671428Y-92452771D02*
X134728571Y-92481342D01*
X134728571Y-92481342D02*
X134757142Y-92538485D01*
X134757142Y-92538485D02*
X134757142Y-92852771D01*
X135128571Y-92852771D02*
X135071428Y-92824200D01*
X135071428Y-92824200D02*
X135042857Y-92795628D01*
X135042857Y-92795628D02*
X135014285Y-92738485D01*
X135014285Y-92738485D02*
X135014285Y-92567057D01*
X135014285Y-92567057D02*
X135042857Y-92509914D01*
X135042857Y-92509914D02*
X135071428Y-92481342D01*
X135071428Y-92481342D02*
X135128571Y-92452771D01*
X135128571Y-92452771D02*
X135214285Y-92452771D01*
X135214285Y-92452771D02*
X135271428Y-92481342D01*
X135271428Y-92481342D02*
X135300000Y-92509914D01*
X135300000Y-92509914D02*
X135328571Y-92567057D01*
X135328571Y-92567057D02*
X135328571Y-92738485D01*
X135328571Y-92738485D02*
X135300000Y-92795628D01*
X135300000Y-92795628D02*
X135271428Y-92824200D01*
X135271428Y-92824200D02*
X135214285Y-92852771D01*
X135214285Y-92852771D02*
X135128571Y-92852771D01*
X135842857Y-92852771D02*
X135842857Y-92252771D01*
X135842857Y-92824200D02*
X135785714Y-92852771D01*
X135785714Y-92852771D02*
X135671428Y-92852771D01*
X135671428Y-92852771D02*
X135614285Y-92824200D01*
X135614285Y-92824200D02*
X135585714Y-92795628D01*
X135585714Y-92795628D02*
X135557142Y-92738485D01*
X135557142Y-92738485D02*
X135557142Y-92567057D01*
X135557142Y-92567057D02*
X135585714Y-92509914D01*
X135585714Y-92509914D02*
X135614285Y-92481342D01*
X135614285Y-92481342D02*
X135671428Y-92452771D01*
X135671428Y-92452771D02*
X135785714Y-92452771D01*
X135785714Y-92452771D02*
X135842857Y-92481342D01*
X136357142Y-92824200D02*
X136299999Y-92852771D01*
X136299999Y-92852771D02*
X136185714Y-92852771D01*
X136185714Y-92852771D02*
X136128571Y-92824200D01*
X136128571Y-92824200D02*
X136099999Y-92767057D01*
X136099999Y-92767057D02*
X136099999Y-92538485D01*
X136099999Y-92538485D02*
X136128571Y-92481342D01*
X136128571Y-92481342D02*
X136185714Y-92452771D01*
X136185714Y-92452771D02*
X136299999Y-92452771D01*
X136299999Y-92452771D02*
X136357142Y-92481342D01*
X136357142Y-92481342D02*
X136385714Y-92538485D01*
X136385714Y-92538485D02*
X136385714Y-92595628D01*
X136385714Y-92595628D02*
X136099999Y-92652771D01*
X137042857Y-92252771D02*
X137414285Y-92252771D01*
X137414285Y-92252771D02*
X137214285Y-92481342D01*
X137214285Y-92481342D02*
X137300000Y-92481342D01*
X137300000Y-92481342D02*
X137357143Y-92509914D01*
X137357143Y-92509914D02*
X137385714Y-92538485D01*
X137385714Y-92538485D02*
X137414285Y-92595628D01*
X137414285Y-92595628D02*
X137414285Y-92738485D01*
X137414285Y-92738485D02*
X137385714Y-92795628D01*
X137385714Y-92795628D02*
X137357143Y-92824200D01*
X137357143Y-92824200D02*
X137300000Y-92852771D01*
X137300000Y-92852771D02*
X137128571Y-92852771D01*
X137128571Y-92852771D02*
X137071428Y-92824200D01*
X137071428Y-92824200D02*
X137042857Y-92795628D01*
X138042857Y-92452771D02*
X138271429Y-92452771D01*
X138128572Y-92852771D02*
X138128572Y-92338485D01*
X138128572Y-92338485D02*
X138157143Y-92281342D01*
X138157143Y-92281342D02*
X138214286Y-92252771D01*
X138214286Y-92252771D02*
X138271429Y-92252771D01*
X138728572Y-92852771D02*
X138728572Y-92538485D01*
X138728572Y-92538485D02*
X138700000Y-92481342D01*
X138700000Y-92481342D02*
X138642857Y-92452771D01*
X138642857Y-92452771D02*
X138528572Y-92452771D01*
X138528572Y-92452771D02*
X138471429Y-92481342D01*
X138728572Y-92824200D02*
X138671429Y-92852771D01*
X138671429Y-92852771D02*
X138528572Y-92852771D01*
X138528572Y-92852771D02*
X138471429Y-92824200D01*
X138471429Y-92824200D02*
X138442857Y-92767057D01*
X138442857Y-92767057D02*
X138442857Y-92709914D01*
X138442857Y-92709914D02*
X138471429Y-92652771D01*
X138471429Y-92652771D02*
X138528572Y-92624200D01*
X138528572Y-92624200D02*
X138671429Y-92624200D01*
X138671429Y-92624200D02*
X138728572Y-92595628D01*
X138985714Y-92824200D02*
X139042857Y-92852771D01*
X139042857Y-92852771D02*
X139157143Y-92852771D01*
X139157143Y-92852771D02*
X139214286Y-92824200D01*
X139214286Y-92824200D02*
X139242857Y-92767057D01*
X139242857Y-92767057D02*
X139242857Y-92738485D01*
X139242857Y-92738485D02*
X139214286Y-92681342D01*
X139214286Y-92681342D02*
X139157143Y-92652771D01*
X139157143Y-92652771D02*
X139071429Y-92652771D01*
X139071429Y-92652771D02*
X139014286Y-92624200D01*
X139014286Y-92624200D02*
X138985714Y-92567057D01*
X138985714Y-92567057D02*
X138985714Y-92538485D01*
X138985714Y-92538485D02*
X139014286Y-92481342D01*
X139014286Y-92481342D02*
X139071429Y-92452771D01*
X139071429Y-92452771D02*
X139157143Y-92452771D01*
X139157143Y-92452771D02*
X139214286Y-92481342D01*
X139414285Y-92452771D02*
X139642857Y-92452771D01*
X139500000Y-92252771D02*
X139500000Y-92767057D01*
X139500000Y-92767057D02*
X139528571Y-92824200D01*
X139528571Y-92824200D02*
X139585714Y-92852771D01*
X139585714Y-92852771D02*
X139642857Y-92852771D01*
X135499999Y-93275914D02*
X135528571Y-93247342D01*
X135528571Y-93247342D02*
X135585714Y-93218771D01*
X135585714Y-93218771D02*
X135728571Y-93218771D01*
X135728571Y-93218771D02*
X135785714Y-93247342D01*
X135785714Y-93247342D02*
X135814285Y-93275914D01*
X135814285Y-93275914D02*
X135842856Y-93333057D01*
X135842856Y-93333057D02*
X135842856Y-93390200D01*
X135842856Y-93390200D02*
X135814285Y-93475914D01*
X135814285Y-93475914D02*
X135471428Y-93818771D01*
X135471428Y-93818771D02*
X135842856Y-93818771D01*
X136357143Y-93418771D02*
X136357143Y-93818771D01*
X136214285Y-93190200D02*
X136071428Y-93618771D01*
X136071428Y-93618771D02*
X136442857Y-93618771D01*
X136585714Y-93218771D02*
X136785714Y-93818771D01*
X136785714Y-93818771D02*
X136985714Y-93218771D01*
X137642858Y-93818771D02*
X137642858Y-93218771D01*
X137928572Y-93818771D02*
X137928572Y-93218771D01*
X137928572Y-93218771D02*
X138271429Y-93818771D01*
X138271429Y-93818771D02*
X138271429Y-93218771D01*
X162081009Y-104092856D02*
X162128628Y-104007142D01*
X162128628Y-104007142D02*
X162176247Y-103978571D01*
X162176247Y-103978571D02*
X162271485Y-103949999D01*
X162271485Y-103949999D02*
X162414342Y-103949999D01*
X162414342Y-103949999D02*
X162509580Y-103978571D01*
X162509580Y-103978571D02*
X162557200Y-104007142D01*
X162557200Y-104007142D02*
X162604819Y-104064285D01*
X162604819Y-104064285D02*
X162604819Y-104292856D01*
X162604819Y-104292856D02*
X161604819Y-104292856D01*
X161604819Y-104292856D02*
X161604819Y-104092856D01*
X161604819Y-104092856D02*
X161652438Y-104035714D01*
X161652438Y-104035714D02*
X161700057Y-104007142D01*
X161700057Y-104007142D02*
X161795295Y-103978571D01*
X161795295Y-103978571D02*
X161890533Y-103978571D01*
X161890533Y-103978571D02*
X161985771Y-104007142D01*
X161985771Y-104007142D02*
X162033390Y-104035714D01*
X162033390Y-104035714D02*
X162081009Y-104092856D01*
X162081009Y-104092856D02*
X162081009Y-104292856D01*
X161700057Y-103721428D02*
X161652438Y-103692856D01*
X161652438Y-103692856D02*
X161604819Y-103635714D01*
X161604819Y-103635714D02*
X161604819Y-103492856D01*
X161604819Y-103492856D02*
X161652438Y-103435714D01*
X161652438Y-103435714D02*
X161700057Y-103407142D01*
X161700057Y-103407142D02*
X161795295Y-103378571D01*
X161795295Y-103378571D02*
X161890533Y-103378571D01*
X161890533Y-103378571D02*
X162033390Y-103407142D01*
X162033390Y-103407142D02*
X162604819Y-103749999D01*
X162604819Y-103749999D02*
X162604819Y-103378571D01*
X162319104Y-99778571D02*
X162319104Y-99492857D01*
X162604819Y-99835714D02*
X161604819Y-99635714D01*
X161604819Y-99635714D02*
X162604819Y-99435714D01*
X162604819Y-98921428D02*
X162604819Y-99264285D01*
X162604819Y-99092856D02*
X161604819Y-99092856D01*
X161604819Y-99092856D02*
X161747676Y-99149999D01*
X161747676Y-99149999D02*
X161842914Y-99207142D01*
X161842914Y-99207142D02*
X161890533Y-99264285D01*
X162319104Y-101278571D02*
X162319104Y-100992857D01*
X162604819Y-101335714D02*
X161604819Y-101135714D01*
X161604819Y-101135714D02*
X162604819Y-100935714D01*
X161700057Y-100764285D02*
X161652438Y-100735713D01*
X161652438Y-100735713D02*
X161604819Y-100678571D01*
X161604819Y-100678571D02*
X161604819Y-100535713D01*
X161604819Y-100535713D02*
X161652438Y-100478571D01*
X161652438Y-100478571D02*
X161700057Y-100449999D01*
X161700057Y-100449999D02*
X161795295Y-100421428D01*
X161795295Y-100421428D02*
X161890533Y-100421428D01*
X161890533Y-100421428D02*
X162033390Y-100449999D01*
X162033390Y-100449999D02*
X162604819Y-100792856D01*
X162604819Y-100792856D02*
X162604819Y-100421428D01*
D11*
X161614286Y-107365928D02*
X161614286Y-108865928D01*
X161614286Y-107437357D02*
X161709524Y-107365928D01*
X161709524Y-107365928D02*
X161900000Y-107365928D01*
X161900000Y-107365928D02*
X161995238Y-107437357D01*
X161995238Y-107437357D02*
X162042857Y-107508785D01*
X162042857Y-107508785D02*
X162090476Y-107651642D01*
X162090476Y-107651642D02*
X162090476Y-108080214D01*
X162090476Y-108080214D02*
X162042857Y-108223071D01*
X162042857Y-108223071D02*
X161995238Y-108294500D01*
X161995238Y-108294500D02*
X161900000Y-108365928D01*
X161900000Y-108365928D02*
X161709524Y-108365928D01*
X161709524Y-108365928D02*
X161614286Y-108294500D01*
X162519048Y-108365928D02*
X162519048Y-107365928D01*
X162519048Y-107651642D02*
X162566667Y-107508785D01*
X162566667Y-107508785D02*
X162614286Y-107437357D01*
X162614286Y-107437357D02*
X162709524Y-107365928D01*
X162709524Y-107365928D02*
X162804762Y-107365928D01*
X163138096Y-108365928D02*
X163138096Y-107365928D01*
X163138096Y-106865928D02*
X163090477Y-106937357D01*
X163090477Y-106937357D02*
X163138096Y-107008785D01*
X163138096Y-107008785D02*
X163185715Y-106937357D01*
X163185715Y-106937357D02*
X163138096Y-106865928D01*
X163138096Y-106865928D02*
X163138096Y-107008785D01*
X163566667Y-108294500D02*
X163661905Y-108365928D01*
X163661905Y-108365928D02*
X163852381Y-108365928D01*
X163852381Y-108365928D02*
X163947619Y-108294500D01*
X163947619Y-108294500D02*
X163995238Y-108151642D01*
X163995238Y-108151642D02*
X163995238Y-108080214D01*
X163995238Y-108080214D02*
X163947619Y-107937357D01*
X163947619Y-107937357D02*
X163852381Y-107865928D01*
X163852381Y-107865928D02*
X163709524Y-107865928D01*
X163709524Y-107865928D02*
X163614286Y-107794500D01*
X163614286Y-107794500D02*
X163566667Y-107651642D01*
X163566667Y-107651642D02*
X163566667Y-107580214D01*
X163566667Y-107580214D02*
X163614286Y-107437357D01*
X163614286Y-107437357D02*
X163709524Y-107365928D01*
X163709524Y-107365928D02*
X163852381Y-107365928D01*
X163852381Y-107365928D02*
X163947619Y-107437357D01*
X164423810Y-108365928D02*
X164423810Y-107365928D01*
X164423810Y-107508785D02*
X164471429Y-107437357D01*
X164471429Y-107437357D02*
X164566667Y-107365928D01*
X164566667Y-107365928D02*
X164709524Y-107365928D01*
X164709524Y-107365928D02*
X164804762Y-107437357D01*
X164804762Y-107437357D02*
X164852381Y-107580214D01*
X164852381Y-107580214D02*
X164852381Y-108365928D01*
X164852381Y-107580214D02*
X164900000Y-107437357D01*
X164900000Y-107437357D02*
X164995238Y-107365928D01*
X164995238Y-107365928D02*
X165138095Y-107365928D01*
X165138095Y-107365928D02*
X165233334Y-107437357D01*
X165233334Y-107437357D02*
X165280953Y-107580214D01*
X165280953Y-107580214D02*
X165280953Y-108365928D01*
X165757143Y-107794500D02*
X166519048Y-107794500D01*
X166995238Y-107365928D02*
X166995238Y-108865928D01*
X166995238Y-107437357D02*
X167090476Y-107365928D01*
X167090476Y-107365928D02*
X167280952Y-107365928D01*
X167280952Y-107365928D02*
X167376190Y-107437357D01*
X167376190Y-107437357D02*
X167423809Y-107508785D01*
X167423809Y-107508785D02*
X167471428Y-107651642D01*
X167471428Y-107651642D02*
X167471428Y-108080214D01*
X167471428Y-108080214D02*
X167423809Y-108223071D01*
X167423809Y-108223071D02*
X167376190Y-108294500D01*
X167376190Y-108294500D02*
X167280952Y-108365928D01*
X167280952Y-108365928D02*
X167090476Y-108365928D01*
X167090476Y-108365928D02*
X166995238Y-108294500D01*
X168328571Y-108294500D02*
X168233333Y-108365928D01*
X168233333Y-108365928D02*
X168042857Y-108365928D01*
X168042857Y-108365928D02*
X167947619Y-108294500D01*
X167947619Y-108294500D02*
X167900000Y-108223071D01*
X167900000Y-108223071D02*
X167852381Y-108080214D01*
X167852381Y-108080214D02*
X167852381Y-107651642D01*
X167852381Y-107651642D02*
X167900000Y-107508785D01*
X167900000Y-107508785D02*
X167947619Y-107437357D01*
X167947619Y-107437357D02*
X168042857Y-107365928D01*
X168042857Y-107365928D02*
X168233333Y-107365928D01*
X168233333Y-107365928D02*
X168328571Y-107437357D01*
X168757143Y-108365928D02*
X168757143Y-106865928D01*
X168757143Y-107437357D02*
X168852381Y-107365928D01*
X168852381Y-107365928D02*
X169042857Y-107365928D01*
X169042857Y-107365928D02*
X169138095Y-107437357D01*
X169138095Y-107437357D02*
X169185714Y-107508785D01*
X169185714Y-107508785D02*
X169233333Y-107651642D01*
X169233333Y-107651642D02*
X169233333Y-108080214D01*
X169233333Y-108080214D02*
X169185714Y-108223071D01*
X169185714Y-108223071D02*
X169138095Y-108294500D01*
X169138095Y-108294500D02*
X169042857Y-108365928D01*
X169042857Y-108365928D02*
X168852381Y-108365928D01*
X168852381Y-108365928D02*
X168757143Y-108294500D01*
X160209524Y-109780928D02*
X160447619Y-110780928D01*
X160447619Y-110780928D02*
X160685714Y-109780928D01*
X161019048Y-109423785D02*
X161066667Y-109352357D01*
X161066667Y-109352357D02*
X161161905Y-109280928D01*
X161161905Y-109280928D02*
X161400000Y-109280928D01*
X161400000Y-109280928D02*
X161495238Y-109352357D01*
X161495238Y-109352357D02*
X161542857Y-109423785D01*
X161542857Y-109423785D02*
X161590476Y-109566642D01*
X161590476Y-109566642D02*
X161590476Y-109709500D01*
X161590476Y-109709500D02*
X161542857Y-109923785D01*
X161542857Y-109923785D02*
X160971429Y-110780928D01*
X160971429Y-110780928D02*
X161590476Y-110780928D01*
X162019048Y-110638071D02*
X162066667Y-110709500D01*
X162066667Y-110709500D02*
X162019048Y-110780928D01*
X162019048Y-110780928D02*
X161971429Y-110709500D01*
X161971429Y-110709500D02*
X162019048Y-110638071D01*
X162019048Y-110638071D02*
X162019048Y-110780928D01*
X162685714Y-109280928D02*
X162780952Y-109280928D01*
X162780952Y-109280928D02*
X162876190Y-109352357D01*
X162876190Y-109352357D02*
X162923809Y-109423785D01*
X162923809Y-109423785D02*
X162971428Y-109566642D01*
X162971428Y-109566642D02*
X163019047Y-109852357D01*
X163019047Y-109852357D02*
X163019047Y-110209500D01*
X163019047Y-110209500D02*
X162971428Y-110495214D01*
X162971428Y-110495214D02*
X162923809Y-110638071D01*
X162923809Y-110638071D02*
X162876190Y-110709500D01*
X162876190Y-110709500D02*
X162780952Y-110780928D01*
X162780952Y-110780928D02*
X162685714Y-110780928D01*
X162685714Y-110780928D02*
X162590476Y-110709500D01*
X162590476Y-110709500D02*
X162542857Y-110638071D01*
X162542857Y-110638071D02*
X162495238Y-110495214D01*
X162495238Y-110495214D02*
X162447619Y-110209500D01*
X162447619Y-110209500D02*
X162447619Y-109852357D01*
X162447619Y-109852357D02*
X162495238Y-109566642D01*
X162495238Y-109566642D02*
X162542857Y-109423785D01*
X162542857Y-109423785D02*
X162590476Y-109352357D01*
X162590476Y-109352357D02*
X162685714Y-109280928D01*
X164161905Y-109423785D02*
X164209524Y-109352357D01*
X164209524Y-109352357D02*
X164304762Y-109280928D01*
X164304762Y-109280928D02*
X164542857Y-109280928D01*
X164542857Y-109280928D02*
X164638095Y-109352357D01*
X164638095Y-109352357D02*
X164685714Y-109423785D01*
X164685714Y-109423785D02*
X164733333Y-109566642D01*
X164733333Y-109566642D02*
X164733333Y-109709500D01*
X164733333Y-109709500D02*
X164685714Y-109923785D01*
X164685714Y-109923785D02*
X164114286Y-110780928D01*
X164114286Y-110780928D02*
X164733333Y-110780928D01*
X165352381Y-109280928D02*
X165447619Y-109280928D01*
X165447619Y-109280928D02*
X165542857Y-109352357D01*
X165542857Y-109352357D02*
X165590476Y-109423785D01*
X165590476Y-109423785D02*
X165638095Y-109566642D01*
X165638095Y-109566642D02*
X165685714Y-109852357D01*
X165685714Y-109852357D02*
X165685714Y-110209500D01*
X165685714Y-110209500D02*
X165638095Y-110495214D01*
X165638095Y-110495214D02*
X165590476Y-110638071D01*
X165590476Y-110638071D02*
X165542857Y-110709500D01*
X165542857Y-110709500D02*
X165447619Y-110780928D01*
X165447619Y-110780928D02*
X165352381Y-110780928D01*
X165352381Y-110780928D02*
X165257143Y-110709500D01*
X165257143Y-110709500D02*
X165209524Y-110638071D01*
X165209524Y-110638071D02*
X165161905Y-110495214D01*
X165161905Y-110495214D02*
X165114286Y-110209500D01*
X165114286Y-110209500D02*
X165114286Y-109852357D01*
X165114286Y-109852357D02*
X165161905Y-109566642D01*
X165161905Y-109566642D02*
X165209524Y-109423785D01*
X165209524Y-109423785D02*
X165257143Y-109352357D01*
X165257143Y-109352357D02*
X165352381Y-109280928D01*
X166066667Y-109423785D02*
X166114286Y-109352357D01*
X166114286Y-109352357D02*
X166209524Y-109280928D01*
X166209524Y-109280928D02*
X166447619Y-109280928D01*
X166447619Y-109280928D02*
X166542857Y-109352357D01*
X166542857Y-109352357D02*
X166590476Y-109423785D01*
X166590476Y-109423785D02*
X166638095Y-109566642D01*
X166638095Y-109566642D02*
X166638095Y-109709500D01*
X166638095Y-109709500D02*
X166590476Y-109923785D01*
X166590476Y-109923785D02*
X166019048Y-110780928D01*
X166019048Y-110780928D02*
X166638095Y-110780928D01*
X167495238Y-109780928D02*
X167495238Y-110780928D01*
X167257143Y-109209500D02*
X167019048Y-110280928D01*
X167019048Y-110280928D02*
X167638095Y-110280928D01*
X168733333Y-109209500D02*
X167876191Y-111138071D01*
X169257143Y-109280928D02*
X169352381Y-109280928D01*
X169352381Y-109280928D02*
X169447619Y-109352357D01*
X169447619Y-109352357D02*
X169495238Y-109423785D01*
X169495238Y-109423785D02*
X169542857Y-109566642D01*
X169542857Y-109566642D02*
X169590476Y-109852357D01*
X169590476Y-109852357D02*
X169590476Y-110209500D01*
X169590476Y-110209500D02*
X169542857Y-110495214D01*
X169542857Y-110495214D02*
X169495238Y-110638071D01*
X169495238Y-110638071D02*
X169447619Y-110709500D01*
X169447619Y-110709500D02*
X169352381Y-110780928D01*
X169352381Y-110780928D02*
X169257143Y-110780928D01*
X169257143Y-110780928D02*
X169161905Y-110709500D01*
X169161905Y-110709500D02*
X169114286Y-110638071D01*
X169114286Y-110638071D02*
X169066667Y-110495214D01*
X169066667Y-110495214D02*
X169019048Y-110209500D01*
X169019048Y-110209500D02*
X169019048Y-109852357D01*
X169019048Y-109852357D02*
X169066667Y-109566642D01*
X169066667Y-109566642D02*
X169114286Y-109423785D01*
X169114286Y-109423785D02*
X169161905Y-109352357D01*
X169161905Y-109352357D02*
X169257143Y-109280928D01*
X170066667Y-110780928D02*
X170257143Y-110780928D01*
X170257143Y-110780928D02*
X170352381Y-110709500D01*
X170352381Y-110709500D02*
X170400000Y-110638071D01*
X170400000Y-110638071D02*
X170495238Y-110423785D01*
X170495238Y-110423785D02*
X170542857Y-110138071D01*
X170542857Y-110138071D02*
X170542857Y-109566642D01*
X170542857Y-109566642D02*
X170495238Y-109423785D01*
X170495238Y-109423785D02*
X170447619Y-109352357D01*
X170447619Y-109352357D02*
X170352381Y-109280928D01*
X170352381Y-109280928D02*
X170161905Y-109280928D01*
X170161905Y-109280928D02*
X170066667Y-109352357D01*
X170066667Y-109352357D02*
X170019048Y-109423785D01*
X170019048Y-109423785D02*
X169971429Y-109566642D01*
X169971429Y-109566642D02*
X169971429Y-109923785D01*
X169971429Y-109923785D02*
X170019048Y-110066642D01*
X170019048Y-110066642D02*
X170066667Y-110138071D01*
X170066667Y-110138071D02*
X170161905Y-110209500D01*
X170161905Y-110209500D02*
X170352381Y-110209500D01*
X170352381Y-110209500D02*
X170447619Y-110138071D01*
X170447619Y-110138071D02*
X170495238Y-110066642D01*
X170495238Y-110066642D02*
X170542857Y-109923785D01*
X159804762Y-111838785D02*
X159852381Y-111767357D01*
X159852381Y-111767357D02*
X159947619Y-111695928D01*
X159947619Y-111695928D02*
X160185714Y-111695928D01*
X160185714Y-111695928D02*
X160280952Y-111767357D01*
X160280952Y-111767357D02*
X160328571Y-111838785D01*
X160328571Y-111838785D02*
X160376190Y-111981642D01*
X160376190Y-111981642D02*
X160376190Y-112124500D01*
X160376190Y-112124500D02*
X160328571Y-112338785D01*
X160328571Y-112338785D02*
X159757143Y-113195928D01*
X159757143Y-113195928D02*
X160376190Y-113195928D01*
X161233333Y-112195928D02*
X161233333Y-113195928D01*
X160995238Y-111624500D02*
X160757143Y-112695928D01*
X160757143Y-112695928D02*
X161376190Y-112695928D01*
X161614286Y-111695928D02*
X161947619Y-113195928D01*
X161947619Y-113195928D02*
X162280952Y-111695928D01*
X163900000Y-113195928D02*
X163328572Y-113195928D01*
X163614286Y-113195928D02*
X163614286Y-111695928D01*
X163614286Y-111695928D02*
X163519048Y-111910214D01*
X163519048Y-111910214D02*
X163423810Y-112053071D01*
X163423810Y-112053071D02*
X163328572Y-112124500D01*
X164328572Y-113053071D02*
X164376191Y-113124500D01*
X164376191Y-113124500D02*
X164328572Y-113195928D01*
X164328572Y-113195928D02*
X164280953Y-113124500D01*
X164280953Y-113124500D02*
X164328572Y-113053071D01*
X164328572Y-113053071D02*
X164328572Y-113195928D01*
X165233333Y-111695928D02*
X165042857Y-111695928D01*
X165042857Y-111695928D02*
X164947619Y-111767357D01*
X164947619Y-111767357D02*
X164900000Y-111838785D01*
X164900000Y-111838785D02*
X164804762Y-112053071D01*
X164804762Y-112053071D02*
X164757143Y-112338785D01*
X164757143Y-112338785D02*
X164757143Y-112910214D01*
X164757143Y-112910214D02*
X164804762Y-113053071D01*
X164804762Y-113053071D02*
X164852381Y-113124500D01*
X164852381Y-113124500D02*
X164947619Y-113195928D01*
X164947619Y-113195928D02*
X165138095Y-113195928D01*
X165138095Y-113195928D02*
X165233333Y-113124500D01*
X165233333Y-113124500D02*
X165280952Y-113053071D01*
X165280952Y-113053071D02*
X165328571Y-112910214D01*
X165328571Y-112910214D02*
X165328571Y-112553071D01*
X165328571Y-112553071D02*
X165280952Y-112410214D01*
X165280952Y-112410214D02*
X165233333Y-112338785D01*
X165233333Y-112338785D02*
X165138095Y-112267357D01*
X165138095Y-112267357D02*
X164947619Y-112267357D01*
X164947619Y-112267357D02*
X164852381Y-112338785D01*
X164852381Y-112338785D02*
X164804762Y-112410214D01*
X164804762Y-112410214D02*
X164757143Y-112553071D01*
X166185714Y-112195928D02*
X166185714Y-113195928D01*
X165947619Y-111624500D02*
X165709524Y-112695928D01*
X165709524Y-112695928D02*
X166328571Y-112695928D01*
X166661905Y-112767357D02*
X167138095Y-112767357D01*
X166566667Y-113195928D02*
X166900000Y-111695928D01*
X166900000Y-111695928D02*
X167233333Y-113195928D01*
X168900000Y-113195928D02*
X168566667Y-112481642D01*
X168328572Y-113195928D02*
X168328572Y-111695928D01*
X168328572Y-111695928D02*
X168709524Y-111695928D01*
X168709524Y-111695928D02*
X168804762Y-111767357D01*
X168804762Y-111767357D02*
X168852381Y-111838785D01*
X168852381Y-111838785D02*
X168900000Y-111981642D01*
X168900000Y-111981642D02*
X168900000Y-112195928D01*
X168900000Y-112195928D02*
X168852381Y-112338785D01*
X168852381Y-112338785D02*
X168804762Y-112410214D01*
X168804762Y-112410214D02*
X168709524Y-112481642D01*
X168709524Y-112481642D02*
X168328572Y-112481642D01*
X169328572Y-113195928D02*
X169328572Y-111695928D01*
X169328572Y-111695928D02*
X169661905Y-112767357D01*
X169661905Y-112767357D02*
X169995238Y-111695928D01*
X169995238Y-111695928D02*
X169995238Y-113195928D01*
X170423810Y-113124500D02*
X170566667Y-113195928D01*
X170566667Y-113195928D02*
X170804762Y-113195928D01*
X170804762Y-113195928D02*
X170900000Y-113124500D01*
X170900000Y-113124500D02*
X170947619Y-113053071D01*
X170947619Y-113053071D02*
X170995238Y-112910214D01*
X170995238Y-112910214D02*
X170995238Y-112767357D01*
X170995238Y-112767357D02*
X170947619Y-112624500D01*
X170947619Y-112624500D02*
X170900000Y-112553071D01*
X170900000Y-112553071D02*
X170804762Y-112481642D01*
X170804762Y-112481642D02*
X170614286Y-112410214D01*
X170614286Y-112410214D02*
X170519048Y-112338785D01*
X170519048Y-112338785D02*
X170471429Y-112267357D01*
X170471429Y-112267357D02*
X170423810Y-112124500D01*
X170423810Y-112124500D02*
X170423810Y-111981642D01*
X170423810Y-111981642D02*
X170471429Y-111838785D01*
X170471429Y-111838785D02*
X170519048Y-111767357D01*
X170519048Y-111767357D02*
X170614286Y-111695928D01*
X170614286Y-111695928D02*
X170852381Y-111695928D01*
X170852381Y-111695928D02*
X170995238Y-111767357D01*
D12*
X140333337Y-120937864D02*
X140333337Y-120187864D01*
X140633337Y-120937864D02*
X140633337Y-120545007D01*
X140633337Y-120545007D02*
X140600004Y-120473578D01*
X140600004Y-120473578D02*
X140533337Y-120437864D01*
X140533337Y-120437864D02*
X140433337Y-120437864D01*
X140433337Y-120437864D02*
X140366671Y-120473578D01*
X140366671Y-120473578D02*
X140333337Y-120509292D01*
X140866670Y-120437864D02*
X141133337Y-120437864D01*
X140966670Y-120187864D02*
X140966670Y-120830721D01*
X140966670Y-120830721D02*
X141000004Y-120902150D01*
X141000004Y-120902150D02*
X141066670Y-120937864D01*
X141066670Y-120937864D02*
X141133337Y-120937864D01*
X141266670Y-120437864D02*
X141533337Y-120437864D01*
X141366670Y-120187864D02*
X141366670Y-120830721D01*
X141366670Y-120830721D02*
X141400004Y-120902150D01*
X141400004Y-120902150D02*
X141466670Y-120937864D01*
X141466670Y-120937864D02*
X141533337Y-120937864D01*
X141766670Y-120437864D02*
X141766670Y-121187864D01*
X141766670Y-120473578D02*
X141833337Y-120437864D01*
X141833337Y-120437864D02*
X141966670Y-120437864D01*
X141966670Y-120437864D02*
X142033337Y-120473578D01*
X142033337Y-120473578D02*
X142066670Y-120509292D01*
X142066670Y-120509292D02*
X142100004Y-120580721D01*
X142100004Y-120580721D02*
X142100004Y-120795007D01*
X142100004Y-120795007D02*
X142066670Y-120866435D01*
X142066670Y-120866435D02*
X142033337Y-120902150D01*
X142033337Y-120902150D02*
X141966670Y-120937864D01*
X141966670Y-120937864D02*
X141833337Y-120937864D01*
X141833337Y-120937864D02*
X141766670Y-120902150D01*
X142366670Y-120902150D02*
X142433337Y-120937864D01*
X142433337Y-120937864D02*
X142566670Y-120937864D01*
X142566670Y-120937864D02*
X142633337Y-120902150D01*
X142633337Y-120902150D02*
X142666670Y-120830721D01*
X142666670Y-120830721D02*
X142666670Y-120795007D01*
X142666670Y-120795007D02*
X142633337Y-120723578D01*
X142633337Y-120723578D02*
X142566670Y-120687864D01*
X142566670Y-120687864D02*
X142466670Y-120687864D01*
X142466670Y-120687864D02*
X142400003Y-120652150D01*
X142400003Y-120652150D02*
X142366670Y-120580721D01*
X142366670Y-120580721D02*
X142366670Y-120545007D01*
X142366670Y-120545007D02*
X142400003Y-120473578D01*
X142400003Y-120473578D02*
X142466670Y-120437864D01*
X142466670Y-120437864D02*
X142566670Y-120437864D01*
X142566670Y-120437864D02*
X142633337Y-120473578D01*
X142966670Y-120866435D02*
X143000004Y-120902150D01*
X143000004Y-120902150D02*
X142966670Y-120937864D01*
X142966670Y-120937864D02*
X142933337Y-120902150D01*
X142933337Y-120902150D02*
X142966670Y-120866435D01*
X142966670Y-120866435D02*
X142966670Y-120937864D01*
X142966670Y-120473578D02*
X143000004Y-120509292D01*
X143000004Y-120509292D02*
X142966670Y-120545007D01*
X142966670Y-120545007D02*
X142933337Y-120509292D01*
X142933337Y-120509292D02*
X142966670Y-120473578D01*
X142966670Y-120473578D02*
X142966670Y-120545007D01*
X143800003Y-120152150D02*
X143200003Y-121116435D01*
X144533336Y-120152150D02*
X143933336Y-121116435D01*
X145066669Y-120437864D02*
X145066669Y-121045007D01*
X145066669Y-121045007D02*
X145033336Y-121116435D01*
X145033336Y-121116435D02*
X145000003Y-121152150D01*
X145000003Y-121152150D02*
X144933336Y-121187864D01*
X144933336Y-121187864D02*
X144833336Y-121187864D01*
X144833336Y-121187864D02*
X144766669Y-121152150D01*
X145066669Y-120902150D02*
X145000003Y-120937864D01*
X145000003Y-120937864D02*
X144866669Y-120937864D01*
X144866669Y-120937864D02*
X144800003Y-120902150D01*
X144800003Y-120902150D02*
X144766669Y-120866435D01*
X144766669Y-120866435D02*
X144733336Y-120795007D01*
X144733336Y-120795007D02*
X144733336Y-120580721D01*
X144733336Y-120580721D02*
X144766669Y-120509292D01*
X144766669Y-120509292D02*
X144800003Y-120473578D01*
X144800003Y-120473578D02*
X144866669Y-120437864D01*
X144866669Y-120437864D02*
X145000003Y-120437864D01*
X145000003Y-120437864D02*
X145066669Y-120473578D01*
X145400002Y-120937864D02*
X145400002Y-120437864D01*
X145400002Y-120187864D02*
X145366669Y-120223578D01*
X145366669Y-120223578D02*
X145400002Y-120259292D01*
X145400002Y-120259292D02*
X145433336Y-120223578D01*
X145433336Y-120223578D02*
X145400002Y-120187864D01*
X145400002Y-120187864D02*
X145400002Y-120259292D01*
X145633335Y-120437864D02*
X145900002Y-120437864D01*
X145733335Y-120187864D02*
X145733335Y-120830721D01*
X145733335Y-120830721D02*
X145766669Y-120902150D01*
X145766669Y-120902150D02*
X145833335Y-120937864D01*
X145833335Y-120937864D02*
X145900002Y-120937864D01*
X146133335Y-120937864D02*
X146133335Y-120187864D01*
X146433335Y-120937864D02*
X146433335Y-120545007D01*
X146433335Y-120545007D02*
X146400002Y-120473578D01*
X146400002Y-120473578D02*
X146333335Y-120437864D01*
X146333335Y-120437864D02*
X146233335Y-120437864D01*
X146233335Y-120437864D02*
X146166669Y-120473578D01*
X146166669Y-120473578D02*
X146133335Y-120509292D01*
X147066668Y-120437864D02*
X147066668Y-120937864D01*
X146766668Y-120437864D02*
X146766668Y-120830721D01*
X146766668Y-120830721D02*
X146800002Y-120902150D01*
X146800002Y-120902150D02*
X146866668Y-120937864D01*
X146866668Y-120937864D02*
X146966668Y-120937864D01*
X146966668Y-120937864D02*
X147033335Y-120902150D01*
X147033335Y-120902150D02*
X147066668Y-120866435D01*
X147400001Y-120937864D02*
X147400001Y-120187864D01*
X147400001Y-120473578D02*
X147466668Y-120437864D01*
X147466668Y-120437864D02*
X147600001Y-120437864D01*
X147600001Y-120437864D02*
X147666668Y-120473578D01*
X147666668Y-120473578D02*
X147700001Y-120509292D01*
X147700001Y-120509292D02*
X147733335Y-120580721D01*
X147733335Y-120580721D02*
X147733335Y-120795007D01*
X147733335Y-120795007D02*
X147700001Y-120866435D01*
X147700001Y-120866435D02*
X147666668Y-120902150D01*
X147666668Y-120902150D02*
X147600001Y-120937864D01*
X147600001Y-120937864D02*
X147466668Y-120937864D01*
X147466668Y-120937864D02*
X147400001Y-120902150D01*
X148033334Y-120866435D02*
X148066668Y-120902150D01*
X148066668Y-120902150D02*
X148033334Y-120937864D01*
X148033334Y-120937864D02*
X148000001Y-120902150D01*
X148000001Y-120902150D02*
X148033334Y-120866435D01*
X148033334Y-120866435D02*
X148033334Y-120937864D01*
X148666667Y-120902150D02*
X148600001Y-120937864D01*
X148600001Y-120937864D02*
X148466667Y-120937864D01*
X148466667Y-120937864D02*
X148400001Y-120902150D01*
X148400001Y-120902150D02*
X148366667Y-120866435D01*
X148366667Y-120866435D02*
X148333334Y-120795007D01*
X148333334Y-120795007D02*
X148333334Y-120580721D01*
X148333334Y-120580721D02*
X148366667Y-120509292D01*
X148366667Y-120509292D02*
X148400001Y-120473578D01*
X148400001Y-120473578D02*
X148466667Y-120437864D01*
X148466667Y-120437864D02*
X148600001Y-120437864D01*
X148600001Y-120437864D02*
X148666667Y-120473578D01*
X149066667Y-120937864D02*
X149000001Y-120902150D01*
X149000001Y-120902150D02*
X148966667Y-120866435D01*
X148966667Y-120866435D02*
X148933334Y-120795007D01*
X148933334Y-120795007D02*
X148933334Y-120580721D01*
X148933334Y-120580721D02*
X148966667Y-120509292D01*
X148966667Y-120509292D02*
X149000001Y-120473578D01*
X149000001Y-120473578D02*
X149066667Y-120437864D01*
X149066667Y-120437864D02*
X149166667Y-120437864D01*
X149166667Y-120437864D02*
X149233334Y-120473578D01*
X149233334Y-120473578D02*
X149266667Y-120509292D01*
X149266667Y-120509292D02*
X149300001Y-120580721D01*
X149300001Y-120580721D02*
X149300001Y-120795007D01*
X149300001Y-120795007D02*
X149266667Y-120866435D01*
X149266667Y-120866435D02*
X149233334Y-120902150D01*
X149233334Y-120902150D02*
X149166667Y-120937864D01*
X149166667Y-120937864D02*
X149066667Y-120937864D01*
X149600000Y-120937864D02*
X149600000Y-120437864D01*
X149600000Y-120509292D02*
X149633334Y-120473578D01*
X149633334Y-120473578D02*
X149700000Y-120437864D01*
X149700000Y-120437864D02*
X149800000Y-120437864D01*
X149800000Y-120437864D02*
X149866667Y-120473578D01*
X149866667Y-120473578D02*
X149900000Y-120545007D01*
X149900000Y-120545007D02*
X149900000Y-120937864D01*
X149900000Y-120545007D02*
X149933334Y-120473578D01*
X149933334Y-120473578D02*
X150000000Y-120437864D01*
X150000000Y-120437864D02*
X150100000Y-120437864D01*
X150100000Y-120437864D02*
X150166667Y-120473578D01*
X150166667Y-120473578D02*
X150200000Y-120545007D01*
X150200000Y-120545007D02*
X150200000Y-120937864D01*
X151033333Y-120152150D02*
X150433333Y-121116435D01*
X151266666Y-120437864D02*
X151266666Y-121080721D01*
X151266666Y-121080721D02*
X151233333Y-121152150D01*
X151233333Y-121152150D02*
X151166666Y-121187864D01*
X151166666Y-121187864D02*
X151133333Y-121187864D01*
X151266666Y-120187864D02*
X151233333Y-120223578D01*
X151233333Y-120223578D02*
X151266666Y-120259292D01*
X151266666Y-120259292D02*
X151300000Y-120223578D01*
X151300000Y-120223578D02*
X151266666Y-120187864D01*
X151266666Y-120187864D02*
X151266666Y-120259292D01*
X151899999Y-120937864D02*
X151899999Y-120545007D01*
X151899999Y-120545007D02*
X151866666Y-120473578D01*
X151866666Y-120473578D02*
X151799999Y-120437864D01*
X151799999Y-120437864D02*
X151666666Y-120437864D01*
X151666666Y-120437864D02*
X151599999Y-120473578D01*
X151899999Y-120902150D02*
X151833333Y-120937864D01*
X151833333Y-120937864D02*
X151666666Y-120937864D01*
X151666666Y-120937864D02*
X151599999Y-120902150D01*
X151599999Y-120902150D02*
X151566666Y-120830721D01*
X151566666Y-120830721D02*
X151566666Y-120759292D01*
X151566666Y-120759292D02*
X151599999Y-120687864D01*
X151599999Y-120687864D02*
X151666666Y-120652150D01*
X151666666Y-120652150D02*
X151833333Y-120652150D01*
X151833333Y-120652150D02*
X151899999Y-120616435D01*
X152233332Y-120437864D02*
X152233332Y-120937864D01*
X152233332Y-120509292D02*
X152266666Y-120473578D01*
X152266666Y-120473578D02*
X152333332Y-120437864D01*
X152333332Y-120437864D02*
X152433332Y-120437864D01*
X152433332Y-120437864D02*
X152499999Y-120473578D01*
X152499999Y-120473578D02*
X152533332Y-120545007D01*
X152533332Y-120545007D02*
X152533332Y-120937864D01*
X153133332Y-120902150D02*
X153066665Y-120937864D01*
X153066665Y-120937864D02*
X152933332Y-120937864D01*
X152933332Y-120937864D02*
X152866665Y-120902150D01*
X152866665Y-120902150D02*
X152833332Y-120830721D01*
X152833332Y-120830721D02*
X152833332Y-120545007D01*
X152833332Y-120545007D02*
X152866665Y-120473578D01*
X152866665Y-120473578D02*
X152933332Y-120437864D01*
X152933332Y-120437864D02*
X153066665Y-120437864D01*
X153066665Y-120437864D02*
X153133332Y-120473578D01*
X153133332Y-120473578D02*
X153166665Y-120545007D01*
X153166665Y-120545007D02*
X153166665Y-120616435D01*
X153166665Y-120616435D02*
X152833332Y-120687864D01*
X153566665Y-120937864D02*
X153499999Y-120902150D01*
X153499999Y-120902150D02*
X153466665Y-120830721D01*
X153466665Y-120830721D02*
X153466665Y-120187864D01*
X153833332Y-120937864D02*
X153833332Y-120437864D01*
X153833332Y-120187864D02*
X153799999Y-120223578D01*
X153799999Y-120223578D02*
X153833332Y-120259292D01*
X153833332Y-120259292D02*
X153866666Y-120223578D01*
X153866666Y-120223578D02*
X153833332Y-120187864D01*
X153833332Y-120187864D02*
X153833332Y-120259292D01*
X154466665Y-120937864D02*
X154466665Y-120545007D01*
X154466665Y-120545007D02*
X154433332Y-120473578D01*
X154433332Y-120473578D02*
X154366665Y-120437864D01*
X154366665Y-120437864D02*
X154233332Y-120437864D01*
X154233332Y-120437864D02*
X154166665Y-120473578D01*
X154466665Y-120902150D02*
X154399999Y-120937864D01*
X154399999Y-120937864D02*
X154233332Y-120937864D01*
X154233332Y-120937864D02*
X154166665Y-120902150D01*
X154166665Y-120902150D02*
X154133332Y-120830721D01*
X154133332Y-120830721D02*
X154133332Y-120759292D01*
X154133332Y-120759292D02*
X154166665Y-120687864D01*
X154166665Y-120687864D02*
X154233332Y-120652150D01*
X154233332Y-120652150D02*
X154399999Y-120652150D01*
X154399999Y-120652150D02*
X154466665Y-120616435D01*
X154799998Y-120652150D02*
X155333332Y-120652150D01*
X155666665Y-120937864D02*
X155666665Y-120187864D01*
X155733332Y-120652150D02*
X155933332Y-120937864D01*
X155933332Y-120437864D02*
X155666665Y-120723578D01*
X156233332Y-120937864D02*
X156233332Y-120437864D01*
X156233332Y-120187864D02*
X156199999Y-120223578D01*
X156199999Y-120223578D02*
X156233332Y-120259292D01*
X156233332Y-120259292D02*
X156266666Y-120223578D01*
X156266666Y-120223578D02*
X156233332Y-120187864D01*
X156233332Y-120187864D02*
X156233332Y-120259292D01*
X156866665Y-120902150D02*
X156799999Y-120937864D01*
X156799999Y-120937864D02*
X156666665Y-120937864D01*
X156666665Y-120937864D02*
X156599999Y-120902150D01*
X156599999Y-120902150D02*
X156566665Y-120866435D01*
X156566665Y-120866435D02*
X156533332Y-120795007D01*
X156533332Y-120795007D02*
X156533332Y-120580721D01*
X156533332Y-120580721D02*
X156566665Y-120509292D01*
X156566665Y-120509292D02*
X156599999Y-120473578D01*
X156599999Y-120473578D02*
X156666665Y-120437864D01*
X156666665Y-120437864D02*
X156799999Y-120437864D01*
X156799999Y-120437864D02*
X156866665Y-120473578D01*
X157466665Y-120937864D02*
X157466665Y-120545007D01*
X157466665Y-120545007D02*
X157433332Y-120473578D01*
X157433332Y-120473578D02*
X157366665Y-120437864D01*
X157366665Y-120437864D02*
X157233332Y-120437864D01*
X157233332Y-120437864D02*
X157166665Y-120473578D01*
X157466665Y-120902150D02*
X157399999Y-120937864D01*
X157399999Y-120937864D02*
X157233332Y-120937864D01*
X157233332Y-120937864D02*
X157166665Y-120902150D01*
X157166665Y-120902150D02*
X157133332Y-120830721D01*
X157133332Y-120830721D02*
X157133332Y-120759292D01*
X157133332Y-120759292D02*
X157166665Y-120687864D01*
X157166665Y-120687864D02*
X157233332Y-120652150D01*
X157233332Y-120652150D02*
X157399999Y-120652150D01*
X157399999Y-120652150D02*
X157466665Y-120616435D01*
X158099998Y-120937864D02*
X158099998Y-120187864D01*
X158099998Y-120902150D02*
X158033332Y-120937864D01*
X158033332Y-120937864D02*
X157899998Y-120937864D01*
X157899998Y-120937864D02*
X157833332Y-120902150D01*
X157833332Y-120902150D02*
X157799998Y-120866435D01*
X157799998Y-120866435D02*
X157766665Y-120795007D01*
X157766665Y-120795007D02*
X157766665Y-120580721D01*
X157766665Y-120580721D02*
X157799998Y-120509292D01*
X157799998Y-120509292D02*
X157833332Y-120473578D01*
X157833332Y-120473578D02*
X157899998Y-120437864D01*
X157899998Y-120437864D02*
X158033332Y-120437864D01*
X158033332Y-120437864D02*
X158099998Y-120473578D01*
X158933331Y-120152150D02*
X158333331Y-121116435D01*
X159166664Y-120437864D02*
X159166664Y-121187864D01*
X159166664Y-120473578D02*
X159233331Y-120437864D01*
X159233331Y-120437864D02*
X159366664Y-120437864D01*
X159366664Y-120437864D02*
X159433331Y-120473578D01*
X159433331Y-120473578D02*
X159466664Y-120509292D01*
X159466664Y-120509292D02*
X159499998Y-120580721D01*
X159499998Y-120580721D02*
X159499998Y-120795007D01*
X159499998Y-120795007D02*
X159466664Y-120866435D01*
X159466664Y-120866435D02*
X159433331Y-120902150D01*
X159433331Y-120902150D02*
X159366664Y-120937864D01*
X159366664Y-120937864D02*
X159233331Y-120937864D01*
X159233331Y-120937864D02*
X159166664Y-120902150D01*
X159799997Y-120937864D02*
X159799997Y-120437864D01*
X159799997Y-120580721D02*
X159833331Y-120509292D01*
X159833331Y-120509292D02*
X159866664Y-120473578D01*
X159866664Y-120473578D02*
X159933331Y-120437864D01*
X159933331Y-120437864D02*
X159999997Y-120437864D01*
X160233330Y-120937864D02*
X160233330Y-120437864D01*
X160233330Y-120187864D02*
X160199997Y-120223578D01*
X160199997Y-120223578D02*
X160233330Y-120259292D01*
X160233330Y-120259292D02*
X160266664Y-120223578D01*
X160266664Y-120223578D02*
X160233330Y-120187864D01*
X160233330Y-120187864D02*
X160233330Y-120259292D01*
X160533330Y-120902150D02*
X160599997Y-120937864D01*
X160599997Y-120937864D02*
X160733330Y-120937864D01*
X160733330Y-120937864D02*
X160799997Y-120902150D01*
X160799997Y-120902150D02*
X160833330Y-120830721D01*
X160833330Y-120830721D02*
X160833330Y-120795007D01*
X160833330Y-120795007D02*
X160799997Y-120723578D01*
X160799997Y-120723578D02*
X160733330Y-120687864D01*
X160733330Y-120687864D02*
X160633330Y-120687864D01*
X160633330Y-120687864D02*
X160566663Y-120652150D01*
X160566663Y-120652150D02*
X160533330Y-120580721D01*
X160533330Y-120580721D02*
X160533330Y-120545007D01*
X160533330Y-120545007D02*
X160566663Y-120473578D01*
X160566663Y-120473578D02*
X160633330Y-120437864D01*
X160633330Y-120437864D02*
X160733330Y-120437864D01*
X160733330Y-120437864D02*
X160799997Y-120473578D01*
X161133330Y-120937864D02*
X161133330Y-120437864D01*
X161133330Y-120509292D02*
X161166664Y-120473578D01*
X161166664Y-120473578D02*
X161233330Y-120437864D01*
X161233330Y-120437864D02*
X161333330Y-120437864D01*
X161333330Y-120437864D02*
X161399997Y-120473578D01*
X161399997Y-120473578D02*
X161433330Y-120545007D01*
X161433330Y-120545007D02*
X161433330Y-120937864D01*
X161433330Y-120545007D02*
X161466664Y-120473578D01*
X161466664Y-120473578D02*
X161533330Y-120437864D01*
X161533330Y-120437864D02*
X161633330Y-120437864D01*
X161633330Y-120437864D02*
X161699997Y-120473578D01*
X161699997Y-120473578D02*
X161733330Y-120545007D01*
X161733330Y-120545007D02*
X161733330Y-120937864D01*
X162066663Y-120652150D02*
X162599997Y-120652150D01*
X162933330Y-120437864D02*
X162933330Y-121187864D01*
X162933330Y-120473578D02*
X162999997Y-120437864D01*
X162999997Y-120437864D02*
X163133330Y-120437864D01*
X163133330Y-120437864D02*
X163199997Y-120473578D01*
X163199997Y-120473578D02*
X163233330Y-120509292D01*
X163233330Y-120509292D02*
X163266664Y-120580721D01*
X163266664Y-120580721D02*
X163266664Y-120795007D01*
X163266664Y-120795007D02*
X163233330Y-120866435D01*
X163233330Y-120866435D02*
X163199997Y-120902150D01*
X163199997Y-120902150D02*
X163133330Y-120937864D01*
X163133330Y-120937864D02*
X162999997Y-120937864D01*
X162999997Y-120937864D02*
X162933330Y-120902150D01*
X163866663Y-120902150D02*
X163799997Y-120937864D01*
X163799997Y-120937864D02*
X163666663Y-120937864D01*
X163666663Y-120937864D02*
X163599997Y-120902150D01*
X163599997Y-120902150D02*
X163566663Y-120866435D01*
X163566663Y-120866435D02*
X163533330Y-120795007D01*
X163533330Y-120795007D02*
X163533330Y-120580721D01*
X163533330Y-120580721D02*
X163566663Y-120509292D01*
X163566663Y-120509292D02*
X163599997Y-120473578D01*
X163599997Y-120473578D02*
X163666663Y-120437864D01*
X163666663Y-120437864D02*
X163799997Y-120437864D01*
X163799997Y-120437864D02*
X163866663Y-120473578D01*
X164166663Y-120937864D02*
X164166663Y-120187864D01*
X164166663Y-120473578D02*
X164233330Y-120437864D01*
X164233330Y-120437864D02*
X164366663Y-120437864D01*
X164366663Y-120437864D02*
X164433330Y-120473578D01*
X164433330Y-120473578D02*
X164466663Y-120509292D01*
X164466663Y-120509292D02*
X164499997Y-120580721D01*
X164499997Y-120580721D02*
X164499997Y-120795007D01*
X164499997Y-120795007D02*
X164466663Y-120866435D01*
X164466663Y-120866435D02*
X164433330Y-120902150D01*
X164433330Y-120902150D02*
X164366663Y-120937864D01*
X164366663Y-120937864D02*
X164233330Y-120937864D01*
X164233330Y-120937864D02*
X164166663Y-120902150D01*
D10*
X162081009Y-102592856D02*
X162128628Y-102507142D01*
X162128628Y-102507142D02*
X162176247Y-102478571D01*
X162176247Y-102478571D02*
X162271485Y-102449999D01*
X162271485Y-102449999D02*
X162414342Y-102449999D01*
X162414342Y-102449999D02*
X162509580Y-102478571D01*
X162509580Y-102478571D02*
X162557200Y-102507142D01*
X162557200Y-102507142D02*
X162604819Y-102564285D01*
X162604819Y-102564285D02*
X162604819Y-102792856D01*
X162604819Y-102792856D02*
X161604819Y-102792856D01*
X161604819Y-102792856D02*
X161604819Y-102592856D01*
X161604819Y-102592856D02*
X161652438Y-102535714D01*
X161652438Y-102535714D02*
X161700057Y-102507142D01*
X161700057Y-102507142D02*
X161795295Y-102478571D01*
X161795295Y-102478571D02*
X161890533Y-102478571D01*
X161890533Y-102478571D02*
X161985771Y-102507142D01*
X161985771Y-102507142D02*
X162033390Y-102535714D01*
X162033390Y-102535714D02*
X162081009Y-102592856D01*
X162081009Y-102592856D02*
X162081009Y-102792856D01*
X162604819Y-101878571D02*
X162604819Y-102221428D01*
X162604819Y-102049999D02*
X161604819Y-102049999D01*
X161604819Y-102049999D02*
X161747676Y-102107142D01*
X161747676Y-102107142D02*
X161842914Y-102164285D01*
X161842914Y-102164285D02*
X161890533Y-102221428D01*
D13*
X170374809Y-95457142D02*
X170779571Y-95457142D01*
X170779571Y-95457142D02*
X170827190Y-95433332D01*
X170827190Y-95433332D02*
X170851000Y-95409523D01*
X170851000Y-95409523D02*
X170874809Y-95361904D01*
X170874809Y-95361904D02*
X170874809Y-95266666D01*
X170874809Y-95266666D02*
X170851000Y-95219047D01*
X170851000Y-95219047D02*
X170827190Y-95195237D01*
X170827190Y-95195237D02*
X170779571Y-95171428D01*
X170779571Y-95171428D02*
X170374809Y-95171428D01*
X170374809Y-94980951D02*
X170374809Y-94671427D01*
X170374809Y-94671427D02*
X170565285Y-94838094D01*
X170565285Y-94838094D02*
X170565285Y-94766665D01*
X170565285Y-94766665D02*
X170589095Y-94719046D01*
X170589095Y-94719046D02*
X170612904Y-94695237D01*
X170612904Y-94695237D02*
X170660523Y-94671427D01*
X170660523Y-94671427D02*
X170779571Y-94671427D01*
X170779571Y-94671427D02*
X170827190Y-94695237D01*
X170827190Y-94695237D02*
X170851000Y-94719046D01*
X170851000Y-94719046D02*
X170874809Y-94766665D01*
X170874809Y-94766665D02*
X170874809Y-94909522D01*
X170874809Y-94909522D02*
X170851000Y-94957141D01*
X170851000Y-94957141D02*
X170827190Y-94980951D01*
X170374809Y-94361904D02*
X170374809Y-94314285D01*
X170374809Y-94314285D02*
X170398619Y-94266666D01*
X170398619Y-94266666D02*
X170422428Y-94242856D01*
X170422428Y-94242856D02*
X170470047Y-94219047D01*
X170470047Y-94219047D02*
X170565285Y-94195237D01*
X170565285Y-94195237D02*
X170684333Y-94195237D01*
X170684333Y-94195237D02*
X170779571Y-94219047D01*
X170779571Y-94219047D02*
X170827190Y-94242856D01*
X170827190Y-94242856D02*
X170851000Y-94266666D01*
X170851000Y-94266666D02*
X170874809Y-94314285D01*
X170874809Y-94314285D02*
X170874809Y-94361904D01*
X170874809Y-94361904D02*
X170851000Y-94409523D01*
X170851000Y-94409523D02*
X170827190Y-94433332D01*
X170827190Y-94433332D02*
X170779571Y-94457142D01*
X170779571Y-94457142D02*
X170684333Y-94480951D01*
X170684333Y-94480951D02*
X170565285Y-94480951D01*
X170565285Y-94480951D02*
X170470047Y-94457142D01*
X170470047Y-94457142D02*
X170422428Y-94433332D01*
X170422428Y-94433332D02*
X170398619Y-94409523D01*
X170398619Y-94409523D02*
X170374809Y-94361904D01*
X170874809Y-93719047D02*
X170874809Y-94004761D01*
X170874809Y-93861904D02*
X170374809Y-93861904D01*
X170374809Y-93861904D02*
X170446238Y-93909523D01*
X170446238Y-93909523D02*
X170493857Y-93957142D01*
X170493857Y-93957142D02*
X170517666Y-94004761D01*
X149840476Y-110824809D02*
X149673810Y-110586714D01*
X149554762Y-110824809D02*
X149554762Y-110324809D01*
X149554762Y-110324809D02*
X149745238Y-110324809D01*
X149745238Y-110324809D02*
X149792857Y-110348619D01*
X149792857Y-110348619D02*
X149816667Y-110372428D01*
X149816667Y-110372428D02*
X149840476Y-110420047D01*
X149840476Y-110420047D02*
X149840476Y-110491476D01*
X149840476Y-110491476D02*
X149816667Y-110539095D01*
X149816667Y-110539095D02*
X149792857Y-110562904D01*
X149792857Y-110562904D02*
X149745238Y-110586714D01*
X149745238Y-110586714D02*
X149554762Y-110586714D01*
X150269048Y-110491476D02*
X150269048Y-110824809D01*
X150150000Y-110301000D02*
X150030953Y-110658142D01*
X150030953Y-110658142D02*
X150340476Y-110658142D01*
X150626190Y-110324809D02*
X150673809Y-110324809D01*
X150673809Y-110324809D02*
X150721428Y-110348619D01*
X150721428Y-110348619D02*
X150745238Y-110372428D01*
X150745238Y-110372428D02*
X150769047Y-110420047D01*
X150769047Y-110420047D02*
X150792857Y-110515285D01*
X150792857Y-110515285D02*
X150792857Y-110634333D01*
X150792857Y-110634333D02*
X150769047Y-110729571D01*
X150769047Y-110729571D02*
X150745238Y-110777190D01*
X150745238Y-110777190D02*
X150721428Y-110801000D01*
X150721428Y-110801000D02*
X150673809Y-110824809D01*
X150673809Y-110824809D02*
X150626190Y-110824809D01*
X150626190Y-110824809D02*
X150578571Y-110801000D01*
X150578571Y-110801000D02*
X150554762Y-110777190D01*
X150554762Y-110777190D02*
X150530952Y-110729571D01*
X150530952Y-110729571D02*
X150507143Y-110634333D01*
X150507143Y-110634333D02*
X150507143Y-110515285D01*
X150507143Y-110515285D02*
X150530952Y-110420047D01*
X150530952Y-110420047D02*
X150554762Y-110372428D01*
X150554762Y-110372428D02*
X150578571Y-110348619D01*
X150578571Y-110348619D02*
X150626190Y-110324809D01*
X150959523Y-110324809D02*
X151269047Y-110324809D01*
X151269047Y-110324809D02*
X151102380Y-110515285D01*
X151102380Y-110515285D02*
X151173809Y-110515285D01*
X151173809Y-110515285D02*
X151221428Y-110539095D01*
X151221428Y-110539095D02*
X151245237Y-110562904D01*
X151245237Y-110562904D02*
X151269047Y-110610523D01*
X151269047Y-110610523D02*
X151269047Y-110729571D01*
X151269047Y-110729571D02*
X151245237Y-110777190D01*
X151245237Y-110777190D02*
X151221428Y-110801000D01*
X151221428Y-110801000D02*
X151173809Y-110824809D01*
X151173809Y-110824809D02*
X151030952Y-110824809D01*
X151030952Y-110824809D02*
X150983333Y-110801000D01*
X150983333Y-110801000D02*
X150959523Y-110777190D01*
X137090476Y-108777190D02*
X137066667Y-108801000D01*
X137066667Y-108801000D02*
X136995238Y-108824809D01*
X136995238Y-108824809D02*
X136947619Y-108824809D01*
X136947619Y-108824809D02*
X136876191Y-108801000D01*
X136876191Y-108801000D02*
X136828572Y-108753380D01*
X136828572Y-108753380D02*
X136804762Y-108705761D01*
X136804762Y-108705761D02*
X136780953Y-108610523D01*
X136780953Y-108610523D02*
X136780953Y-108539095D01*
X136780953Y-108539095D02*
X136804762Y-108443857D01*
X136804762Y-108443857D02*
X136828572Y-108396238D01*
X136828572Y-108396238D02*
X136876191Y-108348619D01*
X136876191Y-108348619D02*
X136947619Y-108324809D01*
X136947619Y-108324809D02*
X136995238Y-108324809D01*
X136995238Y-108324809D02*
X137066667Y-108348619D01*
X137066667Y-108348619D02*
X137090476Y-108372428D01*
X137257143Y-108324809D02*
X137566667Y-108324809D01*
X137566667Y-108324809D02*
X137400000Y-108515285D01*
X137400000Y-108515285D02*
X137471429Y-108515285D01*
X137471429Y-108515285D02*
X137519048Y-108539095D01*
X137519048Y-108539095D02*
X137542857Y-108562904D01*
X137542857Y-108562904D02*
X137566667Y-108610523D01*
X137566667Y-108610523D02*
X137566667Y-108729571D01*
X137566667Y-108729571D02*
X137542857Y-108777190D01*
X137542857Y-108777190D02*
X137519048Y-108801000D01*
X137519048Y-108801000D02*
X137471429Y-108824809D01*
X137471429Y-108824809D02*
X137328572Y-108824809D01*
X137328572Y-108824809D02*
X137280953Y-108801000D01*
X137280953Y-108801000D02*
X137257143Y-108777190D01*
X137876190Y-108324809D02*
X137923809Y-108324809D01*
X137923809Y-108324809D02*
X137971428Y-108348619D01*
X137971428Y-108348619D02*
X137995238Y-108372428D01*
X137995238Y-108372428D02*
X138019047Y-108420047D01*
X138019047Y-108420047D02*
X138042857Y-108515285D01*
X138042857Y-108515285D02*
X138042857Y-108634333D01*
X138042857Y-108634333D02*
X138019047Y-108729571D01*
X138019047Y-108729571D02*
X137995238Y-108777190D01*
X137995238Y-108777190D02*
X137971428Y-108801000D01*
X137971428Y-108801000D02*
X137923809Y-108824809D01*
X137923809Y-108824809D02*
X137876190Y-108824809D01*
X137876190Y-108824809D02*
X137828571Y-108801000D01*
X137828571Y-108801000D02*
X137804762Y-108777190D01*
X137804762Y-108777190D02*
X137780952Y-108729571D01*
X137780952Y-108729571D02*
X137757143Y-108634333D01*
X137757143Y-108634333D02*
X137757143Y-108515285D01*
X137757143Y-108515285D02*
X137780952Y-108420047D01*
X137780952Y-108420047D02*
X137804762Y-108372428D01*
X137804762Y-108372428D02*
X137828571Y-108348619D01*
X137828571Y-108348619D02*
X137876190Y-108324809D01*
X138328571Y-108539095D02*
X138280952Y-108515285D01*
X138280952Y-108515285D02*
X138257142Y-108491476D01*
X138257142Y-108491476D02*
X138233333Y-108443857D01*
X138233333Y-108443857D02*
X138233333Y-108420047D01*
X138233333Y-108420047D02*
X138257142Y-108372428D01*
X138257142Y-108372428D02*
X138280952Y-108348619D01*
X138280952Y-108348619D02*
X138328571Y-108324809D01*
X138328571Y-108324809D02*
X138423809Y-108324809D01*
X138423809Y-108324809D02*
X138471428Y-108348619D01*
X138471428Y-108348619D02*
X138495237Y-108372428D01*
X138495237Y-108372428D02*
X138519047Y-108420047D01*
X138519047Y-108420047D02*
X138519047Y-108443857D01*
X138519047Y-108443857D02*
X138495237Y-108491476D01*
X138495237Y-108491476D02*
X138471428Y-108515285D01*
X138471428Y-108515285D02*
X138423809Y-108539095D01*
X138423809Y-108539095D02*
X138328571Y-108539095D01*
X138328571Y-108539095D02*
X138280952Y-108562904D01*
X138280952Y-108562904D02*
X138257142Y-108586714D01*
X138257142Y-108586714D02*
X138233333Y-108634333D01*
X138233333Y-108634333D02*
X138233333Y-108729571D01*
X138233333Y-108729571D02*
X138257142Y-108777190D01*
X138257142Y-108777190D02*
X138280952Y-108801000D01*
X138280952Y-108801000D02*
X138328571Y-108824809D01*
X138328571Y-108824809D02*
X138423809Y-108824809D01*
X138423809Y-108824809D02*
X138471428Y-108801000D01*
X138471428Y-108801000D02*
X138495237Y-108777190D01*
X138495237Y-108777190D02*
X138519047Y-108729571D01*
X138519047Y-108729571D02*
X138519047Y-108634333D01*
X138519047Y-108634333D02*
X138495237Y-108586714D01*
X138495237Y-108586714D02*
X138471428Y-108562904D01*
X138471428Y-108562904D02*
X138423809Y-108539095D01*
X161077190Y-91909523D02*
X161101000Y-91933332D01*
X161101000Y-91933332D02*
X161124809Y-92004761D01*
X161124809Y-92004761D02*
X161124809Y-92052380D01*
X161124809Y-92052380D02*
X161101000Y-92123808D01*
X161101000Y-92123808D02*
X161053380Y-92171427D01*
X161053380Y-92171427D02*
X161005761Y-92195237D01*
X161005761Y-92195237D02*
X160910523Y-92219046D01*
X160910523Y-92219046D02*
X160839095Y-92219046D01*
X160839095Y-92219046D02*
X160743857Y-92195237D01*
X160743857Y-92195237D02*
X160696238Y-92171427D01*
X160696238Y-92171427D02*
X160648619Y-92123808D01*
X160648619Y-92123808D02*
X160624809Y-92052380D01*
X160624809Y-92052380D02*
X160624809Y-92004761D01*
X160624809Y-92004761D02*
X160648619Y-91933332D01*
X160648619Y-91933332D02*
X160672428Y-91909523D01*
X160624809Y-91742856D02*
X160624809Y-91433332D01*
X160624809Y-91433332D02*
X160815285Y-91599999D01*
X160815285Y-91599999D02*
X160815285Y-91528570D01*
X160815285Y-91528570D02*
X160839095Y-91480951D01*
X160839095Y-91480951D02*
X160862904Y-91457142D01*
X160862904Y-91457142D02*
X160910523Y-91433332D01*
X160910523Y-91433332D02*
X161029571Y-91433332D01*
X161029571Y-91433332D02*
X161077190Y-91457142D01*
X161077190Y-91457142D02*
X161101000Y-91480951D01*
X161101000Y-91480951D02*
X161124809Y-91528570D01*
X161124809Y-91528570D02*
X161124809Y-91671427D01*
X161124809Y-91671427D02*
X161101000Y-91719046D01*
X161101000Y-91719046D02*
X161077190Y-91742856D01*
X160624809Y-91123809D02*
X160624809Y-91076190D01*
X160624809Y-91076190D02*
X160648619Y-91028571D01*
X160648619Y-91028571D02*
X160672428Y-91004761D01*
X160672428Y-91004761D02*
X160720047Y-90980952D01*
X160720047Y-90980952D02*
X160815285Y-90957142D01*
X160815285Y-90957142D02*
X160934333Y-90957142D01*
X160934333Y-90957142D02*
X161029571Y-90980952D01*
X161029571Y-90980952D02*
X161077190Y-91004761D01*
X161077190Y-91004761D02*
X161101000Y-91028571D01*
X161101000Y-91028571D02*
X161124809Y-91076190D01*
X161124809Y-91076190D02*
X161124809Y-91123809D01*
X161124809Y-91123809D02*
X161101000Y-91171428D01*
X161101000Y-91171428D02*
X161077190Y-91195237D01*
X161077190Y-91195237D02*
X161029571Y-91219047D01*
X161029571Y-91219047D02*
X160934333Y-91242856D01*
X160934333Y-91242856D02*
X160815285Y-91242856D01*
X160815285Y-91242856D02*
X160720047Y-91219047D01*
X160720047Y-91219047D02*
X160672428Y-91195237D01*
X160672428Y-91195237D02*
X160648619Y-91171428D01*
X160648619Y-91171428D02*
X160624809Y-91123809D01*
X161124809Y-90480952D02*
X161124809Y-90766666D01*
X161124809Y-90623809D02*
X160624809Y-90623809D01*
X160624809Y-90623809D02*
X160696238Y-90671428D01*
X160696238Y-90671428D02*
X160743857Y-90719047D01*
X160743857Y-90719047D02*
X160767666Y-90766666D01*
X155840476Y-94527190D02*
X155816667Y-94551000D01*
X155816667Y-94551000D02*
X155745238Y-94574809D01*
X155745238Y-94574809D02*
X155697619Y-94574809D01*
X155697619Y-94574809D02*
X155626191Y-94551000D01*
X155626191Y-94551000D02*
X155578572Y-94503380D01*
X155578572Y-94503380D02*
X155554762Y-94455761D01*
X155554762Y-94455761D02*
X155530953Y-94360523D01*
X155530953Y-94360523D02*
X155530953Y-94289095D01*
X155530953Y-94289095D02*
X155554762Y-94193857D01*
X155554762Y-94193857D02*
X155578572Y-94146238D01*
X155578572Y-94146238D02*
X155626191Y-94098619D01*
X155626191Y-94098619D02*
X155697619Y-94074809D01*
X155697619Y-94074809D02*
X155745238Y-94074809D01*
X155745238Y-94074809D02*
X155816667Y-94098619D01*
X155816667Y-94098619D02*
X155840476Y-94122428D01*
X156269048Y-94241476D02*
X156269048Y-94574809D01*
X156150000Y-94051000D02*
X156030953Y-94408142D01*
X156030953Y-94408142D02*
X156340476Y-94408142D01*
X156626190Y-94074809D02*
X156673809Y-94074809D01*
X156673809Y-94074809D02*
X156721428Y-94098619D01*
X156721428Y-94098619D02*
X156745238Y-94122428D01*
X156745238Y-94122428D02*
X156769047Y-94170047D01*
X156769047Y-94170047D02*
X156792857Y-94265285D01*
X156792857Y-94265285D02*
X156792857Y-94384333D01*
X156792857Y-94384333D02*
X156769047Y-94479571D01*
X156769047Y-94479571D02*
X156745238Y-94527190D01*
X156745238Y-94527190D02*
X156721428Y-94551000D01*
X156721428Y-94551000D02*
X156673809Y-94574809D01*
X156673809Y-94574809D02*
X156626190Y-94574809D01*
X156626190Y-94574809D02*
X156578571Y-94551000D01*
X156578571Y-94551000D02*
X156554762Y-94527190D01*
X156554762Y-94527190D02*
X156530952Y-94479571D01*
X156530952Y-94479571D02*
X156507143Y-94384333D01*
X156507143Y-94384333D02*
X156507143Y-94265285D01*
X156507143Y-94265285D02*
X156530952Y-94170047D01*
X156530952Y-94170047D02*
X156554762Y-94122428D01*
X156554762Y-94122428D02*
X156578571Y-94098619D01*
X156578571Y-94098619D02*
X156626190Y-94074809D01*
X156959523Y-94074809D02*
X157292856Y-94074809D01*
X157292856Y-94074809D02*
X157078571Y-94574809D01*
X159090476Y-102027190D02*
X159066667Y-102051000D01*
X159066667Y-102051000D02*
X158995238Y-102074809D01*
X158995238Y-102074809D02*
X158947619Y-102074809D01*
X158947619Y-102074809D02*
X158876191Y-102051000D01*
X158876191Y-102051000D02*
X158828572Y-102003380D01*
X158828572Y-102003380D02*
X158804762Y-101955761D01*
X158804762Y-101955761D02*
X158780953Y-101860523D01*
X158780953Y-101860523D02*
X158780953Y-101789095D01*
X158780953Y-101789095D02*
X158804762Y-101693857D01*
X158804762Y-101693857D02*
X158828572Y-101646238D01*
X158828572Y-101646238D02*
X158876191Y-101598619D01*
X158876191Y-101598619D02*
X158947619Y-101574809D01*
X158947619Y-101574809D02*
X158995238Y-101574809D01*
X158995238Y-101574809D02*
X159066667Y-101598619D01*
X159066667Y-101598619D02*
X159090476Y-101622428D01*
X159519048Y-101741476D02*
X159519048Y-102074809D01*
X159400000Y-101551000D02*
X159280953Y-101908142D01*
X159280953Y-101908142D02*
X159590476Y-101908142D01*
X159876190Y-101574809D02*
X159923809Y-101574809D01*
X159923809Y-101574809D02*
X159971428Y-101598619D01*
X159971428Y-101598619D02*
X159995238Y-101622428D01*
X159995238Y-101622428D02*
X160019047Y-101670047D01*
X160019047Y-101670047D02*
X160042857Y-101765285D01*
X160042857Y-101765285D02*
X160042857Y-101884333D01*
X160042857Y-101884333D02*
X160019047Y-101979571D01*
X160019047Y-101979571D02*
X159995238Y-102027190D01*
X159995238Y-102027190D02*
X159971428Y-102051000D01*
X159971428Y-102051000D02*
X159923809Y-102074809D01*
X159923809Y-102074809D02*
X159876190Y-102074809D01*
X159876190Y-102074809D02*
X159828571Y-102051000D01*
X159828571Y-102051000D02*
X159804762Y-102027190D01*
X159804762Y-102027190D02*
X159780952Y-101979571D01*
X159780952Y-101979571D02*
X159757143Y-101884333D01*
X159757143Y-101884333D02*
X159757143Y-101765285D01*
X159757143Y-101765285D02*
X159780952Y-101670047D01*
X159780952Y-101670047D02*
X159804762Y-101622428D01*
X159804762Y-101622428D02*
X159828571Y-101598619D01*
X159828571Y-101598619D02*
X159876190Y-101574809D01*
X160471428Y-101574809D02*
X160376190Y-101574809D01*
X160376190Y-101574809D02*
X160328571Y-101598619D01*
X160328571Y-101598619D02*
X160304761Y-101622428D01*
X160304761Y-101622428D02*
X160257142Y-101693857D01*
X160257142Y-101693857D02*
X160233333Y-101789095D01*
X160233333Y-101789095D02*
X160233333Y-101979571D01*
X160233333Y-101979571D02*
X160257142Y-102027190D01*
X160257142Y-102027190D02*
X160280952Y-102051000D01*
X160280952Y-102051000D02*
X160328571Y-102074809D01*
X160328571Y-102074809D02*
X160423809Y-102074809D01*
X160423809Y-102074809D02*
X160471428Y-102051000D01*
X160471428Y-102051000D02*
X160495237Y-102027190D01*
X160495237Y-102027190D02*
X160519047Y-101979571D01*
X160519047Y-101979571D02*
X160519047Y-101860523D01*
X160519047Y-101860523D02*
X160495237Y-101812904D01*
X160495237Y-101812904D02*
X160471428Y-101789095D01*
X160471428Y-101789095D02*
X160423809Y-101765285D01*
X160423809Y-101765285D02*
X160328571Y-101765285D01*
X160328571Y-101765285D02*
X160280952Y-101789095D01*
X160280952Y-101789095D02*
X160257142Y-101812904D01*
X160257142Y-101812904D02*
X160233333Y-101860523D01*
X139577190Y-109659523D02*
X139601000Y-109683332D01*
X139601000Y-109683332D02*
X139624809Y-109754761D01*
X139624809Y-109754761D02*
X139624809Y-109802380D01*
X139624809Y-109802380D02*
X139601000Y-109873808D01*
X139601000Y-109873808D02*
X139553380Y-109921427D01*
X139553380Y-109921427D02*
X139505761Y-109945237D01*
X139505761Y-109945237D02*
X139410523Y-109969046D01*
X139410523Y-109969046D02*
X139339095Y-109969046D01*
X139339095Y-109969046D02*
X139243857Y-109945237D01*
X139243857Y-109945237D02*
X139196238Y-109921427D01*
X139196238Y-109921427D02*
X139148619Y-109873808D01*
X139148619Y-109873808D02*
X139124809Y-109802380D01*
X139124809Y-109802380D02*
X139124809Y-109754761D01*
X139124809Y-109754761D02*
X139148619Y-109683332D01*
X139148619Y-109683332D02*
X139172428Y-109659523D01*
X139124809Y-109492856D02*
X139124809Y-109183332D01*
X139124809Y-109183332D02*
X139315285Y-109349999D01*
X139315285Y-109349999D02*
X139315285Y-109278570D01*
X139315285Y-109278570D02*
X139339095Y-109230951D01*
X139339095Y-109230951D02*
X139362904Y-109207142D01*
X139362904Y-109207142D02*
X139410523Y-109183332D01*
X139410523Y-109183332D02*
X139529571Y-109183332D01*
X139529571Y-109183332D02*
X139577190Y-109207142D01*
X139577190Y-109207142D02*
X139601000Y-109230951D01*
X139601000Y-109230951D02*
X139624809Y-109278570D01*
X139624809Y-109278570D02*
X139624809Y-109421427D01*
X139624809Y-109421427D02*
X139601000Y-109469046D01*
X139601000Y-109469046D02*
X139577190Y-109492856D01*
X139124809Y-108873809D02*
X139124809Y-108826190D01*
X139124809Y-108826190D02*
X139148619Y-108778571D01*
X139148619Y-108778571D02*
X139172428Y-108754761D01*
X139172428Y-108754761D02*
X139220047Y-108730952D01*
X139220047Y-108730952D02*
X139315285Y-108707142D01*
X139315285Y-108707142D02*
X139434333Y-108707142D01*
X139434333Y-108707142D02*
X139529571Y-108730952D01*
X139529571Y-108730952D02*
X139577190Y-108754761D01*
X139577190Y-108754761D02*
X139601000Y-108778571D01*
X139601000Y-108778571D02*
X139624809Y-108826190D01*
X139624809Y-108826190D02*
X139624809Y-108873809D01*
X139624809Y-108873809D02*
X139601000Y-108921428D01*
X139601000Y-108921428D02*
X139577190Y-108945237D01*
X139577190Y-108945237D02*
X139529571Y-108969047D01*
X139529571Y-108969047D02*
X139434333Y-108992856D01*
X139434333Y-108992856D02*
X139315285Y-108992856D01*
X139315285Y-108992856D02*
X139220047Y-108969047D01*
X139220047Y-108969047D02*
X139172428Y-108945237D01*
X139172428Y-108945237D02*
X139148619Y-108921428D01*
X139148619Y-108921428D02*
X139124809Y-108873809D01*
X139124809Y-108540476D02*
X139124809Y-108207143D01*
X139124809Y-108207143D02*
X139624809Y-108421428D01*
X147327190Y-106909523D02*
X147351000Y-106933332D01*
X147351000Y-106933332D02*
X147374809Y-107004761D01*
X147374809Y-107004761D02*
X147374809Y-107052380D01*
X147374809Y-107052380D02*
X147351000Y-107123808D01*
X147351000Y-107123808D02*
X147303380Y-107171427D01*
X147303380Y-107171427D02*
X147255761Y-107195237D01*
X147255761Y-107195237D02*
X147160523Y-107219046D01*
X147160523Y-107219046D02*
X147089095Y-107219046D01*
X147089095Y-107219046D02*
X146993857Y-107195237D01*
X146993857Y-107195237D02*
X146946238Y-107171427D01*
X146946238Y-107171427D02*
X146898619Y-107123808D01*
X146898619Y-107123808D02*
X146874809Y-107052380D01*
X146874809Y-107052380D02*
X146874809Y-107004761D01*
X146874809Y-107004761D02*
X146898619Y-106933332D01*
X146898619Y-106933332D02*
X146922428Y-106909523D01*
X147041476Y-106480951D02*
X147374809Y-106480951D01*
X146851000Y-106599999D02*
X147208142Y-106719046D01*
X147208142Y-106719046D02*
X147208142Y-106409523D01*
X146874809Y-106123809D02*
X146874809Y-106076190D01*
X146874809Y-106076190D02*
X146898619Y-106028571D01*
X146898619Y-106028571D02*
X146922428Y-106004761D01*
X146922428Y-106004761D02*
X146970047Y-105980952D01*
X146970047Y-105980952D02*
X147065285Y-105957142D01*
X147065285Y-105957142D02*
X147184333Y-105957142D01*
X147184333Y-105957142D02*
X147279571Y-105980952D01*
X147279571Y-105980952D02*
X147327190Y-106004761D01*
X147327190Y-106004761D02*
X147351000Y-106028571D01*
X147351000Y-106028571D02*
X147374809Y-106076190D01*
X147374809Y-106076190D02*
X147374809Y-106123809D01*
X147374809Y-106123809D02*
X147351000Y-106171428D01*
X147351000Y-106171428D02*
X147327190Y-106195237D01*
X147327190Y-106195237D02*
X147279571Y-106219047D01*
X147279571Y-106219047D02*
X147184333Y-106242856D01*
X147184333Y-106242856D02*
X147065285Y-106242856D01*
X147065285Y-106242856D02*
X146970047Y-106219047D01*
X146970047Y-106219047D02*
X146922428Y-106195237D01*
X146922428Y-106195237D02*
X146898619Y-106171428D01*
X146898619Y-106171428D02*
X146874809Y-106123809D01*
X147041476Y-105528571D02*
X147374809Y-105528571D01*
X146851000Y-105647619D02*
X147208142Y-105766666D01*
X147208142Y-105766666D02*
X147208142Y-105457143D01*
X167757143Y-105824809D02*
X167757143Y-106181952D01*
X167757143Y-106181952D02*
X167733334Y-106253380D01*
X167733334Y-106253380D02*
X167685715Y-106301000D01*
X167685715Y-106301000D02*
X167614286Y-106324809D01*
X167614286Y-106324809D02*
X167566667Y-106324809D01*
X168209524Y-105991476D02*
X168209524Y-106324809D01*
X168090476Y-105801000D02*
X167971429Y-106158142D01*
X167971429Y-106158142D02*
X168280952Y-106158142D01*
X168566666Y-105824809D02*
X168614285Y-105824809D01*
X168614285Y-105824809D02*
X168661904Y-105848619D01*
X168661904Y-105848619D02*
X168685714Y-105872428D01*
X168685714Y-105872428D02*
X168709523Y-105920047D01*
X168709523Y-105920047D02*
X168733333Y-106015285D01*
X168733333Y-106015285D02*
X168733333Y-106134333D01*
X168733333Y-106134333D02*
X168709523Y-106229571D01*
X168709523Y-106229571D02*
X168685714Y-106277190D01*
X168685714Y-106277190D02*
X168661904Y-106301000D01*
X168661904Y-106301000D02*
X168614285Y-106324809D01*
X168614285Y-106324809D02*
X168566666Y-106324809D01*
X168566666Y-106324809D02*
X168519047Y-106301000D01*
X168519047Y-106301000D02*
X168495238Y-106277190D01*
X168495238Y-106277190D02*
X168471428Y-106229571D01*
X168471428Y-106229571D02*
X168447619Y-106134333D01*
X168447619Y-106134333D02*
X168447619Y-106015285D01*
X168447619Y-106015285D02*
X168471428Y-105920047D01*
X168471428Y-105920047D02*
X168495238Y-105872428D01*
X168495238Y-105872428D02*
X168519047Y-105848619D01*
X168519047Y-105848619D02*
X168566666Y-105824809D01*
X169209523Y-106324809D02*
X168923809Y-106324809D01*
X169066666Y-106324809D02*
X169066666Y-105824809D01*
X169066666Y-105824809D02*
X169019047Y-105896238D01*
X169019047Y-105896238D02*
X168971428Y-105943857D01*
X168971428Y-105943857D02*
X168923809Y-105967666D01*
X156590476Y-110277190D02*
X156566667Y-110301000D01*
X156566667Y-110301000D02*
X156495238Y-110324809D01*
X156495238Y-110324809D02*
X156447619Y-110324809D01*
X156447619Y-110324809D02*
X156376191Y-110301000D01*
X156376191Y-110301000D02*
X156328572Y-110253380D01*
X156328572Y-110253380D02*
X156304762Y-110205761D01*
X156304762Y-110205761D02*
X156280953Y-110110523D01*
X156280953Y-110110523D02*
X156280953Y-110039095D01*
X156280953Y-110039095D02*
X156304762Y-109943857D01*
X156304762Y-109943857D02*
X156328572Y-109896238D01*
X156328572Y-109896238D02*
X156376191Y-109848619D01*
X156376191Y-109848619D02*
X156447619Y-109824809D01*
X156447619Y-109824809D02*
X156495238Y-109824809D01*
X156495238Y-109824809D02*
X156566667Y-109848619D01*
X156566667Y-109848619D02*
X156590476Y-109872428D01*
X157019048Y-109991476D02*
X157019048Y-110324809D01*
X156900000Y-109801000D02*
X156780953Y-110158142D01*
X156780953Y-110158142D02*
X157090476Y-110158142D01*
X157542857Y-110324809D02*
X157257143Y-110324809D01*
X157400000Y-110324809D02*
X157400000Y-109824809D01*
X157400000Y-109824809D02*
X157352381Y-109896238D01*
X157352381Y-109896238D02*
X157304762Y-109943857D01*
X157304762Y-109943857D02*
X157257143Y-109967666D01*
X158019047Y-110324809D02*
X157733333Y-110324809D01*
X157876190Y-110324809D02*
X157876190Y-109824809D01*
X157876190Y-109824809D02*
X157828571Y-109896238D01*
X157828571Y-109896238D02*
X157780952Y-109943857D01*
X157780952Y-109943857D02*
X157733333Y-109967666D01*
X155840476Y-95277190D02*
X155816667Y-95301000D01*
X155816667Y-95301000D02*
X155745238Y-95324809D01*
X155745238Y-95324809D02*
X155697619Y-95324809D01*
X155697619Y-95324809D02*
X155626191Y-95301000D01*
X155626191Y-95301000D02*
X155578572Y-95253380D01*
X155578572Y-95253380D02*
X155554762Y-95205761D01*
X155554762Y-95205761D02*
X155530953Y-95110523D01*
X155530953Y-95110523D02*
X155530953Y-95039095D01*
X155530953Y-95039095D02*
X155554762Y-94943857D01*
X155554762Y-94943857D02*
X155578572Y-94896238D01*
X155578572Y-94896238D02*
X155626191Y-94848619D01*
X155626191Y-94848619D02*
X155697619Y-94824809D01*
X155697619Y-94824809D02*
X155745238Y-94824809D01*
X155745238Y-94824809D02*
X155816667Y-94848619D01*
X155816667Y-94848619D02*
X155840476Y-94872428D01*
X156269048Y-94991476D02*
X156269048Y-95324809D01*
X156150000Y-94801000D02*
X156030953Y-95158142D01*
X156030953Y-95158142D02*
X156340476Y-95158142D01*
X156626190Y-94824809D02*
X156673809Y-94824809D01*
X156673809Y-94824809D02*
X156721428Y-94848619D01*
X156721428Y-94848619D02*
X156745238Y-94872428D01*
X156745238Y-94872428D02*
X156769047Y-94920047D01*
X156769047Y-94920047D02*
X156792857Y-95015285D01*
X156792857Y-95015285D02*
X156792857Y-95134333D01*
X156792857Y-95134333D02*
X156769047Y-95229571D01*
X156769047Y-95229571D02*
X156745238Y-95277190D01*
X156745238Y-95277190D02*
X156721428Y-95301000D01*
X156721428Y-95301000D02*
X156673809Y-95324809D01*
X156673809Y-95324809D02*
X156626190Y-95324809D01*
X156626190Y-95324809D02*
X156578571Y-95301000D01*
X156578571Y-95301000D02*
X156554762Y-95277190D01*
X156554762Y-95277190D02*
X156530952Y-95229571D01*
X156530952Y-95229571D02*
X156507143Y-95134333D01*
X156507143Y-95134333D02*
X156507143Y-95015285D01*
X156507143Y-95015285D02*
X156530952Y-94920047D01*
X156530952Y-94920047D02*
X156554762Y-94872428D01*
X156554762Y-94872428D02*
X156578571Y-94848619D01*
X156578571Y-94848619D02*
X156626190Y-94824809D01*
X156959523Y-94824809D02*
X157269047Y-94824809D01*
X157269047Y-94824809D02*
X157102380Y-95015285D01*
X157102380Y-95015285D02*
X157173809Y-95015285D01*
X157173809Y-95015285D02*
X157221428Y-95039095D01*
X157221428Y-95039095D02*
X157245237Y-95062904D01*
X157245237Y-95062904D02*
X157269047Y-95110523D01*
X157269047Y-95110523D02*
X157269047Y-95229571D01*
X157269047Y-95229571D02*
X157245237Y-95277190D01*
X157245237Y-95277190D02*
X157221428Y-95301000D01*
X157221428Y-95301000D02*
X157173809Y-95324809D01*
X157173809Y-95324809D02*
X157030952Y-95324809D01*
X157030952Y-95324809D02*
X156983333Y-95301000D01*
X156983333Y-95301000D02*
X156959523Y-95277190D01*
X133054762Y-95074809D02*
X133054762Y-94574809D01*
X133054762Y-94574809D02*
X133173810Y-94574809D01*
X133173810Y-94574809D02*
X133245238Y-94598619D01*
X133245238Y-94598619D02*
X133292857Y-94646238D01*
X133292857Y-94646238D02*
X133316667Y-94693857D01*
X133316667Y-94693857D02*
X133340476Y-94789095D01*
X133340476Y-94789095D02*
X133340476Y-94860523D01*
X133340476Y-94860523D02*
X133316667Y-94955761D01*
X133316667Y-94955761D02*
X133292857Y-95003380D01*
X133292857Y-95003380D02*
X133245238Y-95051000D01*
X133245238Y-95051000D02*
X133173810Y-95074809D01*
X133173810Y-95074809D02*
X133054762Y-95074809D01*
X133507143Y-94574809D02*
X133816667Y-94574809D01*
X133816667Y-94574809D02*
X133650000Y-94765285D01*
X133650000Y-94765285D02*
X133721429Y-94765285D01*
X133721429Y-94765285D02*
X133769048Y-94789095D01*
X133769048Y-94789095D02*
X133792857Y-94812904D01*
X133792857Y-94812904D02*
X133816667Y-94860523D01*
X133816667Y-94860523D02*
X133816667Y-94979571D01*
X133816667Y-94979571D02*
X133792857Y-95027190D01*
X133792857Y-95027190D02*
X133769048Y-95051000D01*
X133769048Y-95051000D02*
X133721429Y-95074809D01*
X133721429Y-95074809D02*
X133578572Y-95074809D01*
X133578572Y-95074809D02*
X133530953Y-95051000D01*
X133530953Y-95051000D02*
X133507143Y-95027190D01*
X134126190Y-94574809D02*
X134173809Y-94574809D01*
X134173809Y-94574809D02*
X134221428Y-94598619D01*
X134221428Y-94598619D02*
X134245238Y-94622428D01*
X134245238Y-94622428D02*
X134269047Y-94670047D01*
X134269047Y-94670047D02*
X134292857Y-94765285D01*
X134292857Y-94765285D02*
X134292857Y-94884333D01*
X134292857Y-94884333D02*
X134269047Y-94979571D01*
X134269047Y-94979571D02*
X134245238Y-95027190D01*
X134245238Y-95027190D02*
X134221428Y-95051000D01*
X134221428Y-95051000D02*
X134173809Y-95074809D01*
X134173809Y-95074809D02*
X134126190Y-95074809D01*
X134126190Y-95074809D02*
X134078571Y-95051000D01*
X134078571Y-95051000D02*
X134054762Y-95027190D01*
X134054762Y-95027190D02*
X134030952Y-94979571D01*
X134030952Y-94979571D02*
X134007143Y-94884333D01*
X134007143Y-94884333D02*
X134007143Y-94765285D01*
X134007143Y-94765285D02*
X134030952Y-94670047D01*
X134030952Y-94670047D02*
X134054762Y-94622428D01*
X134054762Y-94622428D02*
X134078571Y-94598619D01*
X134078571Y-94598619D02*
X134126190Y-94574809D01*
X134769047Y-95074809D02*
X134483333Y-95074809D01*
X134626190Y-95074809D02*
X134626190Y-94574809D01*
X134626190Y-94574809D02*
X134578571Y-94646238D01*
X134578571Y-94646238D02*
X134530952Y-94693857D01*
X134530952Y-94693857D02*
X134483333Y-94717666D01*
X136744140Y-96074809D02*
X136744140Y-96431952D01*
X136744140Y-96431952D02*
X136720331Y-96503380D01*
X136720331Y-96503380D02*
X136672712Y-96551000D01*
X136672712Y-96551000D02*
X136601283Y-96574809D01*
X136601283Y-96574809D02*
X136553664Y-96574809D01*
X136934616Y-96074809D02*
X137244140Y-96074809D01*
X137244140Y-96074809D02*
X137077473Y-96265285D01*
X137077473Y-96265285D02*
X137148902Y-96265285D01*
X137148902Y-96265285D02*
X137196521Y-96289095D01*
X137196521Y-96289095D02*
X137220330Y-96312904D01*
X137220330Y-96312904D02*
X137244140Y-96360523D01*
X137244140Y-96360523D02*
X137244140Y-96479571D01*
X137244140Y-96479571D02*
X137220330Y-96527190D01*
X137220330Y-96527190D02*
X137196521Y-96551000D01*
X137196521Y-96551000D02*
X137148902Y-96574809D01*
X137148902Y-96574809D02*
X137006045Y-96574809D01*
X137006045Y-96574809D02*
X136958426Y-96551000D01*
X136958426Y-96551000D02*
X136934616Y-96527190D01*
X137553663Y-96074809D02*
X137601282Y-96074809D01*
X137601282Y-96074809D02*
X137648901Y-96098619D01*
X137648901Y-96098619D02*
X137672711Y-96122428D01*
X137672711Y-96122428D02*
X137696520Y-96170047D01*
X137696520Y-96170047D02*
X137720330Y-96265285D01*
X137720330Y-96265285D02*
X137720330Y-96384333D01*
X137720330Y-96384333D02*
X137696520Y-96479571D01*
X137696520Y-96479571D02*
X137672711Y-96527190D01*
X137672711Y-96527190D02*
X137648901Y-96551000D01*
X137648901Y-96551000D02*
X137601282Y-96574809D01*
X137601282Y-96574809D02*
X137553663Y-96574809D01*
X137553663Y-96574809D02*
X137506044Y-96551000D01*
X137506044Y-96551000D02*
X137482235Y-96527190D01*
X137482235Y-96527190D02*
X137458425Y-96479571D01*
X137458425Y-96479571D02*
X137434616Y-96384333D01*
X137434616Y-96384333D02*
X137434616Y-96265285D01*
X137434616Y-96265285D02*
X137458425Y-96170047D01*
X137458425Y-96170047D02*
X137482235Y-96122428D01*
X137482235Y-96122428D02*
X137506044Y-96098619D01*
X137506044Y-96098619D02*
X137553663Y-96074809D01*
X138196520Y-96574809D02*
X137910806Y-96574809D01*
X138053663Y-96574809D02*
X138053663Y-96074809D01*
X138053663Y-96074809D02*
X138006044Y-96146238D01*
X138006044Y-96146238D02*
X137958425Y-96193857D01*
X137958425Y-96193857D02*
X137910806Y-96217666D01*
X156340476Y-92527190D02*
X156316667Y-92551000D01*
X156316667Y-92551000D02*
X156245238Y-92574809D01*
X156245238Y-92574809D02*
X156197619Y-92574809D01*
X156197619Y-92574809D02*
X156126191Y-92551000D01*
X156126191Y-92551000D02*
X156078572Y-92503380D01*
X156078572Y-92503380D02*
X156054762Y-92455761D01*
X156054762Y-92455761D02*
X156030953Y-92360523D01*
X156030953Y-92360523D02*
X156030953Y-92289095D01*
X156030953Y-92289095D02*
X156054762Y-92193857D01*
X156054762Y-92193857D02*
X156078572Y-92146238D01*
X156078572Y-92146238D02*
X156126191Y-92098619D01*
X156126191Y-92098619D02*
X156197619Y-92074809D01*
X156197619Y-92074809D02*
X156245238Y-92074809D01*
X156245238Y-92074809D02*
X156316667Y-92098619D01*
X156316667Y-92098619D02*
X156340476Y-92122428D01*
X156769048Y-92241476D02*
X156769048Y-92574809D01*
X156650000Y-92051000D02*
X156530953Y-92408142D01*
X156530953Y-92408142D02*
X156840476Y-92408142D01*
X157126190Y-92074809D02*
X157173809Y-92074809D01*
X157173809Y-92074809D02*
X157221428Y-92098619D01*
X157221428Y-92098619D02*
X157245238Y-92122428D01*
X157245238Y-92122428D02*
X157269047Y-92170047D01*
X157269047Y-92170047D02*
X157292857Y-92265285D01*
X157292857Y-92265285D02*
X157292857Y-92384333D01*
X157292857Y-92384333D02*
X157269047Y-92479571D01*
X157269047Y-92479571D02*
X157245238Y-92527190D01*
X157245238Y-92527190D02*
X157221428Y-92551000D01*
X157221428Y-92551000D02*
X157173809Y-92574809D01*
X157173809Y-92574809D02*
X157126190Y-92574809D01*
X157126190Y-92574809D02*
X157078571Y-92551000D01*
X157078571Y-92551000D02*
X157054762Y-92527190D01*
X157054762Y-92527190D02*
X157030952Y-92479571D01*
X157030952Y-92479571D02*
X157007143Y-92384333D01*
X157007143Y-92384333D02*
X157007143Y-92265285D01*
X157007143Y-92265285D02*
X157030952Y-92170047D01*
X157030952Y-92170047D02*
X157054762Y-92122428D01*
X157054762Y-92122428D02*
X157078571Y-92098619D01*
X157078571Y-92098619D02*
X157126190Y-92074809D01*
X157578571Y-92289095D02*
X157530952Y-92265285D01*
X157530952Y-92265285D02*
X157507142Y-92241476D01*
X157507142Y-92241476D02*
X157483333Y-92193857D01*
X157483333Y-92193857D02*
X157483333Y-92170047D01*
X157483333Y-92170047D02*
X157507142Y-92122428D01*
X157507142Y-92122428D02*
X157530952Y-92098619D01*
X157530952Y-92098619D02*
X157578571Y-92074809D01*
X157578571Y-92074809D02*
X157673809Y-92074809D01*
X157673809Y-92074809D02*
X157721428Y-92098619D01*
X157721428Y-92098619D02*
X157745237Y-92122428D01*
X157745237Y-92122428D02*
X157769047Y-92170047D01*
X157769047Y-92170047D02*
X157769047Y-92193857D01*
X157769047Y-92193857D02*
X157745237Y-92241476D01*
X157745237Y-92241476D02*
X157721428Y-92265285D01*
X157721428Y-92265285D02*
X157673809Y-92289095D01*
X157673809Y-92289095D02*
X157578571Y-92289095D01*
X157578571Y-92289095D02*
X157530952Y-92312904D01*
X157530952Y-92312904D02*
X157507142Y-92336714D01*
X157507142Y-92336714D02*
X157483333Y-92384333D01*
X157483333Y-92384333D02*
X157483333Y-92479571D01*
X157483333Y-92479571D02*
X157507142Y-92527190D01*
X157507142Y-92527190D02*
X157530952Y-92551000D01*
X157530952Y-92551000D02*
X157578571Y-92574809D01*
X157578571Y-92574809D02*
X157673809Y-92574809D01*
X157673809Y-92574809D02*
X157721428Y-92551000D01*
X157721428Y-92551000D02*
X157745237Y-92527190D01*
X157745237Y-92527190D02*
X157769047Y-92479571D01*
X157769047Y-92479571D02*
X157769047Y-92384333D01*
X157769047Y-92384333D02*
X157745237Y-92336714D01*
X157745237Y-92336714D02*
X157721428Y-92312904D01*
X157721428Y-92312904D02*
X157673809Y-92289095D01*
X155792857Y-105574809D02*
X155792857Y-105979571D01*
X155792857Y-105979571D02*
X155816667Y-106027190D01*
X155816667Y-106027190D02*
X155840476Y-106051000D01*
X155840476Y-106051000D02*
X155888095Y-106074809D01*
X155888095Y-106074809D02*
X155983333Y-106074809D01*
X155983333Y-106074809D02*
X156030952Y-106051000D01*
X156030952Y-106051000D02*
X156054762Y-106027190D01*
X156054762Y-106027190D02*
X156078571Y-105979571D01*
X156078571Y-105979571D02*
X156078571Y-105574809D01*
X156530953Y-105741476D02*
X156530953Y-106074809D01*
X156411905Y-105551000D02*
X156292858Y-105908142D01*
X156292858Y-105908142D02*
X156602381Y-105908142D01*
X156888095Y-105574809D02*
X156935714Y-105574809D01*
X156935714Y-105574809D02*
X156983333Y-105598619D01*
X156983333Y-105598619D02*
X157007143Y-105622428D01*
X157007143Y-105622428D02*
X157030952Y-105670047D01*
X157030952Y-105670047D02*
X157054762Y-105765285D01*
X157054762Y-105765285D02*
X157054762Y-105884333D01*
X157054762Y-105884333D02*
X157030952Y-105979571D01*
X157030952Y-105979571D02*
X157007143Y-106027190D01*
X157007143Y-106027190D02*
X156983333Y-106051000D01*
X156983333Y-106051000D02*
X156935714Y-106074809D01*
X156935714Y-106074809D02*
X156888095Y-106074809D01*
X156888095Y-106074809D02*
X156840476Y-106051000D01*
X156840476Y-106051000D02*
X156816667Y-106027190D01*
X156816667Y-106027190D02*
X156792857Y-105979571D01*
X156792857Y-105979571D02*
X156769048Y-105884333D01*
X156769048Y-105884333D02*
X156769048Y-105765285D01*
X156769048Y-105765285D02*
X156792857Y-105670047D01*
X156792857Y-105670047D02*
X156816667Y-105622428D01*
X156816667Y-105622428D02*
X156840476Y-105598619D01*
X156840476Y-105598619D02*
X156888095Y-105574809D01*
X157530952Y-106074809D02*
X157245238Y-106074809D01*
X157388095Y-106074809D02*
X157388095Y-105574809D01*
X157388095Y-105574809D02*
X157340476Y-105646238D01*
X157340476Y-105646238D02*
X157292857Y-105693857D01*
X157292857Y-105693857D02*
X157245238Y-105717666D01*
X146374809Y-99909523D02*
X146136714Y-100076189D01*
X146374809Y-100195237D02*
X145874809Y-100195237D01*
X145874809Y-100195237D02*
X145874809Y-100004761D01*
X145874809Y-100004761D02*
X145898619Y-99957142D01*
X145898619Y-99957142D02*
X145922428Y-99933332D01*
X145922428Y-99933332D02*
X145970047Y-99909523D01*
X145970047Y-99909523D02*
X146041476Y-99909523D01*
X146041476Y-99909523D02*
X146089095Y-99933332D01*
X146089095Y-99933332D02*
X146112904Y-99957142D01*
X146112904Y-99957142D02*
X146136714Y-100004761D01*
X146136714Y-100004761D02*
X146136714Y-100195237D01*
X145874809Y-99742856D02*
X145874809Y-99433332D01*
X145874809Y-99433332D02*
X146065285Y-99599999D01*
X146065285Y-99599999D02*
X146065285Y-99528570D01*
X146065285Y-99528570D02*
X146089095Y-99480951D01*
X146089095Y-99480951D02*
X146112904Y-99457142D01*
X146112904Y-99457142D02*
X146160523Y-99433332D01*
X146160523Y-99433332D02*
X146279571Y-99433332D01*
X146279571Y-99433332D02*
X146327190Y-99457142D01*
X146327190Y-99457142D02*
X146351000Y-99480951D01*
X146351000Y-99480951D02*
X146374809Y-99528570D01*
X146374809Y-99528570D02*
X146374809Y-99671427D01*
X146374809Y-99671427D02*
X146351000Y-99719046D01*
X146351000Y-99719046D02*
X146327190Y-99742856D01*
X145874809Y-99123809D02*
X145874809Y-99076190D01*
X145874809Y-99076190D02*
X145898619Y-99028571D01*
X145898619Y-99028571D02*
X145922428Y-99004761D01*
X145922428Y-99004761D02*
X145970047Y-98980952D01*
X145970047Y-98980952D02*
X146065285Y-98957142D01*
X146065285Y-98957142D02*
X146184333Y-98957142D01*
X146184333Y-98957142D02*
X146279571Y-98980952D01*
X146279571Y-98980952D02*
X146327190Y-99004761D01*
X146327190Y-99004761D02*
X146351000Y-99028571D01*
X146351000Y-99028571D02*
X146374809Y-99076190D01*
X146374809Y-99076190D02*
X146374809Y-99123809D01*
X146374809Y-99123809D02*
X146351000Y-99171428D01*
X146351000Y-99171428D02*
X146327190Y-99195237D01*
X146327190Y-99195237D02*
X146279571Y-99219047D01*
X146279571Y-99219047D02*
X146184333Y-99242856D01*
X146184333Y-99242856D02*
X146065285Y-99242856D01*
X146065285Y-99242856D02*
X145970047Y-99219047D01*
X145970047Y-99219047D02*
X145922428Y-99195237D01*
X145922428Y-99195237D02*
X145898619Y-99171428D01*
X145898619Y-99171428D02*
X145874809Y-99123809D01*
X145874809Y-98504762D02*
X145874809Y-98742857D01*
X145874809Y-98742857D02*
X146112904Y-98766666D01*
X146112904Y-98766666D02*
X146089095Y-98742857D01*
X146089095Y-98742857D02*
X146065285Y-98695238D01*
X146065285Y-98695238D02*
X146065285Y-98576190D01*
X146065285Y-98576190D02*
X146089095Y-98528571D01*
X146089095Y-98528571D02*
X146112904Y-98504762D01*
X146112904Y-98504762D02*
X146160523Y-98480952D01*
X146160523Y-98480952D02*
X146279571Y-98480952D01*
X146279571Y-98480952D02*
X146327190Y-98504762D01*
X146327190Y-98504762D02*
X146351000Y-98528571D01*
X146351000Y-98528571D02*
X146374809Y-98576190D01*
X146374809Y-98576190D02*
X146374809Y-98695238D01*
X146374809Y-98695238D02*
X146351000Y-98742857D01*
X146351000Y-98742857D02*
X146327190Y-98766666D01*
X155840476Y-108777190D02*
X155816667Y-108801000D01*
X155816667Y-108801000D02*
X155745238Y-108824809D01*
X155745238Y-108824809D02*
X155697619Y-108824809D01*
X155697619Y-108824809D02*
X155626191Y-108801000D01*
X155626191Y-108801000D02*
X155578572Y-108753380D01*
X155578572Y-108753380D02*
X155554762Y-108705761D01*
X155554762Y-108705761D02*
X155530953Y-108610523D01*
X155530953Y-108610523D02*
X155530953Y-108539095D01*
X155530953Y-108539095D02*
X155554762Y-108443857D01*
X155554762Y-108443857D02*
X155578572Y-108396238D01*
X155578572Y-108396238D02*
X155626191Y-108348619D01*
X155626191Y-108348619D02*
X155697619Y-108324809D01*
X155697619Y-108324809D02*
X155745238Y-108324809D01*
X155745238Y-108324809D02*
X155816667Y-108348619D01*
X155816667Y-108348619D02*
X155840476Y-108372428D01*
X156269048Y-108491476D02*
X156269048Y-108824809D01*
X156150000Y-108301000D02*
X156030953Y-108658142D01*
X156030953Y-108658142D02*
X156340476Y-108658142D01*
X156792857Y-108824809D02*
X156507143Y-108824809D01*
X156650000Y-108824809D02*
X156650000Y-108324809D01*
X156650000Y-108324809D02*
X156602381Y-108396238D01*
X156602381Y-108396238D02*
X156554762Y-108443857D01*
X156554762Y-108443857D02*
X156507143Y-108467666D01*
X157102380Y-108324809D02*
X157149999Y-108324809D01*
X157149999Y-108324809D02*
X157197618Y-108348619D01*
X157197618Y-108348619D02*
X157221428Y-108372428D01*
X157221428Y-108372428D02*
X157245237Y-108420047D01*
X157245237Y-108420047D02*
X157269047Y-108515285D01*
X157269047Y-108515285D02*
X157269047Y-108634333D01*
X157269047Y-108634333D02*
X157245237Y-108729571D01*
X157245237Y-108729571D02*
X157221428Y-108777190D01*
X157221428Y-108777190D02*
X157197618Y-108801000D01*
X157197618Y-108801000D02*
X157149999Y-108824809D01*
X157149999Y-108824809D02*
X157102380Y-108824809D01*
X157102380Y-108824809D02*
X157054761Y-108801000D01*
X157054761Y-108801000D02*
X157030952Y-108777190D01*
X157030952Y-108777190D02*
X157007142Y-108729571D01*
X157007142Y-108729571D02*
X156983333Y-108634333D01*
X156983333Y-108634333D02*
X156983333Y-108515285D01*
X156983333Y-108515285D02*
X157007142Y-108420047D01*
X157007142Y-108420047D02*
X157030952Y-108372428D01*
X157030952Y-108372428D02*
X157054761Y-108348619D01*
X157054761Y-108348619D02*
X157102380Y-108324809D01*
X145804762Y-92074809D02*
X145804762Y-91574809D01*
X145804762Y-91574809D02*
X145923810Y-91574809D01*
X145923810Y-91574809D02*
X145995238Y-91598619D01*
X145995238Y-91598619D02*
X146042857Y-91646238D01*
X146042857Y-91646238D02*
X146066667Y-91693857D01*
X146066667Y-91693857D02*
X146090476Y-91789095D01*
X146090476Y-91789095D02*
X146090476Y-91860523D01*
X146090476Y-91860523D02*
X146066667Y-91955761D01*
X146066667Y-91955761D02*
X146042857Y-92003380D01*
X146042857Y-92003380D02*
X145995238Y-92051000D01*
X145995238Y-92051000D02*
X145923810Y-92074809D01*
X145923810Y-92074809D02*
X145804762Y-92074809D01*
X146257143Y-91574809D02*
X146566667Y-91574809D01*
X146566667Y-91574809D02*
X146400000Y-91765285D01*
X146400000Y-91765285D02*
X146471429Y-91765285D01*
X146471429Y-91765285D02*
X146519048Y-91789095D01*
X146519048Y-91789095D02*
X146542857Y-91812904D01*
X146542857Y-91812904D02*
X146566667Y-91860523D01*
X146566667Y-91860523D02*
X146566667Y-91979571D01*
X146566667Y-91979571D02*
X146542857Y-92027190D01*
X146542857Y-92027190D02*
X146519048Y-92051000D01*
X146519048Y-92051000D02*
X146471429Y-92074809D01*
X146471429Y-92074809D02*
X146328572Y-92074809D01*
X146328572Y-92074809D02*
X146280953Y-92051000D01*
X146280953Y-92051000D02*
X146257143Y-92027190D01*
X146876190Y-91574809D02*
X146923809Y-91574809D01*
X146923809Y-91574809D02*
X146971428Y-91598619D01*
X146971428Y-91598619D02*
X146995238Y-91622428D01*
X146995238Y-91622428D02*
X147019047Y-91670047D01*
X147019047Y-91670047D02*
X147042857Y-91765285D01*
X147042857Y-91765285D02*
X147042857Y-91884333D01*
X147042857Y-91884333D02*
X147019047Y-91979571D01*
X147019047Y-91979571D02*
X146995238Y-92027190D01*
X146995238Y-92027190D02*
X146971428Y-92051000D01*
X146971428Y-92051000D02*
X146923809Y-92074809D01*
X146923809Y-92074809D02*
X146876190Y-92074809D01*
X146876190Y-92074809D02*
X146828571Y-92051000D01*
X146828571Y-92051000D02*
X146804762Y-92027190D01*
X146804762Y-92027190D02*
X146780952Y-91979571D01*
X146780952Y-91979571D02*
X146757143Y-91884333D01*
X146757143Y-91884333D02*
X146757143Y-91765285D01*
X146757143Y-91765285D02*
X146780952Y-91670047D01*
X146780952Y-91670047D02*
X146804762Y-91622428D01*
X146804762Y-91622428D02*
X146828571Y-91598619D01*
X146828571Y-91598619D02*
X146876190Y-91574809D01*
X147233333Y-91622428D02*
X147257142Y-91598619D01*
X147257142Y-91598619D02*
X147304761Y-91574809D01*
X147304761Y-91574809D02*
X147423809Y-91574809D01*
X147423809Y-91574809D02*
X147471428Y-91598619D01*
X147471428Y-91598619D02*
X147495237Y-91622428D01*
X147495237Y-91622428D02*
X147519047Y-91670047D01*
X147519047Y-91670047D02*
X147519047Y-91717666D01*
X147519047Y-91717666D02*
X147495237Y-91789095D01*
X147495237Y-91789095D02*
X147209523Y-92074809D01*
X147209523Y-92074809D02*
X147519047Y-92074809D01*
X141124809Y-95409523D02*
X140886714Y-95576189D01*
X141124809Y-95695237D02*
X140624809Y-95695237D01*
X140624809Y-95695237D02*
X140624809Y-95504761D01*
X140624809Y-95504761D02*
X140648619Y-95457142D01*
X140648619Y-95457142D02*
X140672428Y-95433332D01*
X140672428Y-95433332D02*
X140720047Y-95409523D01*
X140720047Y-95409523D02*
X140791476Y-95409523D01*
X140791476Y-95409523D02*
X140839095Y-95433332D01*
X140839095Y-95433332D02*
X140862904Y-95457142D01*
X140862904Y-95457142D02*
X140886714Y-95504761D01*
X140886714Y-95504761D02*
X140886714Y-95695237D01*
X140624809Y-95242856D02*
X140624809Y-94933332D01*
X140624809Y-94933332D02*
X140815285Y-95099999D01*
X140815285Y-95099999D02*
X140815285Y-95028570D01*
X140815285Y-95028570D02*
X140839095Y-94980951D01*
X140839095Y-94980951D02*
X140862904Y-94957142D01*
X140862904Y-94957142D02*
X140910523Y-94933332D01*
X140910523Y-94933332D02*
X141029571Y-94933332D01*
X141029571Y-94933332D02*
X141077190Y-94957142D01*
X141077190Y-94957142D02*
X141101000Y-94980951D01*
X141101000Y-94980951D02*
X141124809Y-95028570D01*
X141124809Y-95028570D02*
X141124809Y-95171427D01*
X141124809Y-95171427D02*
X141101000Y-95219046D01*
X141101000Y-95219046D02*
X141077190Y-95242856D01*
X140624809Y-94623809D02*
X140624809Y-94576190D01*
X140624809Y-94576190D02*
X140648619Y-94528571D01*
X140648619Y-94528571D02*
X140672428Y-94504761D01*
X140672428Y-94504761D02*
X140720047Y-94480952D01*
X140720047Y-94480952D02*
X140815285Y-94457142D01*
X140815285Y-94457142D02*
X140934333Y-94457142D01*
X140934333Y-94457142D02*
X141029571Y-94480952D01*
X141029571Y-94480952D02*
X141077190Y-94504761D01*
X141077190Y-94504761D02*
X141101000Y-94528571D01*
X141101000Y-94528571D02*
X141124809Y-94576190D01*
X141124809Y-94576190D02*
X141124809Y-94623809D01*
X141124809Y-94623809D02*
X141101000Y-94671428D01*
X141101000Y-94671428D02*
X141077190Y-94695237D01*
X141077190Y-94695237D02*
X141029571Y-94719047D01*
X141029571Y-94719047D02*
X140934333Y-94742856D01*
X140934333Y-94742856D02*
X140815285Y-94742856D01*
X140815285Y-94742856D02*
X140720047Y-94719047D01*
X140720047Y-94719047D02*
X140672428Y-94695237D01*
X140672428Y-94695237D02*
X140648619Y-94671428D01*
X140648619Y-94671428D02*
X140624809Y-94623809D01*
X140672428Y-94266666D02*
X140648619Y-94242857D01*
X140648619Y-94242857D02*
X140624809Y-94195238D01*
X140624809Y-94195238D02*
X140624809Y-94076190D01*
X140624809Y-94076190D02*
X140648619Y-94028571D01*
X140648619Y-94028571D02*
X140672428Y-94004762D01*
X140672428Y-94004762D02*
X140720047Y-93980952D01*
X140720047Y-93980952D02*
X140767666Y-93980952D01*
X140767666Y-93980952D02*
X140839095Y-94004762D01*
X140839095Y-94004762D02*
X141124809Y-94290476D01*
X141124809Y-94290476D02*
X141124809Y-93980952D01*
X149840476Y-92824809D02*
X149673810Y-92586714D01*
X149554762Y-92824809D02*
X149554762Y-92324809D01*
X149554762Y-92324809D02*
X149745238Y-92324809D01*
X149745238Y-92324809D02*
X149792857Y-92348619D01*
X149792857Y-92348619D02*
X149816667Y-92372428D01*
X149816667Y-92372428D02*
X149840476Y-92420047D01*
X149840476Y-92420047D02*
X149840476Y-92491476D01*
X149840476Y-92491476D02*
X149816667Y-92539095D01*
X149816667Y-92539095D02*
X149792857Y-92562904D01*
X149792857Y-92562904D02*
X149745238Y-92586714D01*
X149745238Y-92586714D02*
X149554762Y-92586714D01*
X150269048Y-92491476D02*
X150269048Y-92824809D01*
X150150000Y-92301000D02*
X150030953Y-92658142D01*
X150030953Y-92658142D02*
X150340476Y-92658142D01*
X150626190Y-92324809D02*
X150673809Y-92324809D01*
X150673809Y-92324809D02*
X150721428Y-92348619D01*
X150721428Y-92348619D02*
X150745238Y-92372428D01*
X150745238Y-92372428D02*
X150769047Y-92420047D01*
X150769047Y-92420047D02*
X150792857Y-92515285D01*
X150792857Y-92515285D02*
X150792857Y-92634333D01*
X150792857Y-92634333D02*
X150769047Y-92729571D01*
X150769047Y-92729571D02*
X150745238Y-92777190D01*
X150745238Y-92777190D02*
X150721428Y-92801000D01*
X150721428Y-92801000D02*
X150673809Y-92824809D01*
X150673809Y-92824809D02*
X150626190Y-92824809D01*
X150626190Y-92824809D02*
X150578571Y-92801000D01*
X150578571Y-92801000D02*
X150554762Y-92777190D01*
X150554762Y-92777190D02*
X150530952Y-92729571D01*
X150530952Y-92729571D02*
X150507143Y-92634333D01*
X150507143Y-92634333D02*
X150507143Y-92515285D01*
X150507143Y-92515285D02*
X150530952Y-92420047D01*
X150530952Y-92420047D02*
X150554762Y-92372428D01*
X150554762Y-92372428D02*
X150578571Y-92348619D01*
X150578571Y-92348619D02*
X150626190Y-92324809D01*
X150983333Y-92372428D02*
X151007142Y-92348619D01*
X151007142Y-92348619D02*
X151054761Y-92324809D01*
X151054761Y-92324809D02*
X151173809Y-92324809D01*
X151173809Y-92324809D02*
X151221428Y-92348619D01*
X151221428Y-92348619D02*
X151245237Y-92372428D01*
X151245237Y-92372428D02*
X151269047Y-92420047D01*
X151269047Y-92420047D02*
X151269047Y-92467666D01*
X151269047Y-92467666D02*
X151245237Y-92539095D01*
X151245237Y-92539095D02*
X150959523Y-92824809D01*
X150959523Y-92824809D02*
X151269047Y-92824809D01*
X159874809Y-97159523D02*
X159636714Y-97326189D01*
X159874809Y-97445237D02*
X159374809Y-97445237D01*
X159374809Y-97445237D02*
X159374809Y-97254761D01*
X159374809Y-97254761D02*
X159398619Y-97207142D01*
X159398619Y-97207142D02*
X159422428Y-97183332D01*
X159422428Y-97183332D02*
X159470047Y-97159523D01*
X159470047Y-97159523D02*
X159541476Y-97159523D01*
X159541476Y-97159523D02*
X159589095Y-97183332D01*
X159589095Y-97183332D02*
X159612904Y-97207142D01*
X159612904Y-97207142D02*
X159636714Y-97254761D01*
X159636714Y-97254761D02*
X159636714Y-97445237D01*
X159541476Y-96730951D02*
X159874809Y-96730951D01*
X159351000Y-96849999D02*
X159708142Y-96969046D01*
X159708142Y-96969046D02*
X159708142Y-96659523D01*
X159374809Y-96373809D02*
X159374809Y-96326190D01*
X159374809Y-96326190D02*
X159398619Y-96278571D01*
X159398619Y-96278571D02*
X159422428Y-96254761D01*
X159422428Y-96254761D02*
X159470047Y-96230952D01*
X159470047Y-96230952D02*
X159565285Y-96207142D01*
X159565285Y-96207142D02*
X159684333Y-96207142D01*
X159684333Y-96207142D02*
X159779571Y-96230952D01*
X159779571Y-96230952D02*
X159827190Y-96254761D01*
X159827190Y-96254761D02*
X159851000Y-96278571D01*
X159851000Y-96278571D02*
X159874809Y-96326190D01*
X159874809Y-96326190D02*
X159874809Y-96373809D01*
X159874809Y-96373809D02*
X159851000Y-96421428D01*
X159851000Y-96421428D02*
X159827190Y-96445237D01*
X159827190Y-96445237D02*
X159779571Y-96469047D01*
X159779571Y-96469047D02*
X159684333Y-96492856D01*
X159684333Y-96492856D02*
X159565285Y-96492856D01*
X159565285Y-96492856D02*
X159470047Y-96469047D01*
X159470047Y-96469047D02*
X159422428Y-96445237D01*
X159422428Y-96445237D02*
X159398619Y-96421428D01*
X159398619Y-96421428D02*
X159374809Y-96373809D01*
X159874809Y-95730952D02*
X159874809Y-96016666D01*
X159874809Y-95873809D02*
X159374809Y-95873809D01*
X159374809Y-95873809D02*
X159446238Y-95921428D01*
X159446238Y-95921428D02*
X159493857Y-95969047D01*
X159493857Y-95969047D02*
X159517666Y-96016666D01*
X149327190Y-96909523D02*
X149351000Y-96933332D01*
X149351000Y-96933332D02*
X149374809Y-97004761D01*
X149374809Y-97004761D02*
X149374809Y-97052380D01*
X149374809Y-97052380D02*
X149351000Y-97123808D01*
X149351000Y-97123808D02*
X149303380Y-97171427D01*
X149303380Y-97171427D02*
X149255761Y-97195237D01*
X149255761Y-97195237D02*
X149160523Y-97219046D01*
X149160523Y-97219046D02*
X149089095Y-97219046D01*
X149089095Y-97219046D02*
X148993857Y-97195237D01*
X148993857Y-97195237D02*
X148946238Y-97171427D01*
X148946238Y-97171427D02*
X148898619Y-97123808D01*
X148898619Y-97123808D02*
X148874809Y-97052380D01*
X148874809Y-97052380D02*
X148874809Y-97004761D01*
X148874809Y-97004761D02*
X148898619Y-96933332D01*
X148898619Y-96933332D02*
X148922428Y-96909523D01*
X149041476Y-96480951D02*
X149374809Y-96480951D01*
X148851000Y-96599999D02*
X149208142Y-96719046D01*
X149208142Y-96719046D02*
X149208142Y-96409523D01*
X148874809Y-96123809D02*
X148874809Y-96076190D01*
X148874809Y-96076190D02*
X148898619Y-96028571D01*
X148898619Y-96028571D02*
X148922428Y-96004761D01*
X148922428Y-96004761D02*
X148970047Y-95980952D01*
X148970047Y-95980952D02*
X149065285Y-95957142D01*
X149065285Y-95957142D02*
X149184333Y-95957142D01*
X149184333Y-95957142D02*
X149279571Y-95980952D01*
X149279571Y-95980952D02*
X149327190Y-96004761D01*
X149327190Y-96004761D02*
X149351000Y-96028571D01*
X149351000Y-96028571D02*
X149374809Y-96076190D01*
X149374809Y-96076190D02*
X149374809Y-96123809D01*
X149374809Y-96123809D02*
X149351000Y-96171428D01*
X149351000Y-96171428D02*
X149327190Y-96195237D01*
X149327190Y-96195237D02*
X149279571Y-96219047D01*
X149279571Y-96219047D02*
X149184333Y-96242856D01*
X149184333Y-96242856D02*
X149065285Y-96242856D01*
X149065285Y-96242856D02*
X148970047Y-96219047D01*
X148970047Y-96219047D02*
X148922428Y-96195237D01*
X148922428Y-96195237D02*
X148898619Y-96171428D01*
X148898619Y-96171428D02*
X148874809Y-96123809D01*
X149374809Y-95480952D02*
X149374809Y-95766666D01*
X149374809Y-95623809D02*
X148874809Y-95623809D01*
X148874809Y-95623809D02*
X148946238Y-95671428D01*
X148946238Y-95671428D02*
X148993857Y-95719047D01*
X148993857Y-95719047D02*
X149017666Y-95766666D01*
X144019048Y-97574809D02*
X144352381Y-98074809D01*
X144352381Y-97574809D02*
X144019048Y-98074809D01*
X144757143Y-97741476D02*
X144757143Y-98074809D01*
X144638095Y-97551000D02*
X144519048Y-97908142D01*
X144519048Y-97908142D02*
X144828571Y-97908142D01*
X145114285Y-97574809D02*
X145161904Y-97574809D01*
X145161904Y-97574809D02*
X145209523Y-97598619D01*
X145209523Y-97598619D02*
X145233333Y-97622428D01*
X145233333Y-97622428D02*
X145257142Y-97670047D01*
X145257142Y-97670047D02*
X145280952Y-97765285D01*
X145280952Y-97765285D02*
X145280952Y-97884333D01*
X145280952Y-97884333D02*
X145257142Y-97979571D01*
X145257142Y-97979571D02*
X145233333Y-98027190D01*
X145233333Y-98027190D02*
X145209523Y-98051000D01*
X145209523Y-98051000D02*
X145161904Y-98074809D01*
X145161904Y-98074809D02*
X145114285Y-98074809D01*
X145114285Y-98074809D02*
X145066666Y-98051000D01*
X145066666Y-98051000D02*
X145042857Y-98027190D01*
X145042857Y-98027190D02*
X145019047Y-97979571D01*
X145019047Y-97979571D02*
X144995238Y-97884333D01*
X144995238Y-97884333D02*
X144995238Y-97765285D01*
X144995238Y-97765285D02*
X145019047Y-97670047D01*
X145019047Y-97670047D02*
X145042857Y-97622428D01*
X145042857Y-97622428D02*
X145066666Y-97598619D01*
X145066666Y-97598619D02*
X145114285Y-97574809D01*
X145757142Y-98074809D02*
X145471428Y-98074809D01*
X145614285Y-98074809D02*
X145614285Y-97574809D01*
X145614285Y-97574809D02*
X145566666Y-97646238D01*
X145566666Y-97646238D02*
X145519047Y-97693857D01*
X145519047Y-97693857D02*
X145471428Y-97717666D01*
X165327190Y-91659523D02*
X165351000Y-91683332D01*
X165351000Y-91683332D02*
X165374809Y-91754761D01*
X165374809Y-91754761D02*
X165374809Y-91802380D01*
X165374809Y-91802380D02*
X165351000Y-91873808D01*
X165351000Y-91873808D02*
X165303380Y-91921427D01*
X165303380Y-91921427D02*
X165255761Y-91945237D01*
X165255761Y-91945237D02*
X165160523Y-91969046D01*
X165160523Y-91969046D02*
X165089095Y-91969046D01*
X165089095Y-91969046D02*
X164993857Y-91945237D01*
X164993857Y-91945237D02*
X164946238Y-91921427D01*
X164946238Y-91921427D02*
X164898619Y-91873808D01*
X164898619Y-91873808D02*
X164874809Y-91802380D01*
X164874809Y-91802380D02*
X164874809Y-91754761D01*
X164874809Y-91754761D02*
X164898619Y-91683332D01*
X164898619Y-91683332D02*
X164922428Y-91659523D01*
X164874809Y-91492856D02*
X164874809Y-91183332D01*
X164874809Y-91183332D02*
X165065285Y-91349999D01*
X165065285Y-91349999D02*
X165065285Y-91278570D01*
X165065285Y-91278570D02*
X165089095Y-91230951D01*
X165089095Y-91230951D02*
X165112904Y-91207142D01*
X165112904Y-91207142D02*
X165160523Y-91183332D01*
X165160523Y-91183332D02*
X165279571Y-91183332D01*
X165279571Y-91183332D02*
X165327190Y-91207142D01*
X165327190Y-91207142D02*
X165351000Y-91230951D01*
X165351000Y-91230951D02*
X165374809Y-91278570D01*
X165374809Y-91278570D02*
X165374809Y-91421427D01*
X165374809Y-91421427D02*
X165351000Y-91469046D01*
X165351000Y-91469046D02*
X165327190Y-91492856D01*
X164874809Y-90873809D02*
X164874809Y-90826190D01*
X164874809Y-90826190D02*
X164898619Y-90778571D01*
X164898619Y-90778571D02*
X164922428Y-90754761D01*
X164922428Y-90754761D02*
X164970047Y-90730952D01*
X164970047Y-90730952D02*
X165065285Y-90707142D01*
X165065285Y-90707142D02*
X165184333Y-90707142D01*
X165184333Y-90707142D02*
X165279571Y-90730952D01*
X165279571Y-90730952D02*
X165327190Y-90754761D01*
X165327190Y-90754761D02*
X165351000Y-90778571D01*
X165351000Y-90778571D02*
X165374809Y-90826190D01*
X165374809Y-90826190D02*
X165374809Y-90873809D01*
X165374809Y-90873809D02*
X165351000Y-90921428D01*
X165351000Y-90921428D02*
X165327190Y-90945237D01*
X165327190Y-90945237D02*
X165279571Y-90969047D01*
X165279571Y-90969047D02*
X165184333Y-90992856D01*
X165184333Y-90992856D02*
X165065285Y-90992856D01*
X165065285Y-90992856D02*
X164970047Y-90969047D01*
X164970047Y-90969047D02*
X164922428Y-90945237D01*
X164922428Y-90945237D02*
X164898619Y-90921428D01*
X164898619Y-90921428D02*
X164874809Y-90873809D01*
X164922428Y-90516666D02*
X164898619Y-90492857D01*
X164898619Y-90492857D02*
X164874809Y-90445238D01*
X164874809Y-90445238D02*
X164874809Y-90326190D01*
X164874809Y-90326190D02*
X164898619Y-90278571D01*
X164898619Y-90278571D02*
X164922428Y-90254762D01*
X164922428Y-90254762D02*
X164970047Y-90230952D01*
X164970047Y-90230952D02*
X165017666Y-90230952D01*
X165017666Y-90230952D02*
X165089095Y-90254762D01*
X165089095Y-90254762D02*
X165374809Y-90540476D01*
X165374809Y-90540476D02*
X165374809Y-90230952D01*
X161077190Y-116159523D02*
X161101000Y-116183332D01*
X161101000Y-116183332D02*
X161124809Y-116254761D01*
X161124809Y-116254761D02*
X161124809Y-116302380D01*
X161124809Y-116302380D02*
X161101000Y-116373808D01*
X161101000Y-116373808D02*
X161053380Y-116421427D01*
X161053380Y-116421427D02*
X161005761Y-116445237D01*
X161005761Y-116445237D02*
X160910523Y-116469046D01*
X160910523Y-116469046D02*
X160839095Y-116469046D01*
X160839095Y-116469046D02*
X160743857Y-116445237D01*
X160743857Y-116445237D02*
X160696238Y-116421427D01*
X160696238Y-116421427D02*
X160648619Y-116373808D01*
X160648619Y-116373808D02*
X160624809Y-116302380D01*
X160624809Y-116302380D02*
X160624809Y-116254761D01*
X160624809Y-116254761D02*
X160648619Y-116183332D01*
X160648619Y-116183332D02*
X160672428Y-116159523D01*
X160791476Y-115730951D02*
X161124809Y-115730951D01*
X160601000Y-115849999D02*
X160958142Y-115969046D01*
X160958142Y-115969046D02*
X160958142Y-115659523D01*
X161124809Y-115207142D02*
X161124809Y-115492856D01*
X161124809Y-115349999D02*
X160624809Y-115349999D01*
X160624809Y-115349999D02*
X160696238Y-115397618D01*
X160696238Y-115397618D02*
X160743857Y-115445237D01*
X160743857Y-115445237D02*
X160767666Y-115492856D01*
X160672428Y-115016666D02*
X160648619Y-114992857D01*
X160648619Y-114992857D02*
X160624809Y-114945238D01*
X160624809Y-114945238D02*
X160624809Y-114826190D01*
X160624809Y-114826190D02*
X160648619Y-114778571D01*
X160648619Y-114778571D02*
X160672428Y-114754762D01*
X160672428Y-114754762D02*
X160720047Y-114730952D01*
X160720047Y-114730952D02*
X160767666Y-114730952D01*
X160767666Y-114730952D02*
X160839095Y-114754762D01*
X160839095Y-114754762D02*
X161124809Y-115040476D01*
X161124809Y-115040476D02*
X161124809Y-114730952D01*
X134374809Y-112457141D02*
X134374809Y-112171427D01*
X134874809Y-112314284D02*
X134374809Y-112314284D01*
X134874809Y-111719047D02*
X134636714Y-111885713D01*
X134874809Y-112004761D02*
X134374809Y-112004761D01*
X134374809Y-112004761D02*
X134374809Y-111814285D01*
X134374809Y-111814285D02*
X134398619Y-111766666D01*
X134398619Y-111766666D02*
X134422428Y-111742856D01*
X134422428Y-111742856D02*
X134470047Y-111719047D01*
X134470047Y-111719047D02*
X134541476Y-111719047D01*
X134541476Y-111719047D02*
X134589095Y-111742856D01*
X134589095Y-111742856D02*
X134612904Y-111766666D01*
X134612904Y-111766666D02*
X134636714Y-111814285D01*
X134636714Y-111814285D02*
X134636714Y-112004761D01*
X134374809Y-111552380D02*
X134374809Y-111242856D01*
X134374809Y-111242856D02*
X134565285Y-111409523D01*
X134565285Y-111409523D02*
X134565285Y-111338094D01*
X134565285Y-111338094D02*
X134589095Y-111290475D01*
X134589095Y-111290475D02*
X134612904Y-111266666D01*
X134612904Y-111266666D02*
X134660523Y-111242856D01*
X134660523Y-111242856D02*
X134779571Y-111242856D01*
X134779571Y-111242856D02*
X134827190Y-111266666D01*
X134827190Y-111266666D02*
X134851000Y-111290475D01*
X134851000Y-111290475D02*
X134874809Y-111338094D01*
X134874809Y-111338094D02*
X134874809Y-111480951D01*
X134874809Y-111480951D02*
X134851000Y-111528570D01*
X134851000Y-111528570D02*
X134827190Y-111552380D01*
X134374809Y-110933333D02*
X134374809Y-110885714D01*
X134374809Y-110885714D02*
X134398619Y-110838095D01*
X134398619Y-110838095D02*
X134422428Y-110814285D01*
X134422428Y-110814285D02*
X134470047Y-110790476D01*
X134470047Y-110790476D02*
X134565285Y-110766666D01*
X134565285Y-110766666D02*
X134684333Y-110766666D01*
X134684333Y-110766666D02*
X134779571Y-110790476D01*
X134779571Y-110790476D02*
X134827190Y-110814285D01*
X134827190Y-110814285D02*
X134851000Y-110838095D01*
X134851000Y-110838095D02*
X134874809Y-110885714D01*
X134874809Y-110885714D02*
X134874809Y-110933333D01*
X134874809Y-110933333D02*
X134851000Y-110980952D01*
X134851000Y-110980952D02*
X134827190Y-111004761D01*
X134827190Y-111004761D02*
X134779571Y-111028571D01*
X134779571Y-111028571D02*
X134684333Y-111052380D01*
X134684333Y-111052380D02*
X134565285Y-111052380D01*
X134565285Y-111052380D02*
X134470047Y-111028571D01*
X134470047Y-111028571D02*
X134422428Y-111004761D01*
X134422428Y-111004761D02*
X134398619Y-110980952D01*
X134398619Y-110980952D02*
X134374809Y-110933333D01*
X134874809Y-110290476D02*
X134874809Y-110576190D01*
X134874809Y-110433333D02*
X134374809Y-110433333D01*
X134374809Y-110433333D02*
X134446238Y-110480952D01*
X134446238Y-110480952D02*
X134493857Y-110528571D01*
X134493857Y-110528571D02*
X134517666Y-110576190D01*
X145874809Y-109659523D02*
X145636714Y-109826189D01*
X145874809Y-109945237D02*
X145374809Y-109945237D01*
X145374809Y-109945237D02*
X145374809Y-109754761D01*
X145374809Y-109754761D02*
X145398619Y-109707142D01*
X145398619Y-109707142D02*
X145422428Y-109683332D01*
X145422428Y-109683332D02*
X145470047Y-109659523D01*
X145470047Y-109659523D02*
X145541476Y-109659523D01*
X145541476Y-109659523D02*
X145589095Y-109683332D01*
X145589095Y-109683332D02*
X145612904Y-109707142D01*
X145612904Y-109707142D02*
X145636714Y-109754761D01*
X145636714Y-109754761D02*
X145636714Y-109945237D01*
X145374809Y-109492856D02*
X145374809Y-109183332D01*
X145374809Y-109183332D02*
X145565285Y-109349999D01*
X145565285Y-109349999D02*
X145565285Y-109278570D01*
X145565285Y-109278570D02*
X145589095Y-109230951D01*
X145589095Y-109230951D02*
X145612904Y-109207142D01*
X145612904Y-109207142D02*
X145660523Y-109183332D01*
X145660523Y-109183332D02*
X145779571Y-109183332D01*
X145779571Y-109183332D02*
X145827190Y-109207142D01*
X145827190Y-109207142D02*
X145851000Y-109230951D01*
X145851000Y-109230951D02*
X145874809Y-109278570D01*
X145874809Y-109278570D02*
X145874809Y-109421427D01*
X145874809Y-109421427D02*
X145851000Y-109469046D01*
X145851000Y-109469046D02*
X145827190Y-109492856D01*
X145374809Y-108873809D02*
X145374809Y-108826190D01*
X145374809Y-108826190D02*
X145398619Y-108778571D01*
X145398619Y-108778571D02*
X145422428Y-108754761D01*
X145422428Y-108754761D02*
X145470047Y-108730952D01*
X145470047Y-108730952D02*
X145565285Y-108707142D01*
X145565285Y-108707142D02*
X145684333Y-108707142D01*
X145684333Y-108707142D02*
X145779571Y-108730952D01*
X145779571Y-108730952D02*
X145827190Y-108754761D01*
X145827190Y-108754761D02*
X145851000Y-108778571D01*
X145851000Y-108778571D02*
X145874809Y-108826190D01*
X145874809Y-108826190D02*
X145874809Y-108873809D01*
X145874809Y-108873809D02*
X145851000Y-108921428D01*
X145851000Y-108921428D02*
X145827190Y-108945237D01*
X145827190Y-108945237D02*
X145779571Y-108969047D01*
X145779571Y-108969047D02*
X145684333Y-108992856D01*
X145684333Y-108992856D02*
X145565285Y-108992856D01*
X145565285Y-108992856D02*
X145470047Y-108969047D01*
X145470047Y-108969047D02*
X145422428Y-108945237D01*
X145422428Y-108945237D02*
X145398619Y-108921428D01*
X145398619Y-108921428D02*
X145374809Y-108873809D01*
X145374809Y-108540476D02*
X145374809Y-108230952D01*
X145374809Y-108230952D02*
X145565285Y-108397619D01*
X145565285Y-108397619D02*
X145565285Y-108326190D01*
X145565285Y-108326190D02*
X145589095Y-108278571D01*
X145589095Y-108278571D02*
X145612904Y-108254762D01*
X145612904Y-108254762D02*
X145660523Y-108230952D01*
X145660523Y-108230952D02*
X145779571Y-108230952D01*
X145779571Y-108230952D02*
X145827190Y-108254762D01*
X145827190Y-108254762D02*
X145851000Y-108278571D01*
X145851000Y-108278571D02*
X145874809Y-108326190D01*
X145874809Y-108326190D02*
X145874809Y-108469047D01*
X145874809Y-108469047D02*
X145851000Y-108516666D01*
X145851000Y-108516666D02*
X145827190Y-108540476D01*
X156840476Y-97277190D02*
X156816667Y-97301000D01*
X156816667Y-97301000D02*
X156745238Y-97324809D01*
X156745238Y-97324809D02*
X156697619Y-97324809D01*
X156697619Y-97324809D02*
X156626191Y-97301000D01*
X156626191Y-97301000D02*
X156578572Y-97253380D01*
X156578572Y-97253380D02*
X156554762Y-97205761D01*
X156554762Y-97205761D02*
X156530953Y-97110523D01*
X156530953Y-97110523D02*
X156530953Y-97039095D01*
X156530953Y-97039095D02*
X156554762Y-96943857D01*
X156554762Y-96943857D02*
X156578572Y-96896238D01*
X156578572Y-96896238D02*
X156626191Y-96848619D01*
X156626191Y-96848619D02*
X156697619Y-96824809D01*
X156697619Y-96824809D02*
X156745238Y-96824809D01*
X156745238Y-96824809D02*
X156816667Y-96848619D01*
X156816667Y-96848619D02*
X156840476Y-96872428D01*
X157269048Y-96991476D02*
X157269048Y-97324809D01*
X157150000Y-96801000D02*
X157030953Y-97158142D01*
X157030953Y-97158142D02*
X157340476Y-97158142D01*
X157626190Y-96824809D02*
X157673809Y-96824809D01*
X157673809Y-96824809D02*
X157721428Y-96848619D01*
X157721428Y-96848619D02*
X157745238Y-96872428D01*
X157745238Y-96872428D02*
X157769047Y-96920047D01*
X157769047Y-96920047D02*
X157792857Y-97015285D01*
X157792857Y-97015285D02*
X157792857Y-97134333D01*
X157792857Y-97134333D02*
X157769047Y-97229571D01*
X157769047Y-97229571D02*
X157745238Y-97277190D01*
X157745238Y-97277190D02*
X157721428Y-97301000D01*
X157721428Y-97301000D02*
X157673809Y-97324809D01*
X157673809Y-97324809D02*
X157626190Y-97324809D01*
X157626190Y-97324809D02*
X157578571Y-97301000D01*
X157578571Y-97301000D02*
X157554762Y-97277190D01*
X157554762Y-97277190D02*
X157530952Y-97229571D01*
X157530952Y-97229571D02*
X157507143Y-97134333D01*
X157507143Y-97134333D02*
X157507143Y-97015285D01*
X157507143Y-97015285D02*
X157530952Y-96920047D01*
X157530952Y-96920047D02*
X157554762Y-96872428D01*
X157554762Y-96872428D02*
X157578571Y-96848619D01*
X157578571Y-96848619D02*
X157626190Y-96824809D01*
X157983333Y-96872428D02*
X158007142Y-96848619D01*
X158007142Y-96848619D02*
X158054761Y-96824809D01*
X158054761Y-96824809D02*
X158173809Y-96824809D01*
X158173809Y-96824809D02*
X158221428Y-96848619D01*
X158221428Y-96848619D02*
X158245237Y-96872428D01*
X158245237Y-96872428D02*
X158269047Y-96920047D01*
X158269047Y-96920047D02*
X158269047Y-96967666D01*
X158269047Y-96967666D02*
X158245237Y-97039095D01*
X158245237Y-97039095D02*
X157959523Y-97324809D01*
X157959523Y-97324809D02*
X158269047Y-97324809D01*
X139590476Y-107074809D02*
X139423810Y-106836714D01*
X139304762Y-107074809D02*
X139304762Y-106574809D01*
X139304762Y-106574809D02*
X139495238Y-106574809D01*
X139495238Y-106574809D02*
X139542857Y-106598619D01*
X139542857Y-106598619D02*
X139566667Y-106622428D01*
X139566667Y-106622428D02*
X139590476Y-106670047D01*
X139590476Y-106670047D02*
X139590476Y-106741476D01*
X139590476Y-106741476D02*
X139566667Y-106789095D01*
X139566667Y-106789095D02*
X139542857Y-106812904D01*
X139542857Y-106812904D02*
X139495238Y-106836714D01*
X139495238Y-106836714D02*
X139304762Y-106836714D01*
X139757143Y-106574809D02*
X140066667Y-106574809D01*
X140066667Y-106574809D02*
X139900000Y-106765285D01*
X139900000Y-106765285D02*
X139971429Y-106765285D01*
X139971429Y-106765285D02*
X140019048Y-106789095D01*
X140019048Y-106789095D02*
X140042857Y-106812904D01*
X140042857Y-106812904D02*
X140066667Y-106860523D01*
X140066667Y-106860523D02*
X140066667Y-106979571D01*
X140066667Y-106979571D02*
X140042857Y-107027190D01*
X140042857Y-107027190D02*
X140019048Y-107051000D01*
X140019048Y-107051000D02*
X139971429Y-107074809D01*
X139971429Y-107074809D02*
X139828572Y-107074809D01*
X139828572Y-107074809D02*
X139780953Y-107051000D01*
X139780953Y-107051000D02*
X139757143Y-107027190D01*
X140376190Y-106574809D02*
X140423809Y-106574809D01*
X140423809Y-106574809D02*
X140471428Y-106598619D01*
X140471428Y-106598619D02*
X140495238Y-106622428D01*
X140495238Y-106622428D02*
X140519047Y-106670047D01*
X140519047Y-106670047D02*
X140542857Y-106765285D01*
X140542857Y-106765285D02*
X140542857Y-106884333D01*
X140542857Y-106884333D02*
X140519047Y-106979571D01*
X140519047Y-106979571D02*
X140495238Y-107027190D01*
X140495238Y-107027190D02*
X140471428Y-107051000D01*
X140471428Y-107051000D02*
X140423809Y-107074809D01*
X140423809Y-107074809D02*
X140376190Y-107074809D01*
X140376190Y-107074809D02*
X140328571Y-107051000D01*
X140328571Y-107051000D02*
X140304762Y-107027190D01*
X140304762Y-107027190D02*
X140280952Y-106979571D01*
X140280952Y-106979571D02*
X140257143Y-106884333D01*
X140257143Y-106884333D02*
X140257143Y-106765285D01*
X140257143Y-106765285D02*
X140280952Y-106670047D01*
X140280952Y-106670047D02*
X140304762Y-106622428D01*
X140304762Y-106622428D02*
X140328571Y-106598619D01*
X140328571Y-106598619D02*
X140376190Y-106574809D01*
X141019047Y-107074809D02*
X140733333Y-107074809D01*
X140876190Y-107074809D02*
X140876190Y-106574809D01*
X140876190Y-106574809D02*
X140828571Y-106646238D01*
X140828571Y-106646238D02*
X140780952Y-106693857D01*
X140780952Y-106693857D02*
X140733333Y-106717666D01*
X168840476Y-90527190D02*
X168816667Y-90551000D01*
X168816667Y-90551000D02*
X168745238Y-90574809D01*
X168745238Y-90574809D02*
X168697619Y-90574809D01*
X168697619Y-90574809D02*
X168626191Y-90551000D01*
X168626191Y-90551000D02*
X168578572Y-90503380D01*
X168578572Y-90503380D02*
X168554762Y-90455761D01*
X168554762Y-90455761D02*
X168530953Y-90360523D01*
X168530953Y-90360523D02*
X168530953Y-90289095D01*
X168530953Y-90289095D02*
X168554762Y-90193857D01*
X168554762Y-90193857D02*
X168578572Y-90146238D01*
X168578572Y-90146238D02*
X168626191Y-90098619D01*
X168626191Y-90098619D02*
X168697619Y-90074809D01*
X168697619Y-90074809D02*
X168745238Y-90074809D01*
X168745238Y-90074809D02*
X168816667Y-90098619D01*
X168816667Y-90098619D02*
X168840476Y-90122428D01*
X169007143Y-90074809D02*
X169316667Y-90074809D01*
X169316667Y-90074809D02*
X169150000Y-90265285D01*
X169150000Y-90265285D02*
X169221429Y-90265285D01*
X169221429Y-90265285D02*
X169269048Y-90289095D01*
X169269048Y-90289095D02*
X169292857Y-90312904D01*
X169292857Y-90312904D02*
X169316667Y-90360523D01*
X169316667Y-90360523D02*
X169316667Y-90479571D01*
X169316667Y-90479571D02*
X169292857Y-90527190D01*
X169292857Y-90527190D02*
X169269048Y-90551000D01*
X169269048Y-90551000D02*
X169221429Y-90574809D01*
X169221429Y-90574809D02*
X169078572Y-90574809D01*
X169078572Y-90574809D02*
X169030953Y-90551000D01*
X169030953Y-90551000D02*
X169007143Y-90527190D01*
X169626190Y-90074809D02*
X169673809Y-90074809D01*
X169673809Y-90074809D02*
X169721428Y-90098619D01*
X169721428Y-90098619D02*
X169745238Y-90122428D01*
X169745238Y-90122428D02*
X169769047Y-90170047D01*
X169769047Y-90170047D02*
X169792857Y-90265285D01*
X169792857Y-90265285D02*
X169792857Y-90384333D01*
X169792857Y-90384333D02*
X169769047Y-90479571D01*
X169769047Y-90479571D02*
X169745238Y-90527190D01*
X169745238Y-90527190D02*
X169721428Y-90551000D01*
X169721428Y-90551000D02*
X169673809Y-90574809D01*
X169673809Y-90574809D02*
X169626190Y-90574809D01*
X169626190Y-90574809D02*
X169578571Y-90551000D01*
X169578571Y-90551000D02*
X169554762Y-90527190D01*
X169554762Y-90527190D02*
X169530952Y-90479571D01*
X169530952Y-90479571D02*
X169507143Y-90384333D01*
X169507143Y-90384333D02*
X169507143Y-90265285D01*
X169507143Y-90265285D02*
X169530952Y-90170047D01*
X169530952Y-90170047D02*
X169554762Y-90122428D01*
X169554762Y-90122428D02*
X169578571Y-90098619D01*
X169578571Y-90098619D02*
X169626190Y-90074809D01*
X169959523Y-90074809D02*
X170269047Y-90074809D01*
X170269047Y-90074809D02*
X170102380Y-90265285D01*
X170102380Y-90265285D02*
X170173809Y-90265285D01*
X170173809Y-90265285D02*
X170221428Y-90289095D01*
X170221428Y-90289095D02*
X170245237Y-90312904D01*
X170245237Y-90312904D02*
X170269047Y-90360523D01*
X170269047Y-90360523D02*
X170269047Y-90479571D01*
X170269047Y-90479571D02*
X170245237Y-90527190D01*
X170245237Y-90527190D02*
X170221428Y-90551000D01*
X170221428Y-90551000D02*
X170173809Y-90574809D01*
X170173809Y-90574809D02*
X170030952Y-90574809D01*
X170030952Y-90574809D02*
X169983333Y-90551000D01*
X169983333Y-90551000D02*
X169959523Y-90527190D01*
X162577190Y-96659523D02*
X162601000Y-96683332D01*
X162601000Y-96683332D02*
X162624809Y-96754761D01*
X162624809Y-96754761D02*
X162624809Y-96802380D01*
X162624809Y-96802380D02*
X162601000Y-96873808D01*
X162601000Y-96873808D02*
X162553380Y-96921427D01*
X162553380Y-96921427D02*
X162505761Y-96945237D01*
X162505761Y-96945237D02*
X162410523Y-96969046D01*
X162410523Y-96969046D02*
X162339095Y-96969046D01*
X162339095Y-96969046D02*
X162243857Y-96945237D01*
X162243857Y-96945237D02*
X162196238Y-96921427D01*
X162196238Y-96921427D02*
X162148619Y-96873808D01*
X162148619Y-96873808D02*
X162124809Y-96802380D01*
X162124809Y-96802380D02*
X162124809Y-96754761D01*
X162124809Y-96754761D02*
X162148619Y-96683332D01*
X162148619Y-96683332D02*
X162172428Y-96659523D01*
X162124809Y-96492856D02*
X162124809Y-96183332D01*
X162124809Y-96183332D02*
X162315285Y-96349999D01*
X162315285Y-96349999D02*
X162315285Y-96278570D01*
X162315285Y-96278570D02*
X162339095Y-96230951D01*
X162339095Y-96230951D02*
X162362904Y-96207142D01*
X162362904Y-96207142D02*
X162410523Y-96183332D01*
X162410523Y-96183332D02*
X162529571Y-96183332D01*
X162529571Y-96183332D02*
X162577190Y-96207142D01*
X162577190Y-96207142D02*
X162601000Y-96230951D01*
X162601000Y-96230951D02*
X162624809Y-96278570D01*
X162624809Y-96278570D02*
X162624809Y-96421427D01*
X162624809Y-96421427D02*
X162601000Y-96469046D01*
X162601000Y-96469046D02*
X162577190Y-96492856D01*
X162124809Y-95873809D02*
X162124809Y-95826190D01*
X162124809Y-95826190D02*
X162148619Y-95778571D01*
X162148619Y-95778571D02*
X162172428Y-95754761D01*
X162172428Y-95754761D02*
X162220047Y-95730952D01*
X162220047Y-95730952D02*
X162315285Y-95707142D01*
X162315285Y-95707142D02*
X162434333Y-95707142D01*
X162434333Y-95707142D02*
X162529571Y-95730952D01*
X162529571Y-95730952D02*
X162577190Y-95754761D01*
X162577190Y-95754761D02*
X162601000Y-95778571D01*
X162601000Y-95778571D02*
X162624809Y-95826190D01*
X162624809Y-95826190D02*
X162624809Y-95873809D01*
X162624809Y-95873809D02*
X162601000Y-95921428D01*
X162601000Y-95921428D02*
X162577190Y-95945237D01*
X162577190Y-95945237D02*
X162529571Y-95969047D01*
X162529571Y-95969047D02*
X162434333Y-95992856D01*
X162434333Y-95992856D02*
X162315285Y-95992856D01*
X162315285Y-95992856D02*
X162220047Y-95969047D01*
X162220047Y-95969047D02*
X162172428Y-95945237D01*
X162172428Y-95945237D02*
X162148619Y-95921428D01*
X162148619Y-95921428D02*
X162124809Y-95873809D01*
X162124809Y-95254762D02*
X162124809Y-95492857D01*
X162124809Y-95492857D02*
X162362904Y-95516666D01*
X162362904Y-95516666D02*
X162339095Y-95492857D01*
X162339095Y-95492857D02*
X162315285Y-95445238D01*
X162315285Y-95445238D02*
X162315285Y-95326190D01*
X162315285Y-95326190D02*
X162339095Y-95278571D01*
X162339095Y-95278571D02*
X162362904Y-95254762D01*
X162362904Y-95254762D02*
X162410523Y-95230952D01*
X162410523Y-95230952D02*
X162529571Y-95230952D01*
X162529571Y-95230952D02*
X162577190Y-95254762D01*
X162577190Y-95254762D02*
X162601000Y-95278571D01*
X162601000Y-95278571D02*
X162624809Y-95326190D01*
X162624809Y-95326190D02*
X162624809Y-95445238D01*
X162624809Y-95445238D02*
X162601000Y-95492857D01*
X162601000Y-95492857D02*
X162577190Y-95516666D01*
X144124809Y-109659523D02*
X143886714Y-109826189D01*
X144124809Y-109945237D02*
X143624809Y-109945237D01*
X143624809Y-109945237D02*
X143624809Y-109754761D01*
X143624809Y-109754761D02*
X143648619Y-109707142D01*
X143648619Y-109707142D02*
X143672428Y-109683332D01*
X143672428Y-109683332D02*
X143720047Y-109659523D01*
X143720047Y-109659523D02*
X143791476Y-109659523D01*
X143791476Y-109659523D02*
X143839095Y-109683332D01*
X143839095Y-109683332D02*
X143862904Y-109707142D01*
X143862904Y-109707142D02*
X143886714Y-109754761D01*
X143886714Y-109754761D02*
X143886714Y-109945237D01*
X143624809Y-109492856D02*
X143624809Y-109183332D01*
X143624809Y-109183332D02*
X143815285Y-109349999D01*
X143815285Y-109349999D02*
X143815285Y-109278570D01*
X143815285Y-109278570D02*
X143839095Y-109230951D01*
X143839095Y-109230951D02*
X143862904Y-109207142D01*
X143862904Y-109207142D02*
X143910523Y-109183332D01*
X143910523Y-109183332D02*
X144029571Y-109183332D01*
X144029571Y-109183332D02*
X144077190Y-109207142D01*
X144077190Y-109207142D02*
X144101000Y-109230951D01*
X144101000Y-109230951D02*
X144124809Y-109278570D01*
X144124809Y-109278570D02*
X144124809Y-109421427D01*
X144124809Y-109421427D02*
X144101000Y-109469046D01*
X144101000Y-109469046D02*
X144077190Y-109492856D01*
X143624809Y-108873809D02*
X143624809Y-108826190D01*
X143624809Y-108826190D02*
X143648619Y-108778571D01*
X143648619Y-108778571D02*
X143672428Y-108754761D01*
X143672428Y-108754761D02*
X143720047Y-108730952D01*
X143720047Y-108730952D02*
X143815285Y-108707142D01*
X143815285Y-108707142D02*
X143934333Y-108707142D01*
X143934333Y-108707142D02*
X144029571Y-108730952D01*
X144029571Y-108730952D02*
X144077190Y-108754761D01*
X144077190Y-108754761D02*
X144101000Y-108778571D01*
X144101000Y-108778571D02*
X144124809Y-108826190D01*
X144124809Y-108826190D02*
X144124809Y-108873809D01*
X144124809Y-108873809D02*
X144101000Y-108921428D01*
X144101000Y-108921428D02*
X144077190Y-108945237D01*
X144077190Y-108945237D02*
X144029571Y-108969047D01*
X144029571Y-108969047D02*
X143934333Y-108992856D01*
X143934333Y-108992856D02*
X143815285Y-108992856D01*
X143815285Y-108992856D02*
X143720047Y-108969047D01*
X143720047Y-108969047D02*
X143672428Y-108945237D01*
X143672428Y-108945237D02*
X143648619Y-108921428D01*
X143648619Y-108921428D02*
X143624809Y-108873809D01*
X143791476Y-108278571D02*
X144124809Y-108278571D01*
X143601000Y-108397619D02*
X143958142Y-108516666D01*
X143958142Y-108516666D02*
X143958142Y-108207143D01*
X165327190Y-98159523D02*
X165351000Y-98183332D01*
X165351000Y-98183332D02*
X165374809Y-98254761D01*
X165374809Y-98254761D02*
X165374809Y-98302380D01*
X165374809Y-98302380D02*
X165351000Y-98373808D01*
X165351000Y-98373808D02*
X165303380Y-98421427D01*
X165303380Y-98421427D02*
X165255761Y-98445237D01*
X165255761Y-98445237D02*
X165160523Y-98469046D01*
X165160523Y-98469046D02*
X165089095Y-98469046D01*
X165089095Y-98469046D02*
X164993857Y-98445237D01*
X164993857Y-98445237D02*
X164946238Y-98421427D01*
X164946238Y-98421427D02*
X164898619Y-98373808D01*
X164898619Y-98373808D02*
X164874809Y-98302380D01*
X164874809Y-98302380D02*
X164874809Y-98254761D01*
X164874809Y-98254761D02*
X164898619Y-98183332D01*
X164898619Y-98183332D02*
X164922428Y-98159523D01*
X164874809Y-97992856D02*
X164874809Y-97683332D01*
X164874809Y-97683332D02*
X165065285Y-97849999D01*
X165065285Y-97849999D02*
X165065285Y-97778570D01*
X165065285Y-97778570D02*
X165089095Y-97730951D01*
X165089095Y-97730951D02*
X165112904Y-97707142D01*
X165112904Y-97707142D02*
X165160523Y-97683332D01*
X165160523Y-97683332D02*
X165279571Y-97683332D01*
X165279571Y-97683332D02*
X165327190Y-97707142D01*
X165327190Y-97707142D02*
X165351000Y-97730951D01*
X165351000Y-97730951D02*
X165374809Y-97778570D01*
X165374809Y-97778570D02*
X165374809Y-97921427D01*
X165374809Y-97921427D02*
X165351000Y-97969046D01*
X165351000Y-97969046D02*
X165327190Y-97992856D01*
X164874809Y-97373809D02*
X164874809Y-97326190D01*
X164874809Y-97326190D02*
X164898619Y-97278571D01*
X164898619Y-97278571D02*
X164922428Y-97254761D01*
X164922428Y-97254761D02*
X164970047Y-97230952D01*
X164970047Y-97230952D02*
X165065285Y-97207142D01*
X165065285Y-97207142D02*
X165184333Y-97207142D01*
X165184333Y-97207142D02*
X165279571Y-97230952D01*
X165279571Y-97230952D02*
X165327190Y-97254761D01*
X165327190Y-97254761D02*
X165351000Y-97278571D01*
X165351000Y-97278571D02*
X165374809Y-97326190D01*
X165374809Y-97326190D02*
X165374809Y-97373809D01*
X165374809Y-97373809D02*
X165351000Y-97421428D01*
X165351000Y-97421428D02*
X165327190Y-97445237D01*
X165327190Y-97445237D02*
X165279571Y-97469047D01*
X165279571Y-97469047D02*
X165184333Y-97492856D01*
X165184333Y-97492856D02*
X165065285Y-97492856D01*
X165065285Y-97492856D02*
X164970047Y-97469047D01*
X164970047Y-97469047D02*
X164922428Y-97445237D01*
X164922428Y-97445237D02*
X164898619Y-97421428D01*
X164898619Y-97421428D02*
X164874809Y-97373809D01*
X165041476Y-96778571D02*
X165374809Y-96778571D01*
X164851000Y-96897619D02*
X165208142Y-97016666D01*
X165208142Y-97016666D02*
X165208142Y-96707143D01*
X160827190Y-97159523D02*
X160851000Y-97183332D01*
X160851000Y-97183332D02*
X160874809Y-97254761D01*
X160874809Y-97254761D02*
X160874809Y-97302380D01*
X160874809Y-97302380D02*
X160851000Y-97373808D01*
X160851000Y-97373808D02*
X160803380Y-97421427D01*
X160803380Y-97421427D02*
X160755761Y-97445237D01*
X160755761Y-97445237D02*
X160660523Y-97469046D01*
X160660523Y-97469046D02*
X160589095Y-97469046D01*
X160589095Y-97469046D02*
X160493857Y-97445237D01*
X160493857Y-97445237D02*
X160446238Y-97421427D01*
X160446238Y-97421427D02*
X160398619Y-97373808D01*
X160398619Y-97373808D02*
X160374809Y-97302380D01*
X160374809Y-97302380D02*
X160374809Y-97254761D01*
X160374809Y-97254761D02*
X160398619Y-97183332D01*
X160398619Y-97183332D02*
X160422428Y-97159523D01*
X160541476Y-96730951D02*
X160874809Y-96730951D01*
X160351000Y-96849999D02*
X160708142Y-96969046D01*
X160708142Y-96969046D02*
X160708142Y-96659523D01*
X160374809Y-96373809D02*
X160374809Y-96326190D01*
X160374809Y-96326190D02*
X160398619Y-96278571D01*
X160398619Y-96278571D02*
X160422428Y-96254761D01*
X160422428Y-96254761D02*
X160470047Y-96230952D01*
X160470047Y-96230952D02*
X160565285Y-96207142D01*
X160565285Y-96207142D02*
X160684333Y-96207142D01*
X160684333Y-96207142D02*
X160779571Y-96230952D01*
X160779571Y-96230952D02*
X160827190Y-96254761D01*
X160827190Y-96254761D02*
X160851000Y-96278571D01*
X160851000Y-96278571D02*
X160874809Y-96326190D01*
X160874809Y-96326190D02*
X160874809Y-96373809D01*
X160874809Y-96373809D02*
X160851000Y-96421428D01*
X160851000Y-96421428D02*
X160827190Y-96445237D01*
X160827190Y-96445237D02*
X160779571Y-96469047D01*
X160779571Y-96469047D02*
X160684333Y-96492856D01*
X160684333Y-96492856D02*
X160565285Y-96492856D01*
X160565285Y-96492856D02*
X160470047Y-96469047D01*
X160470047Y-96469047D02*
X160422428Y-96445237D01*
X160422428Y-96445237D02*
X160398619Y-96421428D01*
X160398619Y-96421428D02*
X160374809Y-96373809D01*
X160374809Y-95754762D02*
X160374809Y-95992857D01*
X160374809Y-95992857D02*
X160612904Y-96016666D01*
X160612904Y-96016666D02*
X160589095Y-95992857D01*
X160589095Y-95992857D02*
X160565285Y-95945238D01*
X160565285Y-95945238D02*
X160565285Y-95826190D01*
X160565285Y-95826190D02*
X160589095Y-95778571D01*
X160589095Y-95778571D02*
X160612904Y-95754762D01*
X160612904Y-95754762D02*
X160660523Y-95730952D01*
X160660523Y-95730952D02*
X160779571Y-95730952D01*
X160779571Y-95730952D02*
X160827190Y-95754762D01*
X160827190Y-95754762D02*
X160851000Y-95778571D01*
X160851000Y-95778571D02*
X160874809Y-95826190D01*
X160874809Y-95826190D02*
X160874809Y-95945238D01*
X160874809Y-95945238D02*
X160851000Y-95992857D01*
X160851000Y-95992857D02*
X160827190Y-96016666D01*
X161077190Y-88159523D02*
X161101000Y-88183332D01*
X161101000Y-88183332D02*
X161124809Y-88254761D01*
X161124809Y-88254761D02*
X161124809Y-88302380D01*
X161124809Y-88302380D02*
X161101000Y-88373808D01*
X161101000Y-88373808D02*
X161053380Y-88421427D01*
X161053380Y-88421427D02*
X161005761Y-88445237D01*
X161005761Y-88445237D02*
X160910523Y-88469046D01*
X160910523Y-88469046D02*
X160839095Y-88469046D01*
X160839095Y-88469046D02*
X160743857Y-88445237D01*
X160743857Y-88445237D02*
X160696238Y-88421427D01*
X160696238Y-88421427D02*
X160648619Y-88373808D01*
X160648619Y-88373808D02*
X160624809Y-88302380D01*
X160624809Y-88302380D02*
X160624809Y-88254761D01*
X160624809Y-88254761D02*
X160648619Y-88183332D01*
X160648619Y-88183332D02*
X160672428Y-88159523D01*
X160791476Y-87730951D02*
X161124809Y-87730951D01*
X160601000Y-87849999D02*
X160958142Y-87969046D01*
X160958142Y-87969046D02*
X160958142Y-87659523D01*
X160624809Y-87373809D02*
X160624809Y-87326190D01*
X160624809Y-87326190D02*
X160648619Y-87278571D01*
X160648619Y-87278571D02*
X160672428Y-87254761D01*
X160672428Y-87254761D02*
X160720047Y-87230952D01*
X160720047Y-87230952D02*
X160815285Y-87207142D01*
X160815285Y-87207142D02*
X160934333Y-87207142D01*
X160934333Y-87207142D02*
X161029571Y-87230952D01*
X161029571Y-87230952D02*
X161077190Y-87254761D01*
X161077190Y-87254761D02*
X161101000Y-87278571D01*
X161101000Y-87278571D02*
X161124809Y-87326190D01*
X161124809Y-87326190D02*
X161124809Y-87373809D01*
X161124809Y-87373809D02*
X161101000Y-87421428D01*
X161101000Y-87421428D02*
X161077190Y-87445237D01*
X161077190Y-87445237D02*
X161029571Y-87469047D01*
X161029571Y-87469047D02*
X160934333Y-87492856D01*
X160934333Y-87492856D02*
X160815285Y-87492856D01*
X160815285Y-87492856D02*
X160720047Y-87469047D01*
X160720047Y-87469047D02*
X160672428Y-87445237D01*
X160672428Y-87445237D02*
X160648619Y-87421428D01*
X160648619Y-87421428D02*
X160624809Y-87373809D01*
X161124809Y-86969047D02*
X161124809Y-86873809D01*
X161124809Y-86873809D02*
X161101000Y-86826190D01*
X161101000Y-86826190D02*
X161077190Y-86802381D01*
X161077190Y-86802381D02*
X161005761Y-86754762D01*
X161005761Y-86754762D02*
X160910523Y-86730952D01*
X160910523Y-86730952D02*
X160720047Y-86730952D01*
X160720047Y-86730952D02*
X160672428Y-86754762D01*
X160672428Y-86754762D02*
X160648619Y-86778571D01*
X160648619Y-86778571D02*
X160624809Y-86826190D01*
X160624809Y-86826190D02*
X160624809Y-86921428D01*
X160624809Y-86921428D02*
X160648619Y-86969047D01*
X160648619Y-86969047D02*
X160672428Y-86992857D01*
X160672428Y-86992857D02*
X160720047Y-87016666D01*
X160720047Y-87016666D02*
X160839095Y-87016666D01*
X160839095Y-87016666D02*
X160886714Y-86992857D01*
X160886714Y-86992857D02*
X160910523Y-86969047D01*
X160910523Y-86969047D02*
X160934333Y-86921428D01*
X160934333Y-86921428D02*
X160934333Y-86826190D01*
X160934333Y-86826190D02*
X160910523Y-86778571D01*
X160910523Y-86778571D02*
X160886714Y-86754762D01*
X160886714Y-86754762D02*
X160839095Y-86730952D01*
X140804763Y-114812904D02*
X140638096Y-114812904D01*
X140638096Y-115074809D02*
X140638096Y-114574809D01*
X140638096Y-114574809D02*
X140876191Y-114574809D01*
X141304762Y-115074809D02*
X141066667Y-115074809D01*
X141066667Y-115074809D02*
X141066667Y-114574809D01*
X141423810Y-114574809D02*
X141733334Y-114574809D01*
X141733334Y-114574809D02*
X141566667Y-114765285D01*
X141566667Y-114765285D02*
X141638096Y-114765285D01*
X141638096Y-114765285D02*
X141685715Y-114789095D01*
X141685715Y-114789095D02*
X141709524Y-114812904D01*
X141709524Y-114812904D02*
X141733334Y-114860523D01*
X141733334Y-114860523D02*
X141733334Y-114979571D01*
X141733334Y-114979571D02*
X141709524Y-115027190D01*
X141709524Y-115027190D02*
X141685715Y-115051000D01*
X141685715Y-115051000D02*
X141638096Y-115074809D01*
X141638096Y-115074809D02*
X141495239Y-115074809D01*
X141495239Y-115074809D02*
X141447620Y-115051000D01*
X141447620Y-115051000D02*
X141423810Y-115027190D01*
X142042857Y-114574809D02*
X142090476Y-114574809D01*
X142090476Y-114574809D02*
X142138095Y-114598619D01*
X142138095Y-114598619D02*
X142161905Y-114622428D01*
X142161905Y-114622428D02*
X142185714Y-114670047D01*
X142185714Y-114670047D02*
X142209524Y-114765285D01*
X142209524Y-114765285D02*
X142209524Y-114884333D01*
X142209524Y-114884333D02*
X142185714Y-114979571D01*
X142185714Y-114979571D02*
X142161905Y-115027190D01*
X142161905Y-115027190D02*
X142138095Y-115051000D01*
X142138095Y-115051000D02*
X142090476Y-115074809D01*
X142090476Y-115074809D02*
X142042857Y-115074809D01*
X142042857Y-115074809D02*
X141995238Y-115051000D01*
X141995238Y-115051000D02*
X141971429Y-115027190D01*
X141971429Y-115027190D02*
X141947619Y-114979571D01*
X141947619Y-114979571D02*
X141923810Y-114884333D01*
X141923810Y-114884333D02*
X141923810Y-114765285D01*
X141923810Y-114765285D02*
X141947619Y-114670047D01*
X141947619Y-114670047D02*
X141971429Y-114622428D01*
X141971429Y-114622428D02*
X141995238Y-114598619D01*
X141995238Y-114598619D02*
X142042857Y-114574809D01*
X142685714Y-115074809D02*
X142400000Y-115074809D01*
X142542857Y-115074809D02*
X142542857Y-114574809D01*
X142542857Y-114574809D02*
X142495238Y-114646238D01*
X142495238Y-114646238D02*
X142447619Y-114693857D01*
X142447619Y-114693857D02*
X142400000Y-114717666D01*
X142827190Y-100909523D02*
X142851000Y-100933332D01*
X142851000Y-100933332D02*
X142874809Y-101004761D01*
X142874809Y-101004761D02*
X142874809Y-101052380D01*
X142874809Y-101052380D02*
X142851000Y-101123808D01*
X142851000Y-101123808D02*
X142803380Y-101171427D01*
X142803380Y-101171427D02*
X142755761Y-101195237D01*
X142755761Y-101195237D02*
X142660523Y-101219046D01*
X142660523Y-101219046D02*
X142589095Y-101219046D01*
X142589095Y-101219046D02*
X142493857Y-101195237D01*
X142493857Y-101195237D02*
X142446238Y-101171427D01*
X142446238Y-101171427D02*
X142398619Y-101123808D01*
X142398619Y-101123808D02*
X142374809Y-101052380D01*
X142374809Y-101052380D02*
X142374809Y-101004761D01*
X142374809Y-101004761D02*
X142398619Y-100933332D01*
X142398619Y-100933332D02*
X142422428Y-100909523D01*
X142374809Y-100742856D02*
X142374809Y-100433332D01*
X142374809Y-100433332D02*
X142565285Y-100599999D01*
X142565285Y-100599999D02*
X142565285Y-100528570D01*
X142565285Y-100528570D02*
X142589095Y-100480951D01*
X142589095Y-100480951D02*
X142612904Y-100457142D01*
X142612904Y-100457142D02*
X142660523Y-100433332D01*
X142660523Y-100433332D02*
X142779571Y-100433332D01*
X142779571Y-100433332D02*
X142827190Y-100457142D01*
X142827190Y-100457142D02*
X142851000Y-100480951D01*
X142851000Y-100480951D02*
X142874809Y-100528570D01*
X142874809Y-100528570D02*
X142874809Y-100671427D01*
X142874809Y-100671427D02*
X142851000Y-100719046D01*
X142851000Y-100719046D02*
X142827190Y-100742856D01*
X142374809Y-100123809D02*
X142374809Y-100076190D01*
X142374809Y-100076190D02*
X142398619Y-100028571D01*
X142398619Y-100028571D02*
X142422428Y-100004761D01*
X142422428Y-100004761D02*
X142470047Y-99980952D01*
X142470047Y-99980952D02*
X142565285Y-99957142D01*
X142565285Y-99957142D02*
X142684333Y-99957142D01*
X142684333Y-99957142D02*
X142779571Y-99980952D01*
X142779571Y-99980952D02*
X142827190Y-100004761D01*
X142827190Y-100004761D02*
X142851000Y-100028571D01*
X142851000Y-100028571D02*
X142874809Y-100076190D01*
X142874809Y-100076190D02*
X142874809Y-100123809D01*
X142874809Y-100123809D02*
X142851000Y-100171428D01*
X142851000Y-100171428D02*
X142827190Y-100195237D01*
X142827190Y-100195237D02*
X142779571Y-100219047D01*
X142779571Y-100219047D02*
X142684333Y-100242856D01*
X142684333Y-100242856D02*
X142565285Y-100242856D01*
X142565285Y-100242856D02*
X142470047Y-100219047D01*
X142470047Y-100219047D02*
X142422428Y-100195237D01*
X142422428Y-100195237D02*
X142398619Y-100171428D01*
X142398619Y-100171428D02*
X142374809Y-100123809D01*
X142374809Y-99528571D02*
X142374809Y-99623809D01*
X142374809Y-99623809D02*
X142398619Y-99671428D01*
X142398619Y-99671428D02*
X142422428Y-99695238D01*
X142422428Y-99695238D02*
X142493857Y-99742857D01*
X142493857Y-99742857D02*
X142589095Y-99766666D01*
X142589095Y-99766666D02*
X142779571Y-99766666D01*
X142779571Y-99766666D02*
X142827190Y-99742857D01*
X142827190Y-99742857D02*
X142851000Y-99719047D01*
X142851000Y-99719047D02*
X142874809Y-99671428D01*
X142874809Y-99671428D02*
X142874809Y-99576190D01*
X142874809Y-99576190D02*
X142851000Y-99528571D01*
X142851000Y-99528571D02*
X142827190Y-99504762D01*
X142827190Y-99504762D02*
X142779571Y-99480952D01*
X142779571Y-99480952D02*
X142660523Y-99480952D01*
X142660523Y-99480952D02*
X142612904Y-99504762D01*
X142612904Y-99504762D02*
X142589095Y-99528571D01*
X142589095Y-99528571D02*
X142565285Y-99576190D01*
X142565285Y-99576190D02*
X142565285Y-99671428D01*
X142565285Y-99671428D02*
X142589095Y-99719047D01*
X142589095Y-99719047D02*
X142612904Y-99742857D01*
X142612904Y-99742857D02*
X142660523Y-99766666D01*
X145374809Y-104957142D02*
X145779571Y-104957142D01*
X145779571Y-104957142D02*
X145827190Y-104933332D01*
X145827190Y-104933332D02*
X145851000Y-104909523D01*
X145851000Y-104909523D02*
X145874809Y-104861904D01*
X145874809Y-104861904D02*
X145874809Y-104766666D01*
X145874809Y-104766666D02*
X145851000Y-104719047D01*
X145851000Y-104719047D02*
X145827190Y-104695237D01*
X145827190Y-104695237D02*
X145779571Y-104671428D01*
X145779571Y-104671428D02*
X145374809Y-104671428D01*
X145374809Y-104480951D02*
X145374809Y-104171427D01*
X145374809Y-104171427D02*
X145565285Y-104338094D01*
X145565285Y-104338094D02*
X145565285Y-104266665D01*
X145565285Y-104266665D02*
X145589095Y-104219046D01*
X145589095Y-104219046D02*
X145612904Y-104195237D01*
X145612904Y-104195237D02*
X145660523Y-104171427D01*
X145660523Y-104171427D02*
X145779571Y-104171427D01*
X145779571Y-104171427D02*
X145827190Y-104195237D01*
X145827190Y-104195237D02*
X145851000Y-104219046D01*
X145851000Y-104219046D02*
X145874809Y-104266665D01*
X145874809Y-104266665D02*
X145874809Y-104409522D01*
X145874809Y-104409522D02*
X145851000Y-104457141D01*
X145851000Y-104457141D02*
X145827190Y-104480951D01*
X145374809Y-103861904D02*
X145374809Y-103814285D01*
X145374809Y-103814285D02*
X145398619Y-103766666D01*
X145398619Y-103766666D02*
X145422428Y-103742856D01*
X145422428Y-103742856D02*
X145470047Y-103719047D01*
X145470047Y-103719047D02*
X145565285Y-103695237D01*
X145565285Y-103695237D02*
X145684333Y-103695237D01*
X145684333Y-103695237D02*
X145779571Y-103719047D01*
X145779571Y-103719047D02*
X145827190Y-103742856D01*
X145827190Y-103742856D02*
X145851000Y-103766666D01*
X145851000Y-103766666D02*
X145874809Y-103814285D01*
X145874809Y-103814285D02*
X145874809Y-103861904D01*
X145874809Y-103861904D02*
X145851000Y-103909523D01*
X145851000Y-103909523D02*
X145827190Y-103933332D01*
X145827190Y-103933332D02*
X145779571Y-103957142D01*
X145779571Y-103957142D02*
X145684333Y-103980951D01*
X145684333Y-103980951D02*
X145565285Y-103980951D01*
X145565285Y-103980951D02*
X145470047Y-103957142D01*
X145470047Y-103957142D02*
X145422428Y-103933332D01*
X145422428Y-103933332D02*
X145398619Y-103909523D01*
X145398619Y-103909523D02*
X145374809Y-103861904D01*
X145422428Y-103504761D02*
X145398619Y-103480952D01*
X145398619Y-103480952D02*
X145374809Y-103433333D01*
X145374809Y-103433333D02*
X145374809Y-103314285D01*
X145374809Y-103314285D02*
X145398619Y-103266666D01*
X145398619Y-103266666D02*
X145422428Y-103242857D01*
X145422428Y-103242857D02*
X145470047Y-103219047D01*
X145470047Y-103219047D02*
X145517666Y-103219047D01*
X145517666Y-103219047D02*
X145589095Y-103242857D01*
X145589095Y-103242857D02*
X145874809Y-103528571D01*
X145874809Y-103528571D02*
X145874809Y-103219047D01*
D10*
X165799999Y-92000000D02*
X166850000Y-92000000D01*
X165799999Y-92025499D02*
X165799999Y-92000000D01*
X165799999Y-97024999D02*
X165799999Y-96874999D01*
X165799999Y-97024999D02*
X170000001Y-97024999D01*
X168950000Y-92000000D02*
X170000001Y-92000000D01*
X170000001Y-92025499D02*
X170000001Y-92000000D01*
X170000001Y-97024999D02*
X170000001Y-96874999D01*
D14*
X166550000Y-91600000D02*
G75*
G03*
X166250000Y-91600000I-150000J0D01*
G01*
X166250000Y-91600000D02*
G75*
G03*
X166550000Y-91600000I150000J0D01*
G01*
D15*
X151127064Y-110010000D02*
X149672936Y-110010000D01*
X151127064Y-108190000D02*
X149672936Y-108190000D01*
D10*
X137542164Y-107350000D02*
X137757836Y-107350000D01*
X137542164Y-107850000D02*
X137757836Y-107850000D01*
D15*
X161540000Y-92061252D02*
X161540000Y-90638748D01*
X164260000Y-92061252D02*
X164260000Y-90638748D01*
D10*
X154292164Y-94350000D02*
X154507836Y-94350000D01*
X154292164Y-94850000D02*
X154507836Y-94850000D01*
D15*
X159388748Y-99865000D02*
X159911252Y-99865000D01*
X159388748Y-101335000D02*
X159911252Y-101335000D01*
D10*
X139757836Y-107850000D02*
X139542164Y-107850000D01*
X139757836Y-107350000D02*
X139542164Y-107350000D01*
X148400000Y-106242164D02*
X148400000Y-106457836D01*
X147900000Y-106242164D02*
X147900000Y-106457836D01*
D16*
X171150000Y-105250000D02*
X166600000Y-105250000D01*
X166600000Y-104650000D02*
X166600000Y-105250000D01*
X166600000Y-97950000D02*
X166600000Y-98550000D01*
X171150000Y-97950000D02*
X166600000Y-97950000D01*
D14*
X165550000Y-104850000D02*
G75*
G03*
X165250000Y-104850000I-150000J0D01*
G01*
X165250000Y-104850000D02*
G75*
G03*
X165550000Y-104850000I150000J0D01*
G01*
D15*
X154138748Y-109365000D02*
X154661252Y-109365000D01*
X154138748Y-110835000D02*
X154661252Y-110835000D01*
D10*
X154292164Y-95350000D02*
X154507836Y-95350000D01*
X154292164Y-95850000D02*
X154507836Y-95850000D01*
D17*
X135000000Y-94550000D02*
X135000000Y-95150000D01*
D15*
X136395000Y-97130000D02*
X138095000Y-97130000D01*
X136395000Y-106070000D02*
X138095000Y-106070000D01*
D17*
X132620000Y-106070000D02*
X132620000Y-97130000D01*
D15*
X154138748Y-92365000D02*
X154661252Y-92365000D01*
X154138748Y-93835000D02*
X154661252Y-93835000D01*
X148790000Y-97990000D02*
X148790000Y-98440000D01*
X148790000Y-105210000D02*
X148790000Y-104760000D01*
X149240000Y-97990000D02*
X148790000Y-97990000D01*
X149240000Y-105210000D02*
X148790000Y-105210000D01*
X155560000Y-97990000D02*
X156010000Y-97990000D01*
X155560000Y-105210000D02*
X156010000Y-105210000D01*
X156010000Y-97990000D02*
X156010000Y-98440000D01*
X156010000Y-105210000D02*
X156010000Y-104760000D01*
D14*
X148300000Y-98100000D02*
G75*
G03*
X148000000Y-98100000I-150000J0D01*
G01*
X148000000Y-98100000D02*
G75*
G03*
X148300000Y-98100000I150000J0D01*
G01*
D10*
X145875000Y-101503641D02*
X145875000Y-101196359D01*
X146425000Y-101503641D02*
X146425000Y-101196359D01*
X154292164Y-108350000D02*
X154507836Y-108350000D01*
X154292164Y-108850000D02*
X154507836Y-108850000D01*
D15*
X145000000Y-91360000D02*
X148300000Y-91360000D01*
X145000000Y-91360000D02*
X145000000Y-85850000D01*
X148300000Y-91360000D02*
X148300000Y-85850000D01*
X139127064Y-95585000D02*
X138672936Y-95585000D01*
X139127064Y-94115000D02*
X138672936Y-94115000D01*
X151127064Y-95010000D02*
X149672936Y-95010000D01*
X151127064Y-93190000D02*
X149672936Y-93190000D01*
D10*
X159925000Y-98196359D02*
X159925000Y-98503641D01*
X159375000Y-98196359D02*
X159375000Y-98503641D01*
X148150000Y-96457836D02*
X148150000Y-96242164D01*
X148650000Y-96457836D02*
X148650000Y-96242164D01*
D15*
X147600000Y-97150000D02*
X147150000Y-97150000D01*
X147600000Y-93550000D02*
X147600000Y-97150000D01*
X147150000Y-93550000D02*
X147600000Y-93550000D01*
X147150000Y-93310000D02*
X147150000Y-93550000D01*
X145150000Y-97150000D02*
X144650000Y-97150000D01*
X145150000Y-93550000D02*
X145150000Y-93310000D01*
X144650000Y-93550000D02*
X145150000Y-93550000D01*
X142650000Y-97150000D02*
X142200000Y-97150000D01*
X142200000Y-97150000D02*
X142200000Y-93550000D01*
X142200000Y-93550000D02*
X142650000Y-93550000D01*
D14*
X146300000Y-93100000D02*
G75*
G03*
X146000000Y-93100000I-150000J0D01*
G01*
X146000000Y-93100000D02*
G75*
G03*
X146300000Y-93100000I150000J0D01*
G01*
D10*
X164900000Y-93457836D02*
X164900000Y-93242164D01*
X165400000Y-93457836D02*
X165400000Y-93242164D01*
D16*
X150250000Y-112950000D02*
X150250000Y-114280000D01*
X150250000Y-116920000D02*
X150250000Y-118250000D01*
X150250000Y-118250000D02*
X151750000Y-119750000D01*
X151750000Y-111450000D02*
X150250000Y-112950000D01*
X151750000Y-119750000D02*
X158550000Y-119750000D01*
X158550000Y-111450000D02*
X151750000Y-111450000D01*
X158550000Y-114280000D02*
X158550000Y-111450000D01*
X158550000Y-119750000D02*
X158550000Y-116920000D01*
D18*
X149700000Y-113600000D02*
G75*
G03*
X149500000Y-113600000I-100000J0D01*
G01*
X149500000Y-113600000D02*
G75*
G03*
X149700000Y-113600000I100000J0D01*
G01*
X135150000Y-112950000D02*
X135150000Y-109750000D01*
X136100000Y-112950000D02*
X137150000Y-112950000D01*
X138650000Y-112950000D02*
X138650000Y-109750000D01*
X136675000Y-109750000D02*
X137725000Y-109750000D01*
D14*
X138550000Y-113600000D02*
G75*
G03*
X138250000Y-113600000I-150000J0D01*
G01*
X138250000Y-113600000D02*
G75*
G03*
X138550000Y-113600000I150000J0D01*
G01*
D10*
X145803641Y-107875000D02*
X145496359Y-107875000D01*
X145803641Y-107325000D02*
X145496359Y-107325000D01*
X157540580Y-96500000D02*
X157259420Y-96500000D01*
X157540580Y-95700000D02*
X157259420Y-95700000D01*
X141803641Y-107875000D02*
X141496359Y-107875000D01*
X141803641Y-107325000D02*
X141496359Y-107325000D01*
X169507836Y-91350000D02*
X169292164Y-91350000D01*
X169507836Y-90850000D02*
X169292164Y-90850000D01*
D15*
X164385000Y-95838748D02*
X164385000Y-96361252D01*
X162915000Y-95838748D02*
X162915000Y-96361252D01*
D10*
X143803641Y-107875000D02*
X143496359Y-107875000D01*
X143803641Y-107325000D02*
X143496359Y-107325000D01*
X165400000Y-95492164D02*
X165400000Y-95707836D01*
X164900000Y-95492164D02*
X164900000Y-95707836D01*
X160900000Y-98242164D02*
X160900000Y-98457836D01*
X160400000Y-98242164D02*
X160400000Y-98457836D01*
D16*
X150250000Y-84950000D02*
X150250000Y-86280000D01*
X150250000Y-88920000D02*
X150250000Y-90250000D01*
X150250000Y-90250000D02*
X151750000Y-91750000D01*
X151750000Y-83450000D02*
X150250000Y-84950000D01*
X151750000Y-91750000D02*
X158550000Y-91750000D01*
X158550000Y-83450000D02*
X151750000Y-83450000D01*
X158550000Y-86280000D02*
X158550000Y-83450000D01*
X158550000Y-91750000D02*
X158550000Y-88920000D01*
D18*
X149700000Y-85600000D02*
G75*
G03*
X149500000Y-85600000I-100000J0D01*
G01*
X149500000Y-85600000D02*
G75*
G03*
X149700000Y-85600000I100000J0D01*
G01*
X142300000Y-109100000D02*
X141000000Y-109100000D01*
X143250000Y-109900000D02*
X143250000Y-112800000D01*
X140050000Y-109900000D02*
X140050000Y-112800000D01*
X142300000Y-113600000D02*
X141000000Y-113600000D01*
D10*
X141650000Y-100457836D02*
X141650000Y-100242164D01*
X142150000Y-100457836D02*
X142150000Y-100242164D01*
D18*
X145150000Y-102600000D02*
X141150000Y-102600000D01*
X141150000Y-102600000D02*
X141150000Y-105600000D01*
X141150000Y-105600000D02*
X145150000Y-105600000D01*
X145150000Y-105600000D02*
X145150000Y-102600000D01*
D14*
X145550000Y-101850000D02*
G75*
G03*
X145250000Y-101850000I-150000J0D01*
G01*
X145250000Y-101850000D02*
G75*
G03*
X145550000Y-101850000I150000J0D01*
G01*
%LPC*%
G36*
X167049999Y-92500500D02*
G01*
X167049999Y-92775500D01*
X166999999Y-92825500D01*
X166000001Y-92825500D01*
X165949999Y-92775500D01*
X165949999Y-92500500D01*
X166000001Y-92450500D01*
X166999999Y-92450500D01*
X167049999Y-92500500D01*
G37*
G36*
X167049999Y-93375001D02*
G01*
X167049999Y-93525001D01*
X166999999Y-93575001D01*
X166000001Y-93575001D01*
X165949999Y-93525001D01*
X165949999Y-93375001D01*
X166000001Y-93324999D01*
X166999999Y-93324999D01*
X167049999Y-93375001D01*
G37*
G36*
X167049999Y-93875000D02*
G01*
X167049999Y-94025000D01*
X166999999Y-94075000D01*
X166000001Y-94075000D01*
X165950001Y-94025000D01*
X165950001Y-93875000D01*
X166000001Y-93825000D01*
X166999999Y-93825000D01*
X167049999Y-93875000D01*
G37*
G36*
X167524999Y-92200002D02*
G01*
X167524999Y-92900001D01*
X167475000Y-92950001D01*
X167325000Y-92950001D01*
X167275000Y-92900001D01*
X167275000Y-92200002D01*
X167325000Y-92150000D01*
X167475000Y-92150000D01*
X167524999Y-92200002D01*
G37*
G36*
X168050000Y-92200500D02*
G01*
X168050000Y-93625501D01*
X168000000Y-93675501D01*
X167800000Y-93675501D01*
X167750000Y-93625501D01*
X167750000Y-92200500D01*
X167800000Y-92150500D01*
X168000000Y-92150500D01*
X168050000Y-92200500D01*
G37*
G36*
X168525000Y-92200002D02*
G01*
X168525000Y-92900001D01*
X168475000Y-92950001D01*
X168325000Y-92950001D01*
X168275001Y-92900001D01*
X168275001Y-92200002D01*
X168325000Y-92150002D01*
X168475000Y-92150002D01*
X168525000Y-92200002D01*
G37*
G36*
X169850001Y-93375001D02*
G01*
X169850001Y-93525001D01*
X169799999Y-93575001D01*
X168800001Y-93575001D01*
X168750001Y-93525001D01*
X168750001Y-93375001D01*
X168800001Y-93324999D01*
X169799999Y-93324999D01*
X169850001Y-93375001D01*
G37*
G36*
X169849999Y-93875000D02*
G01*
X169849999Y-94025000D01*
X169799999Y-94075000D01*
X168800001Y-94075000D01*
X168750001Y-94025000D01*
X168750001Y-93875000D01*
X168800001Y-93825000D01*
X169799999Y-93825000D01*
X169849999Y-93875000D01*
G37*
G36*
X169850001Y-92500500D02*
G01*
X169850001Y-92775500D01*
X169799999Y-92825500D01*
X168800001Y-92825500D01*
X168750001Y-92775500D01*
X168750001Y-92500500D01*
X168800001Y-92450500D01*
X169799999Y-92450500D01*
X169850001Y-92500500D01*
G37*
G36*
X167400001Y-94575011D02*
G01*
X167450001Y-94625001D01*
X167450003Y-96574997D01*
X167400004Y-96625000D01*
X166375002Y-96625000D01*
X166324999Y-96574997D01*
X166324999Y-96575000D01*
X166274999Y-96525000D01*
X166000001Y-96525000D01*
X165949999Y-96475000D01*
X165949999Y-96325000D01*
X166000001Y-96275000D01*
X166274999Y-96275000D01*
X166324999Y-96225001D01*
X166324999Y-96075001D01*
X166274999Y-96024998D01*
X166000001Y-96025001D01*
X165949999Y-95975001D01*
X165949999Y-95824999D01*
X166000001Y-95775001D01*
X166274999Y-95774999D01*
X166324999Y-95724999D01*
X166324999Y-95574999D01*
X166274999Y-95524999D01*
X166000001Y-95524999D01*
X165949999Y-95475000D01*
X165949999Y-95325000D01*
X166000001Y-95275000D01*
X166274999Y-95275000D01*
X166324999Y-95225000D01*
X166325002Y-95074998D01*
X166274999Y-95025000D01*
X166000001Y-95024998D01*
X165949999Y-94975001D01*
X165949999Y-94824998D01*
X166000001Y-94775001D01*
X166275002Y-94774998D01*
X166324999Y-94724998D01*
X166325004Y-94624973D01*
X166374999Y-94575001D01*
X167400001Y-94575011D01*
G37*
G36*
X169474996Y-94624978D02*
G01*
X169475001Y-94724998D01*
X169524998Y-94775001D01*
X169799999Y-94775001D01*
X169850001Y-94825001D01*
X169850001Y-94975001D01*
X169799999Y-95024998D01*
X169525001Y-95025000D01*
X169475001Y-95074998D01*
X169475001Y-95225000D01*
X169525001Y-95275000D01*
X169799999Y-95275000D01*
X169850001Y-95325000D01*
X169849999Y-95475000D01*
X169799999Y-95524999D01*
X169525001Y-95524999D01*
X169475001Y-95574999D01*
X169475001Y-95724999D01*
X169525001Y-95774999D01*
X169799999Y-95775001D01*
X169850001Y-95824999D01*
X169850001Y-95975001D01*
X169799999Y-96025001D01*
X169525001Y-96025001D01*
X169475001Y-96075001D01*
X169475001Y-96225001D01*
X169525001Y-96275000D01*
X169799999Y-96275000D01*
X169850001Y-96325000D01*
X169849999Y-96475000D01*
X169799999Y-96525000D01*
X169525001Y-96525000D01*
X169475001Y-96575000D01*
X169475001Y-96574997D01*
X169425001Y-96625000D01*
X168399999Y-96625000D01*
X168349997Y-96574997D01*
X168349999Y-94625001D01*
X168399999Y-94575006D01*
X169425001Y-94575001D01*
X169474996Y-94624978D01*
G37*
D19*
X166751200Y-104351200D02*
X163948800Y-104351200D01*
X163948800Y-103348800D01*
X166751200Y-103348800D01*
X166751200Y-104351200D01*
G36*
X166751200Y-104351200D02*
G01*
X163948800Y-104351200D01*
X163948800Y-103348800D01*
X166751200Y-103348800D01*
X166751200Y-104351200D01*
G37*
X171101200Y-104351200D02*
X167398800Y-104351200D01*
X167398800Y-103348800D01*
X171101200Y-103348800D01*
X171101200Y-104351200D01*
G36*
X171101200Y-104351200D02*
G01*
X167398800Y-104351200D01*
X167398800Y-103348800D01*
X171101200Y-103348800D01*
X171101200Y-104351200D01*
G37*
X166751200Y-102851200D02*
X163948800Y-102851200D01*
X163948800Y-101848800D01*
X166751200Y-101848800D01*
X166751200Y-102851200D01*
G36*
X166751200Y-102851200D02*
G01*
X163948800Y-102851200D01*
X163948800Y-101848800D01*
X166751200Y-101848800D01*
X166751200Y-102851200D01*
G37*
X171101200Y-102851200D02*
X167398800Y-102851200D01*
X167398800Y-101848800D01*
X171101200Y-101848800D01*
X171101200Y-102851200D01*
G36*
X171101200Y-102851200D02*
G01*
X167398800Y-102851200D01*
X167398800Y-101848800D01*
X171101200Y-101848800D01*
X171101200Y-102851200D01*
G37*
X166751200Y-101351200D02*
X163948800Y-101351200D01*
X163948800Y-100348800D01*
X166751200Y-100348800D01*
X166751200Y-101351200D01*
G36*
X166751200Y-101351200D02*
G01*
X163948800Y-101351200D01*
X163948800Y-100348800D01*
X166751200Y-100348800D01*
X166751200Y-101351200D01*
G37*
X171101200Y-101351200D02*
X167398800Y-101351200D01*
X167398800Y-100348800D01*
X171101200Y-100348800D01*
X171101200Y-101351200D01*
G36*
X171101200Y-101351200D02*
G01*
X167398800Y-101351200D01*
X167398800Y-100348800D01*
X171101200Y-100348800D01*
X171101200Y-101351200D01*
G37*
X166751200Y-99851200D02*
X163948800Y-99851200D01*
X163948800Y-98848800D01*
X166751200Y-98848800D01*
X166751200Y-99851200D01*
G36*
X166751200Y-99851200D02*
G01*
X163948800Y-99851200D01*
X163948800Y-98848800D01*
X166751200Y-98848800D01*
X166751200Y-99851200D01*
G37*
X171101200Y-99851200D02*
X167398800Y-99851200D01*
X167398800Y-98848800D01*
X171101200Y-98848800D01*
X171101200Y-99851200D01*
G36*
X171101200Y-99851200D02*
G01*
X167398800Y-99851200D01*
X167398800Y-98848800D01*
X171101200Y-98848800D01*
X171101200Y-99851200D01*
G37*
D20*
X139400000Y-82600000D03*
D21*
X151862500Y-109100000D03*
X148937500Y-109100000D03*
D22*
X137170000Y-107600000D03*
X138130000Y-107600000D03*
D23*
X162900000Y-92825000D03*
X162900000Y-89875000D03*
D22*
X153920000Y-94600000D03*
X154880000Y-94600000D03*
D24*
X158700000Y-100600000D03*
X160600000Y-100600000D03*
D25*
X167900000Y-117100000D03*
D26*
X140130000Y-107600000D03*
X139170000Y-107600000D03*
D27*
X148150000Y-105870000D03*
X148150000Y-106830000D03*
D24*
X153450000Y-110100000D03*
X155350000Y-110100000D03*
D22*
X153920000Y-95600000D03*
X154880000Y-95600000D03*
D28*
X135450000Y-94850000D03*
X136350000Y-94850000D03*
D29*
X138880000Y-98710000D03*
X138880000Y-104490000D03*
D30*
X139975000Y-98400000D03*
X139975000Y-99200000D03*
D31*
X139975000Y-100350000D03*
X139975000Y-101350000D03*
X139975000Y-101850000D03*
X139975000Y-102850000D03*
D30*
X139975000Y-104000000D03*
X139975000Y-104800000D03*
X139975000Y-104800000D03*
X139975000Y-104000000D03*
D31*
X139975000Y-103350000D03*
X139975000Y-102350000D03*
X139975000Y-100850000D03*
X139975000Y-99850000D03*
D30*
X139975000Y-99200000D03*
X139975000Y-98400000D03*
D32*
X135450000Y-96580000D03*
D33*
X139400000Y-97280000D03*
X139400000Y-105920000D03*
D32*
X135450000Y-106620000D03*
D24*
X153450000Y-93100000D03*
X155350000Y-93100000D03*
D34*
X148237500Y-98850000D03*
X148237500Y-99350000D03*
X148237500Y-99850000D03*
X148237500Y-100350000D03*
X148237500Y-100850000D03*
X148237500Y-101350000D03*
X148237500Y-101850000D03*
X148237500Y-102350000D03*
X148237500Y-102850000D03*
X148237500Y-103350000D03*
X148237500Y-103850000D03*
X148237500Y-104350000D03*
D35*
X149650000Y-105762500D03*
X150150000Y-105762500D03*
X150650000Y-105762500D03*
X151150000Y-105762500D03*
X151650000Y-105762500D03*
X152150000Y-105762500D03*
X152650000Y-105762500D03*
X153150000Y-105762500D03*
X153650000Y-105762500D03*
X154150000Y-105762500D03*
X154650000Y-105762500D03*
X155150000Y-105762500D03*
D34*
X156562500Y-104350000D03*
X156562500Y-103850000D03*
X156562500Y-103350000D03*
X156562500Y-102850000D03*
X156562500Y-102350000D03*
X156562500Y-101850000D03*
X156562500Y-101350000D03*
X156562500Y-100850000D03*
X156562500Y-100350000D03*
X156562500Y-99850000D03*
X156562500Y-99350000D03*
X156562500Y-98850000D03*
D35*
X155150000Y-97437500D03*
X154650000Y-97437500D03*
X154150000Y-97437500D03*
X153650000Y-97437500D03*
X153150000Y-97437500D03*
X152650000Y-97437500D03*
X152150000Y-97437500D03*
X151650000Y-97437500D03*
X151150000Y-97437500D03*
X150650000Y-97437500D03*
X150150000Y-97437500D03*
X149650000Y-97437500D03*
D36*
X152400000Y-101600000D03*
D37*
X146150000Y-101860000D03*
X146150000Y-100840000D03*
D22*
X153920000Y-108600000D03*
X154880000Y-108600000D03*
D38*
X146650000Y-89850000D03*
X146650000Y-85850000D03*
D39*
X139812500Y-94850000D03*
X137987500Y-94850000D03*
D21*
X151862500Y-94100000D03*
X148937500Y-94100000D03*
D40*
X159650000Y-97840000D03*
X159650000Y-98860000D03*
D41*
X148400000Y-96830000D03*
X148400000Y-95870000D03*
D42*
X146170000Y-94200000D03*
X143630000Y-94200000D03*
X143630000Y-96500000D03*
X146170000Y-96500000D03*
D41*
X165150000Y-93830000D03*
X165150000Y-92870000D03*
D25*
X136900000Y-86100000D03*
D43*
X150850000Y-115600000D03*
X157950000Y-115600000D03*
D44*
X138275000Y-112750000D03*
X137525000Y-112750000D03*
D45*
X135600000Y-112750000D03*
D44*
X135525000Y-109950000D03*
X136275000Y-109950000D03*
D45*
X138200000Y-109950000D03*
D46*
X146160000Y-107600000D03*
X145140000Y-107600000D03*
D47*
X158175000Y-96100000D03*
X156625000Y-96100000D03*
D46*
X142160000Y-107600000D03*
X141140000Y-107600000D03*
D26*
X169880000Y-91100000D03*
X168920000Y-91100000D03*
D48*
X163650000Y-95150000D03*
X163650000Y-97050000D03*
D20*
X165400000Y-120600000D03*
D46*
X144160000Y-107600000D03*
X143140000Y-107600000D03*
D27*
X165150000Y-95120000D03*
X165150000Y-96080000D03*
D25*
X167900000Y-86100000D03*
D20*
X165400000Y-82600000D03*
D27*
X160650000Y-97870000D03*
X160650000Y-98830000D03*
D43*
X150850000Y-87600000D03*
X157950000Y-87600000D03*
D20*
X139400000Y-120600000D03*
D49*
X142900000Y-109075000D03*
X140400000Y-109075000D03*
X140400000Y-113625000D03*
X142900000Y-113625000D03*
D41*
X141900000Y-100830000D03*
X141900000Y-99870000D03*
D25*
X136900000Y-117100000D03*
D50*
X144900000Y-101930500D03*
X144400000Y-101930500D03*
X143900000Y-101930500D03*
X143400000Y-101930500D03*
X142900000Y-101930500D03*
X142400000Y-101930500D03*
X141900000Y-101930500D03*
X141400000Y-101930500D03*
X141400000Y-106269500D03*
X141900000Y-106269500D03*
X142400000Y-106269500D03*
X142900000Y-106269500D03*
X143400000Y-106269500D03*
X143900000Y-106269500D03*
X144400000Y-106269500D03*
X144900000Y-106269500D03*
%LPD*%
M02*
