G04 #@! TF.GenerationSoftware,KiCad,Pcbnew,7.0.11*
G04 #@! TF.CreationDate,2024-07-15T13:19:43-04:00*
G04 #@! TF.ProjectId,prism-pcb,70726973-6d2d-4706-9362-2e6b69636164,1.0*
G04 #@! TF.SameCoordinates,Original*
G04 #@! TF.FileFunction,Copper,L4,Bot*
G04 #@! TF.FilePolarity,Positive*
%FSLAX46Y46*%
G04 Gerber Fmt 4.6, Leading zero omitted, Abs format (unit mm)*
G04 Created by KiCad (PCBNEW 7.0.11) date 2024-07-15 13:19:43*
%MOMM*%
%LPD*%
G01*
G04 APERTURE LIST*
G04 #@! TA.AperFunction,ComponentPad*
%ADD10R,1.700000X1.700000*%
G04 #@! TD*
G04 #@! TA.AperFunction,ComponentPad*
%ADD11O,1.700000X1.700000*%
G04 #@! TD*
G04 #@! TA.AperFunction,ComponentPad*
%ADD12C,4.400000*%
G04 #@! TD*
G04 #@! TA.AperFunction,ComponentPad*
%ADD13C,6.400000*%
G04 #@! TD*
G04 #@! TA.AperFunction,HeatsinkPad*
%ADD14C,0.500000*%
G04 #@! TD*
G04 #@! TA.AperFunction,HeatsinkPad*
%ADD15R,5.000000X5.000000*%
G04 #@! TD*
G04 #@! TA.AperFunction,ViaPad*
%ADD16C,1.000000*%
G04 #@! TD*
G04 #@! TA.AperFunction,ViaPad*
%ADD17C,0.400000*%
G04 #@! TD*
G04 #@! TA.AperFunction,Conductor*
%ADD18C,0.300000*%
G04 #@! TD*
G04 APERTURE END LIST*
D10*
X141130000Y-91600000D03*
D11*
X143670000Y-91600000D03*
D12*
X142400000Y-111600000D03*
X162400000Y-91600000D03*
X162400000Y-111600000D03*
D13*
X167900000Y-117100000D03*
D14*
X150150000Y-99350000D03*
X150150000Y-100475000D03*
X150150000Y-101600000D03*
X150150000Y-102725000D03*
X150150000Y-103850000D03*
X151275000Y-99350000D03*
X151275000Y-100475000D03*
X151275000Y-101600000D03*
X151275000Y-102725000D03*
X151275000Y-103850000D03*
X152400000Y-99350000D03*
X152400000Y-100475000D03*
X152400000Y-101600000D03*
D15*
X152400000Y-101600000D03*
D14*
X152400000Y-102725000D03*
X152400000Y-103850000D03*
X153525000Y-99350000D03*
X153525000Y-100475000D03*
X153525000Y-101600000D03*
X153525000Y-102725000D03*
X153525000Y-103850000D03*
X154650000Y-99350000D03*
X154650000Y-100475000D03*
X154650000Y-101600000D03*
X154650000Y-102725000D03*
X154650000Y-103850000D03*
D13*
X136900000Y-86100000D03*
X167900000Y-86100000D03*
X136900000Y-117100000D03*
D16*
X137400000Y-102100000D03*
X135400000Y-99100000D03*
X148400000Y-110850000D03*
X145400000Y-109600000D03*
X137400000Y-100100000D03*
X135400000Y-101100000D03*
X150400000Y-95600000D03*
X163150000Y-99350000D03*
X152900000Y-95600000D03*
X163150000Y-100850000D03*
X150400000Y-107600000D03*
X163150000Y-102350000D03*
X152875000Y-107600000D03*
X163150000Y-103850000D03*
D17*
X135400000Y-97100000D03*
X159400000Y-104600000D03*
X159400000Y-103600000D03*
X137400000Y-98100000D03*
D16*
X153400000Y-90600000D03*
X135400000Y-103100000D03*
X153400000Y-112600000D03*
X137400000Y-104100000D03*
X137400000Y-106100000D03*
X135400000Y-105100000D03*
D18*
X150400000Y-95600000D02*
X151650000Y-94350000D01*
X158650000Y-99350000D02*
X163150000Y-99350000D01*
X153650000Y-94350000D02*
X158650000Y-99350000D01*
X151650000Y-94350000D02*
X153650000Y-94350000D01*
X158150000Y-100850000D02*
X163150000Y-100850000D01*
X152900000Y-95600000D02*
X158150000Y-100850000D01*
X151900000Y-106100000D02*
X159400000Y-106100000D01*
X159400000Y-106100000D02*
X163150000Y-102350000D01*
X150400000Y-107600000D02*
X151900000Y-106100000D01*
X152875000Y-107600000D02*
X159400000Y-107600000D01*
X159400000Y-107600000D02*
X163150000Y-103850000D01*
X137400000Y-106100000D02*
X146900000Y-106100000D01*
X146900000Y-106100000D02*
X153400000Y-112600000D01*
X139900000Y-104100000D02*
X153400000Y-90600000D01*
X137400000Y-104100000D02*
X139900000Y-104100000D01*
G04 #@! TA.AperFunction,Conductor*
G36*
X167902292Y-81900605D02*
G01*
X168282906Y-81918202D01*
X168292001Y-81919044D01*
X168667139Y-81971374D01*
X168676108Y-81973051D01*
X169044788Y-82059764D01*
X169053583Y-82062266D01*
X169412690Y-82182627D01*
X169421217Y-82185930D01*
X169767695Y-82338915D01*
X169775869Y-82342985D01*
X170106752Y-82527285D01*
X170114527Y-82532099D01*
X170426991Y-82746143D01*
X170434288Y-82751654D01*
X170725659Y-82993604D01*
X170732417Y-82999764D01*
X171000235Y-83267582D01*
X171006395Y-83274340D01*
X171248345Y-83565711D01*
X171253856Y-83573008D01*
X171467900Y-83885472D01*
X171472714Y-83893247D01*
X171657011Y-84224124D01*
X171661087Y-84232310D01*
X171814069Y-84578782D01*
X171817372Y-84587309D01*
X171937733Y-84946416D01*
X171940235Y-84955211D01*
X172026946Y-85323881D01*
X172028627Y-85332870D01*
X172080954Y-85707993D01*
X172081797Y-85717098D01*
X172099394Y-86097707D01*
X172099500Y-86102279D01*
X172099500Y-117097720D01*
X172099394Y-117102292D01*
X172081797Y-117482901D01*
X172080954Y-117492006D01*
X172028627Y-117867129D01*
X172026946Y-117876118D01*
X171940235Y-118244788D01*
X171937733Y-118253583D01*
X171817372Y-118612690D01*
X171814069Y-118621217D01*
X171661087Y-118967689D01*
X171657011Y-118975875D01*
X171472714Y-119306752D01*
X171467900Y-119314527D01*
X171253856Y-119626991D01*
X171248345Y-119634288D01*
X171006395Y-119925659D01*
X171000235Y-119932417D01*
X170732417Y-120200235D01*
X170725659Y-120206395D01*
X170434288Y-120448345D01*
X170426991Y-120453856D01*
X170114527Y-120667900D01*
X170106752Y-120672714D01*
X169775875Y-120857011D01*
X169767689Y-120861087D01*
X169421217Y-121014069D01*
X169412690Y-121017372D01*
X169053583Y-121137733D01*
X169044788Y-121140235D01*
X168676118Y-121226946D01*
X168667129Y-121228627D01*
X168292006Y-121280954D01*
X168282901Y-121281797D01*
X167902293Y-121299394D01*
X167897721Y-121299500D01*
X136902279Y-121299500D01*
X136897707Y-121299394D01*
X136517098Y-121281797D01*
X136507993Y-121280954D01*
X136132870Y-121228627D01*
X136123881Y-121226946D01*
X135755211Y-121140235D01*
X135746416Y-121137733D01*
X135387309Y-121017372D01*
X135378782Y-121014069D01*
X135032310Y-120861087D01*
X135024124Y-120857011D01*
X134693247Y-120672714D01*
X134685472Y-120667900D01*
X134373008Y-120453856D01*
X134365711Y-120448345D01*
X134074340Y-120206395D01*
X134067582Y-120200235D01*
X133799764Y-119932417D01*
X133793604Y-119925659D01*
X133551654Y-119634288D01*
X133546143Y-119626991D01*
X133332099Y-119314527D01*
X133327285Y-119306752D01*
X133142988Y-118975875D01*
X133138912Y-118967689D01*
X133089473Y-118855721D01*
X132985930Y-118621217D01*
X132982627Y-118612690D01*
X132862266Y-118253583D01*
X132859764Y-118244788D01*
X132773051Y-117876108D01*
X132771374Y-117867139D01*
X132719044Y-117492001D01*
X132718202Y-117482901D01*
X132717522Y-117468199D01*
X132700606Y-117102292D01*
X132700553Y-117100000D01*
X133494506Y-117100000D01*
X133514468Y-117468197D01*
X133574126Y-117832087D01*
X133672768Y-118187365D01*
X133672772Y-118187376D01*
X133809255Y-118529927D01*
X133857654Y-118621217D01*
X133981978Y-118855716D01*
X134188910Y-119160917D01*
X134188914Y-119160922D01*
X134188915Y-119160923D01*
X134427622Y-119441951D01*
X134427632Y-119441961D01*
X134695326Y-119695535D01*
X134695330Y-119695538D01*
X134988881Y-119918690D01*
X135304838Y-120108795D01*
X135639497Y-120263625D01*
X135988934Y-120381364D01*
X135988939Y-120381365D01*
X135988942Y-120381366D01*
X136349047Y-120460631D01*
X136349048Y-120460631D01*
X136349052Y-120460632D01*
X136715630Y-120500500D01*
X137084370Y-120500500D01*
X137450948Y-120460632D01*
X137493467Y-120451273D01*
X137570987Y-120434209D01*
X137811057Y-120381366D01*
X137811058Y-120381366D01*
X137811060Y-120381365D01*
X137811066Y-120381364D01*
X138160503Y-120263625D01*
X138495162Y-120108795D01*
X138811119Y-119918690D01*
X139104670Y-119695538D01*
X139372373Y-119441956D01*
X139611090Y-119160917D01*
X139818022Y-118855716D01*
X139990743Y-118529930D01*
X140127227Y-118187379D01*
X140140380Y-118140008D01*
X140225873Y-117832087D01*
X140225875Y-117832081D01*
X140285531Y-117468199D01*
X140305494Y-117100000D01*
X164494506Y-117100000D01*
X164514468Y-117468197D01*
X164574126Y-117832087D01*
X164672768Y-118187365D01*
X164672772Y-118187376D01*
X164809255Y-118529927D01*
X164857654Y-118621217D01*
X164981978Y-118855716D01*
X165188910Y-119160917D01*
X165188914Y-119160922D01*
X165188915Y-119160923D01*
X165427622Y-119441951D01*
X165427632Y-119441961D01*
X165695326Y-119695535D01*
X165695330Y-119695538D01*
X165988881Y-119918690D01*
X166304838Y-120108795D01*
X166639497Y-120263625D01*
X166988934Y-120381364D01*
X166988939Y-120381365D01*
X166988942Y-120381366D01*
X167349047Y-120460631D01*
X167349048Y-120460631D01*
X167349052Y-120460632D01*
X167715630Y-120500500D01*
X168084370Y-120500500D01*
X168450948Y-120460632D01*
X168493467Y-120451273D01*
X168570987Y-120434209D01*
X168811057Y-120381366D01*
X168811058Y-120381366D01*
X168811060Y-120381365D01*
X168811066Y-120381364D01*
X169160503Y-120263625D01*
X169495162Y-120108795D01*
X169811119Y-119918690D01*
X170104670Y-119695538D01*
X170372373Y-119441956D01*
X170611090Y-119160917D01*
X170818022Y-118855716D01*
X170990743Y-118529930D01*
X171127227Y-118187379D01*
X171140380Y-118140008D01*
X171225873Y-117832087D01*
X171225875Y-117832081D01*
X171285531Y-117468199D01*
X171305494Y-117100000D01*
X171285531Y-116731801D01*
X171225875Y-116367919D01*
X171127227Y-116012621D01*
X170990743Y-115670070D01*
X170818022Y-115344284D01*
X170611090Y-115039083D01*
X170591399Y-115015901D01*
X170372377Y-114758048D01*
X170372367Y-114758038D01*
X170104673Y-114504464D01*
X169811123Y-114281313D01*
X169811122Y-114281312D01*
X169811119Y-114281310D01*
X169495162Y-114091205D01*
X169299107Y-114000500D01*
X169160508Y-113936377D01*
X169160505Y-113936376D01*
X169160503Y-113936375D01*
X168811066Y-113818636D01*
X168811065Y-113818635D01*
X168811057Y-113818633D01*
X168450952Y-113739368D01*
X168450953Y-113739368D01*
X168084370Y-113699500D01*
X167715630Y-113699500D01*
X167349046Y-113739368D01*
X166988943Y-113818633D01*
X166988941Y-113818633D01*
X166639491Y-113936377D01*
X166304846Y-114091201D01*
X166304840Y-114091204D01*
X165988881Y-114281310D01*
X165988876Y-114281313D01*
X165695326Y-114504464D01*
X165427632Y-114758038D01*
X165427622Y-114758048D01*
X165188915Y-115039076D01*
X165188908Y-115039086D01*
X164981981Y-115344278D01*
X164809255Y-115670072D01*
X164672772Y-116012623D01*
X164672768Y-116012634D01*
X164574126Y-116367912D01*
X164514468Y-116731802D01*
X164494506Y-117100000D01*
X140305494Y-117100000D01*
X140285531Y-116731801D01*
X140225875Y-116367919D01*
X140127227Y-116012621D01*
X139990743Y-115670070D01*
X139818022Y-115344284D01*
X139611090Y-115039083D01*
X139591399Y-115015901D01*
X139372377Y-114758048D01*
X139372367Y-114758038D01*
X139104673Y-114504464D01*
X138811123Y-114281313D01*
X138811122Y-114281312D01*
X138811119Y-114281310D01*
X138495162Y-114091205D01*
X138299107Y-114000500D01*
X138160508Y-113936377D01*
X138160505Y-113936376D01*
X138160503Y-113936375D01*
X137811066Y-113818636D01*
X137811065Y-113818635D01*
X137811057Y-113818633D01*
X137450952Y-113739368D01*
X137450953Y-113739368D01*
X137084370Y-113699500D01*
X136715630Y-113699500D01*
X136349046Y-113739368D01*
X135988943Y-113818633D01*
X135988941Y-113818633D01*
X135639491Y-113936377D01*
X135304846Y-114091201D01*
X135304840Y-114091204D01*
X134988881Y-114281310D01*
X134988876Y-114281313D01*
X134695326Y-114504464D01*
X134427632Y-114758038D01*
X134427622Y-114758048D01*
X134188915Y-115039076D01*
X134188908Y-115039086D01*
X133981981Y-115344278D01*
X133809255Y-115670072D01*
X133672772Y-116012623D01*
X133672768Y-116012634D01*
X133574126Y-116367912D01*
X133514468Y-116731802D01*
X133494506Y-117100000D01*
X132700553Y-117100000D01*
X132700500Y-117097720D01*
X132700500Y-111600000D01*
X139994754Y-111600000D01*
X140013720Y-111901462D01*
X140070317Y-112198151D01*
X140070319Y-112198160D01*
X140163659Y-112485430D01*
X140163661Y-112485436D01*
X140292267Y-112758736D01*
X140292274Y-112758749D01*
X140454114Y-113013767D01*
X140646645Y-113246497D01*
X140646655Y-113246508D01*
X140866837Y-113453274D01*
X140866840Y-113453276D01*
X141111192Y-113630807D01*
X141111196Y-113630809D01*
X141111205Y-113630816D01*
X141375896Y-113776332D01*
X141656738Y-113887525D01*
X141949302Y-113962642D01*
X142149082Y-113987880D01*
X142248972Y-114000500D01*
X142248973Y-114000500D01*
X142551028Y-114000500D01*
X142600972Y-113994190D01*
X142850698Y-113962642D01*
X143143262Y-113887525D01*
X143424104Y-113776332D01*
X143688795Y-113630816D01*
X143933162Y-113453274D01*
X144153349Y-113246504D01*
X144345885Y-113013768D01*
X144507733Y-112758736D01*
X144636341Y-112485430D01*
X144729681Y-112198160D01*
X144786280Y-111901457D01*
X144805246Y-111600000D01*
X159994754Y-111600000D01*
X160013720Y-111901462D01*
X160070317Y-112198151D01*
X160070319Y-112198160D01*
X160163659Y-112485430D01*
X160163661Y-112485436D01*
X160292267Y-112758736D01*
X160292274Y-112758749D01*
X160454114Y-113013767D01*
X160646645Y-113246497D01*
X160646655Y-113246508D01*
X160866837Y-113453274D01*
X160866840Y-113453276D01*
X161111192Y-113630807D01*
X161111196Y-113630809D01*
X161111205Y-113630816D01*
X161375896Y-113776332D01*
X161656738Y-113887525D01*
X161949302Y-113962642D01*
X162149082Y-113987880D01*
X162248972Y-114000500D01*
X162248973Y-114000500D01*
X162551028Y-114000500D01*
X162600972Y-113994190D01*
X162850698Y-113962642D01*
X163143262Y-113887525D01*
X163424104Y-113776332D01*
X163688795Y-113630816D01*
X163933162Y-113453274D01*
X164153349Y-113246504D01*
X164345885Y-113013768D01*
X164507733Y-112758736D01*
X164636341Y-112485430D01*
X164729681Y-112198160D01*
X164786280Y-111901457D01*
X164805246Y-111600000D01*
X164786280Y-111298543D01*
X164729681Y-111001840D01*
X164636341Y-110714570D01*
X164620604Y-110681128D01*
X164545757Y-110522070D01*
X164507733Y-110441264D01*
X164507729Y-110441259D01*
X164507725Y-110441250D01*
X164345885Y-110186232D01*
X164153354Y-109953502D01*
X164153344Y-109953491D01*
X163933162Y-109746725D01*
X163933159Y-109746723D01*
X163688807Y-109569192D01*
X163688800Y-109569187D01*
X163688795Y-109569184D01*
X163424104Y-109423668D01*
X163424102Y-109423667D01*
X163424100Y-109423666D01*
X163143262Y-109312475D01*
X162850698Y-109237358D01*
X162850691Y-109237357D01*
X162850695Y-109237357D01*
X162551028Y-109199500D01*
X162551027Y-109199500D01*
X162248973Y-109199500D01*
X162248972Y-109199500D01*
X161949306Y-109237357D01*
X161656737Y-109312475D01*
X161375899Y-109423666D01*
X161111213Y-109569179D01*
X161111192Y-109569192D01*
X160866840Y-109746723D01*
X160866837Y-109746725D01*
X160646655Y-109953491D01*
X160646645Y-109953502D01*
X160454114Y-110186232D01*
X160292274Y-110441250D01*
X160292267Y-110441263D01*
X160163661Y-110714563D01*
X160070320Y-111001838D01*
X160070317Y-111001848D01*
X160013720Y-111298537D01*
X159994754Y-111600000D01*
X144805246Y-111600000D01*
X144786280Y-111298543D01*
X144729681Y-111001840D01*
X144680345Y-110850000D01*
X147694355Y-110850000D01*
X147714860Y-111018872D01*
X147775182Y-111177930D01*
X147871817Y-111317929D01*
X147999148Y-111430734D01*
X148149775Y-111509790D01*
X148314944Y-111550500D01*
X148314947Y-111550500D01*
X148485053Y-111550500D01*
X148485056Y-111550500D01*
X148650225Y-111509790D01*
X148800852Y-111430734D01*
X148928183Y-111317929D01*
X149024818Y-111177930D01*
X149085140Y-111018872D01*
X149105645Y-110850000D01*
X149085140Y-110681128D01*
X149024818Y-110522070D01*
X148928183Y-110382071D01*
X148800852Y-110269266D01*
X148650225Y-110190210D01*
X148650224Y-110190209D01*
X148650223Y-110190209D01*
X148485058Y-110149500D01*
X148485056Y-110149500D01*
X148314944Y-110149500D01*
X148314941Y-110149500D01*
X148149776Y-110190209D01*
X147999146Y-110269267D01*
X147871818Y-110382069D01*
X147871817Y-110382071D01*
X147775182Y-110522070D01*
X147714860Y-110681128D01*
X147694355Y-110850000D01*
X144680345Y-110850000D01*
X144636341Y-110714570D01*
X144620604Y-110681128D01*
X144545757Y-110522070D01*
X144507733Y-110441264D01*
X144507729Y-110441259D01*
X144507725Y-110441250D01*
X144345885Y-110186232D01*
X144153354Y-109953502D01*
X144153344Y-109953491D01*
X143933162Y-109746725D01*
X143933159Y-109746723D01*
X143731211Y-109600000D01*
X144694355Y-109600000D01*
X144714860Y-109768872D01*
X144775182Y-109927930D01*
X144871817Y-110067929D01*
X144999148Y-110180734D01*
X145149775Y-110259790D01*
X145314944Y-110300500D01*
X145314947Y-110300500D01*
X145485053Y-110300500D01*
X145485056Y-110300500D01*
X145650225Y-110259790D01*
X145800852Y-110180734D01*
X145928183Y-110067929D01*
X146024818Y-109927930D01*
X146085140Y-109768872D01*
X146105645Y-109600000D01*
X146085140Y-109431128D01*
X146024818Y-109272070D01*
X145928183Y-109132071D01*
X145800852Y-109019266D01*
X145650225Y-108940210D01*
X145650224Y-108940209D01*
X145650223Y-108940209D01*
X145485058Y-108899500D01*
X145485056Y-108899500D01*
X145314944Y-108899500D01*
X145314941Y-108899500D01*
X145149776Y-108940209D01*
X144999146Y-109019267D01*
X144871818Y-109132069D01*
X144871817Y-109132071D01*
X144775182Y-109272070D01*
X144714860Y-109431128D01*
X144694355Y-109600000D01*
X143731211Y-109600000D01*
X143688807Y-109569192D01*
X143688800Y-109569187D01*
X143688795Y-109569184D01*
X143424104Y-109423668D01*
X143424102Y-109423667D01*
X143424100Y-109423666D01*
X143143262Y-109312475D01*
X142850698Y-109237358D01*
X142850691Y-109237357D01*
X142850695Y-109237357D01*
X142551028Y-109199500D01*
X142551027Y-109199500D01*
X142248973Y-109199500D01*
X142248972Y-109199500D01*
X141949306Y-109237357D01*
X141656737Y-109312475D01*
X141375899Y-109423666D01*
X141111213Y-109569179D01*
X141111192Y-109569192D01*
X140866840Y-109746723D01*
X140866837Y-109746725D01*
X140646655Y-109953491D01*
X140646645Y-109953502D01*
X140454114Y-110186232D01*
X140292274Y-110441250D01*
X140292267Y-110441263D01*
X140163661Y-110714563D01*
X140070320Y-111001838D01*
X140070317Y-111001848D01*
X140013720Y-111298537D01*
X139994754Y-111600000D01*
X132700500Y-111600000D01*
X132700500Y-107600000D01*
X149694355Y-107600000D01*
X149714860Y-107768872D01*
X149775182Y-107927930D01*
X149871817Y-108067929D01*
X149999148Y-108180734D01*
X150149775Y-108259790D01*
X150314944Y-108300500D01*
X150314947Y-108300500D01*
X150485053Y-108300500D01*
X150485056Y-108300500D01*
X150650225Y-108259790D01*
X150800852Y-108180734D01*
X150928183Y-108067929D01*
X151024818Y-107927930D01*
X151085140Y-107768872D01*
X151105645Y-107600000D01*
X151088721Y-107460621D01*
X151100476Y-107400577D01*
X151116996Y-107378685D01*
X152016187Y-106479496D01*
X152070703Y-106451719D01*
X152086190Y-106450500D01*
X159353381Y-106450500D01*
X159373696Y-106452607D01*
X159375606Y-106453007D01*
X159385315Y-106455043D01*
X159415662Y-106451259D01*
X159427907Y-106450500D01*
X159429043Y-106450500D01*
X159448521Y-106447249D01*
X159452552Y-106446661D01*
X159501393Y-106440573D01*
X159501396Y-106440571D01*
X159508429Y-106438477D01*
X159515375Y-106436092D01*
X159515381Y-106436092D01*
X159558655Y-106412671D01*
X159562279Y-106410807D01*
X159606482Y-106389199D01*
X159606482Y-106389198D01*
X159606484Y-106389198D01*
X159606485Y-106389196D01*
X159612470Y-106384923D01*
X159618255Y-106380420D01*
X159618255Y-106380419D01*
X159618258Y-106380418D01*
X159651579Y-106344220D01*
X159654364Y-106341316D01*
X162282771Y-103712908D01*
X162337286Y-103685133D01*
X162397718Y-103694704D01*
X162440983Y-103737969D01*
X162451051Y-103794846D01*
X162444355Y-103849997D01*
X162444355Y-103850001D01*
X162461278Y-103989375D01*
X162449523Y-104049420D01*
X162433004Y-104071312D01*
X159283814Y-107220504D01*
X159229297Y-107248281D01*
X159213810Y-107249500D01*
X153536198Y-107249500D01*
X153478007Y-107230593D01*
X153454723Y-107206739D01*
X153453939Y-107205603D01*
X153403183Y-107132071D01*
X153275852Y-107019266D01*
X153125225Y-106940210D01*
X153125224Y-106940209D01*
X153125223Y-106940209D01*
X152960058Y-106899500D01*
X152960056Y-106899500D01*
X152789944Y-106899500D01*
X152789941Y-106899500D01*
X152624776Y-106940209D01*
X152474146Y-107019267D01*
X152346818Y-107132069D01*
X152346817Y-107132071D01*
X152250182Y-107272070D01*
X152189860Y-107431128D01*
X152169355Y-107600000D01*
X152189860Y-107768872D01*
X152250182Y-107927930D01*
X152346817Y-108067929D01*
X152474148Y-108180734D01*
X152624775Y-108259790D01*
X152789944Y-108300500D01*
X152789947Y-108300500D01*
X152960053Y-108300500D01*
X152960056Y-108300500D01*
X153125225Y-108259790D01*
X153275852Y-108180734D01*
X153403183Y-108067929D01*
X153454723Y-107993261D01*
X153503340Y-107956112D01*
X153536198Y-107950500D01*
X159353381Y-107950500D01*
X159373696Y-107952607D01*
X159375606Y-107953007D01*
X159385315Y-107955043D01*
X159415662Y-107951259D01*
X159427907Y-107950500D01*
X159429043Y-107950500D01*
X159448521Y-107947249D01*
X159452552Y-107946661D01*
X159501393Y-107940573D01*
X159501396Y-107940571D01*
X159508429Y-107938477D01*
X159515375Y-107936092D01*
X159515381Y-107936092D01*
X159558655Y-107912671D01*
X159562279Y-107910807D01*
X159606482Y-107889199D01*
X159606482Y-107889198D01*
X159606484Y-107889198D01*
X159606485Y-107889196D01*
X159612470Y-107884923D01*
X159618255Y-107880420D01*
X159618255Y-107880419D01*
X159618258Y-107880418D01*
X159651579Y-107844220D01*
X159654364Y-107841316D01*
X162929382Y-104566297D01*
X162983897Y-104538522D01*
X163023073Y-104540179D01*
X163064944Y-104550500D01*
X163064947Y-104550500D01*
X163235053Y-104550500D01*
X163235056Y-104550500D01*
X163400225Y-104509790D01*
X163550852Y-104430734D01*
X163678183Y-104317929D01*
X163774818Y-104177930D01*
X163835140Y-104018872D01*
X163855645Y-103850000D01*
X163854229Y-103838342D01*
X163848948Y-103794846D01*
X163835140Y-103681128D01*
X163774818Y-103522070D01*
X163678183Y-103382071D01*
X163655141Y-103361658D01*
X163550853Y-103269267D01*
X163550852Y-103269266D01*
X163400225Y-103190210D01*
X163400222Y-103190209D01*
X163395365Y-103187660D01*
X163352627Y-103143876D01*
X163343786Y-103083332D01*
X163372221Y-103029156D01*
X163395365Y-103012340D01*
X163400222Y-103009790D01*
X163400225Y-103009790D01*
X163550852Y-102930734D01*
X163678183Y-102817929D01*
X163774818Y-102677930D01*
X163835140Y-102518872D01*
X163855645Y-102350000D01*
X163835140Y-102181128D01*
X163774818Y-102022070D01*
X163678183Y-101882071D01*
X163550852Y-101769266D01*
X163400225Y-101690210D01*
X163400222Y-101690209D01*
X163395365Y-101687660D01*
X163352627Y-101643876D01*
X163343786Y-101583332D01*
X163372221Y-101529156D01*
X163395365Y-101512340D01*
X163400222Y-101509790D01*
X163400225Y-101509790D01*
X163550852Y-101430734D01*
X163678183Y-101317929D01*
X163774818Y-101177930D01*
X163835140Y-101018872D01*
X163855645Y-100850000D01*
X163835140Y-100681128D01*
X163774818Y-100522070D01*
X163678183Y-100382071D01*
X163550852Y-100269266D01*
X163400225Y-100190210D01*
X163400222Y-100190209D01*
X163395365Y-100187660D01*
X163352627Y-100143876D01*
X163343786Y-100083332D01*
X163372221Y-100029156D01*
X163395365Y-100012340D01*
X163400222Y-100009790D01*
X163400225Y-100009790D01*
X163550852Y-99930734D01*
X163678183Y-99817929D01*
X163774818Y-99677930D01*
X163835140Y-99518872D01*
X163855645Y-99350000D01*
X163835140Y-99181128D01*
X163774818Y-99022070D01*
X163678183Y-98882071D01*
X163550852Y-98769266D01*
X163400225Y-98690210D01*
X163400224Y-98690209D01*
X163400223Y-98690209D01*
X163235058Y-98649500D01*
X163235056Y-98649500D01*
X163064944Y-98649500D01*
X163064941Y-98649500D01*
X162899776Y-98690209D01*
X162749146Y-98769267D01*
X162621818Y-98882069D01*
X162621816Y-98882072D01*
X162570277Y-98956739D01*
X162521660Y-98993888D01*
X162488802Y-98999500D01*
X158836190Y-98999500D01*
X158777999Y-98980593D01*
X158766186Y-98970504D01*
X153930801Y-94135119D01*
X153917925Y-94119262D01*
X153911437Y-94109331D01*
X153887308Y-94090551D01*
X153878119Y-94082437D01*
X153877307Y-94081625D01*
X153861225Y-94070143D01*
X153857961Y-94067710D01*
X153819126Y-94037483D01*
X153819124Y-94037482D01*
X153812677Y-94033993D01*
X153806070Y-94030763D01*
X153806066Y-94030760D01*
X153758909Y-94016720D01*
X153755015Y-94015472D01*
X153708487Y-93999499D01*
X153701260Y-93998293D01*
X153693955Y-93997383D01*
X153693954Y-93997383D01*
X153693952Y-93997383D01*
X153644824Y-93999415D01*
X153640733Y-93999500D01*
X151696619Y-93999500D01*
X151676304Y-93997393D01*
X151664685Y-93994957D01*
X151645144Y-93997393D01*
X151634338Y-93998740D01*
X151622093Y-93999500D01*
X151620960Y-93999500D01*
X151601470Y-94002751D01*
X151597431Y-94003339D01*
X151548607Y-94009426D01*
X151541581Y-94011517D01*
X151534616Y-94013908D01*
X151491361Y-94037317D01*
X151487724Y-94039189D01*
X151443520Y-94060799D01*
X151437542Y-94065066D01*
X151431744Y-94069580D01*
X151398431Y-94105765D01*
X151395601Y-94108715D01*
X150620617Y-94883699D01*
X150566100Y-94911476D01*
X150526923Y-94909819D01*
X150522345Y-94908690D01*
X150485056Y-94899500D01*
X150314944Y-94899500D01*
X150314941Y-94899500D01*
X150149776Y-94940209D01*
X149999146Y-95019267D01*
X149871818Y-95132069D01*
X149871817Y-95132071D01*
X149775182Y-95272070D01*
X149714860Y-95431128D01*
X149694355Y-95600000D01*
X149714860Y-95768872D01*
X149775182Y-95927930D01*
X149871817Y-96067929D01*
X149999148Y-96180734D01*
X150149775Y-96259790D01*
X150314944Y-96300500D01*
X150314947Y-96300500D01*
X150485053Y-96300500D01*
X150485056Y-96300500D01*
X150650225Y-96259790D01*
X150800852Y-96180734D01*
X150928183Y-96067929D01*
X151024818Y-95927930D01*
X151085140Y-95768872D01*
X151105645Y-95600000D01*
X151088721Y-95460621D01*
X151100476Y-95400577D01*
X151116996Y-95378685D01*
X151766187Y-94729496D01*
X151820703Y-94701719D01*
X151836190Y-94700500D01*
X153463810Y-94700500D01*
X153522001Y-94719407D01*
X153533814Y-94729496D01*
X158369197Y-99564878D01*
X158382072Y-99580734D01*
X158388563Y-99590669D01*
X158412694Y-99609451D01*
X158421878Y-99617560D01*
X158422689Y-99618370D01*
X158422693Y-99618374D01*
X158438773Y-99629856D01*
X158442051Y-99632300D01*
X158480874Y-99662517D01*
X158480878Y-99662518D01*
X158487354Y-99666022D01*
X158493934Y-99669240D01*
X158541102Y-99683282D01*
X158544964Y-99684520D01*
X158555311Y-99688072D01*
X158591512Y-99700500D01*
X158591514Y-99700500D01*
X158598733Y-99701705D01*
X158606039Y-99702615D01*
X158606046Y-99702617D01*
X158655186Y-99700584D01*
X158659276Y-99700500D01*
X162488802Y-99700500D01*
X162546993Y-99719407D01*
X162570277Y-99743261D01*
X162621817Y-99817929D01*
X162749148Y-99930734D01*
X162899775Y-100009790D01*
X162904634Y-100012340D01*
X162947372Y-100056124D01*
X162956213Y-100116668D01*
X162927778Y-100170845D01*
X162904634Y-100187660D01*
X162749146Y-100269267D01*
X162621818Y-100382069D01*
X162621816Y-100382072D01*
X162570277Y-100456739D01*
X162521660Y-100493888D01*
X162488802Y-100499500D01*
X158336190Y-100499500D01*
X158277999Y-100480593D01*
X158266186Y-100470504D01*
X153616995Y-95821313D01*
X153589218Y-95766796D01*
X153588721Y-95739379D01*
X153605645Y-95600000D01*
X153585140Y-95431128D01*
X153524818Y-95272070D01*
X153428183Y-95132071D01*
X153300852Y-95019266D01*
X153150225Y-94940210D01*
X153150224Y-94940209D01*
X153150223Y-94940209D01*
X152985058Y-94899500D01*
X152985056Y-94899500D01*
X152814944Y-94899500D01*
X152814941Y-94899500D01*
X152649776Y-94940209D01*
X152499146Y-95019267D01*
X152371818Y-95132069D01*
X152371817Y-95132071D01*
X152275182Y-95272070D01*
X152214860Y-95431128D01*
X152194355Y-95600000D01*
X152214860Y-95768872D01*
X152275182Y-95927930D01*
X152371817Y-96067929D01*
X152499148Y-96180734D01*
X152649775Y-96259790D01*
X152814944Y-96300500D01*
X152814947Y-96300500D01*
X152985053Y-96300500D01*
X152985056Y-96300500D01*
X153026923Y-96290180D01*
X153087943Y-96294611D01*
X153120617Y-96316299D01*
X157869199Y-101064881D01*
X157882074Y-101080737D01*
X157888563Y-101090669D01*
X157912690Y-101109448D01*
X157921877Y-101117560D01*
X157922687Y-101118370D01*
X157922690Y-101118372D01*
X157922693Y-101118375D01*
X157938769Y-101129852D01*
X157942050Y-101132299D01*
X157980874Y-101162517D01*
X157980875Y-101162517D01*
X157980876Y-101162518D01*
X157987318Y-101166005D01*
X157993930Y-101169238D01*
X158013794Y-101175151D01*
X158041100Y-101183280D01*
X158044951Y-101184514D01*
X158091512Y-101200500D01*
X158091515Y-101200500D01*
X158098732Y-101201705D01*
X158106039Y-101202615D01*
X158106046Y-101202617D01*
X158155176Y-101200585D01*
X158159267Y-101200500D01*
X162488802Y-101200500D01*
X162546993Y-101219407D01*
X162570277Y-101243261D01*
X162621817Y-101317929D01*
X162749148Y-101430734D01*
X162899775Y-101509790D01*
X162904634Y-101512340D01*
X162947372Y-101556124D01*
X162956213Y-101616668D01*
X162927778Y-101670845D01*
X162904634Y-101687660D01*
X162749146Y-101769267D01*
X162621818Y-101882069D01*
X162621817Y-101882071D01*
X162525182Y-102022070D01*
X162495628Y-102100000D01*
X162464860Y-102181129D01*
X162444355Y-102349998D01*
X162444355Y-102350001D01*
X162461278Y-102489375D01*
X162449523Y-102549420D01*
X162433004Y-102571312D01*
X159283814Y-105720504D01*
X159229297Y-105748281D01*
X159213810Y-105749500D01*
X151946613Y-105749500D01*
X151926298Y-105747393D01*
X151914685Y-105744958D01*
X151884343Y-105748740D01*
X151872099Y-105749500D01*
X151870959Y-105749500D01*
X151851481Y-105752750D01*
X151847436Y-105753339D01*
X151798608Y-105759426D01*
X151791575Y-105761519D01*
X151784616Y-105763908D01*
X151741361Y-105787317D01*
X151737724Y-105789189D01*
X151693520Y-105810799D01*
X151687542Y-105815066D01*
X151681744Y-105819580D01*
X151648431Y-105855765D01*
X151645601Y-105858715D01*
X150620617Y-106883699D01*
X150566100Y-106911476D01*
X150526923Y-106909819D01*
X150522345Y-106908690D01*
X150485056Y-106899500D01*
X150314944Y-106899500D01*
X150314941Y-106899500D01*
X150149776Y-106940209D01*
X149999146Y-107019267D01*
X149871818Y-107132069D01*
X149871817Y-107132071D01*
X149775182Y-107272070D01*
X149714860Y-107431128D01*
X149694355Y-107600000D01*
X132700500Y-107600000D01*
X132700500Y-104600000D01*
X158994508Y-104600000D01*
X159014354Y-104725303D01*
X159014355Y-104725307D01*
X159069944Y-104834406D01*
X159071950Y-104838342D01*
X159161658Y-104928050D01*
X159274696Y-104985646D01*
X159400000Y-105005492D01*
X159525304Y-104985646D01*
X159638342Y-104928050D01*
X159728050Y-104838342D01*
X159785646Y-104725304D01*
X159805492Y-104600000D01*
X159785646Y-104474696D01*
X159728050Y-104361658D01*
X159638342Y-104271950D01*
X159584563Y-104244548D01*
X159525307Y-104214355D01*
X159525304Y-104214354D01*
X159420664Y-104197780D01*
X159404571Y-104189581D01*
X159379334Y-104197781D01*
X159274696Y-104214354D01*
X159274692Y-104214355D01*
X159161659Y-104271949D01*
X159071949Y-104361659D01*
X159014355Y-104474692D01*
X159014354Y-104474696D01*
X158994508Y-104599999D01*
X158994508Y-104600000D01*
X132700500Y-104600000D01*
X132700500Y-103850000D01*
X149694867Y-103850000D01*
X149698492Y-103875210D01*
X149699500Y-103889301D01*
X149699500Y-104119746D01*
X149699501Y-104119758D01*
X149711132Y-104178227D01*
X149711134Y-104178233D01*
X149755445Y-104244548D01*
X149755448Y-104244552D01*
X149821769Y-104288867D01*
X149866231Y-104297711D01*
X149880241Y-104300498D01*
X149880246Y-104300498D01*
X149880252Y-104300500D01*
X149880253Y-104300500D01*
X154919747Y-104300500D01*
X154919748Y-104300500D01*
X154978231Y-104288867D01*
X155044552Y-104244552D01*
X155088867Y-104178231D01*
X155100500Y-104119748D01*
X155100500Y-103889301D01*
X155101508Y-103875210D01*
X155105133Y-103850000D01*
X155105133Y-103849998D01*
X155101508Y-103824786D01*
X155100500Y-103810697D01*
X155100500Y-103600000D01*
X158994508Y-103600000D01*
X159009507Y-103694704D01*
X159014354Y-103725303D01*
X159014355Y-103725307D01*
X159057864Y-103810697D01*
X159071950Y-103838342D01*
X159161658Y-103928050D01*
X159274696Y-103985646D01*
X159366547Y-104000193D01*
X159379334Y-104002219D01*
X159395427Y-104010418D01*
X159420665Y-104002219D01*
X159525304Y-103985646D01*
X159638342Y-103928050D01*
X159728050Y-103838342D01*
X159785646Y-103725304D01*
X159805492Y-103600000D01*
X159785646Y-103474696D01*
X159728050Y-103361658D01*
X159638342Y-103271950D01*
X159633074Y-103269266D01*
X159525307Y-103214355D01*
X159525304Y-103214354D01*
X159400000Y-103194508D01*
X159274696Y-103214354D01*
X159274692Y-103214355D01*
X159161659Y-103271949D01*
X159071949Y-103361659D01*
X159014355Y-103474692D01*
X159014354Y-103474696D01*
X158994508Y-103600000D01*
X155100500Y-103600000D01*
X155100500Y-102764301D01*
X155101508Y-102750210D01*
X155105133Y-102725000D01*
X155105133Y-102724998D01*
X155101508Y-102699786D01*
X155100500Y-102685697D01*
X155100500Y-101639301D01*
X155101508Y-101625210D01*
X155105133Y-101600000D01*
X155105133Y-101599998D01*
X155101508Y-101574786D01*
X155100500Y-101560697D01*
X155100500Y-100514301D01*
X155101508Y-100500210D01*
X155105133Y-100475000D01*
X155105133Y-100474998D01*
X155101508Y-100449786D01*
X155100500Y-100435697D01*
X155100500Y-99389301D01*
X155101508Y-99375210D01*
X155105133Y-99350000D01*
X155105133Y-99349998D01*
X155101508Y-99324786D01*
X155100500Y-99310697D01*
X155100500Y-99080253D01*
X155100498Y-99080241D01*
X155097711Y-99066231D01*
X155088867Y-99021769D01*
X155044552Y-98955448D01*
X155008157Y-98931129D01*
X154978233Y-98911134D01*
X154978231Y-98911133D01*
X154978228Y-98911132D01*
X154978227Y-98911132D01*
X154919758Y-98899501D01*
X154919748Y-98899500D01*
X149880252Y-98899500D01*
X149880251Y-98899500D01*
X149880241Y-98899501D01*
X149821772Y-98911132D01*
X149821766Y-98911134D01*
X149755451Y-98955445D01*
X149755445Y-98955451D01*
X149711134Y-99021766D01*
X149711132Y-99021772D01*
X149699501Y-99080241D01*
X149699500Y-99080253D01*
X149699500Y-99310697D01*
X149698492Y-99324786D01*
X149694867Y-99349998D01*
X149694867Y-99350000D01*
X149698492Y-99375210D01*
X149699500Y-99389301D01*
X149699500Y-100435697D01*
X149698492Y-100449786D01*
X149694867Y-100474998D01*
X149694867Y-100475000D01*
X149698492Y-100500210D01*
X149699500Y-100514301D01*
X149699500Y-101560697D01*
X149698492Y-101574786D01*
X149694867Y-101599998D01*
X149694867Y-101600000D01*
X149698492Y-101625210D01*
X149699500Y-101639301D01*
X149699500Y-102685697D01*
X149698492Y-102699786D01*
X149694867Y-102724998D01*
X149694867Y-102725000D01*
X149698492Y-102750210D01*
X149699500Y-102764301D01*
X149699500Y-103810697D01*
X149698492Y-103824786D01*
X149694867Y-103849998D01*
X149694867Y-103850000D01*
X132700500Y-103850000D01*
X132700500Y-102100000D01*
X136694355Y-102100000D01*
X136714860Y-102268872D01*
X136775182Y-102427930D01*
X136871817Y-102567929D01*
X136999148Y-102680734D01*
X137149775Y-102759790D01*
X137314944Y-102800500D01*
X137314947Y-102800500D01*
X137485053Y-102800500D01*
X137485056Y-102800500D01*
X137650225Y-102759790D01*
X137800852Y-102680734D01*
X137928183Y-102567929D01*
X138024818Y-102427930D01*
X138085140Y-102268872D01*
X138105645Y-102100000D01*
X138085140Y-101931128D01*
X138024818Y-101772070D01*
X137928183Y-101632071D01*
X137800852Y-101519266D01*
X137650225Y-101440210D01*
X137650224Y-101440209D01*
X137650223Y-101440209D01*
X137485058Y-101399500D01*
X137485056Y-101399500D01*
X137314944Y-101399500D01*
X137314941Y-101399500D01*
X137149776Y-101440209D01*
X136999146Y-101519267D01*
X136871818Y-101632069D01*
X136871816Y-101632072D01*
X136838227Y-101680734D01*
X136775182Y-101772070D01*
X136733465Y-101882072D01*
X136714860Y-101931129D01*
X136703818Y-102022070D01*
X136694355Y-102100000D01*
X132700500Y-102100000D01*
X132700500Y-101100001D01*
X134694355Y-101100001D01*
X134696586Y-101118375D01*
X134714860Y-101268872D01*
X134775182Y-101427930D01*
X134871817Y-101567929D01*
X134999148Y-101680734D01*
X135149775Y-101759790D01*
X135314944Y-101800500D01*
X135314947Y-101800500D01*
X135485053Y-101800500D01*
X135485056Y-101800500D01*
X135650225Y-101759790D01*
X135800852Y-101680734D01*
X135928183Y-101567929D01*
X136024818Y-101427930D01*
X136085140Y-101268872D01*
X136105645Y-101100000D01*
X136085140Y-100931128D01*
X136024818Y-100772070D01*
X135928183Y-100632071D01*
X135800852Y-100519266D01*
X135650225Y-100440210D01*
X135650224Y-100440209D01*
X135650223Y-100440209D01*
X135485058Y-100399500D01*
X135485056Y-100399500D01*
X135314944Y-100399500D01*
X135314941Y-100399500D01*
X135149776Y-100440209D01*
X134999146Y-100519267D01*
X134871818Y-100632069D01*
X134871816Y-100632072D01*
X134838227Y-100680734D01*
X134775182Y-100772070D01*
X134745628Y-100850000D01*
X134714860Y-100931129D01*
X134694355Y-101099998D01*
X134694355Y-101100001D01*
X132700500Y-101100001D01*
X132700500Y-100100000D01*
X136694355Y-100100000D01*
X136714860Y-100268872D01*
X136775182Y-100427930D01*
X136871817Y-100567929D01*
X136999148Y-100680734D01*
X137149775Y-100759790D01*
X137314944Y-100800500D01*
X137314947Y-100800500D01*
X137485053Y-100800500D01*
X137485056Y-100800500D01*
X137650225Y-100759790D01*
X137800852Y-100680734D01*
X137928183Y-100567929D01*
X138024818Y-100427930D01*
X138085140Y-100268872D01*
X138105645Y-100100000D01*
X138085140Y-99931128D01*
X138024818Y-99772070D01*
X137928183Y-99632071D01*
X137912723Y-99618375D01*
X137800853Y-99519267D01*
X137800852Y-99519266D01*
X137650225Y-99440210D01*
X137650224Y-99440209D01*
X137650223Y-99440209D01*
X137485058Y-99399500D01*
X137485056Y-99399500D01*
X137314944Y-99399500D01*
X137314941Y-99399500D01*
X137149776Y-99440209D01*
X136999146Y-99519267D01*
X136871818Y-99632069D01*
X136871816Y-99632072D01*
X136783658Y-99759790D01*
X136775182Y-99772070D01*
X136715010Y-99930734D01*
X136714860Y-99931129D01*
X136699683Y-100056124D01*
X136694355Y-100100000D01*
X132700500Y-100100000D01*
X132700500Y-99100000D01*
X134694355Y-99100000D01*
X134714860Y-99268872D01*
X134775182Y-99427930D01*
X134838228Y-99519267D01*
X134871816Y-99567927D01*
X134871818Y-99567930D01*
X134886271Y-99580734D01*
X134999148Y-99680734D01*
X135149775Y-99759790D01*
X135314944Y-99800500D01*
X135314947Y-99800500D01*
X135485053Y-99800500D01*
X135485056Y-99800500D01*
X135650225Y-99759790D01*
X135800852Y-99680734D01*
X135928183Y-99567929D01*
X136024818Y-99427930D01*
X136085140Y-99268872D01*
X136105645Y-99100000D01*
X136085140Y-98931128D01*
X136024818Y-98772070D01*
X135928183Y-98632071D01*
X135800852Y-98519266D01*
X135650225Y-98440210D01*
X135650224Y-98440209D01*
X135650223Y-98440209D01*
X135485058Y-98399500D01*
X135485056Y-98399500D01*
X135314944Y-98399500D01*
X135314941Y-98399500D01*
X135149776Y-98440209D01*
X134999146Y-98519267D01*
X134871818Y-98632069D01*
X134871816Y-98632072D01*
X134831687Y-98690209D01*
X134775182Y-98772070D01*
X134722444Y-98911132D01*
X134714860Y-98931129D01*
X134703818Y-99022070D01*
X134694355Y-99100000D01*
X132700500Y-99100000D01*
X132700500Y-98100000D01*
X136994508Y-98100000D01*
X137014354Y-98225303D01*
X137014355Y-98225307D01*
X137069944Y-98334406D01*
X137071950Y-98338342D01*
X137161658Y-98428050D01*
X137274696Y-98485646D01*
X137400000Y-98505492D01*
X137525304Y-98485646D01*
X137638342Y-98428050D01*
X137728050Y-98338342D01*
X137785646Y-98225304D01*
X137805492Y-98100000D01*
X137785646Y-97974696D01*
X137728050Y-97861658D01*
X137638342Y-97771950D01*
X137634406Y-97769944D01*
X137525307Y-97714355D01*
X137525304Y-97714354D01*
X137400000Y-97694508D01*
X137274696Y-97714354D01*
X137274692Y-97714355D01*
X137161659Y-97771949D01*
X137071949Y-97861659D01*
X137014355Y-97974692D01*
X137014354Y-97974696D01*
X136994508Y-98099999D01*
X136994508Y-98100000D01*
X132700500Y-98100000D01*
X132700500Y-97100000D01*
X134994508Y-97100000D01*
X135014354Y-97225303D01*
X135014355Y-97225307D01*
X135069944Y-97334406D01*
X135071950Y-97338342D01*
X135161658Y-97428050D01*
X135274696Y-97485646D01*
X135400000Y-97505492D01*
X135525304Y-97485646D01*
X135638342Y-97428050D01*
X135728050Y-97338342D01*
X135785646Y-97225304D01*
X135805492Y-97100000D01*
X135785646Y-96974696D01*
X135728050Y-96861658D01*
X135638342Y-96771950D01*
X135634406Y-96769944D01*
X135525307Y-96714355D01*
X135525304Y-96714354D01*
X135400000Y-96694508D01*
X135274696Y-96714354D01*
X135274692Y-96714355D01*
X135161659Y-96771949D01*
X135071949Y-96861659D01*
X135014355Y-96974692D01*
X135014354Y-96974696D01*
X134994508Y-97099999D01*
X134994508Y-97100000D01*
X132700500Y-97100000D01*
X132700500Y-92469746D01*
X140079500Y-92469746D01*
X140079501Y-92469758D01*
X140091132Y-92528227D01*
X140091134Y-92528233D01*
X140135445Y-92594548D01*
X140135448Y-92594552D01*
X140201769Y-92638867D01*
X140246231Y-92647711D01*
X140260241Y-92650498D01*
X140260246Y-92650498D01*
X140260252Y-92650500D01*
X140260253Y-92650500D01*
X141999747Y-92650500D01*
X141999748Y-92650500D01*
X142058231Y-92638867D01*
X142124552Y-92594552D01*
X142168867Y-92528231D01*
X142180500Y-92469748D01*
X142180500Y-91600003D01*
X142614417Y-91600003D01*
X142634698Y-91805929D01*
X142634699Y-91805934D01*
X142694768Y-92003954D01*
X142792316Y-92186452D01*
X142923585Y-92346404D01*
X142923590Y-92346410D01*
X142923595Y-92346414D01*
X143083547Y-92477683D01*
X143083548Y-92477683D01*
X143083550Y-92477685D01*
X143266046Y-92575232D01*
X143403997Y-92617078D01*
X143464065Y-92635300D01*
X143464070Y-92635301D01*
X143669997Y-92655583D01*
X143670000Y-92655583D01*
X143670003Y-92655583D01*
X143875929Y-92635301D01*
X143875934Y-92635300D01*
X144073954Y-92575232D01*
X144256450Y-92477685D01*
X144416410Y-92346410D01*
X144547685Y-92186450D01*
X144645232Y-92003954D01*
X144705300Y-91805934D01*
X144705301Y-91805929D01*
X144725583Y-91600003D01*
X144725583Y-91600000D01*
X159994754Y-91600000D01*
X160013720Y-91901462D01*
X160070317Y-92198151D01*
X160070319Y-92198160D01*
X160163659Y-92485430D01*
X160163661Y-92485436D01*
X160292267Y-92758736D01*
X160292274Y-92758749D01*
X160454114Y-93013767D01*
X160646645Y-93246497D01*
X160646655Y-93246508D01*
X160866837Y-93453274D01*
X160866840Y-93453276D01*
X161111192Y-93630807D01*
X161111196Y-93630809D01*
X161111205Y-93630816D01*
X161375896Y-93776332D01*
X161656738Y-93887525D01*
X161949302Y-93962642D01*
X162149082Y-93987880D01*
X162248972Y-94000500D01*
X162248973Y-94000500D01*
X162551028Y-94000500D01*
X162600972Y-93994190D01*
X162850698Y-93962642D01*
X163143262Y-93887525D01*
X163424104Y-93776332D01*
X163688795Y-93630816D01*
X163933162Y-93453274D01*
X164153349Y-93246504D01*
X164345885Y-93013768D01*
X164507733Y-92758736D01*
X164636341Y-92485430D01*
X164729681Y-92198160D01*
X164786280Y-91901457D01*
X164805246Y-91600000D01*
X164786280Y-91298543D01*
X164729681Y-91001840D01*
X164636341Y-90714570D01*
X164616200Y-90671769D01*
X164590425Y-90616994D01*
X164507733Y-90441264D01*
X164507729Y-90441259D01*
X164507725Y-90441250D01*
X164345885Y-90186232D01*
X164153354Y-89953502D01*
X164153344Y-89953491D01*
X163933162Y-89746725D01*
X163933159Y-89746723D01*
X163688807Y-89569192D01*
X163688800Y-89569187D01*
X163688795Y-89569184D01*
X163424104Y-89423668D01*
X163424102Y-89423667D01*
X163424100Y-89423666D01*
X163143262Y-89312475D01*
X162850698Y-89237358D01*
X162850691Y-89237357D01*
X162850695Y-89237357D01*
X162551028Y-89199500D01*
X162551027Y-89199500D01*
X162248973Y-89199500D01*
X162248972Y-89199500D01*
X161949306Y-89237357D01*
X161656737Y-89312475D01*
X161375899Y-89423666D01*
X161111213Y-89569179D01*
X161111192Y-89569192D01*
X160866840Y-89746723D01*
X160866837Y-89746725D01*
X160646655Y-89953491D01*
X160646645Y-89953502D01*
X160454114Y-90186232D01*
X160292274Y-90441250D01*
X160292267Y-90441263D01*
X160163661Y-90714563D01*
X160070320Y-91001838D01*
X160070317Y-91001848D01*
X160013720Y-91298537D01*
X159994754Y-91600000D01*
X144725583Y-91600000D01*
X144725583Y-91599996D01*
X144705301Y-91394070D01*
X144705300Y-91394065D01*
X144676322Y-91298537D01*
X144645232Y-91196046D01*
X144547685Y-91013550D01*
X144538081Y-91001848D01*
X144416414Y-90853595D01*
X144416410Y-90853590D01*
X144266123Y-90730253D01*
X144256452Y-90722316D01*
X144073954Y-90624768D01*
X143875934Y-90564699D01*
X143875929Y-90564698D01*
X143670003Y-90544417D01*
X143669997Y-90544417D01*
X143464070Y-90564698D01*
X143464065Y-90564699D01*
X143266045Y-90624768D01*
X143083547Y-90722316D01*
X142923595Y-90853585D01*
X142923585Y-90853595D01*
X142792316Y-91013547D01*
X142694768Y-91196045D01*
X142634699Y-91394065D01*
X142634698Y-91394070D01*
X142614417Y-91599996D01*
X142614417Y-91600003D01*
X142180500Y-91600003D01*
X142180500Y-90730252D01*
X142178921Y-90722316D01*
X142177379Y-90714563D01*
X142168867Y-90671769D01*
X142124552Y-90605448D01*
X142124548Y-90605445D01*
X142058233Y-90561134D01*
X142058231Y-90561133D01*
X142058228Y-90561132D01*
X142058227Y-90561132D01*
X141999758Y-90549501D01*
X141999748Y-90549500D01*
X140260252Y-90549500D01*
X140260251Y-90549500D01*
X140260241Y-90549501D01*
X140201772Y-90561132D01*
X140201766Y-90561134D01*
X140135451Y-90605445D01*
X140135445Y-90605451D01*
X140091134Y-90671766D01*
X140091132Y-90671772D01*
X140079501Y-90730241D01*
X140079500Y-90730253D01*
X140079500Y-92469746D01*
X132700500Y-92469746D01*
X132700500Y-86102279D01*
X132700553Y-86100000D01*
X133494506Y-86100000D01*
X133514468Y-86468197D01*
X133574126Y-86832087D01*
X133672768Y-87187365D01*
X133672772Y-87187376D01*
X133809255Y-87529927D01*
X133809257Y-87529930D01*
X133981978Y-87855716D01*
X134188910Y-88160917D01*
X134188914Y-88160922D01*
X134188915Y-88160923D01*
X134427622Y-88441951D01*
X134427632Y-88441961D01*
X134695326Y-88695535D01*
X134695330Y-88695538D01*
X134988881Y-88918690D01*
X135304838Y-89108795D01*
X135639497Y-89263625D01*
X135988934Y-89381364D01*
X135988939Y-89381365D01*
X135988942Y-89381366D01*
X136349047Y-89460631D01*
X136349048Y-89460631D01*
X136349052Y-89460632D01*
X136715630Y-89500500D01*
X137084370Y-89500500D01*
X137450948Y-89460632D01*
X137811057Y-89381366D01*
X137811058Y-89381366D01*
X137811060Y-89381365D01*
X137811066Y-89381364D01*
X138160503Y-89263625D01*
X138495162Y-89108795D01*
X138811119Y-88918690D01*
X139104670Y-88695538D01*
X139372373Y-88441956D01*
X139611090Y-88160917D01*
X139818022Y-87855716D01*
X139990743Y-87529930D01*
X140127227Y-87187379D01*
X140225875Y-86832081D01*
X140285531Y-86468199D01*
X140305494Y-86100000D01*
X164494506Y-86100000D01*
X164514468Y-86468197D01*
X164574126Y-86832087D01*
X164672768Y-87187365D01*
X164672772Y-87187376D01*
X164809255Y-87529927D01*
X164809257Y-87529930D01*
X164981978Y-87855716D01*
X165188910Y-88160917D01*
X165188914Y-88160922D01*
X165188915Y-88160923D01*
X165427622Y-88441951D01*
X165427632Y-88441961D01*
X165695326Y-88695535D01*
X165695330Y-88695538D01*
X165988881Y-88918690D01*
X166304838Y-89108795D01*
X166639497Y-89263625D01*
X166988934Y-89381364D01*
X166988939Y-89381365D01*
X166988942Y-89381366D01*
X167349047Y-89460631D01*
X167349048Y-89460631D01*
X167349052Y-89460632D01*
X167715630Y-89500500D01*
X168084370Y-89500500D01*
X168450948Y-89460632D01*
X168811057Y-89381366D01*
X168811058Y-89381366D01*
X168811060Y-89381365D01*
X168811066Y-89381364D01*
X169160503Y-89263625D01*
X169495162Y-89108795D01*
X169811119Y-88918690D01*
X170104670Y-88695538D01*
X170372373Y-88441956D01*
X170611090Y-88160917D01*
X170818022Y-87855716D01*
X170990743Y-87529930D01*
X171127227Y-87187379D01*
X171225875Y-86832081D01*
X171285531Y-86468199D01*
X171305494Y-86100000D01*
X171285531Y-85731801D01*
X171225875Y-85367919D01*
X171213414Y-85323040D01*
X171127231Y-85012634D01*
X171127229Y-85012629D01*
X171127227Y-85012621D01*
X170990743Y-84670070D01*
X170818022Y-84344284D01*
X170611090Y-84039083D01*
X170483819Y-83889248D01*
X170372377Y-83758048D01*
X170372367Y-83758038D01*
X170104673Y-83504464D01*
X169811123Y-83281313D01*
X169811122Y-83281312D01*
X169811119Y-83281310D01*
X169495162Y-83091205D01*
X169290530Y-82996532D01*
X169160508Y-82936377D01*
X169160505Y-82936376D01*
X169160503Y-82936375D01*
X168811066Y-82818636D01*
X168811065Y-82818635D01*
X168811057Y-82818633D01*
X168450952Y-82739368D01*
X168450953Y-82739368D01*
X168084370Y-82699500D01*
X167715630Y-82699500D01*
X167349046Y-82739368D01*
X166988943Y-82818633D01*
X166988941Y-82818633D01*
X166639491Y-82936377D01*
X166304846Y-83091201D01*
X166304840Y-83091204D01*
X165988881Y-83281310D01*
X165988876Y-83281313D01*
X165695326Y-83504464D01*
X165427632Y-83758038D01*
X165427622Y-83758048D01*
X165188915Y-84039076D01*
X165188908Y-84039086D01*
X164981981Y-84344278D01*
X164809255Y-84670072D01*
X164672772Y-85012623D01*
X164672768Y-85012634D01*
X164574126Y-85367912D01*
X164514468Y-85731802D01*
X164494506Y-86100000D01*
X140305494Y-86100000D01*
X140285531Y-85731801D01*
X140225875Y-85367919D01*
X140213414Y-85323040D01*
X140127231Y-85012634D01*
X140127229Y-85012629D01*
X140127227Y-85012621D01*
X139990743Y-84670070D01*
X139818022Y-84344284D01*
X139611090Y-84039083D01*
X139483819Y-83889248D01*
X139372377Y-83758048D01*
X139372367Y-83758038D01*
X139104673Y-83504464D01*
X138811123Y-83281313D01*
X138811122Y-83281312D01*
X138811119Y-83281310D01*
X138495162Y-83091205D01*
X138290530Y-82996532D01*
X138160508Y-82936377D01*
X138160505Y-82936376D01*
X138160503Y-82936375D01*
X137811066Y-82818636D01*
X137811065Y-82818635D01*
X137811057Y-82818633D01*
X137450952Y-82739368D01*
X137450953Y-82739368D01*
X137084370Y-82699500D01*
X136715630Y-82699500D01*
X136349046Y-82739368D01*
X135988943Y-82818633D01*
X135988941Y-82818633D01*
X135639491Y-82936377D01*
X135304846Y-83091201D01*
X135304840Y-83091204D01*
X134988881Y-83281310D01*
X134988876Y-83281313D01*
X134695326Y-83504464D01*
X134427632Y-83758038D01*
X134427622Y-83758048D01*
X134188915Y-84039076D01*
X134188908Y-84039086D01*
X133981981Y-84344278D01*
X133809255Y-84670072D01*
X133672772Y-85012623D01*
X133672768Y-85012634D01*
X133574126Y-85367912D01*
X133514468Y-85731802D01*
X133494506Y-86100000D01*
X132700553Y-86100000D01*
X132700606Y-86097707D01*
X132710190Y-85890406D01*
X132718202Y-85717091D01*
X132719045Y-85707993D01*
X132771374Y-85332856D01*
X132773050Y-85323895D01*
X132859765Y-84955205D01*
X132862266Y-84946416D01*
X132954888Y-84670072D01*
X132982629Y-84587301D01*
X132985930Y-84578782D01*
X133089471Y-84344284D01*
X133138919Y-84232295D01*
X133142980Y-84224138D01*
X133327290Y-83893237D01*
X133332093Y-83885481D01*
X133546144Y-83573006D01*
X133551654Y-83565711D01*
X133602513Y-83504464D01*
X133793613Y-83274329D01*
X133799753Y-83267593D01*
X134067593Y-82999753D01*
X134074329Y-82993613D01*
X134365712Y-82751652D01*
X134373008Y-82746143D01*
X134441098Y-82699500D01*
X134685481Y-82532093D01*
X134693237Y-82527290D01*
X135024138Y-82342980D01*
X135032295Y-82338919D01*
X135378789Y-82185927D01*
X135387301Y-82182629D01*
X135746421Y-82062264D01*
X135755205Y-82059765D01*
X136123895Y-81973050D01*
X136132856Y-81971374D01*
X136508000Y-81919044D01*
X136517091Y-81918202D01*
X136897707Y-81900605D01*
X136902279Y-81900500D01*
X136947595Y-81900500D01*
X167852405Y-81900500D01*
X167897721Y-81900500D01*
X167902292Y-81900605D01*
G37*
G04 #@! TD.AperFunction*
M02*
