G04 #@! TF.GenerationSoftware,KiCad,Pcbnew,7.0.11*
G04 #@! TF.CreationDate,2024-09-10T11:03:46-04:00*
G04 #@! TF.ProjectId,prism-pcb,70726973-6d2d-4706-9362-2e6b69636164,1.3*
G04 #@! TF.SameCoordinates,Original*
G04 #@! TF.FileFunction,AssemblyDrawing,Top*
%FSLAX46Y46*%
G04 Gerber Fmt 4.6, Leading zero omitted, Abs format (unit mm)*
G04 Created by KiCad (PCBNEW 7.0.11) date 2024-09-10 11:03:46*
%MOMM*%
%LPD*%
G01*
G04 APERTURE LIST*
%ADD10C,0.065000*%
%ADD11C,0.125000*%
%ADD12C,0.120000*%
%ADD13C,0.062500*%
%ADD14C,0.100000*%
%ADD15C,0.200000*%
%ADD16C,0.127000*%
%ADD17C,0.300000*%
%ADD18C,0.025400*%
%ADD19C,0.150000*%
G04 APERTURE END LIST*
D10*
X136609048Y-91716900D02*
X136522381Y-91593091D01*
X136460476Y-91716900D02*
X136460476Y-91456900D01*
X136460476Y-91456900D02*
X136559524Y-91456900D01*
X136559524Y-91456900D02*
X136584286Y-91469281D01*
X136584286Y-91469281D02*
X136596667Y-91481662D01*
X136596667Y-91481662D02*
X136609048Y-91506424D01*
X136609048Y-91506424D02*
X136609048Y-91543567D01*
X136609048Y-91543567D02*
X136596667Y-91568329D01*
X136596667Y-91568329D02*
X136584286Y-91580710D01*
X136584286Y-91580710D02*
X136559524Y-91593091D01*
X136559524Y-91593091D02*
X136460476Y-91593091D01*
X136695714Y-91456900D02*
X136856667Y-91456900D01*
X136856667Y-91456900D02*
X136770000Y-91555948D01*
X136770000Y-91555948D02*
X136807143Y-91555948D01*
X136807143Y-91555948D02*
X136831905Y-91568329D01*
X136831905Y-91568329D02*
X136844286Y-91580710D01*
X136844286Y-91580710D02*
X136856667Y-91605472D01*
X136856667Y-91605472D02*
X136856667Y-91667377D01*
X136856667Y-91667377D02*
X136844286Y-91692139D01*
X136844286Y-91692139D02*
X136831905Y-91704520D01*
X136831905Y-91704520D02*
X136807143Y-91716900D01*
X136807143Y-91716900D02*
X136732857Y-91716900D01*
X136732857Y-91716900D02*
X136708095Y-91704520D01*
X136708095Y-91704520D02*
X136695714Y-91692139D01*
X137017619Y-91456900D02*
X137042381Y-91456900D01*
X137042381Y-91456900D02*
X137067143Y-91469281D01*
X137067143Y-91469281D02*
X137079524Y-91481662D01*
X137079524Y-91481662D02*
X137091905Y-91506424D01*
X137091905Y-91506424D02*
X137104286Y-91555948D01*
X137104286Y-91555948D02*
X137104286Y-91617853D01*
X137104286Y-91617853D02*
X137091905Y-91667377D01*
X137091905Y-91667377D02*
X137079524Y-91692139D01*
X137079524Y-91692139D02*
X137067143Y-91704520D01*
X137067143Y-91704520D02*
X137042381Y-91716900D01*
X137042381Y-91716900D02*
X137017619Y-91716900D01*
X137017619Y-91716900D02*
X136992857Y-91704520D01*
X136992857Y-91704520D02*
X136980476Y-91692139D01*
X136980476Y-91692139D02*
X136968095Y-91667377D01*
X136968095Y-91667377D02*
X136955714Y-91617853D01*
X136955714Y-91617853D02*
X136955714Y-91555948D01*
X136955714Y-91555948D02*
X136968095Y-91506424D01*
X136968095Y-91506424D02*
X136980476Y-91481662D01*
X136980476Y-91481662D02*
X136992857Y-91469281D01*
X136992857Y-91469281D02*
X137017619Y-91456900D01*
X137190952Y-91456900D02*
X137351905Y-91456900D01*
X137351905Y-91456900D02*
X137265238Y-91555948D01*
X137265238Y-91555948D02*
X137302381Y-91555948D01*
X137302381Y-91555948D02*
X137327143Y-91568329D01*
X137327143Y-91568329D02*
X137339524Y-91580710D01*
X137339524Y-91580710D02*
X137351905Y-91605472D01*
X137351905Y-91605472D02*
X137351905Y-91667377D01*
X137351905Y-91667377D02*
X137339524Y-91692139D01*
X137339524Y-91692139D02*
X137327143Y-91704520D01*
X137327143Y-91704520D02*
X137302381Y-91716900D01*
X137302381Y-91716900D02*
X137228095Y-91716900D01*
X137228095Y-91716900D02*
X137203333Y-91704520D01*
X137203333Y-91704520D02*
X137190952Y-91692139D01*
D11*
X140517950Y-82562904D02*
X140351283Y-82562904D01*
X140351283Y-82824809D02*
X140351283Y-82324809D01*
X140351283Y-82324809D02*
X140589378Y-82324809D01*
X140779854Y-82824809D02*
X140779854Y-82324809D01*
X141017949Y-82824809D02*
X141017949Y-82324809D01*
X141017949Y-82324809D02*
X141136997Y-82324809D01*
X141136997Y-82324809D02*
X141208425Y-82348619D01*
X141208425Y-82348619D02*
X141256044Y-82396238D01*
X141256044Y-82396238D02*
X141279854Y-82443857D01*
X141279854Y-82443857D02*
X141303663Y-82539095D01*
X141303663Y-82539095D02*
X141303663Y-82610523D01*
X141303663Y-82610523D02*
X141279854Y-82705761D01*
X141279854Y-82705761D02*
X141256044Y-82753380D01*
X141256044Y-82753380D02*
X141208425Y-82801000D01*
X141208425Y-82801000D02*
X141136997Y-82824809D01*
X141136997Y-82824809D02*
X141017949Y-82824809D01*
X141494140Y-82372428D02*
X141517949Y-82348619D01*
X141517949Y-82348619D02*
X141565568Y-82324809D01*
X141565568Y-82324809D02*
X141684616Y-82324809D01*
X141684616Y-82324809D02*
X141732235Y-82348619D01*
X141732235Y-82348619D02*
X141756044Y-82372428D01*
X141756044Y-82372428D02*
X141779854Y-82420047D01*
X141779854Y-82420047D02*
X141779854Y-82467666D01*
X141779854Y-82467666D02*
X141756044Y-82539095D01*
X141756044Y-82539095D02*
X141470330Y-82824809D01*
X141470330Y-82824809D02*
X141779854Y-82824809D01*
X142089377Y-82324809D02*
X142136996Y-82324809D01*
X142136996Y-82324809D02*
X142184615Y-82348619D01*
X142184615Y-82348619D02*
X142208425Y-82372428D01*
X142208425Y-82372428D02*
X142232234Y-82420047D01*
X142232234Y-82420047D02*
X142256044Y-82515285D01*
X142256044Y-82515285D02*
X142256044Y-82634333D01*
X142256044Y-82634333D02*
X142232234Y-82729571D01*
X142232234Y-82729571D02*
X142208425Y-82777190D01*
X142208425Y-82777190D02*
X142184615Y-82801000D01*
X142184615Y-82801000D02*
X142136996Y-82824809D01*
X142136996Y-82824809D02*
X142089377Y-82824809D01*
X142089377Y-82824809D02*
X142041758Y-82801000D01*
X142041758Y-82801000D02*
X142017949Y-82777190D01*
X142017949Y-82777190D02*
X141994139Y-82729571D01*
X141994139Y-82729571D02*
X141970330Y-82634333D01*
X141970330Y-82634333D02*
X141970330Y-82515285D01*
X141970330Y-82515285D02*
X141994139Y-82420047D01*
X141994139Y-82420047D02*
X142017949Y-82372428D01*
X142017949Y-82372428D02*
X142041758Y-82348619D01*
X142041758Y-82348619D02*
X142089377Y-82324809D01*
X142732234Y-82824809D02*
X142446520Y-82824809D01*
X142589377Y-82824809D02*
X142589377Y-82324809D01*
X142589377Y-82324809D02*
X142541758Y-82396238D01*
X142541758Y-82396238D02*
X142494139Y-82443857D01*
X142494139Y-82443857D02*
X142446520Y-82467666D01*
X149840476Y-109324809D02*
X149673810Y-109086714D01*
X149554762Y-109324809D02*
X149554762Y-108824809D01*
X149554762Y-108824809D02*
X149745238Y-108824809D01*
X149745238Y-108824809D02*
X149792857Y-108848619D01*
X149792857Y-108848619D02*
X149816667Y-108872428D01*
X149816667Y-108872428D02*
X149840476Y-108920047D01*
X149840476Y-108920047D02*
X149840476Y-108991476D01*
X149840476Y-108991476D02*
X149816667Y-109039095D01*
X149816667Y-109039095D02*
X149792857Y-109062904D01*
X149792857Y-109062904D02*
X149745238Y-109086714D01*
X149745238Y-109086714D02*
X149554762Y-109086714D01*
X150269048Y-108991476D02*
X150269048Y-109324809D01*
X150150000Y-108801000D02*
X150030953Y-109158142D01*
X150030953Y-109158142D02*
X150340476Y-109158142D01*
X150626190Y-108824809D02*
X150673809Y-108824809D01*
X150673809Y-108824809D02*
X150721428Y-108848619D01*
X150721428Y-108848619D02*
X150745238Y-108872428D01*
X150745238Y-108872428D02*
X150769047Y-108920047D01*
X150769047Y-108920047D02*
X150792857Y-109015285D01*
X150792857Y-109015285D02*
X150792857Y-109134333D01*
X150792857Y-109134333D02*
X150769047Y-109229571D01*
X150769047Y-109229571D02*
X150745238Y-109277190D01*
X150745238Y-109277190D02*
X150721428Y-109301000D01*
X150721428Y-109301000D02*
X150673809Y-109324809D01*
X150673809Y-109324809D02*
X150626190Y-109324809D01*
X150626190Y-109324809D02*
X150578571Y-109301000D01*
X150578571Y-109301000D02*
X150554762Y-109277190D01*
X150554762Y-109277190D02*
X150530952Y-109229571D01*
X150530952Y-109229571D02*
X150507143Y-109134333D01*
X150507143Y-109134333D02*
X150507143Y-109015285D01*
X150507143Y-109015285D02*
X150530952Y-108920047D01*
X150530952Y-108920047D02*
X150554762Y-108872428D01*
X150554762Y-108872428D02*
X150578571Y-108848619D01*
X150578571Y-108848619D02*
X150626190Y-108824809D01*
X150959523Y-108824809D02*
X151269047Y-108824809D01*
X151269047Y-108824809D02*
X151102380Y-109015285D01*
X151102380Y-109015285D02*
X151173809Y-109015285D01*
X151173809Y-109015285D02*
X151221428Y-109039095D01*
X151221428Y-109039095D02*
X151245237Y-109062904D01*
X151245237Y-109062904D02*
X151269047Y-109110523D01*
X151269047Y-109110523D02*
X151269047Y-109229571D01*
X151269047Y-109229571D02*
X151245237Y-109277190D01*
X151245237Y-109277190D02*
X151221428Y-109301000D01*
X151221428Y-109301000D02*
X151173809Y-109324809D01*
X151173809Y-109324809D02*
X151030952Y-109324809D01*
X151030952Y-109324809D02*
X150983333Y-109301000D01*
X150983333Y-109301000D02*
X150959523Y-109277190D01*
D12*
X145090476Y-115777450D02*
X145066667Y-115801260D01*
X145066667Y-115801260D02*
X144995238Y-115825069D01*
X144995238Y-115825069D02*
X144947619Y-115825069D01*
X144947619Y-115825069D02*
X144876191Y-115801260D01*
X144876191Y-115801260D02*
X144828572Y-115753640D01*
X144828572Y-115753640D02*
X144804762Y-115706021D01*
X144804762Y-115706021D02*
X144780953Y-115610783D01*
X144780953Y-115610783D02*
X144780953Y-115539355D01*
X144780953Y-115539355D02*
X144804762Y-115444117D01*
X144804762Y-115444117D02*
X144828572Y-115396498D01*
X144828572Y-115396498D02*
X144876191Y-115348879D01*
X144876191Y-115348879D02*
X144947619Y-115325069D01*
X144947619Y-115325069D02*
X144995238Y-115325069D01*
X144995238Y-115325069D02*
X145066667Y-115348879D01*
X145066667Y-115348879D02*
X145090476Y-115372688D01*
X145257143Y-115325069D02*
X145566667Y-115325069D01*
X145566667Y-115325069D02*
X145400000Y-115515545D01*
X145400000Y-115515545D02*
X145471429Y-115515545D01*
X145471429Y-115515545D02*
X145519048Y-115539355D01*
X145519048Y-115539355D02*
X145542857Y-115563164D01*
X145542857Y-115563164D02*
X145566667Y-115610783D01*
X145566667Y-115610783D02*
X145566667Y-115729831D01*
X145566667Y-115729831D02*
X145542857Y-115777450D01*
X145542857Y-115777450D02*
X145519048Y-115801260D01*
X145519048Y-115801260D02*
X145471429Y-115825069D01*
X145471429Y-115825069D02*
X145328572Y-115825069D01*
X145328572Y-115825069D02*
X145280953Y-115801260D01*
X145280953Y-115801260D02*
X145257143Y-115777450D01*
X145876190Y-115325069D02*
X145923809Y-115325069D01*
X145923809Y-115325069D02*
X145971428Y-115348879D01*
X145971428Y-115348879D02*
X145995238Y-115372688D01*
X145995238Y-115372688D02*
X146019047Y-115420307D01*
X146019047Y-115420307D02*
X146042857Y-115515545D01*
X146042857Y-115515545D02*
X146042857Y-115634593D01*
X146042857Y-115634593D02*
X146019047Y-115729831D01*
X146019047Y-115729831D02*
X145995238Y-115777450D01*
X145995238Y-115777450D02*
X145971428Y-115801260D01*
X145971428Y-115801260D02*
X145923809Y-115825069D01*
X145923809Y-115825069D02*
X145876190Y-115825069D01*
X145876190Y-115825069D02*
X145828571Y-115801260D01*
X145828571Y-115801260D02*
X145804762Y-115777450D01*
X145804762Y-115777450D02*
X145780952Y-115729831D01*
X145780952Y-115729831D02*
X145757143Y-115634593D01*
X145757143Y-115634593D02*
X145757143Y-115515545D01*
X145757143Y-115515545D02*
X145780952Y-115420307D01*
X145780952Y-115420307D02*
X145804762Y-115372688D01*
X145804762Y-115372688D02*
X145828571Y-115348879D01*
X145828571Y-115348879D02*
X145876190Y-115325069D01*
X146519047Y-115825069D02*
X146233333Y-115825069D01*
X146376190Y-115825069D02*
X146376190Y-115325069D01*
X146376190Y-115325069D02*
X146328571Y-115396498D01*
X146328571Y-115396498D02*
X146280952Y-115444117D01*
X146280952Y-115444117D02*
X146233333Y-115467926D01*
D13*
X154120238Y-94688595D02*
X154108334Y-94700500D01*
X154108334Y-94700500D02*
X154072619Y-94712404D01*
X154072619Y-94712404D02*
X154048810Y-94712404D01*
X154048810Y-94712404D02*
X154013096Y-94700500D01*
X154013096Y-94700500D02*
X153989286Y-94676690D01*
X153989286Y-94676690D02*
X153977381Y-94652880D01*
X153977381Y-94652880D02*
X153965477Y-94605261D01*
X153965477Y-94605261D02*
X153965477Y-94569547D01*
X153965477Y-94569547D02*
X153977381Y-94521928D01*
X153977381Y-94521928D02*
X153989286Y-94498119D01*
X153989286Y-94498119D02*
X154013096Y-94474309D01*
X154013096Y-94474309D02*
X154048810Y-94462404D01*
X154048810Y-94462404D02*
X154072619Y-94462404D01*
X154072619Y-94462404D02*
X154108334Y-94474309D01*
X154108334Y-94474309D02*
X154120238Y-94486214D01*
X154334524Y-94545738D02*
X154334524Y-94712404D01*
X154275000Y-94450500D02*
X154215477Y-94629071D01*
X154215477Y-94629071D02*
X154370238Y-94629071D01*
X154513095Y-94462404D02*
X154536905Y-94462404D01*
X154536905Y-94462404D02*
X154560714Y-94474309D01*
X154560714Y-94474309D02*
X154572619Y-94486214D01*
X154572619Y-94486214D02*
X154584524Y-94510023D01*
X154584524Y-94510023D02*
X154596429Y-94557642D01*
X154596429Y-94557642D02*
X154596429Y-94617166D01*
X154596429Y-94617166D02*
X154584524Y-94664785D01*
X154584524Y-94664785D02*
X154572619Y-94688595D01*
X154572619Y-94688595D02*
X154560714Y-94700500D01*
X154560714Y-94700500D02*
X154536905Y-94712404D01*
X154536905Y-94712404D02*
X154513095Y-94712404D01*
X154513095Y-94712404D02*
X154489286Y-94700500D01*
X154489286Y-94700500D02*
X154477381Y-94688595D01*
X154477381Y-94688595D02*
X154465476Y-94664785D01*
X154465476Y-94664785D02*
X154453572Y-94617166D01*
X154453572Y-94617166D02*
X154453572Y-94557642D01*
X154453572Y-94557642D02*
X154465476Y-94510023D01*
X154465476Y-94510023D02*
X154477381Y-94486214D01*
X154477381Y-94486214D02*
X154489286Y-94474309D01*
X154489286Y-94474309D02*
X154513095Y-94462404D01*
X154679762Y-94462404D02*
X154846428Y-94462404D01*
X154846428Y-94462404D02*
X154739286Y-94712404D01*
D11*
X158840476Y-100777190D02*
X158816667Y-100801000D01*
X158816667Y-100801000D02*
X158745238Y-100824809D01*
X158745238Y-100824809D02*
X158697619Y-100824809D01*
X158697619Y-100824809D02*
X158626191Y-100801000D01*
X158626191Y-100801000D02*
X158578572Y-100753380D01*
X158578572Y-100753380D02*
X158554762Y-100705761D01*
X158554762Y-100705761D02*
X158530953Y-100610523D01*
X158530953Y-100610523D02*
X158530953Y-100539095D01*
X158530953Y-100539095D02*
X158554762Y-100443857D01*
X158554762Y-100443857D02*
X158578572Y-100396238D01*
X158578572Y-100396238D02*
X158626191Y-100348619D01*
X158626191Y-100348619D02*
X158697619Y-100324809D01*
X158697619Y-100324809D02*
X158745238Y-100324809D01*
X158745238Y-100324809D02*
X158816667Y-100348619D01*
X158816667Y-100348619D02*
X158840476Y-100372428D01*
X159269048Y-100491476D02*
X159269048Y-100824809D01*
X159150000Y-100301000D02*
X159030953Y-100658142D01*
X159030953Y-100658142D02*
X159340476Y-100658142D01*
X159626190Y-100324809D02*
X159673809Y-100324809D01*
X159673809Y-100324809D02*
X159721428Y-100348619D01*
X159721428Y-100348619D02*
X159745238Y-100372428D01*
X159745238Y-100372428D02*
X159769047Y-100420047D01*
X159769047Y-100420047D02*
X159792857Y-100515285D01*
X159792857Y-100515285D02*
X159792857Y-100634333D01*
X159792857Y-100634333D02*
X159769047Y-100729571D01*
X159769047Y-100729571D02*
X159745238Y-100777190D01*
X159745238Y-100777190D02*
X159721428Y-100801000D01*
X159721428Y-100801000D02*
X159673809Y-100824809D01*
X159673809Y-100824809D02*
X159626190Y-100824809D01*
X159626190Y-100824809D02*
X159578571Y-100801000D01*
X159578571Y-100801000D02*
X159554762Y-100777190D01*
X159554762Y-100777190D02*
X159530952Y-100729571D01*
X159530952Y-100729571D02*
X159507143Y-100634333D01*
X159507143Y-100634333D02*
X159507143Y-100515285D01*
X159507143Y-100515285D02*
X159530952Y-100420047D01*
X159530952Y-100420047D02*
X159554762Y-100372428D01*
X159554762Y-100372428D02*
X159578571Y-100348619D01*
X159578571Y-100348619D02*
X159626190Y-100324809D01*
X160221428Y-100324809D02*
X160126190Y-100324809D01*
X160126190Y-100324809D02*
X160078571Y-100348619D01*
X160078571Y-100348619D02*
X160054761Y-100372428D01*
X160054761Y-100372428D02*
X160007142Y-100443857D01*
X160007142Y-100443857D02*
X159983333Y-100539095D01*
X159983333Y-100539095D02*
X159983333Y-100729571D01*
X159983333Y-100729571D02*
X160007142Y-100777190D01*
X160007142Y-100777190D02*
X160030952Y-100801000D01*
X160030952Y-100801000D02*
X160078571Y-100824809D01*
X160078571Y-100824809D02*
X160173809Y-100824809D01*
X160173809Y-100824809D02*
X160221428Y-100801000D01*
X160221428Y-100801000D02*
X160245237Y-100777190D01*
X160245237Y-100777190D02*
X160269047Y-100729571D01*
X160269047Y-100729571D02*
X160269047Y-100610523D01*
X160269047Y-100610523D02*
X160245237Y-100562904D01*
X160245237Y-100562904D02*
X160221428Y-100539095D01*
X160221428Y-100539095D02*
X160173809Y-100515285D01*
X160173809Y-100515285D02*
X160078571Y-100515285D01*
X160078571Y-100515285D02*
X160030952Y-100539095D01*
X160030952Y-100539095D02*
X160007142Y-100562904D01*
X160007142Y-100562904D02*
X159983333Y-100610523D01*
X167042857Y-117324809D02*
X167042857Y-116824809D01*
X167042857Y-117062904D02*
X167328571Y-117062904D01*
X167328571Y-117324809D02*
X167328571Y-116824809D01*
X167542858Y-116872428D02*
X167566667Y-116848619D01*
X167566667Y-116848619D02*
X167614286Y-116824809D01*
X167614286Y-116824809D02*
X167733334Y-116824809D01*
X167733334Y-116824809D02*
X167780953Y-116848619D01*
X167780953Y-116848619D02*
X167804762Y-116872428D01*
X167804762Y-116872428D02*
X167828572Y-116920047D01*
X167828572Y-116920047D02*
X167828572Y-116967666D01*
X167828572Y-116967666D02*
X167804762Y-117039095D01*
X167804762Y-117039095D02*
X167519048Y-117324809D01*
X167519048Y-117324809D02*
X167828572Y-117324809D01*
X168138095Y-116824809D02*
X168185714Y-116824809D01*
X168185714Y-116824809D02*
X168233333Y-116848619D01*
X168233333Y-116848619D02*
X168257143Y-116872428D01*
X168257143Y-116872428D02*
X168280952Y-116920047D01*
X168280952Y-116920047D02*
X168304762Y-117015285D01*
X168304762Y-117015285D02*
X168304762Y-117134333D01*
X168304762Y-117134333D02*
X168280952Y-117229571D01*
X168280952Y-117229571D02*
X168257143Y-117277190D01*
X168257143Y-117277190D02*
X168233333Y-117301000D01*
X168233333Y-117301000D02*
X168185714Y-117324809D01*
X168185714Y-117324809D02*
X168138095Y-117324809D01*
X168138095Y-117324809D02*
X168090476Y-117301000D01*
X168090476Y-117301000D02*
X168066667Y-117277190D01*
X168066667Y-117277190D02*
X168042857Y-117229571D01*
X168042857Y-117229571D02*
X168019048Y-117134333D01*
X168019048Y-117134333D02*
X168019048Y-117015285D01*
X168019048Y-117015285D02*
X168042857Y-116920047D01*
X168042857Y-116920047D02*
X168066667Y-116872428D01*
X168066667Y-116872428D02*
X168090476Y-116848619D01*
X168090476Y-116848619D02*
X168138095Y-116824809D01*
X168471428Y-116824809D02*
X168780952Y-116824809D01*
X168780952Y-116824809D02*
X168614285Y-117015285D01*
X168614285Y-117015285D02*
X168685714Y-117015285D01*
X168685714Y-117015285D02*
X168733333Y-117039095D01*
X168733333Y-117039095D02*
X168757142Y-117062904D01*
X168757142Y-117062904D02*
X168780952Y-117110523D01*
X168780952Y-117110523D02*
X168780952Y-117229571D01*
X168780952Y-117229571D02*
X168757142Y-117277190D01*
X168757142Y-117277190D02*
X168733333Y-117301000D01*
X168733333Y-117301000D02*
X168685714Y-117324809D01*
X168685714Y-117324809D02*
X168542857Y-117324809D01*
X168542857Y-117324809D02*
X168495238Y-117301000D01*
X168495238Y-117301000D02*
X168471428Y-117277190D01*
D13*
X158620238Y-102688595D02*
X158608334Y-102700500D01*
X158608334Y-102700500D02*
X158572619Y-102712404D01*
X158572619Y-102712404D02*
X158548810Y-102712404D01*
X158548810Y-102712404D02*
X158513096Y-102700500D01*
X158513096Y-102700500D02*
X158489286Y-102676690D01*
X158489286Y-102676690D02*
X158477381Y-102652880D01*
X158477381Y-102652880D02*
X158465477Y-102605261D01*
X158465477Y-102605261D02*
X158465477Y-102569547D01*
X158465477Y-102569547D02*
X158477381Y-102521928D01*
X158477381Y-102521928D02*
X158489286Y-102498119D01*
X158489286Y-102498119D02*
X158513096Y-102474309D01*
X158513096Y-102474309D02*
X158548810Y-102462404D01*
X158548810Y-102462404D02*
X158572619Y-102462404D01*
X158572619Y-102462404D02*
X158608334Y-102474309D01*
X158608334Y-102474309D02*
X158620238Y-102486214D01*
X158834524Y-102545738D02*
X158834524Y-102712404D01*
X158775000Y-102450500D02*
X158715477Y-102629071D01*
X158715477Y-102629071D02*
X158870238Y-102629071D01*
X159013095Y-102462404D02*
X159036905Y-102462404D01*
X159036905Y-102462404D02*
X159060714Y-102474309D01*
X159060714Y-102474309D02*
X159072619Y-102486214D01*
X159072619Y-102486214D02*
X159084524Y-102510023D01*
X159084524Y-102510023D02*
X159096429Y-102557642D01*
X159096429Y-102557642D02*
X159096429Y-102617166D01*
X159096429Y-102617166D02*
X159084524Y-102664785D01*
X159084524Y-102664785D02*
X159072619Y-102688595D01*
X159072619Y-102688595D02*
X159060714Y-102700500D01*
X159060714Y-102700500D02*
X159036905Y-102712404D01*
X159036905Y-102712404D02*
X159013095Y-102712404D01*
X159013095Y-102712404D02*
X158989286Y-102700500D01*
X158989286Y-102700500D02*
X158977381Y-102688595D01*
X158977381Y-102688595D02*
X158965476Y-102664785D01*
X158965476Y-102664785D02*
X158953572Y-102617166D01*
X158953572Y-102617166D02*
X158953572Y-102557642D01*
X158953572Y-102557642D02*
X158965476Y-102510023D01*
X158965476Y-102510023D02*
X158977381Y-102486214D01*
X158977381Y-102486214D02*
X158989286Y-102474309D01*
X158989286Y-102474309D02*
X159013095Y-102462404D01*
X159310714Y-102545738D02*
X159310714Y-102712404D01*
X159251190Y-102450500D02*
X159191667Y-102629071D01*
X159191667Y-102629071D02*
X159346428Y-102629071D01*
D12*
X168125069Y-102242856D02*
X168482212Y-102242856D01*
X168482212Y-102242856D02*
X168553640Y-102266665D01*
X168553640Y-102266665D02*
X168601260Y-102314284D01*
X168601260Y-102314284D02*
X168625069Y-102385713D01*
X168625069Y-102385713D02*
X168625069Y-102433332D01*
X168291736Y-101790475D02*
X168625069Y-101790475D01*
X168101260Y-101909523D02*
X168458402Y-102028570D01*
X168458402Y-102028570D02*
X168458402Y-101719047D01*
X168125069Y-101433333D02*
X168125069Y-101385714D01*
X168125069Y-101385714D02*
X168148879Y-101338095D01*
X168148879Y-101338095D02*
X168172688Y-101314285D01*
X168172688Y-101314285D02*
X168220307Y-101290476D01*
X168220307Y-101290476D02*
X168315545Y-101266666D01*
X168315545Y-101266666D02*
X168434593Y-101266666D01*
X168434593Y-101266666D02*
X168529831Y-101290476D01*
X168529831Y-101290476D02*
X168577450Y-101314285D01*
X168577450Y-101314285D02*
X168601260Y-101338095D01*
X168601260Y-101338095D02*
X168625069Y-101385714D01*
X168625069Y-101385714D02*
X168625069Y-101433333D01*
X168625069Y-101433333D02*
X168601260Y-101480952D01*
X168601260Y-101480952D02*
X168577450Y-101504761D01*
X168577450Y-101504761D02*
X168529831Y-101528571D01*
X168529831Y-101528571D02*
X168434593Y-101552380D01*
X168434593Y-101552380D02*
X168315545Y-101552380D01*
X168315545Y-101552380D02*
X168220307Y-101528571D01*
X168220307Y-101528571D02*
X168172688Y-101504761D01*
X168172688Y-101504761D02*
X168148879Y-101480952D01*
X168148879Y-101480952D02*
X168125069Y-101433333D01*
X168625069Y-100790476D02*
X168625069Y-101076190D01*
X168625069Y-100933333D02*
X168125069Y-100933333D01*
X168125069Y-100933333D02*
X168196498Y-100980952D01*
X168196498Y-100980952D02*
X168244117Y-101028571D01*
X168244117Y-101028571D02*
X168267926Y-101076190D01*
D11*
X153840476Y-110277190D02*
X153816667Y-110301000D01*
X153816667Y-110301000D02*
X153745238Y-110324809D01*
X153745238Y-110324809D02*
X153697619Y-110324809D01*
X153697619Y-110324809D02*
X153626191Y-110301000D01*
X153626191Y-110301000D02*
X153578572Y-110253380D01*
X153578572Y-110253380D02*
X153554762Y-110205761D01*
X153554762Y-110205761D02*
X153530953Y-110110523D01*
X153530953Y-110110523D02*
X153530953Y-110039095D01*
X153530953Y-110039095D02*
X153554762Y-109943857D01*
X153554762Y-109943857D02*
X153578572Y-109896238D01*
X153578572Y-109896238D02*
X153626191Y-109848619D01*
X153626191Y-109848619D02*
X153697619Y-109824809D01*
X153697619Y-109824809D02*
X153745238Y-109824809D01*
X153745238Y-109824809D02*
X153816667Y-109848619D01*
X153816667Y-109848619D02*
X153840476Y-109872428D01*
X154269048Y-109991476D02*
X154269048Y-110324809D01*
X154150000Y-109801000D02*
X154030953Y-110158142D01*
X154030953Y-110158142D02*
X154340476Y-110158142D01*
X154792857Y-110324809D02*
X154507143Y-110324809D01*
X154650000Y-110324809D02*
X154650000Y-109824809D01*
X154650000Y-109824809D02*
X154602381Y-109896238D01*
X154602381Y-109896238D02*
X154554762Y-109943857D01*
X154554762Y-109943857D02*
X154507143Y-109967666D01*
X155269047Y-110324809D02*
X154983333Y-110324809D01*
X155126190Y-110324809D02*
X155126190Y-109824809D01*
X155126190Y-109824809D02*
X155078571Y-109896238D01*
X155078571Y-109896238D02*
X155030952Y-109943857D01*
X155030952Y-109943857D02*
X154983333Y-109967666D01*
D13*
X154120238Y-95688595D02*
X154108334Y-95700500D01*
X154108334Y-95700500D02*
X154072619Y-95712404D01*
X154072619Y-95712404D02*
X154048810Y-95712404D01*
X154048810Y-95712404D02*
X154013096Y-95700500D01*
X154013096Y-95700500D02*
X153989286Y-95676690D01*
X153989286Y-95676690D02*
X153977381Y-95652880D01*
X153977381Y-95652880D02*
X153965477Y-95605261D01*
X153965477Y-95605261D02*
X153965477Y-95569547D01*
X153965477Y-95569547D02*
X153977381Y-95521928D01*
X153977381Y-95521928D02*
X153989286Y-95498119D01*
X153989286Y-95498119D02*
X154013096Y-95474309D01*
X154013096Y-95474309D02*
X154048810Y-95462404D01*
X154048810Y-95462404D02*
X154072619Y-95462404D01*
X154072619Y-95462404D02*
X154108334Y-95474309D01*
X154108334Y-95474309D02*
X154120238Y-95486214D01*
X154334524Y-95545738D02*
X154334524Y-95712404D01*
X154275000Y-95450500D02*
X154215477Y-95629071D01*
X154215477Y-95629071D02*
X154370238Y-95629071D01*
X154513095Y-95462404D02*
X154536905Y-95462404D01*
X154536905Y-95462404D02*
X154560714Y-95474309D01*
X154560714Y-95474309D02*
X154572619Y-95486214D01*
X154572619Y-95486214D02*
X154584524Y-95510023D01*
X154584524Y-95510023D02*
X154596429Y-95557642D01*
X154596429Y-95557642D02*
X154596429Y-95617166D01*
X154596429Y-95617166D02*
X154584524Y-95664785D01*
X154584524Y-95664785D02*
X154572619Y-95688595D01*
X154572619Y-95688595D02*
X154560714Y-95700500D01*
X154560714Y-95700500D02*
X154536905Y-95712404D01*
X154536905Y-95712404D02*
X154513095Y-95712404D01*
X154513095Y-95712404D02*
X154489286Y-95700500D01*
X154489286Y-95700500D02*
X154477381Y-95688595D01*
X154477381Y-95688595D02*
X154465476Y-95664785D01*
X154465476Y-95664785D02*
X154453572Y-95617166D01*
X154453572Y-95617166D02*
X154453572Y-95557642D01*
X154453572Y-95557642D02*
X154465476Y-95510023D01*
X154465476Y-95510023D02*
X154477381Y-95486214D01*
X154477381Y-95486214D02*
X154489286Y-95474309D01*
X154489286Y-95474309D02*
X154513095Y-95462404D01*
X154679762Y-95462404D02*
X154834524Y-95462404D01*
X154834524Y-95462404D02*
X154751190Y-95557642D01*
X154751190Y-95557642D02*
X154786905Y-95557642D01*
X154786905Y-95557642D02*
X154810714Y-95569547D01*
X154810714Y-95569547D02*
X154822619Y-95581452D01*
X154822619Y-95581452D02*
X154834524Y-95605261D01*
X154834524Y-95605261D02*
X154834524Y-95664785D01*
X154834524Y-95664785D02*
X154822619Y-95688595D01*
X154822619Y-95688595D02*
X154810714Y-95700500D01*
X154810714Y-95700500D02*
X154786905Y-95712404D01*
X154786905Y-95712404D02*
X154715476Y-95712404D01*
X154715476Y-95712404D02*
X154691667Y-95700500D01*
X154691667Y-95700500D02*
X154679762Y-95688595D01*
D11*
X134054762Y-112574809D02*
X134054762Y-112074809D01*
X134054762Y-112074809D02*
X134173810Y-112074809D01*
X134173810Y-112074809D02*
X134245238Y-112098619D01*
X134245238Y-112098619D02*
X134292857Y-112146238D01*
X134292857Y-112146238D02*
X134316667Y-112193857D01*
X134316667Y-112193857D02*
X134340476Y-112289095D01*
X134340476Y-112289095D02*
X134340476Y-112360523D01*
X134340476Y-112360523D02*
X134316667Y-112455761D01*
X134316667Y-112455761D02*
X134292857Y-112503380D01*
X134292857Y-112503380D02*
X134245238Y-112551000D01*
X134245238Y-112551000D02*
X134173810Y-112574809D01*
X134173810Y-112574809D02*
X134054762Y-112574809D01*
X134507143Y-112074809D02*
X134816667Y-112074809D01*
X134816667Y-112074809D02*
X134650000Y-112265285D01*
X134650000Y-112265285D02*
X134721429Y-112265285D01*
X134721429Y-112265285D02*
X134769048Y-112289095D01*
X134769048Y-112289095D02*
X134792857Y-112312904D01*
X134792857Y-112312904D02*
X134816667Y-112360523D01*
X134816667Y-112360523D02*
X134816667Y-112479571D01*
X134816667Y-112479571D02*
X134792857Y-112527190D01*
X134792857Y-112527190D02*
X134769048Y-112551000D01*
X134769048Y-112551000D02*
X134721429Y-112574809D01*
X134721429Y-112574809D02*
X134578572Y-112574809D01*
X134578572Y-112574809D02*
X134530953Y-112551000D01*
X134530953Y-112551000D02*
X134507143Y-112527190D01*
X135126190Y-112074809D02*
X135173809Y-112074809D01*
X135173809Y-112074809D02*
X135221428Y-112098619D01*
X135221428Y-112098619D02*
X135245238Y-112122428D01*
X135245238Y-112122428D02*
X135269047Y-112170047D01*
X135269047Y-112170047D02*
X135292857Y-112265285D01*
X135292857Y-112265285D02*
X135292857Y-112384333D01*
X135292857Y-112384333D02*
X135269047Y-112479571D01*
X135269047Y-112479571D02*
X135245238Y-112527190D01*
X135245238Y-112527190D02*
X135221428Y-112551000D01*
X135221428Y-112551000D02*
X135173809Y-112574809D01*
X135173809Y-112574809D02*
X135126190Y-112574809D01*
X135126190Y-112574809D02*
X135078571Y-112551000D01*
X135078571Y-112551000D02*
X135054762Y-112527190D01*
X135054762Y-112527190D02*
X135030952Y-112479571D01*
X135030952Y-112479571D02*
X135007143Y-112384333D01*
X135007143Y-112384333D02*
X135007143Y-112265285D01*
X135007143Y-112265285D02*
X135030952Y-112170047D01*
X135030952Y-112170047D02*
X135054762Y-112122428D01*
X135054762Y-112122428D02*
X135078571Y-112098619D01*
X135078571Y-112098619D02*
X135126190Y-112074809D01*
X135769047Y-112574809D02*
X135483333Y-112574809D01*
X135626190Y-112574809D02*
X135626190Y-112074809D01*
X135626190Y-112074809D02*
X135578571Y-112146238D01*
X135578571Y-112146238D02*
X135530952Y-112193857D01*
X135530952Y-112193857D02*
X135483333Y-112217666D01*
X136874809Y-102242856D02*
X137231952Y-102242856D01*
X137231952Y-102242856D02*
X137303380Y-102266665D01*
X137303380Y-102266665D02*
X137351000Y-102314284D01*
X137351000Y-102314284D02*
X137374809Y-102385713D01*
X137374809Y-102385713D02*
X137374809Y-102433332D01*
X136874809Y-102052380D02*
X136874809Y-101742856D01*
X136874809Y-101742856D02*
X137065285Y-101909523D01*
X137065285Y-101909523D02*
X137065285Y-101838094D01*
X137065285Y-101838094D02*
X137089095Y-101790475D01*
X137089095Y-101790475D02*
X137112904Y-101766666D01*
X137112904Y-101766666D02*
X137160523Y-101742856D01*
X137160523Y-101742856D02*
X137279571Y-101742856D01*
X137279571Y-101742856D02*
X137327190Y-101766666D01*
X137327190Y-101766666D02*
X137351000Y-101790475D01*
X137351000Y-101790475D02*
X137374809Y-101838094D01*
X137374809Y-101838094D02*
X137374809Y-101980951D01*
X137374809Y-101980951D02*
X137351000Y-102028570D01*
X137351000Y-102028570D02*
X137327190Y-102052380D01*
X136874809Y-101433333D02*
X136874809Y-101385714D01*
X136874809Y-101385714D02*
X136898619Y-101338095D01*
X136898619Y-101338095D02*
X136922428Y-101314285D01*
X136922428Y-101314285D02*
X136970047Y-101290476D01*
X136970047Y-101290476D02*
X137065285Y-101266666D01*
X137065285Y-101266666D02*
X137184333Y-101266666D01*
X137184333Y-101266666D02*
X137279571Y-101290476D01*
X137279571Y-101290476D02*
X137327190Y-101314285D01*
X137327190Y-101314285D02*
X137351000Y-101338095D01*
X137351000Y-101338095D02*
X137374809Y-101385714D01*
X137374809Y-101385714D02*
X137374809Y-101433333D01*
X137374809Y-101433333D02*
X137351000Y-101480952D01*
X137351000Y-101480952D02*
X137327190Y-101504761D01*
X137327190Y-101504761D02*
X137279571Y-101528571D01*
X137279571Y-101528571D02*
X137184333Y-101552380D01*
X137184333Y-101552380D02*
X137065285Y-101552380D01*
X137065285Y-101552380D02*
X136970047Y-101528571D01*
X136970047Y-101528571D02*
X136922428Y-101504761D01*
X136922428Y-101504761D02*
X136898619Y-101480952D01*
X136898619Y-101480952D02*
X136874809Y-101433333D01*
X137374809Y-100790476D02*
X137374809Y-101076190D01*
X137374809Y-100933333D02*
X136874809Y-100933333D01*
X136874809Y-100933333D02*
X136946238Y-100980952D01*
X136946238Y-100980952D02*
X136993857Y-101028571D01*
X136993857Y-101028571D02*
X137017666Y-101076190D01*
X153840476Y-93277190D02*
X153816667Y-93301000D01*
X153816667Y-93301000D02*
X153745238Y-93324809D01*
X153745238Y-93324809D02*
X153697619Y-93324809D01*
X153697619Y-93324809D02*
X153626191Y-93301000D01*
X153626191Y-93301000D02*
X153578572Y-93253380D01*
X153578572Y-93253380D02*
X153554762Y-93205761D01*
X153554762Y-93205761D02*
X153530953Y-93110523D01*
X153530953Y-93110523D02*
X153530953Y-93039095D01*
X153530953Y-93039095D02*
X153554762Y-92943857D01*
X153554762Y-92943857D02*
X153578572Y-92896238D01*
X153578572Y-92896238D02*
X153626191Y-92848619D01*
X153626191Y-92848619D02*
X153697619Y-92824809D01*
X153697619Y-92824809D02*
X153745238Y-92824809D01*
X153745238Y-92824809D02*
X153816667Y-92848619D01*
X153816667Y-92848619D02*
X153840476Y-92872428D01*
X154269048Y-92991476D02*
X154269048Y-93324809D01*
X154150000Y-92801000D02*
X154030953Y-93158142D01*
X154030953Y-93158142D02*
X154340476Y-93158142D01*
X154626190Y-92824809D02*
X154673809Y-92824809D01*
X154673809Y-92824809D02*
X154721428Y-92848619D01*
X154721428Y-92848619D02*
X154745238Y-92872428D01*
X154745238Y-92872428D02*
X154769047Y-92920047D01*
X154769047Y-92920047D02*
X154792857Y-93015285D01*
X154792857Y-93015285D02*
X154792857Y-93134333D01*
X154792857Y-93134333D02*
X154769047Y-93229571D01*
X154769047Y-93229571D02*
X154745238Y-93277190D01*
X154745238Y-93277190D02*
X154721428Y-93301000D01*
X154721428Y-93301000D02*
X154673809Y-93324809D01*
X154673809Y-93324809D02*
X154626190Y-93324809D01*
X154626190Y-93324809D02*
X154578571Y-93301000D01*
X154578571Y-93301000D02*
X154554762Y-93277190D01*
X154554762Y-93277190D02*
X154530952Y-93229571D01*
X154530952Y-93229571D02*
X154507143Y-93134333D01*
X154507143Y-93134333D02*
X154507143Y-93015285D01*
X154507143Y-93015285D02*
X154530952Y-92920047D01*
X154530952Y-92920047D02*
X154554762Y-92872428D01*
X154554762Y-92872428D02*
X154578571Y-92848619D01*
X154578571Y-92848619D02*
X154626190Y-92824809D01*
X155078571Y-93039095D02*
X155030952Y-93015285D01*
X155030952Y-93015285D02*
X155007142Y-92991476D01*
X155007142Y-92991476D02*
X154983333Y-92943857D01*
X154983333Y-92943857D02*
X154983333Y-92920047D01*
X154983333Y-92920047D02*
X155007142Y-92872428D01*
X155007142Y-92872428D02*
X155030952Y-92848619D01*
X155030952Y-92848619D02*
X155078571Y-92824809D01*
X155078571Y-92824809D02*
X155173809Y-92824809D01*
X155173809Y-92824809D02*
X155221428Y-92848619D01*
X155221428Y-92848619D02*
X155245237Y-92872428D01*
X155245237Y-92872428D02*
X155269047Y-92920047D01*
X155269047Y-92920047D02*
X155269047Y-92943857D01*
X155269047Y-92943857D02*
X155245237Y-92991476D01*
X155245237Y-92991476D02*
X155221428Y-93015285D01*
X155221428Y-93015285D02*
X155173809Y-93039095D01*
X155173809Y-93039095D02*
X155078571Y-93039095D01*
X155078571Y-93039095D02*
X155030952Y-93062904D01*
X155030952Y-93062904D02*
X155007142Y-93086714D01*
X155007142Y-93086714D02*
X154983333Y-93134333D01*
X154983333Y-93134333D02*
X154983333Y-93229571D01*
X154983333Y-93229571D02*
X155007142Y-93277190D01*
X155007142Y-93277190D02*
X155030952Y-93301000D01*
X155030952Y-93301000D02*
X155078571Y-93324809D01*
X155078571Y-93324809D02*
X155173809Y-93324809D01*
X155173809Y-93324809D02*
X155221428Y-93301000D01*
X155221428Y-93301000D02*
X155245237Y-93277190D01*
X155245237Y-93277190D02*
X155269047Y-93229571D01*
X155269047Y-93229571D02*
X155269047Y-93134333D01*
X155269047Y-93134333D02*
X155245237Y-93086714D01*
X155245237Y-93086714D02*
X155221428Y-93062904D01*
X155221428Y-93062904D02*
X155173809Y-93039095D01*
X151542857Y-97324809D02*
X151542857Y-97729571D01*
X151542857Y-97729571D02*
X151566667Y-97777190D01*
X151566667Y-97777190D02*
X151590476Y-97801000D01*
X151590476Y-97801000D02*
X151638095Y-97824809D01*
X151638095Y-97824809D02*
X151733333Y-97824809D01*
X151733333Y-97824809D02*
X151780952Y-97801000D01*
X151780952Y-97801000D02*
X151804762Y-97777190D01*
X151804762Y-97777190D02*
X151828571Y-97729571D01*
X151828571Y-97729571D02*
X151828571Y-97324809D01*
X152280953Y-97491476D02*
X152280953Y-97824809D01*
X152161905Y-97301000D02*
X152042858Y-97658142D01*
X152042858Y-97658142D02*
X152352381Y-97658142D01*
X152638095Y-97324809D02*
X152685714Y-97324809D01*
X152685714Y-97324809D02*
X152733333Y-97348619D01*
X152733333Y-97348619D02*
X152757143Y-97372428D01*
X152757143Y-97372428D02*
X152780952Y-97420047D01*
X152780952Y-97420047D02*
X152804762Y-97515285D01*
X152804762Y-97515285D02*
X152804762Y-97634333D01*
X152804762Y-97634333D02*
X152780952Y-97729571D01*
X152780952Y-97729571D02*
X152757143Y-97777190D01*
X152757143Y-97777190D02*
X152733333Y-97801000D01*
X152733333Y-97801000D02*
X152685714Y-97824809D01*
X152685714Y-97824809D02*
X152638095Y-97824809D01*
X152638095Y-97824809D02*
X152590476Y-97801000D01*
X152590476Y-97801000D02*
X152566667Y-97777190D01*
X152566667Y-97777190D02*
X152542857Y-97729571D01*
X152542857Y-97729571D02*
X152519048Y-97634333D01*
X152519048Y-97634333D02*
X152519048Y-97515285D01*
X152519048Y-97515285D02*
X152542857Y-97420047D01*
X152542857Y-97420047D02*
X152566667Y-97372428D01*
X152566667Y-97372428D02*
X152590476Y-97348619D01*
X152590476Y-97348619D02*
X152638095Y-97324809D01*
X153280952Y-97824809D02*
X152995238Y-97824809D01*
X153138095Y-97824809D02*
X153138095Y-97324809D01*
X153138095Y-97324809D02*
X153090476Y-97396238D01*
X153090476Y-97396238D02*
X153042857Y-97443857D01*
X153042857Y-97443857D02*
X152995238Y-97467666D01*
D13*
X154120238Y-108688595D02*
X154108334Y-108700500D01*
X154108334Y-108700500D02*
X154072619Y-108712404D01*
X154072619Y-108712404D02*
X154048810Y-108712404D01*
X154048810Y-108712404D02*
X154013096Y-108700500D01*
X154013096Y-108700500D02*
X153989286Y-108676690D01*
X153989286Y-108676690D02*
X153977381Y-108652880D01*
X153977381Y-108652880D02*
X153965477Y-108605261D01*
X153965477Y-108605261D02*
X153965477Y-108569547D01*
X153965477Y-108569547D02*
X153977381Y-108521928D01*
X153977381Y-108521928D02*
X153989286Y-108498119D01*
X153989286Y-108498119D02*
X154013096Y-108474309D01*
X154013096Y-108474309D02*
X154048810Y-108462404D01*
X154048810Y-108462404D02*
X154072619Y-108462404D01*
X154072619Y-108462404D02*
X154108334Y-108474309D01*
X154108334Y-108474309D02*
X154120238Y-108486214D01*
X154334524Y-108545738D02*
X154334524Y-108712404D01*
X154275000Y-108450500D02*
X154215477Y-108629071D01*
X154215477Y-108629071D02*
X154370238Y-108629071D01*
X154596429Y-108712404D02*
X154453572Y-108712404D01*
X154525000Y-108712404D02*
X154525000Y-108462404D01*
X154525000Y-108462404D02*
X154501191Y-108498119D01*
X154501191Y-108498119D02*
X154477381Y-108521928D01*
X154477381Y-108521928D02*
X154453572Y-108533833D01*
X154751190Y-108462404D02*
X154775000Y-108462404D01*
X154775000Y-108462404D02*
X154798809Y-108474309D01*
X154798809Y-108474309D02*
X154810714Y-108486214D01*
X154810714Y-108486214D02*
X154822619Y-108510023D01*
X154822619Y-108510023D02*
X154834524Y-108557642D01*
X154834524Y-108557642D02*
X154834524Y-108617166D01*
X154834524Y-108617166D02*
X154822619Y-108664785D01*
X154822619Y-108664785D02*
X154810714Y-108688595D01*
X154810714Y-108688595D02*
X154798809Y-108700500D01*
X154798809Y-108700500D02*
X154775000Y-108712404D01*
X154775000Y-108712404D02*
X154751190Y-108712404D01*
X154751190Y-108712404D02*
X154727381Y-108700500D01*
X154727381Y-108700500D02*
X154715476Y-108688595D01*
X154715476Y-108688595D02*
X154703571Y-108664785D01*
X154703571Y-108664785D02*
X154691667Y-108617166D01*
X154691667Y-108617166D02*
X154691667Y-108557642D01*
X154691667Y-108557642D02*
X154703571Y-108510023D01*
X154703571Y-108510023D02*
X154715476Y-108486214D01*
X154715476Y-108486214D02*
X154727381Y-108474309D01*
X154727381Y-108474309D02*
X154751190Y-108462404D01*
D11*
X145804762Y-85074809D02*
X145804762Y-84574809D01*
X145804762Y-84574809D02*
X145923810Y-84574809D01*
X145923810Y-84574809D02*
X145995238Y-84598619D01*
X145995238Y-84598619D02*
X146042857Y-84646238D01*
X146042857Y-84646238D02*
X146066667Y-84693857D01*
X146066667Y-84693857D02*
X146090476Y-84789095D01*
X146090476Y-84789095D02*
X146090476Y-84860523D01*
X146090476Y-84860523D02*
X146066667Y-84955761D01*
X146066667Y-84955761D02*
X146042857Y-85003380D01*
X146042857Y-85003380D02*
X145995238Y-85051000D01*
X145995238Y-85051000D02*
X145923810Y-85074809D01*
X145923810Y-85074809D02*
X145804762Y-85074809D01*
X146257143Y-84574809D02*
X146566667Y-84574809D01*
X146566667Y-84574809D02*
X146400000Y-84765285D01*
X146400000Y-84765285D02*
X146471429Y-84765285D01*
X146471429Y-84765285D02*
X146519048Y-84789095D01*
X146519048Y-84789095D02*
X146542857Y-84812904D01*
X146542857Y-84812904D02*
X146566667Y-84860523D01*
X146566667Y-84860523D02*
X146566667Y-84979571D01*
X146566667Y-84979571D02*
X146542857Y-85027190D01*
X146542857Y-85027190D02*
X146519048Y-85051000D01*
X146519048Y-85051000D02*
X146471429Y-85074809D01*
X146471429Y-85074809D02*
X146328572Y-85074809D01*
X146328572Y-85074809D02*
X146280953Y-85051000D01*
X146280953Y-85051000D02*
X146257143Y-85027190D01*
X146876190Y-84574809D02*
X146923809Y-84574809D01*
X146923809Y-84574809D02*
X146971428Y-84598619D01*
X146971428Y-84598619D02*
X146995238Y-84622428D01*
X146995238Y-84622428D02*
X147019047Y-84670047D01*
X147019047Y-84670047D02*
X147042857Y-84765285D01*
X147042857Y-84765285D02*
X147042857Y-84884333D01*
X147042857Y-84884333D02*
X147019047Y-84979571D01*
X147019047Y-84979571D02*
X146995238Y-85027190D01*
X146995238Y-85027190D02*
X146971428Y-85051000D01*
X146971428Y-85051000D02*
X146923809Y-85074809D01*
X146923809Y-85074809D02*
X146876190Y-85074809D01*
X146876190Y-85074809D02*
X146828571Y-85051000D01*
X146828571Y-85051000D02*
X146804762Y-85027190D01*
X146804762Y-85027190D02*
X146780952Y-84979571D01*
X146780952Y-84979571D02*
X146757143Y-84884333D01*
X146757143Y-84884333D02*
X146757143Y-84765285D01*
X146757143Y-84765285D02*
X146780952Y-84670047D01*
X146780952Y-84670047D02*
X146804762Y-84622428D01*
X146804762Y-84622428D02*
X146828571Y-84598619D01*
X146828571Y-84598619D02*
X146876190Y-84574809D01*
X147233333Y-84622428D02*
X147257142Y-84598619D01*
X147257142Y-84598619D02*
X147304761Y-84574809D01*
X147304761Y-84574809D02*
X147423809Y-84574809D01*
X147423809Y-84574809D02*
X147471428Y-84598619D01*
X147471428Y-84598619D02*
X147495237Y-84622428D01*
X147495237Y-84622428D02*
X147519047Y-84670047D01*
X147519047Y-84670047D02*
X147519047Y-84717666D01*
X147519047Y-84717666D02*
X147495237Y-84789095D01*
X147495237Y-84789095D02*
X147209523Y-85074809D01*
X147209523Y-85074809D02*
X147519047Y-85074809D01*
X137340476Y-111824809D02*
X137173810Y-111586714D01*
X137054762Y-111824809D02*
X137054762Y-111324809D01*
X137054762Y-111324809D02*
X137245238Y-111324809D01*
X137245238Y-111324809D02*
X137292857Y-111348619D01*
X137292857Y-111348619D02*
X137316667Y-111372428D01*
X137316667Y-111372428D02*
X137340476Y-111420047D01*
X137340476Y-111420047D02*
X137340476Y-111491476D01*
X137340476Y-111491476D02*
X137316667Y-111539095D01*
X137316667Y-111539095D02*
X137292857Y-111562904D01*
X137292857Y-111562904D02*
X137245238Y-111586714D01*
X137245238Y-111586714D02*
X137054762Y-111586714D01*
X137507143Y-111324809D02*
X137816667Y-111324809D01*
X137816667Y-111324809D02*
X137650000Y-111515285D01*
X137650000Y-111515285D02*
X137721429Y-111515285D01*
X137721429Y-111515285D02*
X137769048Y-111539095D01*
X137769048Y-111539095D02*
X137792857Y-111562904D01*
X137792857Y-111562904D02*
X137816667Y-111610523D01*
X137816667Y-111610523D02*
X137816667Y-111729571D01*
X137816667Y-111729571D02*
X137792857Y-111777190D01*
X137792857Y-111777190D02*
X137769048Y-111801000D01*
X137769048Y-111801000D02*
X137721429Y-111824809D01*
X137721429Y-111824809D02*
X137578572Y-111824809D01*
X137578572Y-111824809D02*
X137530953Y-111801000D01*
X137530953Y-111801000D02*
X137507143Y-111777190D01*
X138126190Y-111324809D02*
X138173809Y-111324809D01*
X138173809Y-111324809D02*
X138221428Y-111348619D01*
X138221428Y-111348619D02*
X138245238Y-111372428D01*
X138245238Y-111372428D02*
X138269047Y-111420047D01*
X138269047Y-111420047D02*
X138292857Y-111515285D01*
X138292857Y-111515285D02*
X138292857Y-111634333D01*
X138292857Y-111634333D02*
X138269047Y-111729571D01*
X138269047Y-111729571D02*
X138245238Y-111777190D01*
X138245238Y-111777190D02*
X138221428Y-111801000D01*
X138221428Y-111801000D02*
X138173809Y-111824809D01*
X138173809Y-111824809D02*
X138126190Y-111824809D01*
X138126190Y-111824809D02*
X138078571Y-111801000D01*
X138078571Y-111801000D02*
X138054762Y-111777190D01*
X138054762Y-111777190D02*
X138030952Y-111729571D01*
X138030952Y-111729571D02*
X138007143Y-111634333D01*
X138007143Y-111634333D02*
X138007143Y-111515285D01*
X138007143Y-111515285D02*
X138030952Y-111420047D01*
X138030952Y-111420047D02*
X138054762Y-111372428D01*
X138054762Y-111372428D02*
X138078571Y-111348619D01*
X138078571Y-111348619D02*
X138126190Y-111324809D01*
X138483333Y-111372428D02*
X138507142Y-111348619D01*
X138507142Y-111348619D02*
X138554761Y-111324809D01*
X138554761Y-111324809D02*
X138673809Y-111324809D01*
X138673809Y-111324809D02*
X138721428Y-111348619D01*
X138721428Y-111348619D02*
X138745237Y-111372428D01*
X138745237Y-111372428D02*
X138769047Y-111420047D01*
X138769047Y-111420047D02*
X138769047Y-111467666D01*
X138769047Y-111467666D02*
X138745237Y-111539095D01*
X138745237Y-111539095D02*
X138459523Y-111824809D01*
X138459523Y-111824809D02*
X138769047Y-111824809D01*
X149840476Y-94324809D02*
X149673810Y-94086714D01*
X149554762Y-94324809D02*
X149554762Y-93824809D01*
X149554762Y-93824809D02*
X149745238Y-93824809D01*
X149745238Y-93824809D02*
X149792857Y-93848619D01*
X149792857Y-93848619D02*
X149816667Y-93872428D01*
X149816667Y-93872428D02*
X149840476Y-93920047D01*
X149840476Y-93920047D02*
X149840476Y-93991476D01*
X149840476Y-93991476D02*
X149816667Y-94039095D01*
X149816667Y-94039095D02*
X149792857Y-94062904D01*
X149792857Y-94062904D02*
X149745238Y-94086714D01*
X149745238Y-94086714D02*
X149554762Y-94086714D01*
X150269048Y-93991476D02*
X150269048Y-94324809D01*
X150150000Y-93801000D02*
X150030953Y-94158142D01*
X150030953Y-94158142D02*
X150340476Y-94158142D01*
X150626190Y-93824809D02*
X150673809Y-93824809D01*
X150673809Y-93824809D02*
X150721428Y-93848619D01*
X150721428Y-93848619D02*
X150745238Y-93872428D01*
X150745238Y-93872428D02*
X150769047Y-93920047D01*
X150769047Y-93920047D02*
X150792857Y-94015285D01*
X150792857Y-94015285D02*
X150792857Y-94134333D01*
X150792857Y-94134333D02*
X150769047Y-94229571D01*
X150769047Y-94229571D02*
X150745238Y-94277190D01*
X150745238Y-94277190D02*
X150721428Y-94301000D01*
X150721428Y-94301000D02*
X150673809Y-94324809D01*
X150673809Y-94324809D02*
X150626190Y-94324809D01*
X150626190Y-94324809D02*
X150578571Y-94301000D01*
X150578571Y-94301000D02*
X150554762Y-94277190D01*
X150554762Y-94277190D02*
X150530952Y-94229571D01*
X150530952Y-94229571D02*
X150507143Y-94134333D01*
X150507143Y-94134333D02*
X150507143Y-94015285D01*
X150507143Y-94015285D02*
X150530952Y-93920047D01*
X150530952Y-93920047D02*
X150554762Y-93872428D01*
X150554762Y-93872428D02*
X150578571Y-93848619D01*
X150578571Y-93848619D02*
X150626190Y-93824809D01*
X150983333Y-93872428D02*
X151007142Y-93848619D01*
X151007142Y-93848619D02*
X151054761Y-93824809D01*
X151054761Y-93824809D02*
X151173809Y-93824809D01*
X151173809Y-93824809D02*
X151221428Y-93848619D01*
X151221428Y-93848619D02*
X151245237Y-93872428D01*
X151245237Y-93872428D02*
X151269047Y-93920047D01*
X151269047Y-93920047D02*
X151269047Y-93967666D01*
X151269047Y-93967666D02*
X151245237Y-94039095D01*
X151245237Y-94039095D02*
X150959523Y-94324809D01*
X150959523Y-94324809D02*
X151269047Y-94324809D01*
D10*
X158516900Y-98890951D02*
X158393091Y-98977618D01*
X158516900Y-99039523D02*
X158256900Y-99039523D01*
X158256900Y-99039523D02*
X158256900Y-98940475D01*
X158256900Y-98940475D02*
X158269281Y-98915713D01*
X158269281Y-98915713D02*
X158281662Y-98903332D01*
X158281662Y-98903332D02*
X158306424Y-98890951D01*
X158306424Y-98890951D02*
X158343567Y-98890951D01*
X158343567Y-98890951D02*
X158368329Y-98903332D01*
X158368329Y-98903332D02*
X158380710Y-98915713D01*
X158380710Y-98915713D02*
X158393091Y-98940475D01*
X158393091Y-98940475D02*
X158393091Y-99039523D01*
X158343567Y-98668094D02*
X158516900Y-98668094D01*
X158244520Y-98729999D02*
X158430234Y-98791904D01*
X158430234Y-98791904D02*
X158430234Y-98630951D01*
X158256900Y-98482380D02*
X158256900Y-98457618D01*
X158256900Y-98457618D02*
X158269281Y-98432856D01*
X158269281Y-98432856D02*
X158281662Y-98420475D01*
X158281662Y-98420475D02*
X158306424Y-98408094D01*
X158306424Y-98408094D02*
X158355948Y-98395713D01*
X158355948Y-98395713D02*
X158417853Y-98395713D01*
X158417853Y-98395713D02*
X158467377Y-98408094D01*
X158467377Y-98408094D02*
X158492139Y-98420475D01*
X158492139Y-98420475D02*
X158504520Y-98432856D01*
X158504520Y-98432856D02*
X158516900Y-98457618D01*
X158516900Y-98457618D02*
X158516900Y-98482380D01*
X158516900Y-98482380D02*
X158504520Y-98507142D01*
X158504520Y-98507142D02*
X158492139Y-98519523D01*
X158492139Y-98519523D02*
X158467377Y-98531904D01*
X158467377Y-98531904D02*
X158417853Y-98544285D01*
X158417853Y-98544285D02*
X158355948Y-98544285D01*
X158355948Y-98544285D02*
X158306424Y-98531904D01*
X158306424Y-98531904D02*
X158281662Y-98519523D01*
X158281662Y-98519523D02*
X158269281Y-98507142D01*
X158269281Y-98507142D02*
X158256900Y-98482380D01*
X158516900Y-98148094D02*
X158516900Y-98296666D01*
X158516900Y-98222380D02*
X158256900Y-98222380D01*
X158256900Y-98222380D02*
X158294043Y-98247142D01*
X158294043Y-98247142D02*
X158318805Y-98271904D01*
X158318805Y-98271904D02*
X158331186Y-98296666D01*
D13*
X145870238Y-102188595D02*
X145858334Y-102200500D01*
X145858334Y-102200500D02*
X145822619Y-102212404D01*
X145822619Y-102212404D02*
X145798810Y-102212404D01*
X145798810Y-102212404D02*
X145763096Y-102200500D01*
X145763096Y-102200500D02*
X145739286Y-102176690D01*
X145739286Y-102176690D02*
X145727381Y-102152880D01*
X145727381Y-102152880D02*
X145715477Y-102105261D01*
X145715477Y-102105261D02*
X145715477Y-102069547D01*
X145715477Y-102069547D02*
X145727381Y-102021928D01*
X145727381Y-102021928D02*
X145739286Y-101998119D01*
X145739286Y-101998119D02*
X145763096Y-101974309D01*
X145763096Y-101974309D02*
X145798810Y-101962404D01*
X145798810Y-101962404D02*
X145822619Y-101962404D01*
X145822619Y-101962404D02*
X145858334Y-101974309D01*
X145858334Y-101974309D02*
X145870238Y-101986214D01*
X146084524Y-102045738D02*
X146084524Y-102212404D01*
X146025000Y-101950500D02*
X145965477Y-102129071D01*
X145965477Y-102129071D02*
X146120238Y-102129071D01*
X146263095Y-101962404D02*
X146286905Y-101962404D01*
X146286905Y-101962404D02*
X146310714Y-101974309D01*
X146310714Y-101974309D02*
X146322619Y-101986214D01*
X146322619Y-101986214D02*
X146334524Y-102010023D01*
X146334524Y-102010023D02*
X146346429Y-102057642D01*
X146346429Y-102057642D02*
X146346429Y-102117166D01*
X146346429Y-102117166D02*
X146334524Y-102164785D01*
X146334524Y-102164785D02*
X146322619Y-102188595D01*
X146322619Y-102188595D02*
X146310714Y-102200500D01*
X146310714Y-102200500D02*
X146286905Y-102212404D01*
X146286905Y-102212404D02*
X146263095Y-102212404D01*
X146263095Y-102212404D02*
X146239286Y-102200500D01*
X146239286Y-102200500D02*
X146227381Y-102188595D01*
X146227381Y-102188595D02*
X146215476Y-102164785D01*
X146215476Y-102164785D02*
X146203572Y-102117166D01*
X146203572Y-102117166D02*
X146203572Y-102057642D01*
X146203572Y-102057642D02*
X146215476Y-102010023D01*
X146215476Y-102010023D02*
X146227381Y-101986214D01*
X146227381Y-101986214D02*
X146239286Y-101974309D01*
X146239286Y-101974309D02*
X146263095Y-101962404D01*
X146584524Y-102212404D02*
X146441667Y-102212404D01*
X146513095Y-102212404D02*
X146513095Y-101962404D01*
X146513095Y-101962404D02*
X146489286Y-101998119D01*
X146489286Y-101998119D02*
X146465476Y-102021928D01*
X146465476Y-102021928D02*
X146441667Y-102033833D01*
D11*
X144624809Y-98980951D02*
X145124809Y-98647618D01*
X144624809Y-98647618D02*
X145124809Y-98980951D01*
X144791476Y-98242856D02*
X145124809Y-98242856D01*
X144601000Y-98361904D02*
X144958142Y-98480951D01*
X144958142Y-98480951D02*
X144958142Y-98171428D01*
X144624809Y-97885714D02*
X144624809Y-97838095D01*
X144624809Y-97838095D02*
X144648619Y-97790476D01*
X144648619Y-97790476D02*
X144672428Y-97766666D01*
X144672428Y-97766666D02*
X144720047Y-97742857D01*
X144720047Y-97742857D02*
X144815285Y-97719047D01*
X144815285Y-97719047D02*
X144934333Y-97719047D01*
X144934333Y-97719047D02*
X145029571Y-97742857D01*
X145029571Y-97742857D02*
X145077190Y-97766666D01*
X145077190Y-97766666D02*
X145101000Y-97790476D01*
X145101000Y-97790476D02*
X145124809Y-97838095D01*
X145124809Y-97838095D02*
X145124809Y-97885714D01*
X145124809Y-97885714D02*
X145101000Y-97933333D01*
X145101000Y-97933333D02*
X145077190Y-97957142D01*
X145077190Y-97957142D02*
X145029571Y-97980952D01*
X145029571Y-97980952D02*
X144934333Y-98004761D01*
X144934333Y-98004761D02*
X144815285Y-98004761D01*
X144815285Y-98004761D02*
X144720047Y-97980952D01*
X144720047Y-97980952D02*
X144672428Y-97957142D01*
X144672428Y-97957142D02*
X144648619Y-97933333D01*
X144648619Y-97933333D02*
X144624809Y-97885714D01*
X145124809Y-97242857D02*
X145124809Y-97528571D01*
X145124809Y-97385714D02*
X144624809Y-97385714D01*
X144624809Y-97385714D02*
X144696238Y-97433333D01*
X144696238Y-97433333D02*
X144743857Y-97480952D01*
X144743857Y-97480952D02*
X144767666Y-97528571D01*
D13*
X147620238Y-107188595D02*
X147608334Y-107200500D01*
X147608334Y-107200500D02*
X147572619Y-107212404D01*
X147572619Y-107212404D02*
X147548810Y-107212404D01*
X147548810Y-107212404D02*
X147513096Y-107200500D01*
X147513096Y-107200500D02*
X147489286Y-107176690D01*
X147489286Y-107176690D02*
X147477381Y-107152880D01*
X147477381Y-107152880D02*
X147465477Y-107105261D01*
X147465477Y-107105261D02*
X147465477Y-107069547D01*
X147465477Y-107069547D02*
X147477381Y-107021928D01*
X147477381Y-107021928D02*
X147489286Y-106998119D01*
X147489286Y-106998119D02*
X147513096Y-106974309D01*
X147513096Y-106974309D02*
X147548810Y-106962404D01*
X147548810Y-106962404D02*
X147572619Y-106962404D01*
X147572619Y-106962404D02*
X147608334Y-106974309D01*
X147608334Y-106974309D02*
X147620238Y-106986214D01*
X147703572Y-106962404D02*
X147858334Y-106962404D01*
X147858334Y-106962404D02*
X147775000Y-107057642D01*
X147775000Y-107057642D02*
X147810715Y-107057642D01*
X147810715Y-107057642D02*
X147834524Y-107069547D01*
X147834524Y-107069547D02*
X147846429Y-107081452D01*
X147846429Y-107081452D02*
X147858334Y-107105261D01*
X147858334Y-107105261D02*
X147858334Y-107164785D01*
X147858334Y-107164785D02*
X147846429Y-107188595D01*
X147846429Y-107188595D02*
X147834524Y-107200500D01*
X147834524Y-107200500D02*
X147810715Y-107212404D01*
X147810715Y-107212404D02*
X147739286Y-107212404D01*
X147739286Y-107212404D02*
X147715477Y-107200500D01*
X147715477Y-107200500D02*
X147703572Y-107188595D01*
X148013095Y-106962404D02*
X148036905Y-106962404D01*
X148036905Y-106962404D02*
X148060714Y-106974309D01*
X148060714Y-106974309D02*
X148072619Y-106986214D01*
X148072619Y-106986214D02*
X148084524Y-107010023D01*
X148084524Y-107010023D02*
X148096429Y-107057642D01*
X148096429Y-107057642D02*
X148096429Y-107117166D01*
X148096429Y-107117166D02*
X148084524Y-107164785D01*
X148084524Y-107164785D02*
X148072619Y-107188595D01*
X148072619Y-107188595D02*
X148060714Y-107200500D01*
X148060714Y-107200500D02*
X148036905Y-107212404D01*
X148036905Y-107212404D02*
X148013095Y-107212404D01*
X148013095Y-107212404D02*
X147989286Y-107200500D01*
X147989286Y-107200500D02*
X147977381Y-107188595D01*
X147977381Y-107188595D02*
X147965476Y-107164785D01*
X147965476Y-107164785D02*
X147953572Y-107117166D01*
X147953572Y-107117166D02*
X147953572Y-107057642D01*
X147953572Y-107057642D02*
X147965476Y-107010023D01*
X147965476Y-107010023D02*
X147977381Y-106986214D01*
X147977381Y-106986214D02*
X147989286Y-106974309D01*
X147989286Y-106974309D02*
X148013095Y-106962404D01*
X148191667Y-106986214D02*
X148203571Y-106974309D01*
X148203571Y-106974309D02*
X148227381Y-106962404D01*
X148227381Y-106962404D02*
X148286905Y-106962404D01*
X148286905Y-106962404D02*
X148310714Y-106974309D01*
X148310714Y-106974309D02*
X148322619Y-106986214D01*
X148322619Y-106986214D02*
X148334524Y-107010023D01*
X148334524Y-107010023D02*
X148334524Y-107033833D01*
X148334524Y-107033833D02*
X148322619Y-107069547D01*
X148322619Y-107069547D02*
X148179762Y-107212404D01*
X148179762Y-107212404D02*
X148334524Y-107212404D01*
D11*
X136042857Y-86324809D02*
X136042857Y-85824809D01*
X136042857Y-86062904D02*
X136328571Y-86062904D01*
X136328571Y-86324809D02*
X136328571Y-85824809D01*
X136542858Y-85872428D02*
X136566667Y-85848619D01*
X136566667Y-85848619D02*
X136614286Y-85824809D01*
X136614286Y-85824809D02*
X136733334Y-85824809D01*
X136733334Y-85824809D02*
X136780953Y-85848619D01*
X136780953Y-85848619D02*
X136804762Y-85872428D01*
X136804762Y-85872428D02*
X136828572Y-85920047D01*
X136828572Y-85920047D02*
X136828572Y-85967666D01*
X136828572Y-85967666D02*
X136804762Y-86039095D01*
X136804762Y-86039095D02*
X136519048Y-86324809D01*
X136519048Y-86324809D02*
X136828572Y-86324809D01*
X137138095Y-85824809D02*
X137185714Y-85824809D01*
X137185714Y-85824809D02*
X137233333Y-85848619D01*
X137233333Y-85848619D02*
X137257143Y-85872428D01*
X137257143Y-85872428D02*
X137280952Y-85920047D01*
X137280952Y-85920047D02*
X137304762Y-86015285D01*
X137304762Y-86015285D02*
X137304762Y-86134333D01*
X137304762Y-86134333D02*
X137280952Y-86229571D01*
X137280952Y-86229571D02*
X137257143Y-86277190D01*
X137257143Y-86277190D02*
X137233333Y-86301000D01*
X137233333Y-86301000D02*
X137185714Y-86324809D01*
X137185714Y-86324809D02*
X137138095Y-86324809D01*
X137138095Y-86324809D02*
X137090476Y-86301000D01*
X137090476Y-86301000D02*
X137066667Y-86277190D01*
X137066667Y-86277190D02*
X137042857Y-86229571D01*
X137042857Y-86229571D02*
X137019048Y-86134333D01*
X137019048Y-86134333D02*
X137019048Y-86015285D01*
X137019048Y-86015285D02*
X137042857Y-85920047D01*
X137042857Y-85920047D02*
X137066667Y-85872428D01*
X137066667Y-85872428D02*
X137090476Y-85848619D01*
X137090476Y-85848619D02*
X137138095Y-85824809D01*
X137780952Y-86324809D02*
X137495238Y-86324809D01*
X137638095Y-86324809D02*
X137638095Y-85824809D01*
X137638095Y-85824809D02*
X137590476Y-85896238D01*
X137590476Y-85896238D02*
X137542857Y-85943857D01*
X137542857Y-85943857D02*
X137495238Y-85967666D01*
D14*
X156952381Y-96241752D02*
X156933333Y-96260800D01*
X156933333Y-96260800D02*
X156876191Y-96279847D01*
X156876191Y-96279847D02*
X156838095Y-96279847D01*
X156838095Y-96279847D02*
X156780952Y-96260800D01*
X156780952Y-96260800D02*
X156742857Y-96222704D01*
X156742857Y-96222704D02*
X156723810Y-96184609D01*
X156723810Y-96184609D02*
X156704762Y-96108419D01*
X156704762Y-96108419D02*
X156704762Y-96051276D01*
X156704762Y-96051276D02*
X156723810Y-95975085D01*
X156723810Y-95975085D02*
X156742857Y-95936990D01*
X156742857Y-95936990D02*
X156780952Y-95898895D01*
X156780952Y-95898895D02*
X156838095Y-95879847D01*
X156838095Y-95879847D02*
X156876191Y-95879847D01*
X156876191Y-95879847D02*
X156933333Y-95898895D01*
X156933333Y-95898895D02*
X156952381Y-95917942D01*
X157295238Y-96013180D02*
X157295238Y-96279847D01*
X157200000Y-95860800D02*
X157104762Y-96146514D01*
X157104762Y-96146514D02*
X157352381Y-96146514D01*
X157580952Y-95879847D02*
X157619047Y-95879847D01*
X157619047Y-95879847D02*
X157657143Y-95898895D01*
X157657143Y-95898895D02*
X157676190Y-95917942D01*
X157676190Y-95917942D02*
X157695238Y-95956038D01*
X157695238Y-95956038D02*
X157714285Y-96032228D01*
X157714285Y-96032228D02*
X157714285Y-96127466D01*
X157714285Y-96127466D02*
X157695238Y-96203657D01*
X157695238Y-96203657D02*
X157676190Y-96241752D01*
X157676190Y-96241752D02*
X157657143Y-96260800D01*
X157657143Y-96260800D02*
X157619047Y-96279847D01*
X157619047Y-96279847D02*
X157580952Y-96279847D01*
X157580952Y-96279847D02*
X157542857Y-96260800D01*
X157542857Y-96260800D02*
X157523809Y-96241752D01*
X157523809Y-96241752D02*
X157504762Y-96203657D01*
X157504762Y-96203657D02*
X157485714Y-96127466D01*
X157485714Y-96127466D02*
X157485714Y-96032228D01*
X157485714Y-96032228D02*
X157504762Y-95956038D01*
X157504762Y-95956038D02*
X157523809Y-95917942D01*
X157523809Y-95917942D02*
X157542857Y-95898895D01*
X157542857Y-95898895D02*
X157580952Y-95879847D01*
X157866666Y-95917942D02*
X157885714Y-95898895D01*
X157885714Y-95898895D02*
X157923809Y-95879847D01*
X157923809Y-95879847D02*
X158019047Y-95879847D01*
X158019047Y-95879847D02*
X158057142Y-95898895D01*
X158057142Y-95898895D02*
X158076190Y-95917942D01*
X158076190Y-95917942D02*
X158095237Y-95956038D01*
X158095237Y-95956038D02*
X158095237Y-95994133D01*
X158095237Y-95994133D02*
X158076190Y-96051276D01*
X158076190Y-96051276D02*
X157847618Y-96279847D01*
X157847618Y-96279847D02*
X158095237Y-96279847D01*
D10*
X158516900Y-104390951D02*
X158393091Y-104477618D01*
X158516900Y-104539523D02*
X158256900Y-104539523D01*
X158256900Y-104539523D02*
X158256900Y-104440475D01*
X158256900Y-104440475D02*
X158269281Y-104415713D01*
X158269281Y-104415713D02*
X158281662Y-104403332D01*
X158281662Y-104403332D02*
X158306424Y-104390951D01*
X158306424Y-104390951D02*
X158343567Y-104390951D01*
X158343567Y-104390951D02*
X158368329Y-104403332D01*
X158368329Y-104403332D02*
X158380710Y-104415713D01*
X158380710Y-104415713D02*
X158393091Y-104440475D01*
X158393091Y-104440475D02*
X158393091Y-104539523D01*
X158256900Y-104304285D02*
X158256900Y-104143332D01*
X158256900Y-104143332D02*
X158355948Y-104229999D01*
X158355948Y-104229999D02*
X158355948Y-104192856D01*
X158355948Y-104192856D02*
X158368329Y-104168094D01*
X158368329Y-104168094D02*
X158380710Y-104155713D01*
X158380710Y-104155713D02*
X158405472Y-104143332D01*
X158405472Y-104143332D02*
X158467377Y-104143332D01*
X158467377Y-104143332D02*
X158492139Y-104155713D01*
X158492139Y-104155713D02*
X158504520Y-104168094D01*
X158504520Y-104168094D02*
X158516900Y-104192856D01*
X158516900Y-104192856D02*
X158516900Y-104267142D01*
X158516900Y-104267142D02*
X158504520Y-104291904D01*
X158504520Y-104291904D02*
X158492139Y-104304285D01*
X158256900Y-103982380D02*
X158256900Y-103957618D01*
X158256900Y-103957618D02*
X158269281Y-103932856D01*
X158269281Y-103932856D02*
X158281662Y-103920475D01*
X158281662Y-103920475D02*
X158306424Y-103908094D01*
X158306424Y-103908094D02*
X158355948Y-103895713D01*
X158355948Y-103895713D02*
X158417853Y-103895713D01*
X158417853Y-103895713D02*
X158467377Y-103908094D01*
X158467377Y-103908094D02*
X158492139Y-103920475D01*
X158492139Y-103920475D02*
X158504520Y-103932856D01*
X158504520Y-103932856D02*
X158516900Y-103957618D01*
X158516900Y-103957618D02*
X158516900Y-103982380D01*
X158516900Y-103982380D02*
X158504520Y-104007142D01*
X158504520Y-104007142D02*
X158492139Y-104019523D01*
X158492139Y-104019523D02*
X158467377Y-104031904D01*
X158467377Y-104031904D02*
X158417853Y-104044285D01*
X158417853Y-104044285D02*
X158355948Y-104044285D01*
X158355948Y-104044285D02*
X158306424Y-104031904D01*
X158306424Y-104031904D02*
X158281662Y-104019523D01*
X158281662Y-104019523D02*
X158269281Y-104007142D01*
X158269281Y-104007142D02*
X158256900Y-103982380D01*
X158516900Y-103648094D02*
X158516900Y-103796666D01*
X158516900Y-103722380D02*
X158256900Y-103722380D01*
X158256900Y-103722380D02*
X158294043Y-103747142D01*
X158294043Y-103747142D02*
X158318805Y-103771904D01*
X158318805Y-103771904D02*
X158331186Y-103796666D01*
D13*
X145488595Y-111879761D02*
X145500500Y-111891665D01*
X145500500Y-111891665D02*
X145512404Y-111927380D01*
X145512404Y-111927380D02*
X145512404Y-111951189D01*
X145512404Y-111951189D02*
X145500500Y-111986903D01*
X145500500Y-111986903D02*
X145476690Y-112010713D01*
X145476690Y-112010713D02*
X145452880Y-112022618D01*
X145452880Y-112022618D02*
X145405261Y-112034522D01*
X145405261Y-112034522D02*
X145369547Y-112034522D01*
X145369547Y-112034522D02*
X145321928Y-112022618D01*
X145321928Y-112022618D02*
X145298119Y-112010713D01*
X145298119Y-112010713D02*
X145274309Y-111986903D01*
X145274309Y-111986903D02*
X145262404Y-111951189D01*
X145262404Y-111951189D02*
X145262404Y-111927380D01*
X145262404Y-111927380D02*
X145274309Y-111891665D01*
X145274309Y-111891665D02*
X145286214Y-111879761D01*
X145262404Y-111796427D02*
X145262404Y-111641665D01*
X145262404Y-111641665D02*
X145357642Y-111724999D01*
X145357642Y-111724999D02*
X145357642Y-111689284D01*
X145357642Y-111689284D02*
X145369547Y-111665475D01*
X145369547Y-111665475D02*
X145381452Y-111653570D01*
X145381452Y-111653570D02*
X145405261Y-111641665D01*
X145405261Y-111641665D02*
X145464785Y-111641665D01*
X145464785Y-111641665D02*
X145488595Y-111653570D01*
X145488595Y-111653570D02*
X145500500Y-111665475D01*
X145500500Y-111665475D02*
X145512404Y-111689284D01*
X145512404Y-111689284D02*
X145512404Y-111760713D01*
X145512404Y-111760713D02*
X145500500Y-111784522D01*
X145500500Y-111784522D02*
X145488595Y-111796427D01*
X145262404Y-111486904D02*
X145262404Y-111463094D01*
X145262404Y-111463094D02*
X145274309Y-111439285D01*
X145274309Y-111439285D02*
X145286214Y-111427380D01*
X145286214Y-111427380D02*
X145310023Y-111415475D01*
X145310023Y-111415475D02*
X145357642Y-111403570D01*
X145357642Y-111403570D02*
X145417166Y-111403570D01*
X145417166Y-111403570D02*
X145464785Y-111415475D01*
X145464785Y-111415475D02*
X145488595Y-111427380D01*
X145488595Y-111427380D02*
X145500500Y-111439285D01*
X145500500Y-111439285D02*
X145512404Y-111463094D01*
X145512404Y-111463094D02*
X145512404Y-111486904D01*
X145512404Y-111486904D02*
X145500500Y-111510713D01*
X145500500Y-111510713D02*
X145488595Y-111522618D01*
X145488595Y-111522618D02*
X145464785Y-111534523D01*
X145464785Y-111534523D02*
X145417166Y-111546427D01*
X145417166Y-111546427D02*
X145357642Y-111546427D01*
X145357642Y-111546427D02*
X145310023Y-111534523D01*
X145310023Y-111534523D02*
X145286214Y-111522618D01*
X145286214Y-111522618D02*
X145274309Y-111510713D01*
X145274309Y-111510713D02*
X145262404Y-111486904D01*
X145262404Y-111320237D02*
X145262404Y-111165475D01*
X145262404Y-111165475D02*
X145357642Y-111248809D01*
X145357642Y-111248809D02*
X145357642Y-111213094D01*
X145357642Y-111213094D02*
X145369547Y-111189285D01*
X145369547Y-111189285D02*
X145381452Y-111177380D01*
X145381452Y-111177380D02*
X145405261Y-111165475D01*
X145405261Y-111165475D02*
X145464785Y-111165475D01*
X145464785Y-111165475D02*
X145488595Y-111177380D01*
X145488595Y-111177380D02*
X145500500Y-111189285D01*
X145500500Y-111189285D02*
X145512404Y-111213094D01*
X145512404Y-111213094D02*
X145512404Y-111284523D01*
X145512404Y-111284523D02*
X145500500Y-111308332D01*
X145500500Y-111308332D02*
X145488595Y-111320237D01*
D11*
X142840476Y-102277190D02*
X142816667Y-102301000D01*
X142816667Y-102301000D02*
X142745238Y-102324809D01*
X142745238Y-102324809D02*
X142697619Y-102324809D01*
X142697619Y-102324809D02*
X142626191Y-102301000D01*
X142626191Y-102301000D02*
X142578572Y-102253380D01*
X142578572Y-102253380D02*
X142554762Y-102205761D01*
X142554762Y-102205761D02*
X142530953Y-102110523D01*
X142530953Y-102110523D02*
X142530953Y-102039095D01*
X142530953Y-102039095D02*
X142554762Y-101943857D01*
X142554762Y-101943857D02*
X142578572Y-101896238D01*
X142578572Y-101896238D02*
X142626191Y-101848619D01*
X142626191Y-101848619D02*
X142697619Y-101824809D01*
X142697619Y-101824809D02*
X142745238Y-101824809D01*
X142745238Y-101824809D02*
X142816667Y-101848619D01*
X142816667Y-101848619D02*
X142840476Y-101872428D01*
X143007143Y-101824809D02*
X143316667Y-101824809D01*
X143316667Y-101824809D02*
X143150000Y-102015285D01*
X143150000Y-102015285D02*
X143221429Y-102015285D01*
X143221429Y-102015285D02*
X143269048Y-102039095D01*
X143269048Y-102039095D02*
X143292857Y-102062904D01*
X143292857Y-102062904D02*
X143316667Y-102110523D01*
X143316667Y-102110523D02*
X143316667Y-102229571D01*
X143316667Y-102229571D02*
X143292857Y-102277190D01*
X143292857Y-102277190D02*
X143269048Y-102301000D01*
X143269048Y-102301000D02*
X143221429Y-102324809D01*
X143221429Y-102324809D02*
X143078572Y-102324809D01*
X143078572Y-102324809D02*
X143030953Y-102301000D01*
X143030953Y-102301000D02*
X143007143Y-102277190D01*
X143626190Y-101824809D02*
X143673809Y-101824809D01*
X143673809Y-101824809D02*
X143721428Y-101848619D01*
X143721428Y-101848619D02*
X143745238Y-101872428D01*
X143745238Y-101872428D02*
X143769047Y-101920047D01*
X143769047Y-101920047D02*
X143792857Y-102015285D01*
X143792857Y-102015285D02*
X143792857Y-102134333D01*
X143792857Y-102134333D02*
X143769047Y-102229571D01*
X143769047Y-102229571D02*
X143745238Y-102277190D01*
X143745238Y-102277190D02*
X143721428Y-102301000D01*
X143721428Y-102301000D02*
X143673809Y-102324809D01*
X143673809Y-102324809D02*
X143626190Y-102324809D01*
X143626190Y-102324809D02*
X143578571Y-102301000D01*
X143578571Y-102301000D02*
X143554762Y-102277190D01*
X143554762Y-102277190D02*
X143530952Y-102229571D01*
X143530952Y-102229571D02*
X143507143Y-102134333D01*
X143507143Y-102134333D02*
X143507143Y-102015285D01*
X143507143Y-102015285D02*
X143530952Y-101920047D01*
X143530952Y-101920047D02*
X143554762Y-101872428D01*
X143554762Y-101872428D02*
X143578571Y-101848619D01*
X143578571Y-101848619D02*
X143626190Y-101824809D01*
X144245237Y-101824809D02*
X144007142Y-101824809D01*
X144007142Y-101824809D02*
X143983333Y-102062904D01*
X143983333Y-102062904D02*
X144007142Y-102039095D01*
X144007142Y-102039095D02*
X144054761Y-102015285D01*
X144054761Y-102015285D02*
X144173809Y-102015285D01*
X144173809Y-102015285D02*
X144221428Y-102039095D01*
X144221428Y-102039095D02*
X144245237Y-102062904D01*
X144245237Y-102062904D02*
X144269047Y-102110523D01*
X144269047Y-102110523D02*
X144269047Y-102229571D01*
X144269047Y-102229571D02*
X144245237Y-102277190D01*
X144245237Y-102277190D02*
X144221428Y-102301000D01*
X144221428Y-102301000D02*
X144173809Y-102324809D01*
X144173809Y-102324809D02*
X144054761Y-102324809D01*
X144054761Y-102324809D02*
X144007142Y-102301000D01*
X144007142Y-102301000D02*
X143983333Y-102277190D01*
X166517950Y-120562904D02*
X166351283Y-120562904D01*
X166351283Y-120824809D02*
X166351283Y-120324809D01*
X166351283Y-120324809D02*
X166589378Y-120324809D01*
X166779854Y-120824809D02*
X166779854Y-120324809D01*
X167017949Y-120824809D02*
X167017949Y-120324809D01*
X167017949Y-120324809D02*
X167136997Y-120324809D01*
X167136997Y-120324809D02*
X167208425Y-120348619D01*
X167208425Y-120348619D02*
X167256044Y-120396238D01*
X167256044Y-120396238D02*
X167279854Y-120443857D01*
X167279854Y-120443857D02*
X167303663Y-120539095D01*
X167303663Y-120539095D02*
X167303663Y-120610523D01*
X167303663Y-120610523D02*
X167279854Y-120705761D01*
X167279854Y-120705761D02*
X167256044Y-120753380D01*
X167256044Y-120753380D02*
X167208425Y-120801000D01*
X167208425Y-120801000D02*
X167136997Y-120824809D01*
X167136997Y-120824809D02*
X167017949Y-120824809D01*
X167494140Y-120372428D02*
X167517949Y-120348619D01*
X167517949Y-120348619D02*
X167565568Y-120324809D01*
X167565568Y-120324809D02*
X167684616Y-120324809D01*
X167684616Y-120324809D02*
X167732235Y-120348619D01*
X167732235Y-120348619D02*
X167756044Y-120372428D01*
X167756044Y-120372428D02*
X167779854Y-120420047D01*
X167779854Y-120420047D02*
X167779854Y-120467666D01*
X167779854Y-120467666D02*
X167756044Y-120539095D01*
X167756044Y-120539095D02*
X167470330Y-120824809D01*
X167470330Y-120824809D02*
X167779854Y-120824809D01*
X168089377Y-120324809D02*
X168136996Y-120324809D01*
X168136996Y-120324809D02*
X168184615Y-120348619D01*
X168184615Y-120348619D02*
X168208425Y-120372428D01*
X168208425Y-120372428D02*
X168232234Y-120420047D01*
X168232234Y-120420047D02*
X168256044Y-120515285D01*
X168256044Y-120515285D02*
X168256044Y-120634333D01*
X168256044Y-120634333D02*
X168232234Y-120729571D01*
X168232234Y-120729571D02*
X168208425Y-120777190D01*
X168208425Y-120777190D02*
X168184615Y-120801000D01*
X168184615Y-120801000D02*
X168136996Y-120824809D01*
X168136996Y-120824809D02*
X168089377Y-120824809D01*
X168089377Y-120824809D02*
X168041758Y-120801000D01*
X168041758Y-120801000D02*
X168017949Y-120777190D01*
X168017949Y-120777190D02*
X167994139Y-120729571D01*
X167994139Y-120729571D02*
X167970330Y-120634333D01*
X167970330Y-120634333D02*
X167970330Y-120515285D01*
X167970330Y-120515285D02*
X167994139Y-120420047D01*
X167994139Y-120420047D02*
X168017949Y-120372428D01*
X168017949Y-120372428D02*
X168041758Y-120348619D01*
X168041758Y-120348619D02*
X168089377Y-120324809D01*
X168422710Y-120324809D02*
X168732234Y-120324809D01*
X168732234Y-120324809D02*
X168565567Y-120515285D01*
X168565567Y-120515285D02*
X168636996Y-120515285D01*
X168636996Y-120515285D02*
X168684615Y-120539095D01*
X168684615Y-120539095D02*
X168708424Y-120562904D01*
X168708424Y-120562904D02*
X168732234Y-120610523D01*
X168732234Y-120610523D02*
X168732234Y-120729571D01*
X168732234Y-120729571D02*
X168708424Y-120777190D01*
X168708424Y-120777190D02*
X168684615Y-120801000D01*
X168684615Y-120801000D02*
X168636996Y-120824809D01*
X168636996Y-120824809D02*
X168494139Y-120824809D01*
X168494139Y-120824809D02*
X168446520Y-120801000D01*
X168446520Y-120801000D02*
X168422710Y-120777190D01*
D13*
X147620238Y-106188595D02*
X147608334Y-106200500D01*
X147608334Y-106200500D02*
X147572619Y-106212404D01*
X147572619Y-106212404D02*
X147548810Y-106212404D01*
X147548810Y-106212404D02*
X147513096Y-106200500D01*
X147513096Y-106200500D02*
X147489286Y-106176690D01*
X147489286Y-106176690D02*
X147477381Y-106152880D01*
X147477381Y-106152880D02*
X147465477Y-106105261D01*
X147465477Y-106105261D02*
X147465477Y-106069547D01*
X147465477Y-106069547D02*
X147477381Y-106021928D01*
X147477381Y-106021928D02*
X147489286Y-105998119D01*
X147489286Y-105998119D02*
X147513096Y-105974309D01*
X147513096Y-105974309D02*
X147548810Y-105962404D01*
X147548810Y-105962404D02*
X147572619Y-105962404D01*
X147572619Y-105962404D02*
X147608334Y-105974309D01*
X147608334Y-105974309D02*
X147620238Y-105986214D01*
X147703572Y-105962404D02*
X147858334Y-105962404D01*
X147858334Y-105962404D02*
X147775000Y-106057642D01*
X147775000Y-106057642D02*
X147810715Y-106057642D01*
X147810715Y-106057642D02*
X147834524Y-106069547D01*
X147834524Y-106069547D02*
X147846429Y-106081452D01*
X147846429Y-106081452D02*
X147858334Y-106105261D01*
X147858334Y-106105261D02*
X147858334Y-106164785D01*
X147858334Y-106164785D02*
X147846429Y-106188595D01*
X147846429Y-106188595D02*
X147834524Y-106200500D01*
X147834524Y-106200500D02*
X147810715Y-106212404D01*
X147810715Y-106212404D02*
X147739286Y-106212404D01*
X147739286Y-106212404D02*
X147715477Y-106200500D01*
X147715477Y-106200500D02*
X147703572Y-106188595D01*
X148013095Y-105962404D02*
X148036905Y-105962404D01*
X148036905Y-105962404D02*
X148060714Y-105974309D01*
X148060714Y-105974309D02*
X148072619Y-105986214D01*
X148072619Y-105986214D02*
X148084524Y-106010023D01*
X148084524Y-106010023D02*
X148096429Y-106057642D01*
X148096429Y-106057642D02*
X148096429Y-106117166D01*
X148096429Y-106117166D02*
X148084524Y-106164785D01*
X148084524Y-106164785D02*
X148072619Y-106188595D01*
X148072619Y-106188595D02*
X148060714Y-106200500D01*
X148060714Y-106200500D02*
X148036905Y-106212404D01*
X148036905Y-106212404D02*
X148013095Y-106212404D01*
X148013095Y-106212404D02*
X147989286Y-106200500D01*
X147989286Y-106200500D02*
X147977381Y-106188595D01*
X147977381Y-106188595D02*
X147965476Y-106164785D01*
X147965476Y-106164785D02*
X147953572Y-106117166D01*
X147953572Y-106117166D02*
X147953572Y-106057642D01*
X147953572Y-106057642D02*
X147965476Y-106010023D01*
X147965476Y-106010023D02*
X147977381Y-105986214D01*
X147977381Y-105986214D02*
X147989286Y-105974309D01*
X147989286Y-105974309D02*
X148013095Y-105962404D01*
X148310714Y-106045738D02*
X148310714Y-106212404D01*
X148251190Y-105950500D02*
X148191667Y-106129071D01*
X148191667Y-106129071D02*
X148346428Y-106129071D01*
D11*
X143542857Y-105824809D02*
X143542857Y-106229571D01*
X143542857Y-106229571D02*
X143566667Y-106277190D01*
X143566667Y-106277190D02*
X143590476Y-106301000D01*
X143590476Y-106301000D02*
X143638095Y-106324809D01*
X143638095Y-106324809D02*
X143733333Y-106324809D01*
X143733333Y-106324809D02*
X143780952Y-106301000D01*
X143780952Y-106301000D02*
X143804762Y-106277190D01*
X143804762Y-106277190D02*
X143828571Y-106229571D01*
X143828571Y-106229571D02*
X143828571Y-105824809D01*
X144019048Y-105824809D02*
X144328572Y-105824809D01*
X144328572Y-105824809D02*
X144161905Y-106015285D01*
X144161905Y-106015285D02*
X144233334Y-106015285D01*
X144233334Y-106015285D02*
X144280953Y-106039095D01*
X144280953Y-106039095D02*
X144304762Y-106062904D01*
X144304762Y-106062904D02*
X144328572Y-106110523D01*
X144328572Y-106110523D02*
X144328572Y-106229571D01*
X144328572Y-106229571D02*
X144304762Y-106277190D01*
X144304762Y-106277190D02*
X144280953Y-106301000D01*
X144280953Y-106301000D02*
X144233334Y-106324809D01*
X144233334Y-106324809D02*
X144090477Y-106324809D01*
X144090477Y-106324809D02*
X144042858Y-106301000D01*
X144042858Y-106301000D02*
X144019048Y-106277190D01*
X144638095Y-105824809D02*
X144685714Y-105824809D01*
X144685714Y-105824809D02*
X144733333Y-105848619D01*
X144733333Y-105848619D02*
X144757143Y-105872428D01*
X144757143Y-105872428D02*
X144780952Y-105920047D01*
X144780952Y-105920047D02*
X144804762Y-106015285D01*
X144804762Y-106015285D02*
X144804762Y-106134333D01*
X144804762Y-106134333D02*
X144780952Y-106229571D01*
X144780952Y-106229571D02*
X144757143Y-106277190D01*
X144757143Y-106277190D02*
X144733333Y-106301000D01*
X144733333Y-106301000D02*
X144685714Y-106324809D01*
X144685714Y-106324809D02*
X144638095Y-106324809D01*
X144638095Y-106324809D02*
X144590476Y-106301000D01*
X144590476Y-106301000D02*
X144566667Y-106277190D01*
X144566667Y-106277190D02*
X144542857Y-106229571D01*
X144542857Y-106229571D02*
X144519048Y-106134333D01*
X144519048Y-106134333D02*
X144519048Y-106015285D01*
X144519048Y-106015285D02*
X144542857Y-105920047D01*
X144542857Y-105920047D02*
X144566667Y-105872428D01*
X144566667Y-105872428D02*
X144590476Y-105848619D01*
X144590476Y-105848619D02*
X144638095Y-105824809D01*
X145280952Y-106324809D02*
X144995238Y-106324809D01*
X145138095Y-106324809D02*
X145138095Y-105824809D01*
X145138095Y-105824809D02*
X145090476Y-105896238D01*
X145090476Y-105896238D02*
X145042857Y-105943857D01*
X145042857Y-105943857D02*
X144995238Y-105967666D01*
X167042857Y-86324809D02*
X167042857Y-85824809D01*
X167042857Y-86062904D02*
X167328571Y-86062904D01*
X167328571Y-86324809D02*
X167328571Y-85824809D01*
X167542858Y-85872428D02*
X167566667Y-85848619D01*
X167566667Y-85848619D02*
X167614286Y-85824809D01*
X167614286Y-85824809D02*
X167733334Y-85824809D01*
X167733334Y-85824809D02*
X167780953Y-85848619D01*
X167780953Y-85848619D02*
X167804762Y-85872428D01*
X167804762Y-85872428D02*
X167828572Y-85920047D01*
X167828572Y-85920047D02*
X167828572Y-85967666D01*
X167828572Y-85967666D02*
X167804762Y-86039095D01*
X167804762Y-86039095D02*
X167519048Y-86324809D01*
X167519048Y-86324809D02*
X167828572Y-86324809D01*
X168138095Y-85824809D02*
X168185714Y-85824809D01*
X168185714Y-85824809D02*
X168233333Y-85848619D01*
X168233333Y-85848619D02*
X168257143Y-85872428D01*
X168257143Y-85872428D02*
X168280952Y-85920047D01*
X168280952Y-85920047D02*
X168304762Y-86015285D01*
X168304762Y-86015285D02*
X168304762Y-86134333D01*
X168304762Y-86134333D02*
X168280952Y-86229571D01*
X168280952Y-86229571D02*
X168257143Y-86277190D01*
X168257143Y-86277190D02*
X168233333Y-86301000D01*
X168233333Y-86301000D02*
X168185714Y-86324809D01*
X168185714Y-86324809D02*
X168138095Y-86324809D01*
X168138095Y-86324809D02*
X168090476Y-86301000D01*
X168090476Y-86301000D02*
X168066667Y-86277190D01*
X168066667Y-86277190D02*
X168042857Y-86229571D01*
X168042857Y-86229571D02*
X168019048Y-86134333D01*
X168019048Y-86134333D02*
X168019048Y-86015285D01*
X168019048Y-86015285D02*
X168042857Y-85920047D01*
X168042857Y-85920047D02*
X168066667Y-85872428D01*
X168066667Y-85872428D02*
X168090476Y-85848619D01*
X168090476Y-85848619D02*
X168138095Y-85824809D01*
X168495238Y-85872428D02*
X168519047Y-85848619D01*
X168519047Y-85848619D02*
X168566666Y-85824809D01*
X168566666Y-85824809D02*
X168685714Y-85824809D01*
X168685714Y-85824809D02*
X168733333Y-85848619D01*
X168733333Y-85848619D02*
X168757142Y-85872428D01*
X168757142Y-85872428D02*
X168780952Y-85920047D01*
X168780952Y-85920047D02*
X168780952Y-85967666D01*
X168780952Y-85967666D02*
X168757142Y-86039095D01*
X168757142Y-86039095D02*
X168471428Y-86324809D01*
X168471428Y-86324809D02*
X168780952Y-86324809D01*
X166517950Y-82562904D02*
X166351283Y-82562904D01*
X166351283Y-82824809D02*
X166351283Y-82324809D01*
X166351283Y-82324809D02*
X166589378Y-82324809D01*
X166779854Y-82824809D02*
X166779854Y-82324809D01*
X167017949Y-82824809D02*
X167017949Y-82324809D01*
X167017949Y-82324809D02*
X167136997Y-82324809D01*
X167136997Y-82324809D02*
X167208425Y-82348619D01*
X167208425Y-82348619D02*
X167256044Y-82396238D01*
X167256044Y-82396238D02*
X167279854Y-82443857D01*
X167279854Y-82443857D02*
X167303663Y-82539095D01*
X167303663Y-82539095D02*
X167303663Y-82610523D01*
X167303663Y-82610523D02*
X167279854Y-82705761D01*
X167279854Y-82705761D02*
X167256044Y-82753380D01*
X167256044Y-82753380D02*
X167208425Y-82801000D01*
X167208425Y-82801000D02*
X167136997Y-82824809D01*
X167136997Y-82824809D02*
X167017949Y-82824809D01*
X167494140Y-82372428D02*
X167517949Y-82348619D01*
X167517949Y-82348619D02*
X167565568Y-82324809D01*
X167565568Y-82324809D02*
X167684616Y-82324809D01*
X167684616Y-82324809D02*
X167732235Y-82348619D01*
X167732235Y-82348619D02*
X167756044Y-82372428D01*
X167756044Y-82372428D02*
X167779854Y-82420047D01*
X167779854Y-82420047D02*
X167779854Y-82467666D01*
X167779854Y-82467666D02*
X167756044Y-82539095D01*
X167756044Y-82539095D02*
X167470330Y-82824809D01*
X167470330Y-82824809D02*
X167779854Y-82824809D01*
X168089377Y-82324809D02*
X168136996Y-82324809D01*
X168136996Y-82324809D02*
X168184615Y-82348619D01*
X168184615Y-82348619D02*
X168208425Y-82372428D01*
X168208425Y-82372428D02*
X168232234Y-82420047D01*
X168232234Y-82420047D02*
X168256044Y-82515285D01*
X168256044Y-82515285D02*
X168256044Y-82634333D01*
X168256044Y-82634333D02*
X168232234Y-82729571D01*
X168232234Y-82729571D02*
X168208425Y-82777190D01*
X168208425Y-82777190D02*
X168184615Y-82801000D01*
X168184615Y-82801000D02*
X168136996Y-82824809D01*
X168136996Y-82824809D02*
X168089377Y-82824809D01*
X168089377Y-82824809D02*
X168041758Y-82801000D01*
X168041758Y-82801000D02*
X168017949Y-82777190D01*
X168017949Y-82777190D02*
X167994139Y-82729571D01*
X167994139Y-82729571D02*
X167970330Y-82634333D01*
X167970330Y-82634333D02*
X167970330Y-82515285D01*
X167970330Y-82515285D02*
X167994139Y-82420047D01*
X167994139Y-82420047D02*
X168017949Y-82372428D01*
X168017949Y-82372428D02*
X168041758Y-82348619D01*
X168041758Y-82348619D02*
X168089377Y-82324809D01*
X168446520Y-82372428D02*
X168470329Y-82348619D01*
X168470329Y-82348619D02*
X168517948Y-82324809D01*
X168517948Y-82324809D02*
X168636996Y-82324809D01*
X168636996Y-82324809D02*
X168684615Y-82348619D01*
X168684615Y-82348619D02*
X168708424Y-82372428D01*
X168708424Y-82372428D02*
X168732234Y-82420047D01*
X168732234Y-82420047D02*
X168732234Y-82467666D01*
X168732234Y-82467666D02*
X168708424Y-82539095D01*
X168708424Y-82539095D02*
X168422710Y-82824809D01*
X168422710Y-82824809D02*
X168732234Y-82824809D01*
D13*
X160488595Y-98879761D02*
X160500500Y-98891665D01*
X160500500Y-98891665D02*
X160512404Y-98927380D01*
X160512404Y-98927380D02*
X160512404Y-98951189D01*
X160512404Y-98951189D02*
X160500500Y-98986903D01*
X160500500Y-98986903D02*
X160476690Y-99010713D01*
X160476690Y-99010713D02*
X160452880Y-99022618D01*
X160452880Y-99022618D02*
X160405261Y-99034522D01*
X160405261Y-99034522D02*
X160369547Y-99034522D01*
X160369547Y-99034522D02*
X160321928Y-99022618D01*
X160321928Y-99022618D02*
X160298119Y-99010713D01*
X160298119Y-99010713D02*
X160274309Y-98986903D01*
X160274309Y-98986903D02*
X160262404Y-98951189D01*
X160262404Y-98951189D02*
X160262404Y-98927380D01*
X160262404Y-98927380D02*
X160274309Y-98891665D01*
X160274309Y-98891665D02*
X160286214Y-98879761D01*
X160345738Y-98665475D02*
X160512404Y-98665475D01*
X160250500Y-98724999D02*
X160429071Y-98784522D01*
X160429071Y-98784522D02*
X160429071Y-98629761D01*
X160262404Y-98486904D02*
X160262404Y-98463094D01*
X160262404Y-98463094D02*
X160274309Y-98439285D01*
X160274309Y-98439285D02*
X160286214Y-98427380D01*
X160286214Y-98427380D02*
X160310023Y-98415475D01*
X160310023Y-98415475D02*
X160357642Y-98403570D01*
X160357642Y-98403570D02*
X160417166Y-98403570D01*
X160417166Y-98403570D02*
X160464785Y-98415475D01*
X160464785Y-98415475D02*
X160488595Y-98427380D01*
X160488595Y-98427380D02*
X160500500Y-98439285D01*
X160500500Y-98439285D02*
X160512404Y-98463094D01*
X160512404Y-98463094D02*
X160512404Y-98486904D01*
X160512404Y-98486904D02*
X160500500Y-98510713D01*
X160500500Y-98510713D02*
X160488595Y-98522618D01*
X160488595Y-98522618D02*
X160464785Y-98534523D01*
X160464785Y-98534523D02*
X160417166Y-98546427D01*
X160417166Y-98546427D02*
X160357642Y-98546427D01*
X160357642Y-98546427D02*
X160310023Y-98534523D01*
X160310023Y-98534523D02*
X160286214Y-98522618D01*
X160286214Y-98522618D02*
X160274309Y-98510713D01*
X160274309Y-98510713D02*
X160262404Y-98486904D01*
X160262404Y-98177380D02*
X160262404Y-98296428D01*
X160262404Y-98296428D02*
X160381452Y-98308332D01*
X160381452Y-98308332D02*
X160369547Y-98296428D01*
X160369547Y-98296428D02*
X160357642Y-98272618D01*
X160357642Y-98272618D02*
X160357642Y-98213094D01*
X160357642Y-98213094D02*
X160369547Y-98189285D01*
X160369547Y-98189285D02*
X160381452Y-98177380D01*
X160381452Y-98177380D02*
X160405261Y-98165475D01*
X160405261Y-98165475D02*
X160464785Y-98165475D01*
X160464785Y-98165475D02*
X160488595Y-98177380D01*
X160488595Y-98177380D02*
X160500500Y-98189285D01*
X160500500Y-98189285D02*
X160512404Y-98213094D01*
X160512404Y-98213094D02*
X160512404Y-98272618D01*
X160512404Y-98272618D02*
X160500500Y-98296428D01*
X160500500Y-98296428D02*
X160488595Y-98308332D01*
D11*
X140517950Y-120562904D02*
X140351283Y-120562904D01*
X140351283Y-120824809D02*
X140351283Y-120324809D01*
X140351283Y-120324809D02*
X140589378Y-120324809D01*
X140779854Y-120824809D02*
X140779854Y-120324809D01*
X141017949Y-120824809D02*
X141017949Y-120324809D01*
X141017949Y-120324809D02*
X141136997Y-120324809D01*
X141136997Y-120324809D02*
X141208425Y-120348619D01*
X141208425Y-120348619D02*
X141256044Y-120396238D01*
X141256044Y-120396238D02*
X141279854Y-120443857D01*
X141279854Y-120443857D02*
X141303663Y-120539095D01*
X141303663Y-120539095D02*
X141303663Y-120610523D01*
X141303663Y-120610523D02*
X141279854Y-120705761D01*
X141279854Y-120705761D02*
X141256044Y-120753380D01*
X141256044Y-120753380D02*
X141208425Y-120801000D01*
X141208425Y-120801000D02*
X141136997Y-120824809D01*
X141136997Y-120824809D02*
X141017949Y-120824809D01*
X141494140Y-120372428D02*
X141517949Y-120348619D01*
X141517949Y-120348619D02*
X141565568Y-120324809D01*
X141565568Y-120324809D02*
X141684616Y-120324809D01*
X141684616Y-120324809D02*
X141732235Y-120348619D01*
X141732235Y-120348619D02*
X141756044Y-120372428D01*
X141756044Y-120372428D02*
X141779854Y-120420047D01*
X141779854Y-120420047D02*
X141779854Y-120467666D01*
X141779854Y-120467666D02*
X141756044Y-120539095D01*
X141756044Y-120539095D02*
X141470330Y-120824809D01*
X141470330Y-120824809D02*
X141779854Y-120824809D01*
X142089377Y-120324809D02*
X142136996Y-120324809D01*
X142136996Y-120324809D02*
X142184615Y-120348619D01*
X142184615Y-120348619D02*
X142208425Y-120372428D01*
X142208425Y-120372428D02*
X142232234Y-120420047D01*
X142232234Y-120420047D02*
X142256044Y-120515285D01*
X142256044Y-120515285D02*
X142256044Y-120634333D01*
X142256044Y-120634333D02*
X142232234Y-120729571D01*
X142232234Y-120729571D02*
X142208425Y-120777190D01*
X142208425Y-120777190D02*
X142184615Y-120801000D01*
X142184615Y-120801000D02*
X142136996Y-120824809D01*
X142136996Y-120824809D02*
X142089377Y-120824809D01*
X142089377Y-120824809D02*
X142041758Y-120801000D01*
X142041758Y-120801000D02*
X142017949Y-120777190D01*
X142017949Y-120777190D02*
X141994139Y-120729571D01*
X141994139Y-120729571D02*
X141970330Y-120634333D01*
X141970330Y-120634333D02*
X141970330Y-120515285D01*
X141970330Y-120515285D02*
X141994139Y-120420047D01*
X141994139Y-120420047D02*
X142017949Y-120372428D01*
X142017949Y-120372428D02*
X142041758Y-120348619D01*
X142041758Y-120348619D02*
X142089377Y-120324809D01*
X142684615Y-120491476D02*
X142684615Y-120824809D01*
X142565567Y-120301000D02*
X142446520Y-120658142D01*
X142446520Y-120658142D02*
X142756043Y-120658142D01*
X136042857Y-117324809D02*
X136042857Y-116824809D01*
X136042857Y-117062904D02*
X136328571Y-117062904D01*
X136328571Y-117324809D02*
X136328571Y-116824809D01*
X136542858Y-116872428D02*
X136566667Y-116848619D01*
X136566667Y-116848619D02*
X136614286Y-116824809D01*
X136614286Y-116824809D02*
X136733334Y-116824809D01*
X136733334Y-116824809D02*
X136780953Y-116848619D01*
X136780953Y-116848619D02*
X136804762Y-116872428D01*
X136804762Y-116872428D02*
X136828572Y-116920047D01*
X136828572Y-116920047D02*
X136828572Y-116967666D01*
X136828572Y-116967666D02*
X136804762Y-117039095D01*
X136804762Y-117039095D02*
X136519048Y-117324809D01*
X136519048Y-117324809D02*
X136828572Y-117324809D01*
X137138095Y-116824809D02*
X137185714Y-116824809D01*
X137185714Y-116824809D02*
X137233333Y-116848619D01*
X137233333Y-116848619D02*
X137257143Y-116872428D01*
X137257143Y-116872428D02*
X137280952Y-116920047D01*
X137280952Y-116920047D02*
X137304762Y-117015285D01*
X137304762Y-117015285D02*
X137304762Y-117134333D01*
X137304762Y-117134333D02*
X137280952Y-117229571D01*
X137280952Y-117229571D02*
X137257143Y-117277190D01*
X137257143Y-117277190D02*
X137233333Y-117301000D01*
X137233333Y-117301000D02*
X137185714Y-117324809D01*
X137185714Y-117324809D02*
X137138095Y-117324809D01*
X137138095Y-117324809D02*
X137090476Y-117301000D01*
X137090476Y-117301000D02*
X137066667Y-117277190D01*
X137066667Y-117277190D02*
X137042857Y-117229571D01*
X137042857Y-117229571D02*
X137019048Y-117134333D01*
X137019048Y-117134333D02*
X137019048Y-117015285D01*
X137019048Y-117015285D02*
X137042857Y-116920047D01*
X137042857Y-116920047D02*
X137066667Y-116872428D01*
X137066667Y-116872428D02*
X137090476Y-116848619D01*
X137090476Y-116848619D02*
X137138095Y-116824809D01*
X137733333Y-116991476D02*
X137733333Y-117324809D01*
X137614285Y-116801000D02*
X137495238Y-117158142D01*
X137495238Y-117158142D02*
X137804761Y-117158142D01*
D14*
X137425000Y-91870000D02*
X136375000Y-91870000D01*
X137425000Y-91330000D02*
X137425000Y-91870000D01*
X136375000Y-91870000D02*
X136375000Y-91330000D01*
X136375000Y-91330000D02*
X137425000Y-91330000D01*
X139900000Y-82600000D02*
G75*
G03*
X138900000Y-82600000I-500000J0D01*
G01*
X138900000Y-82600000D02*
G75*
G03*
X139900000Y-82600000I500000J0D01*
G01*
X152000000Y-109900000D02*
X148800000Y-109900000D01*
X152000000Y-108300000D02*
X152000000Y-109900000D01*
X148800000Y-109900000D02*
X148800000Y-108300000D01*
X148800000Y-108300000D02*
X152000000Y-108300000D01*
X147250000Y-116850000D02*
X144050000Y-116850000D01*
X147250000Y-114350000D02*
X147250000Y-116850000D01*
X144050000Y-116850000D02*
X144050000Y-114350000D01*
X144050000Y-114350000D02*
X147250000Y-114350000D01*
D15*
X140150000Y-90600000D02*
X144650000Y-90600000D01*
X144650000Y-90600000D02*
X144650000Y-92600000D01*
X144650000Y-92600000D02*
X140150000Y-92600000D01*
X140150000Y-92600000D02*
X140150000Y-90600000D01*
D14*
X143500000Y-111600000D02*
G75*
G03*
X141300000Y-111600000I-1100000J0D01*
G01*
X141300000Y-111600000D02*
G75*
G03*
X143500000Y-111600000I1100000J0D01*
G01*
X163500000Y-91600000D02*
G75*
G03*
X161300000Y-91600000I-1100000J0D01*
G01*
X161300000Y-91600000D02*
G75*
G03*
X163500000Y-91600000I1100000J0D01*
G01*
X163500000Y-111600000D02*
G75*
G03*
X161300000Y-111600000I-1100000J0D01*
G01*
X161300000Y-111600000D02*
G75*
G03*
X163500000Y-111600000I1100000J0D01*
G01*
X153900000Y-94350000D02*
X154900000Y-94350000D01*
X153900000Y-94850000D02*
X153900000Y-94350000D01*
X154900000Y-94350000D02*
X154900000Y-94850000D01*
X154900000Y-94850000D02*
X153900000Y-94850000D01*
X158400000Y-99975000D02*
X160400000Y-99975000D01*
X158400000Y-101225000D02*
X158400000Y-99975000D01*
X160400000Y-99975000D02*
X160400000Y-101225000D01*
X160400000Y-101225000D02*
X158400000Y-101225000D01*
X169500000Y-117100000D02*
G75*
G03*
X166300000Y-117100000I-1600000J0D01*
G01*
X166300000Y-117100000D02*
G75*
G03*
X169500000Y-117100000I1600000J0D01*
G01*
X158400000Y-102350000D02*
X159400000Y-102350000D01*
X158400000Y-102850000D02*
X158400000Y-102350000D01*
X159400000Y-102350000D02*
X159400000Y-102850000D01*
X159400000Y-102850000D02*
X158400000Y-102850000D01*
D16*
X164525000Y-105250000D02*
X164525000Y-97950000D01*
X172275000Y-105250000D02*
X164525000Y-105250000D01*
X164525000Y-97950000D02*
X172275000Y-97950000D01*
X172275000Y-97950000D02*
X172275000Y-105250000D01*
D17*
X165550000Y-104850000D02*
G75*
G03*
X165250000Y-104850000I-150000J0D01*
G01*
X165250000Y-104850000D02*
G75*
G03*
X165550000Y-104850000I150000J0D01*
G01*
D14*
X153400000Y-109475000D02*
X155400000Y-109475000D01*
X153400000Y-110725000D02*
X153400000Y-109475000D01*
X155400000Y-109475000D02*
X155400000Y-110725000D01*
X155400000Y-110725000D02*
X153400000Y-110725000D01*
X153900000Y-95350000D02*
X154900000Y-95350000D01*
X153900000Y-95850000D02*
X153900000Y-95350000D01*
X154900000Y-95350000D02*
X154900000Y-95850000D01*
X154900000Y-95850000D02*
X153900000Y-95850000D01*
X133700000Y-111400000D02*
X133700000Y-111800000D01*
X133700000Y-111600000D02*
X133600000Y-111600000D01*
X133700000Y-111600000D02*
X134000000Y-111400000D01*
X134000000Y-111400000D02*
X134000000Y-111800000D01*
X134000000Y-111800000D02*
X133700000Y-111600000D01*
D18*
X134353900Y-111295200D02*
X134353900Y-111904800D01*
X134353900Y-111904800D02*
X135446100Y-111904800D01*
X135446100Y-111295200D02*
X134353900Y-111295200D01*
X135446100Y-111904800D02*
X135446100Y-111295200D01*
D14*
X140850000Y-93900000D02*
X131650000Y-93900000D01*
X131650000Y-93900000D02*
X131650000Y-109300000D01*
X139650000Y-96350000D02*
X140850000Y-95550000D01*
X140850000Y-97150000D02*
X139650000Y-96350000D01*
X140850000Y-109300000D02*
X140850000Y-93900000D01*
X131650000Y-109300000D02*
X140850000Y-109300000D01*
X153400000Y-92475000D02*
X155400000Y-92475000D01*
X153400000Y-93725000D02*
X153400000Y-92475000D01*
X155400000Y-92475000D02*
X155400000Y-93725000D01*
X155400000Y-93725000D02*
X153400000Y-93725000D01*
X148900000Y-99100000D02*
X149900000Y-98100000D01*
X148900000Y-105100000D02*
X148900000Y-99100000D01*
X149900000Y-98100000D02*
X155900000Y-98100000D01*
X155900000Y-98100000D02*
X155900000Y-105100000D01*
X155900000Y-105100000D02*
X148900000Y-105100000D01*
D17*
X148300000Y-98100000D02*
G75*
G03*
X148000000Y-98100000I-150000J0D01*
G01*
X148000000Y-98100000D02*
G75*
G03*
X148300000Y-98100000I150000J0D01*
G01*
D14*
X153900000Y-108350000D02*
X154900000Y-108350000D01*
X153900000Y-108850000D02*
X153900000Y-108350000D01*
X154900000Y-108350000D02*
X154900000Y-108850000D01*
X154900000Y-108850000D02*
X153900000Y-108850000D01*
X148150000Y-90150000D02*
X145150000Y-90150000D01*
X145850920Y-88499440D02*
X147451120Y-88499440D01*
X146651020Y-88499440D02*
X146651020Y-89401140D01*
X146651020Y-88499440D02*
X145850920Y-87348820D01*
X146651020Y-88499440D02*
X147400320Y-87348820D01*
X146651020Y-87348820D02*
X146651020Y-86350600D01*
X147400320Y-87348820D02*
X145850920Y-87348820D01*
X145150000Y-85550000D02*
X145150000Y-90150000D01*
X145150000Y-85550000D02*
X148150000Y-85550000D01*
X148150000Y-85550000D02*
X148150000Y-90150000D01*
X138900000Y-112225000D02*
X136900000Y-112225000D01*
X138900000Y-110975000D02*
X138900000Y-112225000D01*
X136900000Y-112225000D02*
X136900000Y-110975000D01*
X136900000Y-110975000D02*
X138900000Y-110975000D01*
X152000000Y-94900000D02*
X148800000Y-94900000D01*
X152000000Y-93300000D02*
X152000000Y-94900000D01*
X148800000Y-94900000D02*
X148800000Y-93300000D01*
X148800000Y-93300000D02*
X152000000Y-93300000D01*
X158670000Y-98075000D02*
X158670000Y-99125000D01*
X158130000Y-98075000D02*
X158670000Y-98075000D01*
X158670000Y-99125000D02*
X158130000Y-99125000D01*
X158130000Y-99125000D02*
X158130000Y-98075000D01*
X145650000Y-101850000D02*
X146650000Y-101850000D01*
X145650000Y-102350000D02*
X145650000Y-101850000D01*
X146650000Y-101850000D02*
X146650000Y-102350000D01*
X146650000Y-102350000D02*
X145650000Y-102350000D01*
X143400000Y-100600000D02*
X143300000Y-100500000D01*
X145500000Y-100600000D02*
X146500000Y-99600000D01*
X146400000Y-100600000D02*
X143400000Y-100600000D01*
X143300000Y-100500000D02*
X143300000Y-95700000D01*
X146500000Y-100500000D02*
X146400000Y-100600000D01*
X143300000Y-95700000D02*
X143400000Y-95600000D01*
X146500000Y-95700000D02*
X146500000Y-100500000D01*
X143400000Y-95600000D02*
X146400000Y-95600000D01*
X146400000Y-95600000D02*
X146500000Y-95700000D01*
X147400000Y-106850000D02*
X148400000Y-106850000D01*
X147400000Y-107350000D02*
X147400000Y-106850000D01*
X148400000Y-106850000D02*
X148400000Y-107350000D01*
X148400000Y-107350000D02*
X147400000Y-107350000D01*
X138500000Y-86100000D02*
G75*
G03*
X135300000Y-86100000I-1600000J0D01*
G01*
X135300000Y-86100000D02*
G75*
G03*
X138500000Y-86100000I1600000J0D01*
G01*
D16*
X150250000Y-112950000D02*
X150250000Y-118250000D01*
X150250000Y-118250000D02*
X151750000Y-119750000D01*
X151750000Y-111450000D02*
X150250000Y-112950000D01*
X151750000Y-119750000D02*
X158550000Y-119750000D01*
X158550000Y-111450000D02*
X151750000Y-111450000D01*
X158550000Y-119750000D02*
X158550000Y-111450000D01*
D15*
X149700000Y-113600000D02*
G75*
G03*
X149500000Y-113600000I-100000J0D01*
G01*
X149500000Y-113600000D02*
G75*
G03*
X149700000Y-113600000I100000J0D01*
G01*
D14*
X158200000Y-96500000D02*
X156600000Y-96500000D01*
X158200000Y-95700000D02*
X158200000Y-96500000D01*
X156600000Y-96500000D02*
X156600000Y-95700000D01*
X156600000Y-95700000D02*
X158200000Y-95700000D01*
X158670000Y-103575000D02*
X158670000Y-104625000D01*
X158130000Y-103575000D02*
X158670000Y-103575000D01*
X158670000Y-104625000D02*
X158130000Y-104625000D01*
X158130000Y-104625000D02*
X158130000Y-103575000D01*
X145650000Y-111100000D02*
X145650000Y-112100000D01*
X145150000Y-111100000D02*
X145650000Y-111100000D01*
X145650000Y-112100000D02*
X145150000Y-112100000D01*
X145150000Y-112100000D02*
X145150000Y-111100000D01*
X144400000Y-102725000D02*
X142400000Y-102725000D01*
X144400000Y-101475000D02*
X144400000Y-102725000D01*
X142400000Y-102725000D02*
X142400000Y-101475000D01*
X142400000Y-101475000D02*
X144400000Y-101475000D01*
X165900000Y-120600000D02*
G75*
G03*
X164900000Y-120600000I-500000J0D01*
G01*
X164900000Y-120600000D02*
G75*
G03*
X165900000Y-120600000I500000J0D01*
G01*
X147400000Y-105850000D02*
X148400000Y-105850000D01*
X147400000Y-106350000D02*
X147400000Y-105850000D01*
X148400000Y-105850000D02*
X148400000Y-106350000D01*
X148400000Y-106350000D02*
X147400000Y-106350000D01*
D19*
X146199999Y-108400000D02*
X142600001Y-108400000D01*
X146199999Y-103800000D02*
X146199999Y-108400000D01*
X146199999Y-103800000D02*
X142600001Y-103800000D01*
X142600001Y-103800000D02*
X142600001Y-108400000D01*
D17*
X147050000Y-108062000D02*
G75*
G03*
X146750000Y-108062000I-150000J0D01*
G01*
X146750000Y-108062000D02*
G75*
G03*
X147050000Y-108062000I150000J0D01*
G01*
D14*
X169500000Y-86100000D02*
G75*
G03*
X166300000Y-86100000I-1600000J0D01*
G01*
X166300000Y-86100000D02*
G75*
G03*
X169500000Y-86100000I1600000J0D01*
G01*
X165900000Y-82600000D02*
G75*
G03*
X164900000Y-82600000I-500000J0D01*
G01*
X164900000Y-82600000D02*
G75*
G03*
X165900000Y-82600000I500000J0D01*
G01*
X160650000Y-98100000D02*
X160650000Y-99100000D01*
X160150000Y-98100000D02*
X160650000Y-98100000D01*
X160650000Y-99100000D02*
X160150000Y-99100000D01*
X160150000Y-99100000D02*
X160150000Y-98100000D01*
D16*
X150250000Y-84950000D02*
X150250000Y-90250000D01*
X150250000Y-90250000D02*
X151750000Y-91750000D01*
X151750000Y-83450000D02*
X150250000Y-84950000D01*
X151750000Y-91750000D02*
X158550000Y-91750000D01*
X158550000Y-83450000D02*
X151750000Y-83450000D01*
X158550000Y-91750000D02*
X158550000Y-83450000D01*
D15*
X149700000Y-85600000D02*
G75*
G03*
X149500000Y-85600000I-100000J0D01*
G01*
X149500000Y-85600000D02*
G75*
G03*
X149700000Y-85600000I100000J0D01*
G01*
D14*
X139900000Y-120600000D02*
G75*
G03*
X138900000Y-120600000I-500000J0D01*
G01*
X138900000Y-120600000D02*
G75*
G03*
X139900000Y-120600000I500000J0D01*
G01*
X138500000Y-117100000D02*
G75*
G03*
X135300000Y-117100000I-1600000J0D01*
G01*
X135300000Y-117100000D02*
G75*
G03*
X138500000Y-117100000I1600000J0D01*
G01*
M02*
