G04 #@! TF.GenerationSoftware,KiCad,Pcbnew,7.0.11*
G04 #@! TF.CreationDate,2024-10-22T14:50:11-04:00*
G04 #@! TF.ProjectId,prism-pcb,70726973-6d2d-4706-9362-2e6b69636164,2.1*
G04 #@! TF.SameCoordinates,Original*
G04 #@! TF.FileFunction,Paste,Top*
G04 #@! TF.FilePolarity,Positive*
%FSLAX46Y46*%
G04 Gerber Fmt 4.6, Leading zero omitted, Abs format (unit mm)*
G04 Created by KiCad (PCBNEW 7.0.11) date 2024-10-22 14:50:11*
%MOMM*%
%LPD*%
G01*
G04 APERTURE LIST*
G04 Aperture macros list*
%AMRoundRect*
0 Rectangle with rounded corners*
0 $1 Rounding radius*
0 $2 $3 $4 $5 $6 $7 $8 $9 X,Y pos of 4 corners*
0 Add a 4 corners polygon primitive as box body*
4,1,4,$2,$3,$4,$5,$6,$7,$8,$9,$2,$3,0*
0 Add four circle primitives for the rounded corners*
1,1,$1+$1,$2,$3*
1,1,$1+$1,$4,$5*
1,1,$1+$1,$6,$7*
1,1,$1+$1,$8,$9*
0 Add four rect primitives between the rounded corners*
20,1,$1+$1,$2,$3,$4,$5,0*
20,1,$1+$1,$4,$5,$6,$7,0*
20,1,$1+$1,$6,$7,$8,$9,0*
20,1,$1+$1,$8,$9,$2,$3,0*%
%AMFreePoly0*
4,1,57,0.310454,0.500914,0.314650,0.501215,0.316895,0.499988,0.322751,0.499147,0.347130,0.483479,0.372568,0.469589,0.469589,0.372568,0.482119,0.355828,0.485300,0.353073,0.486021,0.350617,0.489565,0.345883,0.495723,0.317573,0.503891,0.289756,0.503891,-0.289756,0.500914,-0.310455,0.501215,-0.314651,0.499988,-0.316896,0.499147,-0.322751,0.483480,-0.347128,0.469589,-0.372568,
0.372568,-0.469589,0.355826,-0.482121,0.353073,-0.485300,0.350618,-0.486020,0.345883,-0.489566,0.317566,-0.495725,0.289756,-0.503891,-0.289756,-0.503891,-0.310455,-0.500914,-0.314651,-0.501215,-0.316896,-0.499988,-0.322751,-0.499147,-0.347128,-0.483480,-0.372568,-0.469589,-0.469589,-0.372568,-0.482121,-0.355826,-0.485300,-0.353073,-0.486020,-0.350618,-0.489566,-0.345883,-0.495725,-0.317566,
-0.503891,-0.289756,-0.503891,0.289756,-0.500914,0.310454,-0.501215,0.314650,-0.499988,0.316895,-0.499147,0.322751,-0.483479,0.347130,-0.469589,0.372568,-0.372568,0.469589,-0.355828,0.482119,-0.353073,0.485300,-0.350617,0.486021,-0.345883,0.489565,-0.317573,0.495723,-0.289756,0.503891,0.289756,0.503891,0.310454,0.500914,0.310454,0.500914,$1*%
G04 Aperture macros list end*
%ADD10RoundRect,0.250000X0.312500X0.625000X-0.312500X0.625000X-0.312500X-0.625000X0.312500X-0.625000X0*%
%ADD11RoundRect,0.140000X-0.140000X-0.170000X0.140000X-0.170000X0.140000X0.170000X-0.140000X0.170000X0*%
%ADD12RoundRect,0.250000X1.100000X-0.325000X1.100000X0.325000X-1.100000X0.325000X-1.100000X-0.325000X0*%
%ADD13RoundRect,0.250000X-0.250000X-0.475000X0.250000X-0.475000X0.250000X0.475000X-0.250000X0.475000X0*%
%ADD14RoundRect,0.140000X0.140000X0.170000X-0.140000X0.170000X-0.140000X-0.170000X0.140000X-0.170000X0*%
%ADD15RoundRect,0.140000X-0.170000X0.140000X-0.170000X-0.140000X0.170000X-0.140000X0.170000X0.140000X0*%
%ADD16R,3.550000X0.850000*%
%ADD17R,2.650000X0.850000*%
%ADD18R,0.700000X0.500000*%
%ADD19R,1.700000X1.700000*%
%ADD20RoundRect,0.150000X-0.425000X0.150000X-0.425000X-0.150000X0.425000X-0.150000X0.425000X0.150000X0*%
%ADD21RoundRect,0.075000X-0.500000X0.075000X-0.500000X-0.075000X0.500000X-0.075000X0.500000X0.075000X0*%
%ADD22O,2.000000X1.100000*%
%ADD23FreePoly0,0.000000*%
%ADD24RoundRect,0.075000X-0.662500X-0.075000X0.662500X-0.075000X0.662500X0.075000X-0.662500X0.075000X0*%
%ADD25RoundRect,0.075000X-0.075000X-0.662500X0.075000X-0.662500X0.075000X0.662500X-0.075000X0.662500X0*%
%ADD26RoundRect,0.135000X0.185000X-0.135000X0.185000X0.135000X-0.185000X0.135000X-0.185000X-0.135000X0*%
%ADD27RoundRect,0.250000X0.650000X-1.000000X0.650000X1.000000X-0.650000X1.000000X-0.650000X-1.000000X0*%
%ADD28RoundRect,0.250000X0.262500X0.450000X-0.262500X0.450000X-0.262500X-0.450000X0.262500X-0.450000X0*%
%ADD29RoundRect,0.135000X-0.185000X0.135000X-0.185000X-0.135000X0.185000X-0.135000X0.185000X0.135000X0*%
%ADD30RoundRect,0.140000X0.170000X-0.140000X0.170000X0.140000X-0.170000X0.140000X-0.170000X-0.140000X0*%
%ADD31R,1.800000X1.300000*%
%ADD32R,4.000000X2.000000*%
%ADD33R,0.500000X1.000000*%
%ADD34R,0.700000X1.000000*%
%ADD35RoundRect,0.135000X0.135000X0.185000X-0.135000X0.185000X-0.135000X-0.185000X0.135000X-0.185000X0*%
%ADD36RoundRect,0.225000X0.225000X0.250000X-0.225000X0.250000X-0.225000X-0.250000X0.225000X-0.250000X0*%
%ADD37RoundRect,0.250000X-0.475000X0.250000X-0.475000X-0.250000X0.475000X-0.250000X0.475000X0.250000X0*%
%ADD38R,0.900000X1.350000*%
%ADD39R,0.305000X0.889000*%
G04 APERTURE END LIST*
G36*
X167049999Y-92500500D02*
G01*
X167049999Y-92775500D01*
X166999999Y-92825500D01*
X166000001Y-92825500D01*
X165949999Y-92775500D01*
X165949999Y-92500500D01*
X166000001Y-92450500D01*
X166999999Y-92450500D01*
X167049999Y-92500500D01*
G37*
G36*
X167049999Y-93375001D02*
G01*
X167049999Y-93525001D01*
X166999999Y-93575001D01*
X166000001Y-93575001D01*
X165949999Y-93525001D01*
X165949999Y-93375001D01*
X166000001Y-93324999D01*
X166999999Y-93324999D01*
X167049999Y-93375001D01*
G37*
G36*
X166325500Y-94825001D02*
G01*
X166325500Y-94975001D01*
X166275500Y-95025000D01*
X166000499Y-95025000D01*
X165950499Y-94975001D01*
X165950499Y-94825001D01*
X166000499Y-94775001D01*
X166275500Y-94775001D01*
X166325500Y-94825001D01*
G37*
G36*
X166325500Y-95325000D02*
G01*
X166325500Y-95475000D01*
X166275500Y-95524999D01*
X166000499Y-95524999D01*
X165950499Y-95475000D01*
X165950499Y-95325000D01*
X166000499Y-95275000D01*
X166275500Y-95275000D01*
X166325500Y-95325000D01*
G37*
G36*
X166325500Y-95824999D02*
G01*
X166325500Y-95975001D01*
X166275500Y-96025001D01*
X166000499Y-96025001D01*
X165950499Y-95975001D01*
X165950499Y-95824999D01*
X166000499Y-95774999D01*
X166275500Y-95774999D01*
X166325500Y-95824999D01*
G37*
G36*
X166325500Y-96325000D02*
G01*
X166325500Y-96475000D01*
X166275500Y-96525000D01*
X166000499Y-96525000D01*
X165950499Y-96475000D01*
X165950499Y-96325000D01*
X166000499Y-96275000D01*
X166275500Y-96275000D01*
X166325500Y-96325000D01*
G37*
G36*
X167450001Y-94627501D02*
G01*
X167450001Y-95042501D01*
X167400001Y-95092501D01*
X166570000Y-95092501D01*
X166520000Y-95042501D01*
X166520000Y-94627501D01*
X166570000Y-94577501D01*
X167400001Y-94577501D01*
X167450001Y-94627501D01*
G37*
G36*
X167450001Y-95340001D02*
G01*
X167450001Y-95860000D01*
X167400001Y-95910000D01*
X166570000Y-95910000D01*
X166520000Y-95860000D01*
X166520000Y-95340001D01*
X166570000Y-95290001D01*
X167400001Y-95290001D01*
X167450001Y-95340001D01*
G37*
G36*
X167450001Y-96162499D02*
G01*
X167450001Y-96577499D01*
X167400001Y-96627499D01*
X166570000Y-96627499D01*
X166520000Y-96577499D01*
X166520000Y-96162499D01*
X166570000Y-96112499D01*
X167400001Y-96112499D01*
X167450001Y-96162499D01*
G37*
G36*
X167049999Y-93875000D02*
G01*
X167049999Y-94025000D01*
X166999999Y-94075000D01*
X166000001Y-94075000D01*
X165950001Y-94025000D01*
X165950001Y-93875000D01*
X166000001Y-93825000D01*
X166999999Y-93825000D01*
X167049999Y-93875000D01*
G37*
G36*
X167524999Y-92200002D02*
G01*
X167524999Y-92900001D01*
X167475000Y-92950001D01*
X167325000Y-92950001D01*
X167275000Y-92900001D01*
X167275000Y-92200002D01*
X167325000Y-92150000D01*
X167475000Y-92150000D01*
X167524999Y-92200002D01*
G37*
G36*
X168050000Y-92200500D02*
G01*
X168050000Y-93625501D01*
X168000000Y-93675501D01*
X167800000Y-93675501D01*
X167750000Y-93625501D01*
X167750000Y-92200500D01*
X167800000Y-92150500D01*
X168000000Y-92150500D01*
X168050000Y-92200500D01*
G37*
G36*
X169280000Y-95340001D02*
G01*
X169280000Y-95860000D01*
X169230000Y-95910000D01*
X168399999Y-95910000D01*
X168349999Y-95860000D01*
X168349999Y-95340001D01*
X168399999Y-95290001D01*
X169230000Y-95290001D01*
X169280000Y-95340001D01*
G37*
G36*
X168525000Y-92200002D02*
G01*
X168525000Y-92900001D01*
X168475000Y-92950001D01*
X168325000Y-92950001D01*
X168275001Y-92900001D01*
X168275001Y-92200002D01*
X168325000Y-92150002D01*
X168475000Y-92150002D01*
X168525000Y-92200002D01*
G37*
G36*
X169850001Y-93375001D02*
G01*
X169850001Y-93525001D01*
X169799999Y-93575001D01*
X168800001Y-93575001D01*
X168750001Y-93525001D01*
X168750001Y-93375001D01*
X168800001Y-93324999D01*
X169799999Y-93324999D01*
X169850001Y-93375001D01*
G37*
G36*
X169849999Y-93875000D02*
G01*
X169849999Y-94025000D01*
X169799999Y-94075000D01*
X168800001Y-94075000D01*
X168750001Y-94025000D01*
X168750001Y-93875000D01*
X168800001Y-93825000D01*
X169799999Y-93825000D01*
X169849999Y-93875000D01*
G37*
G36*
X169280000Y-94627501D02*
G01*
X169280000Y-95042501D01*
X169230000Y-95092501D01*
X168399999Y-95092501D01*
X168349999Y-95042501D01*
X168349999Y-94627501D01*
X168399999Y-94577501D01*
X169230000Y-94577501D01*
X169280000Y-94627501D01*
G37*
G36*
X169280000Y-96162499D02*
G01*
X169280000Y-96577499D01*
X169230000Y-96627499D01*
X168399999Y-96627499D01*
X168349999Y-96577499D01*
X168349999Y-96162499D01*
X168399999Y-96112499D01*
X169230000Y-96112499D01*
X169280000Y-96162499D01*
G37*
G36*
X169849501Y-94825001D02*
G01*
X169849501Y-94975001D01*
X169799501Y-95025000D01*
X169524500Y-95025000D01*
X169474500Y-94975001D01*
X169474500Y-94825001D01*
X169524500Y-94775001D01*
X169799501Y-94775001D01*
X169849501Y-94825001D01*
G37*
G36*
X169849501Y-95325000D02*
G01*
X169849501Y-95475000D01*
X169799501Y-95524999D01*
X169524500Y-95524999D01*
X169474500Y-95475000D01*
X169474500Y-95325000D01*
X169524500Y-95275000D01*
X169799501Y-95275000D01*
X169849501Y-95325000D01*
G37*
G36*
X169849501Y-95824999D02*
G01*
X169849501Y-95975001D01*
X169799501Y-96025001D01*
X169524500Y-96025001D01*
X169474500Y-95975001D01*
X169474500Y-95824999D01*
X169524500Y-95774999D01*
X169799501Y-95774999D01*
X169849501Y-95824999D01*
G37*
G36*
X169849501Y-96325000D02*
G01*
X169849501Y-96475000D01*
X169799501Y-96525000D01*
X169524500Y-96525000D01*
X169474500Y-96475000D01*
X169474500Y-96325000D01*
X169524500Y-96275000D01*
X169799501Y-96275000D01*
X169849501Y-96325000D01*
G37*
G36*
X169850001Y-92500500D02*
G01*
X169850001Y-92775500D01*
X169799999Y-92825500D01*
X168800001Y-92825500D01*
X168750001Y-92775500D01*
X168750001Y-92500500D01*
X168800001Y-92450500D01*
X169799999Y-92450500D01*
X169850001Y-92500500D01*
G37*
D10*
X151862500Y-109100000D03*
X148937500Y-109100000D03*
D11*
X137170000Y-107600000D03*
X138130000Y-107600000D03*
D12*
X162900000Y-92825000D03*
X162900000Y-89875000D03*
D11*
X154880000Y-94600000D03*
X153920000Y-94600000D03*
D13*
X158700000Y-100600000D03*
X160600000Y-100600000D03*
D14*
X140130000Y-107600000D03*
X139170000Y-107600000D03*
D15*
X148150000Y-105870000D03*
X148150000Y-106830000D03*
D16*
X169250000Y-103850000D03*
X169250000Y-102350000D03*
X169250000Y-100850000D03*
X169250000Y-99350000D03*
D17*
X165350000Y-103850000D03*
X165350000Y-102350000D03*
X165350000Y-100850000D03*
X165350000Y-99350000D03*
D13*
X153450000Y-110100000D03*
X155350000Y-110100000D03*
D11*
X153920000Y-95600000D03*
X154880000Y-95600000D03*
D18*
X135450000Y-94850000D03*
X136350000Y-94850000D03*
D19*
X135450000Y-96580000D03*
X135450000Y-106620000D03*
D20*
X139975000Y-98400000D03*
X139975000Y-99200000D03*
D21*
X139975000Y-100350000D03*
X139975000Y-101350000D03*
X139975000Y-101850000D03*
X139975000Y-102850000D03*
D20*
X139975000Y-104000000D03*
X139975000Y-104800000D03*
X139975000Y-104800000D03*
X139975000Y-104000000D03*
D21*
X139975000Y-103350000D03*
X139975000Y-102350000D03*
X139975000Y-100850000D03*
X139975000Y-99850000D03*
D20*
X139975000Y-99200000D03*
X139975000Y-98400000D03*
D22*
X139400000Y-97280000D03*
X139400000Y-105920000D03*
D13*
X153450000Y-93100000D03*
X155350000Y-93100000D03*
D23*
X150712500Y-99912500D03*
X150712500Y-101037500D03*
X150712500Y-102162500D03*
X150712500Y-103287500D03*
X151837500Y-99912500D03*
X151837500Y-101037500D03*
X151837500Y-102162500D03*
X151837500Y-103287500D03*
X152962500Y-99912500D03*
X152962500Y-101037500D03*
X152962500Y-102162500D03*
X152962500Y-103287500D03*
X154087500Y-99912500D03*
X154087500Y-101037500D03*
X154087500Y-102162500D03*
X154087500Y-103287500D03*
D24*
X148237500Y-98850000D03*
X148237500Y-99350000D03*
X148237500Y-99850000D03*
X148237500Y-100350000D03*
X148237500Y-100850000D03*
X148237500Y-101350000D03*
X148237500Y-101850000D03*
X148237500Y-102350000D03*
X148237500Y-102850000D03*
X148237500Y-103350000D03*
X148237500Y-103850000D03*
X148237500Y-104350000D03*
D25*
X149650000Y-105762500D03*
X150150000Y-105762500D03*
X150650000Y-105762500D03*
X151150000Y-105762500D03*
X151650000Y-105762500D03*
X152150000Y-105762500D03*
X152650000Y-105762500D03*
X153150000Y-105762500D03*
X153650000Y-105762500D03*
X154150000Y-105762500D03*
X154650000Y-105762500D03*
X155150000Y-105762500D03*
D24*
X156562500Y-104350000D03*
X156562500Y-103850000D03*
X156562500Y-103350000D03*
X156562500Y-102850000D03*
X156562500Y-102350000D03*
X156562500Y-101850000D03*
X156562500Y-101350000D03*
X156562500Y-100850000D03*
X156562500Y-100350000D03*
X156562500Y-99850000D03*
X156562500Y-99350000D03*
X156562500Y-98850000D03*
D25*
X155150000Y-97437500D03*
X154650000Y-97437500D03*
X154150000Y-97437500D03*
X153650000Y-97437500D03*
X153150000Y-97437500D03*
X152650000Y-97437500D03*
X152150000Y-97437500D03*
X151650000Y-97437500D03*
X151150000Y-97437500D03*
X150650000Y-97437500D03*
X150150000Y-97437500D03*
X149650000Y-97437500D03*
D26*
X146150000Y-101860000D03*
X146150000Y-100840000D03*
D11*
X153920000Y-108600000D03*
X154880000Y-108600000D03*
D27*
X146650000Y-89850000D03*
X146650000Y-85850000D03*
D28*
X139812500Y-94850000D03*
X137987500Y-94850000D03*
D10*
X151862500Y-94100000D03*
X148937500Y-94100000D03*
D29*
X159650000Y-97840000D03*
X159650000Y-98860000D03*
D30*
X148400000Y-96830000D03*
X148400000Y-95870000D03*
D31*
X146170000Y-94200000D03*
X143630000Y-94200000D03*
X143630000Y-96500000D03*
X146170000Y-96500000D03*
D30*
X165150000Y-93830000D03*
X165150000Y-92870000D03*
D32*
X150850000Y-115600000D03*
X157950000Y-115600000D03*
D33*
X138275000Y-112750000D03*
X137525000Y-112750000D03*
D34*
X135600000Y-112750000D03*
D33*
X135525000Y-109950000D03*
X136275000Y-109950000D03*
D34*
X138200000Y-109950000D03*
D35*
X146160000Y-107600000D03*
X145140000Y-107600000D03*
D36*
X158175000Y-96100000D03*
X156625000Y-96100000D03*
D35*
X142160000Y-107600000D03*
X141140000Y-107600000D03*
D14*
X169880000Y-91100000D03*
X168920000Y-91100000D03*
D37*
X163650000Y-95150000D03*
X163650000Y-97050000D03*
D35*
X144160000Y-107600000D03*
X143140000Y-107600000D03*
D15*
X165150000Y-95120000D03*
X165150000Y-96080000D03*
X160650000Y-97870000D03*
X160650000Y-98830000D03*
D32*
X150850000Y-87600000D03*
X157950000Y-87600000D03*
D38*
X142900000Y-109075000D03*
X140400000Y-109075000D03*
X140400000Y-113625000D03*
X142900000Y-113625000D03*
D30*
X142400000Y-100830000D03*
X142400000Y-99870000D03*
D39*
X144900000Y-101930500D03*
X144400000Y-101930500D03*
X143900000Y-101930500D03*
X143400000Y-101930500D03*
X142900000Y-101930500D03*
X142400000Y-101930500D03*
X141900000Y-101930500D03*
X141400000Y-101930500D03*
X141400000Y-106269500D03*
X141900000Y-106269500D03*
X142400000Y-106269500D03*
X142900000Y-106269500D03*
X143400000Y-106269500D03*
X143900000Y-106269500D03*
X144400000Y-106269500D03*
X144900000Y-106269500D03*
M02*
