G04 #@! TF.GenerationSoftware,KiCad,Pcbnew,7.0.11*
G04 #@! TF.CreationDate,2024-10-21T13:11:56-04:00*
G04 #@! TF.ProjectId,prism-pcb,70726973-6d2d-4706-9362-2e6b69636164,1.4*
G04 #@! TF.SameCoordinates,Original*
G04 #@! TF.FileFunction,Soldermask,Top*
G04 #@! TF.FilePolarity,Negative*
%FSLAX46Y46*%
G04 Gerber Fmt 4.6, Leading zero omitted, Abs format (unit mm)*
G04 Created by KiCad (PCBNEW 7.0.11) date 2024-10-21 13:11:56*
%MOMM*%
%LPD*%
G01*
G04 APERTURE LIST*
G04 Aperture macros list*
%AMRoundRect*
0 Rectangle with rounded corners*
0 $1 Rounding radius*
0 $2 $3 $4 $5 $6 $7 $8 $9 X,Y pos of 4 corners*
0 Add a 4 corners polygon primitive as box body*
4,1,4,$2,$3,$4,$5,$6,$7,$8,$9,$2,$3,0*
0 Add four circle primitives for the rounded corners*
1,1,$1+$1,$2,$3*
1,1,$1+$1,$4,$5*
1,1,$1+$1,$6,$7*
1,1,$1+$1,$8,$9*
0 Add four rect primitives between the rounded corners*
20,1,$1+$1,$2,$3,$4,$5,0*
20,1,$1+$1,$4,$5,$6,$7,0*
20,1,$1+$1,$6,$7,$8,$9,0*
20,1,$1+$1,$8,$9,$2,$3,0*%
G04 Aperture macros list end*
%ADD10C,0.010000*%
%ADD11C,1.000000*%
%ADD12RoundRect,0.250000X0.312500X0.625000X-0.312500X0.625000X-0.312500X-0.625000X0.312500X-0.625000X0*%
%ADD13RoundRect,0.250000X1.100000X-0.325000X1.100000X0.325000X-1.100000X0.325000X-1.100000X-0.325000X0*%
%ADD14RoundRect,0.140000X-0.140000X-0.170000X0.140000X-0.170000X0.140000X0.170000X-0.140000X0.170000X0*%
%ADD15RoundRect,0.250000X-0.250000X-0.475000X0.250000X-0.475000X0.250000X0.475000X-0.250000X0.475000X0*%
%ADD16C,6.400000*%
%ADD17RoundRect,0.140000X-0.170000X0.140000X-0.170000X-0.140000X0.170000X-0.140000X0.170000X0.140000X0*%
%ADD18R,0.700000X0.500000*%
%ADD19R,1.700000X1.700000*%
%ADD20C,0.650000*%
%ADD21O,2.000000X1.100000*%
%ADD22RoundRect,0.150000X-0.425000X0.150000X-0.425000X-0.150000X0.425000X-0.150000X0.425000X0.150000X0*%
%ADD23RoundRect,0.075000X-0.500000X0.075000X-0.500000X-0.075000X0.500000X-0.075000X0.500000X0.075000X0*%
%ADD24RoundRect,0.075000X-0.662500X-0.075000X0.662500X-0.075000X0.662500X0.075000X-0.662500X0.075000X0*%
%ADD25RoundRect,0.075000X-0.075000X-0.662500X0.075000X-0.662500X0.075000X0.662500X-0.075000X0.662500X0*%
%ADD26R,5.000000X5.000000*%
%ADD27RoundRect,0.250000X1.000000X0.650000X-1.000000X0.650000X-1.000000X-0.650000X1.000000X-0.650000X0*%
%ADD28RoundRect,0.250000X0.262500X0.450000X-0.262500X0.450000X-0.262500X-0.450000X0.262500X-0.450000X0*%
%ADD29RoundRect,0.135000X-0.185000X0.135000X-0.185000X-0.135000X0.185000X-0.135000X0.185000X0.135000X0*%
%ADD30RoundRect,0.140000X0.170000X-0.140000X0.170000X0.140000X-0.170000X0.140000X-0.170000X-0.140000X0*%
%ADD31R,1.300000X1.800000*%
%ADD32RoundRect,0.102000X-2.000000X-1.000000X2.000000X-1.000000X2.000000X1.000000X-2.000000X1.000000X0*%
%ADD33RoundRect,0.225000X0.225000X0.250000X-0.225000X0.250000X-0.225000X-0.250000X0.225000X-0.250000X0*%
%ADD34RoundRect,0.140000X0.140000X0.170000X-0.140000X0.170000X-0.140000X-0.170000X0.140000X-0.170000X0*%
%ADD35RoundRect,0.250000X-0.475000X0.250000X-0.475000X-0.250000X0.475000X-0.250000X0.475000X0.250000X0*%
G04 APERTURE END LIST*
D10*
X166751200Y-104351200D02*
X163948800Y-104351200D01*
X163948800Y-103348800D01*
X166751200Y-103348800D01*
X166751200Y-104351200D01*
G36*
X166751200Y-104351200D02*
G01*
X163948800Y-104351200D01*
X163948800Y-103348800D01*
X166751200Y-103348800D01*
X166751200Y-104351200D01*
G37*
X171101200Y-104351200D02*
X167398800Y-104351200D01*
X167398800Y-103348800D01*
X171101200Y-103348800D01*
X171101200Y-104351200D01*
G36*
X171101200Y-104351200D02*
G01*
X167398800Y-104351200D01*
X167398800Y-103348800D01*
X171101200Y-103348800D01*
X171101200Y-104351200D01*
G37*
X166751200Y-102851200D02*
X163948800Y-102851200D01*
X163948800Y-101848800D01*
X166751200Y-101848800D01*
X166751200Y-102851200D01*
G36*
X166751200Y-102851200D02*
G01*
X163948800Y-102851200D01*
X163948800Y-101848800D01*
X166751200Y-101848800D01*
X166751200Y-102851200D01*
G37*
X171101200Y-102851200D02*
X167398800Y-102851200D01*
X167398800Y-101848800D01*
X171101200Y-101848800D01*
X171101200Y-102851200D01*
G36*
X171101200Y-102851200D02*
G01*
X167398800Y-102851200D01*
X167398800Y-101848800D01*
X171101200Y-101848800D01*
X171101200Y-102851200D01*
G37*
X166751200Y-101351200D02*
X163948800Y-101351200D01*
X163948800Y-100348800D01*
X166751200Y-100348800D01*
X166751200Y-101351200D01*
G36*
X166751200Y-101351200D02*
G01*
X163948800Y-101351200D01*
X163948800Y-100348800D01*
X166751200Y-100348800D01*
X166751200Y-101351200D01*
G37*
X171101200Y-101351200D02*
X167398800Y-101351200D01*
X167398800Y-100348800D01*
X171101200Y-100348800D01*
X171101200Y-101351200D01*
G36*
X171101200Y-101351200D02*
G01*
X167398800Y-101351200D01*
X167398800Y-100348800D01*
X171101200Y-100348800D01*
X171101200Y-101351200D01*
G37*
X166751200Y-99851200D02*
X163948800Y-99851200D01*
X163948800Y-98848800D01*
X166751200Y-98848800D01*
X166751200Y-99851200D01*
G36*
X166751200Y-99851200D02*
G01*
X163948800Y-99851200D01*
X163948800Y-98848800D01*
X166751200Y-98848800D01*
X166751200Y-99851200D01*
G37*
X171101200Y-99851200D02*
X167398800Y-99851200D01*
X167398800Y-98848800D01*
X171101200Y-98848800D01*
X171101200Y-99851200D01*
G36*
X171101200Y-99851200D02*
G01*
X167398800Y-99851200D01*
X167398800Y-98848800D01*
X171101200Y-98848800D01*
X171101200Y-99851200D01*
G37*
G36*
X167049999Y-92000500D02*
G01*
X167049999Y-92275500D01*
X166999999Y-92325500D01*
X166000001Y-92325500D01*
X165949999Y-92275500D01*
X165949999Y-92000500D01*
X166000001Y-91950500D01*
X166999999Y-91950500D01*
X167049999Y-92000500D01*
G37*
G36*
X167049999Y-92875001D02*
G01*
X167049999Y-93025001D01*
X166999999Y-93075001D01*
X166000001Y-93075001D01*
X165949999Y-93025001D01*
X165949999Y-92875001D01*
X166000001Y-92824999D01*
X166999999Y-92824999D01*
X167049999Y-92875001D01*
G37*
G36*
X167049999Y-93375000D02*
G01*
X167049999Y-93525000D01*
X166999999Y-93575000D01*
X166000001Y-93575000D01*
X165950001Y-93525000D01*
X165950001Y-93375000D01*
X166000001Y-93325000D01*
X166999999Y-93325000D01*
X167049999Y-93375000D01*
G37*
G36*
X167524999Y-91700002D02*
G01*
X167524999Y-92400001D01*
X167475000Y-92450001D01*
X167325000Y-92450001D01*
X167275000Y-92400001D01*
X167275000Y-91700002D01*
X167325000Y-91650000D01*
X167475000Y-91650000D01*
X167524999Y-91700002D01*
G37*
G36*
X168050000Y-91700500D02*
G01*
X168050000Y-93125501D01*
X168000000Y-93175501D01*
X167800000Y-93175501D01*
X167750000Y-93125501D01*
X167750000Y-91700500D01*
X167800000Y-91650500D01*
X168000000Y-91650500D01*
X168050000Y-91700500D01*
G37*
G36*
X168525000Y-91700002D02*
G01*
X168525000Y-92400001D01*
X168475000Y-92450001D01*
X168325000Y-92450001D01*
X168275001Y-92400001D01*
X168275001Y-91700002D01*
X168325000Y-91650002D01*
X168475000Y-91650002D01*
X168525000Y-91700002D01*
G37*
G36*
X169850001Y-92875001D02*
G01*
X169850001Y-93025001D01*
X169799999Y-93075001D01*
X168800001Y-93075001D01*
X168750001Y-93025001D01*
X168750001Y-92875001D01*
X168800001Y-92824999D01*
X169799999Y-92824999D01*
X169850001Y-92875001D01*
G37*
G36*
X169849999Y-93375000D02*
G01*
X169849999Y-93525000D01*
X169799999Y-93575000D01*
X168800001Y-93575000D01*
X168750001Y-93525000D01*
X168750001Y-93375000D01*
X168800001Y-93325000D01*
X169799999Y-93325000D01*
X169849999Y-93375000D01*
G37*
G36*
X169850001Y-92000500D02*
G01*
X169850001Y-92275500D01*
X169799999Y-92325500D01*
X168800001Y-92325500D01*
X168750001Y-92275500D01*
X168750001Y-92000500D01*
X168800001Y-91950500D01*
X169799999Y-91950500D01*
X169850001Y-92000500D01*
G37*
G36*
X167400001Y-94075011D02*
G01*
X167450001Y-94125001D01*
X167450003Y-96074997D01*
X167400004Y-96125000D01*
X166375002Y-96125000D01*
X166324999Y-96074997D01*
X166324999Y-96075000D01*
X166274999Y-96025000D01*
X166000001Y-96025000D01*
X165949999Y-95975000D01*
X165949999Y-95825000D01*
X166000001Y-95775000D01*
X166274999Y-95775000D01*
X166324999Y-95725001D01*
X166324999Y-95575001D01*
X166274999Y-95524998D01*
X166000001Y-95525001D01*
X165949999Y-95475001D01*
X165949999Y-95324999D01*
X166000001Y-95275001D01*
X166274999Y-95274999D01*
X166324999Y-95224999D01*
X166324999Y-95074999D01*
X166274999Y-95024999D01*
X166000001Y-95024999D01*
X165949999Y-94975000D01*
X165949999Y-94825000D01*
X166000001Y-94775000D01*
X166274999Y-94775000D01*
X166324999Y-94725000D01*
X166325002Y-94574998D01*
X166274999Y-94525000D01*
X166000001Y-94524998D01*
X165949999Y-94475001D01*
X165949999Y-94324998D01*
X166000001Y-94275001D01*
X166275002Y-94274998D01*
X166324999Y-94224998D01*
X166325004Y-94124973D01*
X166374999Y-94075001D01*
X167400001Y-94075011D01*
G37*
G36*
X169474996Y-94124978D02*
G01*
X169475001Y-94224998D01*
X169524998Y-94275001D01*
X169799999Y-94275001D01*
X169850001Y-94325001D01*
X169850001Y-94475001D01*
X169799999Y-94524998D01*
X169525001Y-94525000D01*
X169475001Y-94574998D01*
X169475001Y-94725000D01*
X169525001Y-94775000D01*
X169799999Y-94775000D01*
X169850001Y-94825000D01*
X169849999Y-94975000D01*
X169799999Y-95024999D01*
X169525001Y-95024999D01*
X169475001Y-95074999D01*
X169475001Y-95224999D01*
X169525001Y-95274999D01*
X169799999Y-95275001D01*
X169850001Y-95324999D01*
X169850001Y-95475001D01*
X169799999Y-95525001D01*
X169525001Y-95525001D01*
X169475001Y-95575001D01*
X169475001Y-95725001D01*
X169525001Y-95775000D01*
X169799999Y-95775000D01*
X169850001Y-95825000D01*
X169849999Y-95975000D01*
X169799999Y-96025000D01*
X169525001Y-96025000D01*
X169475001Y-96075000D01*
X169475001Y-96074997D01*
X169425001Y-96125000D01*
X168399999Y-96125000D01*
X168349997Y-96074997D01*
X168349999Y-94125001D01*
X168399999Y-94075006D01*
X169425001Y-94075001D01*
X169474996Y-94124978D01*
G37*
D11*
X139400000Y-82600000D03*
D12*
X151862500Y-109100000D03*
X148937500Y-109100000D03*
D13*
X162150000Y-92825000D03*
X162150000Y-89875000D03*
D14*
X153920000Y-94600000D03*
X154880000Y-94600000D03*
D15*
X158700000Y-100600000D03*
X160600000Y-100600000D03*
D16*
X167900000Y-117100000D03*
D17*
X160400000Y-102870000D03*
X160400000Y-103830000D03*
D15*
X153450000Y-110100000D03*
X155350000Y-110100000D03*
D14*
X153920000Y-95600000D03*
X154880000Y-95600000D03*
D18*
X134950000Y-110600000D03*
X135850000Y-110600000D03*
D19*
X135450000Y-96580000D03*
D20*
X138880000Y-98710000D03*
X138880000Y-104490000D03*
D21*
X139400000Y-105920000D03*
D19*
X135450000Y-106620000D03*
D22*
X139975000Y-98400000D03*
X139975000Y-99200000D03*
D23*
X139975000Y-100350000D03*
X139975000Y-101350000D03*
X139975000Y-101850000D03*
X139975000Y-102850000D03*
D22*
X139975000Y-104000000D03*
X139975000Y-104800000D03*
X139975000Y-104800000D03*
X139975000Y-104000000D03*
D23*
X139975000Y-103350000D03*
X139975000Y-102350000D03*
X139975000Y-100850000D03*
X139975000Y-99850000D03*
D22*
X139975000Y-99200000D03*
X139975000Y-98400000D03*
D21*
X139400000Y-97280000D03*
D15*
X153450000Y-93100000D03*
X155350000Y-93100000D03*
D24*
X148237500Y-98850000D03*
X148237500Y-99350000D03*
X148237500Y-99850000D03*
X148237500Y-100350000D03*
X148237500Y-100850000D03*
X148237500Y-101350000D03*
X148237500Y-101850000D03*
X148237500Y-102350000D03*
X148237500Y-102850000D03*
X148237500Y-103350000D03*
X148237500Y-103850000D03*
X148237500Y-104350000D03*
D25*
X149650000Y-105762500D03*
X150150000Y-105762500D03*
X150650000Y-105762500D03*
X151150000Y-105762500D03*
X151650000Y-105762500D03*
X152150000Y-105762500D03*
X152650000Y-105762500D03*
X153150000Y-105762500D03*
X153650000Y-105762500D03*
X154150000Y-105762500D03*
X154650000Y-105762500D03*
X155150000Y-105762500D03*
D24*
X156562500Y-104350000D03*
X156562500Y-103850000D03*
X156562500Y-103350000D03*
X156562500Y-102850000D03*
X156562500Y-102350000D03*
X156562500Y-101850000D03*
X156562500Y-101350000D03*
X156562500Y-100850000D03*
X156562500Y-100350000D03*
X156562500Y-99850000D03*
X156562500Y-99350000D03*
X156562500Y-98850000D03*
D25*
X155150000Y-97437500D03*
X154650000Y-97437500D03*
X154150000Y-97437500D03*
X153650000Y-97437500D03*
X153150000Y-97437500D03*
X152650000Y-97437500D03*
X152150000Y-97437500D03*
X151650000Y-97437500D03*
X151150000Y-97437500D03*
X150650000Y-97437500D03*
X150150000Y-97437500D03*
X149650000Y-97437500D03*
D26*
X152400000Y-101600000D03*
D14*
X153920000Y-108600000D03*
X154880000Y-108600000D03*
D27*
X145900000Y-87600000D03*
X141900000Y-87600000D03*
D28*
X139312500Y-110600000D03*
X137487500Y-110600000D03*
D12*
X151862500Y-94100000D03*
X148937500Y-94100000D03*
D29*
X158900000Y-98090000D03*
X158900000Y-99110000D03*
D30*
X147900000Y-97080000D03*
X147900000Y-96120000D03*
D31*
X143750000Y-95830000D03*
X143750000Y-98370000D03*
X146050000Y-98370000D03*
X146050000Y-95830000D03*
D30*
X164650000Y-92830000D03*
X164650000Y-91870000D03*
D16*
X136900000Y-86100000D03*
D32*
X150850000Y-115600000D03*
X157950000Y-115600000D03*
D29*
X159400000Y-102840000D03*
X159400000Y-103860000D03*
D33*
X158175000Y-96100000D03*
X156625000Y-96100000D03*
D29*
X158400000Y-103590000D03*
X158400000Y-104610000D03*
D34*
X169880000Y-90600000D03*
X168920000Y-90600000D03*
D35*
X162900000Y-94650000D03*
X162900000Y-96550000D03*
D11*
X165400000Y-120600000D03*
D17*
X164650000Y-94620000D03*
X164650000Y-95580000D03*
D16*
X167900000Y-86100000D03*
D11*
X165400000Y-82600000D03*
D17*
X160400000Y-98120000D03*
X160400000Y-99080000D03*
D32*
X150850000Y-87600000D03*
X157950000Y-87600000D03*
D11*
X139400000Y-120600000D03*
D16*
X136900000Y-117100000D03*
M02*
