G04 #@! TF.GenerationSoftware,KiCad,Pcbnew,7.0.11*
G04 #@! TF.CreationDate,2024-07-25T16:56:22-04:00*
G04 #@! TF.ProjectId,prism-pcb,70726973-6d2d-4706-9362-2e6b69636164,1.1*
G04 #@! TF.SameCoordinates,Original*
G04 #@! TF.FileFunction,Legend,Bot*
G04 #@! TF.FilePolarity,Positive*
%FSLAX46Y46*%
G04 Gerber Fmt 4.6, Leading zero omitted, Abs format (unit mm)*
G04 Created by KiCad (PCBNEW 7.0.11) date 2024-07-25 16:56:22*
%MOMM*%
%LPD*%
G01*
G04 APERTURE LIST*
%ADD10C,0.250000*%
%ADD11C,0.200000*%
%ADD12R,1.700000X1.700000*%
%ADD13O,1.700000X1.700000*%
%ADD14C,4.400000*%
%ADD15C,6.400000*%
G04 APERTURE END LIST*
D10*
X143209523Y-93525809D02*
X143542856Y-93525809D01*
X143542856Y-94049619D02*
X143542856Y-93049619D01*
X143542856Y-93049619D02*
X143066666Y-93049619D01*
X142733332Y-93763904D02*
X142257142Y-93763904D01*
X142828570Y-94049619D02*
X142495237Y-93049619D01*
X142495237Y-93049619D02*
X142161904Y-94049619D01*
X141828570Y-94049619D02*
X141828570Y-93049619D01*
X141828570Y-93049619D02*
X141257142Y-94049619D01*
X141257142Y-94049619D02*
X141257142Y-93049619D01*
X140680380Y-89242857D02*
X141156571Y-89576190D01*
X140680380Y-89814285D02*
X141680380Y-89814285D01*
X141680380Y-89814285D02*
X141680380Y-89433333D01*
X141680380Y-89433333D02*
X141632761Y-89338095D01*
X141632761Y-89338095D02*
X141585142Y-89290476D01*
X141585142Y-89290476D02*
X141489904Y-89242857D01*
X141489904Y-89242857D02*
X141347047Y-89242857D01*
X141347047Y-89242857D02*
X141251809Y-89290476D01*
X141251809Y-89290476D02*
X141204190Y-89338095D01*
X141204190Y-89338095D02*
X141156571Y-89433333D01*
X141156571Y-89433333D02*
X141156571Y-89814285D01*
X141204190Y-88814285D02*
X141204190Y-88480952D01*
X140680380Y-88338095D02*
X140680380Y-88814285D01*
X140680380Y-88814285D02*
X141680380Y-88814285D01*
X141680380Y-88814285D02*
X141680380Y-88338095D01*
X140680380Y-87909523D02*
X141680380Y-87909523D01*
X141680380Y-87909523D02*
X141680380Y-87671428D01*
X141680380Y-87671428D02*
X141632761Y-87528571D01*
X141632761Y-87528571D02*
X141537523Y-87433333D01*
X141537523Y-87433333D02*
X141442285Y-87385714D01*
X141442285Y-87385714D02*
X141251809Y-87338095D01*
X141251809Y-87338095D02*
X141108952Y-87338095D01*
X141108952Y-87338095D02*
X140918476Y-87385714D01*
X140918476Y-87385714D02*
X140823238Y-87433333D01*
X140823238Y-87433333D02*
X140728000Y-87528571D01*
X140728000Y-87528571D02*
X140680380Y-87671428D01*
X140680380Y-87671428D02*
X140680380Y-87909523D01*
X143744190Y-89457142D02*
X143696571Y-89314285D01*
X143696571Y-89314285D02*
X143648952Y-89266666D01*
X143648952Y-89266666D02*
X143553714Y-89219047D01*
X143553714Y-89219047D02*
X143410857Y-89219047D01*
X143410857Y-89219047D02*
X143315619Y-89266666D01*
X143315619Y-89266666D02*
X143268000Y-89314285D01*
X143268000Y-89314285D02*
X143220380Y-89409523D01*
X143220380Y-89409523D02*
X143220380Y-89790475D01*
X143220380Y-89790475D02*
X144220380Y-89790475D01*
X144220380Y-89790475D02*
X144220380Y-89457142D01*
X144220380Y-89457142D02*
X144172761Y-89361904D01*
X144172761Y-89361904D02*
X144125142Y-89314285D01*
X144125142Y-89314285D02*
X144029904Y-89266666D01*
X144029904Y-89266666D02*
X143934666Y-89266666D01*
X143934666Y-89266666D02*
X143839428Y-89314285D01*
X143839428Y-89314285D02*
X143791809Y-89361904D01*
X143791809Y-89361904D02*
X143744190Y-89457142D01*
X143744190Y-89457142D02*
X143744190Y-89790475D01*
X143220380Y-88314285D02*
X143220380Y-88790475D01*
X143220380Y-88790475D02*
X144220380Y-88790475D01*
X144220380Y-87980951D02*
X143410857Y-87980951D01*
X143410857Y-87980951D02*
X143315619Y-87933332D01*
X143315619Y-87933332D02*
X143268000Y-87885713D01*
X143268000Y-87885713D02*
X143220380Y-87790475D01*
X143220380Y-87790475D02*
X143220380Y-87599999D01*
X143220380Y-87599999D02*
X143268000Y-87504761D01*
X143268000Y-87504761D02*
X143315619Y-87457142D01*
X143315619Y-87457142D02*
X143410857Y-87409523D01*
X143410857Y-87409523D02*
X144220380Y-87409523D01*
D11*
X140150000Y-90600000D02*
X144650000Y-90600000D01*
X144650000Y-90600000D02*
X144650000Y-92600000D01*
X144650000Y-92600000D02*
X140150000Y-92600000D01*
X140150000Y-92600000D02*
X140150000Y-90600000D01*
%LPC*%
D12*
X141130000Y-91600000D03*
D13*
X143670000Y-91600000D03*
D14*
X142400000Y-111600000D03*
X162400000Y-91600000D03*
X162400000Y-111600000D03*
D15*
X167900000Y-117100000D03*
X136900000Y-86100000D03*
X167900000Y-86100000D03*
X136900000Y-117100000D03*
%LPD*%
M02*
