G04 #@! TF.GenerationSoftware,KiCad,Pcbnew,7.0.11*
G04 #@! TF.CreationDate,2024-10-22T14:50:11-04:00*
G04 #@! TF.ProjectId,prism-pcb,70726973-6d2d-4706-9362-2e6b69636164,2.1*
G04 #@! TF.SameCoordinates,Original*
G04 #@! TF.FileFunction,AssemblyDrawing,Top*
%FSLAX46Y46*%
G04 Gerber Fmt 4.6, Leading zero omitted, Abs format (unit mm)*
G04 Created by KiCad (PCBNEW 7.0.11) date 2024-10-22 14:50:11*
%MOMM*%
%LPD*%
G01*
G04 APERTURE LIST*
%ADD10C,0.125000*%
%ADD11C,0.062500*%
%ADD12C,0.120000*%
%ADD13C,0.065000*%
%ADD14C,0.100000*%
%ADD15C,0.150000*%
%ADD16C,0.300000*%
%ADD17C,0.127000*%
%ADD18C,0.025400*%
%ADD19C,0.200000*%
G04 APERTURE END LIST*
D10*
X167042857Y-94324809D02*
X167042857Y-94729571D01*
X167042857Y-94729571D02*
X167066667Y-94777190D01*
X167066667Y-94777190D02*
X167090476Y-94801000D01*
X167090476Y-94801000D02*
X167138095Y-94824809D01*
X167138095Y-94824809D02*
X167233333Y-94824809D01*
X167233333Y-94824809D02*
X167280952Y-94801000D01*
X167280952Y-94801000D02*
X167304762Y-94777190D01*
X167304762Y-94777190D02*
X167328571Y-94729571D01*
X167328571Y-94729571D02*
X167328571Y-94324809D01*
X167519048Y-94324809D02*
X167828572Y-94324809D01*
X167828572Y-94324809D02*
X167661905Y-94515285D01*
X167661905Y-94515285D02*
X167733334Y-94515285D01*
X167733334Y-94515285D02*
X167780953Y-94539095D01*
X167780953Y-94539095D02*
X167804762Y-94562904D01*
X167804762Y-94562904D02*
X167828572Y-94610523D01*
X167828572Y-94610523D02*
X167828572Y-94729571D01*
X167828572Y-94729571D02*
X167804762Y-94777190D01*
X167804762Y-94777190D02*
X167780953Y-94801000D01*
X167780953Y-94801000D02*
X167733334Y-94824809D01*
X167733334Y-94824809D02*
X167590477Y-94824809D01*
X167590477Y-94824809D02*
X167542858Y-94801000D01*
X167542858Y-94801000D02*
X167519048Y-94777190D01*
X168138095Y-94324809D02*
X168185714Y-94324809D01*
X168185714Y-94324809D02*
X168233333Y-94348619D01*
X168233333Y-94348619D02*
X168257143Y-94372428D01*
X168257143Y-94372428D02*
X168280952Y-94420047D01*
X168280952Y-94420047D02*
X168304762Y-94515285D01*
X168304762Y-94515285D02*
X168304762Y-94634333D01*
X168304762Y-94634333D02*
X168280952Y-94729571D01*
X168280952Y-94729571D02*
X168257143Y-94777190D01*
X168257143Y-94777190D02*
X168233333Y-94801000D01*
X168233333Y-94801000D02*
X168185714Y-94824809D01*
X168185714Y-94824809D02*
X168138095Y-94824809D01*
X168138095Y-94824809D02*
X168090476Y-94801000D01*
X168090476Y-94801000D02*
X168066667Y-94777190D01*
X168066667Y-94777190D02*
X168042857Y-94729571D01*
X168042857Y-94729571D02*
X168019048Y-94634333D01*
X168019048Y-94634333D02*
X168019048Y-94515285D01*
X168019048Y-94515285D02*
X168042857Y-94420047D01*
X168042857Y-94420047D02*
X168066667Y-94372428D01*
X168066667Y-94372428D02*
X168090476Y-94348619D01*
X168090476Y-94348619D02*
X168138095Y-94324809D01*
X168780952Y-94824809D02*
X168495238Y-94824809D01*
X168638095Y-94824809D02*
X168638095Y-94324809D01*
X168638095Y-94324809D02*
X168590476Y-94396238D01*
X168590476Y-94396238D02*
X168542857Y-94443857D01*
X168542857Y-94443857D02*
X168495238Y-94467666D01*
X140517950Y-82562904D02*
X140351283Y-82562904D01*
X140351283Y-82824809D02*
X140351283Y-82324809D01*
X140351283Y-82324809D02*
X140589378Y-82324809D01*
X140779854Y-82824809D02*
X140779854Y-82324809D01*
X141017949Y-82824809D02*
X141017949Y-82324809D01*
X141017949Y-82324809D02*
X141136997Y-82324809D01*
X141136997Y-82324809D02*
X141208425Y-82348619D01*
X141208425Y-82348619D02*
X141256044Y-82396238D01*
X141256044Y-82396238D02*
X141279854Y-82443857D01*
X141279854Y-82443857D02*
X141303663Y-82539095D01*
X141303663Y-82539095D02*
X141303663Y-82610523D01*
X141303663Y-82610523D02*
X141279854Y-82705761D01*
X141279854Y-82705761D02*
X141256044Y-82753380D01*
X141256044Y-82753380D02*
X141208425Y-82801000D01*
X141208425Y-82801000D02*
X141136997Y-82824809D01*
X141136997Y-82824809D02*
X141017949Y-82824809D01*
X141494140Y-82372428D02*
X141517949Y-82348619D01*
X141517949Y-82348619D02*
X141565568Y-82324809D01*
X141565568Y-82324809D02*
X141684616Y-82324809D01*
X141684616Y-82324809D02*
X141732235Y-82348619D01*
X141732235Y-82348619D02*
X141756044Y-82372428D01*
X141756044Y-82372428D02*
X141779854Y-82420047D01*
X141779854Y-82420047D02*
X141779854Y-82467666D01*
X141779854Y-82467666D02*
X141756044Y-82539095D01*
X141756044Y-82539095D02*
X141470330Y-82824809D01*
X141470330Y-82824809D02*
X141779854Y-82824809D01*
X142089377Y-82324809D02*
X142136996Y-82324809D01*
X142136996Y-82324809D02*
X142184615Y-82348619D01*
X142184615Y-82348619D02*
X142208425Y-82372428D01*
X142208425Y-82372428D02*
X142232234Y-82420047D01*
X142232234Y-82420047D02*
X142256044Y-82515285D01*
X142256044Y-82515285D02*
X142256044Y-82634333D01*
X142256044Y-82634333D02*
X142232234Y-82729571D01*
X142232234Y-82729571D02*
X142208425Y-82777190D01*
X142208425Y-82777190D02*
X142184615Y-82801000D01*
X142184615Y-82801000D02*
X142136996Y-82824809D01*
X142136996Y-82824809D02*
X142089377Y-82824809D01*
X142089377Y-82824809D02*
X142041758Y-82801000D01*
X142041758Y-82801000D02*
X142017949Y-82777190D01*
X142017949Y-82777190D02*
X141994139Y-82729571D01*
X141994139Y-82729571D02*
X141970330Y-82634333D01*
X141970330Y-82634333D02*
X141970330Y-82515285D01*
X141970330Y-82515285D02*
X141994139Y-82420047D01*
X141994139Y-82420047D02*
X142017949Y-82372428D01*
X142017949Y-82372428D02*
X142041758Y-82348619D01*
X142041758Y-82348619D02*
X142089377Y-82324809D01*
X142732234Y-82824809D02*
X142446520Y-82824809D01*
X142589377Y-82824809D02*
X142589377Y-82324809D01*
X142589377Y-82324809D02*
X142541758Y-82396238D01*
X142541758Y-82396238D02*
X142494139Y-82443857D01*
X142494139Y-82443857D02*
X142446520Y-82467666D01*
X149840476Y-109324809D02*
X149673810Y-109086714D01*
X149554762Y-109324809D02*
X149554762Y-108824809D01*
X149554762Y-108824809D02*
X149745238Y-108824809D01*
X149745238Y-108824809D02*
X149792857Y-108848619D01*
X149792857Y-108848619D02*
X149816667Y-108872428D01*
X149816667Y-108872428D02*
X149840476Y-108920047D01*
X149840476Y-108920047D02*
X149840476Y-108991476D01*
X149840476Y-108991476D02*
X149816667Y-109039095D01*
X149816667Y-109039095D02*
X149792857Y-109062904D01*
X149792857Y-109062904D02*
X149745238Y-109086714D01*
X149745238Y-109086714D02*
X149554762Y-109086714D01*
X150269048Y-108991476D02*
X150269048Y-109324809D01*
X150150000Y-108801000D02*
X150030953Y-109158142D01*
X150030953Y-109158142D02*
X150340476Y-109158142D01*
X150626190Y-108824809D02*
X150673809Y-108824809D01*
X150673809Y-108824809D02*
X150721428Y-108848619D01*
X150721428Y-108848619D02*
X150745238Y-108872428D01*
X150745238Y-108872428D02*
X150769047Y-108920047D01*
X150769047Y-108920047D02*
X150792857Y-109015285D01*
X150792857Y-109015285D02*
X150792857Y-109134333D01*
X150792857Y-109134333D02*
X150769047Y-109229571D01*
X150769047Y-109229571D02*
X150745238Y-109277190D01*
X150745238Y-109277190D02*
X150721428Y-109301000D01*
X150721428Y-109301000D02*
X150673809Y-109324809D01*
X150673809Y-109324809D02*
X150626190Y-109324809D01*
X150626190Y-109324809D02*
X150578571Y-109301000D01*
X150578571Y-109301000D02*
X150554762Y-109277190D01*
X150554762Y-109277190D02*
X150530952Y-109229571D01*
X150530952Y-109229571D02*
X150507143Y-109134333D01*
X150507143Y-109134333D02*
X150507143Y-109015285D01*
X150507143Y-109015285D02*
X150530952Y-108920047D01*
X150530952Y-108920047D02*
X150554762Y-108872428D01*
X150554762Y-108872428D02*
X150578571Y-108848619D01*
X150578571Y-108848619D02*
X150626190Y-108824809D01*
X150959523Y-108824809D02*
X151269047Y-108824809D01*
X151269047Y-108824809D02*
X151102380Y-109015285D01*
X151102380Y-109015285D02*
X151173809Y-109015285D01*
X151173809Y-109015285D02*
X151221428Y-109039095D01*
X151221428Y-109039095D02*
X151245237Y-109062904D01*
X151245237Y-109062904D02*
X151269047Y-109110523D01*
X151269047Y-109110523D02*
X151269047Y-109229571D01*
X151269047Y-109229571D02*
X151245237Y-109277190D01*
X151245237Y-109277190D02*
X151221428Y-109301000D01*
X151221428Y-109301000D02*
X151173809Y-109324809D01*
X151173809Y-109324809D02*
X151030952Y-109324809D01*
X151030952Y-109324809D02*
X150983333Y-109301000D01*
X150983333Y-109301000D02*
X150959523Y-109277190D01*
D11*
X137370238Y-106938595D02*
X137358334Y-106950500D01*
X137358334Y-106950500D02*
X137322619Y-106962404D01*
X137322619Y-106962404D02*
X137298810Y-106962404D01*
X137298810Y-106962404D02*
X137263096Y-106950500D01*
X137263096Y-106950500D02*
X137239286Y-106926690D01*
X137239286Y-106926690D02*
X137227381Y-106902880D01*
X137227381Y-106902880D02*
X137215477Y-106855261D01*
X137215477Y-106855261D02*
X137215477Y-106819547D01*
X137215477Y-106819547D02*
X137227381Y-106771928D01*
X137227381Y-106771928D02*
X137239286Y-106748119D01*
X137239286Y-106748119D02*
X137263096Y-106724309D01*
X137263096Y-106724309D02*
X137298810Y-106712404D01*
X137298810Y-106712404D02*
X137322619Y-106712404D01*
X137322619Y-106712404D02*
X137358334Y-106724309D01*
X137358334Y-106724309D02*
X137370238Y-106736214D01*
X137453572Y-106712404D02*
X137608334Y-106712404D01*
X137608334Y-106712404D02*
X137525000Y-106807642D01*
X137525000Y-106807642D02*
X137560715Y-106807642D01*
X137560715Y-106807642D02*
X137584524Y-106819547D01*
X137584524Y-106819547D02*
X137596429Y-106831452D01*
X137596429Y-106831452D02*
X137608334Y-106855261D01*
X137608334Y-106855261D02*
X137608334Y-106914785D01*
X137608334Y-106914785D02*
X137596429Y-106938595D01*
X137596429Y-106938595D02*
X137584524Y-106950500D01*
X137584524Y-106950500D02*
X137560715Y-106962404D01*
X137560715Y-106962404D02*
X137489286Y-106962404D01*
X137489286Y-106962404D02*
X137465477Y-106950500D01*
X137465477Y-106950500D02*
X137453572Y-106938595D01*
X137763095Y-106712404D02*
X137786905Y-106712404D01*
X137786905Y-106712404D02*
X137810714Y-106724309D01*
X137810714Y-106724309D02*
X137822619Y-106736214D01*
X137822619Y-106736214D02*
X137834524Y-106760023D01*
X137834524Y-106760023D02*
X137846429Y-106807642D01*
X137846429Y-106807642D02*
X137846429Y-106867166D01*
X137846429Y-106867166D02*
X137834524Y-106914785D01*
X137834524Y-106914785D02*
X137822619Y-106938595D01*
X137822619Y-106938595D02*
X137810714Y-106950500D01*
X137810714Y-106950500D02*
X137786905Y-106962404D01*
X137786905Y-106962404D02*
X137763095Y-106962404D01*
X137763095Y-106962404D02*
X137739286Y-106950500D01*
X137739286Y-106950500D02*
X137727381Y-106938595D01*
X137727381Y-106938595D02*
X137715476Y-106914785D01*
X137715476Y-106914785D02*
X137703572Y-106867166D01*
X137703572Y-106867166D02*
X137703572Y-106807642D01*
X137703572Y-106807642D02*
X137715476Y-106760023D01*
X137715476Y-106760023D02*
X137727381Y-106736214D01*
X137727381Y-106736214D02*
X137739286Y-106724309D01*
X137739286Y-106724309D02*
X137763095Y-106712404D01*
X137989286Y-106819547D02*
X137965476Y-106807642D01*
X137965476Y-106807642D02*
X137953571Y-106795738D01*
X137953571Y-106795738D02*
X137941667Y-106771928D01*
X137941667Y-106771928D02*
X137941667Y-106760023D01*
X137941667Y-106760023D02*
X137953571Y-106736214D01*
X137953571Y-106736214D02*
X137965476Y-106724309D01*
X137965476Y-106724309D02*
X137989286Y-106712404D01*
X137989286Y-106712404D02*
X138036905Y-106712404D01*
X138036905Y-106712404D02*
X138060714Y-106724309D01*
X138060714Y-106724309D02*
X138072619Y-106736214D01*
X138072619Y-106736214D02*
X138084524Y-106760023D01*
X138084524Y-106760023D02*
X138084524Y-106771928D01*
X138084524Y-106771928D02*
X138072619Y-106795738D01*
X138072619Y-106795738D02*
X138060714Y-106807642D01*
X138060714Y-106807642D02*
X138036905Y-106819547D01*
X138036905Y-106819547D02*
X137989286Y-106819547D01*
X137989286Y-106819547D02*
X137965476Y-106831452D01*
X137965476Y-106831452D02*
X137953571Y-106843357D01*
X137953571Y-106843357D02*
X137941667Y-106867166D01*
X137941667Y-106867166D02*
X137941667Y-106914785D01*
X137941667Y-106914785D02*
X137953571Y-106938595D01*
X137953571Y-106938595D02*
X137965476Y-106950500D01*
X137965476Y-106950500D02*
X137989286Y-106962404D01*
X137989286Y-106962404D02*
X138036905Y-106962404D01*
X138036905Y-106962404D02*
X138060714Y-106950500D01*
X138060714Y-106950500D02*
X138072619Y-106938595D01*
X138072619Y-106938595D02*
X138084524Y-106914785D01*
X138084524Y-106914785D02*
X138084524Y-106867166D01*
X138084524Y-106867166D02*
X138072619Y-106843357D01*
X138072619Y-106843357D02*
X138060714Y-106831452D01*
X138060714Y-106831452D02*
X138036905Y-106819547D01*
D12*
X163077450Y-91909523D02*
X163101260Y-91933332D01*
X163101260Y-91933332D02*
X163125069Y-92004761D01*
X163125069Y-92004761D02*
X163125069Y-92052380D01*
X163125069Y-92052380D02*
X163101260Y-92123808D01*
X163101260Y-92123808D02*
X163053640Y-92171427D01*
X163053640Y-92171427D02*
X163006021Y-92195237D01*
X163006021Y-92195237D02*
X162910783Y-92219046D01*
X162910783Y-92219046D02*
X162839355Y-92219046D01*
X162839355Y-92219046D02*
X162744117Y-92195237D01*
X162744117Y-92195237D02*
X162696498Y-92171427D01*
X162696498Y-92171427D02*
X162648879Y-92123808D01*
X162648879Y-92123808D02*
X162625069Y-92052380D01*
X162625069Y-92052380D02*
X162625069Y-92004761D01*
X162625069Y-92004761D02*
X162648879Y-91933332D01*
X162648879Y-91933332D02*
X162672688Y-91909523D01*
X162625069Y-91742856D02*
X162625069Y-91433332D01*
X162625069Y-91433332D02*
X162815545Y-91599999D01*
X162815545Y-91599999D02*
X162815545Y-91528570D01*
X162815545Y-91528570D02*
X162839355Y-91480951D01*
X162839355Y-91480951D02*
X162863164Y-91457142D01*
X162863164Y-91457142D02*
X162910783Y-91433332D01*
X162910783Y-91433332D02*
X163029831Y-91433332D01*
X163029831Y-91433332D02*
X163077450Y-91457142D01*
X163077450Y-91457142D02*
X163101260Y-91480951D01*
X163101260Y-91480951D02*
X163125069Y-91528570D01*
X163125069Y-91528570D02*
X163125069Y-91671427D01*
X163125069Y-91671427D02*
X163101260Y-91719046D01*
X163101260Y-91719046D02*
X163077450Y-91742856D01*
X162625069Y-91123809D02*
X162625069Y-91076190D01*
X162625069Y-91076190D02*
X162648879Y-91028571D01*
X162648879Y-91028571D02*
X162672688Y-91004761D01*
X162672688Y-91004761D02*
X162720307Y-90980952D01*
X162720307Y-90980952D02*
X162815545Y-90957142D01*
X162815545Y-90957142D02*
X162934593Y-90957142D01*
X162934593Y-90957142D02*
X163029831Y-90980952D01*
X163029831Y-90980952D02*
X163077450Y-91004761D01*
X163077450Y-91004761D02*
X163101260Y-91028571D01*
X163101260Y-91028571D02*
X163125069Y-91076190D01*
X163125069Y-91076190D02*
X163125069Y-91123809D01*
X163125069Y-91123809D02*
X163101260Y-91171428D01*
X163101260Y-91171428D02*
X163077450Y-91195237D01*
X163077450Y-91195237D02*
X163029831Y-91219047D01*
X163029831Y-91219047D02*
X162934593Y-91242856D01*
X162934593Y-91242856D02*
X162815545Y-91242856D01*
X162815545Y-91242856D02*
X162720307Y-91219047D01*
X162720307Y-91219047D02*
X162672688Y-91195237D01*
X162672688Y-91195237D02*
X162648879Y-91171428D01*
X162648879Y-91171428D02*
X162625069Y-91123809D01*
X163125069Y-90480952D02*
X163125069Y-90766666D01*
X163125069Y-90623809D02*
X162625069Y-90623809D01*
X162625069Y-90623809D02*
X162696498Y-90671428D01*
X162696498Y-90671428D02*
X162744117Y-90719047D01*
X162744117Y-90719047D02*
X162767926Y-90766666D01*
D11*
X152870238Y-94688595D02*
X152858334Y-94700500D01*
X152858334Y-94700500D02*
X152822619Y-94712404D01*
X152822619Y-94712404D02*
X152798810Y-94712404D01*
X152798810Y-94712404D02*
X152763096Y-94700500D01*
X152763096Y-94700500D02*
X152739286Y-94676690D01*
X152739286Y-94676690D02*
X152727381Y-94652880D01*
X152727381Y-94652880D02*
X152715477Y-94605261D01*
X152715477Y-94605261D02*
X152715477Y-94569547D01*
X152715477Y-94569547D02*
X152727381Y-94521928D01*
X152727381Y-94521928D02*
X152739286Y-94498119D01*
X152739286Y-94498119D02*
X152763096Y-94474309D01*
X152763096Y-94474309D02*
X152798810Y-94462404D01*
X152798810Y-94462404D02*
X152822619Y-94462404D01*
X152822619Y-94462404D02*
X152858334Y-94474309D01*
X152858334Y-94474309D02*
X152870238Y-94486214D01*
X153084524Y-94545738D02*
X153084524Y-94712404D01*
X153025000Y-94450500D02*
X152965477Y-94629071D01*
X152965477Y-94629071D02*
X153120238Y-94629071D01*
X153263095Y-94462404D02*
X153286905Y-94462404D01*
X153286905Y-94462404D02*
X153310714Y-94474309D01*
X153310714Y-94474309D02*
X153322619Y-94486214D01*
X153322619Y-94486214D02*
X153334524Y-94510023D01*
X153334524Y-94510023D02*
X153346429Y-94557642D01*
X153346429Y-94557642D02*
X153346429Y-94617166D01*
X153346429Y-94617166D02*
X153334524Y-94664785D01*
X153334524Y-94664785D02*
X153322619Y-94688595D01*
X153322619Y-94688595D02*
X153310714Y-94700500D01*
X153310714Y-94700500D02*
X153286905Y-94712404D01*
X153286905Y-94712404D02*
X153263095Y-94712404D01*
X153263095Y-94712404D02*
X153239286Y-94700500D01*
X153239286Y-94700500D02*
X153227381Y-94688595D01*
X153227381Y-94688595D02*
X153215476Y-94664785D01*
X153215476Y-94664785D02*
X153203572Y-94617166D01*
X153203572Y-94617166D02*
X153203572Y-94557642D01*
X153203572Y-94557642D02*
X153215476Y-94510023D01*
X153215476Y-94510023D02*
X153227381Y-94486214D01*
X153227381Y-94486214D02*
X153239286Y-94474309D01*
X153239286Y-94474309D02*
X153263095Y-94462404D01*
X153429762Y-94462404D02*
X153596428Y-94462404D01*
X153596428Y-94462404D02*
X153489286Y-94712404D01*
D10*
X159090476Y-100777190D02*
X159066667Y-100801000D01*
X159066667Y-100801000D02*
X158995238Y-100824809D01*
X158995238Y-100824809D02*
X158947619Y-100824809D01*
X158947619Y-100824809D02*
X158876191Y-100801000D01*
X158876191Y-100801000D02*
X158828572Y-100753380D01*
X158828572Y-100753380D02*
X158804762Y-100705761D01*
X158804762Y-100705761D02*
X158780953Y-100610523D01*
X158780953Y-100610523D02*
X158780953Y-100539095D01*
X158780953Y-100539095D02*
X158804762Y-100443857D01*
X158804762Y-100443857D02*
X158828572Y-100396238D01*
X158828572Y-100396238D02*
X158876191Y-100348619D01*
X158876191Y-100348619D02*
X158947619Y-100324809D01*
X158947619Y-100324809D02*
X158995238Y-100324809D01*
X158995238Y-100324809D02*
X159066667Y-100348619D01*
X159066667Y-100348619D02*
X159090476Y-100372428D01*
X159519048Y-100491476D02*
X159519048Y-100824809D01*
X159400000Y-100301000D02*
X159280953Y-100658142D01*
X159280953Y-100658142D02*
X159590476Y-100658142D01*
X159876190Y-100324809D02*
X159923809Y-100324809D01*
X159923809Y-100324809D02*
X159971428Y-100348619D01*
X159971428Y-100348619D02*
X159995238Y-100372428D01*
X159995238Y-100372428D02*
X160019047Y-100420047D01*
X160019047Y-100420047D02*
X160042857Y-100515285D01*
X160042857Y-100515285D02*
X160042857Y-100634333D01*
X160042857Y-100634333D02*
X160019047Y-100729571D01*
X160019047Y-100729571D02*
X159995238Y-100777190D01*
X159995238Y-100777190D02*
X159971428Y-100801000D01*
X159971428Y-100801000D02*
X159923809Y-100824809D01*
X159923809Y-100824809D02*
X159876190Y-100824809D01*
X159876190Y-100824809D02*
X159828571Y-100801000D01*
X159828571Y-100801000D02*
X159804762Y-100777190D01*
X159804762Y-100777190D02*
X159780952Y-100729571D01*
X159780952Y-100729571D02*
X159757143Y-100634333D01*
X159757143Y-100634333D02*
X159757143Y-100515285D01*
X159757143Y-100515285D02*
X159780952Y-100420047D01*
X159780952Y-100420047D02*
X159804762Y-100372428D01*
X159804762Y-100372428D02*
X159828571Y-100348619D01*
X159828571Y-100348619D02*
X159876190Y-100324809D01*
X160471428Y-100324809D02*
X160376190Y-100324809D01*
X160376190Y-100324809D02*
X160328571Y-100348619D01*
X160328571Y-100348619D02*
X160304761Y-100372428D01*
X160304761Y-100372428D02*
X160257142Y-100443857D01*
X160257142Y-100443857D02*
X160233333Y-100539095D01*
X160233333Y-100539095D02*
X160233333Y-100729571D01*
X160233333Y-100729571D02*
X160257142Y-100777190D01*
X160257142Y-100777190D02*
X160280952Y-100801000D01*
X160280952Y-100801000D02*
X160328571Y-100824809D01*
X160328571Y-100824809D02*
X160423809Y-100824809D01*
X160423809Y-100824809D02*
X160471428Y-100801000D01*
X160471428Y-100801000D02*
X160495237Y-100777190D01*
X160495237Y-100777190D02*
X160519047Y-100729571D01*
X160519047Y-100729571D02*
X160519047Y-100610523D01*
X160519047Y-100610523D02*
X160495237Y-100562904D01*
X160495237Y-100562904D02*
X160471428Y-100539095D01*
X160471428Y-100539095D02*
X160423809Y-100515285D01*
X160423809Y-100515285D02*
X160328571Y-100515285D01*
X160328571Y-100515285D02*
X160280952Y-100539095D01*
X160280952Y-100539095D02*
X160257142Y-100562904D01*
X160257142Y-100562904D02*
X160233333Y-100610523D01*
X167042857Y-117324809D02*
X167042857Y-116824809D01*
X167042857Y-117062904D02*
X167328571Y-117062904D01*
X167328571Y-117324809D02*
X167328571Y-116824809D01*
X167542858Y-116872428D02*
X167566667Y-116848619D01*
X167566667Y-116848619D02*
X167614286Y-116824809D01*
X167614286Y-116824809D02*
X167733334Y-116824809D01*
X167733334Y-116824809D02*
X167780953Y-116848619D01*
X167780953Y-116848619D02*
X167804762Y-116872428D01*
X167804762Y-116872428D02*
X167828572Y-116920047D01*
X167828572Y-116920047D02*
X167828572Y-116967666D01*
X167828572Y-116967666D02*
X167804762Y-117039095D01*
X167804762Y-117039095D02*
X167519048Y-117324809D01*
X167519048Y-117324809D02*
X167828572Y-117324809D01*
X168138095Y-116824809D02*
X168185714Y-116824809D01*
X168185714Y-116824809D02*
X168233333Y-116848619D01*
X168233333Y-116848619D02*
X168257143Y-116872428D01*
X168257143Y-116872428D02*
X168280952Y-116920047D01*
X168280952Y-116920047D02*
X168304762Y-117015285D01*
X168304762Y-117015285D02*
X168304762Y-117134333D01*
X168304762Y-117134333D02*
X168280952Y-117229571D01*
X168280952Y-117229571D02*
X168257143Y-117277190D01*
X168257143Y-117277190D02*
X168233333Y-117301000D01*
X168233333Y-117301000D02*
X168185714Y-117324809D01*
X168185714Y-117324809D02*
X168138095Y-117324809D01*
X168138095Y-117324809D02*
X168090476Y-117301000D01*
X168090476Y-117301000D02*
X168066667Y-117277190D01*
X168066667Y-117277190D02*
X168042857Y-117229571D01*
X168042857Y-117229571D02*
X168019048Y-117134333D01*
X168019048Y-117134333D02*
X168019048Y-117015285D01*
X168019048Y-117015285D02*
X168042857Y-116920047D01*
X168042857Y-116920047D02*
X168066667Y-116872428D01*
X168066667Y-116872428D02*
X168090476Y-116848619D01*
X168090476Y-116848619D02*
X168138095Y-116824809D01*
X168471428Y-116824809D02*
X168780952Y-116824809D01*
X168780952Y-116824809D02*
X168614285Y-117015285D01*
X168614285Y-117015285D02*
X168685714Y-117015285D01*
X168685714Y-117015285D02*
X168733333Y-117039095D01*
X168733333Y-117039095D02*
X168757142Y-117062904D01*
X168757142Y-117062904D02*
X168780952Y-117110523D01*
X168780952Y-117110523D02*
X168780952Y-117229571D01*
X168780952Y-117229571D02*
X168757142Y-117277190D01*
X168757142Y-117277190D02*
X168733333Y-117301000D01*
X168733333Y-117301000D02*
X168685714Y-117324809D01*
X168685714Y-117324809D02*
X168542857Y-117324809D01*
X168542857Y-117324809D02*
X168495238Y-117301000D01*
X168495238Y-117301000D02*
X168471428Y-117277190D01*
D11*
X139370238Y-106938595D02*
X139358334Y-106950500D01*
X139358334Y-106950500D02*
X139322619Y-106962404D01*
X139322619Y-106962404D02*
X139298810Y-106962404D01*
X139298810Y-106962404D02*
X139263096Y-106950500D01*
X139263096Y-106950500D02*
X139239286Y-106926690D01*
X139239286Y-106926690D02*
X139227381Y-106902880D01*
X139227381Y-106902880D02*
X139215477Y-106855261D01*
X139215477Y-106855261D02*
X139215477Y-106819547D01*
X139215477Y-106819547D02*
X139227381Y-106771928D01*
X139227381Y-106771928D02*
X139239286Y-106748119D01*
X139239286Y-106748119D02*
X139263096Y-106724309D01*
X139263096Y-106724309D02*
X139298810Y-106712404D01*
X139298810Y-106712404D02*
X139322619Y-106712404D01*
X139322619Y-106712404D02*
X139358334Y-106724309D01*
X139358334Y-106724309D02*
X139370238Y-106736214D01*
X139453572Y-106712404D02*
X139608334Y-106712404D01*
X139608334Y-106712404D02*
X139525000Y-106807642D01*
X139525000Y-106807642D02*
X139560715Y-106807642D01*
X139560715Y-106807642D02*
X139584524Y-106819547D01*
X139584524Y-106819547D02*
X139596429Y-106831452D01*
X139596429Y-106831452D02*
X139608334Y-106855261D01*
X139608334Y-106855261D02*
X139608334Y-106914785D01*
X139608334Y-106914785D02*
X139596429Y-106938595D01*
X139596429Y-106938595D02*
X139584524Y-106950500D01*
X139584524Y-106950500D02*
X139560715Y-106962404D01*
X139560715Y-106962404D02*
X139489286Y-106962404D01*
X139489286Y-106962404D02*
X139465477Y-106950500D01*
X139465477Y-106950500D02*
X139453572Y-106938595D01*
X139763095Y-106712404D02*
X139786905Y-106712404D01*
X139786905Y-106712404D02*
X139810714Y-106724309D01*
X139810714Y-106724309D02*
X139822619Y-106736214D01*
X139822619Y-106736214D02*
X139834524Y-106760023D01*
X139834524Y-106760023D02*
X139846429Y-106807642D01*
X139846429Y-106807642D02*
X139846429Y-106867166D01*
X139846429Y-106867166D02*
X139834524Y-106914785D01*
X139834524Y-106914785D02*
X139822619Y-106938595D01*
X139822619Y-106938595D02*
X139810714Y-106950500D01*
X139810714Y-106950500D02*
X139786905Y-106962404D01*
X139786905Y-106962404D02*
X139763095Y-106962404D01*
X139763095Y-106962404D02*
X139739286Y-106950500D01*
X139739286Y-106950500D02*
X139727381Y-106938595D01*
X139727381Y-106938595D02*
X139715476Y-106914785D01*
X139715476Y-106914785D02*
X139703572Y-106867166D01*
X139703572Y-106867166D02*
X139703572Y-106807642D01*
X139703572Y-106807642D02*
X139715476Y-106760023D01*
X139715476Y-106760023D02*
X139727381Y-106736214D01*
X139727381Y-106736214D02*
X139739286Y-106724309D01*
X139739286Y-106724309D02*
X139763095Y-106712404D01*
X139929762Y-106712404D02*
X140096428Y-106712404D01*
X140096428Y-106712404D02*
X139989286Y-106962404D01*
X147738595Y-106629761D02*
X147750500Y-106641665D01*
X147750500Y-106641665D02*
X147762404Y-106677380D01*
X147762404Y-106677380D02*
X147762404Y-106701189D01*
X147762404Y-106701189D02*
X147750500Y-106736903D01*
X147750500Y-106736903D02*
X147726690Y-106760713D01*
X147726690Y-106760713D02*
X147702880Y-106772618D01*
X147702880Y-106772618D02*
X147655261Y-106784522D01*
X147655261Y-106784522D02*
X147619547Y-106784522D01*
X147619547Y-106784522D02*
X147571928Y-106772618D01*
X147571928Y-106772618D02*
X147548119Y-106760713D01*
X147548119Y-106760713D02*
X147524309Y-106736903D01*
X147524309Y-106736903D02*
X147512404Y-106701189D01*
X147512404Y-106701189D02*
X147512404Y-106677380D01*
X147512404Y-106677380D02*
X147524309Y-106641665D01*
X147524309Y-106641665D02*
X147536214Y-106629761D01*
X147595738Y-106415475D02*
X147762404Y-106415475D01*
X147500500Y-106474999D02*
X147679071Y-106534522D01*
X147679071Y-106534522D02*
X147679071Y-106379761D01*
X147512404Y-106236904D02*
X147512404Y-106213094D01*
X147512404Y-106213094D02*
X147524309Y-106189285D01*
X147524309Y-106189285D02*
X147536214Y-106177380D01*
X147536214Y-106177380D02*
X147560023Y-106165475D01*
X147560023Y-106165475D02*
X147607642Y-106153570D01*
X147607642Y-106153570D02*
X147667166Y-106153570D01*
X147667166Y-106153570D02*
X147714785Y-106165475D01*
X147714785Y-106165475D02*
X147738595Y-106177380D01*
X147738595Y-106177380D02*
X147750500Y-106189285D01*
X147750500Y-106189285D02*
X147762404Y-106213094D01*
X147762404Y-106213094D02*
X147762404Y-106236904D01*
X147762404Y-106236904D02*
X147750500Y-106260713D01*
X147750500Y-106260713D02*
X147738595Y-106272618D01*
X147738595Y-106272618D02*
X147714785Y-106284523D01*
X147714785Y-106284523D02*
X147667166Y-106296427D01*
X147667166Y-106296427D02*
X147607642Y-106296427D01*
X147607642Y-106296427D02*
X147560023Y-106284523D01*
X147560023Y-106284523D02*
X147536214Y-106272618D01*
X147536214Y-106272618D02*
X147524309Y-106260713D01*
X147524309Y-106260713D02*
X147512404Y-106236904D01*
X147595738Y-105939285D02*
X147762404Y-105939285D01*
X147500500Y-105998809D02*
X147679071Y-106058332D01*
X147679071Y-106058332D02*
X147679071Y-105903571D01*
D12*
X168125069Y-102242856D02*
X168482212Y-102242856D01*
X168482212Y-102242856D02*
X168553640Y-102266665D01*
X168553640Y-102266665D02*
X168601260Y-102314284D01*
X168601260Y-102314284D02*
X168625069Y-102385713D01*
X168625069Y-102385713D02*
X168625069Y-102433332D01*
X168291736Y-101790475D02*
X168625069Y-101790475D01*
X168101260Y-101909523D02*
X168458402Y-102028570D01*
X168458402Y-102028570D02*
X168458402Y-101719047D01*
X168125069Y-101433333D02*
X168125069Y-101385714D01*
X168125069Y-101385714D02*
X168148879Y-101338095D01*
X168148879Y-101338095D02*
X168172688Y-101314285D01*
X168172688Y-101314285D02*
X168220307Y-101290476D01*
X168220307Y-101290476D02*
X168315545Y-101266666D01*
X168315545Y-101266666D02*
X168434593Y-101266666D01*
X168434593Y-101266666D02*
X168529831Y-101290476D01*
X168529831Y-101290476D02*
X168577450Y-101314285D01*
X168577450Y-101314285D02*
X168601260Y-101338095D01*
X168601260Y-101338095D02*
X168625069Y-101385714D01*
X168625069Y-101385714D02*
X168625069Y-101433333D01*
X168625069Y-101433333D02*
X168601260Y-101480952D01*
X168601260Y-101480952D02*
X168577450Y-101504761D01*
X168577450Y-101504761D02*
X168529831Y-101528571D01*
X168529831Y-101528571D02*
X168434593Y-101552380D01*
X168434593Y-101552380D02*
X168315545Y-101552380D01*
X168315545Y-101552380D02*
X168220307Y-101528571D01*
X168220307Y-101528571D02*
X168172688Y-101504761D01*
X168172688Y-101504761D02*
X168148879Y-101480952D01*
X168148879Y-101480952D02*
X168125069Y-101433333D01*
X168625069Y-100790476D02*
X168625069Y-101076190D01*
X168625069Y-100933333D02*
X168125069Y-100933333D01*
X168125069Y-100933333D02*
X168196498Y-100980952D01*
X168196498Y-100980952D02*
X168244117Y-101028571D01*
X168244117Y-101028571D02*
X168267926Y-101076190D01*
D10*
X153840476Y-110277190D02*
X153816667Y-110301000D01*
X153816667Y-110301000D02*
X153745238Y-110324809D01*
X153745238Y-110324809D02*
X153697619Y-110324809D01*
X153697619Y-110324809D02*
X153626191Y-110301000D01*
X153626191Y-110301000D02*
X153578572Y-110253380D01*
X153578572Y-110253380D02*
X153554762Y-110205761D01*
X153554762Y-110205761D02*
X153530953Y-110110523D01*
X153530953Y-110110523D02*
X153530953Y-110039095D01*
X153530953Y-110039095D02*
X153554762Y-109943857D01*
X153554762Y-109943857D02*
X153578572Y-109896238D01*
X153578572Y-109896238D02*
X153626191Y-109848619D01*
X153626191Y-109848619D02*
X153697619Y-109824809D01*
X153697619Y-109824809D02*
X153745238Y-109824809D01*
X153745238Y-109824809D02*
X153816667Y-109848619D01*
X153816667Y-109848619D02*
X153840476Y-109872428D01*
X154269048Y-109991476D02*
X154269048Y-110324809D01*
X154150000Y-109801000D02*
X154030953Y-110158142D01*
X154030953Y-110158142D02*
X154340476Y-110158142D01*
X154792857Y-110324809D02*
X154507143Y-110324809D01*
X154650000Y-110324809D02*
X154650000Y-109824809D01*
X154650000Y-109824809D02*
X154602381Y-109896238D01*
X154602381Y-109896238D02*
X154554762Y-109943857D01*
X154554762Y-109943857D02*
X154507143Y-109967666D01*
X155269047Y-110324809D02*
X154983333Y-110324809D01*
X155126190Y-110324809D02*
X155126190Y-109824809D01*
X155126190Y-109824809D02*
X155078571Y-109896238D01*
X155078571Y-109896238D02*
X155030952Y-109943857D01*
X155030952Y-109943857D02*
X154983333Y-109967666D01*
D11*
X152870238Y-95688595D02*
X152858334Y-95700500D01*
X152858334Y-95700500D02*
X152822619Y-95712404D01*
X152822619Y-95712404D02*
X152798810Y-95712404D01*
X152798810Y-95712404D02*
X152763096Y-95700500D01*
X152763096Y-95700500D02*
X152739286Y-95676690D01*
X152739286Y-95676690D02*
X152727381Y-95652880D01*
X152727381Y-95652880D02*
X152715477Y-95605261D01*
X152715477Y-95605261D02*
X152715477Y-95569547D01*
X152715477Y-95569547D02*
X152727381Y-95521928D01*
X152727381Y-95521928D02*
X152739286Y-95498119D01*
X152739286Y-95498119D02*
X152763096Y-95474309D01*
X152763096Y-95474309D02*
X152798810Y-95462404D01*
X152798810Y-95462404D02*
X152822619Y-95462404D01*
X152822619Y-95462404D02*
X152858334Y-95474309D01*
X152858334Y-95474309D02*
X152870238Y-95486214D01*
X153084524Y-95545738D02*
X153084524Y-95712404D01*
X153025000Y-95450500D02*
X152965477Y-95629071D01*
X152965477Y-95629071D02*
X153120238Y-95629071D01*
X153263095Y-95462404D02*
X153286905Y-95462404D01*
X153286905Y-95462404D02*
X153310714Y-95474309D01*
X153310714Y-95474309D02*
X153322619Y-95486214D01*
X153322619Y-95486214D02*
X153334524Y-95510023D01*
X153334524Y-95510023D02*
X153346429Y-95557642D01*
X153346429Y-95557642D02*
X153346429Y-95617166D01*
X153346429Y-95617166D02*
X153334524Y-95664785D01*
X153334524Y-95664785D02*
X153322619Y-95688595D01*
X153322619Y-95688595D02*
X153310714Y-95700500D01*
X153310714Y-95700500D02*
X153286905Y-95712404D01*
X153286905Y-95712404D02*
X153263095Y-95712404D01*
X153263095Y-95712404D02*
X153239286Y-95700500D01*
X153239286Y-95700500D02*
X153227381Y-95688595D01*
X153227381Y-95688595D02*
X153215476Y-95664785D01*
X153215476Y-95664785D02*
X153203572Y-95617166D01*
X153203572Y-95617166D02*
X153203572Y-95557642D01*
X153203572Y-95557642D02*
X153215476Y-95510023D01*
X153215476Y-95510023D02*
X153227381Y-95486214D01*
X153227381Y-95486214D02*
X153239286Y-95474309D01*
X153239286Y-95474309D02*
X153263095Y-95462404D01*
X153429762Y-95462404D02*
X153584524Y-95462404D01*
X153584524Y-95462404D02*
X153501190Y-95557642D01*
X153501190Y-95557642D02*
X153536905Y-95557642D01*
X153536905Y-95557642D02*
X153560714Y-95569547D01*
X153560714Y-95569547D02*
X153572619Y-95581452D01*
X153572619Y-95581452D02*
X153584524Y-95605261D01*
X153584524Y-95605261D02*
X153584524Y-95664785D01*
X153584524Y-95664785D02*
X153572619Y-95688595D01*
X153572619Y-95688595D02*
X153560714Y-95700500D01*
X153560714Y-95700500D02*
X153536905Y-95712404D01*
X153536905Y-95712404D02*
X153465476Y-95712404D01*
X153465476Y-95712404D02*
X153441667Y-95700500D01*
X153441667Y-95700500D02*
X153429762Y-95688595D01*
D10*
X135054762Y-95824809D02*
X135054762Y-95324809D01*
X135054762Y-95324809D02*
X135173810Y-95324809D01*
X135173810Y-95324809D02*
X135245238Y-95348619D01*
X135245238Y-95348619D02*
X135292857Y-95396238D01*
X135292857Y-95396238D02*
X135316667Y-95443857D01*
X135316667Y-95443857D02*
X135340476Y-95539095D01*
X135340476Y-95539095D02*
X135340476Y-95610523D01*
X135340476Y-95610523D02*
X135316667Y-95705761D01*
X135316667Y-95705761D02*
X135292857Y-95753380D01*
X135292857Y-95753380D02*
X135245238Y-95801000D01*
X135245238Y-95801000D02*
X135173810Y-95824809D01*
X135173810Y-95824809D02*
X135054762Y-95824809D01*
X135507143Y-95324809D02*
X135816667Y-95324809D01*
X135816667Y-95324809D02*
X135650000Y-95515285D01*
X135650000Y-95515285D02*
X135721429Y-95515285D01*
X135721429Y-95515285D02*
X135769048Y-95539095D01*
X135769048Y-95539095D02*
X135792857Y-95562904D01*
X135792857Y-95562904D02*
X135816667Y-95610523D01*
X135816667Y-95610523D02*
X135816667Y-95729571D01*
X135816667Y-95729571D02*
X135792857Y-95777190D01*
X135792857Y-95777190D02*
X135769048Y-95801000D01*
X135769048Y-95801000D02*
X135721429Y-95824809D01*
X135721429Y-95824809D02*
X135578572Y-95824809D01*
X135578572Y-95824809D02*
X135530953Y-95801000D01*
X135530953Y-95801000D02*
X135507143Y-95777190D01*
X136126190Y-95324809D02*
X136173809Y-95324809D01*
X136173809Y-95324809D02*
X136221428Y-95348619D01*
X136221428Y-95348619D02*
X136245238Y-95372428D01*
X136245238Y-95372428D02*
X136269047Y-95420047D01*
X136269047Y-95420047D02*
X136292857Y-95515285D01*
X136292857Y-95515285D02*
X136292857Y-95634333D01*
X136292857Y-95634333D02*
X136269047Y-95729571D01*
X136269047Y-95729571D02*
X136245238Y-95777190D01*
X136245238Y-95777190D02*
X136221428Y-95801000D01*
X136221428Y-95801000D02*
X136173809Y-95824809D01*
X136173809Y-95824809D02*
X136126190Y-95824809D01*
X136126190Y-95824809D02*
X136078571Y-95801000D01*
X136078571Y-95801000D02*
X136054762Y-95777190D01*
X136054762Y-95777190D02*
X136030952Y-95729571D01*
X136030952Y-95729571D02*
X136007143Y-95634333D01*
X136007143Y-95634333D02*
X136007143Y-95515285D01*
X136007143Y-95515285D02*
X136030952Y-95420047D01*
X136030952Y-95420047D02*
X136054762Y-95372428D01*
X136054762Y-95372428D02*
X136078571Y-95348619D01*
X136078571Y-95348619D02*
X136126190Y-95324809D01*
X136769047Y-95824809D02*
X136483333Y-95824809D01*
X136626190Y-95824809D02*
X136626190Y-95324809D01*
X136626190Y-95324809D02*
X136578571Y-95396238D01*
X136578571Y-95396238D02*
X136530952Y-95443857D01*
X136530952Y-95443857D02*
X136483333Y-95467666D01*
X137624809Y-102242856D02*
X137981952Y-102242856D01*
X137981952Y-102242856D02*
X138053380Y-102266665D01*
X138053380Y-102266665D02*
X138101000Y-102314284D01*
X138101000Y-102314284D02*
X138124809Y-102385713D01*
X138124809Y-102385713D02*
X138124809Y-102433332D01*
X137624809Y-102052380D02*
X137624809Y-101742856D01*
X137624809Y-101742856D02*
X137815285Y-101909523D01*
X137815285Y-101909523D02*
X137815285Y-101838094D01*
X137815285Y-101838094D02*
X137839095Y-101790475D01*
X137839095Y-101790475D02*
X137862904Y-101766666D01*
X137862904Y-101766666D02*
X137910523Y-101742856D01*
X137910523Y-101742856D02*
X138029571Y-101742856D01*
X138029571Y-101742856D02*
X138077190Y-101766666D01*
X138077190Y-101766666D02*
X138101000Y-101790475D01*
X138101000Y-101790475D02*
X138124809Y-101838094D01*
X138124809Y-101838094D02*
X138124809Y-101980951D01*
X138124809Y-101980951D02*
X138101000Y-102028570D01*
X138101000Y-102028570D02*
X138077190Y-102052380D01*
X137624809Y-101433333D02*
X137624809Y-101385714D01*
X137624809Y-101385714D02*
X137648619Y-101338095D01*
X137648619Y-101338095D02*
X137672428Y-101314285D01*
X137672428Y-101314285D02*
X137720047Y-101290476D01*
X137720047Y-101290476D02*
X137815285Y-101266666D01*
X137815285Y-101266666D02*
X137934333Y-101266666D01*
X137934333Y-101266666D02*
X138029571Y-101290476D01*
X138029571Y-101290476D02*
X138077190Y-101314285D01*
X138077190Y-101314285D02*
X138101000Y-101338095D01*
X138101000Y-101338095D02*
X138124809Y-101385714D01*
X138124809Y-101385714D02*
X138124809Y-101433333D01*
X138124809Y-101433333D02*
X138101000Y-101480952D01*
X138101000Y-101480952D02*
X138077190Y-101504761D01*
X138077190Y-101504761D02*
X138029571Y-101528571D01*
X138029571Y-101528571D02*
X137934333Y-101552380D01*
X137934333Y-101552380D02*
X137815285Y-101552380D01*
X137815285Y-101552380D02*
X137720047Y-101528571D01*
X137720047Y-101528571D02*
X137672428Y-101504761D01*
X137672428Y-101504761D02*
X137648619Y-101480952D01*
X137648619Y-101480952D02*
X137624809Y-101433333D01*
X138124809Y-100790476D02*
X138124809Y-101076190D01*
X138124809Y-100933333D02*
X137624809Y-100933333D01*
X137624809Y-100933333D02*
X137696238Y-100980952D01*
X137696238Y-100980952D02*
X137743857Y-101028571D01*
X137743857Y-101028571D02*
X137767666Y-101076190D01*
X153840476Y-93277190D02*
X153816667Y-93301000D01*
X153816667Y-93301000D02*
X153745238Y-93324809D01*
X153745238Y-93324809D02*
X153697619Y-93324809D01*
X153697619Y-93324809D02*
X153626191Y-93301000D01*
X153626191Y-93301000D02*
X153578572Y-93253380D01*
X153578572Y-93253380D02*
X153554762Y-93205761D01*
X153554762Y-93205761D02*
X153530953Y-93110523D01*
X153530953Y-93110523D02*
X153530953Y-93039095D01*
X153530953Y-93039095D02*
X153554762Y-92943857D01*
X153554762Y-92943857D02*
X153578572Y-92896238D01*
X153578572Y-92896238D02*
X153626191Y-92848619D01*
X153626191Y-92848619D02*
X153697619Y-92824809D01*
X153697619Y-92824809D02*
X153745238Y-92824809D01*
X153745238Y-92824809D02*
X153816667Y-92848619D01*
X153816667Y-92848619D02*
X153840476Y-92872428D01*
X154269048Y-92991476D02*
X154269048Y-93324809D01*
X154150000Y-92801000D02*
X154030953Y-93158142D01*
X154030953Y-93158142D02*
X154340476Y-93158142D01*
X154626190Y-92824809D02*
X154673809Y-92824809D01*
X154673809Y-92824809D02*
X154721428Y-92848619D01*
X154721428Y-92848619D02*
X154745238Y-92872428D01*
X154745238Y-92872428D02*
X154769047Y-92920047D01*
X154769047Y-92920047D02*
X154792857Y-93015285D01*
X154792857Y-93015285D02*
X154792857Y-93134333D01*
X154792857Y-93134333D02*
X154769047Y-93229571D01*
X154769047Y-93229571D02*
X154745238Y-93277190D01*
X154745238Y-93277190D02*
X154721428Y-93301000D01*
X154721428Y-93301000D02*
X154673809Y-93324809D01*
X154673809Y-93324809D02*
X154626190Y-93324809D01*
X154626190Y-93324809D02*
X154578571Y-93301000D01*
X154578571Y-93301000D02*
X154554762Y-93277190D01*
X154554762Y-93277190D02*
X154530952Y-93229571D01*
X154530952Y-93229571D02*
X154507143Y-93134333D01*
X154507143Y-93134333D02*
X154507143Y-93015285D01*
X154507143Y-93015285D02*
X154530952Y-92920047D01*
X154530952Y-92920047D02*
X154554762Y-92872428D01*
X154554762Y-92872428D02*
X154578571Y-92848619D01*
X154578571Y-92848619D02*
X154626190Y-92824809D01*
X155078571Y-93039095D02*
X155030952Y-93015285D01*
X155030952Y-93015285D02*
X155007142Y-92991476D01*
X155007142Y-92991476D02*
X154983333Y-92943857D01*
X154983333Y-92943857D02*
X154983333Y-92920047D01*
X154983333Y-92920047D02*
X155007142Y-92872428D01*
X155007142Y-92872428D02*
X155030952Y-92848619D01*
X155030952Y-92848619D02*
X155078571Y-92824809D01*
X155078571Y-92824809D02*
X155173809Y-92824809D01*
X155173809Y-92824809D02*
X155221428Y-92848619D01*
X155221428Y-92848619D02*
X155245237Y-92872428D01*
X155245237Y-92872428D02*
X155269047Y-92920047D01*
X155269047Y-92920047D02*
X155269047Y-92943857D01*
X155269047Y-92943857D02*
X155245237Y-92991476D01*
X155245237Y-92991476D02*
X155221428Y-93015285D01*
X155221428Y-93015285D02*
X155173809Y-93039095D01*
X155173809Y-93039095D02*
X155078571Y-93039095D01*
X155078571Y-93039095D02*
X155030952Y-93062904D01*
X155030952Y-93062904D02*
X155007142Y-93086714D01*
X155007142Y-93086714D02*
X154983333Y-93134333D01*
X154983333Y-93134333D02*
X154983333Y-93229571D01*
X154983333Y-93229571D02*
X155007142Y-93277190D01*
X155007142Y-93277190D02*
X155030952Y-93301000D01*
X155030952Y-93301000D02*
X155078571Y-93324809D01*
X155078571Y-93324809D02*
X155173809Y-93324809D01*
X155173809Y-93324809D02*
X155221428Y-93301000D01*
X155221428Y-93301000D02*
X155245237Y-93277190D01*
X155245237Y-93277190D02*
X155269047Y-93229571D01*
X155269047Y-93229571D02*
X155269047Y-93134333D01*
X155269047Y-93134333D02*
X155245237Y-93086714D01*
X155245237Y-93086714D02*
X155221428Y-93062904D01*
X155221428Y-93062904D02*
X155173809Y-93039095D01*
X151542857Y-98586809D02*
X151542857Y-98991571D01*
X151542857Y-98991571D02*
X151566667Y-99039190D01*
X151566667Y-99039190D02*
X151590476Y-99063000D01*
X151590476Y-99063000D02*
X151638095Y-99086809D01*
X151638095Y-99086809D02*
X151733333Y-99086809D01*
X151733333Y-99086809D02*
X151780952Y-99063000D01*
X151780952Y-99063000D02*
X151804762Y-99039190D01*
X151804762Y-99039190D02*
X151828571Y-98991571D01*
X151828571Y-98991571D02*
X151828571Y-98586809D01*
X152280953Y-98753476D02*
X152280953Y-99086809D01*
X152161905Y-98563000D02*
X152042858Y-98920142D01*
X152042858Y-98920142D02*
X152352381Y-98920142D01*
X152638095Y-98586809D02*
X152685714Y-98586809D01*
X152685714Y-98586809D02*
X152733333Y-98610619D01*
X152733333Y-98610619D02*
X152757143Y-98634428D01*
X152757143Y-98634428D02*
X152780952Y-98682047D01*
X152780952Y-98682047D02*
X152804762Y-98777285D01*
X152804762Y-98777285D02*
X152804762Y-98896333D01*
X152804762Y-98896333D02*
X152780952Y-98991571D01*
X152780952Y-98991571D02*
X152757143Y-99039190D01*
X152757143Y-99039190D02*
X152733333Y-99063000D01*
X152733333Y-99063000D02*
X152685714Y-99086809D01*
X152685714Y-99086809D02*
X152638095Y-99086809D01*
X152638095Y-99086809D02*
X152590476Y-99063000D01*
X152590476Y-99063000D02*
X152566667Y-99039190D01*
X152566667Y-99039190D02*
X152542857Y-98991571D01*
X152542857Y-98991571D02*
X152519048Y-98896333D01*
X152519048Y-98896333D02*
X152519048Y-98777285D01*
X152519048Y-98777285D02*
X152542857Y-98682047D01*
X152542857Y-98682047D02*
X152566667Y-98634428D01*
X152566667Y-98634428D02*
X152590476Y-98610619D01*
X152590476Y-98610619D02*
X152638095Y-98586809D01*
X153280952Y-99086809D02*
X152995238Y-99086809D01*
X153138095Y-99086809D02*
X153138095Y-98586809D01*
X153138095Y-98586809D02*
X153090476Y-98658238D01*
X153090476Y-98658238D02*
X153042857Y-98705857D01*
X153042857Y-98705857D02*
X152995238Y-98729666D01*
D13*
X146266900Y-100390951D02*
X146143091Y-100477618D01*
X146266900Y-100539523D02*
X146006900Y-100539523D01*
X146006900Y-100539523D02*
X146006900Y-100440475D01*
X146006900Y-100440475D02*
X146019281Y-100415713D01*
X146019281Y-100415713D02*
X146031662Y-100403332D01*
X146031662Y-100403332D02*
X146056424Y-100390951D01*
X146056424Y-100390951D02*
X146093567Y-100390951D01*
X146093567Y-100390951D02*
X146118329Y-100403332D01*
X146118329Y-100403332D02*
X146130710Y-100415713D01*
X146130710Y-100415713D02*
X146143091Y-100440475D01*
X146143091Y-100440475D02*
X146143091Y-100539523D01*
X146006900Y-100304285D02*
X146006900Y-100143332D01*
X146006900Y-100143332D02*
X146105948Y-100229999D01*
X146105948Y-100229999D02*
X146105948Y-100192856D01*
X146105948Y-100192856D02*
X146118329Y-100168094D01*
X146118329Y-100168094D02*
X146130710Y-100155713D01*
X146130710Y-100155713D02*
X146155472Y-100143332D01*
X146155472Y-100143332D02*
X146217377Y-100143332D01*
X146217377Y-100143332D02*
X146242139Y-100155713D01*
X146242139Y-100155713D02*
X146254520Y-100168094D01*
X146254520Y-100168094D02*
X146266900Y-100192856D01*
X146266900Y-100192856D02*
X146266900Y-100267142D01*
X146266900Y-100267142D02*
X146254520Y-100291904D01*
X146254520Y-100291904D02*
X146242139Y-100304285D01*
X146006900Y-99982380D02*
X146006900Y-99957618D01*
X146006900Y-99957618D02*
X146019281Y-99932856D01*
X146019281Y-99932856D02*
X146031662Y-99920475D01*
X146031662Y-99920475D02*
X146056424Y-99908094D01*
X146056424Y-99908094D02*
X146105948Y-99895713D01*
X146105948Y-99895713D02*
X146167853Y-99895713D01*
X146167853Y-99895713D02*
X146217377Y-99908094D01*
X146217377Y-99908094D02*
X146242139Y-99920475D01*
X146242139Y-99920475D02*
X146254520Y-99932856D01*
X146254520Y-99932856D02*
X146266900Y-99957618D01*
X146266900Y-99957618D02*
X146266900Y-99982380D01*
X146266900Y-99982380D02*
X146254520Y-100007142D01*
X146254520Y-100007142D02*
X146242139Y-100019523D01*
X146242139Y-100019523D02*
X146217377Y-100031904D01*
X146217377Y-100031904D02*
X146167853Y-100044285D01*
X146167853Y-100044285D02*
X146105948Y-100044285D01*
X146105948Y-100044285D02*
X146056424Y-100031904D01*
X146056424Y-100031904D02*
X146031662Y-100019523D01*
X146031662Y-100019523D02*
X146019281Y-100007142D01*
X146019281Y-100007142D02*
X146006900Y-99982380D01*
X146006900Y-99660475D02*
X146006900Y-99784285D01*
X146006900Y-99784285D02*
X146130710Y-99796666D01*
X146130710Y-99796666D02*
X146118329Y-99784285D01*
X146118329Y-99784285D02*
X146105948Y-99759523D01*
X146105948Y-99759523D02*
X146105948Y-99697618D01*
X146105948Y-99697618D02*
X146118329Y-99672856D01*
X146118329Y-99672856D02*
X146130710Y-99660475D01*
X146130710Y-99660475D02*
X146155472Y-99648094D01*
X146155472Y-99648094D02*
X146217377Y-99648094D01*
X146217377Y-99648094D02*
X146242139Y-99660475D01*
X146242139Y-99660475D02*
X146254520Y-99672856D01*
X146254520Y-99672856D02*
X146266900Y-99697618D01*
X146266900Y-99697618D02*
X146266900Y-99759523D01*
X146266900Y-99759523D02*
X146254520Y-99784285D01*
X146254520Y-99784285D02*
X146242139Y-99796666D01*
D11*
X154120238Y-108188595D02*
X154108334Y-108200500D01*
X154108334Y-108200500D02*
X154072619Y-108212404D01*
X154072619Y-108212404D02*
X154048810Y-108212404D01*
X154048810Y-108212404D02*
X154013096Y-108200500D01*
X154013096Y-108200500D02*
X153989286Y-108176690D01*
X153989286Y-108176690D02*
X153977381Y-108152880D01*
X153977381Y-108152880D02*
X153965477Y-108105261D01*
X153965477Y-108105261D02*
X153965477Y-108069547D01*
X153965477Y-108069547D02*
X153977381Y-108021928D01*
X153977381Y-108021928D02*
X153989286Y-107998119D01*
X153989286Y-107998119D02*
X154013096Y-107974309D01*
X154013096Y-107974309D02*
X154048810Y-107962404D01*
X154048810Y-107962404D02*
X154072619Y-107962404D01*
X154072619Y-107962404D02*
X154108334Y-107974309D01*
X154108334Y-107974309D02*
X154120238Y-107986214D01*
X154334524Y-108045738D02*
X154334524Y-108212404D01*
X154275000Y-107950500D02*
X154215477Y-108129071D01*
X154215477Y-108129071D02*
X154370238Y-108129071D01*
X154596429Y-108212404D02*
X154453572Y-108212404D01*
X154525000Y-108212404D02*
X154525000Y-107962404D01*
X154525000Y-107962404D02*
X154501191Y-107998119D01*
X154501191Y-107998119D02*
X154477381Y-108021928D01*
X154477381Y-108021928D02*
X154453572Y-108033833D01*
X154751190Y-107962404D02*
X154775000Y-107962404D01*
X154775000Y-107962404D02*
X154798809Y-107974309D01*
X154798809Y-107974309D02*
X154810714Y-107986214D01*
X154810714Y-107986214D02*
X154822619Y-108010023D01*
X154822619Y-108010023D02*
X154834524Y-108057642D01*
X154834524Y-108057642D02*
X154834524Y-108117166D01*
X154834524Y-108117166D02*
X154822619Y-108164785D01*
X154822619Y-108164785D02*
X154810714Y-108188595D01*
X154810714Y-108188595D02*
X154798809Y-108200500D01*
X154798809Y-108200500D02*
X154775000Y-108212404D01*
X154775000Y-108212404D02*
X154751190Y-108212404D01*
X154751190Y-108212404D02*
X154727381Y-108200500D01*
X154727381Y-108200500D02*
X154715476Y-108188595D01*
X154715476Y-108188595D02*
X154703571Y-108164785D01*
X154703571Y-108164785D02*
X154691667Y-108117166D01*
X154691667Y-108117166D02*
X154691667Y-108057642D01*
X154691667Y-108057642D02*
X154703571Y-108010023D01*
X154703571Y-108010023D02*
X154715476Y-107986214D01*
X154715476Y-107986214D02*
X154727381Y-107974309D01*
X154727381Y-107974309D02*
X154751190Y-107962404D01*
D10*
X145804762Y-85074809D02*
X145804762Y-84574809D01*
X145804762Y-84574809D02*
X145923810Y-84574809D01*
X145923810Y-84574809D02*
X145995238Y-84598619D01*
X145995238Y-84598619D02*
X146042857Y-84646238D01*
X146042857Y-84646238D02*
X146066667Y-84693857D01*
X146066667Y-84693857D02*
X146090476Y-84789095D01*
X146090476Y-84789095D02*
X146090476Y-84860523D01*
X146090476Y-84860523D02*
X146066667Y-84955761D01*
X146066667Y-84955761D02*
X146042857Y-85003380D01*
X146042857Y-85003380D02*
X145995238Y-85051000D01*
X145995238Y-85051000D02*
X145923810Y-85074809D01*
X145923810Y-85074809D02*
X145804762Y-85074809D01*
X146257143Y-84574809D02*
X146566667Y-84574809D01*
X146566667Y-84574809D02*
X146400000Y-84765285D01*
X146400000Y-84765285D02*
X146471429Y-84765285D01*
X146471429Y-84765285D02*
X146519048Y-84789095D01*
X146519048Y-84789095D02*
X146542857Y-84812904D01*
X146542857Y-84812904D02*
X146566667Y-84860523D01*
X146566667Y-84860523D02*
X146566667Y-84979571D01*
X146566667Y-84979571D02*
X146542857Y-85027190D01*
X146542857Y-85027190D02*
X146519048Y-85051000D01*
X146519048Y-85051000D02*
X146471429Y-85074809D01*
X146471429Y-85074809D02*
X146328572Y-85074809D01*
X146328572Y-85074809D02*
X146280953Y-85051000D01*
X146280953Y-85051000D02*
X146257143Y-85027190D01*
X146876190Y-84574809D02*
X146923809Y-84574809D01*
X146923809Y-84574809D02*
X146971428Y-84598619D01*
X146971428Y-84598619D02*
X146995238Y-84622428D01*
X146995238Y-84622428D02*
X147019047Y-84670047D01*
X147019047Y-84670047D02*
X147042857Y-84765285D01*
X147042857Y-84765285D02*
X147042857Y-84884333D01*
X147042857Y-84884333D02*
X147019047Y-84979571D01*
X147019047Y-84979571D02*
X146995238Y-85027190D01*
X146995238Y-85027190D02*
X146971428Y-85051000D01*
X146971428Y-85051000D02*
X146923809Y-85074809D01*
X146923809Y-85074809D02*
X146876190Y-85074809D01*
X146876190Y-85074809D02*
X146828571Y-85051000D01*
X146828571Y-85051000D02*
X146804762Y-85027190D01*
X146804762Y-85027190D02*
X146780952Y-84979571D01*
X146780952Y-84979571D02*
X146757143Y-84884333D01*
X146757143Y-84884333D02*
X146757143Y-84765285D01*
X146757143Y-84765285D02*
X146780952Y-84670047D01*
X146780952Y-84670047D02*
X146804762Y-84622428D01*
X146804762Y-84622428D02*
X146828571Y-84598619D01*
X146828571Y-84598619D02*
X146876190Y-84574809D01*
X147233333Y-84622428D02*
X147257142Y-84598619D01*
X147257142Y-84598619D02*
X147304761Y-84574809D01*
X147304761Y-84574809D02*
X147423809Y-84574809D01*
X147423809Y-84574809D02*
X147471428Y-84598619D01*
X147471428Y-84598619D02*
X147495237Y-84622428D01*
X147495237Y-84622428D02*
X147519047Y-84670047D01*
X147519047Y-84670047D02*
X147519047Y-84717666D01*
X147519047Y-84717666D02*
X147495237Y-84789095D01*
X147495237Y-84789095D02*
X147209523Y-85074809D01*
X147209523Y-85074809D02*
X147519047Y-85074809D01*
X138340476Y-95074809D02*
X138173810Y-94836714D01*
X138054762Y-95074809D02*
X138054762Y-94574809D01*
X138054762Y-94574809D02*
X138245238Y-94574809D01*
X138245238Y-94574809D02*
X138292857Y-94598619D01*
X138292857Y-94598619D02*
X138316667Y-94622428D01*
X138316667Y-94622428D02*
X138340476Y-94670047D01*
X138340476Y-94670047D02*
X138340476Y-94741476D01*
X138340476Y-94741476D02*
X138316667Y-94789095D01*
X138316667Y-94789095D02*
X138292857Y-94812904D01*
X138292857Y-94812904D02*
X138245238Y-94836714D01*
X138245238Y-94836714D02*
X138054762Y-94836714D01*
X138507143Y-94574809D02*
X138816667Y-94574809D01*
X138816667Y-94574809D02*
X138650000Y-94765285D01*
X138650000Y-94765285D02*
X138721429Y-94765285D01*
X138721429Y-94765285D02*
X138769048Y-94789095D01*
X138769048Y-94789095D02*
X138792857Y-94812904D01*
X138792857Y-94812904D02*
X138816667Y-94860523D01*
X138816667Y-94860523D02*
X138816667Y-94979571D01*
X138816667Y-94979571D02*
X138792857Y-95027190D01*
X138792857Y-95027190D02*
X138769048Y-95051000D01*
X138769048Y-95051000D02*
X138721429Y-95074809D01*
X138721429Y-95074809D02*
X138578572Y-95074809D01*
X138578572Y-95074809D02*
X138530953Y-95051000D01*
X138530953Y-95051000D02*
X138507143Y-95027190D01*
X139126190Y-94574809D02*
X139173809Y-94574809D01*
X139173809Y-94574809D02*
X139221428Y-94598619D01*
X139221428Y-94598619D02*
X139245238Y-94622428D01*
X139245238Y-94622428D02*
X139269047Y-94670047D01*
X139269047Y-94670047D02*
X139292857Y-94765285D01*
X139292857Y-94765285D02*
X139292857Y-94884333D01*
X139292857Y-94884333D02*
X139269047Y-94979571D01*
X139269047Y-94979571D02*
X139245238Y-95027190D01*
X139245238Y-95027190D02*
X139221428Y-95051000D01*
X139221428Y-95051000D02*
X139173809Y-95074809D01*
X139173809Y-95074809D02*
X139126190Y-95074809D01*
X139126190Y-95074809D02*
X139078571Y-95051000D01*
X139078571Y-95051000D02*
X139054762Y-95027190D01*
X139054762Y-95027190D02*
X139030952Y-94979571D01*
X139030952Y-94979571D02*
X139007143Y-94884333D01*
X139007143Y-94884333D02*
X139007143Y-94765285D01*
X139007143Y-94765285D02*
X139030952Y-94670047D01*
X139030952Y-94670047D02*
X139054762Y-94622428D01*
X139054762Y-94622428D02*
X139078571Y-94598619D01*
X139078571Y-94598619D02*
X139126190Y-94574809D01*
X139483333Y-94622428D02*
X139507142Y-94598619D01*
X139507142Y-94598619D02*
X139554761Y-94574809D01*
X139554761Y-94574809D02*
X139673809Y-94574809D01*
X139673809Y-94574809D02*
X139721428Y-94598619D01*
X139721428Y-94598619D02*
X139745237Y-94622428D01*
X139745237Y-94622428D02*
X139769047Y-94670047D01*
X139769047Y-94670047D02*
X139769047Y-94717666D01*
X139769047Y-94717666D02*
X139745237Y-94789095D01*
X139745237Y-94789095D02*
X139459523Y-95074809D01*
X139459523Y-95074809D02*
X139769047Y-95074809D01*
X149840476Y-94324809D02*
X149673810Y-94086714D01*
X149554762Y-94324809D02*
X149554762Y-93824809D01*
X149554762Y-93824809D02*
X149745238Y-93824809D01*
X149745238Y-93824809D02*
X149792857Y-93848619D01*
X149792857Y-93848619D02*
X149816667Y-93872428D01*
X149816667Y-93872428D02*
X149840476Y-93920047D01*
X149840476Y-93920047D02*
X149840476Y-93991476D01*
X149840476Y-93991476D02*
X149816667Y-94039095D01*
X149816667Y-94039095D02*
X149792857Y-94062904D01*
X149792857Y-94062904D02*
X149745238Y-94086714D01*
X149745238Y-94086714D02*
X149554762Y-94086714D01*
X150269048Y-93991476D02*
X150269048Y-94324809D01*
X150150000Y-93801000D02*
X150030953Y-94158142D01*
X150030953Y-94158142D02*
X150340476Y-94158142D01*
X150626190Y-93824809D02*
X150673809Y-93824809D01*
X150673809Y-93824809D02*
X150721428Y-93848619D01*
X150721428Y-93848619D02*
X150745238Y-93872428D01*
X150745238Y-93872428D02*
X150769047Y-93920047D01*
X150769047Y-93920047D02*
X150792857Y-94015285D01*
X150792857Y-94015285D02*
X150792857Y-94134333D01*
X150792857Y-94134333D02*
X150769047Y-94229571D01*
X150769047Y-94229571D02*
X150745238Y-94277190D01*
X150745238Y-94277190D02*
X150721428Y-94301000D01*
X150721428Y-94301000D02*
X150673809Y-94324809D01*
X150673809Y-94324809D02*
X150626190Y-94324809D01*
X150626190Y-94324809D02*
X150578571Y-94301000D01*
X150578571Y-94301000D02*
X150554762Y-94277190D01*
X150554762Y-94277190D02*
X150530952Y-94229571D01*
X150530952Y-94229571D02*
X150507143Y-94134333D01*
X150507143Y-94134333D02*
X150507143Y-94015285D01*
X150507143Y-94015285D02*
X150530952Y-93920047D01*
X150530952Y-93920047D02*
X150554762Y-93872428D01*
X150554762Y-93872428D02*
X150578571Y-93848619D01*
X150578571Y-93848619D02*
X150626190Y-93824809D01*
X150983333Y-93872428D02*
X151007142Y-93848619D01*
X151007142Y-93848619D02*
X151054761Y-93824809D01*
X151054761Y-93824809D02*
X151173809Y-93824809D01*
X151173809Y-93824809D02*
X151221428Y-93848619D01*
X151221428Y-93848619D02*
X151245237Y-93872428D01*
X151245237Y-93872428D02*
X151269047Y-93920047D01*
X151269047Y-93920047D02*
X151269047Y-93967666D01*
X151269047Y-93967666D02*
X151245237Y-94039095D01*
X151245237Y-94039095D02*
X150959523Y-94324809D01*
X150959523Y-94324809D02*
X151269047Y-94324809D01*
D13*
X159766900Y-97390951D02*
X159643091Y-97477618D01*
X159766900Y-97539523D02*
X159506900Y-97539523D01*
X159506900Y-97539523D02*
X159506900Y-97440475D01*
X159506900Y-97440475D02*
X159519281Y-97415713D01*
X159519281Y-97415713D02*
X159531662Y-97403332D01*
X159531662Y-97403332D02*
X159556424Y-97390951D01*
X159556424Y-97390951D02*
X159593567Y-97390951D01*
X159593567Y-97390951D02*
X159618329Y-97403332D01*
X159618329Y-97403332D02*
X159630710Y-97415713D01*
X159630710Y-97415713D02*
X159643091Y-97440475D01*
X159643091Y-97440475D02*
X159643091Y-97539523D01*
X159593567Y-97168094D02*
X159766900Y-97168094D01*
X159494520Y-97229999D02*
X159680234Y-97291904D01*
X159680234Y-97291904D02*
X159680234Y-97130951D01*
X159506900Y-96982380D02*
X159506900Y-96957618D01*
X159506900Y-96957618D02*
X159519281Y-96932856D01*
X159519281Y-96932856D02*
X159531662Y-96920475D01*
X159531662Y-96920475D02*
X159556424Y-96908094D01*
X159556424Y-96908094D02*
X159605948Y-96895713D01*
X159605948Y-96895713D02*
X159667853Y-96895713D01*
X159667853Y-96895713D02*
X159717377Y-96908094D01*
X159717377Y-96908094D02*
X159742139Y-96920475D01*
X159742139Y-96920475D02*
X159754520Y-96932856D01*
X159754520Y-96932856D02*
X159766900Y-96957618D01*
X159766900Y-96957618D02*
X159766900Y-96982380D01*
X159766900Y-96982380D02*
X159754520Y-97007142D01*
X159754520Y-97007142D02*
X159742139Y-97019523D01*
X159742139Y-97019523D02*
X159717377Y-97031904D01*
X159717377Y-97031904D02*
X159667853Y-97044285D01*
X159667853Y-97044285D02*
X159605948Y-97044285D01*
X159605948Y-97044285D02*
X159556424Y-97031904D01*
X159556424Y-97031904D02*
X159531662Y-97019523D01*
X159531662Y-97019523D02*
X159519281Y-97007142D01*
X159519281Y-97007142D02*
X159506900Y-96982380D01*
X159766900Y-96648094D02*
X159766900Y-96796666D01*
X159766900Y-96722380D02*
X159506900Y-96722380D01*
X159506900Y-96722380D02*
X159544043Y-96747142D01*
X159544043Y-96747142D02*
X159568805Y-96771904D01*
X159568805Y-96771904D02*
X159581186Y-96796666D01*
D11*
X148988595Y-96629761D02*
X149000500Y-96641665D01*
X149000500Y-96641665D02*
X149012404Y-96677380D01*
X149012404Y-96677380D02*
X149012404Y-96701189D01*
X149012404Y-96701189D02*
X149000500Y-96736903D01*
X149000500Y-96736903D02*
X148976690Y-96760713D01*
X148976690Y-96760713D02*
X148952880Y-96772618D01*
X148952880Y-96772618D02*
X148905261Y-96784522D01*
X148905261Y-96784522D02*
X148869547Y-96784522D01*
X148869547Y-96784522D02*
X148821928Y-96772618D01*
X148821928Y-96772618D02*
X148798119Y-96760713D01*
X148798119Y-96760713D02*
X148774309Y-96736903D01*
X148774309Y-96736903D02*
X148762404Y-96701189D01*
X148762404Y-96701189D02*
X148762404Y-96677380D01*
X148762404Y-96677380D02*
X148774309Y-96641665D01*
X148774309Y-96641665D02*
X148786214Y-96629761D01*
X148845738Y-96415475D02*
X149012404Y-96415475D01*
X148750500Y-96474999D02*
X148929071Y-96534522D01*
X148929071Y-96534522D02*
X148929071Y-96379761D01*
X148762404Y-96236904D02*
X148762404Y-96213094D01*
X148762404Y-96213094D02*
X148774309Y-96189285D01*
X148774309Y-96189285D02*
X148786214Y-96177380D01*
X148786214Y-96177380D02*
X148810023Y-96165475D01*
X148810023Y-96165475D02*
X148857642Y-96153570D01*
X148857642Y-96153570D02*
X148917166Y-96153570D01*
X148917166Y-96153570D02*
X148964785Y-96165475D01*
X148964785Y-96165475D02*
X148988595Y-96177380D01*
X148988595Y-96177380D02*
X149000500Y-96189285D01*
X149000500Y-96189285D02*
X149012404Y-96213094D01*
X149012404Y-96213094D02*
X149012404Y-96236904D01*
X149012404Y-96236904D02*
X149000500Y-96260713D01*
X149000500Y-96260713D02*
X148988595Y-96272618D01*
X148988595Y-96272618D02*
X148964785Y-96284523D01*
X148964785Y-96284523D02*
X148917166Y-96296427D01*
X148917166Y-96296427D02*
X148857642Y-96296427D01*
X148857642Y-96296427D02*
X148810023Y-96284523D01*
X148810023Y-96284523D02*
X148786214Y-96272618D01*
X148786214Y-96272618D02*
X148774309Y-96260713D01*
X148774309Y-96260713D02*
X148762404Y-96236904D01*
X149012404Y-95915475D02*
X149012404Y-96058332D01*
X149012404Y-95986904D02*
X148762404Y-95986904D01*
X148762404Y-95986904D02*
X148798119Y-96010713D01*
X148798119Y-96010713D02*
X148821928Y-96034523D01*
X148821928Y-96034523D02*
X148833833Y-96058332D01*
D10*
X144019048Y-95074809D02*
X144352381Y-95574809D01*
X144352381Y-95074809D02*
X144019048Y-95574809D01*
X144757143Y-95241476D02*
X144757143Y-95574809D01*
X144638095Y-95051000D02*
X144519048Y-95408142D01*
X144519048Y-95408142D02*
X144828571Y-95408142D01*
X145114285Y-95074809D02*
X145161904Y-95074809D01*
X145161904Y-95074809D02*
X145209523Y-95098619D01*
X145209523Y-95098619D02*
X145233333Y-95122428D01*
X145233333Y-95122428D02*
X145257142Y-95170047D01*
X145257142Y-95170047D02*
X145280952Y-95265285D01*
X145280952Y-95265285D02*
X145280952Y-95384333D01*
X145280952Y-95384333D02*
X145257142Y-95479571D01*
X145257142Y-95479571D02*
X145233333Y-95527190D01*
X145233333Y-95527190D02*
X145209523Y-95551000D01*
X145209523Y-95551000D02*
X145161904Y-95574809D01*
X145161904Y-95574809D02*
X145114285Y-95574809D01*
X145114285Y-95574809D02*
X145066666Y-95551000D01*
X145066666Y-95551000D02*
X145042857Y-95527190D01*
X145042857Y-95527190D02*
X145019047Y-95479571D01*
X145019047Y-95479571D02*
X144995238Y-95384333D01*
X144995238Y-95384333D02*
X144995238Y-95265285D01*
X144995238Y-95265285D02*
X145019047Y-95170047D01*
X145019047Y-95170047D02*
X145042857Y-95122428D01*
X145042857Y-95122428D02*
X145066666Y-95098619D01*
X145066666Y-95098619D02*
X145114285Y-95074809D01*
X145757142Y-95574809D02*
X145471428Y-95574809D01*
X145614285Y-95574809D02*
X145614285Y-95074809D01*
X145614285Y-95074809D02*
X145566666Y-95146238D01*
X145566666Y-95146238D02*
X145519047Y-95193857D01*
X145519047Y-95193857D02*
X145471428Y-95217666D01*
D11*
X165738595Y-93629761D02*
X165750500Y-93641665D01*
X165750500Y-93641665D02*
X165762404Y-93677380D01*
X165762404Y-93677380D02*
X165762404Y-93701189D01*
X165762404Y-93701189D02*
X165750500Y-93736903D01*
X165750500Y-93736903D02*
X165726690Y-93760713D01*
X165726690Y-93760713D02*
X165702880Y-93772618D01*
X165702880Y-93772618D02*
X165655261Y-93784522D01*
X165655261Y-93784522D02*
X165619547Y-93784522D01*
X165619547Y-93784522D02*
X165571928Y-93772618D01*
X165571928Y-93772618D02*
X165548119Y-93760713D01*
X165548119Y-93760713D02*
X165524309Y-93736903D01*
X165524309Y-93736903D02*
X165512404Y-93701189D01*
X165512404Y-93701189D02*
X165512404Y-93677380D01*
X165512404Y-93677380D02*
X165524309Y-93641665D01*
X165524309Y-93641665D02*
X165536214Y-93629761D01*
X165512404Y-93546427D02*
X165512404Y-93391665D01*
X165512404Y-93391665D02*
X165607642Y-93474999D01*
X165607642Y-93474999D02*
X165607642Y-93439284D01*
X165607642Y-93439284D02*
X165619547Y-93415475D01*
X165619547Y-93415475D02*
X165631452Y-93403570D01*
X165631452Y-93403570D02*
X165655261Y-93391665D01*
X165655261Y-93391665D02*
X165714785Y-93391665D01*
X165714785Y-93391665D02*
X165738595Y-93403570D01*
X165738595Y-93403570D02*
X165750500Y-93415475D01*
X165750500Y-93415475D02*
X165762404Y-93439284D01*
X165762404Y-93439284D02*
X165762404Y-93510713D01*
X165762404Y-93510713D02*
X165750500Y-93534522D01*
X165750500Y-93534522D02*
X165738595Y-93546427D01*
X165512404Y-93236904D02*
X165512404Y-93213094D01*
X165512404Y-93213094D02*
X165524309Y-93189285D01*
X165524309Y-93189285D02*
X165536214Y-93177380D01*
X165536214Y-93177380D02*
X165560023Y-93165475D01*
X165560023Y-93165475D02*
X165607642Y-93153570D01*
X165607642Y-93153570D02*
X165667166Y-93153570D01*
X165667166Y-93153570D02*
X165714785Y-93165475D01*
X165714785Y-93165475D02*
X165738595Y-93177380D01*
X165738595Y-93177380D02*
X165750500Y-93189285D01*
X165750500Y-93189285D02*
X165762404Y-93213094D01*
X165762404Y-93213094D02*
X165762404Y-93236904D01*
X165762404Y-93236904D02*
X165750500Y-93260713D01*
X165750500Y-93260713D02*
X165738595Y-93272618D01*
X165738595Y-93272618D02*
X165714785Y-93284523D01*
X165714785Y-93284523D02*
X165667166Y-93296427D01*
X165667166Y-93296427D02*
X165607642Y-93296427D01*
X165607642Y-93296427D02*
X165560023Y-93284523D01*
X165560023Y-93284523D02*
X165536214Y-93272618D01*
X165536214Y-93272618D02*
X165524309Y-93260713D01*
X165524309Y-93260713D02*
X165512404Y-93236904D01*
X165536214Y-93058332D02*
X165524309Y-93046428D01*
X165524309Y-93046428D02*
X165512404Y-93022618D01*
X165512404Y-93022618D02*
X165512404Y-92963094D01*
X165512404Y-92963094D02*
X165524309Y-92939285D01*
X165524309Y-92939285D02*
X165536214Y-92927380D01*
X165536214Y-92927380D02*
X165560023Y-92915475D01*
X165560023Y-92915475D02*
X165583833Y-92915475D01*
X165583833Y-92915475D02*
X165619547Y-92927380D01*
X165619547Y-92927380D02*
X165762404Y-93070237D01*
X165762404Y-93070237D02*
X165762404Y-92915475D01*
D10*
X136042857Y-86324809D02*
X136042857Y-85824809D01*
X136042857Y-86062904D02*
X136328571Y-86062904D01*
X136328571Y-86324809D02*
X136328571Y-85824809D01*
X136542858Y-85872428D02*
X136566667Y-85848619D01*
X136566667Y-85848619D02*
X136614286Y-85824809D01*
X136614286Y-85824809D02*
X136733334Y-85824809D01*
X136733334Y-85824809D02*
X136780953Y-85848619D01*
X136780953Y-85848619D02*
X136804762Y-85872428D01*
X136804762Y-85872428D02*
X136828572Y-85920047D01*
X136828572Y-85920047D02*
X136828572Y-85967666D01*
X136828572Y-85967666D02*
X136804762Y-86039095D01*
X136804762Y-86039095D02*
X136519048Y-86324809D01*
X136519048Y-86324809D02*
X136828572Y-86324809D01*
X137138095Y-85824809D02*
X137185714Y-85824809D01*
X137185714Y-85824809D02*
X137233333Y-85848619D01*
X137233333Y-85848619D02*
X137257143Y-85872428D01*
X137257143Y-85872428D02*
X137280952Y-85920047D01*
X137280952Y-85920047D02*
X137304762Y-86015285D01*
X137304762Y-86015285D02*
X137304762Y-86134333D01*
X137304762Y-86134333D02*
X137280952Y-86229571D01*
X137280952Y-86229571D02*
X137257143Y-86277190D01*
X137257143Y-86277190D02*
X137233333Y-86301000D01*
X137233333Y-86301000D02*
X137185714Y-86324809D01*
X137185714Y-86324809D02*
X137138095Y-86324809D01*
X137138095Y-86324809D02*
X137090476Y-86301000D01*
X137090476Y-86301000D02*
X137066667Y-86277190D01*
X137066667Y-86277190D02*
X137042857Y-86229571D01*
X137042857Y-86229571D02*
X137019048Y-86134333D01*
X137019048Y-86134333D02*
X137019048Y-86015285D01*
X137019048Y-86015285D02*
X137042857Y-85920047D01*
X137042857Y-85920047D02*
X137066667Y-85872428D01*
X137066667Y-85872428D02*
X137090476Y-85848619D01*
X137090476Y-85848619D02*
X137138095Y-85824809D01*
X137780952Y-86324809D02*
X137495238Y-86324809D01*
X137638095Y-86324809D02*
X137638095Y-85824809D01*
X137638095Y-85824809D02*
X137590476Y-85896238D01*
X137590476Y-85896238D02*
X137542857Y-85943857D01*
X137542857Y-85943857D02*
X137495238Y-85967666D01*
D13*
X145359048Y-108466900D02*
X145272381Y-108343091D01*
X145210476Y-108466900D02*
X145210476Y-108206900D01*
X145210476Y-108206900D02*
X145309524Y-108206900D01*
X145309524Y-108206900D02*
X145334286Y-108219281D01*
X145334286Y-108219281D02*
X145346667Y-108231662D01*
X145346667Y-108231662D02*
X145359048Y-108256424D01*
X145359048Y-108256424D02*
X145359048Y-108293567D01*
X145359048Y-108293567D02*
X145346667Y-108318329D01*
X145346667Y-108318329D02*
X145334286Y-108330710D01*
X145334286Y-108330710D02*
X145309524Y-108343091D01*
X145309524Y-108343091D02*
X145210476Y-108343091D01*
X145445714Y-108206900D02*
X145606667Y-108206900D01*
X145606667Y-108206900D02*
X145520000Y-108305948D01*
X145520000Y-108305948D02*
X145557143Y-108305948D01*
X145557143Y-108305948D02*
X145581905Y-108318329D01*
X145581905Y-108318329D02*
X145594286Y-108330710D01*
X145594286Y-108330710D02*
X145606667Y-108355472D01*
X145606667Y-108355472D02*
X145606667Y-108417377D01*
X145606667Y-108417377D02*
X145594286Y-108442139D01*
X145594286Y-108442139D02*
X145581905Y-108454520D01*
X145581905Y-108454520D02*
X145557143Y-108466900D01*
X145557143Y-108466900D02*
X145482857Y-108466900D01*
X145482857Y-108466900D02*
X145458095Y-108454520D01*
X145458095Y-108454520D02*
X145445714Y-108442139D01*
X145767619Y-108206900D02*
X145792381Y-108206900D01*
X145792381Y-108206900D02*
X145817143Y-108219281D01*
X145817143Y-108219281D02*
X145829524Y-108231662D01*
X145829524Y-108231662D02*
X145841905Y-108256424D01*
X145841905Y-108256424D02*
X145854286Y-108305948D01*
X145854286Y-108305948D02*
X145854286Y-108367853D01*
X145854286Y-108367853D02*
X145841905Y-108417377D01*
X145841905Y-108417377D02*
X145829524Y-108442139D01*
X145829524Y-108442139D02*
X145817143Y-108454520D01*
X145817143Y-108454520D02*
X145792381Y-108466900D01*
X145792381Y-108466900D02*
X145767619Y-108466900D01*
X145767619Y-108466900D02*
X145742857Y-108454520D01*
X145742857Y-108454520D02*
X145730476Y-108442139D01*
X145730476Y-108442139D02*
X145718095Y-108417377D01*
X145718095Y-108417377D02*
X145705714Y-108367853D01*
X145705714Y-108367853D02*
X145705714Y-108305948D01*
X145705714Y-108305948D02*
X145718095Y-108256424D01*
X145718095Y-108256424D02*
X145730476Y-108231662D01*
X145730476Y-108231662D02*
X145742857Y-108219281D01*
X145742857Y-108219281D02*
X145767619Y-108206900D01*
X145940952Y-108206900D02*
X146101905Y-108206900D01*
X146101905Y-108206900D02*
X146015238Y-108305948D01*
X146015238Y-108305948D02*
X146052381Y-108305948D01*
X146052381Y-108305948D02*
X146077143Y-108318329D01*
X146077143Y-108318329D02*
X146089524Y-108330710D01*
X146089524Y-108330710D02*
X146101905Y-108355472D01*
X146101905Y-108355472D02*
X146101905Y-108417377D01*
X146101905Y-108417377D02*
X146089524Y-108442139D01*
X146089524Y-108442139D02*
X146077143Y-108454520D01*
X146077143Y-108454520D02*
X146052381Y-108466900D01*
X146052381Y-108466900D02*
X145978095Y-108466900D01*
X145978095Y-108466900D02*
X145953333Y-108454520D01*
X145953333Y-108454520D02*
X145940952Y-108442139D01*
D14*
X156952381Y-96241752D02*
X156933333Y-96260800D01*
X156933333Y-96260800D02*
X156876191Y-96279847D01*
X156876191Y-96279847D02*
X156838095Y-96279847D01*
X156838095Y-96279847D02*
X156780952Y-96260800D01*
X156780952Y-96260800D02*
X156742857Y-96222704D01*
X156742857Y-96222704D02*
X156723810Y-96184609D01*
X156723810Y-96184609D02*
X156704762Y-96108419D01*
X156704762Y-96108419D02*
X156704762Y-96051276D01*
X156704762Y-96051276D02*
X156723810Y-95975085D01*
X156723810Y-95975085D02*
X156742857Y-95936990D01*
X156742857Y-95936990D02*
X156780952Y-95898895D01*
X156780952Y-95898895D02*
X156838095Y-95879847D01*
X156838095Y-95879847D02*
X156876191Y-95879847D01*
X156876191Y-95879847D02*
X156933333Y-95898895D01*
X156933333Y-95898895D02*
X156952381Y-95917942D01*
X157295238Y-96013180D02*
X157295238Y-96279847D01*
X157200000Y-95860800D02*
X157104762Y-96146514D01*
X157104762Y-96146514D02*
X157352381Y-96146514D01*
X157580952Y-95879847D02*
X157619047Y-95879847D01*
X157619047Y-95879847D02*
X157657143Y-95898895D01*
X157657143Y-95898895D02*
X157676190Y-95917942D01*
X157676190Y-95917942D02*
X157695238Y-95956038D01*
X157695238Y-95956038D02*
X157714285Y-96032228D01*
X157714285Y-96032228D02*
X157714285Y-96127466D01*
X157714285Y-96127466D02*
X157695238Y-96203657D01*
X157695238Y-96203657D02*
X157676190Y-96241752D01*
X157676190Y-96241752D02*
X157657143Y-96260800D01*
X157657143Y-96260800D02*
X157619047Y-96279847D01*
X157619047Y-96279847D02*
X157580952Y-96279847D01*
X157580952Y-96279847D02*
X157542857Y-96260800D01*
X157542857Y-96260800D02*
X157523809Y-96241752D01*
X157523809Y-96241752D02*
X157504762Y-96203657D01*
X157504762Y-96203657D02*
X157485714Y-96127466D01*
X157485714Y-96127466D02*
X157485714Y-96032228D01*
X157485714Y-96032228D02*
X157504762Y-95956038D01*
X157504762Y-95956038D02*
X157523809Y-95917942D01*
X157523809Y-95917942D02*
X157542857Y-95898895D01*
X157542857Y-95898895D02*
X157580952Y-95879847D01*
X157866666Y-95917942D02*
X157885714Y-95898895D01*
X157885714Y-95898895D02*
X157923809Y-95879847D01*
X157923809Y-95879847D02*
X158019047Y-95879847D01*
X158019047Y-95879847D02*
X158057142Y-95898895D01*
X158057142Y-95898895D02*
X158076190Y-95917942D01*
X158076190Y-95917942D02*
X158095237Y-95956038D01*
X158095237Y-95956038D02*
X158095237Y-95994133D01*
X158095237Y-95994133D02*
X158076190Y-96051276D01*
X158076190Y-96051276D02*
X157847618Y-96279847D01*
X157847618Y-96279847D02*
X158095237Y-96279847D01*
D13*
X141359048Y-106966900D02*
X141272381Y-106843091D01*
X141210476Y-106966900D02*
X141210476Y-106706900D01*
X141210476Y-106706900D02*
X141309524Y-106706900D01*
X141309524Y-106706900D02*
X141334286Y-106719281D01*
X141334286Y-106719281D02*
X141346667Y-106731662D01*
X141346667Y-106731662D02*
X141359048Y-106756424D01*
X141359048Y-106756424D02*
X141359048Y-106793567D01*
X141359048Y-106793567D02*
X141346667Y-106818329D01*
X141346667Y-106818329D02*
X141334286Y-106830710D01*
X141334286Y-106830710D02*
X141309524Y-106843091D01*
X141309524Y-106843091D02*
X141210476Y-106843091D01*
X141445714Y-106706900D02*
X141606667Y-106706900D01*
X141606667Y-106706900D02*
X141520000Y-106805948D01*
X141520000Y-106805948D02*
X141557143Y-106805948D01*
X141557143Y-106805948D02*
X141581905Y-106818329D01*
X141581905Y-106818329D02*
X141594286Y-106830710D01*
X141594286Y-106830710D02*
X141606667Y-106855472D01*
X141606667Y-106855472D02*
X141606667Y-106917377D01*
X141606667Y-106917377D02*
X141594286Y-106942139D01*
X141594286Y-106942139D02*
X141581905Y-106954520D01*
X141581905Y-106954520D02*
X141557143Y-106966900D01*
X141557143Y-106966900D02*
X141482857Y-106966900D01*
X141482857Y-106966900D02*
X141458095Y-106954520D01*
X141458095Y-106954520D02*
X141445714Y-106942139D01*
X141767619Y-106706900D02*
X141792381Y-106706900D01*
X141792381Y-106706900D02*
X141817143Y-106719281D01*
X141817143Y-106719281D02*
X141829524Y-106731662D01*
X141829524Y-106731662D02*
X141841905Y-106756424D01*
X141841905Y-106756424D02*
X141854286Y-106805948D01*
X141854286Y-106805948D02*
X141854286Y-106867853D01*
X141854286Y-106867853D02*
X141841905Y-106917377D01*
X141841905Y-106917377D02*
X141829524Y-106942139D01*
X141829524Y-106942139D02*
X141817143Y-106954520D01*
X141817143Y-106954520D02*
X141792381Y-106966900D01*
X141792381Y-106966900D02*
X141767619Y-106966900D01*
X141767619Y-106966900D02*
X141742857Y-106954520D01*
X141742857Y-106954520D02*
X141730476Y-106942139D01*
X141730476Y-106942139D02*
X141718095Y-106917377D01*
X141718095Y-106917377D02*
X141705714Y-106867853D01*
X141705714Y-106867853D02*
X141705714Y-106805948D01*
X141705714Y-106805948D02*
X141718095Y-106756424D01*
X141718095Y-106756424D02*
X141730476Y-106731662D01*
X141730476Y-106731662D02*
X141742857Y-106719281D01*
X141742857Y-106719281D02*
X141767619Y-106706900D01*
X142101905Y-106966900D02*
X141953333Y-106966900D01*
X142027619Y-106966900D02*
X142027619Y-106706900D01*
X142027619Y-106706900D02*
X142002857Y-106744043D01*
X142002857Y-106744043D02*
X141978095Y-106768805D01*
X141978095Y-106768805D02*
X141953333Y-106781186D01*
D11*
X169120238Y-91688595D02*
X169108334Y-91700500D01*
X169108334Y-91700500D02*
X169072619Y-91712404D01*
X169072619Y-91712404D02*
X169048810Y-91712404D01*
X169048810Y-91712404D02*
X169013096Y-91700500D01*
X169013096Y-91700500D02*
X168989286Y-91676690D01*
X168989286Y-91676690D02*
X168977381Y-91652880D01*
X168977381Y-91652880D02*
X168965477Y-91605261D01*
X168965477Y-91605261D02*
X168965477Y-91569547D01*
X168965477Y-91569547D02*
X168977381Y-91521928D01*
X168977381Y-91521928D02*
X168989286Y-91498119D01*
X168989286Y-91498119D02*
X169013096Y-91474309D01*
X169013096Y-91474309D02*
X169048810Y-91462404D01*
X169048810Y-91462404D02*
X169072619Y-91462404D01*
X169072619Y-91462404D02*
X169108334Y-91474309D01*
X169108334Y-91474309D02*
X169120238Y-91486214D01*
X169203572Y-91462404D02*
X169358334Y-91462404D01*
X169358334Y-91462404D02*
X169275000Y-91557642D01*
X169275000Y-91557642D02*
X169310715Y-91557642D01*
X169310715Y-91557642D02*
X169334524Y-91569547D01*
X169334524Y-91569547D02*
X169346429Y-91581452D01*
X169346429Y-91581452D02*
X169358334Y-91605261D01*
X169358334Y-91605261D02*
X169358334Y-91664785D01*
X169358334Y-91664785D02*
X169346429Y-91688595D01*
X169346429Y-91688595D02*
X169334524Y-91700500D01*
X169334524Y-91700500D02*
X169310715Y-91712404D01*
X169310715Y-91712404D02*
X169239286Y-91712404D01*
X169239286Y-91712404D02*
X169215477Y-91700500D01*
X169215477Y-91700500D02*
X169203572Y-91688595D01*
X169513095Y-91462404D02*
X169536905Y-91462404D01*
X169536905Y-91462404D02*
X169560714Y-91474309D01*
X169560714Y-91474309D02*
X169572619Y-91486214D01*
X169572619Y-91486214D02*
X169584524Y-91510023D01*
X169584524Y-91510023D02*
X169596429Y-91557642D01*
X169596429Y-91557642D02*
X169596429Y-91617166D01*
X169596429Y-91617166D02*
X169584524Y-91664785D01*
X169584524Y-91664785D02*
X169572619Y-91688595D01*
X169572619Y-91688595D02*
X169560714Y-91700500D01*
X169560714Y-91700500D02*
X169536905Y-91712404D01*
X169536905Y-91712404D02*
X169513095Y-91712404D01*
X169513095Y-91712404D02*
X169489286Y-91700500D01*
X169489286Y-91700500D02*
X169477381Y-91688595D01*
X169477381Y-91688595D02*
X169465476Y-91664785D01*
X169465476Y-91664785D02*
X169453572Y-91617166D01*
X169453572Y-91617166D02*
X169453572Y-91557642D01*
X169453572Y-91557642D02*
X169465476Y-91510023D01*
X169465476Y-91510023D02*
X169477381Y-91486214D01*
X169477381Y-91486214D02*
X169489286Y-91474309D01*
X169489286Y-91474309D02*
X169513095Y-91462404D01*
X169679762Y-91462404D02*
X169834524Y-91462404D01*
X169834524Y-91462404D02*
X169751190Y-91557642D01*
X169751190Y-91557642D02*
X169786905Y-91557642D01*
X169786905Y-91557642D02*
X169810714Y-91569547D01*
X169810714Y-91569547D02*
X169822619Y-91581452D01*
X169822619Y-91581452D02*
X169834524Y-91605261D01*
X169834524Y-91605261D02*
X169834524Y-91664785D01*
X169834524Y-91664785D02*
X169822619Y-91688595D01*
X169822619Y-91688595D02*
X169810714Y-91700500D01*
X169810714Y-91700500D02*
X169786905Y-91712404D01*
X169786905Y-91712404D02*
X169715476Y-91712404D01*
X169715476Y-91712404D02*
X169691667Y-91700500D01*
X169691667Y-91700500D02*
X169679762Y-91688595D01*
D10*
X163827190Y-96659523D02*
X163851000Y-96683332D01*
X163851000Y-96683332D02*
X163874809Y-96754761D01*
X163874809Y-96754761D02*
X163874809Y-96802380D01*
X163874809Y-96802380D02*
X163851000Y-96873808D01*
X163851000Y-96873808D02*
X163803380Y-96921427D01*
X163803380Y-96921427D02*
X163755761Y-96945237D01*
X163755761Y-96945237D02*
X163660523Y-96969046D01*
X163660523Y-96969046D02*
X163589095Y-96969046D01*
X163589095Y-96969046D02*
X163493857Y-96945237D01*
X163493857Y-96945237D02*
X163446238Y-96921427D01*
X163446238Y-96921427D02*
X163398619Y-96873808D01*
X163398619Y-96873808D02*
X163374809Y-96802380D01*
X163374809Y-96802380D02*
X163374809Y-96754761D01*
X163374809Y-96754761D02*
X163398619Y-96683332D01*
X163398619Y-96683332D02*
X163422428Y-96659523D01*
X163374809Y-96492856D02*
X163374809Y-96183332D01*
X163374809Y-96183332D02*
X163565285Y-96349999D01*
X163565285Y-96349999D02*
X163565285Y-96278570D01*
X163565285Y-96278570D02*
X163589095Y-96230951D01*
X163589095Y-96230951D02*
X163612904Y-96207142D01*
X163612904Y-96207142D02*
X163660523Y-96183332D01*
X163660523Y-96183332D02*
X163779571Y-96183332D01*
X163779571Y-96183332D02*
X163827190Y-96207142D01*
X163827190Y-96207142D02*
X163851000Y-96230951D01*
X163851000Y-96230951D02*
X163874809Y-96278570D01*
X163874809Y-96278570D02*
X163874809Y-96421427D01*
X163874809Y-96421427D02*
X163851000Y-96469046D01*
X163851000Y-96469046D02*
X163827190Y-96492856D01*
X163374809Y-95873809D02*
X163374809Y-95826190D01*
X163374809Y-95826190D02*
X163398619Y-95778571D01*
X163398619Y-95778571D02*
X163422428Y-95754761D01*
X163422428Y-95754761D02*
X163470047Y-95730952D01*
X163470047Y-95730952D02*
X163565285Y-95707142D01*
X163565285Y-95707142D02*
X163684333Y-95707142D01*
X163684333Y-95707142D02*
X163779571Y-95730952D01*
X163779571Y-95730952D02*
X163827190Y-95754761D01*
X163827190Y-95754761D02*
X163851000Y-95778571D01*
X163851000Y-95778571D02*
X163874809Y-95826190D01*
X163874809Y-95826190D02*
X163874809Y-95873809D01*
X163874809Y-95873809D02*
X163851000Y-95921428D01*
X163851000Y-95921428D02*
X163827190Y-95945237D01*
X163827190Y-95945237D02*
X163779571Y-95969047D01*
X163779571Y-95969047D02*
X163684333Y-95992856D01*
X163684333Y-95992856D02*
X163565285Y-95992856D01*
X163565285Y-95992856D02*
X163470047Y-95969047D01*
X163470047Y-95969047D02*
X163422428Y-95945237D01*
X163422428Y-95945237D02*
X163398619Y-95921428D01*
X163398619Y-95921428D02*
X163374809Y-95873809D01*
X163374809Y-95254762D02*
X163374809Y-95492857D01*
X163374809Y-95492857D02*
X163612904Y-95516666D01*
X163612904Y-95516666D02*
X163589095Y-95492857D01*
X163589095Y-95492857D02*
X163565285Y-95445238D01*
X163565285Y-95445238D02*
X163565285Y-95326190D01*
X163565285Y-95326190D02*
X163589095Y-95278571D01*
X163589095Y-95278571D02*
X163612904Y-95254762D01*
X163612904Y-95254762D02*
X163660523Y-95230952D01*
X163660523Y-95230952D02*
X163779571Y-95230952D01*
X163779571Y-95230952D02*
X163827190Y-95254762D01*
X163827190Y-95254762D02*
X163851000Y-95278571D01*
X163851000Y-95278571D02*
X163874809Y-95326190D01*
X163874809Y-95326190D02*
X163874809Y-95445238D01*
X163874809Y-95445238D02*
X163851000Y-95492857D01*
X163851000Y-95492857D02*
X163827190Y-95516666D01*
X166517950Y-120562904D02*
X166351283Y-120562904D01*
X166351283Y-120824809D02*
X166351283Y-120324809D01*
X166351283Y-120324809D02*
X166589378Y-120324809D01*
X166779854Y-120824809D02*
X166779854Y-120324809D01*
X167017949Y-120824809D02*
X167017949Y-120324809D01*
X167017949Y-120324809D02*
X167136997Y-120324809D01*
X167136997Y-120324809D02*
X167208425Y-120348619D01*
X167208425Y-120348619D02*
X167256044Y-120396238D01*
X167256044Y-120396238D02*
X167279854Y-120443857D01*
X167279854Y-120443857D02*
X167303663Y-120539095D01*
X167303663Y-120539095D02*
X167303663Y-120610523D01*
X167303663Y-120610523D02*
X167279854Y-120705761D01*
X167279854Y-120705761D02*
X167256044Y-120753380D01*
X167256044Y-120753380D02*
X167208425Y-120801000D01*
X167208425Y-120801000D02*
X167136997Y-120824809D01*
X167136997Y-120824809D02*
X167017949Y-120824809D01*
X167494140Y-120372428D02*
X167517949Y-120348619D01*
X167517949Y-120348619D02*
X167565568Y-120324809D01*
X167565568Y-120324809D02*
X167684616Y-120324809D01*
X167684616Y-120324809D02*
X167732235Y-120348619D01*
X167732235Y-120348619D02*
X167756044Y-120372428D01*
X167756044Y-120372428D02*
X167779854Y-120420047D01*
X167779854Y-120420047D02*
X167779854Y-120467666D01*
X167779854Y-120467666D02*
X167756044Y-120539095D01*
X167756044Y-120539095D02*
X167470330Y-120824809D01*
X167470330Y-120824809D02*
X167779854Y-120824809D01*
X168089377Y-120324809D02*
X168136996Y-120324809D01*
X168136996Y-120324809D02*
X168184615Y-120348619D01*
X168184615Y-120348619D02*
X168208425Y-120372428D01*
X168208425Y-120372428D02*
X168232234Y-120420047D01*
X168232234Y-120420047D02*
X168256044Y-120515285D01*
X168256044Y-120515285D02*
X168256044Y-120634333D01*
X168256044Y-120634333D02*
X168232234Y-120729571D01*
X168232234Y-120729571D02*
X168208425Y-120777190D01*
X168208425Y-120777190D02*
X168184615Y-120801000D01*
X168184615Y-120801000D02*
X168136996Y-120824809D01*
X168136996Y-120824809D02*
X168089377Y-120824809D01*
X168089377Y-120824809D02*
X168041758Y-120801000D01*
X168041758Y-120801000D02*
X168017949Y-120777190D01*
X168017949Y-120777190D02*
X167994139Y-120729571D01*
X167994139Y-120729571D02*
X167970330Y-120634333D01*
X167970330Y-120634333D02*
X167970330Y-120515285D01*
X167970330Y-120515285D02*
X167994139Y-120420047D01*
X167994139Y-120420047D02*
X168017949Y-120372428D01*
X168017949Y-120372428D02*
X168041758Y-120348619D01*
X168041758Y-120348619D02*
X168089377Y-120324809D01*
X168422710Y-120324809D02*
X168732234Y-120324809D01*
X168732234Y-120324809D02*
X168565567Y-120515285D01*
X168565567Y-120515285D02*
X168636996Y-120515285D01*
X168636996Y-120515285D02*
X168684615Y-120539095D01*
X168684615Y-120539095D02*
X168708424Y-120562904D01*
X168708424Y-120562904D02*
X168732234Y-120610523D01*
X168732234Y-120610523D02*
X168732234Y-120729571D01*
X168732234Y-120729571D02*
X168708424Y-120777190D01*
X168708424Y-120777190D02*
X168684615Y-120801000D01*
X168684615Y-120801000D02*
X168636996Y-120824809D01*
X168636996Y-120824809D02*
X168494139Y-120824809D01*
X168494139Y-120824809D02*
X168446520Y-120801000D01*
X168446520Y-120801000D02*
X168422710Y-120777190D01*
D13*
X143359048Y-108466900D02*
X143272381Y-108343091D01*
X143210476Y-108466900D02*
X143210476Y-108206900D01*
X143210476Y-108206900D02*
X143309524Y-108206900D01*
X143309524Y-108206900D02*
X143334286Y-108219281D01*
X143334286Y-108219281D02*
X143346667Y-108231662D01*
X143346667Y-108231662D02*
X143359048Y-108256424D01*
X143359048Y-108256424D02*
X143359048Y-108293567D01*
X143359048Y-108293567D02*
X143346667Y-108318329D01*
X143346667Y-108318329D02*
X143334286Y-108330710D01*
X143334286Y-108330710D02*
X143309524Y-108343091D01*
X143309524Y-108343091D02*
X143210476Y-108343091D01*
X143445714Y-108206900D02*
X143606667Y-108206900D01*
X143606667Y-108206900D02*
X143520000Y-108305948D01*
X143520000Y-108305948D02*
X143557143Y-108305948D01*
X143557143Y-108305948D02*
X143581905Y-108318329D01*
X143581905Y-108318329D02*
X143594286Y-108330710D01*
X143594286Y-108330710D02*
X143606667Y-108355472D01*
X143606667Y-108355472D02*
X143606667Y-108417377D01*
X143606667Y-108417377D02*
X143594286Y-108442139D01*
X143594286Y-108442139D02*
X143581905Y-108454520D01*
X143581905Y-108454520D02*
X143557143Y-108466900D01*
X143557143Y-108466900D02*
X143482857Y-108466900D01*
X143482857Y-108466900D02*
X143458095Y-108454520D01*
X143458095Y-108454520D02*
X143445714Y-108442139D01*
X143767619Y-108206900D02*
X143792381Y-108206900D01*
X143792381Y-108206900D02*
X143817143Y-108219281D01*
X143817143Y-108219281D02*
X143829524Y-108231662D01*
X143829524Y-108231662D02*
X143841905Y-108256424D01*
X143841905Y-108256424D02*
X143854286Y-108305948D01*
X143854286Y-108305948D02*
X143854286Y-108367853D01*
X143854286Y-108367853D02*
X143841905Y-108417377D01*
X143841905Y-108417377D02*
X143829524Y-108442139D01*
X143829524Y-108442139D02*
X143817143Y-108454520D01*
X143817143Y-108454520D02*
X143792381Y-108466900D01*
X143792381Y-108466900D02*
X143767619Y-108466900D01*
X143767619Y-108466900D02*
X143742857Y-108454520D01*
X143742857Y-108454520D02*
X143730476Y-108442139D01*
X143730476Y-108442139D02*
X143718095Y-108417377D01*
X143718095Y-108417377D02*
X143705714Y-108367853D01*
X143705714Y-108367853D02*
X143705714Y-108305948D01*
X143705714Y-108305948D02*
X143718095Y-108256424D01*
X143718095Y-108256424D02*
X143730476Y-108231662D01*
X143730476Y-108231662D02*
X143742857Y-108219281D01*
X143742857Y-108219281D02*
X143767619Y-108206900D01*
X144077143Y-108293567D02*
X144077143Y-108466900D01*
X144015238Y-108194520D02*
X143953333Y-108380234D01*
X143953333Y-108380234D02*
X144114286Y-108380234D01*
D11*
X165738595Y-95879761D02*
X165750500Y-95891665D01*
X165750500Y-95891665D02*
X165762404Y-95927380D01*
X165762404Y-95927380D02*
X165762404Y-95951189D01*
X165762404Y-95951189D02*
X165750500Y-95986903D01*
X165750500Y-95986903D02*
X165726690Y-96010713D01*
X165726690Y-96010713D02*
X165702880Y-96022618D01*
X165702880Y-96022618D02*
X165655261Y-96034522D01*
X165655261Y-96034522D02*
X165619547Y-96034522D01*
X165619547Y-96034522D02*
X165571928Y-96022618D01*
X165571928Y-96022618D02*
X165548119Y-96010713D01*
X165548119Y-96010713D02*
X165524309Y-95986903D01*
X165524309Y-95986903D02*
X165512404Y-95951189D01*
X165512404Y-95951189D02*
X165512404Y-95927380D01*
X165512404Y-95927380D02*
X165524309Y-95891665D01*
X165524309Y-95891665D02*
X165536214Y-95879761D01*
X165512404Y-95796427D02*
X165512404Y-95641665D01*
X165512404Y-95641665D02*
X165607642Y-95724999D01*
X165607642Y-95724999D02*
X165607642Y-95689284D01*
X165607642Y-95689284D02*
X165619547Y-95665475D01*
X165619547Y-95665475D02*
X165631452Y-95653570D01*
X165631452Y-95653570D02*
X165655261Y-95641665D01*
X165655261Y-95641665D02*
X165714785Y-95641665D01*
X165714785Y-95641665D02*
X165738595Y-95653570D01*
X165738595Y-95653570D02*
X165750500Y-95665475D01*
X165750500Y-95665475D02*
X165762404Y-95689284D01*
X165762404Y-95689284D02*
X165762404Y-95760713D01*
X165762404Y-95760713D02*
X165750500Y-95784522D01*
X165750500Y-95784522D02*
X165738595Y-95796427D01*
X165512404Y-95486904D02*
X165512404Y-95463094D01*
X165512404Y-95463094D02*
X165524309Y-95439285D01*
X165524309Y-95439285D02*
X165536214Y-95427380D01*
X165536214Y-95427380D02*
X165560023Y-95415475D01*
X165560023Y-95415475D02*
X165607642Y-95403570D01*
X165607642Y-95403570D02*
X165667166Y-95403570D01*
X165667166Y-95403570D02*
X165714785Y-95415475D01*
X165714785Y-95415475D02*
X165738595Y-95427380D01*
X165738595Y-95427380D02*
X165750500Y-95439285D01*
X165750500Y-95439285D02*
X165762404Y-95463094D01*
X165762404Y-95463094D02*
X165762404Y-95486904D01*
X165762404Y-95486904D02*
X165750500Y-95510713D01*
X165750500Y-95510713D02*
X165738595Y-95522618D01*
X165738595Y-95522618D02*
X165714785Y-95534523D01*
X165714785Y-95534523D02*
X165667166Y-95546427D01*
X165667166Y-95546427D02*
X165607642Y-95546427D01*
X165607642Y-95546427D02*
X165560023Y-95534523D01*
X165560023Y-95534523D02*
X165536214Y-95522618D01*
X165536214Y-95522618D02*
X165524309Y-95510713D01*
X165524309Y-95510713D02*
X165512404Y-95486904D01*
X165595738Y-95189285D02*
X165762404Y-95189285D01*
X165500500Y-95248809D02*
X165679071Y-95308332D01*
X165679071Y-95308332D02*
X165679071Y-95153571D01*
D10*
X167042857Y-86324809D02*
X167042857Y-85824809D01*
X167042857Y-86062904D02*
X167328571Y-86062904D01*
X167328571Y-86324809D02*
X167328571Y-85824809D01*
X167542858Y-85872428D02*
X167566667Y-85848619D01*
X167566667Y-85848619D02*
X167614286Y-85824809D01*
X167614286Y-85824809D02*
X167733334Y-85824809D01*
X167733334Y-85824809D02*
X167780953Y-85848619D01*
X167780953Y-85848619D02*
X167804762Y-85872428D01*
X167804762Y-85872428D02*
X167828572Y-85920047D01*
X167828572Y-85920047D02*
X167828572Y-85967666D01*
X167828572Y-85967666D02*
X167804762Y-86039095D01*
X167804762Y-86039095D02*
X167519048Y-86324809D01*
X167519048Y-86324809D02*
X167828572Y-86324809D01*
X168138095Y-85824809D02*
X168185714Y-85824809D01*
X168185714Y-85824809D02*
X168233333Y-85848619D01*
X168233333Y-85848619D02*
X168257143Y-85872428D01*
X168257143Y-85872428D02*
X168280952Y-85920047D01*
X168280952Y-85920047D02*
X168304762Y-86015285D01*
X168304762Y-86015285D02*
X168304762Y-86134333D01*
X168304762Y-86134333D02*
X168280952Y-86229571D01*
X168280952Y-86229571D02*
X168257143Y-86277190D01*
X168257143Y-86277190D02*
X168233333Y-86301000D01*
X168233333Y-86301000D02*
X168185714Y-86324809D01*
X168185714Y-86324809D02*
X168138095Y-86324809D01*
X168138095Y-86324809D02*
X168090476Y-86301000D01*
X168090476Y-86301000D02*
X168066667Y-86277190D01*
X168066667Y-86277190D02*
X168042857Y-86229571D01*
X168042857Y-86229571D02*
X168019048Y-86134333D01*
X168019048Y-86134333D02*
X168019048Y-86015285D01*
X168019048Y-86015285D02*
X168042857Y-85920047D01*
X168042857Y-85920047D02*
X168066667Y-85872428D01*
X168066667Y-85872428D02*
X168090476Y-85848619D01*
X168090476Y-85848619D02*
X168138095Y-85824809D01*
X168495238Y-85872428D02*
X168519047Y-85848619D01*
X168519047Y-85848619D02*
X168566666Y-85824809D01*
X168566666Y-85824809D02*
X168685714Y-85824809D01*
X168685714Y-85824809D02*
X168733333Y-85848619D01*
X168733333Y-85848619D02*
X168757142Y-85872428D01*
X168757142Y-85872428D02*
X168780952Y-85920047D01*
X168780952Y-85920047D02*
X168780952Y-85967666D01*
X168780952Y-85967666D02*
X168757142Y-86039095D01*
X168757142Y-86039095D02*
X168471428Y-86324809D01*
X168471428Y-86324809D02*
X168780952Y-86324809D01*
X166517950Y-82562904D02*
X166351283Y-82562904D01*
X166351283Y-82824809D02*
X166351283Y-82324809D01*
X166351283Y-82324809D02*
X166589378Y-82324809D01*
X166779854Y-82824809D02*
X166779854Y-82324809D01*
X167017949Y-82824809D02*
X167017949Y-82324809D01*
X167017949Y-82324809D02*
X167136997Y-82324809D01*
X167136997Y-82324809D02*
X167208425Y-82348619D01*
X167208425Y-82348619D02*
X167256044Y-82396238D01*
X167256044Y-82396238D02*
X167279854Y-82443857D01*
X167279854Y-82443857D02*
X167303663Y-82539095D01*
X167303663Y-82539095D02*
X167303663Y-82610523D01*
X167303663Y-82610523D02*
X167279854Y-82705761D01*
X167279854Y-82705761D02*
X167256044Y-82753380D01*
X167256044Y-82753380D02*
X167208425Y-82801000D01*
X167208425Y-82801000D02*
X167136997Y-82824809D01*
X167136997Y-82824809D02*
X167017949Y-82824809D01*
X167494140Y-82372428D02*
X167517949Y-82348619D01*
X167517949Y-82348619D02*
X167565568Y-82324809D01*
X167565568Y-82324809D02*
X167684616Y-82324809D01*
X167684616Y-82324809D02*
X167732235Y-82348619D01*
X167732235Y-82348619D02*
X167756044Y-82372428D01*
X167756044Y-82372428D02*
X167779854Y-82420047D01*
X167779854Y-82420047D02*
X167779854Y-82467666D01*
X167779854Y-82467666D02*
X167756044Y-82539095D01*
X167756044Y-82539095D02*
X167470330Y-82824809D01*
X167470330Y-82824809D02*
X167779854Y-82824809D01*
X168089377Y-82324809D02*
X168136996Y-82324809D01*
X168136996Y-82324809D02*
X168184615Y-82348619D01*
X168184615Y-82348619D02*
X168208425Y-82372428D01*
X168208425Y-82372428D02*
X168232234Y-82420047D01*
X168232234Y-82420047D02*
X168256044Y-82515285D01*
X168256044Y-82515285D02*
X168256044Y-82634333D01*
X168256044Y-82634333D02*
X168232234Y-82729571D01*
X168232234Y-82729571D02*
X168208425Y-82777190D01*
X168208425Y-82777190D02*
X168184615Y-82801000D01*
X168184615Y-82801000D02*
X168136996Y-82824809D01*
X168136996Y-82824809D02*
X168089377Y-82824809D01*
X168089377Y-82824809D02*
X168041758Y-82801000D01*
X168041758Y-82801000D02*
X168017949Y-82777190D01*
X168017949Y-82777190D02*
X167994139Y-82729571D01*
X167994139Y-82729571D02*
X167970330Y-82634333D01*
X167970330Y-82634333D02*
X167970330Y-82515285D01*
X167970330Y-82515285D02*
X167994139Y-82420047D01*
X167994139Y-82420047D02*
X168017949Y-82372428D01*
X168017949Y-82372428D02*
X168041758Y-82348619D01*
X168041758Y-82348619D02*
X168089377Y-82324809D01*
X168446520Y-82372428D02*
X168470329Y-82348619D01*
X168470329Y-82348619D02*
X168517948Y-82324809D01*
X168517948Y-82324809D02*
X168636996Y-82324809D01*
X168636996Y-82324809D02*
X168684615Y-82348619D01*
X168684615Y-82348619D02*
X168708424Y-82372428D01*
X168708424Y-82372428D02*
X168732234Y-82420047D01*
X168732234Y-82420047D02*
X168732234Y-82467666D01*
X168732234Y-82467666D02*
X168708424Y-82539095D01*
X168708424Y-82539095D02*
X168422710Y-82824809D01*
X168422710Y-82824809D02*
X168732234Y-82824809D01*
D11*
X160738595Y-97379761D02*
X160750500Y-97391665D01*
X160750500Y-97391665D02*
X160762404Y-97427380D01*
X160762404Y-97427380D02*
X160762404Y-97451189D01*
X160762404Y-97451189D02*
X160750500Y-97486903D01*
X160750500Y-97486903D02*
X160726690Y-97510713D01*
X160726690Y-97510713D02*
X160702880Y-97522618D01*
X160702880Y-97522618D02*
X160655261Y-97534522D01*
X160655261Y-97534522D02*
X160619547Y-97534522D01*
X160619547Y-97534522D02*
X160571928Y-97522618D01*
X160571928Y-97522618D02*
X160548119Y-97510713D01*
X160548119Y-97510713D02*
X160524309Y-97486903D01*
X160524309Y-97486903D02*
X160512404Y-97451189D01*
X160512404Y-97451189D02*
X160512404Y-97427380D01*
X160512404Y-97427380D02*
X160524309Y-97391665D01*
X160524309Y-97391665D02*
X160536214Y-97379761D01*
X160595738Y-97165475D02*
X160762404Y-97165475D01*
X160500500Y-97224999D02*
X160679071Y-97284522D01*
X160679071Y-97284522D02*
X160679071Y-97129761D01*
X160512404Y-96986904D02*
X160512404Y-96963094D01*
X160512404Y-96963094D02*
X160524309Y-96939285D01*
X160524309Y-96939285D02*
X160536214Y-96927380D01*
X160536214Y-96927380D02*
X160560023Y-96915475D01*
X160560023Y-96915475D02*
X160607642Y-96903570D01*
X160607642Y-96903570D02*
X160667166Y-96903570D01*
X160667166Y-96903570D02*
X160714785Y-96915475D01*
X160714785Y-96915475D02*
X160738595Y-96927380D01*
X160738595Y-96927380D02*
X160750500Y-96939285D01*
X160750500Y-96939285D02*
X160762404Y-96963094D01*
X160762404Y-96963094D02*
X160762404Y-96986904D01*
X160762404Y-96986904D02*
X160750500Y-97010713D01*
X160750500Y-97010713D02*
X160738595Y-97022618D01*
X160738595Y-97022618D02*
X160714785Y-97034523D01*
X160714785Y-97034523D02*
X160667166Y-97046427D01*
X160667166Y-97046427D02*
X160607642Y-97046427D01*
X160607642Y-97046427D02*
X160560023Y-97034523D01*
X160560023Y-97034523D02*
X160536214Y-97022618D01*
X160536214Y-97022618D02*
X160524309Y-97010713D01*
X160524309Y-97010713D02*
X160512404Y-96986904D01*
X160512404Y-96677380D02*
X160512404Y-96796428D01*
X160512404Y-96796428D02*
X160631452Y-96808332D01*
X160631452Y-96808332D02*
X160619547Y-96796428D01*
X160619547Y-96796428D02*
X160607642Y-96772618D01*
X160607642Y-96772618D02*
X160607642Y-96713094D01*
X160607642Y-96713094D02*
X160619547Y-96689285D01*
X160619547Y-96689285D02*
X160631452Y-96677380D01*
X160631452Y-96677380D02*
X160655261Y-96665475D01*
X160655261Y-96665475D02*
X160714785Y-96665475D01*
X160714785Y-96665475D02*
X160738595Y-96677380D01*
X160738595Y-96677380D02*
X160750500Y-96689285D01*
X160750500Y-96689285D02*
X160762404Y-96713094D01*
X160762404Y-96713094D02*
X160762404Y-96772618D01*
X160762404Y-96772618D02*
X160750500Y-96796428D01*
X160750500Y-96796428D02*
X160738595Y-96808332D01*
D10*
X140517950Y-120562904D02*
X140351283Y-120562904D01*
X140351283Y-120824809D02*
X140351283Y-120324809D01*
X140351283Y-120324809D02*
X140589378Y-120324809D01*
X140779854Y-120824809D02*
X140779854Y-120324809D01*
X141017949Y-120824809D02*
X141017949Y-120324809D01*
X141017949Y-120324809D02*
X141136997Y-120324809D01*
X141136997Y-120324809D02*
X141208425Y-120348619D01*
X141208425Y-120348619D02*
X141256044Y-120396238D01*
X141256044Y-120396238D02*
X141279854Y-120443857D01*
X141279854Y-120443857D02*
X141303663Y-120539095D01*
X141303663Y-120539095D02*
X141303663Y-120610523D01*
X141303663Y-120610523D02*
X141279854Y-120705761D01*
X141279854Y-120705761D02*
X141256044Y-120753380D01*
X141256044Y-120753380D02*
X141208425Y-120801000D01*
X141208425Y-120801000D02*
X141136997Y-120824809D01*
X141136997Y-120824809D02*
X141017949Y-120824809D01*
X141494140Y-120372428D02*
X141517949Y-120348619D01*
X141517949Y-120348619D02*
X141565568Y-120324809D01*
X141565568Y-120324809D02*
X141684616Y-120324809D01*
X141684616Y-120324809D02*
X141732235Y-120348619D01*
X141732235Y-120348619D02*
X141756044Y-120372428D01*
X141756044Y-120372428D02*
X141779854Y-120420047D01*
X141779854Y-120420047D02*
X141779854Y-120467666D01*
X141779854Y-120467666D02*
X141756044Y-120539095D01*
X141756044Y-120539095D02*
X141470330Y-120824809D01*
X141470330Y-120824809D02*
X141779854Y-120824809D01*
X142089377Y-120324809D02*
X142136996Y-120324809D01*
X142136996Y-120324809D02*
X142184615Y-120348619D01*
X142184615Y-120348619D02*
X142208425Y-120372428D01*
X142208425Y-120372428D02*
X142232234Y-120420047D01*
X142232234Y-120420047D02*
X142256044Y-120515285D01*
X142256044Y-120515285D02*
X142256044Y-120634333D01*
X142256044Y-120634333D02*
X142232234Y-120729571D01*
X142232234Y-120729571D02*
X142208425Y-120777190D01*
X142208425Y-120777190D02*
X142184615Y-120801000D01*
X142184615Y-120801000D02*
X142136996Y-120824809D01*
X142136996Y-120824809D02*
X142089377Y-120824809D01*
X142089377Y-120824809D02*
X142041758Y-120801000D01*
X142041758Y-120801000D02*
X142017949Y-120777190D01*
X142017949Y-120777190D02*
X141994139Y-120729571D01*
X141994139Y-120729571D02*
X141970330Y-120634333D01*
X141970330Y-120634333D02*
X141970330Y-120515285D01*
X141970330Y-120515285D02*
X141994139Y-120420047D01*
X141994139Y-120420047D02*
X142017949Y-120372428D01*
X142017949Y-120372428D02*
X142041758Y-120348619D01*
X142041758Y-120348619D02*
X142089377Y-120324809D01*
X142684615Y-120491476D02*
X142684615Y-120824809D01*
X142565567Y-120301000D02*
X142446520Y-120658142D01*
X142446520Y-120658142D02*
X142756043Y-120658142D01*
X141612904Y-112195236D02*
X141612904Y-112361903D01*
X141874809Y-112361903D02*
X141374809Y-112361903D01*
X141374809Y-112361903D02*
X141374809Y-112123808D01*
X141874809Y-111695237D02*
X141874809Y-111933332D01*
X141874809Y-111933332D02*
X141374809Y-111933332D01*
X141374809Y-111576189D02*
X141374809Y-111266665D01*
X141374809Y-111266665D02*
X141565285Y-111433332D01*
X141565285Y-111433332D02*
X141565285Y-111361903D01*
X141565285Y-111361903D02*
X141589095Y-111314284D01*
X141589095Y-111314284D02*
X141612904Y-111290475D01*
X141612904Y-111290475D02*
X141660523Y-111266665D01*
X141660523Y-111266665D02*
X141779571Y-111266665D01*
X141779571Y-111266665D02*
X141827190Y-111290475D01*
X141827190Y-111290475D02*
X141851000Y-111314284D01*
X141851000Y-111314284D02*
X141874809Y-111361903D01*
X141874809Y-111361903D02*
X141874809Y-111504760D01*
X141874809Y-111504760D02*
X141851000Y-111552379D01*
X141851000Y-111552379D02*
X141827190Y-111576189D01*
X141374809Y-110957142D02*
X141374809Y-110909523D01*
X141374809Y-110909523D02*
X141398619Y-110861904D01*
X141398619Y-110861904D02*
X141422428Y-110838094D01*
X141422428Y-110838094D02*
X141470047Y-110814285D01*
X141470047Y-110814285D02*
X141565285Y-110790475D01*
X141565285Y-110790475D02*
X141684333Y-110790475D01*
X141684333Y-110790475D02*
X141779571Y-110814285D01*
X141779571Y-110814285D02*
X141827190Y-110838094D01*
X141827190Y-110838094D02*
X141851000Y-110861904D01*
X141851000Y-110861904D02*
X141874809Y-110909523D01*
X141874809Y-110909523D02*
X141874809Y-110957142D01*
X141874809Y-110957142D02*
X141851000Y-111004761D01*
X141851000Y-111004761D02*
X141827190Y-111028570D01*
X141827190Y-111028570D02*
X141779571Y-111052380D01*
X141779571Y-111052380D02*
X141684333Y-111076189D01*
X141684333Y-111076189D02*
X141565285Y-111076189D01*
X141565285Y-111076189D02*
X141470047Y-111052380D01*
X141470047Y-111052380D02*
X141422428Y-111028570D01*
X141422428Y-111028570D02*
X141398619Y-111004761D01*
X141398619Y-111004761D02*
X141374809Y-110957142D01*
X141874809Y-110314285D02*
X141874809Y-110599999D01*
X141874809Y-110457142D02*
X141374809Y-110457142D01*
X141374809Y-110457142D02*
X141446238Y-110504761D01*
X141446238Y-110504761D02*
X141493857Y-110552380D01*
X141493857Y-110552380D02*
X141517666Y-110599999D01*
D11*
X142488595Y-99379761D02*
X142500500Y-99391665D01*
X142500500Y-99391665D02*
X142512404Y-99427380D01*
X142512404Y-99427380D02*
X142512404Y-99451189D01*
X142512404Y-99451189D02*
X142500500Y-99486903D01*
X142500500Y-99486903D02*
X142476690Y-99510713D01*
X142476690Y-99510713D02*
X142452880Y-99522618D01*
X142452880Y-99522618D02*
X142405261Y-99534522D01*
X142405261Y-99534522D02*
X142369547Y-99534522D01*
X142369547Y-99534522D02*
X142321928Y-99522618D01*
X142321928Y-99522618D02*
X142298119Y-99510713D01*
X142298119Y-99510713D02*
X142274309Y-99486903D01*
X142274309Y-99486903D02*
X142262404Y-99451189D01*
X142262404Y-99451189D02*
X142262404Y-99427380D01*
X142262404Y-99427380D02*
X142274309Y-99391665D01*
X142274309Y-99391665D02*
X142286214Y-99379761D01*
X142262404Y-99296427D02*
X142262404Y-99141665D01*
X142262404Y-99141665D02*
X142357642Y-99224999D01*
X142357642Y-99224999D02*
X142357642Y-99189284D01*
X142357642Y-99189284D02*
X142369547Y-99165475D01*
X142369547Y-99165475D02*
X142381452Y-99153570D01*
X142381452Y-99153570D02*
X142405261Y-99141665D01*
X142405261Y-99141665D02*
X142464785Y-99141665D01*
X142464785Y-99141665D02*
X142488595Y-99153570D01*
X142488595Y-99153570D02*
X142500500Y-99165475D01*
X142500500Y-99165475D02*
X142512404Y-99189284D01*
X142512404Y-99189284D02*
X142512404Y-99260713D01*
X142512404Y-99260713D02*
X142500500Y-99284522D01*
X142500500Y-99284522D02*
X142488595Y-99296427D01*
X142262404Y-98986904D02*
X142262404Y-98963094D01*
X142262404Y-98963094D02*
X142274309Y-98939285D01*
X142274309Y-98939285D02*
X142286214Y-98927380D01*
X142286214Y-98927380D02*
X142310023Y-98915475D01*
X142310023Y-98915475D02*
X142357642Y-98903570D01*
X142357642Y-98903570D02*
X142417166Y-98903570D01*
X142417166Y-98903570D02*
X142464785Y-98915475D01*
X142464785Y-98915475D02*
X142488595Y-98927380D01*
X142488595Y-98927380D02*
X142500500Y-98939285D01*
X142500500Y-98939285D02*
X142512404Y-98963094D01*
X142512404Y-98963094D02*
X142512404Y-98986904D01*
X142512404Y-98986904D02*
X142500500Y-99010713D01*
X142500500Y-99010713D02*
X142488595Y-99022618D01*
X142488595Y-99022618D02*
X142464785Y-99034523D01*
X142464785Y-99034523D02*
X142417166Y-99046427D01*
X142417166Y-99046427D02*
X142357642Y-99046427D01*
X142357642Y-99046427D02*
X142310023Y-99034523D01*
X142310023Y-99034523D02*
X142286214Y-99022618D01*
X142286214Y-99022618D02*
X142274309Y-99010713D01*
X142274309Y-99010713D02*
X142262404Y-98986904D01*
X142262404Y-98689285D02*
X142262404Y-98736904D01*
X142262404Y-98736904D02*
X142274309Y-98760713D01*
X142274309Y-98760713D02*
X142286214Y-98772618D01*
X142286214Y-98772618D02*
X142321928Y-98796428D01*
X142321928Y-98796428D02*
X142369547Y-98808332D01*
X142369547Y-98808332D02*
X142464785Y-98808332D01*
X142464785Y-98808332D02*
X142488595Y-98796428D01*
X142488595Y-98796428D02*
X142500500Y-98784523D01*
X142500500Y-98784523D02*
X142512404Y-98760713D01*
X142512404Y-98760713D02*
X142512404Y-98713094D01*
X142512404Y-98713094D02*
X142500500Y-98689285D01*
X142500500Y-98689285D02*
X142488595Y-98677380D01*
X142488595Y-98677380D02*
X142464785Y-98665475D01*
X142464785Y-98665475D02*
X142405261Y-98665475D01*
X142405261Y-98665475D02*
X142381452Y-98677380D01*
X142381452Y-98677380D02*
X142369547Y-98689285D01*
X142369547Y-98689285D02*
X142357642Y-98713094D01*
X142357642Y-98713094D02*
X142357642Y-98760713D01*
X142357642Y-98760713D02*
X142369547Y-98784523D01*
X142369547Y-98784523D02*
X142381452Y-98796428D01*
X142381452Y-98796428D02*
X142405261Y-98808332D01*
D10*
X136042857Y-117324809D02*
X136042857Y-116824809D01*
X136042857Y-117062904D02*
X136328571Y-117062904D01*
X136328571Y-117324809D02*
X136328571Y-116824809D01*
X136542858Y-116872428D02*
X136566667Y-116848619D01*
X136566667Y-116848619D02*
X136614286Y-116824809D01*
X136614286Y-116824809D02*
X136733334Y-116824809D01*
X136733334Y-116824809D02*
X136780953Y-116848619D01*
X136780953Y-116848619D02*
X136804762Y-116872428D01*
X136804762Y-116872428D02*
X136828572Y-116920047D01*
X136828572Y-116920047D02*
X136828572Y-116967666D01*
X136828572Y-116967666D02*
X136804762Y-117039095D01*
X136804762Y-117039095D02*
X136519048Y-117324809D01*
X136519048Y-117324809D02*
X136828572Y-117324809D01*
X137138095Y-116824809D02*
X137185714Y-116824809D01*
X137185714Y-116824809D02*
X137233333Y-116848619D01*
X137233333Y-116848619D02*
X137257143Y-116872428D01*
X137257143Y-116872428D02*
X137280952Y-116920047D01*
X137280952Y-116920047D02*
X137304762Y-117015285D01*
X137304762Y-117015285D02*
X137304762Y-117134333D01*
X137304762Y-117134333D02*
X137280952Y-117229571D01*
X137280952Y-117229571D02*
X137257143Y-117277190D01*
X137257143Y-117277190D02*
X137233333Y-117301000D01*
X137233333Y-117301000D02*
X137185714Y-117324809D01*
X137185714Y-117324809D02*
X137138095Y-117324809D01*
X137138095Y-117324809D02*
X137090476Y-117301000D01*
X137090476Y-117301000D02*
X137066667Y-117277190D01*
X137066667Y-117277190D02*
X137042857Y-117229571D01*
X137042857Y-117229571D02*
X137019048Y-117134333D01*
X137019048Y-117134333D02*
X137019048Y-117015285D01*
X137019048Y-117015285D02*
X137042857Y-116920047D01*
X137042857Y-116920047D02*
X137066667Y-116872428D01*
X137066667Y-116872428D02*
X137090476Y-116848619D01*
X137090476Y-116848619D02*
X137138095Y-116824809D01*
X137733333Y-116991476D02*
X137733333Y-117324809D01*
X137614285Y-116801000D02*
X137495238Y-117158142D01*
X137495238Y-117158142D02*
X137804761Y-117158142D01*
X145374809Y-104957142D02*
X145779571Y-104957142D01*
X145779571Y-104957142D02*
X145827190Y-104933332D01*
X145827190Y-104933332D02*
X145851000Y-104909523D01*
X145851000Y-104909523D02*
X145874809Y-104861904D01*
X145874809Y-104861904D02*
X145874809Y-104766666D01*
X145874809Y-104766666D02*
X145851000Y-104719047D01*
X145851000Y-104719047D02*
X145827190Y-104695237D01*
X145827190Y-104695237D02*
X145779571Y-104671428D01*
X145779571Y-104671428D02*
X145374809Y-104671428D01*
X145374809Y-104480951D02*
X145374809Y-104171427D01*
X145374809Y-104171427D02*
X145565285Y-104338094D01*
X145565285Y-104338094D02*
X145565285Y-104266665D01*
X145565285Y-104266665D02*
X145589095Y-104219046D01*
X145589095Y-104219046D02*
X145612904Y-104195237D01*
X145612904Y-104195237D02*
X145660523Y-104171427D01*
X145660523Y-104171427D02*
X145779571Y-104171427D01*
X145779571Y-104171427D02*
X145827190Y-104195237D01*
X145827190Y-104195237D02*
X145851000Y-104219046D01*
X145851000Y-104219046D02*
X145874809Y-104266665D01*
X145874809Y-104266665D02*
X145874809Y-104409522D01*
X145874809Y-104409522D02*
X145851000Y-104457141D01*
X145851000Y-104457141D02*
X145827190Y-104480951D01*
X145374809Y-103861904D02*
X145374809Y-103814285D01*
X145374809Y-103814285D02*
X145398619Y-103766666D01*
X145398619Y-103766666D02*
X145422428Y-103742856D01*
X145422428Y-103742856D02*
X145470047Y-103719047D01*
X145470047Y-103719047D02*
X145565285Y-103695237D01*
X145565285Y-103695237D02*
X145684333Y-103695237D01*
X145684333Y-103695237D02*
X145779571Y-103719047D01*
X145779571Y-103719047D02*
X145827190Y-103742856D01*
X145827190Y-103742856D02*
X145851000Y-103766666D01*
X145851000Y-103766666D02*
X145874809Y-103814285D01*
X145874809Y-103814285D02*
X145874809Y-103861904D01*
X145874809Y-103861904D02*
X145851000Y-103909523D01*
X145851000Y-103909523D02*
X145827190Y-103933332D01*
X145827190Y-103933332D02*
X145779571Y-103957142D01*
X145779571Y-103957142D02*
X145684333Y-103980951D01*
X145684333Y-103980951D02*
X145565285Y-103980951D01*
X145565285Y-103980951D02*
X145470047Y-103957142D01*
X145470047Y-103957142D02*
X145422428Y-103933332D01*
X145422428Y-103933332D02*
X145398619Y-103909523D01*
X145398619Y-103909523D02*
X145374809Y-103861904D01*
X145422428Y-103504761D02*
X145398619Y-103480952D01*
X145398619Y-103480952D02*
X145374809Y-103433333D01*
X145374809Y-103433333D02*
X145374809Y-103314285D01*
X145374809Y-103314285D02*
X145398619Y-103266666D01*
X145398619Y-103266666D02*
X145422428Y-103242857D01*
X145422428Y-103242857D02*
X145470047Y-103219047D01*
X145470047Y-103219047D02*
X145517666Y-103219047D01*
X145517666Y-103219047D02*
X145589095Y-103242857D01*
X145589095Y-103242857D02*
X145874809Y-103528571D01*
X145874809Y-103528571D02*
X145874809Y-103219047D01*
D15*
X166100001Y-92300000D02*
X169699999Y-92300000D01*
X166100001Y-96900000D02*
X166100001Y-92300000D01*
X166100001Y-96900000D02*
X169699999Y-96900000D01*
X169699999Y-96900000D02*
X169699999Y-92300000D01*
D16*
X166550000Y-91350000D02*
G75*
G03*
X166250000Y-91350000I-150000J0D01*
G01*
X166250000Y-91350000D02*
G75*
G03*
X166550000Y-91350000I150000J0D01*
G01*
D14*
X139900000Y-82600000D02*
G75*
G03*
X138900000Y-82600000I-500000J0D01*
G01*
X138900000Y-82600000D02*
G75*
G03*
X139900000Y-82600000I500000J0D01*
G01*
X152000000Y-109900000D02*
X148800000Y-109900000D01*
X152000000Y-108300000D02*
X152000000Y-109900000D01*
X148800000Y-109900000D02*
X148800000Y-108300000D01*
X148800000Y-108300000D02*
X152000000Y-108300000D01*
X137150000Y-107350000D02*
X138150000Y-107350000D01*
X137150000Y-107850000D02*
X137150000Y-107350000D01*
X138150000Y-107350000D02*
X138150000Y-107850000D01*
X138150000Y-107850000D02*
X137150000Y-107850000D01*
X161650000Y-92950000D02*
X161650000Y-89750000D01*
X164150000Y-92950000D02*
X161650000Y-92950000D01*
X161650000Y-89750000D02*
X164150000Y-89750000D01*
X164150000Y-89750000D02*
X164150000Y-92950000D01*
X154900000Y-94850000D02*
X153900000Y-94850000D01*
X154900000Y-94350000D02*
X154900000Y-94850000D01*
X153900000Y-94850000D02*
X153900000Y-94350000D01*
X153900000Y-94350000D02*
X154900000Y-94350000D01*
X158650000Y-99975000D02*
X160650000Y-99975000D01*
X158650000Y-101225000D02*
X158650000Y-99975000D01*
X160650000Y-99975000D02*
X160650000Y-101225000D01*
X160650000Y-101225000D02*
X158650000Y-101225000D01*
X169500000Y-117100000D02*
G75*
G03*
X166300000Y-117100000I-1600000J0D01*
G01*
X166300000Y-117100000D02*
G75*
G03*
X169500000Y-117100000I1600000J0D01*
G01*
X140150000Y-107850000D02*
X139150000Y-107850000D01*
X140150000Y-107350000D02*
X140150000Y-107850000D01*
X139150000Y-107850000D02*
X139150000Y-107350000D01*
X139150000Y-107350000D02*
X140150000Y-107350000D01*
X148400000Y-105850000D02*
X148400000Y-106850000D01*
X147900000Y-105850000D02*
X148400000Y-105850000D01*
X148400000Y-106850000D02*
X147900000Y-106850000D01*
X147900000Y-106850000D02*
X147900000Y-105850000D01*
D17*
X164525000Y-105250000D02*
X164525000Y-97950000D01*
X172275000Y-105250000D02*
X164525000Y-105250000D01*
X164525000Y-97950000D02*
X172275000Y-97950000D01*
X172275000Y-97950000D02*
X172275000Y-105250000D01*
D16*
X165550000Y-104850000D02*
G75*
G03*
X165250000Y-104850000I-150000J0D01*
G01*
X165250000Y-104850000D02*
G75*
G03*
X165550000Y-104850000I150000J0D01*
G01*
D14*
X153400000Y-109475000D02*
X155400000Y-109475000D01*
X153400000Y-110725000D02*
X153400000Y-109475000D01*
X155400000Y-109475000D02*
X155400000Y-110725000D01*
X155400000Y-110725000D02*
X153400000Y-110725000D01*
X153900000Y-95350000D02*
X154900000Y-95350000D01*
X153900000Y-95850000D02*
X153900000Y-95350000D01*
X154900000Y-95350000D02*
X154900000Y-95850000D01*
X154900000Y-95850000D02*
X153900000Y-95850000D01*
X134700000Y-94650000D02*
X134700000Y-95050000D01*
X134700000Y-94850000D02*
X134600000Y-94850000D01*
X134700000Y-94850000D02*
X135000000Y-94650000D01*
X135000000Y-94650000D02*
X135000000Y-95050000D01*
X135000000Y-95050000D02*
X134700000Y-94850000D01*
D18*
X135353900Y-94545200D02*
X135353900Y-95154800D01*
X135353900Y-95154800D02*
X136446100Y-95154800D01*
X136446100Y-94545200D02*
X135353900Y-94545200D01*
X136446100Y-95154800D02*
X136446100Y-94545200D01*
D14*
X139970000Y-97130000D02*
X132620000Y-97130000D01*
X132620000Y-97130000D02*
X132620000Y-106070000D01*
X132620000Y-106070000D02*
X139970000Y-106070000D01*
X139970000Y-106070000D02*
X139970000Y-97130000D01*
X153400000Y-92475000D02*
X155400000Y-92475000D01*
X153400000Y-93725000D02*
X153400000Y-92475000D01*
X155400000Y-92475000D02*
X155400000Y-93725000D01*
X155400000Y-93725000D02*
X153400000Y-93725000D01*
X148900000Y-99100000D02*
X149900000Y-98100000D01*
X148900000Y-105100000D02*
X148900000Y-99100000D01*
X149900000Y-98100000D02*
X155900000Y-98100000D01*
X155900000Y-98100000D02*
X155900000Y-105100000D01*
X155900000Y-105100000D02*
X148900000Y-105100000D01*
D16*
X148300000Y-98100000D02*
G75*
G03*
X148000000Y-98100000I-150000J0D01*
G01*
X148000000Y-98100000D02*
G75*
G03*
X148300000Y-98100000I150000J0D01*
G01*
D14*
X145880000Y-101875000D02*
X145880000Y-100825000D01*
X146420000Y-101875000D02*
X145880000Y-101875000D01*
X145880000Y-100825000D02*
X146420000Y-100825000D01*
X146420000Y-100825000D02*
X146420000Y-101875000D01*
X153900000Y-108350000D02*
X154900000Y-108350000D01*
X153900000Y-108850000D02*
X153900000Y-108350000D01*
X154900000Y-108350000D02*
X154900000Y-108850000D01*
X154900000Y-108850000D02*
X153900000Y-108850000D01*
X148150000Y-90150000D02*
X145150000Y-90150000D01*
X145850920Y-88499440D02*
X147451120Y-88499440D01*
X146651020Y-88499440D02*
X146651020Y-89401140D01*
X146651020Y-88499440D02*
X145850920Y-87348820D01*
X146651020Y-88499440D02*
X147400320Y-87348820D01*
X146651020Y-87348820D02*
X146651020Y-86350600D01*
X147400320Y-87348820D02*
X145850920Y-87348820D01*
X145150000Y-85550000D02*
X145150000Y-90150000D01*
X145150000Y-85550000D02*
X148150000Y-85550000D01*
X148150000Y-85550000D02*
X148150000Y-90150000D01*
X139900000Y-95475000D02*
X137900000Y-95475000D01*
X139900000Y-94225000D02*
X139900000Y-95475000D01*
X137900000Y-95475000D02*
X137900000Y-94225000D01*
X137900000Y-94225000D02*
X139900000Y-94225000D01*
X152000000Y-94900000D02*
X148800000Y-94900000D01*
X152000000Y-93300000D02*
X152000000Y-94900000D01*
X148800000Y-94900000D02*
X148800000Y-93300000D01*
X148800000Y-93300000D02*
X152000000Y-93300000D01*
X159920000Y-97825000D02*
X159920000Y-98875000D01*
X159380000Y-97825000D02*
X159920000Y-97825000D01*
X159920000Y-98875000D02*
X159380000Y-98875000D01*
X159380000Y-98875000D02*
X159380000Y-97825000D01*
X148150000Y-96850000D02*
X148150000Y-95850000D01*
X148650000Y-96850000D02*
X148150000Y-96850000D01*
X148150000Y-95850000D02*
X148650000Y-95850000D01*
X148650000Y-95850000D02*
X148650000Y-96850000D01*
X147400000Y-96850000D02*
X147300000Y-96950000D01*
X147400000Y-94750000D02*
X146400000Y-93750000D01*
X147400000Y-93850000D02*
X147400000Y-96850000D01*
X147300000Y-96950000D02*
X142500000Y-96950000D01*
X147300000Y-93750000D02*
X147400000Y-93850000D01*
X142500000Y-96950000D02*
X142400000Y-96850000D01*
X142500000Y-93750000D02*
X147300000Y-93750000D01*
X142400000Y-96850000D02*
X142400000Y-93850000D01*
X142400000Y-93850000D02*
X142500000Y-93750000D01*
X164900000Y-93850000D02*
X164900000Y-92850000D01*
X165400000Y-93850000D02*
X164900000Y-93850000D01*
X164900000Y-92850000D02*
X165400000Y-92850000D01*
X165400000Y-92850000D02*
X165400000Y-93850000D01*
X138500000Y-86100000D02*
G75*
G03*
X135300000Y-86100000I-1600000J0D01*
G01*
X135300000Y-86100000D02*
G75*
G03*
X138500000Y-86100000I1600000J0D01*
G01*
D17*
X150250000Y-112950000D02*
X150250000Y-118250000D01*
X150250000Y-118250000D02*
X151750000Y-119750000D01*
X151750000Y-111450000D02*
X150250000Y-112950000D01*
X151750000Y-119750000D02*
X158550000Y-119750000D01*
X158550000Y-111450000D02*
X151750000Y-111450000D01*
X158550000Y-119750000D02*
X158550000Y-111450000D01*
D19*
X149700000Y-113600000D02*
G75*
G03*
X149500000Y-113600000I-100000J0D01*
G01*
X149500000Y-113600000D02*
G75*
G03*
X149700000Y-113600000I100000J0D01*
G01*
X135150000Y-112950000D02*
X138650000Y-112950000D01*
X138650000Y-112950000D02*
X138650000Y-109750000D01*
X138650000Y-109750000D02*
X135150000Y-109750000D01*
X135150000Y-109750000D02*
X135150000Y-112950000D01*
D16*
X138550000Y-113600000D02*
G75*
G03*
X138250000Y-113600000I-150000J0D01*
G01*
X138250000Y-113600000D02*
G75*
G03*
X138550000Y-113600000I150000J0D01*
G01*
D14*
X146175000Y-107870000D02*
X145125000Y-107870000D01*
X146175000Y-107330000D02*
X146175000Y-107870000D01*
X145125000Y-107870000D02*
X145125000Y-107330000D01*
X145125000Y-107330000D02*
X146175000Y-107330000D01*
X158200000Y-96500000D02*
X156600000Y-96500000D01*
X158200000Y-95700000D02*
X158200000Y-96500000D01*
X156600000Y-96500000D02*
X156600000Y-95700000D01*
X156600000Y-95700000D02*
X158200000Y-95700000D01*
X142175000Y-107870000D02*
X141125000Y-107870000D01*
X142175000Y-107330000D02*
X142175000Y-107870000D01*
X141125000Y-107870000D02*
X141125000Y-107330000D01*
X141125000Y-107330000D02*
X142175000Y-107330000D01*
X169900000Y-91350000D02*
X168900000Y-91350000D01*
X169900000Y-90850000D02*
X169900000Y-91350000D01*
X168900000Y-91350000D02*
X168900000Y-90850000D01*
X168900000Y-90850000D02*
X169900000Y-90850000D01*
X164275000Y-95100000D02*
X164275000Y-97100000D01*
X163025000Y-95100000D02*
X164275000Y-95100000D01*
X164275000Y-97100000D02*
X163025000Y-97100000D01*
X163025000Y-97100000D02*
X163025000Y-95100000D01*
X165900000Y-120600000D02*
G75*
G03*
X164900000Y-120600000I-500000J0D01*
G01*
X164900000Y-120600000D02*
G75*
G03*
X165900000Y-120600000I500000J0D01*
G01*
X144175000Y-107870000D02*
X143125000Y-107870000D01*
X144175000Y-107330000D02*
X144175000Y-107870000D01*
X143125000Y-107870000D02*
X143125000Y-107330000D01*
X143125000Y-107330000D02*
X144175000Y-107330000D01*
X165400000Y-95100000D02*
X165400000Y-96100000D01*
X164900000Y-95100000D02*
X165400000Y-95100000D01*
X165400000Y-96100000D02*
X164900000Y-96100000D01*
X164900000Y-96100000D02*
X164900000Y-95100000D01*
X169500000Y-86100000D02*
G75*
G03*
X166300000Y-86100000I-1600000J0D01*
G01*
X166300000Y-86100000D02*
G75*
G03*
X169500000Y-86100000I1600000J0D01*
G01*
X165900000Y-82600000D02*
G75*
G03*
X164900000Y-82600000I-500000J0D01*
G01*
X164900000Y-82600000D02*
G75*
G03*
X165900000Y-82600000I500000J0D01*
G01*
X160900000Y-97850000D02*
X160900000Y-98850000D01*
X160400000Y-97850000D02*
X160900000Y-97850000D01*
X160900000Y-98850000D02*
X160400000Y-98850000D01*
X160400000Y-98850000D02*
X160400000Y-97850000D01*
D17*
X150250000Y-84950000D02*
X150250000Y-90250000D01*
X150250000Y-90250000D02*
X151750000Y-91750000D01*
X151750000Y-83450000D02*
X150250000Y-84950000D01*
X151750000Y-91750000D02*
X158550000Y-91750000D01*
X158550000Y-83450000D02*
X151750000Y-83450000D01*
X158550000Y-91750000D02*
X158550000Y-83450000D01*
D19*
X149700000Y-85600000D02*
G75*
G03*
X149500000Y-85600000I-100000J0D01*
G01*
X149500000Y-85600000D02*
G75*
G03*
X149700000Y-85600000I100000J0D01*
G01*
D14*
X139900000Y-120600000D02*
G75*
G03*
X138900000Y-120600000I-500000J0D01*
G01*
X138900000Y-120600000D02*
G75*
G03*
X139900000Y-120600000I500000J0D01*
G01*
D19*
X143250000Y-109100000D02*
X140050000Y-109100000D01*
X140050000Y-109100000D02*
X140050000Y-113600000D01*
X140050000Y-113600000D02*
X143250000Y-113600000D01*
X143250000Y-113600000D02*
X143250000Y-109100000D01*
D14*
X142150000Y-100850000D02*
X142150000Y-99850000D01*
X142650000Y-100850000D02*
X142150000Y-100850000D01*
X142150000Y-99850000D02*
X142650000Y-99850000D01*
X142650000Y-99850000D02*
X142650000Y-100850000D01*
X138500000Y-117100000D02*
G75*
G03*
X135300000Y-117100000I-1600000J0D01*
G01*
X135300000Y-117100000D02*
G75*
G03*
X138500000Y-117100000I1600000J0D01*
G01*
D19*
X145150000Y-102600000D02*
X141150000Y-102600000D01*
X141150000Y-102600000D02*
X141150000Y-105600000D01*
X141150000Y-105600000D02*
X145150000Y-105600000D01*
X145150000Y-105600000D02*
X145150000Y-102600000D01*
D16*
X145550000Y-101850000D02*
G75*
G03*
X145250000Y-101850000I-150000J0D01*
G01*
X145250000Y-101850000D02*
G75*
G03*
X145550000Y-101850000I150000J0D01*
G01*
M02*
