M48
; DRILL file {KiCad 7.0.11} date Thu 22 Aug 2024 03:24:02 PM EDT
; FORMAT={-:-/ absolute / metric / decimal}
; #@! TF.CreationDate,2024-08-22T15:24:02-04:00
; #@! TF.GenerationSoftware,Kicad,Pcbnew,7.0.11
; #@! TF.FileFunction,Plated,1,4,PTH
FMAT,2
METRIC
; #@! TA.AperFunction,Plated,PTH,ViaDrill
T1C0.200
; #@! TA.AperFunction,Plated,PTH,ComponentDrill
T2C0.200
; #@! TA.AperFunction,Plated,PTH,ViaDrill
T3C0.500
; #@! TA.AperFunction,Plated,PTH,ComponentDrill
T4C1.000
; #@! TA.AperFunction,Plated,PTH,ComponentDrill
T5C2.200
; #@! TA.AperFunction,Plated,PTH,ComponentDrill
T6C3.200
%
G90
G05
T1
X137.4Y-97.1
X137.4Y-98.1
X159.4Y-103.6
X159.4Y-104.6
T2
X150.15Y-99.35
X150.15Y-100.475
X150.15Y-101.6
X150.15Y-102.725
X150.15Y-103.85
X151.275Y-99.35
X151.275Y-100.475
X151.275Y-101.6
X151.275Y-102.725
X151.275Y-103.85
X152.4Y-99.35
X152.4Y-100.475
X152.4Y-101.6
X152.4Y-102.725
X152.4Y-103.85
X153.525Y-99.35
X153.525Y-100.475
X153.525Y-101.6
X153.525Y-102.725
X153.525Y-103.85
X154.65Y-99.35
X154.65Y-100.475
X154.65Y-101.6
X154.65Y-102.725
X154.65Y-103.85
T3
X135.4Y-99.1
X135.4Y-101.1
X135.4Y-103.1
X135.4Y-105.1
X137.4Y-100.1
X137.4Y-102.1
X137.4Y-104.1
X137.4Y-106.1
X145.4Y-109.6
X148.4Y-110.85
X150.4Y-95.6
X150.4Y-107.6
X152.875Y-107.6
X152.9Y-95.6
X153.4Y-90.6
X153.4Y-112.6
X163.15Y-99.35
X163.15Y-100.85
X163.15Y-102.35
X163.15Y-103.85
T4
X141.13Y-91.6
X143.67Y-91.6
T5
X142.4Y-111.6
X162.4Y-91.6
X162.4Y-111.6
T6
X136.9Y-86.1
X136.9Y-117.1
X167.9Y-86.1
X167.9Y-117.1
M30
