%TF.GenerationSoftware,KiCad,Pcbnew,7.0.11*%
%TF.CreationDate,2024-10-22T14:50:31-04:00*%
%TF.ProjectId,prism-pcb,70726973-6d2d-4706-9362-2e6b69636164,2.1*%
%TF.SameCoordinates,Original*%
%TF.FileFunction,Drillmap*%
%TF.FilePolarity,Positive*%
%FSLAX45Y45*%
G04 Gerber Fmt 4.5, Leading zero omitted, Abs format (unit mm)*
G04 Created by KiCad (PCBNEW 7.0.11) date 2024-10-22 14:50:31*
%MOMM*%
%LPD*%
G01*
G04 APERTURE LIST*
%ADD10C,0.100000*%
%ADD11C,0.200000*%
%ADD12C,0.320000*%
G04 APERTURE END LIST*
D10*
X13240000Y-11710000D02*
X13240000Y-8610000D01*
X17240000Y-8610000D02*
X17240000Y-11710000D01*
X16790000Y-12160000D02*
G75*
G03*
X17240000Y-11710000I0J450000D01*
G01*
X17240000Y-8610000D02*
G75*
G03*
X16790000Y-8160000I-450000J0D01*
G01*
X13240000Y-11710000D02*
G75*
G03*
X13690000Y-12160000I450000J0D01*
G01*
X16790000Y-12160000D02*
X13690000Y-12160000D01*
X13690000Y-8160000D02*
G75*
G03*
X13240000Y-8610000I0J-450000D01*
G01*
X13690000Y-8160000D02*
X16790000Y-8160000D01*
D11*
D10*
X15027500Y-9947500D02*
X15052500Y-9972500D01*
X15052500Y-9947500D02*
X15027500Y-9972500D01*
X15027500Y-10047500D02*
X15052500Y-10072500D01*
X15052500Y-10047500D02*
X15027500Y-10072500D01*
X15027500Y-10147500D02*
X15052500Y-10172500D01*
X15052500Y-10147500D02*
X15027500Y-10172500D01*
X15027500Y-10247500D02*
X15052500Y-10272500D01*
X15052500Y-10247500D02*
X15027500Y-10272500D01*
X15027500Y-10347500D02*
X15052500Y-10372500D01*
X15052500Y-10347500D02*
X15027500Y-10372500D01*
X15127500Y-9947500D02*
X15152500Y-9972500D01*
X15152500Y-9947500D02*
X15127500Y-9972500D01*
X15127500Y-10047500D02*
X15152500Y-10072500D01*
X15152500Y-10047500D02*
X15127500Y-10072500D01*
X15127500Y-10147500D02*
X15152500Y-10172500D01*
X15152500Y-10147500D02*
X15127500Y-10172500D01*
X15127500Y-10247500D02*
X15152500Y-10272500D01*
X15152500Y-10247500D02*
X15127500Y-10272500D01*
X15127500Y-10347500D02*
X15152500Y-10372500D01*
X15152500Y-10347500D02*
X15127500Y-10372500D01*
X15227500Y-9947500D02*
X15252500Y-9972500D01*
X15252500Y-9947500D02*
X15227500Y-9972500D01*
X15227500Y-10047500D02*
X15252500Y-10072500D01*
X15252500Y-10047500D02*
X15227500Y-10072500D01*
X15227500Y-10147500D02*
X15252500Y-10172500D01*
X15252500Y-10147500D02*
X15227500Y-10172500D01*
X15227500Y-10247500D02*
X15252500Y-10272500D01*
X15252500Y-10247500D02*
X15227500Y-10272500D01*
X15227500Y-10347500D02*
X15252500Y-10372500D01*
X15252500Y-10347500D02*
X15227500Y-10372500D01*
X15327500Y-9947500D02*
X15352500Y-9972500D01*
X15352500Y-9947500D02*
X15327500Y-9972500D01*
X15327500Y-10047500D02*
X15352500Y-10072500D01*
X15352500Y-10047500D02*
X15327500Y-10072500D01*
X15327500Y-10147500D02*
X15352500Y-10172500D01*
X15352500Y-10147500D02*
X15327500Y-10172500D01*
X15327500Y-10247500D02*
X15352500Y-10272500D01*
X15352500Y-10247500D02*
X15327500Y-10272500D01*
X15327500Y-10347500D02*
X15352500Y-10372500D01*
X15352500Y-10347500D02*
X15327500Y-10372500D01*
X15427500Y-9947500D02*
X15452500Y-9972500D01*
X15452500Y-9947500D02*
X15427500Y-9972500D01*
X15427500Y-10047500D02*
X15452500Y-10072500D01*
X15452500Y-10047500D02*
X15427500Y-10072500D01*
X15427500Y-10147500D02*
X15452500Y-10172500D01*
X15452500Y-10147500D02*
X15427500Y-10172500D01*
X15427500Y-10247500D02*
X15452500Y-10272500D01*
X15452500Y-10247500D02*
X15427500Y-10272500D01*
X15427500Y-10347500D02*
X15452500Y-10372500D01*
X15452500Y-10347500D02*
X15427500Y-10372500D01*
X13565000Y-10160000D02*
G75*
G03*
X13515000Y-10160000I-25000J0D01*
G01*
X13515000Y-10160000D02*
G75*
G03*
X13565000Y-10160000I25000J0D01*
G01*
X13765000Y-10560000D02*
G75*
G03*
X13715000Y-10560000I-25000J0D01*
G01*
X13715000Y-10560000D02*
G75*
G03*
X13765000Y-10560000I25000J0D01*
G01*
X14165000Y-9985000D02*
G75*
G03*
X14115000Y-9985000I-25000J0D01*
G01*
X14115000Y-9985000D02*
G75*
G03*
X14165000Y-9985000I25000J0D01*
G01*
X14165000Y-10335000D02*
G75*
G03*
X14115000Y-10335000I-25000J0D01*
G01*
X14115000Y-10335000D02*
G75*
G03*
X14165000Y-10335000I25000J0D01*
G01*
X14190000Y-9860000D02*
G75*
G03*
X14140000Y-9860000I-25000J0D01*
G01*
X14140000Y-9860000D02*
G75*
G03*
X14190000Y-9860000I25000J0D01*
G01*
X14190000Y-10460000D02*
G75*
G03*
X14140000Y-10460000I-25000J0D01*
G01*
X14140000Y-10460000D02*
G75*
G03*
X14190000Y-10460000I25000J0D01*
G01*
X14340000Y-10335000D02*
G75*
G03*
X14290000Y-10335000I-25000J0D01*
G01*
X14290000Y-10335000D02*
G75*
G03*
X14340000Y-10335000I25000J0D01*
G01*
X14640000Y-10285000D02*
G75*
G03*
X14590000Y-10285000I-25000J0D01*
G01*
X14590000Y-10285000D02*
G75*
G03*
X14640000Y-10285000I25000J0D01*
G01*
X14915000Y-9235000D02*
G75*
G03*
X14865000Y-9235000I-25000J0D01*
G01*
X14865000Y-9235000D02*
G75*
G03*
X14915000Y-9235000I25000J0D01*
G01*
X14915000Y-11085000D02*
G75*
G03*
X14865000Y-11085000I-25000J0D01*
G01*
X14865000Y-11085000D02*
G75*
G03*
X14915000Y-11085000I25000J0D01*
G01*
X15090000Y-9585000D02*
G75*
G03*
X15040000Y-9585000I-25000J0D01*
G01*
X15040000Y-9585000D02*
G75*
G03*
X15090000Y-9585000I25000J0D01*
G01*
X15090000Y-10735000D02*
G75*
G03*
X15040000Y-10735000I-25000J0D01*
G01*
X15040000Y-10735000D02*
G75*
G03*
X15090000Y-10735000I25000J0D01*
G01*
X15290000Y-9585000D02*
G75*
G03*
X15240000Y-9585000I-25000J0D01*
G01*
X15240000Y-9585000D02*
G75*
G03*
X15290000Y-9585000I25000J0D01*
G01*
X15290000Y-10735000D02*
G75*
G03*
X15240000Y-10735000I-25000J0D01*
G01*
X15240000Y-10735000D02*
G75*
G03*
X15290000Y-10735000I25000J0D01*
G01*
X15690000Y-9310000D02*
G75*
G03*
X15640000Y-9310000I-25000J0D01*
G01*
X15640000Y-9310000D02*
G75*
G03*
X15690000Y-9310000I25000J0D01*
G01*
X15715000Y-9785000D02*
G75*
G03*
X15665000Y-9785000I-25000J0D01*
G01*
X15665000Y-9785000D02*
G75*
G03*
X15715000Y-9785000I25000J0D01*
G01*
X16365000Y-9935000D02*
G75*
G03*
X16315000Y-9935000I-25000J0D01*
G01*
X16315000Y-9935000D02*
G75*
G03*
X16365000Y-9935000I25000J0D01*
G01*
X16365000Y-10085000D02*
G75*
G03*
X16315000Y-10085000I-25000J0D01*
G01*
X16315000Y-10085000D02*
G75*
G03*
X16365000Y-10085000I25000J0D01*
G01*
X16365000Y-10235000D02*
G75*
G03*
X16315000Y-10235000I-25000J0D01*
G01*
X16315000Y-10235000D02*
G75*
G03*
X16365000Y-10235000I25000J0D01*
G01*
X16365000Y-10385000D02*
G75*
G03*
X16315000Y-10385000I-25000J0D01*
G01*
X16315000Y-10385000D02*
G75*
G03*
X16365000Y-10385000I25000J0D01*
G01*
X16815000Y-9110000D02*
G75*
G03*
X16765000Y-9110000I-25000J0D01*
G01*
X16765000Y-9110000D02*
G75*
G03*
X16815000Y-9110000I25000J0D01*
G01*
X13940000Y-9698000D02*
X13940000Y-9758000D01*
X13910000Y-9728000D02*
X13970000Y-9728000D01*
X13985000Y-9698000D02*
X13895000Y-9698000D01*
X13895000Y-9698000D02*
G75*
G03*
X13895000Y-9758000I0J-30000D01*
G01*
X13895000Y-9758000D02*
X13985000Y-9758000D01*
X13985000Y-9758000D02*
G75*
G03*
X13985000Y-9698000I0J30000D01*
G01*
X13940000Y-10562000D02*
X13940000Y-10622000D01*
X13910000Y-10592000D02*
X13970000Y-10592000D01*
X13985000Y-10562000D02*
X13895000Y-10562000D01*
X13895000Y-10562000D02*
G75*
G03*
X13895000Y-10622000I0J-30000D01*
G01*
X13895000Y-10622000D02*
X13985000Y-10622000D01*
X13985000Y-10622000D02*
G75*
G03*
X13985000Y-10562000I0J30000D01*
G01*
D12*
X13803138Y-8723138D02*
X13803138Y-8496862D01*
X13576862Y-8496862D01*
X13576862Y-8723138D01*
X13803138Y-8723138D01*
X13803138Y-11823138D02*
X13803138Y-11596862D01*
X13576862Y-11596862D01*
X13576862Y-11823138D01*
X13803138Y-11823138D01*
X16903138Y-8723138D02*
X16903138Y-8496862D01*
X16676862Y-8496862D01*
X16676862Y-8723138D01*
X16903138Y-8723138D01*
X16903138Y-11823138D02*
X16903138Y-11596862D01*
X16676862Y-11596862D01*
X16676862Y-11823138D01*
X16903138Y-11823138D01*
D11*
X13495777Y-12476484D02*
X13495777Y-12276484D01*
X13495777Y-12276484D02*
X13543396Y-12276484D01*
X13543396Y-12276484D02*
X13571967Y-12286008D01*
X13571967Y-12286008D02*
X13591015Y-12305055D01*
X13591015Y-12305055D02*
X13600539Y-12324103D01*
X13600539Y-12324103D02*
X13610062Y-12362198D01*
X13610062Y-12362198D02*
X13610062Y-12390769D01*
X13610062Y-12390769D02*
X13600539Y-12428865D01*
X13600539Y-12428865D02*
X13591015Y-12447912D01*
X13591015Y-12447912D02*
X13571967Y-12466960D01*
X13571967Y-12466960D02*
X13543396Y-12476484D01*
X13543396Y-12476484D02*
X13495777Y-12476484D01*
X13695777Y-12476484D02*
X13695777Y-12343150D01*
X13695777Y-12381246D02*
X13705301Y-12362198D01*
X13705301Y-12362198D02*
X13714824Y-12352674D01*
X13714824Y-12352674D02*
X13733872Y-12343150D01*
X13733872Y-12343150D02*
X13752920Y-12343150D01*
X13819586Y-12476484D02*
X13819586Y-12343150D01*
X13819586Y-12276484D02*
X13810062Y-12286008D01*
X13810062Y-12286008D02*
X13819586Y-12295531D01*
X13819586Y-12295531D02*
X13829110Y-12286008D01*
X13829110Y-12286008D02*
X13819586Y-12276484D01*
X13819586Y-12276484D02*
X13819586Y-12295531D01*
X13943396Y-12476484D02*
X13924348Y-12466960D01*
X13924348Y-12466960D02*
X13914824Y-12447912D01*
X13914824Y-12447912D02*
X13914824Y-12276484D01*
X14048158Y-12476484D02*
X14029110Y-12466960D01*
X14029110Y-12466960D02*
X14019586Y-12447912D01*
X14019586Y-12447912D02*
X14019586Y-12276484D01*
X14276729Y-12476484D02*
X14276729Y-12276484D01*
X14276729Y-12276484D02*
X14343396Y-12419341D01*
X14343396Y-12419341D02*
X14410062Y-12276484D01*
X14410062Y-12276484D02*
X14410062Y-12476484D01*
X14591015Y-12476484D02*
X14591015Y-12371722D01*
X14591015Y-12371722D02*
X14581491Y-12352674D01*
X14581491Y-12352674D02*
X14562443Y-12343150D01*
X14562443Y-12343150D02*
X14524348Y-12343150D01*
X14524348Y-12343150D02*
X14505301Y-12352674D01*
X14591015Y-12466960D02*
X14571967Y-12476484D01*
X14571967Y-12476484D02*
X14524348Y-12476484D01*
X14524348Y-12476484D02*
X14505301Y-12466960D01*
X14505301Y-12466960D02*
X14495777Y-12447912D01*
X14495777Y-12447912D02*
X14495777Y-12428865D01*
X14495777Y-12428865D02*
X14505301Y-12409817D01*
X14505301Y-12409817D02*
X14524348Y-12400293D01*
X14524348Y-12400293D02*
X14571967Y-12400293D01*
X14571967Y-12400293D02*
X14591015Y-12390769D01*
X14686253Y-12343150D02*
X14686253Y-12543150D01*
X14686253Y-12352674D02*
X14705301Y-12343150D01*
X14705301Y-12343150D02*
X14743396Y-12343150D01*
X14743396Y-12343150D02*
X14762443Y-12352674D01*
X14762443Y-12352674D02*
X14771967Y-12362198D01*
X14771967Y-12362198D02*
X14781491Y-12381246D01*
X14781491Y-12381246D02*
X14781491Y-12438388D01*
X14781491Y-12438388D02*
X14771967Y-12457436D01*
X14771967Y-12457436D02*
X14762443Y-12466960D01*
X14762443Y-12466960D02*
X14743396Y-12476484D01*
X14743396Y-12476484D02*
X14705301Y-12476484D01*
X14705301Y-12476484D02*
X14686253Y-12466960D01*
X14867205Y-12457436D02*
X14876729Y-12466960D01*
X14876729Y-12466960D02*
X14867205Y-12476484D01*
X14867205Y-12476484D02*
X14857682Y-12466960D01*
X14857682Y-12466960D02*
X14867205Y-12457436D01*
X14867205Y-12457436D02*
X14867205Y-12476484D01*
X14867205Y-12352674D02*
X14876729Y-12362198D01*
X14876729Y-12362198D02*
X14867205Y-12371722D01*
X14867205Y-12371722D02*
X14857682Y-12362198D01*
X14857682Y-12362198D02*
X14867205Y-12352674D01*
X14867205Y-12352674D02*
X14867205Y-12371722D01*
D10*
X13210000Y-12792500D02*
X13235000Y-12817500D01*
X13235000Y-12792500D02*
X13210000Y-12817500D01*
D11*
X13533872Y-12696484D02*
X13552920Y-12696484D01*
X13552920Y-12696484D02*
X13571967Y-12706008D01*
X13571967Y-12706008D02*
X13581491Y-12715531D01*
X13581491Y-12715531D02*
X13591015Y-12734579D01*
X13591015Y-12734579D02*
X13600539Y-12772674D01*
X13600539Y-12772674D02*
X13600539Y-12820293D01*
X13600539Y-12820293D02*
X13591015Y-12858388D01*
X13591015Y-12858388D02*
X13581491Y-12877436D01*
X13581491Y-12877436D02*
X13571967Y-12886960D01*
X13571967Y-12886960D02*
X13552920Y-12896484D01*
X13552920Y-12896484D02*
X13533872Y-12896484D01*
X13533872Y-12896484D02*
X13514824Y-12886960D01*
X13514824Y-12886960D02*
X13505301Y-12877436D01*
X13505301Y-12877436D02*
X13495777Y-12858388D01*
X13495777Y-12858388D02*
X13486253Y-12820293D01*
X13486253Y-12820293D02*
X13486253Y-12772674D01*
X13486253Y-12772674D02*
X13495777Y-12734579D01*
X13495777Y-12734579D02*
X13505301Y-12715531D01*
X13505301Y-12715531D02*
X13514824Y-12706008D01*
X13514824Y-12706008D02*
X13533872Y-12696484D01*
X13686253Y-12877436D02*
X13695777Y-12886960D01*
X13695777Y-12886960D02*
X13686253Y-12896484D01*
X13686253Y-12896484D02*
X13676729Y-12886960D01*
X13676729Y-12886960D02*
X13686253Y-12877436D01*
X13686253Y-12877436D02*
X13686253Y-12896484D01*
X13771967Y-12715531D02*
X13781491Y-12706008D01*
X13781491Y-12706008D02*
X13800539Y-12696484D01*
X13800539Y-12696484D02*
X13848158Y-12696484D01*
X13848158Y-12696484D02*
X13867205Y-12706008D01*
X13867205Y-12706008D02*
X13876729Y-12715531D01*
X13876729Y-12715531D02*
X13886253Y-12734579D01*
X13886253Y-12734579D02*
X13886253Y-12753627D01*
X13886253Y-12753627D02*
X13876729Y-12782198D01*
X13876729Y-12782198D02*
X13762443Y-12896484D01*
X13762443Y-12896484D02*
X13886253Y-12896484D01*
X14067205Y-12696484D02*
X13971967Y-12696484D01*
X13971967Y-12696484D02*
X13962443Y-12791722D01*
X13962443Y-12791722D02*
X13971967Y-12782198D01*
X13971967Y-12782198D02*
X13991015Y-12772674D01*
X13991015Y-12772674D02*
X14038634Y-12772674D01*
X14038634Y-12772674D02*
X14057682Y-12782198D01*
X14057682Y-12782198D02*
X14067205Y-12791722D01*
X14067205Y-12791722D02*
X14076729Y-12810769D01*
X14076729Y-12810769D02*
X14076729Y-12858388D01*
X14076729Y-12858388D02*
X14067205Y-12877436D01*
X14067205Y-12877436D02*
X14057682Y-12886960D01*
X14057682Y-12886960D02*
X14038634Y-12896484D01*
X14038634Y-12896484D02*
X13991015Y-12896484D01*
X13991015Y-12896484D02*
X13971967Y-12886960D01*
X13971967Y-12886960D02*
X13962443Y-12877436D01*
X14200539Y-12696484D02*
X14219586Y-12696484D01*
X14219586Y-12696484D02*
X14238634Y-12706008D01*
X14238634Y-12706008D02*
X14248158Y-12715531D01*
X14248158Y-12715531D02*
X14257682Y-12734579D01*
X14257682Y-12734579D02*
X14267205Y-12772674D01*
X14267205Y-12772674D02*
X14267205Y-12820293D01*
X14267205Y-12820293D02*
X14257682Y-12858388D01*
X14257682Y-12858388D02*
X14248158Y-12877436D01*
X14248158Y-12877436D02*
X14238634Y-12886960D01*
X14238634Y-12886960D02*
X14219586Y-12896484D01*
X14219586Y-12896484D02*
X14200539Y-12896484D01*
X14200539Y-12896484D02*
X14181491Y-12886960D01*
X14181491Y-12886960D02*
X14171967Y-12877436D01*
X14171967Y-12877436D02*
X14162443Y-12858388D01*
X14162443Y-12858388D02*
X14152920Y-12820293D01*
X14152920Y-12820293D02*
X14152920Y-12772674D01*
X14152920Y-12772674D02*
X14162443Y-12734579D01*
X14162443Y-12734579D02*
X14171967Y-12715531D01*
X14171967Y-12715531D02*
X14181491Y-12706008D01*
X14181491Y-12706008D02*
X14200539Y-12696484D01*
X14352920Y-12896484D02*
X14352920Y-12763150D01*
X14352920Y-12782198D02*
X14362443Y-12772674D01*
X14362443Y-12772674D02*
X14381491Y-12763150D01*
X14381491Y-12763150D02*
X14410063Y-12763150D01*
X14410063Y-12763150D02*
X14429110Y-12772674D01*
X14429110Y-12772674D02*
X14438634Y-12791722D01*
X14438634Y-12791722D02*
X14438634Y-12896484D01*
X14438634Y-12791722D02*
X14448158Y-12772674D01*
X14448158Y-12772674D02*
X14467205Y-12763150D01*
X14467205Y-12763150D02*
X14495777Y-12763150D01*
X14495777Y-12763150D02*
X14514824Y-12772674D01*
X14514824Y-12772674D02*
X14524348Y-12791722D01*
X14524348Y-12791722D02*
X14524348Y-12896484D01*
X14619586Y-12896484D02*
X14619586Y-12763150D01*
X14619586Y-12782198D02*
X14629110Y-12772674D01*
X14629110Y-12772674D02*
X14648158Y-12763150D01*
X14648158Y-12763150D02*
X14676729Y-12763150D01*
X14676729Y-12763150D02*
X14695777Y-12772674D01*
X14695777Y-12772674D02*
X14705301Y-12791722D01*
X14705301Y-12791722D02*
X14705301Y-12896484D01*
X14705301Y-12791722D02*
X14714824Y-12772674D01*
X14714824Y-12772674D02*
X14733872Y-12763150D01*
X14733872Y-12763150D02*
X14762443Y-12763150D01*
X14762443Y-12763150D02*
X14781491Y-12772674D01*
X14781491Y-12772674D02*
X14791015Y-12791722D01*
X14791015Y-12791722D02*
X14791015Y-12896484D01*
X15181491Y-12686960D02*
X15010063Y-12944103D01*
X15438634Y-12696484D02*
X15457682Y-12696484D01*
X15457682Y-12696484D02*
X15476729Y-12706008D01*
X15476729Y-12706008D02*
X15486253Y-12715531D01*
X15486253Y-12715531D02*
X15495777Y-12734579D01*
X15495777Y-12734579D02*
X15505301Y-12772674D01*
X15505301Y-12772674D02*
X15505301Y-12820293D01*
X15505301Y-12820293D02*
X15495777Y-12858388D01*
X15495777Y-12858388D02*
X15486253Y-12877436D01*
X15486253Y-12877436D02*
X15476729Y-12886960D01*
X15476729Y-12886960D02*
X15457682Y-12896484D01*
X15457682Y-12896484D02*
X15438634Y-12896484D01*
X15438634Y-12896484D02*
X15419586Y-12886960D01*
X15419586Y-12886960D02*
X15410063Y-12877436D01*
X15410063Y-12877436D02*
X15400539Y-12858388D01*
X15400539Y-12858388D02*
X15391015Y-12820293D01*
X15391015Y-12820293D02*
X15391015Y-12772674D01*
X15391015Y-12772674D02*
X15400539Y-12734579D01*
X15400539Y-12734579D02*
X15410063Y-12715531D01*
X15410063Y-12715531D02*
X15419586Y-12706008D01*
X15419586Y-12706008D02*
X15438634Y-12696484D01*
X15591015Y-12877436D02*
X15600539Y-12886960D01*
X15600539Y-12886960D02*
X15591015Y-12896484D01*
X15591015Y-12896484D02*
X15581491Y-12886960D01*
X15581491Y-12886960D02*
X15591015Y-12877436D01*
X15591015Y-12877436D02*
X15591015Y-12896484D01*
X15724348Y-12696484D02*
X15743396Y-12696484D01*
X15743396Y-12696484D02*
X15762444Y-12706008D01*
X15762444Y-12706008D02*
X15771967Y-12715531D01*
X15771967Y-12715531D02*
X15781491Y-12734579D01*
X15781491Y-12734579D02*
X15791015Y-12772674D01*
X15791015Y-12772674D02*
X15791015Y-12820293D01*
X15791015Y-12820293D02*
X15781491Y-12858388D01*
X15781491Y-12858388D02*
X15771967Y-12877436D01*
X15771967Y-12877436D02*
X15762444Y-12886960D01*
X15762444Y-12886960D02*
X15743396Y-12896484D01*
X15743396Y-12896484D02*
X15724348Y-12896484D01*
X15724348Y-12896484D02*
X15705301Y-12886960D01*
X15705301Y-12886960D02*
X15695777Y-12877436D01*
X15695777Y-12877436D02*
X15686253Y-12858388D01*
X15686253Y-12858388D02*
X15676729Y-12820293D01*
X15676729Y-12820293D02*
X15676729Y-12772674D01*
X15676729Y-12772674D02*
X15686253Y-12734579D01*
X15686253Y-12734579D02*
X15695777Y-12715531D01*
X15695777Y-12715531D02*
X15705301Y-12706008D01*
X15705301Y-12706008D02*
X15724348Y-12696484D01*
X15914825Y-12696484D02*
X15933872Y-12696484D01*
X15933872Y-12696484D02*
X15952920Y-12706008D01*
X15952920Y-12706008D02*
X15962444Y-12715531D01*
X15962444Y-12715531D02*
X15971967Y-12734579D01*
X15971967Y-12734579D02*
X15981491Y-12772674D01*
X15981491Y-12772674D02*
X15981491Y-12820293D01*
X15981491Y-12820293D02*
X15971967Y-12858388D01*
X15971967Y-12858388D02*
X15962444Y-12877436D01*
X15962444Y-12877436D02*
X15952920Y-12886960D01*
X15952920Y-12886960D02*
X15933872Y-12896484D01*
X15933872Y-12896484D02*
X15914825Y-12896484D01*
X15914825Y-12896484D02*
X15895777Y-12886960D01*
X15895777Y-12886960D02*
X15886253Y-12877436D01*
X15886253Y-12877436D02*
X15876729Y-12858388D01*
X15876729Y-12858388D02*
X15867206Y-12820293D01*
X15867206Y-12820293D02*
X15867206Y-12772674D01*
X15867206Y-12772674D02*
X15876729Y-12734579D01*
X15876729Y-12734579D02*
X15886253Y-12715531D01*
X15886253Y-12715531D02*
X15895777Y-12706008D01*
X15895777Y-12706008D02*
X15914825Y-12696484D01*
X16076729Y-12896484D02*
X16114825Y-12896484D01*
X16114825Y-12896484D02*
X16133872Y-12886960D01*
X16133872Y-12886960D02*
X16143396Y-12877436D01*
X16143396Y-12877436D02*
X16162444Y-12848865D01*
X16162444Y-12848865D02*
X16171967Y-12810769D01*
X16171967Y-12810769D02*
X16171967Y-12734579D01*
X16171967Y-12734579D02*
X16162444Y-12715531D01*
X16162444Y-12715531D02*
X16152920Y-12706008D01*
X16152920Y-12706008D02*
X16133872Y-12696484D01*
X16133872Y-12696484D02*
X16095777Y-12696484D01*
X16095777Y-12696484D02*
X16076729Y-12706008D01*
X16076729Y-12706008D02*
X16067206Y-12715531D01*
X16067206Y-12715531D02*
X16057682Y-12734579D01*
X16057682Y-12734579D02*
X16057682Y-12782198D01*
X16057682Y-12782198D02*
X16067206Y-12801246D01*
X16067206Y-12801246D02*
X16076729Y-12810769D01*
X16076729Y-12810769D02*
X16095777Y-12820293D01*
X16095777Y-12820293D02*
X16133872Y-12820293D01*
X16133872Y-12820293D02*
X16152920Y-12810769D01*
X16152920Y-12810769D02*
X16162444Y-12801246D01*
X16162444Y-12801246D02*
X16171967Y-12782198D01*
X16286253Y-12782198D02*
X16267206Y-12772674D01*
X16267206Y-12772674D02*
X16257682Y-12763150D01*
X16257682Y-12763150D02*
X16248158Y-12744103D01*
X16248158Y-12744103D02*
X16248158Y-12734579D01*
X16248158Y-12734579D02*
X16257682Y-12715531D01*
X16257682Y-12715531D02*
X16267206Y-12706008D01*
X16267206Y-12706008D02*
X16286253Y-12696484D01*
X16286253Y-12696484D02*
X16324348Y-12696484D01*
X16324348Y-12696484D02*
X16343396Y-12706008D01*
X16343396Y-12706008D02*
X16352920Y-12715531D01*
X16352920Y-12715531D02*
X16362444Y-12734579D01*
X16362444Y-12734579D02*
X16362444Y-12744103D01*
X16362444Y-12744103D02*
X16352920Y-12763150D01*
X16352920Y-12763150D02*
X16343396Y-12772674D01*
X16343396Y-12772674D02*
X16324348Y-12782198D01*
X16324348Y-12782198D02*
X16286253Y-12782198D01*
X16286253Y-12782198D02*
X16267206Y-12791722D01*
X16267206Y-12791722D02*
X16257682Y-12801246D01*
X16257682Y-12801246D02*
X16248158Y-12820293D01*
X16248158Y-12820293D02*
X16248158Y-12858388D01*
X16248158Y-12858388D02*
X16257682Y-12877436D01*
X16257682Y-12877436D02*
X16267206Y-12886960D01*
X16267206Y-12886960D02*
X16286253Y-12896484D01*
X16286253Y-12896484D02*
X16324348Y-12896484D01*
X16324348Y-12896484D02*
X16343396Y-12886960D01*
X16343396Y-12886960D02*
X16352920Y-12877436D01*
X16352920Y-12877436D02*
X16362444Y-12858388D01*
X16362444Y-12858388D02*
X16362444Y-12820293D01*
X16362444Y-12820293D02*
X16352920Y-12801246D01*
X16352920Y-12801246D02*
X16343396Y-12791722D01*
X16343396Y-12791722D02*
X16324348Y-12782198D01*
X16438634Y-12696484D02*
X16438634Y-12734579D01*
X16514825Y-12696484D02*
X16514825Y-12734579D01*
X16810063Y-12972674D02*
X16800539Y-12963150D01*
X16800539Y-12963150D02*
X16781491Y-12934579D01*
X16781491Y-12934579D02*
X16771968Y-12915531D01*
X16771968Y-12915531D02*
X16762444Y-12886960D01*
X16762444Y-12886960D02*
X16752920Y-12839341D01*
X16752920Y-12839341D02*
X16752920Y-12801246D01*
X16752920Y-12801246D02*
X16762444Y-12753627D01*
X16762444Y-12753627D02*
X16771968Y-12725055D01*
X16771968Y-12725055D02*
X16781491Y-12706008D01*
X16781491Y-12706008D02*
X16800539Y-12677436D01*
X16800539Y-12677436D02*
X16810063Y-12667912D01*
X16876730Y-12715531D02*
X16886253Y-12706008D01*
X16886253Y-12706008D02*
X16905301Y-12696484D01*
X16905301Y-12696484D02*
X16952920Y-12696484D01*
X16952920Y-12696484D02*
X16971968Y-12706008D01*
X16971968Y-12706008D02*
X16981491Y-12715531D01*
X16981491Y-12715531D02*
X16991015Y-12734579D01*
X16991015Y-12734579D02*
X16991015Y-12753627D01*
X16991015Y-12753627D02*
X16981491Y-12782198D01*
X16981491Y-12782198D02*
X16867206Y-12896484D01*
X16867206Y-12896484D02*
X16991015Y-12896484D01*
X17171968Y-12696484D02*
X17076730Y-12696484D01*
X17076730Y-12696484D02*
X17067206Y-12791722D01*
X17067206Y-12791722D02*
X17076730Y-12782198D01*
X17076730Y-12782198D02*
X17095777Y-12772674D01*
X17095777Y-12772674D02*
X17143396Y-12772674D01*
X17143396Y-12772674D02*
X17162444Y-12782198D01*
X17162444Y-12782198D02*
X17171968Y-12791722D01*
X17171968Y-12791722D02*
X17181491Y-12810769D01*
X17181491Y-12810769D02*
X17181491Y-12858388D01*
X17181491Y-12858388D02*
X17171968Y-12877436D01*
X17171968Y-12877436D02*
X17162444Y-12886960D01*
X17162444Y-12886960D02*
X17143396Y-12896484D01*
X17143396Y-12896484D02*
X17095777Y-12896484D01*
X17095777Y-12896484D02*
X17076730Y-12886960D01*
X17076730Y-12886960D02*
X17067206Y-12877436D01*
X17419587Y-12896484D02*
X17419587Y-12696484D01*
X17505301Y-12896484D02*
X17505301Y-12791722D01*
X17505301Y-12791722D02*
X17495777Y-12772674D01*
X17495777Y-12772674D02*
X17476730Y-12763150D01*
X17476730Y-12763150D02*
X17448158Y-12763150D01*
X17448158Y-12763150D02*
X17429111Y-12772674D01*
X17429111Y-12772674D02*
X17419587Y-12782198D01*
X17629111Y-12896484D02*
X17610063Y-12886960D01*
X17610063Y-12886960D02*
X17600539Y-12877436D01*
X17600539Y-12877436D02*
X17591015Y-12858388D01*
X17591015Y-12858388D02*
X17591015Y-12801246D01*
X17591015Y-12801246D02*
X17600539Y-12782198D01*
X17600539Y-12782198D02*
X17610063Y-12772674D01*
X17610063Y-12772674D02*
X17629111Y-12763150D01*
X17629111Y-12763150D02*
X17657682Y-12763150D01*
X17657682Y-12763150D02*
X17676730Y-12772674D01*
X17676730Y-12772674D02*
X17686253Y-12782198D01*
X17686253Y-12782198D02*
X17695777Y-12801246D01*
X17695777Y-12801246D02*
X17695777Y-12858388D01*
X17695777Y-12858388D02*
X17686253Y-12877436D01*
X17686253Y-12877436D02*
X17676730Y-12886960D01*
X17676730Y-12886960D02*
X17657682Y-12896484D01*
X17657682Y-12896484D02*
X17629111Y-12896484D01*
X17810063Y-12896484D02*
X17791015Y-12886960D01*
X17791015Y-12886960D02*
X17781492Y-12867912D01*
X17781492Y-12867912D02*
X17781492Y-12696484D01*
X17962444Y-12886960D02*
X17943396Y-12896484D01*
X17943396Y-12896484D02*
X17905301Y-12896484D01*
X17905301Y-12896484D02*
X17886253Y-12886960D01*
X17886253Y-12886960D02*
X17876730Y-12867912D01*
X17876730Y-12867912D02*
X17876730Y-12791722D01*
X17876730Y-12791722D02*
X17886253Y-12772674D01*
X17886253Y-12772674D02*
X17905301Y-12763150D01*
X17905301Y-12763150D02*
X17943396Y-12763150D01*
X17943396Y-12763150D02*
X17962444Y-12772674D01*
X17962444Y-12772674D02*
X17971968Y-12791722D01*
X17971968Y-12791722D02*
X17971968Y-12810769D01*
X17971968Y-12810769D02*
X17876730Y-12829817D01*
X18048158Y-12886960D02*
X18067206Y-12896484D01*
X18067206Y-12896484D02*
X18105301Y-12896484D01*
X18105301Y-12896484D02*
X18124349Y-12886960D01*
X18124349Y-12886960D02*
X18133873Y-12867912D01*
X18133873Y-12867912D02*
X18133873Y-12858388D01*
X18133873Y-12858388D02*
X18124349Y-12839341D01*
X18124349Y-12839341D02*
X18105301Y-12829817D01*
X18105301Y-12829817D02*
X18076730Y-12829817D01*
X18076730Y-12829817D02*
X18057682Y-12820293D01*
X18057682Y-12820293D02*
X18048158Y-12801246D01*
X18048158Y-12801246D02*
X18048158Y-12791722D01*
X18048158Y-12791722D02*
X18057682Y-12772674D01*
X18057682Y-12772674D02*
X18076730Y-12763150D01*
X18076730Y-12763150D02*
X18105301Y-12763150D01*
X18105301Y-12763150D02*
X18124349Y-12772674D01*
X18200539Y-12972674D02*
X18210063Y-12963150D01*
X18210063Y-12963150D02*
X18229111Y-12934579D01*
X18229111Y-12934579D02*
X18238634Y-12915531D01*
X18238634Y-12915531D02*
X18248158Y-12886960D01*
X18248158Y-12886960D02*
X18257682Y-12839341D01*
X18257682Y-12839341D02*
X18257682Y-12801246D01*
X18257682Y-12801246D02*
X18248158Y-12753627D01*
X18248158Y-12753627D02*
X18238634Y-12725055D01*
X18238634Y-12725055D02*
X18229111Y-12706008D01*
X18229111Y-12706008D02*
X18210063Y-12677436D01*
X18210063Y-12677436D02*
X18200539Y-12667912D01*
D10*
X13235000Y-13069000D02*
G75*
G03*
X13185000Y-13069000I-25000J0D01*
G01*
X13185000Y-13069000D02*
G75*
G03*
X13235000Y-13069000I25000J0D01*
G01*
D11*
X13533872Y-12960484D02*
X13552920Y-12960484D01*
X13552920Y-12960484D02*
X13571967Y-12970008D01*
X13571967Y-12970008D02*
X13581491Y-12979531D01*
X13581491Y-12979531D02*
X13591015Y-12998579D01*
X13591015Y-12998579D02*
X13600539Y-13036674D01*
X13600539Y-13036674D02*
X13600539Y-13084293D01*
X13600539Y-13084293D02*
X13591015Y-13122388D01*
X13591015Y-13122388D02*
X13581491Y-13141436D01*
X13581491Y-13141436D02*
X13571967Y-13150960D01*
X13571967Y-13150960D02*
X13552920Y-13160484D01*
X13552920Y-13160484D02*
X13533872Y-13160484D01*
X13533872Y-13160484D02*
X13514824Y-13150960D01*
X13514824Y-13150960D02*
X13505301Y-13141436D01*
X13505301Y-13141436D02*
X13495777Y-13122388D01*
X13495777Y-13122388D02*
X13486253Y-13084293D01*
X13486253Y-13084293D02*
X13486253Y-13036674D01*
X13486253Y-13036674D02*
X13495777Y-12998579D01*
X13495777Y-12998579D02*
X13505301Y-12979531D01*
X13505301Y-12979531D02*
X13514824Y-12970008D01*
X13514824Y-12970008D02*
X13533872Y-12960484D01*
X13686253Y-13141436D02*
X13695777Y-13150960D01*
X13695777Y-13150960D02*
X13686253Y-13160484D01*
X13686253Y-13160484D02*
X13676729Y-13150960D01*
X13676729Y-13150960D02*
X13686253Y-13141436D01*
X13686253Y-13141436D02*
X13686253Y-13160484D01*
X13876729Y-12960484D02*
X13781491Y-12960484D01*
X13781491Y-12960484D02*
X13771967Y-13055722D01*
X13771967Y-13055722D02*
X13781491Y-13046198D01*
X13781491Y-13046198D02*
X13800539Y-13036674D01*
X13800539Y-13036674D02*
X13848158Y-13036674D01*
X13848158Y-13036674D02*
X13867205Y-13046198D01*
X13867205Y-13046198D02*
X13876729Y-13055722D01*
X13876729Y-13055722D02*
X13886253Y-13074769D01*
X13886253Y-13074769D02*
X13886253Y-13122388D01*
X13886253Y-13122388D02*
X13876729Y-13141436D01*
X13876729Y-13141436D02*
X13867205Y-13150960D01*
X13867205Y-13150960D02*
X13848158Y-13160484D01*
X13848158Y-13160484D02*
X13800539Y-13160484D01*
X13800539Y-13160484D02*
X13781491Y-13150960D01*
X13781491Y-13150960D02*
X13771967Y-13141436D01*
X14010062Y-12960484D02*
X14029110Y-12960484D01*
X14029110Y-12960484D02*
X14048158Y-12970008D01*
X14048158Y-12970008D02*
X14057682Y-12979531D01*
X14057682Y-12979531D02*
X14067205Y-12998579D01*
X14067205Y-12998579D02*
X14076729Y-13036674D01*
X14076729Y-13036674D02*
X14076729Y-13084293D01*
X14076729Y-13084293D02*
X14067205Y-13122388D01*
X14067205Y-13122388D02*
X14057682Y-13141436D01*
X14057682Y-13141436D02*
X14048158Y-13150960D01*
X14048158Y-13150960D02*
X14029110Y-13160484D01*
X14029110Y-13160484D02*
X14010062Y-13160484D01*
X14010062Y-13160484D02*
X13991015Y-13150960D01*
X13991015Y-13150960D02*
X13981491Y-13141436D01*
X13981491Y-13141436D02*
X13971967Y-13122388D01*
X13971967Y-13122388D02*
X13962443Y-13084293D01*
X13962443Y-13084293D02*
X13962443Y-13036674D01*
X13962443Y-13036674D02*
X13971967Y-12998579D01*
X13971967Y-12998579D02*
X13981491Y-12979531D01*
X13981491Y-12979531D02*
X13991015Y-12970008D01*
X13991015Y-12970008D02*
X14010062Y-12960484D01*
X14200539Y-12960484D02*
X14219586Y-12960484D01*
X14219586Y-12960484D02*
X14238634Y-12970008D01*
X14238634Y-12970008D02*
X14248158Y-12979531D01*
X14248158Y-12979531D02*
X14257682Y-12998579D01*
X14257682Y-12998579D02*
X14267205Y-13036674D01*
X14267205Y-13036674D02*
X14267205Y-13084293D01*
X14267205Y-13084293D02*
X14257682Y-13122388D01*
X14257682Y-13122388D02*
X14248158Y-13141436D01*
X14248158Y-13141436D02*
X14238634Y-13150960D01*
X14238634Y-13150960D02*
X14219586Y-13160484D01*
X14219586Y-13160484D02*
X14200539Y-13160484D01*
X14200539Y-13160484D02*
X14181491Y-13150960D01*
X14181491Y-13150960D02*
X14171967Y-13141436D01*
X14171967Y-13141436D02*
X14162443Y-13122388D01*
X14162443Y-13122388D02*
X14152920Y-13084293D01*
X14152920Y-13084293D02*
X14152920Y-13036674D01*
X14152920Y-13036674D02*
X14162443Y-12998579D01*
X14162443Y-12998579D02*
X14171967Y-12979531D01*
X14171967Y-12979531D02*
X14181491Y-12970008D01*
X14181491Y-12970008D02*
X14200539Y-12960484D01*
X14352920Y-13160484D02*
X14352920Y-13027150D01*
X14352920Y-13046198D02*
X14362443Y-13036674D01*
X14362443Y-13036674D02*
X14381491Y-13027150D01*
X14381491Y-13027150D02*
X14410063Y-13027150D01*
X14410063Y-13027150D02*
X14429110Y-13036674D01*
X14429110Y-13036674D02*
X14438634Y-13055722D01*
X14438634Y-13055722D02*
X14438634Y-13160484D01*
X14438634Y-13055722D02*
X14448158Y-13036674D01*
X14448158Y-13036674D02*
X14467205Y-13027150D01*
X14467205Y-13027150D02*
X14495777Y-13027150D01*
X14495777Y-13027150D02*
X14514824Y-13036674D01*
X14514824Y-13036674D02*
X14524348Y-13055722D01*
X14524348Y-13055722D02*
X14524348Y-13160484D01*
X14619586Y-13160484D02*
X14619586Y-13027150D01*
X14619586Y-13046198D02*
X14629110Y-13036674D01*
X14629110Y-13036674D02*
X14648158Y-13027150D01*
X14648158Y-13027150D02*
X14676729Y-13027150D01*
X14676729Y-13027150D02*
X14695777Y-13036674D01*
X14695777Y-13036674D02*
X14705301Y-13055722D01*
X14705301Y-13055722D02*
X14705301Y-13160484D01*
X14705301Y-13055722D02*
X14714824Y-13036674D01*
X14714824Y-13036674D02*
X14733872Y-13027150D01*
X14733872Y-13027150D02*
X14762443Y-13027150D01*
X14762443Y-13027150D02*
X14781491Y-13036674D01*
X14781491Y-13036674D02*
X14791015Y-13055722D01*
X14791015Y-13055722D02*
X14791015Y-13160484D01*
X15181491Y-12950960D02*
X15010063Y-13208103D01*
X15438634Y-12960484D02*
X15457682Y-12960484D01*
X15457682Y-12960484D02*
X15476729Y-12970008D01*
X15476729Y-12970008D02*
X15486253Y-12979531D01*
X15486253Y-12979531D02*
X15495777Y-12998579D01*
X15495777Y-12998579D02*
X15505301Y-13036674D01*
X15505301Y-13036674D02*
X15505301Y-13084293D01*
X15505301Y-13084293D02*
X15495777Y-13122388D01*
X15495777Y-13122388D02*
X15486253Y-13141436D01*
X15486253Y-13141436D02*
X15476729Y-13150960D01*
X15476729Y-13150960D02*
X15457682Y-13160484D01*
X15457682Y-13160484D02*
X15438634Y-13160484D01*
X15438634Y-13160484D02*
X15419586Y-13150960D01*
X15419586Y-13150960D02*
X15410063Y-13141436D01*
X15410063Y-13141436D02*
X15400539Y-13122388D01*
X15400539Y-13122388D02*
X15391015Y-13084293D01*
X15391015Y-13084293D02*
X15391015Y-13036674D01*
X15391015Y-13036674D02*
X15400539Y-12998579D01*
X15400539Y-12998579D02*
X15410063Y-12979531D01*
X15410063Y-12979531D02*
X15419586Y-12970008D01*
X15419586Y-12970008D02*
X15438634Y-12960484D01*
X15591015Y-13141436D02*
X15600539Y-13150960D01*
X15600539Y-13150960D02*
X15591015Y-13160484D01*
X15591015Y-13160484D02*
X15581491Y-13150960D01*
X15581491Y-13150960D02*
X15591015Y-13141436D01*
X15591015Y-13141436D02*
X15591015Y-13160484D01*
X15724348Y-12960484D02*
X15743396Y-12960484D01*
X15743396Y-12960484D02*
X15762444Y-12970008D01*
X15762444Y-12970008D02*
X15771967Y-12979531D01*
X15771967Y-12979531D02*
X15781491Y-12998579D01*
X15781491Y-12998579D02*
X15791015Y-13036674D01*
X15791015Y-13036674D02*
X15791015Y-13084293D01*
X15791015Y-13084293D02*
X15781491Y-13122388D01*
X15781491Y-13122388D02*
X15771967Y-13141436D01*
X15771967Y-13141436D02*
X15762444Y-13150960D01*
X15762444Y-13150960D02*
X15743396Y-13160484D01*
X15743396Y-13160484D02*
X15724348Y-13160484D01*
X15724348Y-13160484D02*
X15705301Y-13150960D01*
X15705301Y-13150960D02*
X15695777Y-13141436D01*
X15695777Y-13141436D02*
X15686253Y-13122388D01*
X15686253Y-13122388D02*
X15676729Y-13084293D01*
X15676729Y-13084293D02*
X15676729Y-13036674D01*
X15676729Y-13036674D02*
X15686253Y-12998579D01*
X15686253Y-12998579D02*
X15695777Y-12979531D01*
X15695777Y-12979531D02*
X15705301Y-12970008D01*
X15705301Y-12970008D02*
X15724348Y-12960484D01*
X15981491Y-13160484D02*
X15867206Y-13160484D01*
X15924348Y-13160484D02*
X15924348Y-12960484D01*
X15924348Y-12960484D02*
X15905301Y-12989055D01*
X15905301Y-12989055D02*
X15886253Y-13008103D01*
X15886253Y-13008103D02*
X15867206Y-13017627D01*
X16076729Y-13160484D02*
X16114825Y-13160484D01*
X16114825Y-13160484D02*
X16133872Y-13150960D01*
X16133872Y-13150960D02*
X16143396Y-13141436D01*
X16143396Y-13141436D02*
X16162444Y-13112865D01*
X16162444Y-13112865D02*
X16171967Y-13074769D01*
X16171967Y-13074769D02*
X16171967Y-12998579D01*
X16171967Y-12998579D02*
X16162444Y-12979531D01*
X16162444Y-12979531D02*
X16152920Y-12970008D01*
X16152920Y-12970008D02*
X16133872Y-12960484D01*
X16133872Y-12960484D02*
X16095777Y-12960484D01*
X16095777Y-12960484D02*
X16076729Y-12970008D01*
X16076729Y-12970008D02*
X16067206Y-12979531D01*
X16067206Y-12979531D02*
X16057682Y-12998579D01*
X16057682Y-12998579D02*
X16057682Y-13046198D01*
X16057682Y-13046198D02*
X16067206Y-13065246D01*
X16067206Y-13065246D02*
X16076729Y-13074769D01*
X16076729Y-13074769D02*
X16095777Y-13084293D01*
X16095777Y-13084293D02*
X16133872Y-13084293D01*
X16133872Y-13084293D02*
X16152920Y-13074769D01*
X16152920Y-13074769D02*
X16162444Y-13065246D01*
X16162444Y-13065246D02*
X16171967Y-13046198D01*
X16238634Y-12960484D02*
X16371967Y-12960484D01*
X16371967Y-12960484D02*
X16286253Y-13160484D01*
X16438634Y-12960484D02*
X16438634Y-12998579D01*
X16514825Y-12960484D02*
X16514825Y-12998579D01*
X16810063Y-13236674D02*
X16800539Y-13227150D01*
X16800539Y-13227150D02*
X16781491Y-13198579D01*
X16781491Y-13198579D02*
X16771968Y-13179531D01*
X16771968Y-13179531D02*
X16762444Y-13150960D01*
X16762444Y-13150960D02*
X16752920Y-13103341D01*
X16752920Y-13103341D02*
X16752920Y-13065246D01*
X16752920Y-13065246D02*
X16762444Y-13017627D01*
X16762444Y-13017627D02*
X16771968Y-12989055D01*
X16771968Y-12989055D02*
X16781491Y-12970008D01*
X16781491Y-12970008D02*
X16800539Y-12941436D01*
X16800539Y-12941436D02*
X16810063Y-12931912D01*
X16876730Y-12979531D02*
X16886253Y-12970008D01*
X16886253Y-12970008D02*
X16905301Y-12960484D01*
X16905301Y-12960484D02*
X16952920Y-12960484D01*
X16952920Y-12960484D02*
X16971968Y-12970008D01*
X16971968Y-12970008D02*
X16981491Y-12979531D01*
X16981491Y-12979531D02*
X16991015Y-12998579D01*
X16991015Y-12998579D02*
X16991015Y-13017627D01*
X16991015Y-13017627D02*
X16981491Y-13046198D01*
X16981491Y-13046198D02*
X16867206Y-13160484D01*
X16867206Y-13160484D02*
X16991015Y-13160484D01*
X17181491Y-13160484D02*
X17067206Y-13160484D01*
X17124349Y-13160484D02*
X17124349Y-12960484D01*
X17124349Y-12960484D02*
X17105301Y-12989055D01*
X17105301Y-12989055D02*
X17086253Y-13008103D01*
X17086253Y-13008103D02*
X17067206Y-13017627D01*
X17419587Y-13160484D02*
X17419587Y-12960484D01*
X17505301Y-13160484D02*
X17505301Y-13055722D01*
X17505301Y-13055722D02*
X17495777Y-13036674D01*
X17495777Y-13036674D02*
X17476730Y-13027150D01*
X17476730Y-13027150D02*
X17448158Y-13027150D01*
X17448158Y-13027150D02*
X17429111Y-13036674D01*
X17429111Y-13036674D02*
X17419587Y-13046198D01*
X17629111Y-13160484D02*
X17610063Y-13150960D01*
X17610063Y-13150960D02*
X17600539Y-13141436D01*
X17600539Y-13141436D02*
X17591015Y-13122388D01*
X17591015Y-13122388D02*
X17591015Y-13065246D01*
X17591015Y-13065246D02*
X17600539Y-13046198D01*
X17600539Y-13046198D02*
X17610063Y-13036674D01*
X17610063Y-13036674D02*
X17629111Y-13027150D01*
X17629111Y-13027150D02*
X17657682Y-13027150D01*
X17657682Y-13027150D02*
X17676730Y-13036674D01*
X17676730Y-13036674D02*
X17686253Y-13046198D01*
X17686253Y-13046198D02*
X17695777Y-13065246D01*
X17695777Y-13065246D02*
X17695777Y-13122388D01*
X17695777Y-13122388D02*
X17686253Y-13141436D01*
X17686253Y-13141436D02*
X17676730Y-13150960D01*
X17676730Y-13150960D02*
X17657682Y-13160484D01*
X17657682Y-13160484D02*
X17629111Y-13160484D01*
X17810063Y-13160484D02*
X17791015Y-13150960D01*
X17791015Y-13150960D02*
X17781492Y-13131912D01*
X17781492Y-13131912D02*
X17781492Y-12960484D01*
X17962444Y-13150960D02*
X17943396Y-13160484D01*
X17943396Y-13160484D02*
X17905301Y-13160484D01*
X17905301Y-13160484D02*
X17886253Y-13150960D01*
X17886253Y-13150960D02*
X17876730Y-13131912D01*
X17876730Y-13131912D02*
X17876730Y-13055722D01*
X17876730Y-13055722D02*
X17886253Y-13036674D01*
X17886253Y-13036674D02*
X17905301Y-13027150D01*
X17905301Y-13027150D02*
X17943396Y-13027150D01*
X17943396Y-13027150D02*
X17962444Y-13036674D01*
X17962444Y-13036674D02*
X17971968Y-13055722D01*
X17971968Y-13055722D02*
X17971968Y-13074769D01*
X17971968Y-13074769D02*
X17876730Y-13093817D01*
X18048158Y-13150960D02*
X18067206Y-13160484D01*
X18067206Y-13160484D02*
X18105301Y-13160484D01*
X18105301Y-13160484D02*
X18124349Y-13150960D01*
X18124349Y-13150960D02*
X18133873Y-13131912D01*
X18133873Y-13131912D02*
X18133873Y-13122388D01*
X18133873Y-13122388D02*
X18124349Y-13103341D01*
X18124349Y-13103341D02*
X18105301Y-13093817D01*
X18105301Y-13093817D02*
X18076730Y-13093817D01*
X18076730Y-13093817D02*
X18057682Y-13084293D01*
X18057682Y-13084293D02*
X18048158Y-13065246D01*
X18048158Y-13065246D02*
X18048158Y-13055722D01*
X18048158Y-13055722D02*
X18057682Y-13036674D01*
X18057682Y-13036674D02*
X18076730Y-13027150D01*
X18076730Y-13027150D02*
X18105301Y-13027150D01*
X18105301Y-13027150D02*
X18124349Y-13036674D01*
X18200539Y-13236674D02*
X18210063Y-13227150D01*
X18210063Y-13227150D02*
X18229111Y-13198579D01*
X18229111Y-13198579D02*
X18238634Y-13179531D01*
X18238634Y-13179531D02*
X18248158Y-13150960D01*
X18248158Y-13150960D02*
X18257682Y-13103341D01*
X18257682Y-13103341D02*
X18257682Y-13065246D01*
X18257682Y-13065246D02*
X18248158Y-13017627D01*
X18248158Y-13017627D02*
X18238634Y-12989055D01*
X18238634Y-12989055D02*
X18229111Y-12970008D01*
X18229111Y-12970008D02*
X18210063Y-12941436D01*
X18210063Y-12941436D02*
X18200539Y-12931912D01*
D10*
X13205000Y-13303000D02*
X13205000Y-13363000D01*
X13175000Y-13333000D02*
X13235000Y-13333000D01*
D11*
X13533872Y-13224484D02*
X13552920Y-13224484D01*
X13552920Y-13224484D02*
X13571967Y-13234008D01*
X13571967Y-13234008D02*
X13581491Y-13243531D01*
X13581491Y-13243531D02*
X13591015Y-13262579D01*
X13591015Y-13262579D02*
X13600539Y-13300674D01*
X13600539Y-13300674D02*
X13600539Y-13348293D01*
X13600539Y-13348293D02*
X13591015Y-13386388D01*
X13591015Y-13386388D02*
X13581491Y-13405436D01*
X13581491Y-13405436D02*
X13571967Y-13414960D01*
X13571967Y-13414960D02*
X13552920Y-13424484D01*
X13552920Y-13424484D02*
X13533872Y-13424484D01*
X13533872Y-13424484D02*
X13514824Y-13414960D01*
X13514824Y-13414960D02*
X13505301Y-13405436D01*
X13505301Y-13405436D02*
X13495777Y-13386388D01*
X13495777Y-13386388D02*
X13486253Y-13348293D01*
X13486253Y-13348293D02*
X13486253Y-13300674D01*
X13486253Y-13300674D02*
X13495777Y-13262579D01*
X13495777Y-13262579D02*
X13505301Y-13243531D01*
X13505301Y-13243531D02*
X13514824Y-13234008D01*
X13514824Y-13234008D02*
X13533872Y-13224484D01*
X13686253Y-13405436D02*
X13695777Y-13414960D01*
X13695777Y-13414960D02*
X13686253Y-13424484D01*
X13686253Y-13424484D02*
X13676729Y-13414960D01*
X13676729Y-13414960D02*
X13686253Y-13405436D01*
X13686253Y-13405436D02*
X13686253Y-13424484D01*
X13867205Y-13224484D02*
X13829110Y-13224484D01*
X13829110Y-13224484D02*
X13810062Y-13234008D01*
X13810062Y-13234008D02*
X13800539Y-13243531D01*
X13800539Y-13243531D02*
X13781491Y-13272103D01*
X13781491Y-13272103D02*
X13771967Y-13310198D01*
X13771967Y-13310198D02*
X13771967Y-13386388D01*
X13771967Y-13386388D02*
X13781491Y-13405436D01*
X13781491Y-13405436D02*
X13791015Y-13414960D01*
X13791015Y-13414960D02*
X13810062Y-13424484D01*
X13810062Y-13424484D02*
X13848158Y-13424484D01*
X13848158Y-13424484D02*
X13867205Y-13414960D01*
X13867205Y-13414960D02*
X13876729Y-13405436D01*
X13876729Y-13405436D02*
X13886253Y-13386388D01*
X13886253Y-13386388D02*
X13886253Y-13338769D01*
X13886253Y-13338769D02*
X13876729Y-13319722D01*
X13876729Y-13319722D02*
X13867205Y-13310198D01*
X13867205Y-13310198D02*
X13848158Y-13300674D01*
X13848158Y-13300674D02*
X13810062Y-13300674D01*
X13810062Y-13300674D02*
X13791015Y-13310198D01*
X13791015Y-13310198D02*
X13781491Y-13319722D01*
X13781491Y-13319722D02*
X13771967Y-13338769D01*
X14010062Y-13224484D02*
X14029110Y-13224484D01*
X14029110Y-13224484D02*
X14048158Y-13234008D01*
X14048158Y-13234008D02*
X14057682Y-13243531D01*
X14057682Y-13243531D02*
X14067205Y-13262579D01*
X14067205Y-13262579D02*
X14076729Y-13300674D01*
X14076729Y-13300674D02*
X14076729Y-13348293D01*
X14076729Y-13348293D02*
X14067205Y-13386388D01*
X14067205Y-13386388D02*
X14057682Y-13405436D01*
X14057682Y-13405436D02*
X14048158Y-13414960D01*
X14048158Y-13414960D02*
X14029110Y-13424484D01*
X14029110Y-13424484D02*
X14010062Y-13424484D01*
X14010062Y-13424484D02*
X13991015Y-13414960D01*
X13991015Y-13414960D02*
X13981491Y-13405436D01*
X13981491Y-13405436D02*
X13971967Y-13386388D01*
X13971967Y-13386388D02*
X13962443Y-13348293D01*
X13962443Y-13348293D02*
X13962443Y-13300674D01*
X13962443Y-13300674D02*
X13971967Y-13262579D01*
X13971967Y-13262579D02*
X13981491Y-13243531D01*
X13981491Y-13243531D02*
X13991015Y-13234008D01*
X13991015Y-13234008D02*
X14010062Y-13224484D01*
X14200539Y-13224484D02*
X14219586Y-13224484D01*
X14219586Y-13224484D02*
X14238634Y-13234008D01*
X14238634Y-13234008D02*
X14248158Y-13243531D01*
X14248158Y-13243531D02*
X14257682Y-13262579D01*
X14257682Y-13262579D02*
X14267205Y-13300674D01*
X14267205Y-13300674D02*
X14267205Y-13348293D01*
X14267205Y-13348293D02*
X14257682Y-13386388D01*
X14257682Y-13386388D02*
X14248158Y-13405436D01*
X14248158Y-13405436D02*
X14238634Y-13414960D01*
X14238634Y-13414960D02*
X14219586Y-13424484D01*
X14219586Y-13424484D02*
X14200539Y-13424484D01*
X14200539Y-13424484D02*
X14181491Y-13414960D01*
X14181491Y-13414960D02*
X14171967Y-13405436D01*
X14171967Y-13405436D02*
X14162443Y-13386388D01*
X14162443Y-13386388D02*
X14152920Y-13348293D01*
X14152920Y-13348293D02*
X14152920Y-13300674D01*
X14152920Y-13300674D02*
X14162443Y-13262579D01*
X14162443Y-13262579D02*
X14171967Y-13243531D01*
X14171967Y-13243531D02*
X14181491Y-13234008D01*
X14181491Y-13234008D02*
X14200539Y-13224484D01*
X14352920Y-13424484D02*
X14352920Y-13291150D01*
X14352920Y-13310198D02*
X14362443Y-13300674D01*
X14362443Y-13300674D02*
X14381491Y-13291150D01*
X14381491Y-13291150D02*
X14410063Y-13291150D01*
X14410063Y-13291150D02*
X14429110Y-13300674D01*
X14429110Y-13300674D02*
X14438634Y-13319722D01*
X14438634Y-13319722D02*
X14438634Y-13424484D01*
X14438634Y-13319722D02*
X14448158Y-13300674D01*
X14448158Y-13300674D02*
X14467205Y-13291150D01*
X14467205Y-13291150D02*
X14495777Y-13291150D01*
X14495777Y-13291150D02*
X14514824Y-13300674D01*
X14514824Y-13300674D02*
X14524348Y-13319722D01*
X14524348Y-13319722D02*
X14524348Y-13424484D01*
X14619586Y-13424484D02*
X14619586Y-13291150D01*
X14619586Y-13310198D02*
X14629110Y-13300674D01*
X14629110Y-13300674D02*
X14648158Y-13291150D01*
X14648158Y-13291150D02*
X14676729Y-13291150D01*
X14676729Y-13291150D02*
X14695777Y-13300674D01*
X14695777Y-13300674D02*
X14705301Y-13319722D01*
X14705301Y-13319722D02*
X14705301Y-13424484D01*
X14705301Y-13319722D02*
X14714824Y-13300674D01*
X14714824Y-13300674D02*
X14733872Y-13291150D01*
X14733872Y-13291150D02*
X14762443Y-13291150D01*
X14762443Y-13291150D02*
X14781491Y-13300674D01*
X14781491Y-13300674D02*
X14791015Y-13319722D01*
X14791015Y-13319722D02*
X14791015Y-13424484D01*
X15181491Y-13214960D02*
X15010063Y-13472103D01*
X15438634Y-13224484D02*
X15457682Y-13224484D01*
X15457682Y-13224484D02*
X15476729Y-13234008D01*
X15476729Y-13234008D02*
X15486253Y-13243531D01*
X15486253Y-13243531D02*
X15495777Y-13262579D01*
X15495777Y-13262579D02*
X15505301Y-13300674D01*
X15505301Y-13300674D02*
X15505301Y-13348293D01*
X15505301Y-13348293D02*
X15495777Y-13386388D01*
X15495777Y-13386388D02*
X15486253Y-13405436D01*
X15486253Y-13405436D02*
X15476729Y-13414960D01*
X15476729Y-13414960D02*
X15457682Y-13424484D01*
X15457682Y-13424484D02*
X15438634Y-13424484D01*
X15438634Y-13424484D02*
X15419586Y-13414960D01*
X15419586Y-13414960D02*
X15410063Y-13405436D01*
X15410063Y-13405436D02*
X15400539Y-13386388D01*
X15400539Y-13386388D02*
X15391015Y-13348293D01*
X15391015Y-13348293D02*
X15391015Y-13300674D01*
X15391015Y-13300674D02*
X15400539Y-13262579D01*
X15400539Y-13262579D02*
X15410063Y-13243531D01*
X15410063Y-13243531D02*
X15419586Y-13234008D01*
X15419586Y-13234008D02*
X15438634Y-13224484D01*
X15591015Y-13405436D02*
X15600539Y-13414960D01*
X15600539Y-13414960D02*
X15591015Y-13424484D01*
X15591015Y-13424484D02*
X15581491Y-13414960D01*
X15581491Y-13414960D02*
X15591015Y-13405436D01*
X15591015Y-13405436D02*
X15591015Y-13424484D01*
X15724348Y-13224484D02*
X15743396Y-13224484D01*
X15743396Y-13224484D02*
X15762444Y-13234008D01*
X15762444Y-13234008D02*
X15771967Y-13243531D01*
X15771967Y-13243531D02*
X15781491Y-13262579D01*
X15781491Y-13262579D02*
X15791015Y-13300674D01*
X15791015Y-13300674D02*
X15791015Y-13348293D01*
X15791015Y-13348293D02*
X15781491Y-13386388D01*
X15781491Y-13386388D02*
X15771967Y-13405436D01*
X15771967Y-13405436D02*
X15762444Y-13414960D01*
X15762444Y-13414960D02*
X15743396Y-13424484D01*
X15743396Y-13424484D02*
X15724348Y-13424484D01*
X15724348Y-13424484D02*
X15705301Y-13414960D01*
X15705301Y-13414960D02*
X15695777Y-13405436D01*
X15695777Y-13405436D02*
X15686253Y-13386388D01*
X15686253Y-13386388D02*
X15676729Y-13348293D01*
X15676729Y-13348293D02*
X15676729Y-13300674D01*
X15676729Y-13300674D02*
X15686253Y-13262579D01*
X15686253Y-13262579D02*
X15695777Y-13243531D01*
X15695777Y-13243531D02*
X15705301Y-13234008D01*
X15705301Y-13234008D02*
X15724348Y-13224484D01*
X15867206Y-13243531D02*
X15876729Y-13234008D01*
X15876729Y-13234008D02*
X15895777Y-13224484D01*
X15895777Y-13224484D02*
X15943396Y-13224484D01*
X15943396Y-13224484D02*
X15962444Y-13234008D01*
X15962444Y-13234008D02*
X15971967Y-13243531D01*
X15971967Y-13243531D02*
X15981491Y-13262579D01*
X15981491Y-13262579D02*
X15981491Y-13281627D01*
X15981491Y-13281627D02*
X15971967Y-13310198D01*
X15971967Y-13310198D02*
X15857682Y-13424484D01*
X15857682Y-13424484D02*
X15981491Y-13424484D01*
X16048158Y-13224484D02*
X16171967Y-13224484D01*
X16171967Y-13224484D02*
X16105301Y-13300674D01*
X16105301Y-13300674D02*
X16133872Y-13300674D01*
X16133872Y-13300674D02*
X16152920Y-13310198D01*
X16152920Y-13310198D02*
X16162444Y-13319722D01*
X16162444Y-13319722D02*
X16171967Y-13338769D01*
X16171967Y-13338769D02*
X16171967Y-13386388D01*
X16171967Y-13386388D02*
X16162444Y-13405436D01*
X16162444Y-13405436D02*
X16152920Y-13414960D01*
X16152920Y-13414960D02*
X16133872Y-13424484D01*
X16133872Y-13424484D02*
X16076729Y-13424484D01*
X16076729Y-13424484D02*
X16057682Y-13414960D01*
X16057682Y-13414960D02*
X16048158Y-13405436D01*
X16343396Y-13224484D02*
X16305301Y-13224484D01*
X16305301Y-13224484D02*
X16286253Y-13234008D01*
X16286253Y-13234008D02*
X16276729Y-13243531D01*
X16276729Y-13243531D02*
X16257682Y-13272103D01*
X16257682Y-13272103D02*
X16248158Y-13310198D01*
X16248158Y-13310198D02*
X16248158Y-13386388D01*
X16248158Y-13386388D02*
X16257682Y-13405436D01*
X16257682Y-13405436D02*
X16267206Y-13414960D01*
X16267206Y-13414960D02*
X16286253Y-13424484D01*
X16286253Y-13424484D02*
X16324348Y-13424484D01*
X16324348Y-13424484D02*
X16343396Y-13414960D01*
X16343396Y-13414960D02*
X16352920Y-13405436D01*
X16352920Y-13405436D02*
X16362444Y-13386388D01*
X16362444Y-13386388D02*
X16362444Y-13338769D01*
X16362444Y-13338769D02*
X16352920Y-13319722D01*
X16352920Y-13319722D02*
X16343396Y-13310198D01*
X16343396Y-13310198D02*
X16324348Y-13300674D01*
X16324348Y-13300674D02*
X16286253Y-13300674D01*
X16286253Y-13300674D02*
X16267206Y-13310198D01*
X16267206Y-13310198D02*
X16257682Y-13319722D01*
X16257682Y-13319722D02*
X16248158Y-13338769D01*
X16438634Y-13224484D02*
X16438634Y-13262579D01*
X16514825Y-13224484D02*
X16514825Y-13262579D01*
X16810063Y-13500674D02*
X16800539Y-13491150D01*
X16800539Y-13491150D02*
X16781491Y-13462579D01*
X16781491Y-13462579D02*
X16771968Y-13443531D01*
X16771968Y-13443531D02*
X16762444Y-13414960D01*
X16762444Y-13414960D02*
X16752920Y-13367341D01*
X16752920Y-13367341D02*
X16752920Y-13329246D01*
X16752920Y-13329246D02*
X16762444Y-13281627D01*
X16762444Y-13281627D02*
X16771968Y-13253055D01*
X16771968Y-13253055D02*
X16781491Y-13234008D01*
X16781491Y-13234008D02*
X16800539Y-13205436D01*
X16800539Y-13205436D02*
X16810063Y-13195912D01*
X16924349Y-13224484D02*
X16943396Y-13224484D01*
X16943396Y-13224484D02*
X16962444Y-13234008D01*
X16962444Y-13234008D02*
X16971968Y-13243531D01*
X16971968Y-13243531D02*
X16981491Y-13262579D01*
X16981491Y-13262579D02*
X16991015Y-13300674D01*
X16991015Y-13300674D02*
X16991015Y-13348293D01*
X16991015Y-13348293D02*
X16981491Y-13386388D01*
X16981491Y-13386388D02*
X16971968Y-13405436D01*
X16971968Y-13405436D02*
X16962444Y-13414960D01*
X16962444Y-13414960D02*
X16943396Y-13424484D01*
X16943396Y-13424484D02*
X16924349Y-13424484D01*
X16924349Y-13424484D02*
X16905301Y-13414960D01*
X16905301Y-13414960D02*
X16895777Y-13405436D01*
X16895777Y-13405436D02*
X16886253Y-13386388D01*
X16886253Y-13386388D02*
X16876730Y-13348293D01*
X16876730Y-13348293D02*
X16876730Y-13300674D01*
X16876730Y-13300674D02*
X16886253Y-13262579D01*
X16886253Y-13262579D02*
X16895777Y-13243531D01*
X16895777Y-13243531D02*
X16905301Y-13234008D01*
X16905301Y-13234008D02*
X16924349Y-13224484D01*
X17229111Y-13424484D02*
X17229111Y-13224484D01*
X17314825Y-13424484D02*
X17314825Y-13319722D01*
X17314825Y-13319722D02*
X17305301Y-13300674D01*
X17305301Y-13300674D02*
X17286253Y-13291150D01*
X17286253Y-13291150D02*
X17257682Y-13291150D01*
X17257682Y-13291150D02*
X17238634Y-13300674D01*
X17238634Y-13300674D02*
X17229111Y-13310198D01*
X17438634Y-13424484D02*
X17419587Y-13414960D01*
X17419587Y-13414960D02*
X17410063Y-13405436D01*
X17410063Y-13405436D02*
X17400539Y-13386388D01*
X17400539Y-13386388D02*
X17400539Y-13329246D01*
X17400539Y-13329246D02*
X17410063Y-13310198D01*
X17410063Y-13310198D02*
X17419587Y-13300674D01*
X17419587Y-13300674D02*
X17438634Y-13291150D01*
X17438634Y-13291150D02*
X17467206Y-13291150D01*
X17467206Y-13291150D02*
X17486253Y-13300674D01*
X17486253Y-13300674D02*
X17495777Y-13310198D01*
X17495777Y-13310198D02*
X17505301Y-13329246D01*
X17505301Y-13329246D02*
X17505301Y-13386388D01*
X17505301Y-13386388D02*
X17495777Y-13405436D01*
X17495777Y-13405436D02*
X17486253Y-13414960D01*
X17486253Y-13414960D02*
X17467206Y-13424484D01*
X17467206Y-13424484D02*
X17438634Y-13424484D01*
X17619587Y-13424484D02*
X17600539Y-13414960D01*
X17600539Y-13414960D02*
X17591015Y-13395912D01*
X17591015Y-13395912D02*
X17591015Y-13224484D01*
X17771968Y-13414960D02*
X17752920Y-13424484D01*
X17752920Y-13424484D02*
X17714825Y-13424484D01*
X17714825Y-13424484D02*
X17695777Y-13414960D01*
X17695777Y-13414960D02*
X17686253Y-13395912D01*
X17686253Y-13395912D02*
X17686253Y-13319722D01*
X17686253Y-13319722D02*
X17695777Y-13300674D01*
X17695777Y-13300674D02*
X17714825Y-13291150D01*
X17714825Y-13291150D02*
X17752920Y-13291150D01*
X17752920Y-13291150D02*
X17771968Y-13300674D01*
X17771968Y-13300674D02*
X17781492Y-13319722D01*
X17781492Y-13319722D02*
X17781492Y-13338769D01*
X17781492Y-13338769D02*
X17686253Y-13357817D01*
X17857682Y-13414960D02*
X17876730Y-13424484D01*
X17876730Y-13424484D02*
X17914825Y-13424484D01*
X17914825Y-13424484D02*
X17933873Y-13414960D01*
X17933873Y-13414960D02*
X17943396Y-13395912D01*
X17943396Y-13395912D02*
X17943396Y-13386388D01*
X17943396Y-13386388D02*
X17933873Y-13367341D01*
X17933873Y-13367341D02*
X17914825Y-13357817D01*
X17914825Y-13357817D02*
X17886253Y-13357817D01*
X17886253Y-13357817D02*
X17867206Y-13348293D01*
X17867206Y-13348293D02*
X17857682Y-13329246D01*
X17857682Y-13329246D02*
X17857682Y-13319722D01*
X17857682Y-13319722D02*
X17867206Y-13300674D01*
X17867206Y-13300674D02*
X17886253Y-13291150D01*
X17886253Y-13291150D02*
X17914825Y-13291150D01*
X17914825Y-13291150D02*
X17933873Y-13300674D01*
X18181492Y-13348293D02*
X18333873Y-13348293D01*
X18257682Y-13424484D02*
X18257682Y-13272103D01*
X18571968Y-13243531D02*
X18581492Y-13234008D01*
X18581492Y-13234008D02*
X18600539Y-13224484D01*
X18600539Y-13224484D02*
X18648158Y-13224484D01*
X18648158Y-13224484D02*
X18667206Y-13234008D01*
X18667206Y-13234008D02*
X18676730Y-13243531D01*
X18676730Y-13243531D02*
X18686254Y-13262579D01*
X18686254Y-13262579D02*
X18686254Y-13281627D01*
X18686254Y-13281627D02*
X18676730Y-13310198D01*
X18676730Y-13310198D02*
X18562444Y-13424484D01*
X18562444Y-13424484D02*
X18686254Y-13424484D01*
X18914825Y-13414960D02*
X18933873Y-13424484D01*
X18933873Y-13424484D02*
X18971968Y-13424484D01*
X18971968Y-13424484D02*
X18991016Y-13414960D01*
X18991016Y-13414960D02*
X19000539Y-13395912D01*
X19000539Y-13395912D02*
X19000539Y-13386388D01*
X19000539Y-13386388D02*
X18991016Y-13367341D01*
X18991016Y-13367341D02*
X18971968Y-13357817D01*
X18971968Y-13357817D02*
X18943396Y-13357817D01*
X18943396Y-13357817D02*
X18924349Y-13348293D01*
X18924349Y-13348293D02*
X18914825Y-13329246D01*
X18914825Y-13329246D02*
X18914825Y-13319722D01*
X18914825Y-13319722D02*
X18924349Y-13300674D01*
X18924349Y-13300674D02*
X18943396Y-13291150D01*
X18943396Y-13291150D02*
X18971968Y-13291150D01*
X18971968Y-13291150D02*
X18991016Y-13300674D01*
X19114825Y-13424484D02*
X19095777Y-13414960D01*
X19095777Y-13414960D02*
X19086254Y-13395912D01*
X19086254Y-13395912D02*
X19086254Y-13224484D01*
X19219587Y-13424484D02*
X19200539Y-13414960D01*
X19200539Y-13414960D02*
X19191016Y-13405436D01*
X19191016Y-13405436D02*
X19181492Y-13386388D01*
X19181492Y-13386388D02*
X19181492Y-13329246D01*
X19181492Y-13329246D02*
X19191016Y-13310198D01*
X19191016Y-13310198D02*
X19200539Y-13300674D01*
X19200539Y-13300674D02*
X19219587Y-13291150D01*
X19219587Y-13291150D02*
X19248158Y-13291150D01*
X19248158Y-13291150D02*
X19267206Y-13300674D01*
X19267206Y-13300674D02*
X19276730Y-13310198D01*
X19276730Y-13310198D02*
X19286254Y-13329246D01*
X19286254Y-13329246D02*
X19286254Y-13386388D01*
X19286254Y-13386388D02*
X19276730Y-13405436D01*
X19276730Y-13405436D02*
X19267206Y-13414960D01*
X19267206Y-13414960D02*
X19248158Y-13424484D01*
X19248158Y-13424484D02*
X19219587Y-13424484D01*
X19343397Y-13291150D02*
X19419587Y-13291150D01*
X19371968Y-13224484D02*
X19371968Y-13395912D01*
X19371968Y-13395912D02*
X19381492Y-13414960D01*
X19381492Y-13414960D02*
X19400539Y-13424484D01*
X19400539Y-13424484D02*
X19419587Y-13424484D01*
X19476730Y-13414960D02*
X19495777Y-13424484D01*
X19495777Y-13424484D02*
X19533873Y-13424484D01*
X19533873Y-13424484D02*
X19552920Y-13414960D01*
X19552920Y-13414960D02*
X19562444Y-13395912D01*
X19562444Y-13395912D02*
X19562444Y-13386388D01*
X19562444Y-13386388D02*
X19552920Y-13367341D01*
X19552920Y-13367341D02*
X19533873Y-13357817D01*
X19533873Y-13357817D02*
X19505301Y-13357817D01*
X19505301Y-13357817D02*
X19486254Y-13348293D01*
X19486254Y-13348293D02*
X19476730Y-13329246D01*
X19476730Y-13329246D02*
X19476730Y-13319722D01*
X19476730Y-13319722D02*
X19486254Y-13300674D01*
X19486254Y-13300674D02*
X19505301Y-13291150D01*
X19505301Y-13291150D02*
X19533873Y-13291150D01*
X19533873Y-13291150D02*
X19552920Y-13300674D01*
X19629111Y-13500674D02*
X19638635Y-13491150D01*
X19638635Y-13491150D02*
X19657682Y-13462579D01*
X19657682Y-13462579D02*
X19667206Y-13443531D01*
X19667206Y-13443531D02*
X19676730Y-13414960D01*
X19676730Y-13414960D02*
X19686254Y-13367341D01*
X19686254Y-13367341D02*
X19686254Y-13329246D01*
X19686254Y-13329246D02*
X19676730Y-13281627D01*
X19676730Y-13281627D02*
X19667206Y-13253055D01*
X19667206Y-13253055D02*
X19657682Y-13234008D01*
X19657682Y-13234008D02*
X19638635Y-13205436D01*
X19638635Y-13205436D02*
X19629111Y-13195912D01*
X13205711Y-13667711D02*
X13205711Y-13526289D01*
X13064289Y-13526289D01*
X13064289Y-13667711D01*
X13205711Y-13667711D01*
X13476729Y-13488484D02*
X13600539Y-13488484D01*
X13600539Y-13488484D02*
X13533872Y-13564674D01*
X13533872Y-13564674D02*
X13562443Y-13564674D01*
X13562443Y-13564674D02*
X13581491Y-13574198D01*
X13581491Y-13574198D02*
X13591015Y-13583722D01*
X13591015Y-13583722D02*
X13600539Y-13602769D01*
X13600539Y-13602769D02*
X13600539Y-13650388D01*
X13600539Y-13650388D02*
X13591015Y-13669436D01*
X13591015Y-13669436D02*
X13581491Y-13678960D01*
X13581491Y-13678960D02*
X13562443Y-13688484D01*
X13562443Y-13688484D02*
X13505301Y-13688484D01*
X13505301Y-13688484D02*
X13486253Y-13678960D01*
X13486253Y-13678960D02*
X13476729Y-13669436D01*
X13686253Y-13669436D02*
X13695777Y-13678960D01*
X13695777Y-13678960D02*
X13686253Y-13688484D01*
X13686253Y-13688484D02*
X13676729Y-13678960D01*
X13676729Y-13678960D02*
X13686253Y-13669436D01*
X13686253Y-13669436D02*
X13686253Y-13688484D01*
X13771967Y-13507531D02*
X13781491Y-13498008D01*
X13781491Y-13498008D02*
X13800539Y-13488484D01*
X13800539Y-13488484D02*
X13848158Y-13488484D01*
X13848158Y-13488484D02*
X13867205Y-13498008D01*
X13867205Y-13498008D02*
X13876729Y-13507531D01*
X13876729Y-13507531D02*
X13886253Y-13526579D01*
X13886253Y-13526579D02*
X13886253Y-13545627D01*
X13886253Y-13545627D02*
X13876729Y-13574198D01*
X13876729Y-13574198D02*
X13762443Y-13688484D01*
X13762443Y-13688484D02*
X13886253Y-13688484D01*
X14010062Y-13488484D02*
X14029110Y-13488484D01*
X14029110Y-13488484D02*
X14048158Y-13498008D01*
X14048158Y-13498008D02*
X14057682Y-13507531D01*
X14057682Y-13507531D02*
X14067205Y-13526579D01*
X14067205Y-13526579D02*
X14076729Y-13564674D01*
X14076729Y-13564674D02*
X14076729Y-13612293D01*
X14076729Y-13612293D02*
X14067205Y-13650388D01*
X14067205Y-13650388D02*
X14057682Y-13669436D01*
X14057682Y-13669436D02*
X14048158Y-13678960D01*
X14048158Y-13678960D02*
X14029110Y-13688484D01*
X14029110Y-13688484D02*
X14010062Y-13688484D01*
X14010062Y-13688484D02*
X13991015Y-13678960D01*
X13991015Y-13678960D02*
X13981491Y-13669436D01*
X13981491Y-13669436D02*
X13971967Y-13650388D01*
X13971967Y-13650388D02*
X13962443Y-13612293D01*
X13962443Y-13612293D02*
X13962443Y-13564674D01*
X13962443Y-13564674D02*
X13971967Y-13526579D01*
X13971967Y-13526579D02*
X13981491Y-13507531D01*
X13981491Y-13507531D02*
X13991015Y-13498008D01*
X13991015Y-13498008D02*
X14010062Y-13488484D01*
X14200539Y-13488484D02*
X14219586Y-13488484D01*
X14219586Y-13488484D02*
X14238634Y-13498008D01*
X14238634Y-13498008D02*
X14248158Y-13507531D01*
X14248158Y-13507531D02*
X14257682Y-13526579D01*
X14257682Y-13526579D02*
X14267205Y-13564674D01*
X14267205Y-13564674D02*
X14267205Y-13612293D01*
X14267205Y-13612293D02*
X14257682Y-13650388D01*
X14257682Y-13650388D02*
X14248158Y-13669436D01*
X14248158Y-13669436D02*
X14238634Y-13678960D01*
X14238634Y-13678960D02*
X14219586Y-13688484D01*
X14219586Y-13688484D02*
X14200539Y-13688484D01*
X14200539Y-13688484D02*
X14181491Y-13678960D01*
X14181491Y-13678960D02*
X14171967Y-13669436D01*
X14171967Y-13669436D02*
X14162443Y-13650388D01*
X14162443Y-13650388D02*
X14152920Y-13612293D01*
X14152920Y-13612293D02*
X14152920Y-13564674D01*
X14152920Y-13564674D02*
X14162443Y-13526579D01*
X14162443Y-13526579D02*
X14171967Y-13507531D01*
X14171967Y-13507531D02*
X14181491Y-13498008D01*
X14181491Y-13498008D02*
X14200539Y-13488484D01*
X14352920Y-13688484D02*
X14352920Y-13555150D01*
X14352920Y-13574198D02*
X14362443Y-13564674D01*
X14362443Y-13564674D02*
X14381491Y-13555150D01*
X14381491Y-13555150D02*
X14410063Y-13555150D01*
X14410063Y-13555150D02*
X14429110Y-13564674D01*
X14429110Y-13564674D02*
X14438634Y-13583722D01*
X14438634Y-13583722D02*
X14438634Y-13688484D01*
X14438634Y-13583722D02*
X14448158Y-13564674D01*
X14448158Y-13564674D02*
X14467205Y-13555150D01*
X14467205Y-13555150D02*
X14495777Y-13555150D01*
X14495777Y-13555150D02*
X14514824Y-13564674D01*
X14514824Y-13564674D02*
X14524348Y-13583722D01*
X14524348Y-13583722D02*
X14524348Y-13688484D01*
X14619586Y-13688484D02*
X14619586Y-13555150D01*
X14619586Y-13574198D02*
X14629110Y-13564674D01*
X14629110Y-13564674D02*
X14648158Y-13555150D01*
X14648158Y-13555150D02*
X14676729Y-13555150D01*
X14676729Y-13555150D02*
X14695777Y-13564674D01*
X14695777Y-13564674D02*
X14705301Y-13583722D01*
X14705301Y-13583722D02*
X14705301Y-13688484D01*
X14705301Y-13583722D02*
X14714824Y-13564674D01*
X14714824Y-13564674D02*
X14733872Y-13555150D01*
X14733872Y-13555150D02*
X14762443Y-13555150D01*
X14762443Y-13555150D02*
X14781491Y-13564674D01*
X14781491Y-13564674D02*
X14791015Y-13583722D01*
X14791015Y-13583722D02*
X14791015Y-13688484D01*
X15181491Y-13478960D02*
X15010063Y-13736103D01*
X15438634Y-13488484D02*
X15457682Y-13488484D01*
X15457682Y-13488484D02*
X15476729Y-13498008D01*
X15476729Y-13498008D02*
X15486253Y-13507531D01*
X15486253Y-13507531D02*
X15495777Y-13526579D01*
X15495777Y-13526579D02*
X15505301Y-13564674D01*
X15505301Y-13564674D02*
X15505301Y-13612293D01*
X15505301Y-13612293D02*
X15495777Y-13650388D01*
X15495777Y-13650388D02*
X15486253Y-13669436D01*
X15486253Y-13669436D02*
X15476729Y-13678960D01*
X15476729Y-13678960D02*
X15457682Y-13688484D01*
X15457682Y-13688484D02*
X15438634Y-13688484D01*
X15438634Y-13688484D02*
X15419586Y-13678960D01*
X15419586Y-13678960D02*
X15410063Y-13669436D01*
X15410063Y-13669436D02*
X15400539Y-13650388D01*
X15400539Y-13650388D02*
X15391015Y-13612293D01*
X15391015Y-13612293D02*
X15391015Y-13564674D01*
X15391015Y-13564674D02*
X15400539Y-13526579D01*
X15400539Y-13526579D02*
X15410063Y-13507531D01*
X15410063Y-13507531D02*
X15419586Y-13498008D01*
X15419586Y-13498008D02*
X15438634Y-13488484D01*
X15591015Y-13669436D02*
X15600539Y-13678960D01*
X15600539Y-13678960D02*
X15591015Y-13688484D01*
X15591015Y-13688484D02*
X15581491Y-13678960D01*
X15581491Y-13678960D02*
X15591015Y-13669436D01*
X15591015Y-13669436D02*
X15591015Y-13688484D01*
X15791015Y-13688484D02*
X15676729Y-13688484D01*
X15733872Y-13688484D02*
X15733872Y-13488484D01*
X15733872Y-13488484D02*
X15714825Y-13517055D01*
X15714825Y-13517055D02*
X15695777Y-13536103D01*
X15695777Y-13536103D02*
X15676729Y-13545627D01*
X15867206Y-13507531D02*
X15876729Y-13498008D01*
X15876729Y-13498008D02*
X15895777Y-13488484D01*
X15895777Y-13488484D02*
X15943396Y-13488484D01*
X15943396Y-13488484D02*
X15962444Y-13498008D01*
X15962444Y-13498008D02*
X15971967Y-13507531D01*
X15971967Y-13507531D02*
X15981491Y-13526579D01*
X15981491Y-13526579D02*
X15981491Y-13545627D01*
X15981491Y-13545627D02*
X15971967Y-13574198D01*
X15971967Y-13574198D02*
X15857682Y-13688484D01*
X15857682Y-13688484D02*
X15981491Y-13688484D01*
X16152920Y-13488484D02*
X16114825Y-13488484D01*
X16114825Y-13488484D02*
X16095777Y-13498008D01*
X16095777Y-13498008D02*
X16086253Y-13507531D01*
X16086253Y-13507531D02*
X16067206Y-13536103D01*
X16067206Y-13536103D02*
X16057682Y-13574198D01*
X16057682Y-13574198D02*
X16057682Y-13650388D01*
X16057682Y-13650388D02*
X16067206Y-13669436D01*
X16067206Y-13669436D02*
X16076729Y-13678960D01*
X16076729Y-13678960D02*
X16095777Y-13688484D01*
X16095777Y-13688484D02*
X16133872Y-13688484D01*
X16133872Y-13688484D02*
X16152920Y-13678960D01*
X16152920Y-13678960D02*
X16162444Y-13669436D01*
X16162444Y-13669436D02*
X16171967Y-13650388D01*
X16171967Y-13650388D02*
X16171967Y-13602769D01*
X16171967Y-13602769D02*
X16162444Y-13583722D01*
X16162444Y-13583722D02*
X16152920Y-13574198D01*
X16152920Y-13574198D02*
X16133872Y-13564674D01*
X16133872Y-13564674D02*
X16095777Y-13564674D01*
X16095777Y-13564674D02*
X16076729Y-13574198D01*
X16076729Y-13574198D02*
X16067206Y-13583722D01*
X16067206Y-13583722D02*
X16057682Y-13602769D01*
X16295777Y-13488484D02*
X16314825Y-13488484D01*
X16314825Y-13488484D02*
X16333872Y-13498008D01*
X16333872Y-13498008D02*
X16343396Y-13507531D01*
X16343396Y-13507531D02*
X16352920Y-13526579D01*
X16352920Y-13526579D02*
X16362444Y-13564674D01*
X16362444Y-13564674D02*
X16362444Y-13612293D01*
X16362444Y-13612293D02*
X16352920Y-13650388D01*
X16352920Y-13650388D02*
X16343396Y-13669436D01*
X16343396Y-13669436D02*
X16333872Y-13678960D01*
X16333872Y-13678960D02*
X16314825Y-13688484D01*
X16314825Y-13688484D02*
X16295777Y-13688484D01*
X16295777Y-13688484D02*
X16276729Y-13678960D01*
X16276729Y-13678960D02*
X16267206Y-13669436D01*
X16267206Y-13669436D02*
X16257682Y-13650388D01*
X16257682Y-13650388D02*
X16248158Y-13612293D01*
X16248158Y-13612293D02*
X16248158Y-13564674D01*
X16248158Y-13564674D02*
X16257682Y-13526579D01*
X16257682Y-13526579D02*
X16267206Y-13507531D01*
X16267206Y-13507531D02*
X16276729Y-13498008D01*
X16276729Y-13498008D02*
X16295777Y-13488484D01*
X16438634Y-13488484D02*
X16438634Y-13526579D01*
X16514825Y-13488484D02*
X16514825Y-13526579D01*
X16810063Y-13764674D02*
X16800539Y-13755150D01*
X16800539Y-13755150D02*
X16781491Y-13726579D01*
X16781491Y-13726579D02*
X16771968Y-13707531D01*
X16771968Y-13707531D02*
X16762444Y-13678960D01*
X16762444Y-13678960D02*
X16752920Y-13631341D01*
X16752920Y-13631341D02*
X16752920Y-13593246D01*
X16752920Y-13593246D02*
X16762444Y-13545627D01*
X16762444Y-13545627D02*
X16771968Y-13517055D01*
X16771968Y-13517055D02*
X16781491Y-13498008D01*
X16781491Y-13498008D02*
X16800539Y-13469436D01*
X16800539Y-13469436D02*
X16810063Y-13459912D01*
X16971968Y-13555150D02*
X16971968Y-13688484D01*
X16924349Y-13478960D02*
X16876730Y-13621817D01*
X16876730Y-13621817D02*
X17000539Y-13621817D01*
X17229111Y-13688484D02*
X17229111Y-13488484D01*
X17314825Y-13688484D02*
X17314825Y-13583722D01*
X17314825Y-13583722D02*
X17305301Y-13564674D01*
X17305301Y-13564674D02*
X17286253Y-13555150D01*
X17286253Y-13555150D02*
X17257682Y-13555150D01*
X17257682Y-13555150D02*
X17238634Y-13564674D01*
X17238634Y-13564674D02*
X17229111Y-13574198D01*
X17438634Y-13688484D02*
X17419587Y-13678960D01*
X17419587Y-13678960D02*
X17410063Y-13669436D01*
X17410063Y-13669436D02*
X17400539Y-13650388D01*
X17400539Y-13650388D02*
X17400539Y-13593246D01*
X17400539Y-13593246D02*
X17410063Y-13574198D01*
X17410063Y-13574198D02*
X17419587Y-13564674D01*
X17419587Y-13564674D02*
X17438634Y-13555150D01*
X17438634Y-13555150D02*
X17467206Y-13555150D01*
X17467206Y-13555150D02*
X17486253Y-13564674D01*
X17486253Y-13564674D02*
X17495777Y-13574198D01*
X17495777Y-13574198D02*
X17505301Y-13593246D01*
X17505301Y-13593246D02*
X17505301Y-13650388D01*
X17505301Y-13650388D02*
X17495777Y-13669436D01*
X17495777Y-13669436D02*
X17486253Y-13678960D01*
X17486253Y-13678960D02*
X17467206Y-13688484D01*
X17467206Y-13688484D02*
X17438634Y-13688484D01*
X17619587Y-13688484D02*
X17600539Y-13678960D01*
X17600539Y-13678960D02*
X17591015Y-13659912D01*
X17591015Y-13659912D02*
X17591015Y-13488484D01*
X17771968Y-13678960D02*
X17752920Y-13688484D01*
X17752920Y-13688484D02*
X17714825Y-13688484D01*
X17714825Y-13688484D02*
X17695777Y-13678960D01*
X17695777Y-13678960D02*
X17686253Y-13659912D01*
X17686253Y-13659912D02*
X17686253Y-13583722D01*
X17686253Y-13583722D02*
X17695777Y-13564674D01*
X17695777Y-13564674D02*
X17714825Y-13555150D01*
X17714825Y-13555150D02*
X17752920Y-13555150D01*
X17752920Y-13555150D02*
X17771968Y-13564674D01*
X17771968Y-13564674D02*
X17781492Y-13583722D01*
X17781492Y-13583722D02*
X17781492Y-13602769D01*
X17781492Y-13602769D02*
X17686253Y-13621817D01*
X17857682Y-13678960D02*
X17876730Y-13688484D01*
X17876730Y-13688484D02*
X17914825Y-13688484D01*
X17914825Y-13688484D02*
X17933873Y-13678960D01*
X17933873Y-13678960D02*
X17943396Y-13659912D01*
X17943396Y-13659912D02*
X17943396Y-13650388D01*
X17943396Y-13650388D02*
X17933873Y-13631341D01*
X17933873Y-13631341D02*
X17914825Y-13621817D01*
X17914825Y-13621817D02*
X17886253Y-13621817D01*
X17886253Y-13621817D02*
X17867206Y-13612293D01*
X17867206Y-13612293D02*
X17857682Y-13593246D01*
X17857682Y-13593246D02*
X17857682Y-13583722D01*
X17857682Y-13583722D02*
X17867206Y-13564674D01*
X17867206Y-13564674D02*
X17886253Y-13555150D01*
X17886253Y-13555150D02*
X17914825Y-13555150D01*
X17914825Y-13555150D02*
X17933873Y-13564674D01*
X18010063Y-13764674D02*
X18019587Y-13755150D01*
X18019587Y-13755150D02*
X18038634Y-13726579D01*
X18038634Y-13726579D02*
X18048158Y-13707531D01*
X18048158Y-13707531D02*
X18057682Y-13678960D01*
X18057682Y-13678960D02*
X18067206Y-13631341D01*
X18067206Y-13631341D02*
X18067206Y-13593246D01*
X18067206Y-13593246D02*
X18057682Y-13545627D01*
X18057682Y-13545627D02*
X18048158Y-13517055D01*
X18048158Y-13517055D02*
X18038634Y-13498008D01*
X18038634Y-13498008D02*
X18019587Y-13469436D01*
X18019587Y-13469436D02*
X18010063Y-13459912D01*
M02*
