G04 #@! TF.GenerationSoftware,KiCad,Pcbnew,7.0.11*
G04 #@! TF.CreationDate,2024-07-15T13:19:43-04:00*
G04 #@! TF.ProjectId,prism-pcb,70726973-6d2d-4706-9362-2e6b69636164,1.0*
G04 #@! TF.SameCoordinates,Original*
G04 #@! TF.FileFunction,Copper,L2,Inr*
G04 #@! TF.FilePolarity,Positive*
%FSLAX46Y46*%
G04 Gerber Fmt 4.6, Leading zero omitted, Abs format (unit mm)*
G04 Created by KiCad (PCBNEW 7.0.11) date 2024-07-15 13:19:43*
%MOMM*%
%LPD*%
G01*
G04 APERTURE LIST*
G04 #@! TA.AperFunction,ComponentPad*
%ADD10R,1.700000X1.700000*%
G04 #@! TD*
G04 #@! TA.AperFunction,ComponentPad*
%ADD11O,1.700000X1.700000*%
G04 #@! TD*
G04 #@! TA.AperFunction,ComponentPad*
%ADD12C,4.400000*%
G04 #@! TD*
G04 #@! TA.AperFunction,ComponentPad*
%ADD13C,6.400000*%
G04 #@! TD*
G04 #@! TA.AperFunction,HeatsinkPad*
%ADD14C,0.500000*%
G04 #@! TD*
G04 #@! TA.AperFunction,ViaPad*
%ADD15C,1.000000*%
G04 #@! TD*
G04 #@! TA.AperFunction,ViaPad*
%ADD16C,0.400000*%
G04 #@! TD*
G04 #@! TA.AperFunction,Conductor*
%ADD17C,0.300000*%
G04 #@! TD*
G04 APERTURE END LIST*
D10*
X141130000Y-91600000D03*
D11*
X143670000Y-91600000D03*
D12*
X142400000Y-111600000D03*
X162400000Y-91600000D03*
X162400000Y-111600000D03*
D13*
X167900000Y-117100000D03*
D14*
X150150000Y-99350000D03*
X150150000Y-100475000D03*
X150150000Y-101600000D03*
X150150000Y-102725000D03*
X150150000Y-103850000D03*
X151275000Y-99350000D03*
X151275000Y-100475000D03*
X151275000Y-101600000D03*
X151275000Y-102725000D03*
X151275000Y-103850000D03*
X152400000Y-99350000D03*
X152400000Y-100475000D03*
X152400000Y-101600000D03*
X152400000Y-102725000D03*
X152400000Y-103850000D03*
X153525000Y-99350000D03*
X153525000Y-100475000D03*
X153525000Y-101600000D03*
X153525000Y-102725000D03*
X153525000Y-103850000D03*
X154650000Y-99350000D03*
X154650000Y-100475000D03*
X154650000Y-101600000D03*
X154650000Y-102725000D03*
X154650000Y-103850000D03*
D13*
X136900000Y-86100000D03*
X167900000Y-86100000D03*
X136900000Y-117100000D03*
D15*
X137400000Y-102100000D03*
X135400000Y-99100000D03*
X148400000Y-110850000D03*
X145400000Y-109600000D03*
X137400000Y-100100000D03*
X135400000Y-101100000D03*
X150400000Y-95600000D03*
X163150000Y-99350000D03*
X152900000Y-95600000D03*
X163150000Y-100850000D03*
X150400000Y-107600000D03*
X163150000Y-102350000D03*
X152875000Y-107600000D03*
X163150000Y-103850000D03*
D16*
X135400000Y-97100000D03*
X159400000Y-104600000D03*
X159400000Y-103600000D03*
X137400000Y-98100000D03*
D15*
X153400000Y-90600000D03*
X135400000Y-103100000D03*
X153400000Y-112600000D03*
X137400000Y-104100000D03*
X137400000Y-106100000D03*
X135400000Y-105100000D03*
D17*
X133700000Y-98600000D02*
X133700000Y-113900000D01*
X167900000Y-117100000D02*
X162400000Y-111600000D01*
X133700000Y-89300000D02*
X133700000Y-98600000D01*
X167900000Y-86100000D02*
X162400000Y-91600000D01*
X143670000Y-91600000D02*
X138170000Y-86100000D01*
X167900000Y-86100000D02*
X136900000Y-86100000D01*
X134200000Y-99100000D02*
X133700000Y-98600000D01*
X135400000Y-99100000D02*
X134200000Y-99100000D01*
X147150000Y-109600000D02*
X148400000Y-110850000D01*
X136900000Y-86100000D02*
X133700000Y-89300000D01*
X138170000Y-86100000D02*
X136900000Y-86100000D01*
X136900000Y-117100000D02*
X167900000Y-117100000D01*
X145400000Y-109600000D02*
X147150000Y-109600000D01*
X167900000Y-117100000D02*
X167900000Y-86100000D01*
X136900000Y-117100000D02*
X142400000Y-111600000D01*
X142400000Y-111600000D02*
X144400000Y-109600000D01*
X144400000Y-109600000D02*
X145400000Y-109600000D01*
X133700000Y-113900000D02*
X136900000Y-117100000D01*
G04 #@! TA.AperFunction,Conductor*
G36*
X167902292Y-81900605D02*
G01*
X168282906Y-81918202D01*
X168292001Y-81919044D01*
X168667139Y-81971374D01*
X168676108Y-81973051D01*
X169044788Y-82059764D01*
X169053583Y-82062266D01*
X169412690Y-82182627D01*
X169421217Y-82185930D01*
X169767695Y-82338915D01*
X169775869Y-82342985D01*
X170106752Y-82527285D01*
X170114527Y-82532099D01*
X170426991Y-82746143D01*
X170434288Y-82751654D01*
X170725659Y-82993604D01*
X170732417Y-82999764D01*
X171000235Y-83267582D01*
X171006395Y-83274340D01*
X171248345Y-83565711D01*
X171253856Y-83573008D01*
X171467900Y-83885472D01*
X171472714Y-83893247D01*
X171657011Y-84224124D01*
X171661087Y-84232310D01*
X171814069Y-84578782D01*
X171817372Y-84587309D01*
X171937733Y-84946416D01*
X171940235Y-84955211D01*
X172026946Y-85323881D01*
X172028627Y-85332870D01*
X172080954Y-85707993D01*
X172081797Y-85717098D01*
X172099394Y-86097707D01*
X172099500Y-86102279D01*
X172099500Y-117097720D01*
X172099394Y-117102292D01*
X172081797Y-117482901D01*
X172080954Y-117492006D01*
X172028627Y-117867129D01*
X172026946Y-117876118D01*
X171940235Y-118244788D01*
X171937733Y-118253583D01*
X171817372Y-118612690D01*
X171814069Y-118621217D01*
X171661087Y-118967689D01*
X171657011Y-118975875D01*
X171472714Y-119306752D01*
X171467900Y-119314527D01*
X171253856Y-119626991D01*
X171248345Y-119634288D01*
X171006395Y-119925659D01*
X171000235Y-119932417D01*
X170732417Y-120200235D01*
X170725659Y-120206395D01*
X170434288Y-120448345D01*
X170426991Y-120453856D01*
X170114527Y-120667900D01*
X170106752Y-120672714D01*
X169775875Y-120857011D01*
X169767689Y-120861087D01*
X169421217Y-121014069D01*
X169412690Y-121017372D01*
X169053583Y-121137733D01*
X169044788Y-121140235D01*
X168676118Y-121226946D01*
X168667129Y-121228627D01*
X168292006Y-121280954D01*
X168282901Y-121281797D01*
X167902293Y-121299394D01*
X167897721Y-121299500D01*
X136902279Y-121299500D01*
X136897707Y-121299394D01*
X136517098Y-121281797D01*
X136507993Y-121280954D01*
X136132870Y-121228627D01*
X136123881Y-121226946D01*
X135755211Y-121140235D01*
X135746416Y-121137733D01*
X135387309Y-121017372D01*
X135378782Y-121014069D01*
X135032310Y-120861087D01*
X135024124Y-120857011D01*
X134693247Y-120672714D01*
X134685472Y-120667900D01*
X134373008Y-120453856D01*
X134365711Y-120448345D01*
X134074340Y-120206395D01*
X134067582Y-120200235D01*
X133799764Y-119932417D01*
X133793604Y-119925659D01*
X133551654Y-119634288D01*
X133546143Y-119626991D01*
X133332099Y-119314527D01*
X133327285Y-119306752D01*
X133142988Y-118975875D01*
X133138912Y-118967689D01*
X132985930Y-118621217D01*
X132982627Y-118612690D01*
X132862266Y-118253583D01*
X132859764Y-118244788D01*
X132835120Y-118140008D01*
X132773051Y-117876108D01*
X132771374Y-117867139D01*
X132719044Y-117492001D01*
X132718202Y-117482901D01*
X132700606Y-117102292D01*
X132700553Y-117100000D01*
X133495006Y-117100000D01*
X133514965Y-117468143D01*
X133574614Y-117831979D01*
X133673242Y-118187206D01*
X133673246Y-118187217D01*
X133809711Y-118529721D01*
X133982403Y-118855453D01*
X134189306Y-119160611D01*
X134189313Y-119160621D01*
X134422925Y-119435650D01*
X135699983Y-118158592D01*
X135765130Y-118234870D01*
X135841405Y-118300014D01*
X134567580Y-119573840D01*
X134695655Y-119695158D01*
X134989156Y-119918272D01*
X134989161Y-119918275D01*
X135305070Y-120108352D01*
X135639676Y-120263157D01*
X135989076Y-120380884D01*
X136349128Y-120460137D01*
X136349127Y-120460137D01*
X136715657Y-120500000D01*
X137084343Y-120500000D01*
X137450872Y-120460137D01*
X137810922Y-120380884D01*
X137810924Y-120380884D01*
X138160323Y-120263157D01*
X138494929Y-120108352D01*
X138810838Y-119918275D01*
X138810843Y-119918272D01*
X139104344Y-119695158D01*
X139232418Y-119573840D01*
X137958593Y-118300015D01*
X138034870Y-118234870D01*
X138100015Y-118158593D01*
X139377073Y-119435651D01*
X139610686Y-119160621D01*
X139610693Y-119160611D01*
X139817596Y-118855453D01*
X139990288Y-118529721D01*
X140126753Y-118187217D01*
X140126757Y-118187206D01*
X140225385Y-117831979D01*
X140285034Y-117468143D01*
X140304993Y-117100000D01*
X164495006Y-117100000D01*
X164514965Y-117468143D01*
X164574614Y-117831979D01*
X164673242Y-118187206D01*
X164673246Y-118187217D01*
X164809711Y-118529721D01*
X164982403Y-118855453D01*
X165189306Y-119160611D01*
X165189313Y-119160621D01*
X165422925Y-119435650D01*
X166699983Y-118158592D01*
X166765130Y-118234870D01*
X166841405Y-118300014D01*
X165567580Y-119573840D01*
X165695655Y-119695158D01*
X165989156Y-119918272D01*
X165989161Y-119918275D01*
X166305070Y-120108352D01*
X166639676Y-120263157D01*
X166989076Y-120380884D01*
X167349128Y-120460137D01*
X167349127Y-120460137D01*
X167715657Y-120500000D01*
X168084343Y-120500000D01*
X168450872Y-120460137D01*
X168810922Y-120380884D01*
X168810924Y-120380884D01*
X169160323Y-120263157D01*
X169494929Y-120108352D01*
X169810838Y-119918275D01*
X169810843Y-119918272D01*
X170104344Y-119695158D01*
X170232418Y-119573840D01*
X168958593Y-118300015D01*
X169034870Y-118234870D01*
X169100015Y-118158593D01*
X170377073Y-119435651D01*
X170610686Y-119160621D01*
X170610693Y-119160611D01*
X170817596Y-118855453D01*
X170990288Y-118529721D01*
X171126753Y-118187217D01*
X171126757Y-118187206D01*
X171225385Y-117831979D01*
X171285034Y-117468143D01*
X171304993Y-117100000D01*
X171285034Y-116731856D01*
X171225385Y-116368020D01*
X171126757Y-116012793D01*
X171126753Y-116012782D01*
X170990288Y-115670278D01*
X170817596Y-115344546D01*
X170610693Y-115039388D01*
X170610686Y-115039378D01*
X170377072Y-114764347D01*
X169100014Y-116041404D01*
X169034870Y-115965130D01*
X168958592Y-115899983D01*
X170232418Y-114626158D01*
X170104344Y-114504841D01*
X169810843Y-114281727D01*
X169810838Y-114281724D01*
X169494929Y-114091647D01*
X169160323Y-113936842D01*
X168810923Y-113819115D01*
X168450871Y-113739862D01*
X168450872Y-113739862D01*
X168084343Y-113700000D01*
X167715657Y-113700000D01*
X167349127Y-113739862D01*
X166989077Y-113819115D01*
X166989075Y-113819115D01*
X166639676Y-113936842D01*
X166305070Y-114091647D01*
X165989161Y-114281724D01*
X165989156Y-114281727D01*
X165695655Y-114504841D01*
X165567580Y-114626158D01*
X166841406Y-115899984D01*
X166765130Y-115965130D01*
X166699984Y-116041406D01*
X165422925Y-114764347D01*
X165189313Y-115039378D01*
X165189306Y-115039388D01*
X164982403Y-115344546D01*
X164809711Y-115670278D01*
X164673246Y-116012782D01*
X164673242Y-116012793D01*
X164574614Y-116368020D01*
X164514965Y-116731856D01*
X164495006Y-117100000D01*
X140304993Y-117100000D01*
X140285034Y-116731856D01*
X140225385Y-116368020D01*
X140126757Y-116012793D01*
X140126753Y-116012782D01*
X139990288Y-115670278D01*
X139817596Y-115344546D01*
X139610693Y-115039388D01*
X139610686Y-115039378D01*
X139377072Y-114764347D01*
X138100014Y-116041404D01*
X138034870Y-115965130D01*
X137958592Y-115899983D01*
X139232418Y-114626158D01*
X139104344Y-114504841D01*
X138810843Y-114281727D01*
X138810838Y-114281724D01*
X138494929Y-114091647D01*
X138160323Y-113936842D01*
X137810923Y-113819115D01*
X137450871Y-113739862D01*
X137450872Y-113739862D01*
X137084343Y-113700000D01*
X136715657Y-113700000D01*
X136349127Y-113739862D01*
X135989077Y-113819115D01*
X135989075Y-113819115D01*
X135639676Y-113936842D01*
X135305070Y-114091647D01*
X134989161Y-114281724D01*
X134989156Y-114281727D01*
X134695655Y-114504841D01*
X134567580Y-114626158D01*
X135841406Y-115899984D01*
X135765130Y-115965130D01*
X135699984Y-116041406D01*
X134422925Y-114764347D01*
X134189313Y-115039378D01*
X134189306Y-115039388D01*
X133982403Y-115344546D01*
X133809711Y-115670278D01*
X133673246Y-116012782D01*
X133673242Y-116012793D01*
X133574614Y-116368020D01*
X133514965Y-116731856D01*
X133495006Y-117100000D01*
X132700553Y-117100000D01*
X132700500Y-117097720D01*
X132700500Y-111600000D01*
X139995255Y-111600000D01*
X140014217Y-111901399D01*
X140070802Y-112198027D01*
X140070805Y-112198037D01*
X140164127Y-112485252D01*
X140292706Y-112758495D01*
X140292713Y-112758508D01*
X140454519Y-113013473D01*
X140631350Y-113227225D01*
X141552440Y-112306134D01*
X141564894Y-112323624D01*
X141694355Y-112447065D01*
X140775039Y-113366382D01*
X140867155Y-113452886D01*
X141111483Y-113630400D01*
X141376107Y-113775877D01*
X141376110Y-113775879D01*
X141656892Y-113887047D01*
X141949402Y-113962150D01*
X141949398Y-113962150D01*
X142249005Y-114000000D01*
X142550995Y-114000000D01*
X142850599Y-113962150D01*
X143143107Y-113887047D01*
X143423889Y-113775879D01*
X143423892Y-113775877D01*
X143688516Y-113630400D01*
X143932844Y-113452886D01*
X144024959Y-113366382D01*
X143104191Y-112445614D01*
X143162540Y-112399729D01*
X143245458Y-112304035D01*
X144168648Y-113227225D01*
X144345480Y-113013473D01*
X144507286Y-112758508D01*
X144507293Y-112758495D01*
X144581875Y-112600000D01*
X152694355Y-112600000D01*
X152714860Y-112768872D01*
X152775182Y-112927930D01*
X152871817Y-113067929D01*
X152999148Y-113180734D01*
X153149775Y-113259790D01*
X153314944Y-113300500D01*
X153314947Y-113300500D01*
X153485053Y-113300500D01*
X153485056Y-113300500D01*
X153650225Y-113259790D01*
X153800852Y-113180734D01*
X153928183Y-113067929D01*
X154024818Y-112927930D01*
X154085140Y-112768872D01*
X154105645Y-112600000D01*
X154085140Y-112431128D01*
X154024818Y-112272070D01*
X153928183Y-112132071D01*
X153800852Y-112019266D01*
X153650225Y-111940210D01*
X153650224Y-111940209D01*
X153650223Y-111940209D01*
X153485058Y-111899500D01*
X153485056Y-111899500D01*
X153314944Y-111899500D01*
X153314941Y-111899500D01*
X153149776Y-111940209D01*
X152999146Y-112019267D01*
X152871818Y-112132069D01*
X152871816Y-112132072D01*
X152796652Y-112240965D01*
X152775182Y-112272070D01*
X152755631Y-112323624D01*
X152714860Y-112431129D01*
X152702905Y-112529589D01*
X152694355Y-112600000D01*
X144581875Y-112600000D01*
X144635872Y-112485252D01*
X144729194Y-112198037D01*
X144729197Y-112198027D01*
X144785782Y-111901399D01*
X144804744Y-111600000D01*
X159995255Y-111600000D01*
X160014217Y-111901399D01*
X160070802Y-112198027D01*
X160070805Y-112198037D01*
X160164127Y-112485252D01*
X160292706Y-112758495D01*
X160292713Y-112758508D01*
X160454519Y-113013473D01*
X160631350Y-113227225D01*
X161552440Y-112306134D01*
X161564894Y-112323624D01*
X161694355Y-112447065D01*
X160775039Y-113366382D01*
X160867155Y-113452886D01*
X161111483Y-113630400D01*
X161376107Y-113775877D01*
X161376110Y-113775879D01*
X161656892Y-113887047D01*
X161949402Y-113962150D01*
X161949398Y-113962150D01*
X162249005Y-114000000D01*
X162550995Y-114000000D01*
X162850599Y-113962150D01*
X163143107Y-113887047D01*
X163423889Y-113775879D01*
X163423892Y-113775877D01*
X163688516Y-113630400D01*
X163932844Y-113452886D01*
X164024959Y-113366382D01*
X163104191Y-112445614D01*
X163162540Y-112399729D01*
X163245458Y-112304035D01*
X164168648Y-113227225D01*
X164345480Y-113013473D01*
X164507286Y-112758508D01*
X164507293Y-112758495D01*
X164635872Y-112485252D01*
X164729194Y-112198037D01*
X164729197Y-112198027D01*
X164785782Y-111901399D01*
X164804744Y-111600000D01*
X164785782Y-111298600D01*
X164729197Y-111001972D01*
X164729194Y-111001962D01*
X164635872Y-110714747D01*
X164507293Y-110441504D01*
X164507286Y-110441491D01*
X164345480Y-110186526D01*
X164168648Y-109972773D01*
X163247558Y-110893862D01*
X163235106Y-110876376D01*
X163105642Y-110752932D01*
X164024959Y-109833616D01*
X163932844Y-109747113D01*
X163688516Y-109569599D01*
X163423892Y-109424122D01*
X163423889Y-109424120D01*
X163143107Y-109312952D01*
X162850597Y-109237849D01*
X162850601Y-109237849D01*
X162550995Y-109200000D01*
X162249005Y-109200000D01*
X161949400Y-109237849D01*
X161656892Y-109312952D01*
X161376110Y-109424120D01*
X161376107Y-109424122D01*
X161111483Y-109569599D01*
X160867155Y-109747114D01*
X160775039Y-109833616D01*
X161695808Y-110754385D01*
X161637460Y-110800271D01*
X161554541Y-110895964D01*
X160631350Y-109972773D01*
X160454519Y-110186526D01*
X160292707Y-110441503D01*
X160292706Y-110441504D01*
X160164127Y-110714747D01*
X160070805Y-111001962D01*
X160070802Y-111001972D01*
X160014217Y-111298600D01*
X159995255Y-111600000D01*
X144804744Y-111600000D01*
X144785782Y-111298600D01*
X144729197Y-111001972D01*
X144729194Y-111001962D01*
X144635872Y-110714747D01*
X144507293Y-110441504D01*
X144507286Y-110441491D01*
X144345480Y-110186526D01*
X144168648Y-109972773D01*
X143247558Y-110893862D01*
X143235106Y-110876376D01*
X143105642Y-110752932D01*
X144024959Y-109833616D01*
X143932844Y-109747113D01*
X143688516Y-109569599D01*
X143423892Y-109424122D01*
X143423889Y-109424120D01*
X143143107Y-109312952D01*
X142850597Y-109237849D01*
X142850601Y-109237849D01*
X142550995Y-109200000D01*
X142249005Y-109200000D01*
X141949400Y-109237849D01*
X141656892Y-109312952D01*
X141376110Y-109424120D01*
X141376107Y-109424122D01*
X141111483Y-109569599D01*
X140867155Y-109747114D01*
X140775039Y-109833616D01*
X141695808Y-110754385D01*
X141637460Y-110800271D01*
X141554541Y-110895964D01*
X140631350Y-109972773D01*
X140454519Y-110186526D01*
X140292707Y-110441503D01*
X140292706Y-110441504D01*
X140164127Y-110714747D01*
X140070805Y-111001962D01*
X140070802Y-111001972D01*
X140014217Y-111298600D01*
X139995255Y-111600000D01*
X132700500Y-111600000D01*
X132700500Y-107600000D01*
X149694355Y-107600000D01*
X149714860Y-107768872D01*
X149775182Y-107927930D01*
X149871817Y-108067929D01*
X149999148Y-108180734D01*
X150149775Y-108259790D01*
X150314944Y-108300500D01*
X150314947Y-108300500D01*
X150485053Y-108300500D01*
X150485056Y-108300500D01*
X150650225Y-108259790D01*
X150800852Y-108180734D01*
X150928183Y-108067929D01*
X151024818Y-107927930D01*
X151085140Y-107768872D01*
X151105645Y-107600000D01*
X152169355Y-107600000D01*
X152189860Y-107768872D01*
X152250182Y-107927930D01*
X152346817Y-108067929D01*
X152474148Y-108180734D01*
X152624775Y-108259790D01*
X152789944Y-108300500D01*
X152789947Y-108300500D01*
X152960053Y-108300500D01*
X152960056Y-108300500D01*
X153125225Y-108259790D01*
X153275852Y-108180734D01*
X153403183Y-108067929D01*
X153499818Y-107927930D01*
X153560140Y-107768872D01*
X153580645Y-107600000D01*
X153560140Y-107431128D01*
X153499818Y-107272070D01*
X153403183Y-107132071D01*
X153275852Y-107019266D01*
X153125225Y-106940210D01*
X153125224Y-106940209D01*
X153125223Y-106940209D01*
X152960058Y-106899500D01*
X152960056Y-106899500D01*
X152789944Y-106899500D01*
X152789941Y-106899500D01*
X152624776Y-106940209D01*
X152474146Y-107019267D01*
X152346818Y-107132069D01*
X152346817Y-107132071D01*
X152250182Y-107272070D01*
X152189860Y-107431128D01*
X152169355Y-107600000D01*
X151105645Y-107600000D01*
X151085140Y-107431128D01*
X151024818Y-107272070D01*
X150928183Y-107132071D01*
X150800852Y-107019266D01*
X150650225Y-106940210D01*
X150650224Y-106940209D01*
X150650223Y-106940209D01*
X150485058Y-106899500D01*
X150485056Y-106899500D01*
X150314944Y-106899500D01*
X150314941Y-106899500D01*
X150149776Y-106940209D01*
X149999146Y-107019267D01*
X149871818Y-107132069D01*
X149871817Y-107132071D01*
X149775182Y-107272070D01*
X149714860Y-107431128D01*
X149694355Y-107600000D01*
X132700500Y-107600000D01*
X132700500Y-106100000D01*
X136694355Y-106100000D01*
X136714860Y-106268872D01*
X136775182Y-106427930D01*
X136871817Y-106567929D01*
X136999148Y-106680734D01*
X137149775Y-106759790D01*
X137314944Y-106800500D01*
X137314947Y-106800500D01*
X137485053Y-106800500D01*
X137485056Y-106800500D01*
X137650225Y-106759790D01*
X137800852Y-106680734D01*
X137928183Y-106567929D01*
X138024818Y-106427930D01*
X138085140Y-106268872D01*
X138105645Y-106100000D01*
X138085140Y-105931128D01*
X138024818Y-105772070D01*
X137928183Y-105632071D01*
X137800852Y-105519266D01*
X137650225Y-105440210D01*
X137650224Y-105440209D01*
X137650223Y-105440209D01*
X137485058Y-105399500D01*
X137485056Y-105399500D01*
X137314944Y-105399500D01*
X137314941Y-105399500D01*
X137149776Y-105440209D01*
X136999146Y-105519267D01*
X136871818Y-105632069D01*
X136871816Y-105632072D01*
X136838227Y-105680734D01*
X136775182Y-105772070D01*
X136714860Y-105931128D01*
X136694355Y-106100000D01*
X132700500Y-106100000D01*
X132700500Y-105100000D01*
X134694355Y-105100000D01*
X134714860Y-105268872D01*
X134775182Y-105427930D01*
X134871817Y-105567929D01*
X134999148Y-105680734D01*
X135149775Y-105759790D01*
X135314944Y-105800500D01*
X135314947Y-105800500D01*
X135485053Y-105800500D01*
X135485056Y-105800500D01*
X135650225Y-105759790D01*
X135800852Y-105680734D01*
X135928183Y-105567929D01*
X136024818Y-105427930D01*
X136085140Y-105268872D01*
X136105645Y-105100000D01*
X136085140Y-104931128D01*
X136024818Y-104772070D01*
X135928183Y-104632071D01*
X135800852Y-104519266D01*
X135650225Y-104440210D01*
X135650224Y-104440209D01*
X135650223Y-104440209D01*
X135485058Y-104399500D01*
X135485056Y-104399500D01*
X135314944Y-104399500D01*
X135314941Y-104399500D01*
X135149776Y-104440209D01*
X134999146Y-104519267D01*
X134871818Y-104632069D01*
X134871816Y-104632072D01*
X134838227Y-104680734D01*
X134775182Y-104772070D01*
X134714860Y-104931128D01*
X134694355Y-105100000D01*
X132700500Y-105100000D01*
X132700500Y-104100000D01*
X136694355Y-104100000D01*
X136714860Y-104268872D01*
X136775182Y-104427930D01*
X136871817Y-104567929D01*
X136999148Y-104680734D01*
X137149775Y-104759790D01*
X137314944Y-104800500D01*
X137314947Y-104800500D01*
X137485053Y-104800500D01*
X137485056Y-104800500D01*
X137650225Y-104759790D01*
X137800852Y-104680734D01*
X137891982Y-104600000D01*
X158994508Y-104600000D01*
X158999587Y-104632071D01*
X159014354Y-104725303D01*
X159014355Y-104725307D01*
X159052668Y-104800499D01*
X159071950Y-104838342D01*
X159161658Y-104928050D01*
X159274696Y-104985646D01*
X159400000Y-105005492D01*
X159525304Y-104985646D01*
X159638342Y-104928050D01*
X159728050Y-104838342D01*
X159785646Y-104725304D01*
X159805492Y-104600000D01*
X159785646Y-104474696D01*
X159728050Y-104361658D01*
X159638342Y-104271950D01*
X159632297Y-104268870D01*
X159525307Y-104214355D01*
X159525304Y-104214354D01*
X159420664Y-104197780D01*
X159404571Y-104189581D01*
X159379334Y-104197781D01*
X159274696Y-104214354D01*
X159274692Y-104214355D01*
X159161659Y-104271949D01*
X159071949Y-104361659D01*
X159014355Y-104474692D01*
X159014354Y-104474696D01*
X158994508Y-104600000D01*
X137891982Y-104600000D01*
X137928183Y-104567929D01*
X138024818Y-104427930D01*
X138085140Y-104268872D01*
X138089743Y-104230966D01*
X149910452Y-104230966D01*
X149910453Y-104230968D01*
X149961134Y-104263539D01*
X149961140Y-104263542D01*
X150085298Y-104299999D01*
X150085301Y-104300000D01*
X150214699Y-104300000D01*
X150214701Y-104299999D01*
X150338857Y-104263543D01*
X150389545Y-104230967D01*
X150389544Y-104230966D01*
X151035452Y-104230966D01*
X151035453Y-104230968D01*
X151086134Y-104263539D01*
X151086140Y-104263542D01*
X151210298Y-104299999D01*
X151210301Y-104300000D01*
X151339699Y-104300000D01*
X151339701Y-104299999D01*
X151463857Y-104263543D01*
X151514545Y-104230967D01*
X151514544Y-104230966D01*
X152160452Y-104230966D01*
X152160453Y-104230968D01*
X152211134Y-104263539D01*
X152211140Y-104263542D01*
X152335298Y-104299999D01*
X152335301Y-104300000D01*
X152464699Y-104300000D01*
X152464701Y-104299999D01*
X152588857Y-104263543D01*
X152639545Y-104230967D01*
X152639544Y-104230966D01*
X153285452Y-104230966D01*
X153285453Y-104230968D01*
X153336134Y-104263539D01*
X153336140Y-104263542D01*
X153460298Y-104299999D01*
X153460301Y-104300000D01*
X153589699Y-104300000D01*
X153589701Y-104299999D01*
X153713857Y-104263543D01*
X153764545Y-104230967D01*
X153764544Y-104230966D01*
X154410452Y-104230966D01*
X154410453Y-104230968D01*
X154461134Y-104263539D01*
X154461140Y-104263542D01*
X154585298Y-104299999D01*
X154585301Y-104300000D01*
X154714699Y-104300000D01*
X154714701Y-104299999D01*
X154838857Y-104263543D01*
X154889545Y-104230967D01*
X154649999Y-103991421D01*
X154410452Y-104230966D01*
X153764544Y-104230966D01*
X153524999Y-103991421D01*
X153285452Y-104230966D01*
X152639544Y-104230966D01*
X152399999Y-103991421D01*
X152160452Y-104230966D01*
X151514544Y-104230966D01*
X151274999Y-103991421D01*
X151035452Y-104230966D01*
X150389544Y-104230966D01*
X150149999Y-103991421D01*
X149910452Y-104230966D01*
X138089743Y-104230966D01*
X138105645Y-104100000D01*
X138104737Y-104092526D01*
X138095794Y-104018870D01*
X138085140Y-103931128D01*
X138054373Y-103850002D01*
X149695373Y-103850002D01*
X149713787Y-103978077D01*
X149713789Y-103978083D01*
X149766051Y-104092526D01*
X149766052Y-104092526D01*
X149976086Y-103882492D01*
X150050000Y-103882492D01*
X150088197Y-103935065D01*
X150134162Y-103950000D01*
X150165838Y-103950000D01*
X150211803Y-103935065D01*
X150250000Y-103882492D01*
X150250000Y-103849999D01*
X150291421Y-103849999D01*
X150533946Y-104092524D01*
X150586211Y-103978080D01*
X150586212Y-103978077D01*
X150604627Y-103850002D01*
X150820373Y-103850002D01*
X150838787Y-103978077D01*
X150838789Y-103978083D01*
X150891051Y-104092526D01*
X151101086Y-103882492D01*
X151175000Y-103882492D01*
X151213197Y-103935065D01*
X151259162Y-103950000D01*
X151290838Y-103950000D01*
X151336803Y-103935065D01*
X151375000Y-103882492D01*
X151375000Y-103849999D01*
X151416421Y-103849999D01*
X151658946Y-104092524D01*
X151711211Y-103978080D01*
X151711212Y-103978077D01*
X151729627Y-103850002D01*
X151945373Y-103850002D01*
X151963787Y-103978077D01*
X151963789Y-103978083D01*
X152016051Y-104092526D01*
X152226086Y-103882492D01*
X152300000Y-103882492D01*
X152338197Y-103935065D01*
X152384162Y-103950000D01*
X152415838Y-103950000D01*
X152461803Y-103935065D01*
X152500000Y-103882492D01*
X152500000Y-103849999D01*
X152541421Y-103849999D01*
X152783946Y-104092524D01*
X152836211Y-103978080D01*
X152836212Y-103978077D01*
X152854627Y-103850002D01*
X153070373Y-103850002D01*
X153088787Y-103978077D01*
X153088789Y-103978083D01*
X153141051Y-104092526D01*
X153351086Y-103882492D01*
X153425000Y-103882492D01*
X153463197Y-103935065D01*
X153509162Y-103950000D01*
X153540838Y-103950000D01*
X153586803Y-103935065D01*
X153625000Y-103882492D01*
X153625000Y-103849999D01*
X153666421Y-103849999D01*
X153908946Y-104092524D01*
X153961211Y-103978080D01*
X153961212Y-103978077D01*
X153979627Y-103850002D01*
X154195373Y-103850002D01*
X154213787Y-103978077D01*
X154213789Y-103978083D01*
X154266051Y-104092526D01*
X154266052Y-104092526D01*
X154476086Y-103882492D01*
X154550000Y-103882492D01*
X154588197Y-103935065D01*
X154634162Y-103950000D01*
X154665838Y-103950000D01*
X154711803Y-103935065D01*
X154750000Y-103882492D01*
X154750000Y-103849999D01*
X154791421Y-103849999D01*
X155033946Y-104092524D01*
X155086211Y-103978080D01*
X155086212Y-103978077D01*
X155104627Y-103850002D01*
X155104627Y-103849997D01*
X155086212Y-103721922D01*
X155086211Y-103721919D01*
X155033946Y-103607473D01*
X154791421Y-103849999D01*
X154750000Y-103849999D01*
X154750000Y-103817508D01*
X154711803Y-103764935D01*
X154665838Y-103750000D01*
X154634162Y-103750000D01*
X154588197Y-103764935D01*
X154550000Y-103817508D01*
X154550000Y-103882492D01*
X154476086Y-103882492D01*
X154508578Y-103850000D01*
X154266051Y-103607473D01*
X154213787Y-103721920D01*
X154195373Y-103849997D01*
X154195373Y-103850002D01*
X153979627Y-103850002D01*
X153979627Y-103849997D01*
X153961212Y-103721922D01*
X153961211Y-103721919D01*
X153908946Y-103607473D01*
X153666421Y-103849999D01*
X153625000Y-103849999D01*
X153625000Y-103817508D01*
X153586803Y-103764935D01*
X153540838Y-103750000D01*
X153509162Y-103750000D01*
X153463197Y-103764935D01*
X153425000Y-103817508D01*
X153425000Y-103882492D01*
X153351086Y-103882492D01*
X153383578Y-103850000D01*
X153141051Y-103607473D01*
X153088787Y-103721920D01*
X153070373Y-103849997D01*
X153070373Y-103850002D01*
X152854627Y-103850002D01*
X152854627Y-103849997D01*
X152836212Y-103721922D01*
X152836211Y-103721919D01*
X152783946Y-103607473D01*
X152541421Y-103849999D01*
X152500000Y-103849999D01*
X152500000Y-103817508D01*
X152461803Y-103764935D01*
X152415838Y-103750000D01*
X152384162Y-103750000D01*
X152338197Y-103764935D01*
X152300000Y-103817508D01*
X152300000Y-103882492D01*
X152226086Y-103882492D01*
X152258578Y-103850000D01*
X152016051Y-103607473D01*
X151963787Y-103721920D01*
X151945373Y-103849997D01*
X151945373Y-103850002D01*
X151729627Y-103850002D01*
X151729627Y-103849997D01*
X151711212Y-103721922D01*
X151711211Y-103721919D01*
X151658946Y-103607473D01*
X151416421Y-103849999D01*
X151375000Y-103849999D01*
X151375000Y-103817508D01*
X151336803Y-103764935D01*
X151290838Y-103750000D01*
X151259162Y-103750000D01*
X151213197Y-103764935D01*
X151175000Y-103817508D01*
X151175000Y-103882492D01*
X151101086Y-103882492D01*
X151133578Y-103850000D01*
X150891051Y-103607473D01*
X150838787Y-103721920D01*
X150820373Y-103849997D01*
X150820373Y-103850002D01*
X150604627Y-103850002D01*
X150604627Y-103849997D01*
X150586212Y-103721922D01*
X150586211Y-103721919D01*
X150533946Y-103607473D01*
X150291421Y-103849999D01*
X150250000Y-103849999D01*
X150250000Y-103817508D01*
X150211803Y-103764935D01*
X150165838Y-103750000D01*
X150134162Y-103750000D01*
X150088197Y-103764935D01*
X150050000Y-103817508D01*
X150050000Y-103882492D01*
X149976086Y-103882492D01*
X150008578Y-103850000D01*
X149766051Y-103607473D01*
X149713787Y-103721920D01*
X149695373Y-103849997D01*
X149695373Y-103850002D01*
X138054373Y-103850002D01*
X138024818Y-103772070D01*
X137928183Y-103632071D01*
X137900417Y-103607473D01*
X137800853Y-103519267D01*
X137800852Y-103519266D01*
X137705138Y-103469031D01*
X149910453Y-103469031D01*
X150150000Y-103708578D01*
X150389546Y-103469032D01*
X150389544Y-103469031D01*
X151035453Y-103469031D01*
X151275000Y-103708578D01*
X151514546Y-103469032D01*
X151514544Y-103469031D01*
X152160453Y-103469031D01*
X152400000Y-103708578D01*
X152639546Y-103469032D01*
X152639544Y-103469031D01*
X153285453Y-103469031D01*
X153525000Y-103708578D01*
X153764546Y-103469032D01*
X153764544Y-103469031D01*
X154410453Y-103469031D01*
X154650000Y-103708578D01*
X154758578Y-103600000D01*
X158994508Y-103600000D01*
X159013818Y-103721922D01*
X159014354Y-103725303D01*
X159014355Y-103725307D01*
X159052668Y-103800499D01*
X159071950Y-103838342D01*
X159161658Y-103928050D01*
X159274696Y-103985646D01*
X159366547Y-104000193D01*
X159379334Y-104002219D01*
X159395427Y-104010418D01*
X159420665Y-104002219D01*
X159525304Y-103985646D01*
X159638342Y-103928050D01*
X159716392Y-103850000D01*
X162444355Y-103850000D01*
X162464860Y-104018872D01*
X162525182Y-104177930D01*
X162621817Y-104317929D01*
X162749148Y-104430734D01*
X162899775Y-104509790D01*
X163064944Y-104550500D01*
X163064947Y-104550500D01*
X163235053Y-104550500D01*
X163235056Y-104550500D01*
X163400225Y-104509790D01*
X163550852Y-104430734D01*
X163678183Y-104317929D01*
X163774818Y-104177930D01*
X163835140Y-104018872D01*
X163855645Y-103850000D01*
X163854229Y-103838342D01*
X163851700Y-103817508D01*
X163835140Y-103681128D01*
X163774818Y-103522070D01*
X163678183Y-103382071D01*
X163655141Y-103361658D01*
X163550853Y-103269267D01*
X163550852Y-103269266D01*
X163400225Y-103190210D01*
X163400222Y-103190209D01*
X163395365Y-103187660D01*
X163352627Y-103143876D01*
X163343786Y-103083332D01*
X163372221Y-103029156D01*
X163395365Y-103012340D01*
X163400222Y-103009790D01*
X163400225Y-103009790D01*
X163550852Y-102930734D01*
X163678183Y-102817929D01*
X163774818Y-102677930D01*
X163835140Y-102518872D01*
X163855645Y-102350000D01*
X163854920Y-102344032D01*
X163846538Y-102275000D01*
X163835140Y-102181128D01*
X163774818Y-102022070D01*
X163678183Y-101882071D01*
X163633543Y-101842524D01*
X163550853Y-101769267D01*
X163550852Y-101769266D01*
X163400225Y-101690210D01*
X163400222Y-101690209D01*
X163395365Y-101687660D01*
X163352627Y-101643876D01*
X163343786Y-101583332D01*
X163372221Y-101529156D01*
X163395365Y-101512340D01*
X163400222Y-101509790D01*
X163400225Y-101509790D01*
X163550852Y-101430734D01*
X163678183Y-101317929D01*
X163774818Y-101177930D01*
X163835140Y-101018872D01*
X163854920Y-100855968D01*
X163855645Y-100850001D01*
X163855645Y-100849998D01*
X163851994Y-100819938D01*
X163835140Y-100681128D01*
X163774818Y-100522070D01*
X163678183Y-100382071D01*
X163670201Y-100375000D01*
X163550853Y-100269267D01*
X163550852Y-100269266D01*
X163400225Y-100190210D01*
X163400222Y-100190209D01*
X163395365Y-100187660D01*
X163352627Y-100143876D01*
X163343786Y-100083332D01*
X163372221Y-100029156D01*
X163395365Y-100012340D01*
X163400222Y-100009790D01*
X163400225Y-100009790D01*
X163550852Y-99930734D01*
X163678183Y-99817929D01*
X163774818Y-99677930D01*
X163835140Y-99518872D01*
X163855645Y-99350000D01*
X163835140Y-99181128D01*
X163774818Y-99022070D01*
X163678183Y-98882071D01*
X163550852Y-98769266D01*
X163400225Y-98690210D01*
X163400224Y-98690209D01*
X163400223Y-98690209D01*
X163235058Y-98649500D01*
X163235056Y-98649500D01*
X163064944Y-98649500D01*
X163064941Y-98649500D01*
X162899776Y-98690209D01*
X162749146Y-98769267D01*
X162621818Y-98882069D01*
X162621817Y-98882071D01*
X162525182Y-99022070D01*
X162464860Y-99181128D01*
X162444355Y-99350000D01*
X162464860Y-99518872D01*
X162525182Y-99677930D01*
X162621817Y-99817929D01*
X162749148Y-99930734D01*
X162899775Y-100009790D01*
X162904634Y-100012340D01*
X162947372Y-100056124D01*
X162956213Y-100116668D01*
X162927778Y-100170845D01*
X162904634Y-100187660D01*
X162899775Y-100190209D01*
X162899775Y-100190210D01*
X162777029Y-100254632D01*
X162749146Y-100269267D01*
X162621818Y-100382069D01*
X162621817Y-100382071D01*
X162525182Y-100522070D01*
X162494460Y-100603080D01*
X162464860Y-100681129D01*
X162444355Y-100849998D01*
X162444355Y-100850001D01*
X162449035Y-100888542D01*
X162464860Y-101018872D01*
X162525182Y-101177930D01*
X162621817Y-101317929D01*
X162749148Y-101430734D01*
X162899775Y-101509790D01*
X162904634Y-101512340D01*
X162947372Y-101556124D01*
X162956213Y-101616668D01*
X162927778Y-101670845D01*
X162904634Y-101687660D01*
X162749146Y-101769267D01*
X162621818Y-101882069D01*
X162621816Y-101882072D01*
X162525182Y-102022070D01*
X162464860Y-102181129D01*
X162445080Y-102344032D01*
X162444355Y-102350000D01*
X162464860Y-102518872D01*
X162525182Y-102677930D01*
X162590163Y-102772070D01*
X162621816Y-102817927D01*
X162621818Y-102817930D01*
X162661491Y-102853077D01*
X162749148Y-102930734D01*
X162899775Y-103009790D01*
X162904634Y-103012340D01*
X162947372Y-103056124D01*
X162956213Y-103116668D01*
X162927778Y-103170845D01*
X162904634Y-103187660D01*
X162749146Y-103269267D01*
X162621818Y-103382069D01*
X162621816Y-103382072D01*
X162584277Y-103436456D01*
X162525182Y-103522070D01*
X162465010Y-103680734D01*
X162464860Y-103681129D01*
X162445771Y-103838342D01*
X162444355Y-103850000D01*
X159716392Y-103850000D01*
X159728050Y-103838342D01*
X159785646Y-103725304D01*
X159805492Y-103600000D01*
X159785646Y-103474696D01*
X159728050Y-103361658D01*
X159638342Y-103271950D01*
X159632297Y-103268870D01*
X159525307Y-103214355D01*
X159525304Y-103214354D01*
X159400000Y-103194508D01*
X159274696Y-103214354D01*
X159274692Y-103214355D01*
X159161659Y-103271949D01*
X159071949Y-103361659D01*
X159014355Y-103474692D01*
X159014354Y-103474696D01*
X158994508Y-103600000D01*
X154758578Y-103600000D01*
X154889545Y-103469032D01*
X154838858Y-103436456D01*
X154714701Y-103400000D01*
X154585298Y-103400000D01*
X154461139Y-103436457D01*
X154410453Y-103469031D01*
X153764544Y-103469031D01*
X153713858Y-103436456D01*
X153589701Y-103400000D01*
X153460298Y-103400000D01*
X153336139Y-103436457D01*
X153285453Y-103469031D01*
X152639544Y-103469031D01*
X152588858Y-103436456D01*
X152464701Y-103400000D01*
X152335298Y-103400000D01*
X152211139Y-103436457D01*
X152160453Y-103469031D01*
X151514544Y-103469031D01*
X151463858Y-103436456D01*
X151339701Y-103400000D01*
X151210298Y-103400000D01*
X151086139Y-103436457D01*
X151035453Y-103469031D01*
X150389544Y-103469031D01*
X150338858Y-103436456D01*
X150214701Y-103400000D01*
X150085298Y-103400000D01*
X149961139Y-103436457D01*
X149910453Y-103469031D01*
X137705138Y-103469031D01*
X137650225Y-103440210D01*
X137650224Y-103440209D01*
X137650223Y-103440209D01*
X137485058Y-103399500D01*
X137485056Y-103399500D01*
X137314944Y-103399500D01*
X137314941Y-103399500D01*
X137149776Y-103440209D01*
X136999146Y-103519267D01*
X136871818Y-103632069D01*
X136871816Y-103632072D01*
X136838227Y-103680734D01*
X136775182Y-103772070D01*
X136714860Y-103931128D01*
X136709159Y-103978077D01*
X136695263Y-104092526D01*
X136694355Y-104100000D01*
X132700500Y-104100000D01*
X132700500Y-103100001D01*
X134694355Y-103100001D01*
X134699035Y-103138542D01*
X134714860Y-103268872D01*
X134775182Y-103427930D01*
X134871817Y-103567929D01*
X134999148Y-103680734D01*
X135149775Y-103759790D01*
X135314944Y-103800500D01*
X135314947Y-103800500D01*
X135485053Y-103800500D01*
X135485056Y-103800500D01*
X135650225Y-103759790D01*
X135800852Y-103680734D01*
X135928183Y-103567929D01*
X136024818Y-103427930D01*
X136085140Y-103268872D01*
X136104920Y-103105968D01*
X136104920Y-103105966D01*
X149910452Y-103105966D01*
X149910453Y-103105968D01*
X149961134Y-103138539D01*
X149961140Y-103138542D01*
X150085298Y-103174999D01*
X150085301Y-103175000D01*
X150214699Y-103175000D01*
X150214701Y-103174999D01*
X150338857Y-103138543D01*
X150389545Y-103105967D01*
X150389544Y-103105966D01*
X151035452Y-103105966D01*
X151035453Y-103105968D01*
X151086134Y-103138539D01*
X151086140Y-103138542D01*
X151210298Y-103174999D01*
X151210301Y-103175000D01*
X151339699Y-103175000D01*
X151339701Y-103174999D01*
X151463857Y-103138543D01*
X151514545Y-103105967D01*
X151514544Y-103105966D01*
X152160452Y-103105966D01*
X152160453Y-103105968D01*
X152211134Y-103138539D01*
X152211140Y-103138542D01*
X152335298Y-103174999D01*
X152335301Y-103175000D01*
X152464699Y-103175000D01*
X152464701Y-103174999D01*
X152588857Y-103138543D01*
X152639545Y-103105967D01*
X152639544Y-103105966D01*
X153285452Y-103105966D01*
X153285453Y-103105968D01*
X153336134Y-103138539D01*
X153336140Y-103138542D01*
X153460298Y-103174999D01*
X153460301Y-103175000D01*
X153589699Y-103175000D01*
X153589701Y-103174999D01*
X153713857Y-103138543D01*
X153764545Y-103105967D01*
X153764544Y-103105966D01*
X154410452Y-103105966D01*
X154410453Y-103105968D01*
X154461134Y-103138539D01*
X154461140Y-103138542D01*
X154585298Y-103174999D01*
X154585301Y-103175000D01*
X154714699Y-103175000D01*
X154714701Y-103174999D01*
X154838857Y-103138543D01*
X154889545Y-103105967D01*
X154649999Y-102866421D01*
X154410452Y-103105966D01*
X153764544Y-103105966D01*
X153524999Y-102866421D01*
X153285452Y-103105966D01*
X152639544Y-103105966D01*
X152399999Y-102866421D01*
X152160452Y-103105966D01*
X151514544Y-103105966D01*
X151274999Y-102866421D01*
X151035452Y-103105966D01*
X150389544Y-103105966D01*
X150149999Y-102866421D01*
X149910452Y-103105966D01*
X136104920Y-103105966D01*
X136105645Y-103100001D01*
X136105645Y-103099998D01*
X136100317Y-103056124D01*
X136085140Y-102931128D01*
X136024818Y-102772070D01*
X135992329Y-102725002D01*
X149695373Y-102725002D01*
X149713787Y-102853077D01*
X149713789Y-102853083D01*
X149766051Y-102967526D01*
X149766052Y-102967526D01*
X149976086Y-102757492D01*
X150050000Y-102757492D01*
X150088197Y-102810065D01*
X150134162Y-102825000D01*
X150165838Y-102825000D01*
X150211803Y-102810065D01*
X150250000Y-102757492D01*
X150250000Y-102724999D01*
X150291421Y-102724999D01*
X150533946Y-102967524D01*
X150586211Y-102853080D01*
X150586212Y-102853077D01*
X150604627Y-102725002D01*
X150820373Y-102725002D01*
X150838787Y-102853077D01*
X150838789Y-102853083D01*
X150891051Y-102967526D01*
X151101086Y-102757492D01*
X151175000Y-102757492D01*
X151213197Y-102810065D01*
X151259162Y-102825000D01*
X151290838Y-102825000D01*
X151336803Y-102810065D01*
X151375000Y-102757492D01*
X151375000Y-102724999D01*
X151416421Y-102724999D01*
X151658946Y-102967524D01*
X151711211Y-102853080D01*
X151711212Y-102853077D01*
X151729627Y-102725002D01*
X151945373Y-102725002D01*
X151963787Y-102853077D01*
X151963789Y-102853083D01*
X152016051Y-102967526D01*
X152016052Y-102967526D01*
X152226086Y-102757492D01*
X152300000Y-102757492D01*
X152338197Y-102810065D01*
X152384162Y-102825000D01*
X152415838Y-102825000D01*
X152461803Y-102810065D01*
X152500000Y-102757492D01*
X152500000Y-102724999D01*
X152541421Y-102724999D01*
X152783946Y-102967524D01*
X152836211Y-102853080D01*
X152836212Y-102853077D01*
X152854627Y-102725002D01*
X153070373Y-102725002D01*
X153088787Y-102853077D01*
X153088789Y-102853083D01*
X153141051Y-102967526D01*
X153141052Y-102967526D01*
X153351086Y-102757492D01*
X153425000Y-102757492D01*
X153463197Y-102810065D01*
X153509162Y-102825000D01*
X153540838Y-102825000D01*
X153586803Y-102810065D01*
X153625000Y-102757492D01*
X153625000Y-102724999D01*
X153666421Y-102724999D01*
X153908946Y-102967524D01*
X153961211Y-102853080D01*
X153961212Y-102853077D01*
X153979627Y-102725002D01*
X154195373Y-102725002D01*
X154213787Y-102853077D01*
X154213789Y-102853083D01*
X154266051Y-102967526D01*
X154266052Y-102967526D01*
X154476086Y-102757492D01*
X154550000Y-102757492D01*
X154588197Y-102810065D01*
X154634162Y-102825000D01*
X154665838Y-102825000D01*
X154711803Y-102810065D01*
X154750000Y-102757492D01*
X154750000Y-102724999D01*
X154791421Y-102724999D01*
X155033946Y-102967524D01*
X155086211Y-102853080D01*
X155086212Y-102853077D01*
X155104627Y-102725002D01*
X155104627Y-102724997D01*
X155086212Y-102596922D01*
X155086211Y-102596919D01*
X155033946Y-102482473D01*
X154791421Y-102724999D01*
X154750000Y-102724999D01*
X154750000Y-102692508D01*
X154711803Y-102639935D01*
X154665838Y-102625000D01*
X154634162Y-102625000D01*
X154588197Y-102639935D01*
X154550000Y-102692508D01*
X154550000Y-102757492D01*
X154476086Y-102757492D01*
X154508578Y-102725000D01*
X154266051Y-102482473D01*
X154213787Y-102596920D01*
X154195373Y-102724997D01*
X154195373Y-102725002D01*
X153979627Y-102725002D01*
X153979627Y-102724997D01*
X153961212Y-102596922D01*
X153961211Y-102596919D01*
X153908946Y-102482473D01*
X153666421Y-102724999D01*
X153625000Y-102724999D01*
X153625000Y-102692508D01*
X153586803Y-102639935D01*
X153540838Y-102625000D01*
X153509162Y-102625000D01*
X153463197Y-102639935D01*
X153425000Y-102692508D01*
X153425000Y-102757492D01*
X153351086Y-102757492D01*
X153383578Y-102725000D01*
X153141051Y-102482473D01*
X153088787Y-102596920D01*
X153070373Y-102724997D01*
X153070373Y-102725002D01*
X152854627Y-102725002D01*
X152854627Y-102724997D01*
X152836212Y-102596922D01*
X152836211Y-102596919D01*
X152783946Y-102482473D01*
X152541421Y-102724999D01*
X152500000Y-102724999D01*
X152500000Y-102692508D01*
X152461803Y-102639935D01*
X152415838Y-102625000D01*
X152384162Y-102625000D01*
X152338197Y-102639935D01*
X152300000Y-102692508D01*
X152300000Y-102757492D01*
X152226086Y-102757492D01*
X152258578Y-102725000D01*
X152016051Y-102482473D01*
X151963787Y-102596920D01*
X151945373Y-102724997D01*
X151945373Y-102725002D01*
X151729627Y-102725002D01*
X151729627Y-102724997D01*
X151711212Y-102596922D01*
X151711211Y-102596919D01*
X151658946Y-102482473D01*
X151416421Y-102724999D01*
X151375000Y-102724999D01*
X151375000Y-102692508D01*
X151336803Y-102639935D01*
X151290838Y-102625000D01*
X151259162Y-102625000D01*
X151213197Y-102639935D01*
X151175000Y-102692508D01*
X151175000Y-102757492D01*
X151101086Y-102757492D01*
X151133578Y-102725000D01*
X150891051Y-102482473D01*
X150838787Y-102596920D01*
X150820373Y-102724997D01*
X150820373Y-102725002D01*
X150604627Y-102725002D01*
X150604627Y-102724997D01*
X150586212Y-102596922D01*
X150586211Y-102596919D01*
X150533946Y-102482473D01*
X150291421Y-102724999D01*
X150250000Y-102724999D01*
X150250000Y-102692508D01*
X150211803Y-102639935D01*
X150165838Y-102625000D01*
X150134162Y-102625000D01*
X150088197Y-102639935D01*
X150050000Y-102692508D01*
X150050000Y-102757492D01*
X149976086Y-102757492D01*
X150008578Y-102725000D01*
X149766051Y-102482473D01*
X149713787Y-102596920D01*
X149695373Y-102724997D01*
X149695373Y-102725002D01*
X135992329Y-102725002D01*
X135928183Y-102632071D01*
X135920201Y-102625000D01*
X135800853Y-102519267D01*
X135800852Y-102519266D01*
X135650225Y-102440210D01*
X135650224Y-102440209D01*
X135650223Y-102440209D01*
X135485058Y-102399500D01*
X135485056Y-102399500D01*
X135314944Y-102399500D01*
X135314941Y-102399500D01*
X135149776Y-102440209D01*
X134999146Y-102519267D01*
X134871818Y-102632069D01*
X134871816Y-102632072D01*
X134830100Y-102692508D01*
X134775182Y-102772070D01*
X134715010Y-102930734D01*
X134714860Y-102931129D01*
X134694355Y-103099998D01*
X134694355Y-103100001D01*
X132700500Y-103100001D01*
X132700500Y-102344031D01*
X149910453Y-102344031D01*
X150150000Y-102583578D01*
X150389546Y-102344032D01*
X150389544Y-102344031D01*
X151035453Y-102344031D01*
X151275000Y-102583578D01*
X151514546Y-102344032D01*
X151514544Y-102344031D01*
X152160453Y-102344031D01*
X152400000Y-102583578D01*
X152639545Y-102344032D01*
X152639543Y-102344031D01*
X153285453Y-102344031D01*
X153525000Y-102583578D01*
X153764546Y-102344032D01*
X153764544Y-102344031D01*
X154410453Y-102344031D01*
X154650000Y-102583578D01*
X154889546Y-102344032D01*
X154838858Y-102311456D01*
X154714701Y-102275000D01*
X154585298Y-102275000D01*
X154461139Y-102311457D01*
X154410453Y-102344031D01*
X153764544Y-102344031D01*
X153713858Y-102311456D01*
X153589701Y-102275000D01*
X153460298Y-102275000D01*
X153336139Y-102311457D01*
X153285453Y-102344031D01*
X152639543Y-102344031D01*
X152588858Y-102311456D01*
X152464701Y-102275000D01*
X152335298Y-102275000D01*
X152211139Y-102311457D01*
X152160453Y-102344031D01*
X151514544Y-102344031D01*
X151463858Y-102311456D01*
X151339701Y-102275000D01*
X151210298Y-102275000D01*
X151086139Y-102311457D01*
X151035453Y-102344031D01*
X150389544Y-102344031D01*
X150338858Y-102311456D01*
X150214701Y-102275000D01*
X150085298Y-102275000D01*
X149961139Y-102311457D01*
X149910453Y-102344031D01*
X132700500Y-102344031D01*
X132700500Y-101980966D01*
X149910452Y-101980966D01*
X149910453Y-101980968D01*
X149961134Y-102013539D01*
X149961140Y-102013542D01*
X150085298Y-102049999D01*
X150085301Y-102050000D01*
X150214699Y-102050000D01*
X150214701Y-102049999D01*
X150338857Y-102013543D01*
X150389545Y-101980967D01*
X150389544Y-101980966D01*
X151035452Y-101980966D01*
X151035453Y-101980968D01*
X151086134Y-102013539D01*
X151086140Y-102013542D01*
X151210298Y-102049999D01*
X151210301Y-102050000D01*
X151339699Y-102050000D01*
X151339701Y-102049999D01*
X151463857Y-102013543D01*
X151514545Y-101980967D01*
X151514544Y-101980966D01*
X152160452Y-101980966D01*
X152160453Y-101980968D01*
X152211134Y-102013539D01*
X152211140Y-102013542D01*
X152335298Y-102049999D01*
X152335301Y-102050000D01*
X152464699Y-102050000D01*
X152464701Y-102049999D01*
X152588857Y-102013543D01*
X152639545Y-101980967D01*
X152639544Y-101980966D01*
X153285452Y-101980966D01*
X153285453Y-101980968D01*
X153336134Y-102013539D01*
X153336140Y-102013542D01*
X153460298Y-102049999D01*
X153460301Y-102050000D01*
X153589699Y-102050000D01*
X153589701Y-102049999D01*
X153713857Y-102013543D01*
X153764545Y-101980967D01*
X153764544Y-101980966D01*
X154410452Y-101980966D01*
X154410453Y-101980968D01*
X154461134Y-102013539D01*
X154461140Y-102013542D01*
X154585298Y-102049999D01*
X154585301Y-102050000D01*
X154714699Y-102050000D01*
X154714701Y-102049999D01*
X154838857Y-102013543D01*
X154889545Y-101980967D01*
X154649999Y-101741421D01*
X154410452Y-101980966D01*
X153764544Y-101980966D01*
X153524999Y-101741421D01*
X153285452Y-101980966D01*
X152639544Y-101980966D01*
X152399999Y-101741421D01*
X152160452Y-101980966D01*
X151514544Y-101980966D01*
X151274999Y-101741421D01*
X151035452Y-101980966D01*
X150389544Y-101980966D01*
X150149999Y-101741421D01*
X149910452Y-101980966D01*
X132700500Y-101980966D01*
X132700500Y-101600002D01*
X149695373Y-101600002D01*
X149713787Y-101728077D01*
X149713789Y-101728083D01*
X149766051Y-101842526D01*
X149976086Y-101632492D01*
X150050000Y-101632492D01*
X150088197Y-101685065D01*
X150134162Y-101700000D01*
X150165838Y-101700000D01*
X150211803Y-101685065D01*
X150250000Y-101632492D01*
X150250000Y-101599999D01*
X150291421Y-101599999D01*
X150533946Y-101842524D01*
X150586211Y-101728080D01*
X150586212Y-101728077D01*
X150604627Y-101600002D01*
X150820373Y-101600002D01*
X150838787Y-101728077D01*
X150838789Y-101728083D01*
X150891051Y-101842526D01*
X151101086Y-101632492D01*
X151175000Y-101632492D01*
X151213197Y-101685065D01*
X151259162Y-101700000D01*
X151290838Y-101700000D01*
X151336803Y-101685065D01*
X151375000Y-101632492D01*
X151375000Y-101599999D01*
X151416421Y-101599999D01*
X151658946Y-101842524D01*
X151711211Y-101728080D01*
X151711212Y-101728077D01*
X151729627Y-101600002D01*
X151945373Y-101600002D01*
X151963787Y-101728077D01*
X151963789Y-101728083D01*
X152016051Y-101842526D01*
X152016052Y-101842526D01*
X152226086Y-101632492D01*
X152300000Y-101632492D01*
X152338197Y-101685065D01*
X152384162Y-101700000D01*
X152415838Y-101700000D01*
X152461803Y-101685065D01*
X152500000Y-101632492D01*
X152500000Y-101599999D01*
X152541421Y-101599999D01*
X152783946Y-101842524D01*
X152836211Y-101728080D01*
X152836212Y-101728077D01*
X152854627Y-101600002D01*
X153070373Y-101600002D01*
X153088787Y-101728077D01*
X153088789Y-101728083D01*
X153141051Y-101842526D01*
X153141052Y-101842526D01*
X153351086Y-101632492D01*
X153425000Y-101632492D01*
X153463197Y-101685065D01*
X153509162Y-101700000D01*
X153540838Y-101700000D01*
X153586803Y-101685065D01*
X153625000Y-101632492D01*
X153625000Y-101599999D01*
X153666421Y-101599999D01*
X153908946Y-101842524D01*
X153961211Y-101728080D01*
X153961212Y-101728077D01*
X153979627Y-101600002D01*
X154195373Y-101600002D01*
X154213787Y-101728077D01*
X154213789Y-101728083D01*
X154266051Y-101842526D01*
X154476086Y-101632492D01*
X154550000Y-101632492D01*
X154588197Y-101685065D01*
X154634162Y-101700000D01*
X154665838Y-101700000D01*
X154711803Y-101685065D01*
X154750000Y-101632492D01*
X154750000Y-101599999D01*
X154791421Y-101599999D01*
X155033946Y-101842524D01*
X155086211Y-101728080D01*
X155086212Y-101728077D01*
X155104627Y-101600002D01*
X155104627Y-101599997D01*
X155086212Y-101471922D01*
X155086211Y-101471919D01*
X155033946Y-101357473D01*
X154791421Y-101599999D01*
X154750000Y-101599999D01*
X154750000Y-101567508D01*
X154711803Y-101514935D01*
X154665838Y-101500000D01*
X154634162Y-101500000D01*
X154588197Y-101514935D01*
X154550000Y-101567508D01*
X154550000Y-101632492D01*
X154476086Y-101632492D01*
X154508578Y-101600000D01*
X154266051Y-101357473D01*
X154213787Y-101471920D01*
X154195373Y-101599997D01*
X154195373Y-101600002D01*
X153979627Y-101600002D01*
X153979627Y-101599997D01*
X153961212Y-101471922D01*
X153961211Y-101471919D01*
X153908946Y-101357473D01*
X153666421Y-101599999D01*
X153625000Y-101599999D01*
X153625000Y-101567508D01*
X153586803Y-101514935D01*
X153540838Y-101500000D01*
X153509162Y-101500000D01*
X153463197Y-101514935D01*
X153425000Y-101567508D01*
X153425000Y-101632492D01*
X153351086Y-101632492D01*
X153383578Y-101600000D01*
X153141051Y-101357473D01*
X153088787Y-101471920D01*
X153070373Y-101599997D01*
X153070373Y-101600002D01*
X152854627Y-101600002D01*
X152854627Y-101599997D01*
X152836212Y-101471922D01*
X152836211Y-101471919D01*
X152783946Y-101357473D01*
X152541421Y-101599999D01*
X152500000Y-101599999D01*
X152500000Y-101567508D01*
X152461803Y-101514935D01*
X152415838Y-101500000D01*
X152384162Y-101500000D01*
X152338197Y-101514935D01*
X152300000Y-101567508D01*
X152300000Y-101632492D01*
X152226086Y-101632492D01*
X152258578Y-101600000D01*
X152016051Y-101357473D01*
X151963787Y-101471920D01*
X151945373Y-101599997D01*
X151945373Y-101600002D01*
X151729627Y-101600002D01*
X151729627Y-101599997D01*
X151711212Y-101471922D01*
X151711211Y-101471919D01*
X151658946Y-101357473D01*
X151416421Y-101599999D01*
X151375000Y-101599999D01*
X151375000Y-101567508D01*
X151336803Y-101514935D01*
X151290838Y-101500000D01*
X151259162Y-101500000D01*
X151213197Y-101514935D01*
X151175000Y-101567508D01*
X151175000Y-101632492D01*
X151101086Y-101632492D01*
X151133578Y-101600000D01*
X150891051Y-101357473D01*
X150838787Y-101471920D01*
X150820373Y-101599997D01*
X150820373Y-101600002D01*
X150604627Y-101600002D01*
X150604627Y-101599997D01*
X150586212Y-101471922D01*
X150586211Y-101471919D01*
X150533946Y-101357473D01*
X150291421Y-101599999D01*
X150250000Y-101599999D01*
X150250000Y-101567508D01*
X150211803Y-101514935D01*
X150165838Y-101500000D01*
X150134162Y-101500000D01*
X150088197Y-101514935D01*
X150050000Y-101567508D01*
X150050000Y-101632492D01*
X149976086Y-101632492D01*
X150008578Y-101600000D01*
X149766051Y-101357473D01*
X149713787Y-101471920D01*
X149695373Y-101599997D01*
X149695373Y-101600002D01*
X132700500Y-101600002D01*
X132700500Y-101219031D01*
X149910453Y-101219031D01*
X150150000Y-101458578D01*
X150389546Y-101219032D01*
X150389544Y-101219031D01*
X151035453Y-101219031D01*
X151275000Y-101458578D01*
X151514546Y-101219032D01*
X151514544Y-101219031D01*
X152160453Y-101219031D01*
X152400000Y-101458578D01*
X152639546Y-101219032D01*
X152639544Y-101219031D01*
X153285453Y-101219031D01*
X153525000Y-101458578D01*
X153764546Y-101219032D01*
X153764544Y-101219031D01*
X154410453Y-101219031D01*
X154650000Y-101458578D01*
X154889545Y-101219032D01*
X154838858Y-101186456D01*
X154714701Y-101150000D01*
X154585298Y-101150000D01*
X154461139Y-101186457D01*
X154410453Y-101219031D01*
X153764544Y-101219031D01*
X153713858Y-101186456D01*
X153589701Y-101150000D01*
X153460298Y-101150000D01*
X153336139Y-101186457D01*
X153285453Y-101219031D01*
X152639544Y-101219031D01*
X152588858Y-101186456D01*
X152464701Y-101150000D01*
X152335298Y-101150000D01*
X152211139Y-101186457D01*
X152160453Y-101219031D01*
X151514544Y-101219031D01*
X151463858Y-101186456D01*
X151339701Y-101150000D01*
X151210298Y-101150000D01*
X151086139Y-101186457D01*
X151035453Y-101219031D01*
X150389544Y-101219031D01*
X150338858Y-101186456D01*
X150214701Y-101150000D01*
X150085298Y-101150000D01*
X149961139Y-101186457D01*
X149910453Y-101219031D01*
X132700500Y-101219031D01*
X132700500Y-100855966D01*
X149910452Y-100855966D01*
X149910453Y-100855968D01*
X149961134Y-100888539D01*
X149961140Y-100888542D01*
X150085298Y-100924999D01*
X150085301Y-100925000D01*
X150214699Y-100925000D01*
X150214701Y-100924999D01*
X150338857Y-100888543D01*
X150389545Y-100855967D01*
X150389544Y-100855966D01*
X151035452Y-100855966D01*
X151035453Y-100855968D01*
X151086134Y-100888539D01*
X151086140Y-100888542D01*
X151210298Y-100924999D01*
X151210301Y-100925000D01*
X151339699Y-100925000D01*
X151339701Y-100924999D01*
X151463857Y-100888543D01*
X151514545Y-100855967D01*
X151514544Y-100855966D01*
X152160452Y-100855966D01*
X152160453Y-100855968D01*
X152211134Y-100888539D01*
X152211140Y-100888542D01*
X152335298Y-100924999D01*
X152335301Y-100925000D01*
X152464699Y-100925000D01*
X152464701Y-100924999D01*
X152588857Y-100888543D01*
X152639545Y-100855967D01*
X152639544Y-100855966D01*
X153285452Y-100855966D01*
X153285453Y-100855968D01*
X153336134Y-100888539D01*
X153336140Y-100888542D01*
X153460298Y-100924999D01*
X153460301Y-100925000D01*
X153589699Y-100925000D01*
X153589701Y-100924999D01*
X153713857Y-100888543D01*
X153764545Y-100855967D01*
X153764544Y-100855966D01*
X154410452Y-100855966D01*
X154410453Y-100855968D01*
X154461134Y-100888539D01*
X154461140Y-100888542D01*
X154585298Y-100924999D01*
X154585301Y-100925000D01*
X154714699Y-100925000D01*
X154714701Y-100924999D01*
X154838857Y-100888543D01*
X154889545Y-100855967D01*
X154649999Y-100616421D01*
X154410452Y-100855966D01*
X153764544Y-100855966D01*
X153524999Y-100616421D01*
X153285452Y-100855966D01*
X152639544Y-100855966D01*
X152399999Y-100616421D01*
X152160452Y-100855966D01*
X151514544Y-100855966D01*
X151274999Y-100616421D01*
X151035452Y-100855966D01*
X150389544Y-100855966D01*
X150149999Y-100616421D01*
X149910452Y-100855966D01*
X132700500Y-100855966D01*
X132700500Y-100475002D01*
X149695373Y-100475002D01*
X149713787Y-100603077D01*
X149713789Y-100603083D01*
X149766051Y-100717526D01*
X149766052Y-100717526D01*
X149976086Y-100507492D01*
X150050000Y-100507492D01*
X150088197Y-100560065D01*
X150134162Y-100575000D01*
X150165838Y-100575000D01*
X150211803Y-100560065D01*
X150250000Y-100507492D01*
X150250000Y-100474999D01*
X150291421Y-100474999D01*
X150533946Y-100717524D01*
X150586211Y-100603080D01*
X150586212Y-100603077D01*
X150604627Y-100475002D01*
X150820373Y-100475002D01*
X150838787Y-100603077D01*
X150838789Y-100603083D01*
X150891051Y-100717526D01*
X150891052Y-100717526D01*
X151101086Y-100507492D01*
X151175000Y-100507492D01*
X151213197Y-100560065D01*
X151259162Y-100575000D01*
X151290838Y-100575000D01*
X151336803Y-100560065D01*
X151375000Y-100507492D01*
X151375000Y-100474999D01*
X151416421Y-100474999D01*
X151658946Y-100717524D01*
X151711211Y-100603080D01*
X151711212Y-100603077D01*
X151729627Y-100475002D01*
X151945373Y-100475002D01*
X151963787Y-100603077D01*
X151963789Y-100603083D01*
X152016051Y-100717526D01*
X152226086Y-100507492D01*
X152300000Y-100507492D01*
X152338197Y-100560065D01*
X152384162Y-100575000D01*
X152415838Y-100575000D01*
X152461803Y-100560065D01*
X152500000Y-100507492D01*
X152500000Y-100474999D01*
X152541421Y-100474999D01*
X152783946Y-100717524D01*
X152836211Y-100603080D01*
X152836212Y-100603077D01*
X152854627Y-100475002D01*
X153070373Y-100475002D01*
X153088787Y-100603077D01*
X153088789Y-100603083D01*
X153141051Y-100717526D01*
X153141052Y-100717526D01*
X153351086Y-100507492D01*
X153425000Y-100507492D01*
X153463197Y-100560065D01*
X153509162Y-100575000D01*
X153540838Y-100575000D01*
X153586803Y-100560065D01*
X153625000Y-100507492D01*
X153625000Y-100474999D01*
X153666421Y-100474999D01*
X153908946Y-100717524D01*
X153961211Y-100603080D01*
X153961212Y-100603077D01*
X153979627Y-100475002D01*
X154195373Y-100475002D01*
X154213787Y-100603077D01*
X154213789Y-100603083D01*
X154266051Y-100717526D01*
X154476086Y-100507492D01*
X154550000Y-100507492D01*
X154588197Y-100560065D01*
X154634162Y-100575000D01*
X154665838Y-100575000D01*
X154711803Y-100560065D01*
X154750000Y-100507492D01*
X154750000Y-100474999D01*
X154791421Y-100474999D01*
X155033946Y-100717524D01*
X155086211Y-100603080D01*
X155086212Y-100603077D01*
X155104627Y-100475002D01*
X155104627Y-100474997D01*
X155086212Y-100346922D01*
X155086211Y-100346919D01*
X155033946Y-100232473D01*
X154791421Y-100474999D01*
X154750000Y-100474999D01*
X154750000Y-100442508D01*
X154711803Y-100389935D01*
X154665838Y-100375000D01*
X154634162Y-100375000D01*
X154588197Y-100389935D01*
X154550000Y-100442508D01*
X154550000Y-100507492D01*
X154476086Y-100507492D01*
X154508578Y-100475000D01*
X154266051Y-100232473D01*
X154213787Y-100346920D01*
X154195373Y-100474997D01*
X154195373Y-100475002D01*
X153979627Y-100475002D01*
X153979627Y-100474997D01*
X153961212Y-100346922D01*
X153961211Y-100346919D01*
X153908946Y-100232473D01*
X153666421Y-100474999D01*
X153625000Y-100474999D01*
X153625000Y-100442508D01*
X153586803Y-100389935D01*
X153540838Y-100375000D01*
X153509162Y-100375000D01*
X153463197Y-100389935D01*
X153425000Y-100442508D01*
X153425000Y-100507492D01*
X153351086Y-100507492D01*
X153383578Y-100475000D01*
X153141051Y-100232473D01*
X153088787Y-100346920D01*
X153070373Y-100474997D01*
X153070373Y-100475002D01*
X152854627Y-100475002D01*
X152854627Y-100474997D01*
X152836212Y-100346922D01*
X152836211Y-100346919D01*
X152783946Y-100232473D01*
X152541421Y-100474999D01*
X152500000Y-100474999D01*
X152500000Y-100442508D01*
X152461803Y-100389935D01*
X152415838Y-100375000D01*
X152384162Y-100375000D01*
X152338197Y-100389935D01*
X152300000Y-100442508D01*
X152300000Y-100507492D01*
X152226086Y-100507492D01*
X152258578Y-100475000D01*
X152016051Y-100232473D01*
X151963787Y-100346920D01*
X151945373Y-100474997D01*
X151945373Y-100475002D01*
X151729627Y-100475002D01*
X151729627Y-100474997D01*
X151711212Y-100346922D01*
X151711211Y-100346919D01*
X151658946Y-100232473D01*
X151416421Y-100474999D01*
X151375000Y-100474999D01*
X151375000Y-100442508D01*
X151336803Y-100389935D01*
X151290838Y-100375000D01*
X151259162Y-100375000D01*
X151213197Y-100389935D01*
X151175000Y-100442508D01*
X151175000Y-100507492D01*
X151101086Y-100507492D01*
X151133578Y-100475000D01*
X150891051Y-100232473D01*
X150838787Y-100346920D01*
X150820373Y-100474997D01*
X150820373Y-100475002D01*
X150604627Y-100475002D01*
X150604627Y-100474997D01*
X150586212Y-100346922D01*
X150586211Y-100346919D01*
X150533946Y-100232473D01*
X150291421Y-100474999D01*
X150250000Y-100474999D01*
X150250000Y-100442508D01*
X150211803Y-100389935D01*
X150165838Y-100375000D01*
X150134162Y-100375000D01*
X150088197Y-100389935D01*
X150050000Y-100442508D01*
X150050000Y-100507492D01*
X149976086Y-100507492D01*
X150008578Y-100475000D01*
X149766051Y-100232473D01*
X149713787Y-100346920D01*
X149695373Y-100474997D01*
X149695373Y-100475002D01*
X132700500Y-100475002D01*
X132700500Y-100094031D01*
X149910453Y-100094031D01*
X150150000Y-100333578D01*
X150389546Y-100094032D01*
X150389544Y-100094031D01*
X151035453Y-100094031D01*
X151275000Y-100333578D01*
X151514546Y-100094032D01*
X151514544Y-100094031D01*
X152160453Y-100094031D01*
X152400000Y-100333578D01*
X152639546Y-100094032D01*
X152639544Y-100094031D01*
X153285453Y-100094031D01*
X153525000Y-100333578D01*
X153764546Y-100094032D01*
X153764544Y-100094031D01*
X154410453Y-100094031D01*
X154650000Y-100333578D01*
X154889546Y-100094032D01*
X154838858Y-100061456D01*
X154714701Y-100025000D01*
X154585298Y-100025000D01*
X154461139Y-100061457D01*
X154410453Y-100094031D01*
X153764544Y-100094031D01*
X153713858Y-100061456D01*
X153589701Y-100025000D01*
X153460298Y-100025000D01*
X153336139Y-100061457D01*
X153285453Y-100094031D01*
X152639544Y-100094031D01*
X152588858Y-100061456D01*
X152464701Y-100025000D01*
X152335298Y-100025000D01*
X152211139Y-100061457D01*
X152160453Y-100094031D01*
X151514544Y-100094031D01*
X151463858Y-100061456D01*
X151339701Y-100025000D01*
X151210298Y-100025000D01*
X151086139Y-100061457D01*
X151035453Y-100094031D01*
X150389544Y-100094031D01*
X150338858Y-100061456D01*
X150214701Y-100025000D01*
X150085298Y-100025000D01*
X149961139Y-100061457D01*
X149910453Y-100094031D01*
X132700500Y-100094031D01*
X132700500Y-99730966D01*
X149910452Y-99730966D01*
X149910453Y-99730968D01*
X149961134Y-99763539D01*
X149961140Y-99763542D01*
X150085298Y-99799999D01*
X150085301Y-99800000D01*
X150214699Y-99800000D01*
X150214701Y-99799999D01*
X150338857Y-99763543D01*
X150389545Y-99730967D01*
X150389544Y-99730966D01*
X151035452Y-99730966D01*
X151035453Y-99730968D01*
X151086134Y-99763539D01*
X151086140Y-99763542D01*
X151210298Y-99799999D01*
X151210301Y-99800000D01*
X151339699Y-99800000D01*
X151339701Y-99799999D01*
X151463857Y-99763543D01*
X151514545Y-99730967D01*
X151514544Y-99730966D01*
X152160452Y-99730966D01*
X152160453Y-99730968D01*
X152211134Y-99763539D01*
X152211140Y-99763542D01*
X152335298Y-99799999D01*
X152335301Y-99800000D01*
X152464699Y-99800000D01*
X152464701Y-99799999D01*
X152588857Y-99763543D01*
X152639545Y-99730967D01*
X152639544Y-99730966D01*
X153285452Y-99730966D01*
X153285453Y-99730968D01*
X153336134Y-99763539D01*
X153336140Y-99763542D01*
X153460298Y-99799999D01*
X153460301Y-99800000D01*
X153589699Y-99800000D01*
X153589701Y-99799999D01*
X153713857Y-99763543D01*
X153764545Y-99730967D01*
X153764544Y-99730966D01*
X154410452Y-99730966D01*
X154410453Y-99730968D01*
X154461134Y-99763539D01*
X154461140Y-99763542D01*
X154585298Y-99799999D01*
X154585301Y-99800000D01*
X154714699Y-99800000D01*
X154714701Y-99799999D01*
X154838857Y-99763543D01*
X154889545Y-99730967D01*
X154649999Y-99491421D01*
X154410452Y-99730966D01*
X153764544Y-99730966D01*
X153524999Y-99491421D01*
X153285452Y-99730966D01*
X152639544Y-99730966D01*
X152399999Y-99491421D01*
X152160452Y-99730966D01*
X151514544Y-99730966D01*
X151274999Y-99491421D01*
X151035452Y-99730966D01*
X150389544Y-99730966D01*
X150149999Y-99491421D01*
X149910452Y-99730966D01*
X132700500Y-99730966D01*
X132700500Y-99350002D01*
X149695373Y-99350002D01*
X149713787Y-99478077D01*
X149713789Y-99478083D01*
X149766051Y-99592526D01*
X149766052Y-99592526D01*
X149976086Y-99382492D01*
X150050000Y-99382492D01*
X150088197Y-99435065D01*
X150134162Y-99450000D01*
X150165838Y-99450000D01*
X150211803Y-99435065D01*
X150250000Y-99382492D01*
X150250000Y-99349999D01*
X150291421Y-99349999D01*
X150533946Y-99592524D01*
X150586211Y-99478080D01*
X150586212Y-99478077D01*
X150604627Y-99350002D01*
X150820373Y-99350002D01*
X150838787Y-99478077D01*
X150838789Y-99478083D01*
X150891051Y-99592526D01*
X150891052Y-99592526D01*
X151101086Y-99382492D01*
X151175000Y-99382492D01*
X151213197Y-99435065D01*
X151259162Y-99450000D01*
X151290838Y-99450000D01*
X151336803Y-99435065D01*
X151375000Y-99382492D01*
X151375000Y-99349999D01*
X151416421Y-99349999D01*
X151658946Y-99592524D01*
X151711211Y-99478080D01*
X151711212Y-99478077D01*
X151729627Y-99350002D01*
X151945373Y-99350002D01*
X151963787Y-99478077D01*
X151963789Y-99478083D01*
X152016051Y-99592526D01*
X152226086Y-99382492D01*
X152300000Y-99382492D01*
X152338197Y-99435065D01*
X152384162Y-99450000D01*
X152415838Y-99450000D01*
X152461803Y-99435065D01*
X152500000Y-99382492D01*
X152500000Y-99349999D01*
X152541421Y-99349999D01*
X152783946Y-99592524D01*
X152836211Y-99478080D01*
X152836212Y-99478077D01*
X152854627Y-99350002D01*
X153070373Y-99350002D01*
X153088787Y-99478077D01*
X153088789Y-99478083D01*
X153141051Y-99592526D01*
X153141052Y-99592526D01*
X153351086Y-99382492D01*
X153425000Y-99382492D01*
X153463197Y-99435065D01*
X153509162Y-99450000D01*
X153540838Y-99450000D01*
X153586803Y-99435065D01*
X153625000Y-99382492D01*
X153625000Y-99349999D01*
X153666421Y-99349999D01*
X153908946Y-99592524D01*
X153961211Y-99478080D01*
X153961212Y-99478077D01*
X153979627Y-99350002D01*
X154195373Y-99350002D01*
X154213787Y-99478077D01*
X154213789Y-99478083D01*
X154266051Y-99592526D01*
X154476086Y-99382492D01*
X154550000Y-99382492D01*
X154588197Y-99435065D01*
X154634162Y-99450000D01*
X154665838Y-99450000D01*
X154711803Y-99435065D01*
X154750000Y-99382492D01*
X154750000Y-99349999D01*
X154791421Y-99349999D01*
X155033946Y-99592524D01*
X155086211Y-99478080D01*
X155086212Y-99478077D01*
X155104627Y-99350002D01*
X155104627Y-99349997D01*
X155086212Y-99221922D01*
X155086211Y-99221919D01*
X155033946Y-99107473D01*
X154791421Y-99349999D01*
X154750000Y-99349999D01*
X154750000Y-99317508D01*
X154711803Y-99264935D01*
X154665838Y-99250000D01*
X154634162Y-99250000D01*
X154588197Y-99264935D01*
X154550000Y-99317508D01*
X154550000Y-99382492D01*
X154476086Y-99382492D01*
X154508578Y-99350000D01*
X154266051Y-99107473D01*
X154213787Y-99221920D01*
X154195373Y-99349997D01*
X154195373Y-99350002D01*
X153979627Y-99350002D01*
X153979627Y-99349997D01*
X153961212Y-99221922D01*
X153961211Y-99221919D01*
X153908946Y-99107473D01*
X153666421Y-99349999D01*
X153625000Y-99349999D01*
X153625000Y-99317508D01*
X153586803Y-99264935D01*
X153540838Y-99250000D01*
X153509162Y-99250000D01*
X153463197Y-99264935D01*
X153425000Y-99317508D01*
X153425000Y-99382492D01*
X153351086Y-99382492D01*
X153383578Y-99350000D01*
X153141051Y-99107473D01*
X153088787Y-99221920D01*
X153070373Y-99349997D01*
X153070373Y-99350002D01*
X152854627Y-99350002D01*
X152854627Y-99349997D01*
X152836212Y-99221922D01*
X152836211Y-99221919D01*
X152783946Y-99107473D01*
X152541421Y-99349999D01*
X152500000Y-99349999D01*
X152500000Y-99317508D01*
X152461803Y-99264935D01*
X152415838Y-99250000D01*
X152384162Y-99250000D01*
X152338197Y-99264935D01*
X152300000Y-99317508D01*
X152300000Y-99382492D01*
X152226086Y-99382492D01*
X152258578Y-99350000D01*
X152016051Y-99107473D01*
X151963787Y-99221920D01*
X151945373Y-99349997D01*
X151945373Y-99350002D01*
X151729627Y-99350002D01*
X151729627Y-99349997D01*
X151711212Y-99221922D01*
X151711211Y-99221919D01*
X151658946Y-99107473D01*
X151416421Y-99349999D01*
X151375000Y-99349999D01*
X151375000Y-99317508D01*
X151336803Y-99264935D01*
X151290838Y-99250000D01*
X151259162Y-99250000D01*
X151213197Y-99264935D01*
X151175000Y-99317508D01*
X151175000Y-99382492D01*
X151101086Y-99382492D01*
X151133578Y-99350000D01*
X150891051Y-99107473D01*
X150838787Y-99221920D01*
X150820373Y-99349997D01*
X150820373Y-99350002D01*
X150604627Y-99350002D01*
X150604627Y-99349997D01*
X150586212Y-99221922D01*
X150586211Y-99221919D01*
X150533946Y-99107473D01*
X150291421Y-99349999D01*
X150250000Y-99349999D01*
X150250000Y-99317508D01*
X150211803Y-99264935D01*
X150165838Y-99250000D01*
X150134162Y-99250000D01*
X150088197Y-99264935D01*
X150050000Y-99317508D01*
X150050000Y-99382492D01*
X149976086Y-99382492D01*
X150008578Y-99350000D01*
X149766051Y-99107473D01*
X149713787Y-99221920D01*
X149695373Y-99349997D01*
X149695373Y-99350002D01*
X132700500Y-99350002D01*
X132700500Y-98969031D01*
X149910453Y-98969031D01*
X150150000Y-99208578D01*
X150389546Y-98969032D01*
X150389544Y-98969031D01*
X151035453Y-98969031D01*
X151275000Y-99208578D01*
X151514546Y-98969032D01*
X151514544Y-98969031D01*
X152160453Y-98969031D01*
X152400000Y-99208578D01*
X152639546Y-98969032D01*
X152639544Y-98969031D01*
X153285453Y-98969031D01*
X153525000Y-99208578D01*
X153764546Y-98969032D01*
X153764544Y-98969031D01*
X154410453Y-98969031D01*
X154650000Y-99208578D01*
X154889546Y-98969032D01*
X154838858Y-98936456D01*
X154714701Y-98900000D01*
X154585298Y-98900000D01*
X154461139Y-98936457D01*
X154410453Y-98969031D01*
X153764544Y-98969031D01*
X153713858Y-98936456D01*
X153589701Y-98900000D01*
X153460298Y-98900000D01*
X153336139Y-98936457D01*
X153285453Y-98969031D01*
X152639544Y-98969031D01*
X152588858Y-98936456D01*
X152464701Y-98900000D01*
X152335298Y-98900000D01*
X152211139Y-98936457D01*
X152160453Y-98969031D01*
X151514544Y-98969031D01*
X151463858Y-98936456D01*
X151339701Y-98900000D01*
X151210298Y-98900000D01*
X151086139Y-98936457D01*
X151035453Y-98969031D01*
X150389544Y-98969031D01*
X150338858Y-98936456D01*
X150214701Y-98900000D01*
X150085298Y-98900000D01*
X149961139Y-98936457D01*
X149910453Y-98969031D01*
X132700500Y-98969031D01*
X132700500Y-98100000D01*
X136994508Y-98100000D01*
X137014354Y-98225303D01*
X137014355Y-98225307D01*
X137069944Y-98334406D01*
X137071950Y-98338342D01*
X137161658Y-98428050D01*
X137274696Y-98485646D01*
X137400000Y-98505492D01*
X137525304Y-98485646D01*
X137638342Y-98428050D01*
X137728050Y-98338342D01*
X137785646Y-98225304D01*
X137805492Y-98100000D01*
X137785646Y-97974696D01*
X137728050Y-97861658D01*
X137638342Y-97771950D01*
X137634406Y-97769944D01*
X137525307Y-97714355D01*
X137525304Y-97714354D01*
X137400000Y-97694508D01*
X137274696Y-97714354D01*
X137274692Y-97714355D01*
X137161659Y-97771949D01*
X137071949Y-97861659D01*
X137014355Y-97974692D01*
X137014354Y-97974696D01*
X136994508Y-98099999D01*
X136994508Y-98100000D01*
X132700500Y-98100000D01*
X132700500Y-97100000D01*
X134994508Y-97100000D01*
X135014354Y-97225303D01*
X135014355Y-97225307D01*
X135069944Y-97334406D01*
X135071950Y-97338342D01*
X135161658Y-97428050D01*
X135274696Y-97485646D01*
X135400000Y-97505492D01*
X135525304Y-97485646D01*
X135638342Y-97428050D01*
X135728050Y-97338342D01*
X135785646Y-97225304D01*
X135805492Y-97100000D01*
X135785646Y-96974696D01*
X135728050Y-96861658D01*
X135638342Y-96771950D01*
X135634406Y-96769944D01*
X135525307Y-96714355D01*
X135525304Y-96714354D01*
X135400000Y-96694508D01*
X135274696Y-96714354D01*
X135274692Y-96714355D01*
X135161659Y-96771949D01*
X135071949Y-96861659D01*
X135014355Y-96974692D01*
X135014354Y-96974696D01*
X134994508Y-97099999D01*
X134994508Y-97100000D01*
X132700500Y-97100000D01*
X132700500Y-95600000D01*
X149694355Y-95600000D01*
X149714860Y-95768872D01*
X149775182Y-95927930D01*
X149871817Y-96067929D01*
X149999148Y-96180734D01*
X150149775Y-96259790D01*
X150314944Y-96300500D01*
X150314947Y-96300500D01*
X150485053Y-96300500D01*
X150485056Y-96300500D01*
X150650225Y-96259790D01*
X150800852Y-96180734D01*
X150928183Y-96067929D01*
X151024818Y-95927930D01*
X151085140Y-95768872D01*
X151105645Y-95600000D01*
X152194355Y-95600000D01*
X152214860Y-95768872D01*
X152275182Y-95927930D01*
X152371817Y-96067929D01*
X152499148Y-96180734D01*
X152649775Y-96259790D01*
X152814944Y-96300500D01*
X152814947Y-96300500D01*
X152985053Y-96300500D01*
X152985056Y-96300500D01*
X153150225Y-96259790D01*
X153300852Y-96180734D01*
X153428183Y-96067929D01*
X153524818Y-95927930D01*
X153585140Y-95768872D01*
X153605645Y-95600000D01*
X153585140Y-95431128D01*
X153524818Y-95272070D01*
X153428183Y-95132071D01*
X153300852Y-95019266D01*
X153150225Y-94940210D01*
X153150224Y-94940209D01*
X153150223Y-94940209D01*
X152985058Y-94899500D01*
X152985056Y-94899500D01*
X152814944Y-94899500D01*
X152814941Y-94899500D01*
X152649776Y-94940209D01*
X152499146Y-95019267D01*
X152371818Y-95132069D01*
X152371817Y-95132071D01*
X152275182Y-95272070D01*
X152214860Y-95431128D01*
X152194355Y-95600000D01*
X151105645Y-95600000D01*
X151085140Y-95431128D01*
X151024818Y-95272070D01*
X150928183Y-95132071D01*
X150800852Y-95019266D01*
X150650225Y-94940210D01*
X150650224Y-94940209D01*
X150650223Y-94940209D01*
X150485058Y-94899500D01*
X150485056Y-94899500D01*
X150314944Y-94899500D01*
X150314941Y-94899500D01*
X150149776Y-94940209D01*
X149999146Y-95019267D01*
X149871818Y-95132069D01*
X149871817Y-95132071D01*
X149775182Y-95272070D01*
X149714860Y-95431128D01*
X149694355Y-95600000D01*
X132700500Y-95600000D01*
X132700500Y-92469746D01*
X140079500Y-92469746D01*
X140079501Y-92469758D01*
X140091132Y-92528227D01*
X140091134Y-92528233D01*
X140122228Y-92574767D01*
X140135448Y-92594552D01*
X140201769Y-92638867D01*
X140246231Y-92647711D01*
X140260241Y-92650498D01*
X140260246Y-92650498D01*
X140260252Y-92650500D01*
X140260253Y-92650500D01*
X141999747Y-92650500D01*
X141999748Y-92650500D01*
X142058231Y-92638867D01*
X142124552Y-92594552D01*
X142168867Y-92528231D01*
X142180500Y-92469748D01*
X142180500Y-91700000D01*
X142624767Y-91700000D01*
X142635190Y-91805831D01*
X142635191Y-91805836D01*
X142695232Y-92003762D01*
X142695234Y-92003767D01*
X142792724Y-92186160D01*
X142792731Y-92186170D01*
X142923940Y-92346050D01*
X142923949Y-92346059D01*
X143083829Y-92477268D01*
X143083839Y-92477275D01*
X143266232Y-92574765D01*
X143266237Y-92574767D01*
X143464166Y-92634808D01*
X143569998Y-92645231D01*
X143570000Y-92645230D01*
X143570000Y-92090764D01*
X143634237Y-92100000D01*
X143705763Y-92100000D01*
X143770000Y-92090764D01*
X143770000Y-92645230D01*
X143770001Y-92645231D01*
X143875833Y-92634808D01*
X144073762Y-92574767D01*
X144073767Y-92574765D01*
X144256160Y-92477275D01*
X144256170Y-92477268D01*
X144416050Y-92346059D01*
X144416059Y-92346050D01*
X144547268Y-92186170D01*
X144547275Y-92186160D01*
X144644765Y-92003767D01*
X144644767Y-92003762D01*
X144704808Y-91805836D01*
X144704809Y-91805831D01*
X144715232Y-91700000D01*
X144161746Y-91700000D01*
X144170000Y-91671889D01*
X144170000Y-91600000D01*
X159995255Y-91600000D01*
X160014217Y-91901399D01*
X160070802Y-92198027D01*
X160070805Y-92198037D01*
X160164127Y-92485252D01*
X160292706Y-92758495D01*
X160292713Y-92758508D01*
X160454519Y-93013473D01*
X160631350Y-93227225D01*
X161552440Y-92306134D01*
X161564894Y-92323624D01*
X161694355Y-92447065D01*
X160775039Y-93366382D01*
X160867155Y-93452886D01*
X161111483Y-93630400D01*
X161376107Y-93775877D01*
X161376110Y-93775879D01*
X161656892Y-93887047D01*
X161949402Y-93962150D01*
X161949398Y-93962150D01*
X162249005Y-94000000D01*
X162550995Y-94000000D01*
X162850599Y-93962150D01*
X163143107Y-93887047D01*
X163423889Y-93775879D01*
X163423892Y-93775877D01*
X163688516Y-93630400D01*
X163932844Y-93452886D01*
X164024959Y-93366382D01*
X163104191Y-92445614D01*
X163162540Y-92399729D01*
X163245458Y-92304035D01*
X164168648Y-93227225D01*
X164345480Y-93013473D01*
X164507286Y-92758508D01*
X164507293Y-92758495D01*
X164635872Y-92485252D01*
X164729194Y-92198037D01*
X164729197Y-92198027D01*
X164785782Y-91901399D01*
X164804744Y-91600000D01*
X164785782Y-91298600D01*
X164729197Y-91001972D01*
X164729194Y-91001962D01*
X164635872Y-90714747D01*
X164507293Y-90441504D01*
X164507286Y-90441491D01*
X164345480Y-90186526D01*
X164168648Y-89972773D01*
X163247558Y-90893862D01*
X163235106Y-90876376D01*
X163105642Y-90752932D01*
X164024959Y-89833616D01*
X163932844Y-89747113D01*
X163688516Y-89569599D01*
X163423892Y-89424122D01*
X163423889Y-89424120D01*
X163143107Y-89312952D01*
X162850597Y-89237849D01*
X162850601Y-89237849D01*
X162550995Y-89200000D01*
X162249005Y-89200000D01*
X161949400Y-89237849D01*
X161656892Y-89312952D01*
X161376110Y-89424120D01*
X161376107Y-89424122D01*
X161111483Y-89569599D01*
X160867155Y-89747114D01*
X160775039Y-89833616D01*
X161695808Y-90754385D01*
X161637460Y-90800271D01*
X161554541Y-90895964D01*
X160631350Y-89972773D01*
X160454519Y-90186526D01*
X160292707Y-90441503D01*
X160292706Y-90441504D01*
X160164127Y-90714747D01*
X160070805Y-91001962D01*
X160070802Y-91001972D01*
X160014217Y-91298600D01*
X159995255Y-91600000D01*
X144170000Y-91600000D01*
X144170000Y-91528111D01*
X144161746Y-91500000D01*
X144715232Y-91500000D01*
X144715232Y-91499999D01*
X144704809Y-91394168D01*
X144704808Y-91394163D01*
X144644767Y-91196237D01*
X144644765Y-91196232D01*
X144547275Y-91013839D01*
X144547268Y-91013829D01*
X144416059Y-90853949D01*
X144416050Y-90853940D01*
X144256170Y-90722731D01*
X144256160Y-90722724D01*
X144073767Y-90625234D01*
X144073762Y-90625232D01*
X143990588Y-90600001D01*
X152694355Y-90600001D01*
X152695017Y-90605451D01*
X152714860Y-90768872D01*
X152775182Y-90927930D01*
X152871817Y-91067929D01*
X152999148Y-91180734D01*
X153149775Y-91259790D01*
X153314944Y-91300500D01*
X153314947Y-91300500D01*
X153485053Y-91300500D01*
X153485056Y-91300500D01*
X153650225Y-91259790D01*
X153800852Y-91180734D01*
X153928183Y-91067929D01*
X154024818Y-90927930D01*
X154085140Y-90768872D01*
X154104983Y-90605451D01*
X154105645Y-90600001D01*
X154105645Y-90599998D01*
X154100926Y-90561133D01*
X154085140Y-90431128D01*
X154024818Y-90272070D01*
X153928183Y-90132071D01*
X153800852Y-90019266D01*
X153650225Y-89940210D01*
X153650224Y-89940209D01*
X153650223Y-89940209D01*
X153485058Y-89899500D01*
X153485056Y-89899500D01*
X153314944Y-89899500D01*
X153314941Y-89899500D01*
X153149776Y-89940209D01*
X152999146Y-90019267D01*
X152871818Y-90132069D01*
X152871816Y-90132072D01*
X152775182Y-90272070D01*
X152714860Y-90431129D01*
X152694355Y-90599998D01*
X152694355Y-90600001D01*
X143990588Y-90600001D01*
X143875836Y-90565191D01*
X143875831Y-90565190D01*
X143770000Y-90554767D01*
X143770000Y-91109235D01*
X143705763Y-91100000D01*
X143634237Y-91100000D01*
X143570000Y-91109235D01*
X143570000Y-90554767D01*
X143569999Y-90554767D01*
X143464168Y-90565190D01*
X143464163Y-90565191D01*
X143266237Y-90625232D01*
X143266232Y-90625234D01*
X143083839Y-90722724D01*
X143083829Y-90722731D01*
X142923949Y-90853940D01*
X142923940Y-90853949D01*
X142792731Y-91013829D01*
X142792724Y-91013839D01*
X142695234Y-91196232D01*
X142695232Y-91196237D01*
X142635191Y-91394163D01*
X142635190Y-91394168D01*
X142624767Y-91499999D01*
X142624768Y-91500000D01*
X143178254Y-91500000D01*
X143170000Y-91528111D01*
X143170000Y-91671889D01*
X143178254Y-91700000D01*
X142624767Y-91700000D01*
X142180500Y-91700000D01*
X142180500Y-90730252D01*
X142168867Y-90671769D01*
X142124552Y-90605448D01*
X142124548Y-90605445D01*
X142058233Y-90561134D01*
X142058231Y-90561133D01*
X142058228Y-90561132D01*
X142058227Y-90561132D01*
X141999758Y-90549501D01*
X141999748Y-90549500D01*
X140260252Y-90549500D01*
X140260251Y-90549500D01*
X140260241Y-90549501D01*
X140201772Y-90561132D01*
X140201766Y-90561134D01*
X140135451Y-90605445D01*
X140135445Y-90605451D01*
X140091134Y-90671766D01*
X140091132Y-90671772D01*
X140079501Y-90730241D01*
X140079500Y-90730253D01*
X140079500Y-92469746D01*
X132700500Y-92469746D01*
X132700500Y-86102279D01*
X132700553Y-86100000D01*
X133495006Y-86100000D01*
X133514965Y-86468143D01*
X133574614Y-86831979D01*
X133673242Y-87187206D01*
X133673246Y-87187217D01*
X133809711Y-87529721D01*
X133982403Y-87855453D01*
X134189306Y-88160611D01*
X134189313Y-88160621D01*
X134422925Y-88435650D01*
X135699983Y-87158592D01*
X135765130Y-87234870D01*
X135841405Y-87300014D01*
X134567580Y-88573840D01*
X134695655Y-88695158D01*
X134989156Y-88918272D01*
X134989161Y-88918275D01*
X135305070Y-89108352D01*
X135639676Y-89263157D01*
X135989076Y-89380884D01*
X136349128Y-89460137D01*
X136349127Y-89460137D01*
X136715657Y-89500000D01*
X137084343Y-89500000D01*
X137450872Y-89460137D01*
X137810922Y-89380884D01*
X137810924Y-89380884D01*
X138160323Y-89263157D01*
X138494929Y-89108352D01*
X138810838Y-88918275D01*
X138810843Y-88918272D01*
X139104344Y-88695158D01*
X139232418Y-88573840D01*
X137958593Y-87300015D01*
X138034870Y-87234870D01*
X138100015Y-87158593D01*
X139377073Y-88435651D01*
X139610686Y-88160621D01*
X139610693Y-88160611D01*
X139817596Y-87855453D01*
X139990288Y-87529721D01*
X140126753Y-87187217D01*
X140126757Y-87187206D01*
X140225385Y-86831979D01*
X140285034Y-86468143D01*
X140304993Y-86100000D01*
X164495006Y-86100000D01*
X164514965Y-86468143D01*
X164574614Y-86831979D01*
X164673242Y-87187206D01*
X164673246Y-87187217D01*
X164809711Y-87529721D01*
X164982403Y-87855453D01*
X165189306Y-88160611D01*
X165189313Y-88160621D01*
X165422925Y-88435650D01*
X166699983Y-87158592D01*
X166765130Y-87234870D01*
X166841405Y-87300014D01*
X165567580Y-88573840D01*
X165695655Y-88695158D01*
X165989156Y-88918272D01*
X165989161Y-88918275D01*
X166305070Y-89108352D01*
X166639676Y-89263157D01*
X166989076Y-89380884D01*
X167349128Y-89460137D01*
X167349127Y-89460137D01*
X167715657Y-89500000D01*
X168084343Y-89500000D01*
X168450872Y-89460137D01*
X168810922Y-89380884D01*
X168810924Y-89380884D01*
X169160323Y-89263157D01*
X169494929Y-89108352D01*
X169810838Y-88918275D01*
X169810843Y-88918272D01*
X170104344Y-88695158D01*
X170232418Y-88573840D01*
X168958593Y-87300015D01*
X169034870Y-87234870D01*
X169100015Y-87158593D01*
X170377073Y-88435651D01*
X170610686Y-88160621D01*
X170610693Y-88160611D01*
X170817596Y-87855453D01*
X170990288Y-87529721D01*
X171126753Y-87187217D01*
X171126757Y-87187206D01*
X171225385Y-86831979D01*
X171285034Y-86468143D01*
X171304993Y-86100000D01*
X171285034Y-85731856D01*
X171225385Y-85368020D01*
X171126757Y-85012793D01*
X171126753Y-85012782D01*
X170990288Y-84670278D01*
X170817596Y-84344546D01*
X170610693Y-84039388D01*
X170610686Y-84039378D01*
X170377072Y-83764347D01*
X169100014Y-85041404D01*
X169034870Y-84965130D01*
X168958592Y-84899983D01*
X170232418Y-83626158D01*
X170104344Y-83504841D01*
X169810843Y-83281727D01*
X169810838Y-83281724D01*
X169494929Y-83091647D01*
X169160323Y-82936842D01*
X168810923Y-82819115D01*
X168450871Y-82739862D01*
X168450872Y-82739862D01*
X168084343Y-82700000D01*
X167715657Y-82700000D01*
X167349127Y-82739862D01*
X166989077Y-82819115D01*
X166989075Y-82819115D01*
X166639676Y-82936842D01*
X166305070Y-83091647D01*
X165989161Y-83281724D01*
X165989156Y-83281727D01*
X165695655Y-83504841D01*
X165567580Y-83626158D01*
X166841406Y-84899984D01*
X166765130Y-84965130D01*
X166699984Y-85041406D01*
X165422925Y-83764347D01*
X165189313Y-84039378D01*
X165189306Y-84039388D01*
X164982403Y-84344546D01*
X164809711Y-84670278D01*
X164673246Y-85012782D01*
X164673242Y-85012793D01*
X164574614Y-85368020D01*
X164514965Y-85731856D01*
X164495006Y-86100000D01*
X140304993Y-86100000D01*
X140285034Y-85731856D01*
X140225385Y-85368020D01*
X140126757Y-85012793D01*
X140126753Y-85012782D01*
X139990288Y-84670278D01*
X139817596Y-84344546D01*
X139610693Y-84039388D01*
X139610686Y-84039378D01*
X139377072Y-83764347D01*
X138100014Y-85041404D01*
X138034870Y-84965130D01*
X137958592Y-84899983D01*
X139232418Y-83626158D01*
X139104344Y-83504841D01*
X138810843Y-83281727D01*
X138810838Y-83281724D01*
X138494929Y-83091647D01*
X138160323Y-82936842D01*
X137810923Y-82819115D01*
X137450871Y-82739862D01*
X137450872Y-82739862D01*
X137084343Y-82700000D01*
X136715657Y-82700000D01*
X136349127Y-82739862D01*
X135989077Y-82819115D01*
X135989075Y-82819115D01*
X135639676Y-82936842D01*
X135305070Y-83091647D01*
X134989161Y-83281724D01*
X134989156Y-83281727D01*
X134695655Y-83504841D01*
X134567580Y-83626158D01*
X135841406Y-84899984D01*
X135765130Y-84965130D01*
X135699984Y-85041406D01*
X134422925Y-83764347D01*
X134189313Y-84039378D01*
X134189306Y-84039388D01*
X133982403Y-84344546D01*
X133809711Y-84670278D01*
X133673246Y-85012782D01*
X133673242Y-85012793D01*
X133574614Y-85368020D01*
X133514965Y-85731856D01*
X133495006Y-86100000D01*
X132700553Y-86100000D01*
X132700606Y-86097707D01*
X132718202Y-85717098D01*
X132719045Y-85707993D01*
X132771374Y-85332856D01*
X132773050Y-85323895D01*
X132859765Y-84955205D01*
X132862266Y-84946416D01*
X132910814Y-84801570D01*
X132982629Y-84587301D01*
X132985930Y-84578782D01*
X133138919Y-84232295D01*
X133142980Y-84224138D01*
X133327290Y-83893237D01*
X133332093Y-83885481D01*
X133546144Y-83573006D01*
X133551654Y-83565711D01*
X133602200Y-83504841D01*
X133793613Y-83274329D01*
X133799753Y-83267593D01*
X134067593Y-82999753D01*
X134074329Y-82993613D01*
X134365712Y-82751652D01*
X134373008Y-82746143D01*
X134440368Y-82700000D01*
X134685481Y-82532093D01*
X134693237Y-82527290D01*
X135024138Y-82342980D01*
X135032295Y-82338919D01*
X135378789Y-82185927D01*
X135387301Y-82182629D01*
X135746421Y-82062264D01*
X135755205Y-82059765D01*
X136123895Y-81973050D01*
X136132856Y-81971374D01*
X136508000Y-81919044D01*
X136517091Y-81918202D01*
X136897707Y-81900605D01*
X136902279Y-81900500D01*
X136947595Y-81900500D01*
X167852405Y-81900500D01*
X167897721Y-81900500D01*
X167902292Y-81900605D01*
G37*
G04 #@! TD.AperFunction*
M02*
